<svg width="12" height="12" viewBox="0 0 12 12" fill="none" xmlns="http://www.w3.org/2000/svg">
<path d="M1 11V1.48413C1.00014 1.45049 1.01071 1.41747 1.03065 1.38837C1.05059 1.35926 1.0792 1.33509 1.11364 1.31827C1.33551 1.20817 1.93523 1 3.27273 1C5.09091 1 7.39205 2.15385 8.72727 2.15385C9.48113 2.15219 10.227 2.02331 10.9213 1.77476C10.93 1.77171 10.9394 1.77051 10.9487 1.77128C10.958 1.77204 10.9669 1.77475 10.9747 1.77915C10.9825 1.78355 10.9889 1.78951 10.9933 1.79651C10.9977 1.8035 11 1.81131 11 1.81923V7.09231C10.9999 7.11092 10.9935 7.12913 10.9814 7.1447C10.9694 7.16028 10.9522 7.17255 10.9321 7.18005C10.698 7.26683 9.87301 7.53846 8.72727 7.53846C7.36364 7.53846 5.09091 6.76923 3.27273 6.76923C1.45455 6.76923 1 7.15385 1 7.15385" stroke="black" stroke-miterlimit="10" stroke-linecap="round"/>
</svg>
