<svg width="10" height="10" viewBox="0 0 10 10" fill="none" xmlns="http://www.w3.org/2000/svg">
<path d="M8.30267 0.0352266C8.15608 0.0888295 8.04613 0.181929 7.47668 0.754634L6.96924 1.26527L7.85162 2.14549L8.73118 3.02853L9.29781 2.46429C9.99413 1.77027 10.0731 1.63767 9.95466 1.35555C9.89828 1.21731 8.81575 0.125505 8.65788 0.0521539C8.52538 -0.0127339 8.44927 -0.0155551 8.30267 0.0352266Z" fill="black"/>
<path d="M3.78372 4.45324C1.55664 6.68199 1.11686 7.13338 1.16196 7.15031C1.69477 7.33933 2.11482 7.63556 2.42492 8.04181C2.57997 8.24494 2.78858 8.62862 2.82523 8.77815C2.83651 8.82047 2.85342 8.85996 2.8647 8.86843C2.87597 8.87407 4.08537 7.67788 5.55412 6.20803L8.22381 3.53635L7.34143 2.65331L6.46187 1.77309L3.78372 4.45324Z" fill="black"/>
<path d="M0.758756 7.71737C0.330253 8.9587 -0.0136772 9.98845 0.000418315 9.99973C0.0173329 10.0167 2.33181 9.23236 2.36282 9.19851C2.39383 9.16465 2.30926 8.88817 2.20213 8.67658C1.97661 8.22237 1.55938 7.86126 1.08295 7.70045C0.848967 7.62145 0.792585 7.62427 0.758756 7.71737Z" fill="black"/>
</svg>
