<svg xmlns="http://www.w3.org/2000/svg" viewBox="0 0 595.28 841.89"><defs><style>.cls-1{fill:none;stroke:#231f20;stroke-miterlimit:10;stroke-width:10px;}.cls-2{fill:#0c090e;}.cls-3{fill:#271c32;}.cls-4{fill:#6b8fca;}.cls-5{fill:#4654a4;}.cls-6{fill:#fff;}.cls-7{fill:#271d33;}.cls-8{fill:#f9f9f9;}.cls-9{fill:#afafb0;}.cls-10{fill:#fbfbfb;}.cls-11{fill:#f2f1f1;}.cls-12{fill:#352744;}.cls-13{fill:#7c5c9c;}.cls-14{fill:#8362a8;}.cls-15{fill:#5c4578;}.cls-16{fill:#c7c7c7;}.cls-17{fill:#76579a;}.cls-18{fill:#06030a;}</style></defs><g id="Layer_18" data-name="Layer 18"><rect class="cls-1" x="55.32" y="48.92" width="483.26" height="743.72"/><path class="cls-2" d="M555.53,746.39c-.69,2.14-1,4.39-1.79,6.5a35.76,35.76,0,0,1-7.39,11.5c-6,6.35-12.51,12-20.48,15.83a45.14,45.14,0,0,1-16.94,4.38,1.52,1.52,0,0,0-1.39.73,42.58,42.58,0,0,1-3.86,5.19,1.7,1.7,0,0,0-.26,2,37.08,37.08,0,0,1,1.94,16.76c-.59,5.75-4.58,9.63-10.65,11a29.91,29.91,0,0,1-6.39.89c-.25,0-.58-.12-.72.25H476.28c-1.69-.56-3.47-.46-5.19-.83-3.93-.85-7.84-2-9.87-5.73-1.26-2.28-2.68-2.7-4.93-2.56a2.93,2.93,0,0,0-2.67,1.43c-2.12,3.2-5.44,4.66-9.05,5.4-6.47,1.31-13,1.16-19.53.64a25.42,25.42,0,0,1-7.9-1.78,11.84,11.84,0,0,1-7.67-10.51,38.94,38.94,0,0,1,1.76-15.68,1.57,1.57,0,0,0-.44-1.72,58.67,58.67,0,0,1-10.65-19.86,59.81,59.81,0,0,1-2.31-24.77c.49-4.29,1.76-8.38,2.71-12.56,1.12-5,1.17-10-3.08-14A53.62,53.62,0,0,1,392,713c-3.16-4-3.34-8.14-1-12.56a47.44,47.44,0,0,1,5.11-7.55c3.38-4.22,4-8.88,2.83-14a45.93,45.93,0,0,1-1.34-8.74c-.21-6.15,3.14-8.8,7.31-10.37a37,37,0,0,1,7.14-1.94,18.7,18.7,0,0,0,13-8.72,30.29,30.29,0,0,1,4.17-5c3.92-3.81,8.35-5,13.47-2.65,2.68,1.22,5.35,2.43,8,3.68a14.81,14.81,0,0,0,13,0c3.1-1.4,6.1-3,9.3-4.2,4.31-1.6,8-.52,11.34,2.28A30.62,30.62,0,0,1,490,649.7a17.93,17.93,0,0,0,12,7.84,41,41,0,0,1,8.58,2.45c4.77,2.08,6.79,5.56,6.34,10.7-.29,3.38-1.09,6.65-1.67,10a13.58,13.58,0,0,0,2.06,10.69c1.87,2.69,3.93,5.27,5.53,8.14,1.82,3.29,2.92,6.69,1.31,10.43a14.29,14.29,0,0,1-2.48,3.9c-1.76,2-3.63,3.82-5.45,5.72a1.54,1.54,0,0,1,.58-1.36c1.67-1.83,3.35-3.65,5-5.53,2.19-2.55,3.24-5.38,1.69-8.66-.61-1.28-1.36-2.5-2-3.76-.23.35.07.88-.38,1.15-1.81-3.1-4-5.91-6-8.87a15.76,15.76,0,0,1-2.33-12.13c.52-2.91,1.29-5.77,1.53-8.73.29-2.31.46-4.6-1.07-6.61-1-1.69-2.73-2.38-4.43-3a62.73,62.73,0,0,0-8.3-2.23A18.74,18.74,0,0,1,489,652.55a40.19,40.19,0,0,0-6.37-7.35c-2.76-2.29-5.72-3-9.17-1.66-2.63,1.06-5.16,2.28-7.68,3.54a18.19,18.19,0,0,1-17.07.06,81.77,81.77,0,0,0-8.09-3.67,8,8,0,0,0-8.09,1.25,25.73,25.73,0,0,0-5.6,6.14c-3.2,4.63-7.21,8-12.88,9.14a47.73,47.73,0,0,0-9.21,2.57,7,7,0,0,0-4.68,7.15c.13,4.25,1.36,8.33,1.92,12.52V686c-.14.54-.26,1.09-.4,1.63-.77,3-2.64,5.48-4.41,8a42.09,42.09,0,0,0-4.46,7,7.77,7.77,0,0,0,.82,8.25,37.32,37.32,0,0,0,4.72,5.24c3.08,2.92,5.24,6.26,5.33,10.66l-.06,3.48,0,1.16v4.78l0,.59,0,.8c-.12.8-.47-1-.6.06a6.93,6.93,0,0,0,4.52,6.61,11.8,11.8,0,0,0,4.46.42,38.13,38.13,0,0,1,9.84,0,15.3,15.3,0,0,1,7.24,3.16c6.34,5,13,9.29,20.75,11.64a20.44,20.44,0,0,0,11.23.44,52.05,52.05,0,0,0,19.34-9.85,15.8,15.8,0,0,1,7-3.42,8.23,8.23,0,0,0,2.45-.6c3.54-1.94,7.3-1.29,11-1.08.38,0,.62.18.65.58-2.15.08-4.3.14-6.44.25a9.79,9.79,0,0,0-4.55,1.22c-1.4.17-2.79.36-4.19.5a2.08,2.08,0,0,0-1.21.64A68.18,68.18,0,0,1,468,759.05c-7.65,3.4-15.21,3.78-22.91.17a67.92,67.92,0,0,1-16.46-10.84c-.41-.37-.74-.83-1.39-.89-1.12-.1-2.23-.31-3.34-.48a10,10,0,0,0-4.51-1.15l-3.55-.11c-1.87-.07-3.75-.1-5.63-.23-4.2-.3-7.59-1.79-8.85-6.27a2.4,2.4,0,0,0-.23-.38,61.84,61.84,0,0,0-1.52,17.39,1,1,0,0,0,.15.87l0,.57c-.78-.14-.42-1.07-1-1.42a13.18,13.18,0,0,0,.2,3.33,50.73,50.73,0,0,0,2.72,11.88,59.57,59.57,0,0,0,9.37,17.24c.78,1,1.08.92,1.54-.1a15.36,15.36,0,0,1,2.6-3.65,14.92,14.92,0,0,1,8.81-4.26l4.06,0a1.59,1.59,0,0,0,.38.17,41.57,41.57,0,0,1,14.77,4.84c5.55,3,9.95,7.08,11.95,13.3.49,1.53.59,3.12.93,4.68l0,2.62a.64.64,0,0,0,0,.83s0,.06,0,.09a.55.55,0,0,0,.05.17l-.6,2.11c-.33.53-.35,1.53-.08,1.57a13.84,13.84,0,0,0,3.58,0c.46-.05.13-.61,0-.94a4.27,4.27,0,0,0-.27-1.84l0-4.06a2.08,2.08,0,0,0,.15-.39,19.89,19.89,0,0,1,7.86-13.69,40,40,0,0,1,17.65-7.74c4.62-.91,9.18-.68,13.26,2.19a20.47,20.47,0,0,1,4.29,4.62c.2.65.32,1.29,1.08.33a62.82,62.82,0,0,0,8.9-15,59,59,0,0,0,4.4-22.5,46.12,46.12,0,0,0-1.11-11,37.74,37.74,0,0,0-1.91-6.89,16,16,0,0,1-.25,3.56,7.57,7.57,0,0,1-1.66,4.48c-.73-.67.11-1.2.23-1.76a61.58,61.58,0,0,0,1.12-11.73,9.68,9.68,0,0,1,.61-4.05c-.88,4.3.86,8.18,2,12.16a59.66,59.66,0,0,1,1.72,21.49,69.43,69.43,0,0,1-1.37,8.33,50.12,50.12,0,0,0,8.36-3.5,31.51,31.51,0,0,0,14.08-13.51c2.91-5.59,2.41-11.28-.07-16.9a92.36,92.36,0,0,0-6.31-11.07,12.23,12.23,0,0,1-2.09-4.4c-.28-1.74.45-2.74,2.18-3.16a8,8,0,0,1,6.1.89,36.75,36.75,0,0,1,14.66,16.09,25.25,25.25,0,0,1,2.62,9.08c0,.1.17.19.25.28Zm-92.87,53.49h0a1.06,1.06,0,0,0-.32.86l0,0a15.07,15.07,0,0,0-.79,7.95,9.41,9.41,0,0,0,2.18,5.46c.34-3.67,1.92-6,4.73-7.13a7.55,7.55,0,0,1,8.26,1.57,1,1,0,0,0,1.43.1,6.94,6.94,0,0,1,7.26-.34c1.5.85,2.25.84,3.59-.39,2.74-2.52,5.86-2.38,9.88-.07a9.77,9.77,0,0,1,2.58,4.89,9.12,9.12,0,0,0,1.34-4.39l0-4.77a28.71,28.71,0,0,0-2.09-10.73c-1-2.41-2.23-4.68-4.63-6a9.38,9.38,0,0,0-6.52-2.19c-7.22,0-13.69,2.51-19.64,6.41a18,18,0,0,0-7.26,8.57A.45.45,0,0,0,462.66,799.88Zm-32.23,17.54a20,20,0,0,0,3.94,0c2.29-.25,2.87-.84,2.76-2.82l0-.51-.16-.33a4.89,4.89,0,0,0-4.46-3.65,5.07,5.07,0,0,0-5.06,3.08c-.43,1.13-.82,2.33.18,3.41A3.47,3.47,0,0,0,430.43,817.42Zm59.64-1c2.22.69,4.23-.22,6.24-.9,2.85-1,3.24-2.37,1.49-4.84a6.68,6.68,0,0,0-.85-.91,5,5,0,0,0-5.9-.18c-1.66,1.06-1.9,1.71-1.26,4.36C490,814.74,489.41,815.63,490.07,816.38ZM439.5,812.9a7.5,7.5,0,0,1,.24,2.66c-.13.88.35,1.06,1.06,1.06a14.91,14.91,0,0,0,6.88-1.8,1.88,1.88,0,0,0,1-2.39,4.86,4.86,0,0,0-6.08-3.51,3.77,3.77,0,0,0-2.32,1.2C439.46,810.87,438.65,811.69,439.5,812.9Zm115.17-66.8a29.57,29.57,0,0,0-1.68,3.08c-.44.68-.43,1.67-1.37,2a23.74,23.74,0,0,0,1-12.11c-1.57-8-6-14.23-12.13-19.34-2.1-1.74-4.3-3.42-7.27-3.36a.76.76,0,0,0-1-.72c-.42.11-.41.57-.43,1a4.73,4.73,0,0,0,.48,2.44c1.84,3.59,4.36,6.77,6.06,10.46,1.45,3.13,2.75,6.22,2.83,9.75.09,3.8-1.07,7.29-2.27,10.8-.54,1.57-1.61,2.94-1.93,4.7l1.18-.16a31.57,31.57,0,0,1-5.26,5.69c-4.85,4.38-10.7,6.89-16.77,9-.51.18-1.11.19-1.31.88a71.51,71.51,0,0,1-5.06,11.89c-.06,1.08.83.57,1.14.53,2.41-.34,4.84-.65,7.2-1.21,10.26-2.45,18.27-8.59,25.55-15.86,1.62-1.62,3-3.46,4.62-5.13,3.81-4,5.59-8.94,6.48-14.27l.2-.31-.1-.08ZM444,806.08c3.91.33,6.35,2.45,7.41,6.29a7.18,7.18,0,0,0,1.66-3.58c1.4-7.55-1.1-13.62-7.13-18.27a11.77,11.77,0,0,0-4.2-2.49,7.38,7.38,0,0,0-1-.73c-4.54-2.13-9.23-3.82-14.29-4s-9,1.82-11.43,6.35a27.15,27.15,0,0,0-2.91,11.09c-.17,2.74-.5,5.49.28,8.19a6.7,6.7,0,0,0,1.56,3.37,7.8,7.8,0,0,1,2.73-4.29,7.71,7.71,0,0,1,10,.44c.38.32.61.76,1.28.35a7.51,7.51,0,0,1,8.95.33c.48.34.66.23,1-.16A7.92,7.92,0,0,1,444,806.08Zm38.2,11.48a21.2,21.2,0,0,0,3.34-.32,2.18,2.18,0,0,0,1.77-2.6,5.11,5.11,0,0,0-4.91-4.55,5.17,5.17,0,0,0-5.21,4.06c-.38,1.94.45,3.07,2.45,3.28C480.46,817.52,481.31,817.52,482.18,817.56Zm-57.42-.71a6.65,6.65,0,0,1,.49-5,.91.91,0,0,0-.11-1.22,5.16,5.16,0,0,0-8.5,1.56c-.55,1.52-.26,2.46,1.17,3.15A14.18,14.18,0,0,0,424.76,816.85Zm50.09,0a6.71,6.71,0,0,1,.43-5c.26-.55.35-.92-.13-1.34a5.17,5.17,0,0,0-4.9-1.4,4.79,4.79,0,0,0-3.72,3.76,1.71,1.71,0,0,0,.8,2.06A13.82,13.82,0,0,0,474.85,816.88Z"/><path class="cls-3" d="M521,701.38c.45-.27.15-.8.38-1.15.68,1.26,1.43,2.48,2,3.76,1.55,3.28.5,6.11-1.69,8.66-1.6,1.88-3.28,3.7-5,5.53a1.54,1.54,0,0,0-.58,1.36l-1.12,1.37c-.72.09-.81.62-.83,1.2l0,0c-.33.1-.35.34-.29.62l0,0c-.49.14-.36.53-.35.87l0,0c-.55.29-.3.77-.31,1.19h0a9.68,9.68,0,0,0-.61,4.05,61.58,61.58,0,0,1-1.12,11.73c-.12.56-1,1.09-.23,1.76-2,2.65-4.93,3.22-8,3.31a.69.69,0,0,0-1.12,0l-.85,0c0-.4-.27-.56-.65-.58-3.74-.21-7.5-.86-11,1.08a8.23,8.23,0,0,1-2.45.6,15.8,15.8,0,0,0-7,3.42A52.05,52.05,0,0,1,461,759.93a20.44,20.44,0,0,1-11.23-.44c-7.78-2.35-14.41-6.65-20.75-11.64a15.3,15.3,0,0,0-7.24-3.16,38.13,38.13,0,0,0-9.84,0,11.8,11.8,0,0,1-4.46-.42,6.93,6.93,0,0,1-4.52-6.61c.13-1.08.48.74.6-.06.35.26.1.83.52,1a4,4,0,0,0,2.74,3.53A11.08,11.08,0,0,0,412,743l6.68.09c2.8.18,5.35,1.49,8.1,1.76a6.36,6.36,0,0,1,3.79,1.86A61,61,0,0,0,446.41,757a22.91,22.91,0,0,0,18.36.55,62.12,62.12,0,0,0,18.71-11.39,3.09,3.09,0,0,1,1.94-1.06c3.52,0,6.71-1.79,10.2-2l6.68-.09c6.13.28,8.48-1.93,8.53-8.06,0-.8,0-1.6,0-2.4,0-2.21-.06-4.42,0-6.63a11.1,11.1,0,0,1,2.48-6.76c1.85-2.33,4.12-4.26,6-6.53a12.48,12.48,0,0,0,2.79-4.68C522.79,705.54,521.86,703.46,521,701.38Z"/><path class="cls-2" d="M514.25,722.11c0-.58.11-1.11.83-1.2Z"/><path class="cls-2" d="M513.41,724.66c0-.42-.24-.9.31-1.19C513.57,723.86,513.78,724.33,513.41,724.66Z"/><path class="cls-2" d="M513.68,723.52c0-.34-.14-.73.35-.87C513.89,722.93,514,723.31,513.68,723.52Z"/><path class="cls-2" d="M514,722.69c-.06-.28,0-.52.29-.62C514.21,722.29,514.26,722.56,514,722.69Z"/><path class="cls-4" d="M495.62,743.05c-3.49.22-6.68,2-10.2,2a3.09,3.09,0,0,0-1.94,1.06,62.12,62.12,0,0,1-18.71,11.39,22.91,22.91,0,0,1-18.36-.55,61,61,0,0,1-15.8-10.29,6.36,6.36,0,0,0-3.79-1.86c-2.75-.27-5.3-1.58-8.1-1.76.15-.07.38-.28.34-.28-2.34.05-4.69-.35-7,.19a11.08,11.08,0,0,1-5.22-.81,4,4,0,0,1-2.74-3.53c-.17-.61.48-1.45-.49-1.85l0-.59a9.67,9.67,0,0,0,0-4.78l0-1.16a3,3,0,0,0,.06-3.48c-.09-4.4-2.25-7.74-5.33-10.66a37.32,37.32,0,0,1-4.72-5.24,7.77,7.77,0,0,1-.82-8.25,42.09,42.09,0,0,1,4.46-7c1.77-2.48,3.64-4.92,4.41-8,.14-.54.26-1.09.4-1.63a.28.28,0,0,0,.11.08h.11a19.75,19.75,0,0,0,.05-4.21,1.42,1.42,0,0,0-.28.37c-.56-4.19-1.79-8.27-1.92-12.52a7,7,0,0,1,4.68-7.15A47.73,47.73,0,0,1,414,660c5.67-1.17,9.68-4.51,12.88-9.14a25.73,25.73,0,0,1,5.6-6.14,8,8,0,0,1,8.09-1.25,81.77,81.77,0,0,1,8.09,3.67,18.19,18.19,0,0,0,17.07-.06c2.52-1.26,5.05-2.48,7.68-3.54,3.45-1.38,6.41-.63,9.17,1.66a40.19,40.19,0,0,1,6.37,7.35,18.74,18.74,0,0,0,11.41,7.22,62.73,62.73,0,0,1,8.3,2.23c1.7.66,3.42,1.35,4.43,3a14.69,14.69,0,0,1,.83,6,1.66,1.66,0,0,0,.24.62c-.24,3-1,5.82-1.53,8.73A15.76,15.76,0,0,0,515,692.51c2,3,4.21,5.77,6,8.87.86,2.08,1.79,4.16,1.12,6.52a12.48,12.48,0,0,1-2.79,4.68c-1.92,2.27-4.19,4.2-6,6.53a11.1,11.1,0,0,0-2.48,6.76c-.06,2.21,0,4.42,0,6.63,0,.8,0,1.6,0,2.4-.05,6.13-2.4,8.34-8.53,8.06-2.42-.56-4.86-.09-7.31-.05Zm-49.94-29.83c.08.09.19.22.27,0a.43.43,0,0,0-.2-.54v-.58c.5-.07.58-.44.52-.82-.18-1,.43-2.11-.34-3a2.78,2.78,0,0,1-.2-.52,13.35,13.35,0,0,0-16.09-10.86A13.47,13.47,0,0,0,424,720.49a12.86,12.86,0,0,0,13.8,1.93C441.94,720.72,444.36,717.41,445.68,713.22Zm50.17-3.17a13.47,13.47,0,1,0-13.43,13.46A13.39,13.39,0,0,0,495.85,710.05Zm-48.67-27.74a15.28,15.28,0,0,0-.26-1.67,38.68,38.68,0,0,0-13.46-19.4c-3.06-2.44-5.16-1.55-6.11,2.31a45.39,45.39,0,0,0-.72,15.59,26.27,26.27,0,0,0,1.73,7.38,8.18,8.18,0,0,0,7.72,5,10.83,10.83,0,0,0,10.22-6.12A6.24,6.24,0,0,0,447.18,682.31ZM488.5,674c0-4-.1-7.49-1.1-10.82-1-3.53-2.81-4.14-5.86-2.11-.15.11-.32.2-.47.32a44,44,0,0,0-12.67,17.38c-3,7.31,5,13.32,10.77,12.58,4.41-.56,7.15-2.9,8.19-7.33A43.81,43.81,0,0,0,488.5,674Zm-24.62,61.21a22,22,0,0,0-1.5-7.21,15.64,15.64,0,0,0-3.14-5.93c-1.27-1.31-2.39-1.27-3.61.09a7.34,7.34,0,0,0-1,1.37,29.88,29.88,0,0,0-3.5,9.9c-.31,1.8-.54,3.66.46,5.36a6.9,6.9,0,0,0,7.63,2.92C462.49,740.84,464,738.84,463.88,735.23Zm-4,12.32a2.74,2.74,0,0,0,1.4,2.76,3,3,0,0,0,3.19-.33,5.67,5.67,0,0,0,2.48-5.6,2.6,2.6,0,0,0-3.37-2.06A5.49,5.49,0,0,0,459.85,747.55Zm-4.81-.09a5.63,5.63,0,0,0-3.46-5,2.58,2.58,0,0,0-3.61,1.83,5.58,5.58,0,0,0,2.57,5.8,2.8,2.8,0,0,0,4.5-2.59Z"/><path class="cls-4" d="M501.47,745.56l.85,0,1.12,0c3.1-.09,6-.66,8-3.31a7.57,7.57,0,0,0,1.66-4.48c.4-.12.45.13.52.44a61.4,61.4,0,0,1,1.49,18.63A57.27,57.27,0,0,1,502,789.23a20.47,20.47,0,0,0-4.29-4.62c-4.08-2.87-8.64-3.1-13.26-2.19a40,40,0,0,0-17.65,7.74A19.89,19.89,0,0,0,459,803.85a2.08,2.08,0,0,1-.15.39.54.54,0,0,0-.12-.09h-.12a22.82,22.82,0,0,0-.07,4.45c0,.09.2-.17.28-.3a4.27,4.27,0,0,1,.27,1.84h-2.67c-.44,0-.87,0-.86-.63l.6-2.12c.72-1.41.16-2.88.15-4.34l-.16.64c-.34-1.56-.44-3.15-.93-4.68-2-6.22-6.4-10.3-11.95-13.3a41.57,41.57,0,0,0-14.77-4.84,1.59,1.59,0,0,1-.38-.17s.07-.07.08-.11a.2.2,0,0,0,0-.12,15.77,15.77,0,0,0-4.23,0l.1.24a14.92,14.92,0,0,0-8.81,4.26,15.36,15.36,0,0,0-2.6,3.65c-.62-.14-.86-.71-1.18-1.14a57.35,57.35,0,0,1-11.65-29.79l0-.57a1,1,0,0,0-.15-.87,61.84,61.84,0,0,1,1.52-17.39,2.4,2.4,0,0,1,.23.38c1.26,4.48,4.65,6,8.85,6.27,1.88.13,3.76.16,5.63.23h-4.33v.35c1.24,0,2.48.06,3.72,0,1.39-.07,2.8.3,4.16-.23a10,10,0,0,1,4.51,1.15,20.63,20.63,0,0,0,3.87,5,57.64,57.64,0,0,0,18.31,13.22c3.69,1.68,7.51,3.08,11.65,2.94A29.32,29.32,0,0,0,469,765a57.59,57.59,0,0,0,19-14.43c.94-1.06,2.09-2,2.46-3.53a9.79,9.79,0,0,1,4.55-1.22C497.17,745.7,499.32,745.64,501.47,745.56Z"/><path class="cls-4" d="M533.17,716.38c3-.06,5.17,1.62,7.27,3.36,6.16,5.11,10.56,11.34,12.13,19.34a23.74,23.74,0,0,1-1,12.11,38.84,38.84,0,0,1-2.31,5,48.22,48.22,0,0,1-8.69,10.36c-8.7,8.37-18.57,14.42-30.92,15.51a71.51,71.51,0,0,0,5.06-11.89c.2-.69.8-.7,1.31-.88,6.07-2.09,11.92-4.6,16.77-9a31.57,31.57,0,0,0,5.26-5.69,21,21,0,0,0,4.49-15,29,29,0,0,0-4-11.65c-1.92-3.34-3.94-6.62-5.92-9.94C532.23,717.29,532,716.62,533.17,716.38Z"/><path class="cls-4" d="M498.92,807.86c-4-2.31-7.14-2.45-9.88.07-1.34,1.23-2.09,1.24-3.59.39a6.94,6.94,0,0,0-7.26.34,1,1,0,0,1-1.43-.1A7.55,7.55,0,0,0,468.5,807c-2.81,1.1-4.39,3.46-4.73,7.13a9.41,9.41,0,0,1-2.18-5.46c.26-2.65.53-5.3.79-7.95l0,0c.41-.18.31-.54.32-.86h0s.13,0,.12,0a.6.6,0,0,0-.06-.22A18,18,0,0,1,470,791c5.95-3.9,12.42-6.4,19.64-6.41a9.38,9.38,0,0,1,6.52,2.19,11.92,11.92,0,0,0,1.13,2.86A40.19,40.19,0,0,1,498.92,807.86Z"/><path class="cls-4" d="M412.06,800.75A27.15,27.15,0,0,1,415,789.66c2.47-4.53,6.42-6.52,11.43-6.35s9.75,1.86,14.29,4a7.38,7.38,0,0,1,1,.73c.57,1.58,1.22,3.13,1.7,4.73a26.84,26.84,0,0,1,.56,13.32,7.92,7.92,0,0,0-6.17,2.9c-.31.39-.49.5-1,.16a7.51,7.51,0,0,0-8.95-.33c-.67.41-.9,0-1.28-.35a7.71,7.71,0,0,0-10-.44,7.8,7.8,0,0,0-2.73,4.29,6.7,6.7,0,0,1-1.56-3.37c0-1.87,0-3.74,0-5.61C412.27,802.47,412.57,801.57,412.06,800.75Z"/><path class="cls-5" d="M490.48,747c-.37,1.48-1.52,2.47-2.46,3.53A57.59,57.59,0,0,1,469,765a29.32,29.32,0,0,1-11.33,3.16c-4.14.14-8-1.26-11.65-2.94A57.64,57.64,0,0,1,427.75,752a20.63,20.63,0,0,1-3.87-5c1.11.17,2.22.38,3.34.48.65.06,1,.52,1.39.89a67.92,67.92,0,0,0,16.46,10.84c7.7,3.61,15.26,3.23,22.91-.17a68.18,68.18,0,0,0,17.1-10.88,2.08,2.08,0,0,1,1.21-.64C487.69,747.39,489.08,747.2,490.48,747Z"/><path class="cls-5" d="M444,806.08a26.84,26.84,0,0,0-.56-13.32c-.48-1.6-1.13-3.15-1.7-4.73a11.77,11.77,0,0,1,4.2,2.49c6,4.65,8.53,10.72,7.13,18.27a7.18,7.18,0,0,1-1.66,3.58C450.33,808.53,447.89,806.41,444,806.08Z"/><path class="cls-5" d="M509.7,782.05c12.35-1.09,22.22-7.14,30.92-15.51a48.22,48.22,0,0,0,8.69-10.36,38.84,38.84,0,0,0,2.31-5c.94-.34.93-1.33,1.37-2a29.57,29.57,0,0,1,1.68-3.08h0c-.89,5.33-2.67,10.26-6.48,14.27-1.58,1.67-3,3.51-4.62,5.13-7.28,7.27-15.29,13.41-25.55,15.86-2.36.56-4.79.87-7.2,1.21C510.53,782.62,509.64,783.13,509.7,782.05Z"/><path class="cls-5" d="M498.92,807.86a40.19,40.19,0,0,0-1.65-18.18,11.92,11.92,0,0,1-1.13-2.86c2.4,1.36,3.65,3.63,4.63,6a28.71,28.71,0,0,1,2.09,10.73,9.4,9.4,0,0,0,0,4.77,9.12,9.12,0,0,1-1.34,4.39A9.77,9.77,0,0,0,498.92,807.86Z"/><path class="cls-6" d="M482.18,817.56c-.87,0-1.72,0-2.56-.13-2-.21-2.83-1.34-2.45-3.28a5.17,5.17,0,0,1,5.21-4.06,5.11,5.11,0,0,1,4.91,4.55,2.18,2.18,0,0,1-1.77,2.6A21.2,21.2,0,0,1,482.18,817.56Z"/><path class="cls-7" d="M502,789.23a57.27,57.27,0,0,0,13.12-32.44,61.4,61.4,0,0,0-1.49-18.63c-.07-.31-.12-.56-.52-.44a16,16,0,0,0,.25-3.56,37.74,37.74,0,0,1,1.91,6.89,46.12,46.12,0,0,1,1.11,11,59,59,0,0,1-4.4,22.5,62.82,62.82,0,0,1-8.9,15C502.34,790.52,502.22,789.88,502,789.23Z"/><path class="cls-7" d="M533.17,716.38c-1.16.24-.94.91-.51,1.63,2,3.32,4,6.6,5.92,9.94a29,29,0,0,1,4,11.65,21,21,0,0,1-4.49,15l-1.18.16c.32-1.76,1.39-3.13,1.93-4.7,1.2-3.51,2.36-7,2.27-10.8-.08-3.53-1.38-6.62-2.83-9.75-1.7-3.69-4.22-6.87-6.06-10.46a4.73,4.73,0,0,1-.48-2.44c0-.39,0-.85.43-1A.76.76,0,0,1,533.17,716.38Z"/><path class="cls-8" d="M424.76,816.85a14.18,14.18,0,0,1-6.95-1.54c-1.43-.69-1.72-1.63-1.17-3.15a5.16,5.16,0,0,1,8.5-1.56.91.91,0,0,1,.11,1.22A6.65,6.65,0,0,0,424.76,816.85Z"/><path class="cls-8" d="M474.85,816.88a13.82,13.82,0,0,1-7.52-1.92,1.71,1.71,0,0,1-.8-2.06,4.79,4.79,0,0,1,3.72-3.76,5.17,5.17,0,0,1,4.9,1.4c.48.42.39.79.13,1.34A6.71,6.71,0,0,0,474.85,816.88Z"/><path class="cls-9" d="M442.56,808.92a4.86,4.86,0,0,1,6.08,3.51,1.88,1.88,0,0,1-1,2.39,14.91,14.91,0,0,1-6.88,1.8c-.71,0-1.19-.18-1.06-1.06a7.5,7.5,0,0,0-.24-2.66A5.87,5.87,0,0,0,442.56,808.92Z"/><path class="cls-10" d="M437.11,814.07l0,.51a33.34,33.34,0,0,1-9.52,2c-1-1.08-.61-2.28-.18-3.41a5.07,5.07,0,0,1,5.06-3.08,4.89,4.89,0,0,1,4.46,3.65A.23.23,0,0,0,437.11,814.07Z"/><path class="cls-8" d="M490.07,816.38c-.66-.75-.08-1.64-.28-2.47-.64-2.65-.4-3.3,1.26-4.36a5,5,0,0,1,5.9.18,6.68,6.68,0,0,1,.85.91C496.09,813.72,493.27,815.3,490.07,816.38Z"/><path class="cls-7" d="M399.78,757.7a57.35,57.35,0,0,0,11.65,29.79c.32.43.56,1,1.18,1.14-.46,1-.76,1.11-1.54.1a59.57,59.57,0,0,1-9.37-17.24A50.73,50.73,0,0,1,399,759.61a13.18,13.18,0,0,1-.2-3.33C399.36,756.63,399,757.56,399.78,757.7Z"/><path class="cls-9" d="M490.07,816.38c3.2-1.08,6-2.66,7.73-5.74,1.75,2.47,1.36,3.87-1.49,4.84C494.3,816.16,492.29,817.07,490.07,816.38Z"/><path class="cls-9" d="M427.61,816.58a33.34,33.34,0,0,0,9.52-2c.11,2-.47,2.57-2.76,2.82a6.78,6.78,0,0,0-3.94,0A3.47,3.47,0,0,1,427.61,816.58Z"/><path class="cls-11" d="M442.56,808.92a5.87,5.87,0,0,1-3.06,4c-.85-1.21,0-2,.74-2.78A3.77,3.77,0,0,1,442.56,808.92Z"/><path class="cls-12" d="M455.52,809.51c0,.61.42.64.86.63h2.67c.1.33.43.89,0,.94a13.84,13.84,0,0,1-3.58,0C455.17,811,455.19,810,455.52,809.51Zm2.86,1.08v-.13H455.9v.13Z"/><path class="cls-13" d="M412.06,800.75c.51.82.21,1.72.24,2.58.05,1.87,0,3.74,0,5.61C411.56,806.24,411.89,803.49,412.06,800.75Z"/><path class="cls-13" d="M462.38,800.71c-.26,2.65-.53,5.3-.79,7.95A15.07,15.07,0,0,1,462.38,800.71Z"/><path class="cls-13" d="M514.18,671.65a1.66,1.66,0,0,1-.24-.62,14.69,14.69,0,0,0-.83-6C514.64,667.05,514.47,669.34,514.18,671.65Z"/><path class="cls-14" d="M419.37,745.86c-1.36.53-2.77.16-4.16.23-1.24.07-2.48,0-3.72,0v-.35h4.33Z"/><path class="cls-14" d="M403.66,726.76a3,3,0,0,1-.06,3.48Z"/><path class="cls-14" d="M458.78,808.3c-.08.13-.28.39-.28.3a22.82,22.82,0,0,1,.07-4.45h.12a.54.54,0,0,1,.12.09Z"/><path class="cls-14" d="M424,780.72l-.1-.24a15.77,15.77,0,0,1,4.23,0,.2.2,0,0,1,0,.12s-.05.07-.08.11Z"/><path class="cls-15" d="M502.84,808.36a9.4,9.4,0,0,1,0-4.77C502.85,805.18,502.85,806.77,502.84,808.36Z"/><path class="cls-14" d="M402.05,682.24a1.42,1.42,0,0,1,.28-.37,19.75,19.75,0,0,1-.05,4.21h-.11a.28.28,0,0,1-.11-.08C402.05,684.75,402.05,683.49,402.05,682.24Z"/><path class="cls-14" d="M403.58,731.4a9.67,9.67,0,0,1,0,4.78Z"/><path class="cls-14" d="M456.11,803.69l.16-.64c0,1.46.57,2.93-.15,4.34a.43.43,0,0,1-.05-.16s0-.06,0-.09c0-.28,0-.56,0-.83Z"/><path class="cls-16" d="M430.43,817.42a6.78,6.78,0,0,1,3.94,0A20,20,0,0,1,430.43,817.42Z"/><path class="cls-14" d="M403.59,736.77c1,.4.32,1.24.49,1.85-.42-.22-.17-.79-.52-1Z"/><path class="cls-13" d="M462.68,799.87c0,.32.09.68-.32.86A1.06,1.06,0,0,1,462.68,799.87Z"/><path class="cls-7" d="M399.59,756.26a1,1,0,0,1,.15.87A1,1,0,0,1,399.59,756.26Z"/><path class="cls-3" d="M554.67,746.1l.12-.38.1.08-.2.31Z"/><path class="cls-17" d="M456.14,806.31c0,.27,0,.55,0,.83A.64.64,0,0,1,456.14,806.31Z"/><path class="cls-13" d="M462.72,799.61a.6.6,0,0,1,.06.22s-.07,0-.12,0A.45.45,0,0,1,462.72,799.61Z"/><path class="cls-9" d="M437.11,814.07a.23.23,0,0,1-.16-.33Z"/><path class="cls-14" d="M495.62,743.05l-.63-.14c2.45,0,4.89-.51,7.31.05Z"/><path class="cls-14" d="M412,743c2.33-.54,4.68-.14,7-.19,0,0-.19.21-.34.28Z"/><path class="cls-2" d="M503.44,745.51l-1.12,0A.69.69,0,0,1,503.44,745.51Z"/><path class="cls-2" d="M445.75,712.13v.58l-.07.51c-1.32,4.19-3.74,7.5-7.89,9.2a13.47,13.47,0,0,1-18.35-15.72,12.71,12.71,0,0,1,10.2-9.82,13.35,13.35,0,0,1,16.09,10.86,2.78,2.78,0,0,0,.2.52A12.28,12.28,0,0,1,445.75,712.13Zm-13.27,8.79A10.89,10.89,0,0,0,443.42,710a11,11,0,0,0-11-10.92,10.87,10.87,0,0,0-10.87,10.94A10.75,10.75,0,0,0,432.48,720.92Z"/><path class="cls-2" d="M495.85,710.05a13.47,13.47,0,1,1-13.42-13.48A13.36,13.36,0,0,1,495.85,710.05Zm-13.57,10.88a10.91,10.91,0,0,0,.22-21.82,10.91,10.91,0,1,0-.22,21.82Z"/><path class="cls-2" d="M447.18,682.31a6.24,6.24,0,0,1-.88,3.09,10.83,10.83,0,0,1-10.22,6.12,8.18,8.18,0,0,1-7.72-5,26.27,26.27,0,0,1-1.73-7.38,45.39,45.39,0,0,1,.72-15.59c.95-3.86,3-4.75,6.11-2.31a38.68,38.68,0,0,1,13.46,19.4A15.28,15.28,0,0,1,447.18,682.31Zm-17-19.11a5.28,5.28,0,0,0-.34.91,42.94,42.94,0,0,0,.25,19.53c.9,3.51,2.41,4.73,5.95,5.13,2.19.25,5.88-1.13,6.56-2.92a3.28,3.28,0,0,0,.56-.39c1.7-1.83,1.58-3.9.74-6.05A41.41,41.41,0,0,0,436.81,668a23.49,23.49,0,0,0-5.35-5C431,662.7,430.45,662.18,430.21,663.2Z"/><path class="cls-2" d="M488.5,674a43.81,43.81,0,0,1-1.14,10c-1,4.43-3.78,6.77-8.19,7.33-5.75.74-13.77-5.27-10.77-12.58a44,44,0,0,1,12.67-17.38c.15-.12.32-.21.47-.32,3-2,4.81-1.42,5.86,2.11C488.4,666.53,488.51,670,488.5,674Zm-2.59-.85a33.37,33.37,0,0,0-.87-8.95c-.46-1.88-.75-2-2.35-.8l-.23.17a41.68,41.68,0,0,0-11.57,15.89c-1.17,2.81-.39,5.08,1.73,7.08,4.4,4.14,10.69,2.45,12.26-3.34A34.88,34.88,0,0,0,485.91,673.17Z"/><path class="cls-2" d="M463.88,735.23c.08,3.61-1.39,5.61-4.65,6.5a6.9,6.9,0,0,1-7.63-2.92c-1-1.7-.77-3.56-.46-5.36a29.88,29.88,0,0,1,3.5-9.9,7.34,7.34,0,0,1,1-1.37c1.22-1.36,2.34-1.4,3.61-.09a15.64,15.64,0,0,1,3.14,5.93A22,22,0,0,1,463.88,735.23ZM457.5,724c-2.19,2.86-4.18,9.16-3.94,12.32.15,1.9,1.69,3.08,4,3,2.14,0,3.63-1.33,3.72-3.17a15.37,15.37,0,0,0-.61-4.73A22.7,22.7,0,0,0,457.5,724Z"/><path class="cls-18" d="M459.85,747.55a5.49,5.49,0,0,1,3.7-5.23,2.6,2.6,0,0,1,3.37,2.06,5.67,5.67,0,0,1-2.48,5.6,3,3,0,0,1-3.19.33A2.74,2.74,0,0,1,459.85,747.55Z"/><path class="cls-18" d="M455,747.46a2.8,2.8,0,0,1-4.5,2.59,5.58,5.58,0,0,1-2.57-5.8,2.58,2.58,0,0,1,3.61-1.83A5.63,5.63,0,0,1,455,747.46Z"/><path class="cls-14" d="M445.75,712.13a12.28,12.28,0,0,0,.18-3.87c.77.94.16,2,.34,3C446.33,711.69,446.25,712.06,445.75,712.13Z"/><path class="cls-14" d="M445.68,713.22l.07-.51a.43.43,0,0,1,.2.54C445.87,713.44,445.76,713.31,445.68,713.22Z"/><path class="cls-2" d="M458.38,810.59H455.9v-.13h2.49Z"/><path class="cls-10" d="M432.48,720.92a10.75,10.75,0,0,1-10.89-10.87,10.87,10.87,0,0,1,10.87-10.94,11,11,0,0,1,11,10.92A10.89,10.89,0,0,1,432.48,720.92Zm-1-8.67a4,4,0,1,0,8,0,4,4,0,1,0-8,0Z"/><path class="cls-10" d="M482.28,720.93a10.91,10.91,0,1,1,11-10.63A10.86,10.86,0,0,1,482.28,720.93Zm-2.61-12.77a4,4,0,0,0-4,4,4,4,0,1,0,8,0A4,4,0,0,0,479.67,708.16Z"/><path class="cls-10" d="M442.63,685.85c-.68,1.79-4.37,3.17-6.56,2.92-3.54-.4-5.05-1.62-5.95-5.13a42.94,42.94,0,0,1-.25-19.53,5.28,5.28,0,0,1,.34-.91,10.75,10.75,0,0,1,2.09,1.66,39.84,39.84,0,0,1,7.39,10.57C441.35,678.7,442.94,682,442.63,685.85Z"/><path class="cls-9" d="M442.63,685.85c.31-3.84-1.28-7.15-2.94-10.42a39.84,39.84,0,0,0-7.39-10.57,10.75,10.75,0,0,0-2.09-1.66c.24-1,.82-.5,1.25-.23a23.49,23.49,0,0,1,5.35,5,41.41,41.41,0,0,1,7.12,11.45c.84,2.15,1,4.22-.74,6.05A3.28,3.28,0,0,1,442.63,685.85Z"/><path class="cls-10" d="M485.91,673.17a34.88,34.88,0,0,1-1,10.05c-1.57,5.79-7.86,7.48-12.26,3.34-2.12-2-2.9-4.27-1.73-7.08a41.68,41.68,0,0,1,11.57-15.89l.23-.17c1.6-1.16,1.89-1.08,2.35.8A33.37,33.37,0,0,1,485.91,673.17Z"/><path class="cls-11" d="M457.5,724a22.7,22.7,0,0,1,3.15,7.46,15.37,15.37,0,0,1,.61,4.73c-.09,1.84-1.58,3.14-3.72,3.17-2.29,0-3.83-1.14-4-3C453.32,733.14,455.31,726.84,457.5,724Z"/><path class="cls-2" d="M431.49,712.25a4,4,0,1,1,8,0,4,4,0,1,1-8,0Z"/><path class="cls-2" d="M479.67,708.16a4,4,0,0,1,4,4,4,4,0,1,1-8,0A4,4,0,0,1,479.67,708.16Z"/></g></svg>