<svg xmlns="http://www.w3.org/2000/svg" viewBox="0 0 502.95 161.99"><defs><style>.cls-1{fill:#c2e0f5;}.cls-2{fill:#0c090e;}.cls-3{fill:#271c32;}.cls-4{fill:#6b8fca;}.cls-5{fill:#4654a4;}.cls-6{fill:#271d33;}.cls-7{fill:#7c5c9c;}.cls-8{fill:#8362a8;}.cls-9{fill:#06030a;}.cls-10{fill:#fbfbfb;}.cls-11{fill:#afafb0;}.cls-12{fill:#f2f1f1;}</style></defs><g id="Layer_6" data-name="Layer 6"><rect class="cls-1" width="503" height="159.12"/><path class="cls-2" d="M487.79,116.83c-.69,2.15-1,4.4-1.79,6.51a36,36,0,0,1-7.38,11.5c-6,6.34-12.52,12-20.48,15.83a45.24,45.24,0,0,1-16.95,4.38,1.51,1.51,0,0,0-1.39.72,39.91,39.91,0,0,1-3.86,5.19,1.71,1.71,0,0,0-.26,2,37.08,37.08,0,0,1,1.94,16.76c-.59,5.74-4.58,9.63-10.64,11a29.38,29.38,0,0,1-6.4.89c-.25,0-.58-.11-.72.25H408.54c-1.68-.55-3.47-.45-5.19-.82-3.93-.86-7.83-2.05-9.87-5.73-1.25-2.28-2.67-2.71-4.92-2.56a2.92,2.92,0,0,0-2.68,1.43c-2.12,3.2-5.44,4.66-9.05,5.39-6.46,1.32-13,1.16-19.53.65a25.48,25.48,0,0,1-7.9-1.78,11.85,11.85,0,0,1-7.67-10.51,38.93,38.93,0,0,1,1.77-15.68,1.59,1.59,0,0,0-.44-1.72,58.7,58.7,0,0,1-10.66-19.86,59.82,59.82,0,0,1-2.3-24.77c.48-4.29,1.75-8.39,2.7-12.57,1.13-5,1.17-10-3.08-14a55.64,55.64,0,0,1-5.46-5.91c-3.16-4-3.34-8.15-1-12.56a47.25,47.25,0,0,1,5.1-7.56c3.39-4.22,4-8.87,2.84-14a44.93,44.93,0,0,1-1.34-8.73c-.21-6.15,3.13-8.8,7.3-10.38a38.09,38.09,0,0,1,7.14-1.93,18.68,18.68,0,0,0,13-8.72,29.94,29.94,0,0,1,4.18-5c3.92-3.81,8.35-5,13.47-2.65,2.67,1.22,5.35,2.43,8,3.68a14.83,14.83,0,0,0,13,0c3.1-1.39,6.1-3,9.3-4.19,4.3-1.61,8-.52,11.33,2.28a30.1,30.1,0,0,1,5.72,6.42,17.93,17.93,0,0,0,12,7.83,41.85,41.85,0,0,1,8.59,2.45c4.77,2.08,6.78,5.56,6.33,10.71-.29,3.37-1.08,6.65-1.67,10a13.59,13.59,0,0,0,2.07,10.69,95.35,95.35,0,0,1,5.52,8.14c1.83,3.29,2.92,6.69,1.31,10.43a14.09,14.09,0,0,1-2.48,3.89c-1.75,2-3.63,3.82-5.45,5.72a1.56,1.56,0,0,1,.58-1.35c1.67-1.83,3.35-3.65,5-5.53,2.18-2.55,3.24-5.38,1.68-8.66-.61-1.28-1.35-2.51-2-3.76-.23.35.08.87-.38,1.14-1.8-3.09-4-5.91-6-8.87a15.69,15.69,0,0,1-2.34-12.12c.52-2.91,1.3-5.78,1.53-8.74.29-2.3.46-4.59-1.07-6.6-1-1.7-2.72-2.38-4.43-3a62.59,62.59,0,0,0-8.29-2.23A18.77,18.77,0,0,1,421.23,23a39.44,39.44,0,0,0-6.37-7.35c-2.75-2.3-5.72-3.05-9.17-1.66-2.62,1-5.16,2.28-7.68,3.53a18.19,18.19,0,0,1-17.07.07,79.36,79.36,0,0,0-8.08-3.67,8,8,0,0,0-8.1,1.25,26.11,26.11,0,0,0-5.6,6.13c-3.19,4.64-7.21,8-12.88,9.14A47.75,47.75,0,0,0,337.07,33a7,7,0,0,0-4.68,7.15c.13,4.25,1.36,8.33,1.93,12.51v3.77c-.13.54-.26,1.08-.4,1.62-.77,3-2.63,5.48-4.41,8a41.32,41.32,0,0,0-4.45,7,7.79,7.79,0,0,0,.81,8.25,38,38,0,0,0,4.72,5.25c3.08,2.91,5.24,6.26,5.33,10.65l-.05,3.49,0,1.16v4.78l0,.59,0,.8c-.12.8-.47-1-.59.06a6.91,6.91,0,0,0,4.51,6.6,11.66,11.66,0,0,0,4.47.43,38.05,38.05,0,0,1,9.83,0,15.38,15.38,0,0,1,7.25,3.16c6.33,5,13,9.28,20.75,11.64a20.34,20.34,0,0,0,11.23.43,51.94,51.94,0,0,0,19.33-9.85,15.88,15.88,0,0,1,7-3.41,8.49,8.49,0,0,0,2.44-.61c3.55-1.93,7.31-1.28,11-1.08.39,0,.62.18.66.58-2.15.08-4.3.15-6.45.25a9.83,9.83,0,0,0-4.55,1.22c-1.39.17-2.78.37-4.18.51a2.12,2.12,0,0,0-1.22.63,67.59,67.59,0,0,1-17.1,10.89c-7.64,3.39-15.2,3.78-22.9.17a67.73,67.73,0,0,1-16.47-10.85c-.41-.36-.73-.82-1.39-.88-1.12-.11-2.22-.32-3.34-.49a10,10,0,0,0-4.5-1.15l-3.55-.1c-1.88-.08-3.76-.11-5.63-.24-4.21-.29-7.6-1.79-8.86-6.27a1.44,1.44,0,0,0-.23-.37,61.44,61.44,0,0,0-1.51,17.39.94.94,0,0,0,.14.87l0,.56c-.78-.13-.42-1.07-1-1.41a13.18,13.18,0,0,0,.2,3.33A50.82,50.82,0,0,0,334,141.94a59.94,59.94,0,0,0,9.37,17.24c.78,1,1.09.92,1.54-.11a15.34,15.34,0,0,1,2.61-3.64,14.84,14.84,0,0,1,8.8-4.26l4.06,0a1.46,1.46,0,0,0,.39.16,41.65,41.65,0,0,1,14.77,4.85c5.55,3,9.94,7.07,11.95,13.3.49,1.52.59,3.12.93,4.67l0,2.62a.65.65,0,0,0-.05.84.41.41,0,0,0,0,.08.84.84,0,0,0,.05.17l-.6,2.12c-.33.53-.35,1.53-.07,1.57a13.76,13.76,0,0,0,3.57,0c.46-.05.14-.61,0-.95a4.07,4.07,0,0,0-.27-1.83l0-4.07a1.43,1.43,0,0,0,.15-.39,19.9,19.9,0,0,1,7.87-13.68,39.92,39.92,0,0,1,17.64-7.74c4.63-.91,9.19-.68,13.26,2.19a20.51,20.51,0,0,1,4.3,4.62c.19.64.32,1.29,1.08.33a62.78,62.78,0,0,0,8.89-15,58.83,58.83,0,0,0,4.4-22.5,46.12,46.12,0,0,0-1.11-11,38,38,0,0,0-1.9-6.89,15.82,15.82,0,0,1-.26,3.55,7.6,7.6,0,0,1-1.65,4.48c-.73-.67.1-1.2.22-1.75a61.62,61.62,0,0,0,1.13-11.74,9.65,9.65,0,0,1,.6-4c-.88,4.3.87,8.17,2,12.16a59.88,59.88,0,0,1,1.71,21.49,67.33,67.33,0,0,1-1.37,8.32,48.6,48.6,0,0,0,8.36-3.49,31.6,31.6,0,0,0,14.09-13.52c2.91-5.58,2.4-11.28-.07-16.9a93.69,93.69,0,0,0-6.32-11.06,12.48,12.48,0,0,1-2.09-4.4c-.28-1.74.45-2.74,2.18-3.16a7.93,7.93,0,0,1,6.1.89,36.72,36.72,0,0,1,14.67,16.09,25.6,25.6,0,0,1,2.62,9.08c0,.1.16.19.24.28Zm-92.86,53.5v0a1.05,1.05,0,0,0-.31.87l0,0a15,15,0,0,0-.8,8,9.36,9.36,0,0,0,2.19,5.46c.34-3.67,1.91-6,4.73-7.13A7.51,7.51,0,0,1,409,179a1,1,0,0,0,1.44.1,6.92,6.92,0,0,1,7.26-.34c1.5.85,2.25.84,3.59-.39,2.73-2.53,5.86-2.38,9.88-.07a9.59,9.59,0,0,1,2.57,4.89,9.28,9.28,0,0,0,1.35-4.39V174A29,29,0,0,0,433,163.3c-1-2.4-2.24-4.68-4.64-6a9.43,9.43,0,0,0-6.52-2.2c-7.22,0-13.68,2.52-19.64,6.42a17.93,17.93,0,0,0-7.25,8.57A.42.42,0,0,0,394.93,170.33ZM362.7,187.86a19.12,19.12,0,0,0,3.93,0c2.3-.24,2.87-.83,2.76-2.82l0-.5-.16-.33a4.9,4.9,0,0,0-4.45-3.66,5.1,5.1,0,0,0-5.07,3.08c-.43,1.13-.82,2.33.19,3.42A3.41,3.41,0,0,0,362.7,187.86Zm59.63-1c2.22.69,4.24-.22,6.24-.9,2.85-1,3.24-2.38,1.5-4.85a8.17,8.17,0,0,0-.85-.91,5,5,0,0,0-5.91-.17c-1.65,1.05-1.9,1.7-1.26,4.36C422.25,185.19,421.67,186.08,422.33,186.83Zm-50.56-3.48A7.67,7.67,0,0,1,372,186c-.12.89.35,1.07,1.06,1.07a14.92,14.92,0,0,0,6.89-1.8,1.89,1.89,0,0,0,.95-2.39,4.85,4.85,0,0,0-6.08-3.51,3.8,3.8,0,0,0-2.32,1.2C371.72,181.32,370.91,182.14,371.77,183.35Zm115.17-66.81a28.83,28.83,0,0,0-1.69,3.08c-.43.69-.42,1.68-1.37,2a23.52,23.52,0,0,0,.95-12.11c-1.57-8-6-14.24-12.12-19.34-2.11-1.75-4.31-3.43-7.27-3.36a.77.77,0,0,0-1-.72c-.41.1-.41.57-.42,1a4.76,4.76,0,0,0,.47,2.45c1.84,3.59,4.37,6.77,6.07,10.45,1.45,3.13,2.75,6.23,2.83,9.76.08,3.8-1.07,7.28-2.28,10.79-.54,1.58-1.61,2.94-1.93,4.71l1.18-.16a31.85,31.85,0,0,1-5.25,5.69c-4.85,4.38-10.7,6.89-16.78,9-.51.18-1.1.18-1.31.88a71.85,71.85,0,0,1-5,11.88c-.07,1.09.82.58,1.14.54,2.41-.34,4.83-.65,7.19-1.21,10.26-2.46,18.27-8.6,25.55-15.86,1.63-1.63,3-3.46,4.62-5.13,3.82-4,5.59-8.94,6.48-14.27l.21-.32-.11-.07Zm-110.7,60c3.91.33,6.36,2.45,7.42,6.3a7.28,7.28,0,0,0,1.65-3.59c1.4-7.55-1.1-13.62-7.13-18.26a11.59,11.59,0,0,0-4.19-2.49,7.75,7.75,0,0,0-1-.73c-4.54-2.13-9.23-3.83-14.3-4s-9,1.81-11.42,6.35a27.07,27.07,0,0,0-2.91,11.09c-.18,2.74-.51,5.48.27,8.19a6.67,6.67,0,0,0,1.56,3.36,7.86,7.86,0,0,1,2.73-4.28,7.71,7.71,0,0,1,10,.43c.38.33.61.77,1.28.35a7.52,7.52,0,0,1,9,.34c.47.34.65.23,1-.16A7.94,7.94,0,0,1,376.24,176.52ZM414.45,188a21.16,21.16,0,0,0,3.33-.31,2.18,2.18,0,0,0,1.77-2.6,5.11,5.11,0,0,0-4.91-4.56,5.2,5.2,0,0,0-5.21,4.07c-.38,1.94.45,3.06,2.45,3.27C412.72,188,413.57,188,414.45,188ZM357,187.29a6.58,6.58,0,0,1,.48-5,.91.91,0,0,0-.11-1.22,5.15,5.15,0,0,0-8.49,1.55c-.56,1.53-.27,2.47,1.16,3.16A14.08,14.08,0,0,0,357,187.29Zm50.08,0a6.74,6.74,0,0,1,.44-5c.26-.55.35-.92-.14-1.34a5.13,5.13,0,0,0-4.9-1.39,4.79,4.79,0,0,0-3.72,3.76,1.72,1.72,0,0,0,.8,2.06A13.91,13.91,0,0,0,407.11,187.33Z"/><path class="cls-3" d="M453.26,71.82c.46-.27.15-.79.38-1.14.69,1.25,1.43,2.48,2,3.76,1.56,3.28.5,6.11-1.68,8.66-1.61,1.88-3.29,3.7-5,5.53a1.56,1.56,0,0,0-.58,1.35l-1.11,1.38c-.73.09-.82.61-.84,1.19l0,0c-.33.11-.35.35-.29.63l0,0c-.49.14-.36.53-.35.87l0,0c-.55.28-.3.77-.3,1.19h0a9.65,9.65,0,0,0-.6,4A61.62,61.62,0,0,1,444,110.89c-.12.55-.95,1.08-.22,1.75-2,2.66-4.94,3.23-8,3.32a.68.68,0,0,0-1.11,0l-.85,0c0-.4-.27-.55-.66-.58-3.73-.2-7.49-.85-11,1.08a8.49,8.49,0,0,1-2.44.61,15.88,15.88,0,0,0-7,3.41,51.94,51.94,0,0,1-19.33,9.85,20.34,20.34,0,0,1-11.23-.43c-7.79-2.36-14.42-6.65-20.75-11.64a15.38,15.38,0,0,0-7.25-3.16,38.05,38.05,0,0,0-9.83,0,11.66,11.66,0,0,1-4.47-.43,6.91,6.91,0,0,1-4.51-6.6c.12-1.09.47.74.59-.06.35.26.1.82.53,1a3.93,3.93,0,0,0,2.73,3.53,11.12,11.12,0,0,0,5.23.8l6.68.1c2.79.18,5.34,1.48,8.09,1.76a6.41,6.41,0,0,1,3.8,1.86,60.72,60.72,0,0,0,15.79,10.28A22.91,22.91,0,0,0,397,128a61.71,61.71,0,0,0,18.71-11.4,3.14,3.14,0,0,1,1.94-1.06c3.53,0,6.72-1.78,10.2-2l6.68-.09c6.14.29,8.48-1.92,8.53-8.05,0-.8,0-1.6,0-2.4,0-2.22-.05-4.43,0-6.64a11,11,0,0,1,2.49-6.75c1.85-2.33,4.12-4.27,6-6.53a12.87,12.87,0,0,0,2.79-4.69C455.06,76,454.13,73.91,453.26,71.82Z"/><path class="cls-2" d="M446.51,92.55c0-.58.11-1.1.84-1.19Z"/><path class="cls-2" d="M445.68,95.11c0-.42-.25-.91.3-1.19C445.83,94.31,446,94.78,445.68,95.11Z"/><path class="cls-2" d="M446,94c0-.34-.14-.73.35-.87C446.15,93.38,446.27,93.76,446,94Z"/><path class="cls-2" d="M446.26,93.14c-.06-.28,0-.52.29-.63C446.47,92.73,446.52,93,446.26,93.14Z"/><path class="cls-4" d="M427.88,113.49c-3.48.23-6.67,2-10.2,2a3.14,3.14,0,0,0-1.94,1.06A61.71,61.71,0,0,1,397,128a22.91,22.91,0,0,1-18.36-.56,60.72,60.72,0,0,1-15.79-10.28,6.41,6.41,0,0,0-3.8-1.86c-2.75-.28-5.3-1.58-8.09-1.76.14-.08.37-.29.33-.29-2.34.06-4.69-.35-7,.19a11.12,11.12,0,0,1-5.23-.8,3.93,3.93,0,0,1-2.73-3.53c-.17-.62.48-1.45-.49-1.85l0-.59a9.67,9.67,0,0,0,0-4.78l0-1.16a3,3,0,0,0,.05-3.49c-.09-4.39-2.25-7.74-5.33-10.65a38,38,0,0,1-4.72-5.25,7.79,7.79,0,0,1-.81-8.25,41.32,41.32,0,0,1,4.45-7c1.78-2.49,3.64-4.92,4.41-8,.14-.54.27-1.08.4-1.62l.11.08h.12a20.43,20.43,0,0,0,.05-4.21,1.13,1.13,0,0,0-.28.36c-.57-4.18-1.8-8.26-1.93-12.51A7,7,0,0,1,337.07,33a47.75,47.75,0,0,1,9.21-2.58c5.67-1.16,9.69-4.5,12.88-9.14a26.11,26.11,0,0,1,5.6-6.13,8,8,0,0,1,8.1-1.25,79.36,79.36,0,0,1,8.08,3.67A18.19,18.19,0,0,0,398,17.52c2.52-1.25,5.06-2.48,7.68-3.53,3.45-1.39,6.42-.64,9.17,1.66A39.44,39.44,0,0,1,421.23,23a18.77,18.77,0,0,0,11.42,7.22,62.59,62.59,0,0,1,8.29,2.23c1.71.66,3.42,1.34,4.43,3a14.48,14.48,0,0,1,.83,6c0,.2.16.41.24.62-.23,3-1,5.83-1.53,8.74A15.69,15.69,0,0,0,447.25,63c2,3,4.21,5.78,6,8.87.87,2.09,1.8,4.16,1.13,6.52A12.87,12.87,0,0,1,451.6,83c-1.92,2.26-4.19,4.2-6,6.53a11,11,0,0,0-2.49,6.75c-.05,2.21,0,4.42,0,6.64,0,.8,0,1.6,0,2.4,0,6.13-2.39,8.34-8.53,8.05-2.42-.55-4.86-.09-7.31-.05ZM378,83.67c.08.09.19.21.26,0a.42.42,0,0,0-.2-.54v-.59c.5-.06.57-.43.51-.81-.17-1,.43-2.11-.33-3.06a2.69,2.69,0,0,1-.2-.51,13.36,13.36,0,0,0-16.1-10.87,12.74,12.74,0,0,0-10.2,9.83,13.47,13.47,0,0,0,18.35,15.72C374.21,91.17,376.62,87.86,378,83.67Zm50.16-3.18A13.46,13.46,0,1,0,414.68,94,13.4,13.4,0,0,0,428.11,80.49ZM379.44,52.75a11.47,11.47,0,0,0-.26-1.66,38.56,38.56,0,0,0-13.46-19.4c-3.05-2.45-5.16-1.55-6.11,2.31a45.59,45.59,0,0,0-.72,15.58A26.7,26.7,0,0,0,360.63,57a8.15,8.15,0,0,0,7.71,5,10.8,10.8,0,0,0,10.22-6.11A6.15,6.15,0,0,0,379.44,52.75Zm41.32-8.29a36.67,36.67,0,0,0-1.09-10.81c-1.06-3.53-2.81-4.14-5.86-2.11a3.88,3.88,0,0,0-.47.32,44,44,0,0,0-12.68,17.38c-3,7.31,5,13.31,10.78,12.58,4.41-.57,7.15-2.9,8.18-7.33A43.89,43.89,0,0,0,420.76,44.46Zm-24.62,61.22a21.72,21.72,0,0,0-1.5-7.21,15.57,15.57,0,0,0-3.14-5.93c-1.27-1.31-2.38-1.28-3.61.09a8.3,8.3,0,0,0-1,1.36,29.77,29.77,0,0,0-3.49,9.91c-.31,1.8-.54,3.65.46,5.36a6.9,6.9,0,0,0,7.63,2.92C394.75,111.28,396.22,109.29,396.14,105.68Zm-4,12.32a2.76,2.76,0,0,0,1.41,2.76,3,3,0,0,0,3.18-.33,5.7,5.7,0,0,0,2.49-5.6,2.6,2.6,0,0,0-3.38-2.06A5.51,5.51,0,0,0,392.11,118Zm-4.8-.1a5.68,5.68,0,0,0-3.47-5,2.58,2.58,0,0,0-3.6,1.84,5.58,5.58,0,0,0,2.56,5.8,2.92,2.92,0,0,0,3.07.26A3,3,0,0,0,387.31,117.9Z"/><path class="cls-4" d="M433.74,116l.85,0,1.11,0c3.1-.09,6-.66,8-3.32a7.6,7.6,0,0,0,1.65-4.48c.4-.11.45.14.52.45a61.4,61.4,0,0,1,1.5,18.63,57.37,57.37,0,0,1-13.12,32.44,20.51,20.51,0,0,0-4.3-4.62c-4.07-2.87-8.63-3.1-13.26-2.19a39.92,39.92,0,0,0-17.64,7.74,19.9,19.9,0,0,0-7.87,13.68,1.43,1.43,0,0,1-.15.39l-.11-.08a.31.31,0,0,0-.13,0,23.73,23.73,0,0,0-.06,4.46c0,.09.2-.17.27-.3a4.07,4.07,0,0,1,.27,1.83h-2.67c-.44,0-.87,0-.86-.63l.6-2.12c.73-1.41.17-2.89.15-4.34l-.15.63c-.34-1.55-.44-3.15-.93-4.67-2-6.23-6.4-10.31-11.95-13.3a41.65,41.65,0,0,0-14.77-4.85,1.46,1.46,0,0,1-.39-.16.42.42,0,0,0,.08-.12.21.21,0,0,0,0-.12,16.11,16.11,0,0,0-4.22,0l.09.24a14.84,14.84,0,0,0-8.8,4.26,15.34,15.34,0,0,0-2.61,3.64c-.62-.14-.85-.71-1.18-1.13A57.47,57.47,0,0,1,332,128.14l0-.56a1.07,1.07,0,0,0-.14-.87,61.44,61.44,0,0,1,1.51-17.39,1.44,1.44,0,0,1,.23.37c1.26,4.48,4.65,6,8.86,6.27,1.87.13,3.75.16,5.63.24h-4.34v.35c1.24,0,2.49,0,3.73,0s2.8.29,4.16-.24a10,10,0,0,1,4.5,1.15,20.29,20.29,0,0,0,3.88,5,57.71,57.71,0,0,0,18.3,13.22c3.69,1.67,7.51,3.08,11.66,2.94a29.43,29.43,0,0,0,11.33-3.17,57.53,57.53,0,0,0,19-14.42c.94-1.06,2.09-2.05,2.46-3.54a9.83,9.83,0,0,1,4.55-1.22C429.44,116.15,431.59,116.08,433.74,116Z"/><path class="cls-4" d="M465.44,86.83c3-.07,5.16,1.61,7.27,3.36,6.16,5.1,10.55,11.34,12.12,19.34a23.52,23.52,0,0,1-.95,12.11,36.84,36.84,0,0,1-2.31,5A47.7,47.7,0,0,1,472.88,137c-8.7,8.37-18.56,14.42-30.91,15.51a71.85,71.85,0,0,0,5-11.88c.21-.7.8-.7,1.31-.88,6.08-2.09,11.93-4.6,16.78-9a31.85,31.85,0,0,0,5.25-5.69,21,21,0,0,0,4.49-15,28.71,28.71,0,0,0-4-11.64c-1.92-3.34-3.94-6.63-5.91-9.94C464.49,87.73,464.27,87.06,465.44,86.83Z"/><path class="cls-4" d="M431.19,178.31c-4-2.31-7.15-2.46-9.88.07-1.34,1.23-2.09,1.24-3.59.39a6.92,6.92,0,0,0-7.26.34A1,1,0,0,1,409,179a7.51,7.51,0,0,0-8.25-1.57c-2.82,1.1-4.39,3.46-4.73,7.13a9.36,9.36,0,0,1-2.19-5.46c.27-2.65.53-5.31.8-8l0,0c.4-.18.31-.54.31-.87v0s.12,0,.12-.06a1.66,1.66,0,0,0-.06-.21,17.93,17.93,0,0,1,7.25-8.57c6-3.9,12.42-6.4,19.64-6.42a9.43,9.43,0,0,1,6.52,2.2c.09,1.06.79,1.88,1.13,2.85A40.23,40.23,0,0,1,431.19,178.31Z"/><path class="cls-4" d="M344.33,171.2a27.07,27.07,0,0,1,2.91-11.09c2.46-4.54,6.42-6.52,11.42-6.35s9.76,1.86,14.3,4a7.75,7.75,0,0,1,1,.73c.57,1.57,1.21,3.13,1.7,4.73a26.69,26.69,0,0,1,.55,13.31,7.94,7.94,0,0,0-6.16,2.91c-.32.39-.5.5-1,.16a7.52,7.52,0,0,0-9-.34c-.67.42-.9,0-1.28-.35a7.71,7.71,0,0,0-10-.43,7.86,7.86,0,0,0-2.73,4.28,6.67,6.67,0,0,1-1.56-3.36c0-1.87,0-3.74,0-5.61C344.53,172.92,344.83,172,344.33,171.2Z"/><path class="cls-5" d="M422.74,117.47c-.37,1.49-1.52,2.48-2.46,3.54a57.53,57.53,0,0,1-19,14.42A29.43,29.43,0,0,1,390,138.6c-4.15.14-8-1.27-11.66-2.94A57.71,57.71,0,0,1,360,122.44a20.29,20.29,0,0,1-3.88-5c1.12.17,2.22.38,3.34.49.66.06,1,.52,1.39.88a67.73,67.73,0,0,0,16.47,10.85c7.7,3.61,15.26,3.22,22.9-.17a67.59,67.59,0,0,0,17.1-10.89,2.12,2.12,0,0,1,1.22-.63C420,117.84,421.35,117.64,422.74,117.47Z"/><path class="cls-5" d="M376.24,176.52a26.69,26.69,0,0,0-.55-13.31c-.49-1.6-1.13-3.16-1.7-4.73a11.59,11.59,0,0,1,4.19,2.49c6,4.64,8.53,10.71,7.13,18.26a7.28,7.28,0,0,1-1.65,3.59C382.6,179,380.15,176.85,376.24,176.52Z"/><path class="cls-5" d="M442,152.49c12.35-1.09,22.21-7.14,30.91-15.51a47.7,47.7,0,0,0,8.69-10.36,36.84,36.84,0,0,0,2.31-5c.95-.34.94-1.33,1.37-2a28.83,28.83,0,0,1,1.69-3.08v0c-.89,5.33-2.66,10.25-6.48,14.27-1.58,1.67-3,3.5-4.62,5.13-7.28,7.26-15.29,13.4-25.55,15.86-2.36.56-4.78.87-7.19,1.21C442.79,153.07,441.9,153.58,442,152.49Z"/><path class="cls-5" d="M431.19,178.31a40.23,40.23,0,0,0-1.66-18.19c-.34-1-1-1.79-1.13-2.85,2.4,1.35,3.66,3.63,4.64,6A29,29,0,0,1,435.12,174a9.4,9.4,0,0,0,0,4.77,9.28,9.28,0,0,1-1.35,4.39A9.59,9.59,0,0,0,431.19,178.31Z"/><path class="cls-6" d="M434.29,159.68a57.37,57.37,0,0,0,13.12-32.44,61.4,61.4,0,0,0-1.5-18.63c-.07-.31-.12-.56-.52-.45a15.82,15.82,0,0,0,.26-3.55,38,38,0,0,1,1.9,6.89,46.12,46.12,0,0,1,1.11,11,58.83,58.83,0,0,1-4.4,22.5,62.78,62.78,0,0,1-8.89,15C434.61,161,434.48,160.32,434.29,159.68Z"/><path class="cls-6" d="M465.44,86.83c-1.17.23-.95.9-.51,1.63,2,3.31,4,6.6,5.91,9.94a28.71,28.71,0,0,1,4,11.64,21,21,0,0,1-4.49,15l-1.18.16c.32-1.77,1.39-3.13,1.93-4.71,1.21-3.51,2.36-7,2.28-10.79-.08-3.53-1.38-6.63-2.83-9.76-1.7-3.68-4.23-6.86-6.07-10.45a4.76,4.76,0,0,1-.47-2.45c0-.38,0-.85.42-1A.77.77,0,0,1,465.44,86.83Z"/><path class="cls-6" d="M332,128.14a57.47,57.47,0,0,0,11.65,29.8c.33.42.56,1,1.18,1.13-.45,1-.76,1.12-1.54.11A59.94,59.94,0,0,1,334,141.94a50.82,50.82,0,0,1-2.71-11.88,13.18,13.18,0,0,1-.2-3.33C331.62,127.07,331.26,128,332,128.14Z"/><path class="cls-7" d="M446.44,42.09c-.08-.21-.25-.42-.24-.62a14.48,14.48,0,0,0-.83-6C446.9,37.5,446.73,39.79,446.44,42.09Z"/><path class="cls-8" d="M351.64,116.3c-1.36.53-2.78.16-4.16.24s-2.49,0-3.73,0v-.35h4.34Z"/><path class="cls-8" d="M335.92,97.2a3,3,0,0,1-.05,3.49Z"/><path class="cls-8" d="M356.28,151.17l-.09-.24a16.11,16.11,0,0,1,4.22,0,.21.21,0,0,1,0,.12.42.42,0,0,1-.08.12Z"/><path class="cls-8" d="M334.32,52.68a1.13,1.13,0,0,1,.28-.36,20.43,20.43,0,0,1-.05,4.21h-.12l-.11-.08Z"/><path class="cls-8" d="M335.84,101.85a9.67,9.67,0,0,1,0,4.78Z"/><path class="cls-8" d="M335.86,107.22c1,.4.32,1.23.49,1.85-.43-.23-.18-.79-.53-1C335.83,107.75,335.84,107.49,335.86,107.22Z"/><path class="cls-6" d="M331.86,126.71a1.07,1.07,0,0,1,.14.87A.94.94,0,0,1,331.86,126.71Z"/><path class="cls-3" d="M486.94,116.54l.11-.37.11.07-.21.32Z"/><path class="cls-8" d="M427.88,113.49l-.63-.14c2.45,0,4.89-.5,7.31.05Z"/><path class="cls-8" d="M344.31,113.4c2.32-.54,4.67-.13,7-.19,0,0-.19.21-.33.29Z"/><path class="cls-2" d="M435.7,116l-1.11,0A.68.68,0,0,1,435.7,116Z"/><path class="cls-2" d="M378,82.57v.59l-.06.51c-1.33,4.19-3.74,7.5-7.9,9.2A13.47,13.47,0,0,1,351.7,77.15a12.74,12.74,0,0,1,10.2-9.83A13.36,13.36,0,0,1,378,78.19a2.69,2.69,0,0,0,.2.51A12.55,12.55,0,0,1,378,82.57Zm-13.28,8.8a10.91,10.91,0,0,0,10.95-10.89,11,11,0,0,0-11-10.92,10.87,10.87,0,0,0-10.88,10.93A10.76,10.76,0,0,0,364.74,91.37Z"/><path class="cls-2" d="M428.11,80.49A13.46,13.46,0,1,1,414.69,67,13.35,13.35,0,0,1,428.11,80.49ZM414.55,91.37a10.91,10.91,0,0,0,.21-21.81,11,11,0,0,0-11,10.82A10.85,10.85,0,0,0,414.55,91.37Z"/><path class="cls-2" d="M379.44,52.75a6.15,6.15,0,0,1-.88,3.1A10.8,10.8,0,0,1,368.34,62a8.15,8.15,0,0,1-7.71-5,26.7,26.7,0,0,1-1.74-7.39A45.59,45.59,0,0,1,359.61,34c.95-3.86,3.06-4.76,6.11-2.31a38.56,38.56,0,0,1,13.46,19.4A11.47,11.47,0,0,1,379.44,52.75Zm-17-19.11a7.83,7.83,0,0,0-.34.92,42.76,42.76,0,0,0,.26,19.52c.89,3.51,2.4,4.74,5.94,5.14,2.2.25,5.88-1.13,6.56-2.92a3.28,3.28,0,0,0,.56-.39c1.7-1.84,1.58-3.9.74-6a41,41,0,0,0-7.11-11.45,23.7,23.7,0,0,0-5.35-5C363.29,33.14,362.72,32.63,362.47,33.64Z"/><path class="cls-2" d="M420.76,44.46a43.89,43.89,0,0,1-1.14,10c-1,4.43-3.77,6.76-8.18,7.33-5.75.73-13.78-5.27-10.78-12.58a44,44,0,0,1,12.68-17.38,3.88,3.88,0,0,1,.47-.32c3.05-2,4.8-1.42,5.86,2.11A36.67,36.67,0,0,1,420.76,44.46Zm-2.59-.84a33.08,33.08,0,0,0-.87-9c-.45-1.88-.74-2-2.35-.79l-.23.17a41.78,41.78,0,0,0-11.57,15.89C402,52.74,402.77,55,404.89,57c4.39,4.15,10.68,2.46,12.25-3.33A34.57,34.57,0,0,0,418.17,43.62Z"/><path class="cls-2" d="M396.14,105.68c.08,3.61-1.39,5.6-4.64,6.5a6.9,6.9,0,0,1-7.63-2.92c-1-1.71-.77-3.56-.46-5.36A29.77,29.77,0,0,1,386.9,94a8.3,8.3,0,0,1,1-1.36c1.23-1.37,2.34-1.4,3.61-.09a15.57,15.57,0,0,1,3.14,5.93A21.72,21.72,0,0,1,396.14,105.68Zm-6.38-11.25c-2.18,2.85-4.18,9.15-3.93,12.31.14,1.91,1.68,3.09,4,3.05,2.14,0,3.64-1.33,3.72-3.18a14.82,14.82,0,0,0-.61-4.73A22.74,22.74,0,0,0,389.76,94.43Z"/><path class="cls-9" d="M392.11,118a5.51,5.51,0,0,1,3.7-5.23,2.6,2.6,0,0,1,3.38,2.06,5.7,5.7,0,0,1-2.49,5.6,3,3,0,0,1-3.18.33A2.76,2.76,0,0,1,392.11,118Z"/><path class="cls-9" d="M387.31,117.9a3,3,0,0,1-1.44,2.86,2.92,2.92,0,0,1-3.07-.26,5.58,5.58,0,0,1-2.56-5.8,2.58,2.58,0,0,1,3.6-1.84A5.68,5.68,0,0,1,387.31,117.9Z"/><path class="cls-8" d="M378,82.57a12.55,12.55,0,0,0,.18-3.87c.76,1,.16,2,.33,3.06C378.59,82.14,378.52,82.51,378,82.57Z"/><path class="cls-8" d="M378,83.67l.06-.51a.42.42,0,0,1,.2.54C378.14,83.88,378,83.76,378,83.67Z"/><path class="cls-10" d="M364.74,91.37a10.76,10.76,0,0,1-10.89-10.88,10.87,10.87,0,0,1,10.88-10.93,11,11,0,0,1,11,10.92A10.91,10.91,0,0,1,364.74,91.37Zm-1-8.67a4,4,0,1,0,8,0,4,4,0,1,0-8,0Z"/><path class="cls-10" d="M414.55,91.37a10.85,10.85,0,0,1-10.82-11,10.9,10.9,0,1,1,21.8.36A10.77,10.77,0,0,1,414.55,91.37Zm-2.61-12.76a4,4,0,0,0-4,4,4,4,0,1,0,8,0A4,4,0,0,0,411.94,78.61Z"/><path class="cls-10" d="M374.89,56.3c-.68,1.79-4.36,3.17-6.56,2.92-3.54-.4-5.05-1.63-5.94-5.14a42.76,42.76,0,0,1-.26-19.52,7.83,7.83,0,0,1,.34-.92,11.14,11.14,0,0,1,2.09,1.66A40.27,40.27,0,0,1,372,45.87C373.61,49.15,375.21,52.46,374.89,56.3Z"/><path class="cls-11" d="M374.89,56.3c.32-3.84-1.28-7.15-2.93-10.43a40.27,40.27,0,0,0-7.4-10.57,11.14,11.14,0,0,0-2.09-1.66c.25-1,.82-.5,1.26-.22a23.7,23.7,0,0,1,5.35,5,41,41,0,0,1,7.11,11.45c.84,2.15,1,4.21-.74,6A3.28,3.28,0,0,1,374.89,56.3Z"/><path class="cls-10" d="M418.17,43.62a34.57,34.57,0,0,1-1,10.05c-1.57,5.79-7.86,7.48-12.25,3.33-2.12-2-2.91-4.26-1.74-7.07A41.78,41.78,0,0,1,414.72,34l.23-.17c1.61-1.17,1.9-1.09,2.35.79A33.08,33.08,0,0,1,418.17,43.62Z"/><path class="cls-12" d="M389.76,94.43a22.74,22.74,0,0,1,3.15,7.45,14.82,14.82,0,0,1,.61,4.73c-.08,1.85-1.58,3.15-3.72,3.18-2.29,0-3.83-1.14-4-3.05C385.58,103.58,387.58,97.28,389.76,94.43Z"/><path class="cls-2" d="M363.76,82.7a4,4,0,1,1,8,0,4,4,0,1,1-8,0Z"/><path class="cls-2" d="M411.94,78.61a4,4,0,0,1,4,4,4,4,0,1,1-8,0A4,4,0,0,1,411.94,78.61Z"/></g></svg>