<svg xmlns="http://www.w3.org/2000/svg" viewBox="0 0 205.55 237.78"><defs><style>.cls-1{fill:#0c090e;}.cls-2{fill:#271c32;}.cls-3{fill:#6b8fca;}.cls-4{fill:#4654a4;}.cls-5{fill:#fff;}.cls-6{fill:#271d33;}.cls-7{fill:#f9f9f9;}.cls-8{fill:#afafb0;}.cls-9{fill:#fbfbfb;}.cls-10{fill:#f2f1f1;}.cls-11{fill:#352744;}.cls-12{fill:#7c5c9c;}.cls-13{fill:#8362a8;}.cls-14{fill:#5c4578;}.cls-15{fill:#c7c7c7;}.cls-16{fill:#76579a;}.cls-17{fill:#06030a;}</style></defs><g id="Layer_24" data-name="Layer 24"><path class="cls-1" d="M188.28,134.91c-.69,2.14-1,4.39-1.8,6.5a35.73,35.73,0,0,1-7.38,11.5c-6,6.35-12.52,12-20.48,15.83a45.24,45.24,0,0,1-17,4.38,1.54,1.54,0,0,0-1.39.73,41.49,41.49,0,0,1-3.85,5.19,1.73,1.73,0,0,0-.27,2,36.91,36.91,0,0,1,2,16.75c-.59,5.75-4.58,9.64-10.65,11a29.29,29.29,0,0,1-6.39.89c-.26,0-.58-.12-.72.25H109c-1.69-.55-3.48-.45-5.19-.83-3.93-.85-7.84-2-9.87-5.73-1.26-2.27-2.68-2.7-4.93-2.55a2.9,2.9,0,0,0-2.68,1.43c-2.12,3.2-5.44,4.65-9,5.39-6.46,1.31-13,1.16-19.53.64a24.86,24.86,0,0,1-7.89-1.78A11.82,11.82,0,0,1,42.22,196,38.73,38.73,0,0,1,44,180.32a1.59,1.59,0,0,0-.44-1.73,58.53,58.53,0,0,1-10.65-19.85A59.67,59.67,0,0,1,30.58,134c.49-4.29,1.76-8.39,2.71-12.57,1.12-5,1.17-10-3.08-14a54.7,54.7,0,0,1-5.47-5.91c-3.15-4-3.33-8.14-1-12.56a47.16,47.16,0,0,1,5.1-7.55c3.39-4.22,4-8.87,2.84-14a45,45,0,0,1-1.34-8.74c-.21-6.14,3.13-8.79,7.3-10.37a37.38,37.38,0,0,1,7.14-1.94,18.66,18.66,0,0,0,13-8.72,29.87,29.87,0,0,1,4.18-5c3.92-3.81,8.35-5,13.47-2.65,2.67,1.21,5.35,2.43,8,3.67a14.78,14.78,0,0,0,13,0c3.1-1.4,6.1-3,9.3-4.19,4.31-1.61,8-.52,11.34,2.27a30.63,30.63,0,0,1,5.71,6.43,18,18,0,0,0,12,7.83,41.49,41.49,0,0,1,8.59,2.45c4.77,2.08,6.78,5.56,6.34,10.71-.3,3.37-1.09,6.65-1.68,10A13.66,13.66,0,0,0,150,79.88,96.8,96.8,0,0,1,155.56,88c1.83,3.3,2.93,6.69,1.32,10.44a14.63,14.63,0,0,1-2.48,3.89c-1.76,2-3.63,3.82-5.46,5.72a1.58,1.58,0,0,1,.58-1.35c1.67-1.83,3.35-3.65,5-5.54,2.18-2.55,3.24-5.37,1.68-8.65-.61-1.29-1.35-2.51-2-3.77-.23.35.08.88-.38,1.15-1.8-3.09-4-5.91-6-8.87a15.7,15.7,0,0,1-2.33-12.12c.52-2.91,1.29-5.78,1.52-8.74.29-2.31.46-4.59-1.07-6.6-1-1.7-2.72-2.38-4.43-3a60.74,60.74,0,0,0-8.29-2.24,18.74,18.74,0,0,1-11.41-7.22,40.2,40.2,0,0,0-6.38-7.35c-2.75-2.29-5.72-3-9.17-1.65-2.62,1-5.16,2.28-7.68,3.53a18.19,18.19,0,0,1-17.07.06A81.6,81.6,0,0,0,73.34,32a8.07,8.07,0,0,0-8.1,1.25,26.15,26.15,0,0,0-5.6,6.14c-3.19,4.63-7.2,8-12.87,9.14a47.85,47.85,0,0,0-9.22,2.58,7,7,0,0,0-4.67,7.15c.12,4.25,1.35,8.33,1.92,12.51v3.76l-.39,1.63c-.77,3-2.64,5.48-4.41,8a40.38,40.38,0,0,0-4.46,7,7.77,7.77,0,0,0,.82,8.25,37.27,37.27,0,0,0,4.71,5.25c3.08,2.91,5.24,6.25,5.33,10.65l0,3.48,0,1.16v4.78l0,.59,0,.8c-.12.8-.48-1-.6.06a6.92,6.92,0,0,0,4.52,6.61,12,12,0,0,0,4.46.43,37.61,37.61,0,0,1,9.83,0,15.18,15.18,0,0,1,7.25,3.16c6.34,5,13,9.28,20.75,11.64a20.44,20.44,0,0,0,11.23.43,51.78,51.78,0,0,0,19.33-9.85,15.84,15.84,0,0,1,7-3.42,8.09,8.09,0,0,0,2.44-.6c3.55-1.93,7.31-1.28,11-1.08.39,0,.62.18.66.58-2.15.08-4.3.14-6.45.25a9.79,9.79,0,0,0-4.54,1.22c-1.4.17-2.79.36-4.19.5a2.17,2.17,0,0,0-1.22.64,67.59,67.59,0,0,1-17.1,10.89c-7.64,3.39-15.2,3.78-22.9.16A67.73,67.73,0,0,1,61.36,136.9c-.42-.37-.74-.82-1.39-.89-1.12-.1-2.23-.31-3.34-.48a10,10,0,0,0-4.51-1.15l-3.55-.11c-1.88-.07-3.76-.1-5.63-.23-4.21-.3-7.59-1.79-8.86-6.27a1.66,1.66,0,0,0-.23-.38,61.87,61.87,0,0,0-1.51,17.39,1,1,0,0,0,.14.88l.05.56c-.79-.14-.43-1.07-1-1.41a13.08,13.08,0,0,0,.2,3.32A51.21,51.21,0,0,0,34.44,160a59.92,59.92,0,0,0,9.37,17.24c.79,1,1.09.92,1.54-.1A15.4,15.4,0,0,1,48,173.5a14.92,14.92,0,0,1,8.81-4.26l4.06,0a1.43,1.43,0,0,0,.38.17A41.46,41.46,0,0,1,76,174.24c5.55,3,10,7.07,12,13.29.49,1.53.59,3.13.93,4.68l0,2.62a.63.63,0,0,0,0,.83s0,.06,0,.09,0,.11,0,.17l-.6,2.11c-.32.54-.35,1.53-.07,1.57a13.84,13.84,0,0,0,3.58,0c.45-.06.13-.62,0-1a4.14,4.14,0,0,0-.28-1.84l0-4.06a1.61,1.61,0,0,0,.16-.39,19.93,19.93,0,0,1,7.86-13.69,39.92,39.92,0,0,1,17.64-7.74c4.63-.91,9.19-.68,13.27,2.19a20.68,20.68,0,0,1,4.29,4.62c.19.65.32,1.29,1.08.34a62.88,62.88,0,0,0,8.9-15,58.75,58.75,0,0,0,4.39-22.5,46.73,46.73,0,0,0-1.1-11,38.23,38.23,0,0,0-1.91-6.88,16.54,16.54,0,0,1-.25,3.55,7.71,7.71,0,0,1-1.66,4.48c-.73-.67.11-1.2.22-1.75a60.9,60.9,0,0,0,1.13-11.74,9.86,9.86,0,0,1,.6-4c-.87,4.31.87,8.18,2,12.16a59.92,59.92,0,0,1,1.72,21.5,69.68,69.68,0,0,1-1.38,8.32,48.62,48.62,0,0,0,8.36-3.5,31.53,31.53,0,0,0,14.09-13.51c2.91-5.58,2.4-11.28-.07-16.9a91.08,91.08,0,0,0-6.32-11.07,12.3,12.3,0,0,1-2.08-4.4c-.29-1.73.45-2.73,2.17-3.16a8,8,0,0,1,6.11.9,36.73,36.73,0,0,1,14.66,16.08,25.45,25.45,0,0,1,2.62,9.08c0,.1.16.19.25.29ZM95.41,188.4h0a1.05,1.05,0,0,0-.31.86l0,0a15,15,0,0,0-.8,8,9.4,9.4,0,0,0,2.19,5.46c.34-3.66,1.91-6,4.73-7.13a7.51,7.51,0,0,1,8.25,1.58,1,1,0,0,0,1.44.1,6.92,6.92,0,0,1,7.26-.34c1.5.85,2.25.83,3.59-.4,2.74-2.52,5.86-2.37,9.88-.06a9.68,9.68,0,0,1,2.58,4.89,9.19,9.19,0,0,0,1.34-4.4v-4.77a28.78,28.78,0,0,0-2.08-10.73c-1-2.41-2.24-4.68-4.63-6a9.42,9.42,0,0,0-6.52-2.19c-7.22,0-13.69,2.51-19.65,6.42a18,18,0,0,0-7.25,8.57A.4.4,0,0,0,95.41,188.4ZM63.18,205.94a20,20,0,0,0,3.94,0c2.29-.25,2.87-.84,2.76-2.82l0-.51-.15-.33a4.91,4.91,0,0,0-4.46-3.65,5.07,5.07,0,0,0-5.06,3.08c-.44,1.13-.83,2.33.18,3.41A3.46,3.46,0,0,0,63.18,205.94Zm59.64-1c2.22.69,4.23-.22,6.24-.9,2.84-1,3.24-2.37,1.49-4.84a7.38,7.38,0,0,0-.85-.91,5,5,0,0,0-5.91-.18c-1.65,1.06-1.9,1.71-1.26,4.36C122.73,203.27,122.15,204.16,122.82,204.9Zm-50.57-3.47a7.91,7.91,0,0,1,.24,2.65c-.13.88.34,1.07,1.05,1.06a14.8,14.8,0,0,0,6.89-1.8,1.87,1.87,0,0,0,.95-2.38,4.85,4.85,0,0,0-6.07-3.51,3.75,3.75,0,0,0-2.33,1.2C72.21,199.39,71.4,200.21,72.25,201.43Zm115.17-66.81a29.65,29.65,0,0,0-1.69,3.08c-.43.68-.42,1.68-1.36,2a23.59,23.59,0,0,0,.94-12.1c-1.56-8-6-14.24-12.12-19.34-2.11-1.75-4.3-3.43-7.27-3.37a.76.76,0,0,0-1-.71c-.42.1-.41.56-.43,1a4.69,4.69,0,0,0,.48,2.45c1.84,3.59,4.36,6.77,6.06,10.45,1.45,3.13,2.75,6.22,2.83,9.75.09,3.8-1.07,7.29-2.27,10.8-.55,1.57-1.61,2.94-1.93,4.7l1.17-.15a31.82,31.82,0,0,1-5.25,5.69c-4.85,4.37-10.7,6.88-16.77,9-.52.17-1.11.18-1.31.88a71,71,0,0,1-5.06,11.88c-.06,1.09.82.58,1.14.53a72.58,72.58,0,0,0,7.2-1.21c10.26-2.45,18.26-8.59,25.54-15.86,1.63-1.62,3-3.46,4.63-5.12,3.81-4,5.59-8.94,6.48-14.28a3.28,3.28,0,0,0,.2-.31l-.1-.08Zm-110.69,60c3.9.33,6.35,2.45,7.41,6.29a7.27,7.27,0,0,0,1.66-3.58c1.39-7.55-1.11-13.62-7.13-18.27a12,12,0,0,0-4.2-2.49,6.57,6.57,0,0,0-1-.72c-4.54-2.14-9.23-3.83-14.29-4s-9,1.82-11.43,6.35a27.15,27.15,0,0,0-2.91,11.09c-.17,2.74-.5,5.49.28,8.2a6.65,6.65,0,0,0,1.55,3.36,7.88,7.88,0,0,1,2.74-4.29,7.71,7.71,0,0,1,10,.44c.38.32.61.77,1.29.35a7.49,7.49,0,0,1,9,.34c.48.34.65.23,1-.17A7.93,7.93,0,0,1,76.73,194.6Zm38.2,11.48a21,21,0,0,0,3.33-.32,2.18,2.18,0,0,0,1.78-2.6,5.11,5.11,0,0,0-4.91-4.55,5.17,5.17,0,0,0-5.21,4.06c-.38,1.94.44,3.07,2.44,3.28C113.2,206,114.05,206,114.93,206.08Zm-57.42-.71a6.58,6.58,0,0,1,.49-5,.94.94,0,0,0-.11-1.23,5.16,5.16,0,0,0-8.5,1.56c-.56,1.52-.27,2.47,1.17,3.15A14.18,14.18,0,0,0,57.51,205.37Zm50.09,0a6.74,6.74,0,0,1,.43-5c.26-.55.35-.92-.14-1.34a5.16,5.16,0,0,0-4.9-1.4,4.78,4.78,0,0,0-3.71,3.77,1.73,1.73,0,0,0,.79,2.06A13.92,13.92,0,0,0,107.6,205.41Z"/><path class="cls-2" d="M153.74,89.9c.46-.27.15-.8.38-1.15.69,1.26,1.43,2.48,2,3.77,1.56,3.28.5,6.1-1.68,8.65-1.61,1.89-3.29,3.71-5,5.54a1.58,1.58,0,0,0-.58,1.35l-1.11,1.38c-.72.08-.82.61-.83,1.19l0,0c-.32.1-.35.34-.29.62l0,0c-.49.14-.36.53-.35.87l0,0c-.55.28-.29.77-.3,1.19h0a9.86,9.86,0,0,0-.6,4A60.9,60.9,0,0,1,144.44,129c-.11.55-.95,1.08-.22,1.75-2,2.65-4.94,3.22-8,3.32a.68.68,0,0,0-1.12,0l-.85,0c0-.4-.27-.56-.66-.58-3.73-.2-7.49-.85-11,1.08a8.09,8.09,0,0,1-2.44.6,15.84,15.84,0,0,0-7,3.42,51.78,51.78,0,0,1-19.33,9.85A20.44,20.44,0,0,1,82.52,148c-7.79-2.36-14.41-6.66-20.75-11.64a15.18,15.18,0,0,0-7.25-3.16,37.61,37.61,0,0,0-9.83,0,12,12,0,0,1-4.46-.43,6.92,6.92,0,0,1-4.52-6.61c.12-1.08.48.74.6-.06.34.27.09.83.52,1a3.93,3.93,0,0,0,2.74,3.54,11.08,11.08,0,0,0,5.22.8l6.68.09c2.79.18,5.35,1.49,8.1,1.77a6.32,6.32,0,0,1,3.79,1.85,60.64,60.64,0,0,0,15.8,10.29,22.93,22.93,0,0,0,18.35.56,62.07,62.07,0,0,0,18.72-11.4,3,3,0,0,1,1.93-1.06c3.53,0,6.72-1.78,10.21-2l6.68-.09c6.13.28,8.47-1.93,8.52-8.06,0-.8,0-1.6,0-2.4,0-2.21-.06-4.42,0-6.63a11,11,0,0,1,2.49-6.76c1.85-2.33,4.12-4.26,6-6.52a12.73,12.73,0,0,0,2.79-4.69C155.54,94.06,154.61,92,153.74,89.9Z"/><path class="cls-1" d="M147,110.63c0-.58.11-1.11.83-1.19Z"/><path class="cls-1" d="M146.16,113.19c0-.42-.25-.91.3-1.19C146.32,112.38,146.52,112.86,146.16,113.19Z"/><path class="cls-1" d="M146.43,112c0-.34-.14-.73.35-.87C146.64,111.45,146.75,111.84,146.43,112Z"/><path class="cls-1" d="M146.74,111.21c-.06-.28,0-.52.29-.62C147,110.81,147,111.08,146.74,111.21Z"/><path class="cls-3" d="M128.37,131.57c-3.49.23-6.68,2-10.21,2a3,3,0,0,0-1.93,1.06A62.07,62.07,0,0,1,97.51,146a22.93,22.93,0,0,1-18.35-.56,60.64,60.64,0,0,1-15.8-10.29,6.32,6.32,0,0,0-3.79-1.85c-2.75-.28-5.31-1.59-8.1-1.77.14-.07.38-.28.33-.28-2.33.06-4.69-.35-7,.19a11.08,11.08,0,0,1-5.22-.8,3.93,3.93,0,0,1-2.74-3.54c-.17-.61.48-1.44-.49-1.85l0-.59a9.67,9.67,0,0,0,0-4.78l0-1.16a3,3,0,0,0,0-3.48c-.09-4.4-2.25-7.74-5.33-10.65a37.27,37.27,0,0,1-4.71-5.25,7.77,7.77,0,0,1-.82-8.25,40.38,40.38,0,0,1,4.46-7c1.77-2.49,3.64-4.93,4.41-8l.39-1.63s.07.07.11.08a.16.16,0,0,0,.12,0,19.66,19.66,0,0,0,0-4.2,1.15,1.15,0,0,0-.28.36c-.57-4.18-1.8-8.26-1.92-12.51a7,7,0,0,1,4.67-7.15,47.85,47.85,0,0,1,9.22-2.58c5.67-1.17,9.68-4.51,12.87-9.14a26.15,26.15,0,0,1,5.6-6.14A8.07,8.07,0,0,1,73.34,32a81.6,81.6,0,0,1,8.08,3.67,18.19,18.19,0,0,0,17.07-.06c2.52-1.25,5.06-2.48,7.68-3.53,3.45-1.39,6.42-.64,9.17,1.65a40.2,40.2,0,0,1,6.38,7.35,18.74,18.74,0,0,0,11.41,7.22,60.74,60.74,0,0,1,8.29,2.24c1.71.66,3.43,1.34,4.43,3a14.31,14.31,0,0,1,.83,6c0,.2.16.41.24.62-.23,3-1,5.83-1.52,8.74A15.7,15.7,0,0,0,147.73,81c2,3,4.21,5.78,6,8.87.87,2.09,1.8,4.16,1.13,6.52a12.73,12.73,0,0,1-2.79,4.69c-1.92,2.26-4.19,4.19-6,6.52a11,11,0,0,0-2.49,6.76c-.05,2.21,0,4.42,0,6.63,0,.8,0,1.6,0,2.4,0,6.13-2.39,8.34-8.52,8.06-2.42-.56-4.87-.09-7.32,0ZM78.43,101.74c.08.09.19.22.27,0a.45.45,0,0,0-.2-.54v-.58c.5-.06.58-.44.51-.82-.17-1,.43-2.11-.33-3a2.54,2.54,0,0,1-.2-.52A13.35,13.35,0,0,0,62.39,85.4,13.46,13.46,0,0,0,56.73,109,12.89,12.89,0,0,0,70.53,111C74.69,109.25,77.11,105.94,78.43,101.74Zm50.16-3.17A13.46,13.46,0,1,0,115.17,112,13.39,13.39,0,0,0,128.59,98.57ZM79.92,70.83a11.61,11.61,0,0,0-.26-1.67A38.49,38.49,0,0,0,66.2,49.77c-3.05-2.45-5.15-1.55-6.1,2.3a45.39,45.39,0,0,0-.72,15.59A26.19,26.19,0,0,0,61.11,75a8.15,8.15,0,0,0,7.71,5,10.81,10.81,0,0,0,10.23-6.12A6.23,6.23,0,0,0,79.92,70.83Zm41.32-8.29c0-4-.09-7.49-1.09-10.81-1.05-3.54-2.81-4.14-5.86-2.11a4.76,4.76,0,0,0-.47.31,44.1,44.1,0,0,0-12.67,17.38c-3,7.32,5,13.32,10.77,12.58,4.41-.56,7.15-2.9,8.18-7.32A42.86,42.86,0,0,0,121.24,62.54ZM96.62,123.75a21.83,21.83,0,0,0-1.5-7.21A15.53,15.53,0,0,0,92,110.62c-1.27-1.32-2.38-1.28-3.61.08a8.38,8.38,0,0,0-1,1.37,30.16,30.16,0,0,0-3.49,9.9c-.31,1.8-.54,3.66.46,5.37A6.93,6.93,0,0,0,92,130.26C95.24,129.36,96.71,127.37,96.62,123.75Zm-4,12.32A2.76,2.76,0,0,0,94,138.83a3,3,0,0,0,3.19-.32,5.7,5.7,0,0,0,2.48-5.6,2.61,2.61,0,0,0-3.38-2.07A5.53,5.53,0,0,0,92.59,136.07Zm-4.8-.09a5.64,5.64,0,0,0-3.47-5,2.57,2.57,0,0,0-3.6,1.84,5.55,5.55,0,0,0,2.57,5.79,2.86,2.86,0,0,0,3.06.26A2.93,2.93,0,0,0,87.79,136Z"/><path class="cls-3" d="M134.22,134.08l.85,0,1.12,0c3.09-.1,6-.67,8-3.32a7.71,7.71,0,0,0,1.66-4.48c.4-.12.44.14.51.44a61.47,61.47,0,0,1,1.5,18.64,57.24,57.24,0,0,1-13.12,32.43,20.68,20.68,0,0,0-4.29-4.62c-4.08-2.87-8.64-3.1-13.27-2.19a39.92,39.92,0,0,0-17.64,7.74,19.93,19.93,0,0,0-7.86,13.69,1.61,1.61,0,0,1-.16.39.28.28,0,0,0-.11-.08s-.12,0-.12,0a22.82,22.82,0,0,0-.07,4.45c0,.1.2-.17.27-.3a4.14,4.14,0,0,1,.28,1.84H89.13c-.45,0-.87,0-.87-.64l.6-2.11c.73-1.42.17-2.89.16-4.35l-.16.64c-.34-1.55-.44-3.15-.93-4.68-2-6.22-6.4-10.3-12-13.29a41.46,41.46,0,0,0-14.77-4.85,1.43,1.43,0,0,1-.38-.17,1,1,0,0,0,.08-.11.2.2,0,0,0,0-.12,15.37,15.37,0,0,0-4.23,0l.1.23A14.92,14.92,0,0,0,48,173.5a15.4,15.4,0,0,0-2.61,3.65c-.62-.14-.85-.71-1.18-1.14a57.34,57.34,0,0,1-11.64-29.79l-.05-.56a1.09,1.09,0,0,0-.14-.88,61.87,61.87,0,0,1,1.51-17.39,1.66,1.66,0,0,1,.23.38c1.27,4.48,4.65,6,8.86,6.27,1.87.13,3.75.16,5.63.23H44.24v.36c1.24,0,2.48.05,3.72,0s2.8.3,4.16-.23a10,10,0,0,1,4.51,1.15,20.15,20.15,0,0,0,3.87,5,57.67,57.67,0,0,0,18.31,13.23c3.69,1.67,7.51,3.08,11.65,2.94a29.6,29.6,0,0,0,11.33-3.17,57.56,57.56,0,0,0,19-14.42c.94-1.07,2.09-2.05,2.47-3.54a9.79,9.79,0,0,1,4.54-1.22C129.92,134.22,132.07,134.16,134.22,134.08Z"/><path class="cls-3" d="M165.92,104.9c3-.06,5.16,1.62,7.27,3.37,6.16,5.1,10.56,11.34,12.12,19.34a23.59,23.59,0,0,1-.94,12.1,39.58,39.58,0,0,1-2.31,5,48.51,48.51,0,0,1-8.69,10.36c-8.7,8.37-18.57,14.42-30.92,15.51a71,71,0,0,0,5.06-11.88c.2-.7.79-.71,1.31-.88,6.07-2.1,11.92-4.61,16.77-9a31.82,31.82,0,0,0,5.25-5.69,21,21,0,0,0,4.5-15,29,29,0,0,0-4-11.64c-1.92-3.35-4-6.63-5.92-9.94C165,105.81,164.76,105.14,165.92,104.9Z"/><path class="cls-3" d="M131.67,196.39c-4-2.31-7.14-2.46-9.88.06-1.34,1.23-2.09,1.25-3.59.4a6.92,6.92,0,0,0-7.26.34,1,1,0,0,1-1.44-.1,7.51,7.51,0,0,0-8.25-1.58c-2.82,1.11-4.39,3.47-4.73,7.13a9.4,9.4,0,0,1-2.19-5.46c.27-2.65.53-5.3.8-8l0,0c.4-.18.31-.54.31-.86h0a.35.35,0,0,0,.12-.05,1.66,1.66,0,0,0-.06-.21,18,18,0,0,1,7.25-8.57c6-3.91,12.43-6.41,19.65-6.42a9.42,9.42,0,0,1,6.52,2.19c.09,1.07.79,1.89,1.13,2.86A40.22,40.22,0,0,1,131.67,196.39Z"/><path class="cls-3" d="M44.81,189.27a27.15,27.15,0,0,1,2.91-11.09c2.46-4.53,6.42-6.52,11.43-6.35s9.75,1.86,14.29,4a6.57,6.57,0,0,1,1,.72c.57,1.58,1.21,3.13,1.7,4.73a26.84,26.84,0,0,1,.56,13.32,7.93,7.93,0,0,0-6.17,2.9c-.32.4-.49.51-1,.17a7.49,7.49,0,0,0-9-.34c-.68.42-.91,0-1.29-.35a7.71,7.71,0,0,0-10-.44,7.88,7.88,0,0,0-2.74,4.29,6.65,6.65,0,0,1-1.55-3.36c0-1.87,0-3.74-.05-5.61C45,191,45.32,190.09,44.81,189.27Z"/><path class="cls-4" d="M123.23,135.55c-.38,1.49-1.53,2.47-2.47,3.54a57.56,57.56,0,0,1-19,14.42,29.6,29.6,0,0,1-11.33,3.17c-4.14.14-8-1.27-11.65-2.94A57.67,57.67,0,0,1,60.5,140.51a20.15,20.15,0,0,1-3.87-5c1.11.17,2.22.38,3.34.48.65.07,1,.52,1.39.89a67.73,67.73,0,0,0,16.46,10.84c7.7,3.62,15.26,3.23,22.9-.16a67.59,67.59,0,0,0,17.1-10.89,2.17,2.17,0,0,1,1.22-.64C120.44,135.91,121.83,135.72,123.23,135.55Z"/><path class="cls-4" d="M76.73,194.6a26.84,26.84,0,0,0-.56-13.32c-.49-1.6-1.13-3.15-1.7-4.73a12,12,0,0,1,4.2,2.49c6,4.65,8.52,10.72,7.13,18.27a7.27,7.27,0,0,1-1.66,3.58C83.08,197.05,80.63,194.93,76.73,194.6Z"/><path class="cls-4" d="M142.45,170.57c12.35-1.09,22.22-7.14,30.92-15.51a48.51,48.51,0,0,0,8.69-10.36,39.58,39.58,0,0,0,2.31-5c.94-.33.93-1.33,1.36-2a29.65,29.65,0,0,1,1.69-3.08h0c-.89,5.34-2.67,10.26-6.48,14.28-1.59,1.66-3,3.5-4.63,5.12-7.28,7.27-15.28,13.41-25.54,15.86a72.58,72.58,0,0,1-7.2,1.21C143.27,171.15,142.39,171.66,142.45,170.57Z"/><path class="cls-4" d="M131.67,196.39A40.22,40.22,0,0,0,130,178.2c-.34-1-1-1.79-1.13-2.86,2.39,1.36,3.65,3.63,4.63,6a28.78,28.78,0,0,1,2.08,10.73,9.52,9.52,0,0,0,0,4.77,9.19,9.19,0,0,1-1.34,4.4A9.68,9.68,0,0,0,131.67,196.39Z"/><path class="cls-5" d="M114.93,206.08c-.88,0-1.73,0-2.57-.13-2-.21-2.82-1.34-2.44-3.28a5.17,5.17,0,0,1,5.21-4.06,5.11,5.11,0,0,1,4.91,4.55,2.18,2.18,0,0,1-1.78,2.6A21,21,0,0,1,114.93,206.08Z"/><path class="cls-6" d="M134.77,177.75a57.24,57.24,0,0,0,13.12-32.43,61.47,61.47,0,0,0-1.5-18.64c-.07-.3-.11-.56-.51-.44a16.54,16.54,0,0,0,.25-3.55,38.23,38.23,0,0,1,1.91,6.88,46.73,46.73,0,0,1,1.1,11,58.75,58.75,0,0,1-4.39,22.5,62.88,62.88,0,0,1-8.9,15C135.09,179,135,178.4,134.77,177.75Z"/><path class="cls-6" d="M165.92,104.9c-1.16.24-.94.91-.51,1.64,2,3.31,4,6.59,5.92,9.94a29,29,0,0,1,4,11.64,21,21,0,0,1-4.5,15l-1.17.15c.32-1.76,1.38-3.13,1.93-4.7,1.2-3.51,2.36-7,2.27-10.8-.08-3.53-1.38-6.62-2.83-9.75-1.7-3.68-4.22-6.86-6.06-10.45a4.69,4.69,0,0,1-.48-2.45c0-.39,0-.85.43-1A.76.76,0,0,1,165.92,104.9Z"/><path class="cls-7" d="M57.51,205.37a14.18,14.18,0,0,1-6.95-1.54c-1.44-.68-1.73-1.63-1.17-3.15a5.16,5.16,0,0,1,8.5-1.56.94.94,0,0,1,.11,1.23A6.58,6.58,0,0,0,57.51,205.37Z"/><path class="cls-7" d="M107.6,205.41a13.92,13.92,0,0,1-7.53-1.92,1.73,1.73,0,0,1-.79-2.06,4.78,4.78,0,0,1,3.71-3.77,5.16,5.16,0,0,1,4.9,1.4c.49.42.4.79.14,1.34A6.74,6.74,0,0,0,107.6,205.41Z"/><path class="cls-8" d="M75.31,197.45A4.85,4.85,0,0,1,81.38,201a1.87,1.87,0,0,1-.95,2.38,14.8,14.8,0,0,1-6.89,1.8c-.71,0-1.18-.18-1.05-1.06a7.91,7.91,0,0,0-.24-2.65A5.94,5.94,0,0,0,75.31,197.45Z"/><path class="cls-9" d="M69.85,202.59l0,.51a33.07,33.07,0,0,1-9.52,2c-1-1.08-.62-2.28-.18-3.41a5.07,5.07,0,0,1,5.06-3.08,4.91,4.91,0,0,1,4.46,3.65C69.65,202.42,69.69,202.54,69.85,202.59Z"/><path class="cls-7" d="M122.82,204.9c-.67-.74-.09-1.63-.29-2.47-.64-2.65-.39-3.3,1.26-4.36a5,5,0,0,1,5.91.18,7.38,7.38,0,0,1,.85.91C128.84,202.24,126,203.82,122.82,204.9Z"/><path class="cls-6" d="M32.53,146.22A57.34,57.34,0,0,0,44.17,176c.33.43.56,1,1.18,1.14-.45,1-.75,1.11-1.54.1A59.92,59.92,0,0,1,34.44,160a51.21,51.21,0,0,1-2.71-11.88,13.08,13.08,0,0,1-.2-3.32C32.1,145.15,31.74,146.08,32.53,146.22Z"/><path class="cls-8" d="M122.82,204.9c3.19-1.08,6-2.66,7.73-5.74,1.75,2.47,1.35,3.87-1.49,4.84C127.05,204.68,125,205.59,122.82,204.9Z"/><path class="cls-8" d="M60.36,205.1a33.07,33.07,0,0,0,9.52-2c.11,2-.47,2.57-2.76,2.82a6.78,6.78,0,0,0-3.94,0A3.46,3.46,0,0,1,60.36,205.1Z"/><path class="cls-10" d="M75.31,197.45a5.94,5.94,0,0,1-3.06,4c-.85-1.22,0-2,.73-2.78A3.75,3.75,0,0,1,75.31,197.45Z"/><path class="cls-11" d="M88.26,198c0,.62.42.64.87.64H91.8c.1.33.42.89,0,1a13.84,13.84,0,0,1-3.58,0C87.91,199.56,87.94,198.57,88.26,198Zm2.87,1.08V199H88.65v.13Z"/><path class="cls-12" d="M44.81,189.27c.51.82.21,1.73.23,2.59.06,1.87,0,3.74.05,5.61C44.31,194.76,44.64,192,44.81,189.27Z"/><path class="cls-12" d="M95.13,189.23c-.27,2.65-.53,5.3-.8,8A15,15,0,0,1,95.13,189.23Z"/><path class="cls-12" d="M146.92,60.17c-.08-.21-.25-.42-.24-.62a14.31,14.31,0,0,0-.83-6C147.38,55.58,147.21,57.86,146.92,60.17Z"/><path class="cls-13" d="M52.12,134.38c-1.36.53-2.77.16-4.16.23s-2.48,0-3.72,0v-.36h4.33Z"/><path class="cls-13" d="M36.4,115.28a3,3,0,0,1,0,3.48Z"/><path class="cls-13" d="M91.52,196.82c-.07.13-.27.4-.27.3a22.82,22.82,0,0,1,.07-4.45s.08,0,.12,0a.28.28,0,0,1,.11.08Z"/><path class="cls-13" d="M56.77,169.24l-.1-.23a15.37,15.37,0,0,1,4.23,0,.2.2,0,0,1,0,.12,1,1,0,0,1-.08.11Z"/><path class="cls-14" d="M135.59,196.88a9.52,9.52,0,0,1,0-4.77C135.6,193.7,135.59,195.29,135.59,196.88Z"/><path class="cls-13" d="M34.8,70.76a1.15,1.15,0,0,1,.28-.36,19.66,19.66,0,0,1,0,4.2.16.16,0,0,1-.12,0s-.07,0-.11-.08Z"/><path class="cls-13" d="M36.33,119.92a9.67,9.67,0,0,1,0,4.78Z"/><path class="cls-13" d="M88.86,192.21l.16-.64c0,1.46.57,2.93-.16,4.35,0-.06,0-.11,0-.17s0-.06,0-.09c0-.27,0-.55,0-.83Z"/><path class="cls-15" d="M63.18,205.94a6.78,6.78,0,0,1,3.94,0A20,20,0,0,1,63.18,205.94Z"/><path class="cls-13" d="M36.34,125.29c1,.41.32,1.24.49,1.85-.43-.22-.18-.78-.52-1Z"/><path class="cls-12" d="M95.42,188.39c0,.32.09.68-.31.86A1.05,1.05,0,0,1,95.42,188.39Z"/><path class="cls-6" d="M32.34,144.78a1.09,1.09,0,0,1,.14.88A1,1,0,0,1,32.34,144.78Z"/><path class="cls-2" d="M187.42,134.62l.12-.38.1.08a3.28,3.28,0,0,1-.2.31Z"/><path class="cls-16" d="M88.89,194.83c0,.28,0,.56,0,.83A.63.63,0,0,1,88.89,194.83Z"/><path class="cls-12" d="M95.47,188.14a1.66,1.66,0,0,1,.06.21.35.35,0,0,1-.12.05A.4.4,0,0,1,95.47,188.14Z"/><path class="cls-8" d="M69.85,202.59c-.16-.05-.2-.17-.15-.33Z"/><path class="cls-13" d="M128.37,131.57l-.64-.14c2.45,0,4.9-.51,7.32,0Z"/><path class="cls-13" d="M44.79,131.48c2.32-.54,4.68-.13,7-.19.05,0-.19.21-.33.28Z"/><path class="cls-1" d="M136.19,134l-1.12,0A.68.68,0,0,1,136.19,134Z"/><path class="cls-1" d="M78.5,100.65v.58l-.07.51c-1.32,4.2-3.74,7.51-7.9,9.21A12.89,12.89,0,0,1,56.73,109,13.46,13.46,0,0,1,62.39,85.4,13.35,13.35,0,0,1,78.48,96.26a2.54,2.54,0,0,0,.2.52A12.28,12.28,0,0,1,78.5,100.65Zm-13.27,8.8a10.92,10.92,0,0,0,10.94-10.9,11,11,0,0,0-11-10.92A10.87,10.87,0,0,0,54.34,98.57,10.76,10.76,0,0,0,65.23,109.45Z"/><path class="cls-1" d="M128.59,98.57a13.46,13.46,0,1,1-13.41-13.48A13.35,13.35,0,0,1,128.59,98.57ZM115,109.45a10.77,10.77,0,0,0,11-10.63,10.9,10.9,0,1,0-11,10.63Z"/><path class="cls-1" d="M79.92,70.83a6.23,6.23,0,0,1-.87,3.09A10.81,10.81,0,0,1,68.82,80a8.15,8.15,0,0,1-7.71-5,26.19,26.19,0,0,1-1.73-7.38,45.39,45.39,0,0,1,.72-15.59c.95-3.85,3-4.75,6.1-2.3A38.49,38.49,0,0,1,79.66,69.16,11.61,11.61,0,0,1,79.92,70.83ZM63,51.72a5.28,5.28,0,0,0-.34.91,42.81,42.81,0,0,0,.25,19.53c.9,3.51,2.4,4.73,5.95,5.14,2.19.25,5.87-1.14,6.56-2.93a2.8,2.8,0,0,0,.56-.39c1.7-1.83,1.58-3.9.74-6a41.35,41.35,0,0,0-7.12-11.44,23.53,23.53,0,0,0-5.35-5C63.78,51.22,63.2,50.71,63,51.72Z"/><path class="cls-1" d="M121.24,62.54a42.86,42.86,0,0,1-1.14,10c-1,4.42-3.77,6.76-8.18,7.32-5.75.74-13.77-5.26-10.77-12.58a44.1,44.1,0,0,1,12.67-17.38,4.76,4.76,0,0,1,.47-.31c3-2,4.81-1.43,5.86,2.11C121.15,55.05,121.26,58.49,121.24,62.54Zm-2.59-.84a32.65,32.65,0,0,0-.87-9c-.45-1.88-.74-2-2.35-.8l-.22.17A41.68,41.68,0,0,0,103.64,68c-1.18,2.82-.39,5.08,1.73,7.08,4.4,4.14,10.68,2.45,12.25-3.34A34.5,34.5,0,0,0,118.65,61.7Z"/><path class="cls-1" d="M96.62,123.75c.09,3.62-1.38,5.61-4.64,6.51a6.93,6.93,0,0,1-7.63-2.92c-1-1.71-.77-3.57-.46-5.37a30.16,30.16,0,0,1,3.49-9.9,8.38,8.38,0,0,1,1-1.37c1.23-1.36,2.34-1.4,3.61-.08a15.53,15.53,0,0,1,3.14,5.92A21.83,21.83,0,0,1,96.62,123.75ZM90.25,112.5c-2.19,2.86-4.18,9.16-3.94,12.32.15,1.9,1.68,3.08,4,3.05,2.13,0,3.63-1.33,3.72-3.18A15.37,15.37,0,0,0,93.4,120,23.23,23.23,0,0,0,90.25,112.5Z"/><path class="cls-17" d="M92.59,136.07a5.53,5.53,0,0,1,3.7-5.23,2.61,2.61,0,0,1,3.38,2.07,5.7,5.7,0,0,1-2.48,5.6,3,3,0,0,1-3.19.32A2.76,2.76,0,0,1,92.59,136.07Z"/><path class="cls-17" d="M87.79,136a2.93,2.93,0,0,1-1.44,2.85,2.86,2.86,0,0,1-3.06-.26,5.55,5.55,0,0,1-2.57-5.79,2.57,2.57,0,0,1,3.6-1.84A5.64,5.64,0,0,1,87.79,136Z"/><path class="cls-13" d="M78.5,100.65a12.28,12.28,0,0,0,.18-3.87c.76.94.16,2,.33,3C79.08,100.21,79,100.59,78.5,100.65Z"/><path class="cls-13" d="M78.43,101.74l.07-.51a.45.45,0,0,1,.2.54C78.62,102,78.51,101.83,78.43,101.74Z"/><path class="cls-1" d="M91.13,199.11H88.65V199h2.49Z"/><path class="cls-9" d="M65.23,109.45A10.76,10.76,0,0,1,54.34,98.57,10.87,10.87,0,0,1,65.21,87.63a11,11,0,0,1,11,10.92A10.92,10.92,0,0,1,65.23,109.45Zm-1-8.67a4,4,0,1,0,8,0,4,4,0,1,0-8,0Z"/><path class="cls-9" d="M115,109.45a10.91,10.91,0,1,1,11-10.63A10.86,10.86,0,0,1,115,109.45Zm-2.61-12.76a3.94,3.94,0,0,0-4,4,4,4,0,1,0,8,0A3.93,3.93,0,0,0,112.42,96.69Z"/><path class="cls-9" d="M75.38,74.37c-.69,1.79-4.37,3.18-6.56,2.93-3.55-.41-5-1.63-5.95-5.14a42.81,42.81,0,0,1-.25-19.53,5.28,5.28,0,0,1,.34-.91,10.75,10.75,0,0,1,2.09,1.66A40.24,40.24,0,0,1,72.44,64C74.09,67.22,75.69,70.53,75.38,74.37Z"/><path class="cls-8" d="M75.38,74.37c.31-3.84-1.29-7.15-2.94-10.42a40.24,40.24,0,0,0-7.39-10.57A10.75,10.75,0,0,0,63,51.72c.24-1,.82-.5,1.25-.23a23.53,23.53,0,0,1,5.35,5,41.35,41.35,0,0,1,7.12,11.44c.84,2.15,1,4.22-.74,6A2.8,2.8,0,0,1,75.38,74.37Z"/><path class="cls-9" d="M118.65,61.7a34.5,34.5,0,0,1-1,10c-1.57,5.79-7.85,7.48-12.25,3.34-2.12-2-2.91-4.26-1.73-7.08a41.68,41.68,0,0,1,11.57-15.89l.22-.17c1.61-1.16,1.9-1.08,2.35.8A32.65,32.65,0,0,1,118.65,61.7Z"/><path class="cls-10" d="M90.25,112.5A23.23,23.23,0,0,1,93.4,120a15.37,15.37,0,0,1,.61,4.73c-.09,1.85-1.59,3.14-3.72,3.18-2.3,0-3.83-1.15-4-3.05C86.07,121.66,88.06,115.36,90.25,112.5Z"/><path class="cls-1" d="M64.24,100.78a4,4,0,1,1,8,0,4,4,0,1,1-8,0Z"/><path class="cls-1" d="M112.42,96.69a3.93,3.93,0,0,1,4,4,4,4,0,1,1-8,0A3.94,3.94,0,0,1,112.42,96.69Z"/></g></svg>