<svg xmlns="http://www.w3.org/2000/svg" viewBox="0 0 750.28 841.89"><defs><style>.cls-1{fill:none;stroke:#231f20;stroke-miterlimit:10;stroke-width:11.43px;}.cls-2{fill:#0c090e;}.cls-3{fill:#271c32;}.cls-4{fill:#6b8fca;}.cls-5{fill:#4654a4;}.cls-6{fill:#fff;}.cls-7{fill:#271d33;}.cls-8{fill:#f9f9f9;}.cls-9{fill:#afafb0;}.cls-10{fill:#fbfbfb;}.cls-11{fill:#f2f1f1;}.cls-12{fill:#352744;}.cls-13{fill:#7c5c9c;}.cls-14{fill:#8362a8;}.cls-15{fill:#5c4578;}.cls-16{fill:#c7c7c7;}.cls-17{fill:#76579a;}.cls-18{fill:#06030a;}</style></defs><g id="Layer_18" data-name="Layer 18"><rect class="cls-1" x="61.02" y="48.92" width="631" height="743.72"/><path class="cls-2" d="M738.34,750.58c-.7,2.14-1,4.39-1.8,6.5a36,36,0,0,1-7.38,11.5c-6,6.35-12.52,12-20.48,15.83a45.24,45.24,0,0,1-16.95,4.38,1.52,1.52,0,0,0-1.39.73,41.31,41.31,0,0,1-3.86,5.19,1.7,1.7,0,0,0-.26,2,37.08,37.08,0,0,1,1.94,16.76c-.59,5.75-4.57,9.63-10.64,11a30,30,0,0,1-6.39.89c-.26,0-.59-.12-.73.25H659.08c-1.68-.56-3.47-.46-5.19-.83-3.93-.86-7.83-2-9.87-5.73-1.25-2.28-2.67-2.7-4.92-2.56a2.92,2.92,0,0,0-2.68,1.43c-2.12,3.2-5.44,4.66-9,5.39-6.46,1.32-13,1.17-19.53.65a25.35,25.35,0,0,1-7.89-1.78,11.85,11.85,0,0,1-7.68-10.51A39,39,0,0,1,594,796a1.59,1.59,0,0,0-.44-1.72,58.7,58.7,0,0,1-10.66-19.86,59.82,59.82,0,0,1-2.3-24.77c.48-4.29,1.75-8.39,2.7-12.57,1.13-5,1.17-10-3.07-14a54.7,54.7,0,0,1-5.47-5.91c-3.16-4-3.34-8.15-1-12.56a46.72,46.72,0,0,1,5.1-7.55c3.39-4.22,4-8.88,2.84-14a44.93,44.93,0,0,1-1.34-8.73c-.21-6.15,3.13-8.8,7.3-10.38a38.09,38.09,0,0,1,7.14-1.93,18.68,18.68,0,0,0,13-8.72,29.94,29.94,0,0,1,4.18-5c3.92-3.81,8.35-5,13.47-2.65,2.67,1.22,5.35,2.43,8,3.68a14.83,14.83,0,0,0,13,0c3.1-1.4,6.1-3,9.3-4.2,4.3-1.6,8-.52,11.33,2.28a30.34,30.34,0,0,1,5.72,6.42,18,18,0,0,0,12,7.84,41.82,41.82,0,0,1,8.59,2.44c4.77,2.09,6.78,5.57,6.33,10.71-.29,3.37-1.08,6.65-1.67,10a13.59,13.59,0,0,0,2.07,10.69,95.35,95.35,0,0,1,5.52,8.14c1.83,3.29,2.92,6.69,1.31,10.43a13.86,13.86,0,0,1-2.48,3.89c-1.75,2-3.63,3.82-5.45,5.73a1.57,1.57,0,0,1,.58-1.36c1.67-1.83,3.35-3.65,5-5.53,2.18-2.55,3.24-5.38,1.68-8.66-.61-1.28-1.35-2.5-2-3.76-.23.35.08.88-.38,1.15-1.8-3.1-4-5.92-6-8.87a15.72,15.72,0,0,1-2.34-12.13c.52-2.91,1.3-5.78,1.53-8.74.29-2.3.46-4.59-1.07-6.6-1-1.7-2.72-2.38-4.43-3a62.59,62.59,0,0,0-8.29-2.23,18.77,18.77,0,0,1-11.42-7.22,39.44,39.44,0,0,0-6.37-7.35c-2.75-2.3-5.72-3-9.17-1.66-2.62,1-5.16,2.28-7.68,3.54a18.22,18.22,0,0,1-17.07.06,81.6,81.6,0,0,0-8.08-3.67,8.06,8.06,0,0,0-8.1,1.25,26.11,26.11,0,0,0-5.6,6.13c-3.19,4.64-7.21,8-12.88,9.15a47.73,47.73,0,0,0-9.21,2.57,7,7,0,0,0-4.68,7.15c.13,4.25,1.36,8.33,1.93,12.52v3.76c-.13.54-.26,1.08-.4,1.63-.77,3-2.63,5.48-4.41,8a41.32,41.32,0,0,0-4.45,7,7.79,7.79,0,0,0,.81,8.25,38,38,0,0,0,4.72,5.25c3.08,2.92,5.24,6.26,5.33,10.65l-.05,3.49,0,1.16v4.78l0,.59,0,.8c-.12.8-.47-1-.59.06a6.9,6.9,0,0,0,4.51,6.6,11.66,11.66,0,0,0,4.47.43,38.05,38.05,0,0,1,9.83,0,15.38,15.38,0,0,1,7.25,3.16c6.34,5,13,9.29,20.75,11.64a20.43,20.43,0,0,0,11.23.44,52.08,52.08,0,0,0,19.33-9.85,15.79,15.79,0,0,1,7-3.42,8.16,8.16,0,0,0,2.44-.6c3.55-1.94,7.31-1.29,11-1.08.39,0,.62.17.66.57-2.15.09-4.3.15-6.45.26a9.59,9.59,0,0,0-4.55,1.22c-1.39.17-2.78.36-4.18.5a2.08,2.08,0,0,0-1.22.64,67.83,67.83,0,0,1-17.1,10.88c-7.64,3.39-15.2,3.78-22.9.17a67.73,67.73,0,0,1-16.47-10.85c-.41-.36-.73-.82-1.39-.88-1.12-.11-2.22-.32-3.34-.48a9.71,9.71,0,0,0-4.5-1.15l-3.55-.11c-1.88-.08-3.76-.1-5.63-.24-4.21-.29-7.6-1.78-8.86-6.27a1.44,1.44,0,0,0-.23-.37,61.47,61.47,0,0,0-1.51,17.39,1,1,0,0,0,.14.87l0,.56c-.78-.13-.42-1.07-1-1.41a13.18,13.18,0,0,0,.2,3.33,50.71,50.71,0,0,0,2.71,11.88,59.81,59.81,0,0,0,9.37,17.24c.78,1,1.09.92,1.54-.1a15.2,15.2,0,0,1,2.61-3.65,14.84,14.84,0,0,1,8.8-4.26l4.06,0a1.19,1.19,0,0,0,.39.16A41.65,41.65,0,0,1,626,789.9c5.55,3,10,7.08,12,13.3.49,1.53.59,3.12.93,4.67l0,2.63a.64.64,0,0,0-.05.83.32.32,0,0,0,0,.09,1,1,0,0,0,0,.16l-.6,2.12c-.33.53-.35,1.53-.07,1.57a13.76,13.76,0,0,0,3.57,0c.46,0,.14-.61,0-.95a4.11,4.11,0,0,0-.27-1.83l0-4.06a1.56,1.56,0,0,0,.15-.39,19.9,19.9,0,0,1,7.87-13.69,39.92,39.92,0,0,1,17.64-7.74c4.63-.91,9.19-.68,13.26,2.19a20.51,20.51,0,0,1,4.3,4.62c.19.65.32,1.29,1.08.33a62.78,62.78,0,0,0,8.89-15,58.8,58.8,0,0,0,4.4-22.5,46.12,46.12,0,0,0-1.11-11,38,38,0,0,0-1.9-6.89,16,16,0,0,1-.26,3.56,7.57,7.57,0,0,1-1.65,4.47c-.73-.67.1-1.19.22-1.75a61.59,61.59,0,0,0,1.13-11.73,9.68,9.68,0,0,1,.6-4c-.88,4.3.87,8.18,2,12.16a59.88,59.88,0,0,1,1.71,21.49,67.33,67.33,0,0,1-1.37,8.32,48.6,48.6,0,0,0,8.36-3.49A31.55,31.55,0,0,0,721,753.81c2.91-5.58,2.4-11.28-.07-16.89a93,93,0,0,0-6.32-11.07,12.4,12.4,0,0,1-2.09-4.4c-.28-1.74.46-2.74,2.18-3.16a8,8,0,0,1,6.1.89,36.77,36.77,0,0,1,14.67,16.09,25.39,25.39,0,0,1,2.62,9.08c0,.1.16.19.25.28Zm-92.87,53.49v0a1.05,1.05,0,0,0-.31.87l0,0a15,15,0,0,0-.8,8,9.36,9.36,0,0,0,2.19,5.46c.34-3.67,1.91-6,4.73-7.13a7.51,7.51,0,0,1,8.25,1.57,1,1,0,0,0,1.44.1,6.92,6.92,0,0,1,7.26-.34c1.5.85,2.25.84,3.59-.39,2.73-2.53,5.86-2.38,9.88-.07a9.63,9.63,0,0,1,2.57,4.89,9.25,9.25,0,0,0,1.35-4.39v-4.77a28.9,28.9,0,0,0-2.08-10.73c-1-2.41-2.24-4.68-4.64-6a9.43,9.43,0,0,0-6.52-2.2c-7.22,0-13.68,2.52-19.64,6.42a18,18,0,0,0-7.25,8.57A.42.42,0,0,0,645.47,804.07ZM613.24,821.6a19.12,19.12,0,0,0,3.93,0c2.3-.25,2.87-.84,2.76-2.82l0-.51-.15-.33a4.89,4.89,0,0,0-4.46-3.65,5.07,5.07,0,0,0-5.07,3.08c-.43,1.13-.82,2.33.19,3.41A3.41,3.41,0,0,0,613.24,821.6Zm59.63-1c2.22.69,4.24-.22,6.24-.9,2.85-1,3.24-2.38,1.5-4.85a9.15,9.15,0,0,0-.85-.91,5,5,0,0,0-5.91-.17c-1.65,1-1.9,1.7-1.26,4.36C672.79,818.93,672.21,819.82,672.87,820.57Zm-50.56-3.48a7.71,7.71,0,0,1,.23,2.66c-.12.88.35,1.06,1.06,1.06a14.92,14.92,0,0,0,6.89-1.8,1.89,1.89,0,0,0,1-2.39,4.85,4.85,0,0,0-6.08-3.51,3.8,3.8,0,0,0-2.32,1.2C622.26,815.06,621.45,815.88,622.31,817.09Zm115.17-66.81a29.83,29.83,0,0,0-1.69,3.08c-.43.69-.42,1.68-1.37,2a23.52,23.52,0,0,0,1-12.11c-1.57-8-6-14.24-12.12-19.34-2.11-1.74-4.31-3.42-7.27-3.36a.77.77,0,0,0-1-.72c-.41.11-.41.57-.42.95a4.74,4.74,0,0,0,.47,2.45c1.84,3.59,4.37,6.77,6.07,10.45,1.45,3.13,2.75,6.23,2.83,9.76.08,3.8-1.07,7.29-2.28,10.79-.54,1.58-1.61,3-1.93,4.71l1.18-.16a31.85,31.85,0,0,1-5.25,5.69c-4.85,4.38-10.7,6.89-16.78,9-.51.18-1.1.18-1.31.88a72.31,72.31,0,0,1-5,11.89c-.07,1.08.82.57,1.14.53,2.41-.34,4.83-.65,7.19-1.21,10.26-2.45,18.27-8.59,25.55-15.86,1.63-1.62,3-3.46,4.62-5.13,3.82-4,5.59-8.94,6.48-14.27l.21-.32-.11-.07Zm-110.7,60c3.91.34,6.36,2.45,7.42,6.3a7.29,7.29,0,0,0,1.65-3.58c1.4-7.55-1.1-13.62-7.13-18.27a11.73,11.73,0,0,0-4.19-2.49,7.75,7.75,0,0,0-1-.73c-4.54-2.13-9.23-3.82-14.29-4s-9,1.82-11.43,6.35a27.11,27.11,0,0,0-2.91,11.09c-.18,2.74-.51,5.48.27,8.19a6.74,6.74,0,0,0,1.56,3.37,7.85,7.85,0,0,1,2.73-4.29,7.71,7.71,0,0,1,10,.44c.38.32.61.76,1.29.35a7.51,7.51,0,0,1,8.95.33c.47.34.65.23,1-.16A7.94,7.94,0,0,1,626.78,810.26ZM665,821.75a21.19,21.19,0,0,0,3.33-.32,2.18,2.18,0,0,0,1.77-2.6,5.11,5.11,0,0,0-4.91-4.56,5.21,5.21,0,0,0-5.21,4.07c-.38,1.94.45,3.06,2.45,3.28C663.26,821.7,664.11,821.7,665,821.75ZM607.57,821a6.58,6.58,0,0,1,.48-5,.9.9,0,0,0-.11-1.22,5.15,5.15,0,0,0-8.49,1.56c-.56,1.52-.27,2.46,1.17,3.15A14,14,0,0,0,607.57,821Zm50.08,0a6.75,6.75,0,0,1,.44-5c.26-.54.35-.92-.14-1.33a5.11,5.11,0,0,0-4.9-1.4,4.79,4.79,0,0,0-3.72,3.76,1.71,1.71,0,0,0,.8,2.06A13.91,13.91,0,0,0,657.65,821.07Z"/><path class="cls-3" d="M703.8,705.57c.46-.27.15-.8.38-1.15.69,1.26,1.43,2.48,2,3.76,1.56,3.28.5,6.11-1.68,8.66-1.61,1.88-3.29,3.7-5,5.53a1.57,1.57,0,0,0-.58,1.36l-1.11,1.37c-.73.09-.82.61-.84,1.19l0,0c-.33.1-.35.34-.29.62l0,0c-.49.14-.36.53-.35.87l0-.05c-.55.29-.3.77-.3,1.19h0a9.68,9.68,0,0,0-.6,4,61.59,61.59,0,0,1-1.13,11.73c-.12.56-1,1.08-.22,1.75-2,2.66-4.94,3.23-8,3.32a.68.68,0,0,0-1.11,0l-.85,0c0-.4-.27-.55-.66-.57-3.73-.21-7.49-.86-11,1.08a8.16,8.16,0,0,1-2.44.6,15.79,15.79,0,0,0-7,3.42,52.08,52.08,0,0,1-19.33,9.85,20.43,20.43,0,0,1-11.23-.44c-7.79-2.35-14.41-6.65-20.75-11.64a15.38,15.38,0,0,0-7.25-3.16,38.05,38.05,0,0,0-9.83,0,11.66,11.66,0,0,1-4.47-.43,6.9,6.9,0,0,1-4.51-6.6c.12-1.08.47.74.59-.06.35.26.1.83.53,1a3.93,3.93,0,0,0,2.73,3.53,11,11,0,0,0,5.23.8l6.68.1c2.79.18,5.34,1.49,8.09,1.76a6.41,6.41,0,0,1,3.8,1.86,60.75,60.75,0,0,0,15.79,10.29,23,23,0,0,0,18.36.55,61.88,61.88,0,0,0,18.71-11.39,3.09,3.09,0,0,1,1.94-1.06c3.53,0,6.72-1.79,10.2-2l6.69-.08c6.13.28,8.47-1.93,8.52-8.06,0-.8,0-1.6,0-2.4,0-2.21-.06-4.43,0-6.64a11,11,0,0,1,2.49-6.75c1.85-2.33,4.12-4.27,6-6.53a12.79,12.79,0,0,0,2.79-4.69C705.6,709.73,704.67,707.65,703.8,705.57Z"/><path class="cls-2" d="M697.05,726.29c0-.58.11-1.1.84-1.19Z"/><path class="cls-2" d="M696.22,728.85c0-.42-.25-.9.3-1.19C696.37,728.05,696.58,728.52,696.22,728.85Z"/><path class="cls-2" d="M696.49,727.71c0-.34-.14-.73.35-.87C696.69,727.12,696.81,727.5,696.49,727.71Z"/><path class="cls-2" d="M696.8,726.88c-.06-.28,0-.52.29-.62C697,726.47,697.06,726.75,696.8,726.88Z"/><path class="cls-4" d="M678.42,747.23c-3.48.23-6.67,2-10.2,2a3.09,3.09,0,0,0-1.94,1.06,61.88,61.88,0,0,1-18.71,11.39,23,23,0,0,1-18.36-.55,60.75,60.75,0,0,1-15.79-10.29,6.41,6.41,0,0,0-3.8-1.86c-2.75-.27-5.3-1.58-8.09-1.76.14-.08.37-.29.33-.29-2.34.06-4.69-.34-7,.19a11,11,0,0,1-5.23-.8,3.93,3.93,0,0,1-2.73-3.53c-.17-.62.48-1.45-.49-1.85l0-.59a9.67,9.67,0,0,0,0-4.78l0-1.16a3,3,0,0,0,.05-3.49c-.09-4.39-2.25-7.73-5.33-10.65a38,38,0,0,1-4.72-5.25,7.79,7.79,0,0,1-.81-8.25,41.32,41.32,0,0,1,4.45-7c1.78-2.48,3.64-4.92,4.41-8,.14-.55.27-1.09.4-1.63l.11.08h.12a20.43,20.43,0,0,0,0-4.21,1.22,1.22,0,0,0-.28.37c-.57-4.19-1.8-8.27-1.93-12.52a7,7,0,0,1,4.68-7.15,47.73,47.73,0,0,1,9.21-2.57c5.67-1.17,9.69-4.51,12.88-9.15a26.11,26.11,0,0,1,5.6-6.13,8.06,8.06,0,0,1,8.1-1.25,81.6,81.6,0,0,1,8.08,3.67,18.22,18.22,0,0,0,17.07-.06c2.52-1.26,5.06-2.49,7.68-3.54,3.45-1.38,6.42-.64,9.17,1.66a39.44,39.44,0,0,1,6.37,7.35A18.77,18.77,0,0,0,683.19,664a62.59,62.59,0,0,1,8.29,2.23c1.71.66,3.42,1.34,4.43,3a14.48,14.48,0,0,1,.83,6c0,.21.16.42.24.62-.23,3-1,5.83-1.53,8.74a15.72,15.72,0,0,0,2.34,12.13c2,2.95,4.21,5.77,6,8.87.87,2.08,1.8,4.16,1.13,6.51a12.79,12.79,0,0,1-2.79,4.69c-1.92,2.26-4.19,4.2-6,6.53a11,11,0,0,0-2.49,6.75c-.05,2.21,0,4.43,0,6.64,0,.8,0,1.6,0,2.4,0,6.13-2.39,8.34-8.52,8.06-2.43-.56-4.87-.1-7.32-.06Zm-49.93-29.82c.08.09.19.22.26,0a.42.42,0,0,0-.2-.54v-.58c.5-.07.57-.44.51-.82-.17-1,.43-2.11-.33-3.06a2.45,2.45,0,0,1-.2-.51,13.36,13.36,0,0,0-16.1-10.87,13.47,13.47,0,1,0,8.15,25.55C624.75,724.91,627.16,721.6,628.49,717.41Zm50.16-3.17a13.46,13.46,0,1,0-13.43,13.46A13.41,13.41,0,0,0,678.65,714.24ZM630,686.49a11.47,11.47,0,0,0-.26-1.66,38.56,38.56,0,0,0-13.46-19.4c-3-2.44-5.16-1.55-6.11,2.31a45.59,45.59,0,0,0-.72,15.58,26.62,26.62,0,0,0,1.74,7.39,8.16,8.16,0,0,0,7.71,5,10.82,10.82,0,0,0,10.22-6.12A6.15,6.15,0,0,0,630,686.49Zm41.32-8.29a36.67,36.67,0,0,0-1.09-10.81c-1.06-3.53-2.81-4.14-5.86-2.11a5.52,5.52,0,0,0-.47.32A44.08,44.08,0,0,0,651.2,683c-3,7.31,5,13.32,10.78,12.58,4.41-.56,7.15-2.9,8.18-7.33A43.83,43.83,0,0,0,671.3,678.2Zm-24.62,61.22a21.78,21.78,0,0,0-1.5-7.21,15.64,15.64,0,0,0-3.14-5.93c-1.27-1.31-2.38-1.28-3.61.09a8,8,0,0,0-1,1.37,29.64,29.64,0,0,0-3.49,9.9c-.31,1.8-.54,3.65.46,5.36a6.9,6.9,0,0,0,7.63,2.92C645.29,745,646.76,743,646.68,739.42Zm-4,12.32a2.74,2.74,0,0,0,1.41,2.76,3,3,0,0,0,3.18-.33,5.7,5.7,0,0,0,2.49-5.6,2.6,2.6,0,0,0-3.38-2.06A5.51,5.51,0,0,0,642.65,751.74Zm-4.8-.1a5.68,5.68,0,0,0-3.47-5,2.58,2.58,0,0,0-3.6,1.84,5.58,5.58,0,0,0,2.56,5.8,2.92,2.92,0,0,0,3.07.26A3,3,0,0,0,637.85,751.64Z"/><path class="cls-4" d="M684.28,749.74l.85,0,1.11,0c3.1-.09,6-.66,8-3.32a7.57,7.57,0,0,0,1.65-4.47c.4-.12.45.13.52.44A61.4,61.4,0,0,1,698,761a57.37,57.37,0,0,1-13.12,32.44,20.51,20.51,0,0,0-4.3-4.62c-4.07-2.87-8.63-3.1-13.26-2.19a39.92,39.92,0,0,0-17.64,7.74A19.9,19.9,0,0,0,641.76,808a1.56,1.56,0,0,1-.15.39.87.87,0,0,0-.11-.09h-.13a23.63,23.63,0,0,0-.06,4.45c0,.09.2-.17.27-.3a4.11,4.11,0,0,1,.27,1.83h-2.67c-.44,0-.87,0-.86-.63l.6-2.12c.73-1.41.17-2.88.16-4.34l-.16.63c-.34-1.55-.44-3.14-.93-4.67-2-6.22-6.4-10.3-12-13.3a41.65,41.65,0,0,0-14.77-4.85,1.19,1.19,0,0,1-.39-.16s.07-.07.08-.12a.23.23,0,0,0,0-.12,16.11,16.11,0,0,0-4.22,0l.09.24a14.84,14.84,0,0,0-8.8,4.26,15.2,15.2,0,0,0-2.61,3.65c-.62-.15-.85-.71-1.18-1.14a57.47,57.47,0,0,1-11.65-29.8l0-.56a1.07,1.07,0,0,0-.14-.87,61.47,61.47,0,0,1,1.51-17.39,1.44,1.44,0,0,1,.23.37c1.26,4.49,4.65,6,8.86,6.27,1.87.14,3.75.16,5.63.24h-4.34v.35c1.24,0,2.49.05,3.73,0s2.8.29,4.16-.23a9.71,9.71,0,0,1,4.5,1.15,20.43,20.43,0,0,0,3.88,5,57.71,57.71,0,0,0,18.3,13.22c3.69,1.68,7.51,3.08,11.66,2.94a29.43,29.43,0,0,0,11.33-3.17,57.39,57.39,0,0,0,19-14.42c.94-1.06,2.09-2,2.46-3.53a9.59,9.59,0,0,1,4.55-1.22C680,749.89,682.13,749.83,684.28,749.74Z"/><path class="cls-4" d="M716,720.57c3-.06,5.16,1.62,7.27,3.36,6.16,5.1,10.55,11.34,12.12,19.34a23.52,23.52,0,0,1-1,12.11,37.53,37.53,0,0,1-2.31,5,48.18,48.18,0,0,1-8.69,10.36c-8.7,8.37-18.56,14.41-30.91,15.51a72.31,72.31,0,0,0,5-11.89c.21-.7.8-.7,1.31-.88,6.08-2.09,11.93-4.6,16.78-9a31.85,31.85,0,0,0,5.25-5.69,21,21,0,0,0,4.49-15,28.71,28.71,0,0,0-4-11.64c-1.92-3.34-3.94-6.63-5.91-9.94C715,721.48,714.81,720.8,716,720.57Z"/><path class="cls-4" d="M681.73,812.05c-4-2.31-7.15-2.46-9.88.07-1.34,1.23-2.09,1.24-3.59.39a6.92,6.92,0,0,0-7.26.34,1,1,0,0,1-1.44-.1,7.51,7.51,0,0,0-8.25-1.57c-2.82,1.1-4.39,3.46-4.73,7.13a9.36,9.36,0,0,1-2.19-5.46c.27-2.65.53-5.3.8-8l0,0c.4-.18.31-.54.31-.87v0l.12-.05a1.41,1.41,0,0,0-.06-.22,18,18,0,0,1,7.25-8.57c6-3.9,12.42-6.4,19.64-6.42a9.43,9.43,0,0,1,6.52,2.2c.09,1.06.79,1.88,1.13,2.86A40.18,40.18,0,0,1,681.73,812.05Z"/><path class="cls-4" d="M594.87,804.94a27.11,27.11,0,0,1,2.91-11.09c2.46-4.53,6.42-6.52,11.43-6.35s9.75,1.86,14.29,4a7.75,7.75,0,0,1,1,.73c.57,1.57,1.21,3.13,1.7,4.73a26.69,26.69,0,0,1,.55,13.31,7.94,7.94,0,0,0-6.16,2.91c-.32.39-.5.5-1,.16a7.51,7.51,0,0,0-8.95-.33c-.68.41-.91,0-1.29-.35a7.71,7.71,0,0,0-10-.44,7.85,7.85,0,0,0-2.73,4.29,6.74,6.74,0,0,1-1.56-3.37c0-1.87,0-3.74,0-5.61C595.07,806.66,595.37,805.76,594.87,804.94Z"/><path class="cls-5" d="M673.28,751.22c-.37,1.48-1.52,2.47-2.46,3.53a57.39,57.39,0,0,1-19,14.42,29.43,29.43,0,0,1-11.33,3.17c-4.15.14-8-1.26-11.66-2.94a57.71,57.71,0,0,1-18.3-13.22,20.43,20.43,0,0,1-3.88-5c1.12.16,2.22.37,3.34.48.66.06,1,.52,1.39.88a67.73,67.73,0,0,0,16.47,10.85c7.7,3.61,15.26,3.22,22.9-.17a67.83,67.83,0,0,0,17.1-10.88,2.08,2.08,0,0,1,1.22-.64C670.5,751.58,671.89,751.39,673.28,751.22Z"/><path class="cls-5" d="M626.78,810.26a26.69,26.69,0,0,0-.55-13.31c-.49-1.6-1.13-3.16-1.7-4.73a11.73,11.73,0,0,1,4.19,2.49c6,4.65,8.53,10.72,7.13,18.27a7.29,7.29,0,0,1-1.65,3.58C633.14,812.71,630.69,810.6,626.78,810.26Z"/><path class="cls-5" d="M692.51,786.24c12.35-1.1,22.21-7.14,30.91-15.51a48.18,48.18,0,0,0,8.69-10.36,37.53,37.53,0,0,0,2.31-5c1-.34.94-1.33,1.37-2a29.83,29.83,0,0,1,1.69-3.08v0c-.89,5.33-2.66,10.25-6.48,14.27-1.58,1.67-3,3.51-4.62,5.13-7.28,7.27-15.29,13.41-25.55,15.86-2.36.56-4.78.87-7.19,1.21C693.33,786.81,692.44,787.32,692.51,786.24Z"/><path class="cls-5" d="M681.73,812.05a40.18,40.18,0,0,0-1.66-18.18c-.34-1-1-1.8-1.13-2.86,2.4,1.36,3.66,3.63,4.64,6a28.9,28.9,0,0,1,2.08,10.73,9.4,9.4,0,0,0,0,4.77,9.25,9.25,0,0,1-1.35,4.39A9.63,9.63,0,0,0,681.73,812.05Z"/><path class="cls-6" d="M665,821.75c-.88,0-1.73,0-2.57-.13-2-.22-2.83-1.34-2.45-3.28a5.21,5.21,0,0,1,5.21-4.07,5.11,5.11,0,0,1,4.91,4.56,2.18,2.18,0,0,1-1.77,2.6A21.19,21.19,0,0,1,665,821.75Z"/><path class="cls-7" d="M684.83,793.42A57.37,57.37,0,0,0,698,761a61.4,61.4,0,0,0-1.5-18.63c-.07-.31-.12-.56-.52-.44a16,16,0,0,0,.26-3.56,38,38,0,0,1,1.9,6.89,46.12,46.12,0,0,1,1.11,11,58.8,58.8,0,0,1-4.4,22.5,62.78,62.78,0,0,1-8.89,15C685.15,794.71,685,794.07,684.83,793.42Z"/><path class="cls-7" d="M716,720.57c-1.17.23-1,.91-.51,1.63,2,3.31,4,6.6,5.91,9.94a28.71,28.71,0,0,1,4,11.64,21,21,0,0,1-4.49,15l-1.18.16c.32-1.76,1.39-3.13,1.93-4.71,1.21-3.5,2.36-7,2.28-10.79-.08-3.53-1.38-6.63-2.83-9.76-1.7-3.68-4.23-6.86-6.07-10.45a4.74,4.74,0,0,1-.47-2.45c0-.38,0-.84.42-.95A.77.77,0,0,1,716,720.57Z"/><path class="cls-8" d="M607.57,821a14,14,0,0,1-7-1.53c-1.44-.69-1.73-1.63-1.17-3.15a5.15,5.15,0,0,1,8.49-1.56.9.9,0,0,1,.11,1.22A6.58,6.58,0,0,0,607.57,821Z"/><path class="cls-8" d="M657.65,821.07a13.91,13.91,0,0,1-7.52-1.92,1.71,1.71,0,0,1-.8-2.06,4.79,4.79,0,0,1,3.72-3.76,5.11,5.11,0,0,1,4.9,1.4c.49.41.4.79.14,1.33A6.75,6.75,0,0,0,657.65,821.07Z"/><path class="cls-9" d="M625.36,813.11a4.85,4.85,0,0,1,6.08,3.51,1.89,1.89,0,0,1-1,2.39,14.92,14.92,0,0,1-6.89,1.8c-.71,0-1.18-.18-1.06-1.06a7.71,7.71,0,0,0-.23-2.66A5.88,5.88,0,0,0,625.36,813.11Z"/><path class="cls-10" d="M619.91,818.26l0,.51a33.27,33.27,0,0,1-9.51,2c-1-1.08-.62-2.28-.19-3.41a5.07,5.07,0,0,1,5.07-3.08,4.89,4.89,0,0,1,4.46,3.65A.23.23,0,0,0,619.91,818.26Z"/><path class="cls-8" d="M672.87,820.57c-.66-.75-.08-1.64-.28-2.47-.64-2.66-.39-3.31,1.26-4.36a5,5,0,0,1,5.91.17,9.15,9.15,0,0,1,.85.91C678.9,817.91,676.07,819.49,672.87,820.57Z"/><path class="cls-7" d="M582.58,761.88a57.47,57.47,0,0,0,11.65,29.8c.33.43.56,1,1.18,1.14-.45,1-.76,1.11-1.54.1a59.81,59.81,0,0,1-9.37-17.24,50.71,50.71,0,0,1-2.71-11.88,13.18,13.18,0,0,1-.2-3.33C582.16,760.81,581.8,761.75,582.58,761.88Z"/><path class="cls-9" d="M672.87,820.57c3.2-1.08,6-2.66,7.74-5.75,1.74,2.47,1.35,3.88-1.5,4.85C677.11,820.35,675.09,821.26,672.87,820.57Z"/><path class="cls-9" d="M610.42,820.77a33.27,33.27,0,0,0,9.51-2c.11,2-.46,2.57-2.76,2.82a6.75,6.75,0,0,0-3.93,0A3.41,3.41,0,0,1,610.42,820.77Z"/><path class="cls-11" d="M625.36,813.11a5.88,5.88,0,0,1-3.05,4c-.86-1.21,0-2,.73-2.78A3.8,3.8,0,0,1,625.36,813.11Z"/><path class="cls-12" d="M638.32,813.7c0,.61.42.63.86.63h2.67c.11.34.43.9,0,.95a13.76,13.76,0,0,1-3.57,0C638,815.23,638,814.23,638.32,813.7Zm2.86,1.08,0-.13h-2.5v.13Z"/><path class="cls-13" d="M594.87,804.94c.5.82.2,1.72.23,2.58.06,1.87,0,3.74,0,5.61C594.36,810.42,594.69,807.68,594.87,804.94Z"/><path class="cls-13" d="M645.19,804.89c-.27,2.66-.53,5.31-.8,8A15,15,0,0,1,645.19,804.89Z"/><path class="cls-13" d="M697,675.83c-.08-.2-.25-.41-.24-.62a14.48,14.48,0,0,0-.83-6C697.44,671.24,697.27,673.53,697,675.83Z"/><path class="cls-14" d="M602.18,750.05c-1.36.52-2.78.15-4.16.23s-2.49,0-3.73,0v-.35h4.34Z"/><path class="cls-14" d="M586.46,730.94a3,3,0,0,1-.05,3.49Z"/><path class="cls-14" d="M641.58,812.49c-.07.13-.27.39-.27.3a23.63,23.63,0,0,1,.06-4.45h.13a.87.87,0,0,1,.11.09Z"/><path class="cls-14" d="M606.82,784.91l-.09-.24a16.11,16.11,0,0,1,4.22,0,.23.23,0,0,1,0,.12c0,.05-.05.08-.08.12Z"/><path class="cls-15" d="M685.65,812.55a9.4,9.4,0,0,1,0-4.77C685.66,809.37,685.65,811,685.65,812.55Z"/><path class="cls-14" d="M584.86,686.43a1.22,1.22,0,0,1,.28-.37,20.43,20.43,0,0,1,0,4.21H585l-.11-.08Z"/><path class="cls-14" d="M586.38,735.59a9.67,9.67,0,0,1,0,4.78Z"/><path class="cls-14" d="M638.92,807.87l.16-.63c0,1.46.57,2.93-.16,4.34a1,1,0,0,1,0-.16.32.32,0,0,1,0-.09c0-.28,0-.56.05-.83Z"/><path class="cls-16" d="M613.24,821.6a6.75,6.75,0,0,1,3.93,0A19.12,19.12,0,0,1,613.24,821.6Z"/><path class="cls-14" d="M586.4,741c1,.4.32,1.23.49,1.85-.43-.22-.18-.79-.53-1C586.37,741.49,586.38,741.23,586.4,741Z"/><path class="cls-13" d="M645.48,804.05c0,.33.09.69-.31.87A1.05,1.05,0,0,1,645.48,804.05Z"/><path class="cls-7" d="M582.4,760.45a1.07,1.07,0,0,1,.14.87A1,1,0,0,1,582.4,760.45Z"/><path class="cls-3" d="M737.48,750.28l.11-.37.11.07-.21.32Z"/><path class="cls-17" d="M639,810.5c0,.27,0,.55-.05.83A.64.64,0,0,1,639,810.5Z"/><path class="cls-13" d="M645.53,803.8a1.41,1.41,0,0,1,.06.22l-.12.05A.42.42,0,0,1,645.53,803.8Z"/><path class="cls-9" d="M619.91,818.26a.23.23,0,0,1-.15-.33Z"/><path class="cls-14" d="M678.42,747.23l-.63-.14c2.45,0,4.89-.5,7.32.06Z"/><path class="cls-14" d="M594.85,747.14c2.32-.53,4.67-.13,7-.19,0,0-.19.21-.33.29Z"/><path class="cls-2" d="M686.24,749.7l-1.11,0A.68.68,0,0,1,686.24,749.7Z"/><path class="cls-2" d="M628.56,716.32v.58l-.06.51c-1.33,4.19-3.74,7.5-7.9,9.2a13.47,13.47,0,1,1-8.15-25.55,13.36,13.36,0,0,1,16.1,10.87,2.45,2.45,0,0,0,.2.51A12.63,12.63,0,0,1,628.56,716.32Zm-13.28,8.79a10.91,10.91,0,0,0,11-10.89,11,11,0,0,0-11-10.92,10.88,10.88,0,0,0-10.88,10.93A10.76,10.76,0,0,0,615.28,725.11Z"/><path class="cls-2" d="M678.65,714.24a13.46,13.46,0,1,1-13.42-13.49A13.35,13.35,0,0,1,678.65,714.24Zm-13.56,10.88a10.91,10.91,0,0,0,.21-21.82,10.91,10.91,0,1,0-.21,21.82Z"/><path class="cls-2" d="M630,686.49a6.15,6.15,0,0,1-.88,3.1,10.82,10.82,0,0,1-10.22,6.12,8.16,8.16,0,0,1-7.71-5,26.62,26.62,0,0,1-1.74-7.39,45.59,45.59,0,0,1,.72-15.58c1-3.86,3.06-4.75,6.11-2.31a38.56,38.56,0,0,1,13.46,19.4A11.47,11.47,0,0,1,630,686.49Zm-17-19.11a7.83,7.83,0,0,0-.34.92,42.81,42.81,0,0,0,.26,19.53c.89,3.5,2.4,4.73,5.94,5.13,2.2.25,5.88-1.13,6.56-2.92a3.28,3.28,0,0,0,.56-.39c1.7-1.84,1.58-3.9.74-6a41.14,41.14,0,0,0-7.11-11.45,23.49,23.49,0,0,0-5.35-5C613.83,666.88,613.26,666.37,613,667.38Z"/><path class="cls-2" d="M671.3,678.2a43.83,43.83,0,0,1-1.14,10c-1,4.43-3.77,6.77-8.18,7.33-5.75.74-13.78-5.27-10.78-12.58a44.08,44.08,0,0,1,12.68-17.38,5.52,5.52,0,0,1,.47-.32c3-2,4.8-1.42,5.86,2.11A36.67,36.67,0,0,1,671.3,678.2Zm-2.59-.84a33,33,0,0,0-.87-9c-.45-1.89-.74-2-2.35-.8l-.23.17a41.65,41.65,0,0,0-11.56,15.89c-1.18,2.81-.39,5.08,1.73,7.08,4.39,4.14,10.68,2.45,12.25-3.34A34.57,34.57,0,0,0,668.71,677.36Z"/><path class="cls-2" d="M646.68,739.42c.08,3.61-1.39,5.6-4.64,6.5a6.9,6.9,0,0,1-7.63-2.92c-1-1.71-.77-3.56-.46-5.36a29.64,29.64,0,0,1,3.49-9.9,8,8,0,0,1,1-1.37c1.23-1.37,2.34-1.4,3.61-.09a15.64,15.64,0,0,1,3.14,5.93A21.78,21.78,0,0,1,646.68,739.42Zm-6.38-11.25c-2.18,2.85-4.18,9.16-3.93,12.31.14,1.91,1.68,3.09,4,3,2.14,0,3.64-1.33,3.72-3.17a14.79,14.79,0,0,0-.61-4.73A22.7,22.7,0,0,0,640.3,728.17Z"/><path class="cls-18" d="M642.65,751.74a5.51,5.51,0,0,1,3.7-5.23,2.6,2.6,0,0,1,3.38,2.06,5.7,5.7,0,0,1-2.49,5.6,3,3,0,0,1-3.18.33A2.74,2.74,0,0,1,642.65,751.74Z"/><path class="cls-18" d="M637.85,751.64a3,3,0,0,1-1.44,2.86,2.92,2.92,0,0,1-3.07-.26,5.58,5.58,0,0,1-2.56-5.8,2.58,2.58,0,0,1,3.6-1.84A5.68,5.68,0,0,1,637.85,751.64Z"/><path class="cls-14" d="M628.56,716.32a12.63,12.63,0,0,0,.18-3.88c.76.95.16,2,.33,3.06C629.13,715.88,629.06,716.25,628.56,716.32Z"/><path class="cls-14" d="M628.49,717.41l.06-.51a.42.42,0,0,1,.2.54C628.68,717.63,628.57,717.5,628.49,717.41Z"/><path class="cls-2" d="M641.18,814.78H638.7v-.13h2.5Z"/><path class="cls-10" d="M615.28,725.11a10.76,10.76,0,0,1-10.89-10.88,10.88,10.88,0,0,1,10.88-10.93,11,11,0,0,1,11,10.92A10.91,10.91,0,0,1,615.28,725.11Zm-1-8.67a4,4,0,1,0,8,0,4,4,0,1,0-8,0Z"/><path class="cls-10" d="M665.09,725.12a10.91,10.91,0,1,1,11-10.64A10.87,10.87,0,0,1,665.09,725.12Zm-2.61-12.77a4,4,0,0,0-4,4,4,4,0,1,0,8,0A4,4,0,0,0,662.48,712.35Z"/><path class="cls-10" d="M625.43,690c-.68,1.79-4.36,3.17-6.56,2.92-3.54-.4-5-1.63-5.94-5.13a42.81,42.81,0,0,1-.26-19.53,7.83,7.83,0,0,1,.34-.92A11.56,11.56,0,0,1,615.1,669a40.16,40.16,0,0,1,7.4,10.58C624.15,682.89,625.75,686.2,625.43,690Z"/><path class="cls-9" d="M625.43,690c.32-3.84-1.28-7.15-2.93-10.42A40.16,40.16,0,0,0,615.1,669a11.56,11.56,0,0,0-2.09-1.66c.25-1,.82-.5,1.26-.22a23.49,23.49,0,0,1,5.35,5,41.14,41.14,0,0,1,7.11,11.45c.84,2.15,1,4.21-.74,6A3.28,3.28,0,0,1,625.43,690Z"/><path class="cls-10" d="M668.71,677.36a34.57,34.57,0,0,1-1,10c-1.57,5.79-7.86,7.48-12.25,3.34-2.12-2-2.91-4.27-1.73-7.08a41.65,41.65,0,0,1,11.56-15.89l.23-.17c1.61-1.17,1.9-1.09,2.35.8A33,33,0,0,1,668.71,677.36Z"/><path class="cls-11" d="M640.3,728.17a22.7,22.7,0,0,1,3.15,7.46,14.79,14.79,0,0,1,.61,4.73c-.08,1.84-1.58,3.14-3.72,3.17-2.29,0-3.83-1.14-4-3C636.12,737.33,638.12,731,640.3,728.17Z"/><path class="cls-2" d="M614.3,716.44a4,4,0,1,1,8,0,4,4,0,1,1-8,0Z"/><path class="cls-2" d="M662.48,712.35a4,4,0,0,1,4,4,4,4,0,1,1-8,0A4,4,0,0,1,662.48,712.35Z"/></g></svg>