<svg xmlns="http://www.w3.org/2000/svg" viewBox="0 0 595.28 841.89"><defs><style>.cls-1{fill:none;stroke-width:10px;}.cls-1,.cls-2{stroke:#231f20;stroke-miterlimit:10;}.cls-2{fill:#f8981d;stroke-width:0.9px;}</style></defs><g id="Layer_17" data-name="Layer 17"><rect class="cls-1" x="55.32" y="49.05" width="483.26" height="743.72"/><path class="cls-2" d="M165.07,46.92c-1.62.12-3.24.25-4.87.36a9.06,9.06,0,0,1-3.88-.63,1.46,1.46,0,0,1-1-1c-.11-.51-.44-.6-.88-.43-.75.28-1.49.6-2.26.83a14,14,0,0,1-2.29.49c-.61.08-1-.29-.8-.88a13.68,13.68,0,0,1,.83-2.24c.32-.69.76-1.33,1.1-2a4.64,4.64,0,0,0,.21-1,10.83,10.83,0,0,0-1.15.18,1.36,1.36,0,0,1-1.65-1.85c.34-.93.78-1.83,1.15-2.76.27-.69.07-.95-.68-.9-.35,0-.71.11-1.06.11a1,1,0,0,1-1.09-.9,4.76,4.76,0,0,1,.27-2.79c.13-.38.28-.77.42-1.15s0-.61-.44-.64c-1-.07-1.09-.06-1.25-1.1-.25-1.64-.36-3.3-.62-4.94-.31-2,.17-3.86.31-5.79,0-.34,0-.68,0-1.14a2.59,2.59,0,0,0-.52.36,24.31,24.31,0,0,1-5.41,4.54c-1.06.68-2,1.6-3,2.37s-1.85,1.36-2.79,2a4.89,4.89,0,0,1-1.08.58,1.29,1.29,0,0,1-1.58-.43,9.43,9.43,0,0,0-.66-.71c-.19.37-.36.67-.51,1a18,18,0,0,1-1,2.08,3.55,3.55,0,0,1-1.17,1.11c-.71.43-1.09.31-1.59-.38a9.52,9.52,0,0,1-.52-.87l-.47-.83c-.32.82-.62,1.5-.86,2.2a14.54,14.54,0,0,1-2,4.28c-.89,1.18-1.47,1.29-2.54.26-1.22-1.18-2.35-2.45-3.52-3.69-.15-.15-.29-.31-.42-.46l-.08,0c-.89.86-1,.88-2.12.36a4.81,4.81,0,0,1-.87-.53c-.84-.61-1.68-1.22-2.5-1.85s-1.62-1.29-2.44-1.95L106.42,28a.54.54,0,0,0,0,.31c.06,1.25.14,2.5.19,3.75.06,1.59.09,3.18.12,4.77,0,.5-.09.93-.77.91-.08,0-.29.35-.26.5.14.66.39,1.3.52,2a9.09,9.09,0,0,1,.19,1.8.88.88,0,0,1-1,1c-.65,0-1.31-.07-2.05-.11a4.1,4.1,0,0,0,.23.67c.47.86,1,1.69,1.44,2.57a6.09,6.09,0,0,1,.54,1.87,1,1,0,0,1-.88,1.12c-2.08.42-4.16.81-6.25,1.2-.54.1-1.1.13-1.64.24a.63.63,0,0,0-.42.39.64.64,0,0,0,.26.5c.59.4,1.21.76,1.81,1.15a26.4,26.4,0,0,1,4.33,3.85c.63.64.54,1-.26,1.51l-.42.26a9.1,9.1,0,0,0,1.26.74c.56.24,1.16.37,1.72.59a3.26,3.26,0,0,1,.84.46c.56.41.51.77-.12,1.07l-.71.33a3.89,3.89,0,0,0,.66.64,5,5,0,0,0,2.93.64,3.26,3.26,0,0,1,1.29.25,17.93,17.93,0,0,0,5,1.23c.85,0,1.71-.11,2.56-.14.59,0,1.18,0,1.76,0s1.36,0,2,0c1.09,0,2.14.1,2.78,1.22a1.11,1.11,0,0,1,.08,1.24c-.2.34-.36.7-.58,1a24.63,24.63,0,0,0-3.1,6.68,2.6,2.6,0,0,1-1.16,1.67c-.18.1-.23.6-.18.89s.34.32.56.41c.06,0,.27-.15.33-.27a10.79,10.79,0,0,0,.84-2.11,15,15,0,0,1,1.66-4.39c.62-1.11,1.28-2.2,2-3.27.53-.83,1-.91,1.91-.63,2.57.78,4.09,2.72,5.41,4.87.81,1.33,1.57,2.69,2.35,4a1.51,1.51,0,0,0,1.16.73,3.41,3.41,0,0,1,1.49.62c.91.72,1.74,1.55,2.6,2.33a3.74,3.74,0,0,0,.62.51c.13.07.44.08.48,0,.33-.62.9-.4,1.33-.3a8.35,8.35,0,0,1,1.83.71c.67.33,1.29.76,2,1.1a6.86,6.86,0,0,0,1.2.31l-.21-1c-.21-.84-.48-1.68-.61-2.54s.16-1,.89-1.11a17.27,17.27,0,0,1,2,.06,5.29,5.29,0,0,0,.8,0c.34,0,.6-.23.45-.61-.21-.56.08-.78.54-.88,1.27-.26,2.55-.51,3.83-.75.7-.13,1.41-.23,2.12-.32.52-.07.56-.52.67-.86a.72.72,0,0,0-.18-.64,16,16,0,0,1-3.58-4.71,3.16,3.16,0,0,1-.33-2.08,1.33,1.33,0,0,1,.42-.72,7,7,0,0,1,1.27-1,3.28,3.28,0,0,0,1.59-2.71,1.48,1.48,0,0,1,.76-1.2c.54-.32,1.08-.63,1.61-1a.52.52,0,0,0,.18-.84,2.9,2.9,0,0,1-.32-1.07c-.16-.73-.07-.74.55-1.14a3.22,3.22,0,0,0,.92-1.14c.73-1.37,1.37-2.8,2.13-4.14.66-1.15,1.43-2.22,2.16-3.32.18-.27.37-.53.56-.79Z"/><path class="cls-2" d="M332,46.92l-4.86.36a9.1,9.1,0,0,1-3.89-.63,1.43,1.43,0,0,1-1-1c-.12-.51-.45-.6-.89-.43-.75.28-1.49.6-2.26.83a14,14,0,0,1-2.29.49c-.6.08-.95-.29-.8-.88a13.68,13.68,0,0,1,.83-2.24c.32-.69.76-1.33,1.1-2a4.64,4.64,0,0,0,.21-1c-.46.07-.81.09-1.15.18a1.36,1.36,0,0,1-1.65-1.85c.34-.93.78-1.83,1.15-2.76.27-.69.07-.95-.68-.9-.35,0-.7.11-1.06.11a1,1,0,0,1-1.09-.9,4.76,4.76,0,0,1,.27-2.79c.13-.38.28-.77.42-1.15s0-.61-.44-.64c-1-.07-1.09-.06-1.25-1.1-.25-1.64-.36-3.3-.62-4.94-.31-2,.17-3.86.31-5.79,0-.34,0-.68,0-1.14a2.59,2.59,0,0,0-.52.36,24.31,24.31,0,0,1-5.41,4.54c-1.05.68-2,1.6-3,2.37s-1.85,1.36-2.79,2a4.89,4.89,0,0,1-1.08.58,1.29,1.29,0,0,1-1.58-.43c-.17-.22-.38-.42-.65-.71-.2.37-.37.67-.52,1a16.49,16.49,0,0,1-1,2.08,3.55,3.55,0,0,1-1.17,1.11c-.71.43-1.09.31-1.59-.38-.19-.27-.35-.58-.52-.87l-.47-.83c-.32.82-.62,1.5-.86,2.2a14.54,14.54,0,0,1-2,4.28c-.89,1.18-1.47,1.29-2.54.26-1.22-1.18-2.35-2.45-3.52-3.69-.15-.15-.29-.31-.42-.46l-.08,0c-.88.86-1,.88-2.12.36a4.81,4.81,0,0,1-.87-.53c-.84-.61-1.68-1.22-2.5-1.85s-1.62-1.29-2.44-1.95L273.34,28a.54.54,0,0,0,0,.31c.06,1.25.14,2.5.19,3.75.06,1.59.09,3.18.12,4.77,0,.5-.09.93-.77.91-.08,0-.29.35-.26.5.14.66.39,1.3.52,2a9.09,9.09,0,0,1,.19,1.8.88.88,0,0,1-1,1c-.65,0-1.31-.07-2.05-.11a5.34,5.34,0,0,0,.23.67c.47.86,1,1.69,1.44,2.57a6.39,6.39,0,0,1,.55,1.87,1,1,0,0,1-.89,1.12c-2.08.42-4.16.81-6.25,1.2-.54.1-1.1.13-1.64.24a.63.63,0,0,0-.42.39.64.64,0,0,0,.26.5c.59.4,1.21.76,1.81,1.15a26.4,26.4,0,0,1,4.33,3.85c.63.64.54,1-.25,1.51-.1.05-.18.11-.43.26a9.72,9.72,0,0,0,1.26.74c.56.24,1.16.37,1.72.59a3.26,3.26,0,0,1,.84.46c.56.41.51.77-.12,1.07l-.7.33a3.53,3.53,0,0,0,.65.64,5,5,0,0,0,2.93.64,3.34,3.34,0,0,1,1.3.25,17.75,17.75,0,0,0,5,1.23c.84,0,1.7-.11,2.55-.14.59,0,1.18,0,1.77,0l2,0c1.09,0,2.14.1,2.78,1.22a1.11,1.11,0,0,1,.08,1.24c-.19.34-.36.7-.58,1a24.63,24.63,0,0,0-3.1,6.68,2.6,2.6,0,0,1-1.16,1.67c-.18.1-.22.6-.18.89s.34.32.56.41c.06,0,.27-.15.33-.27a10.79,10.79,0,0,0,.84-2.11,15,15,0,0,1,1.66-4.39c.62-1.11,1.28-2.2,2-3.27.53-.83,1-.91,1.91-.63,2.58.78,4.09,2.72,5.41,4.87.81,1.33,1.57,2.69,2.35,4a1.51,1.51,0,0,0,1.16.73,3.41,3.41,0,0,1,1.49.62c.91.72,1.74,1.55,2.6,2.33a3.74,3.74,0,0,0,.62.51c.13.07.44.08.48,0,.34-.62.9-.4,1.33-.3a8.35,8.35,0,0,1,1.83.71c.67.33,1.29.76,2,1.1a6.86,6.86,0,0,0,1.2.31l-.21-1c-.21-.84-.48-1.68-.61-2.54s.16-1,.89-1.11a17.27,17.27,0,0,1,2,.06,5.36,5.36,0,0,0,.8,0c.34,0,.6-.23.46-.61-.22-.56.07-.78.53-.88,1.27-.26,2.55-.51,3.83-.75.7-.13,1.41-.23,2.12-.32.52-.07.56-.52.67-.86a.72.72,0,0,0-.18-.64,16,16,0,0,1-3.58-4.71,3.16,3.16,0,0,1-.33-2.08,1.33,1.33,0,0,1,.42-.72,6.74,6.74,0,0,1,1.28-1,3.29,3.29,0,0,0,1.58-2.71,1.47,1.47,0,0,1,.77-1.2c.53-.32,1.07-.63,1.6-1a.52.52,0,0,0,.18-.84,2.9,2.9,0,0,1-.32-1.07c-.16-.73-.07-.74.55-1.14a3.22,3.22,0,0,0,.92-1.14c.74-1.37,1.37-2.8,2.14-4.14.65-1.15,1.42-2.22,2.15-3.32.18-.27.37-.53.56-.79Z"/><path class="cls-2" d="M492,46.92l-4.86.36a9,9,0,0,1-3.88-.63,1.43,1.43,0,0,1-1-1c-.12-.51-.44-.6-.89-.43-.75.28-1.49.6-2.25.83a14,14,0,0,1-2.29.49c-.61.08-1-.29-.8-.88a12.82,12.82,0,0,1,.83-2.24c.32-.69.76-1.33,1.09-2a4.58,4.58,0,0,0,.22-1,10.83,10.83,0,0,0-1.15.18,1.36,1.36,0,0,1-1.66-1.85c.34-.93.78-1.83,1.15-2.76.28-.69.08-.95-.67-.9-.36,0-.71.11-1.06.11a1,1,0,0,1-1.09-.9,4.76,4.76,0,0,1,.26-2.79c.14-.38.29-.77.42-1.15s0-.61-.43-.64c-1-.07-1.1-.06-1.25-1.1-.25-1.64-.37-3.3-.62-4.94-.31-2,.16-3.86.3-5.79,0-.34,0-.68,0-1.14a2.59,2.59,0,0,0-.52.36,24.31,24.31,0,0,1-5.41,4.54c-1.06.68-2,1.6-3,2.37s-1.84,1.36-2.78,2a5.12,5.12,0,0,1-1.08.58,1.29,1.29,0,0,1-1.58-.43c-.18-.22-.39-.42-.66-.71-.19.37-.37.67-.51,1a19.84,19.84,0,0,1-1,2.08,3.49,3.49,0,0,1-1.18,1.11c-.71.43-1.08.31-1.58-.38a9.52,9.52,0,0,1-.52-.87l-.48-.83c-.32.82-.62,1.5-.85,2.2a14.82,14.82,0,0,1-2,4.28c-.88,1.18-1.47,1.29-2.53.26-1.22-1.18-2.36-2.45-3.53-3.69l-.41-.46-.08,0c-.89.86-1,.88-2.13.36a5.62,5.62,0,0,1-.87-.53c-.84-.61-1.68-1.22-2.5-1.85s-1.61-1.29-2.43-1.95c-.45.6-.93,1.23-1.39,1.87a.63.63,0,0,0,0,.31c.06,1.25.15,2.5.2,3.75q.08,2.39.12,4.77c0,.5-.09.93-.77.91-.09,0-.29.35-.26.5.14.66.38,1.3.52,2a9.09,9.09,0,0,1,.19,1.8.88.88,0,0,1-1,1c-.66,0-1.31-.07-2.05-.11a3.33,3.33,0,0,0,.23.67c.47.86,1,1.69,1.43,2.57a6.1,6.1,0,0,1,.55,1.87,1,1,0,0,1-.89,1.12c-2.07.42-4.16.81-6.24,1.2-.55.1-1.1.13-1.64.24a.47.47,0,0,0-.16.89c.59.4,1.21.76,1.81,1.15a26.4,26.4,0,0,1,4.33,3.85c.63.64.54,1-.26,1.51l-.43.26a9.78,9.78,0,0,0,1.27.74c.55.24,1.15.37,1.72.59a3.63,3.63,0,0,1,.84.46c.55.41.5.77-.12,1.07l-.71.33a3.87,3.87,0,0,0,.65.64,5,5,0,0,0,2.93.64,3.27,3.27,0,0,1,1.3.25,17.84,17.84,0,0,0,5,1.23c.85,0,1.7-.11,2.56-.14.58,0,1.17,0,1.76,0s1.36,0,2,0c1.1,0,2.15.1,2.79,1.22a1.12,1.12,0,0,1,.08,1.24c-.2.34-.36.7-.58,1a24.36,24.36,0,0,0-3.11,6.68,2.53,2.53,0,0,1-1.16,1.67c-.18.1-.22.6-.17.89s.34.32.55.41c.06,0,.28-.15.33-.27a10.83,10.83,0,0,0,.85-2.11,14.75,14.75,0,0,1,1.66-4.39c.61-1.11,1.27-2.2,2-3.27.53-.83,1-.91,1.91-.63,2.57.78,4.09,2.72,5.4,4.87.82,1.33,1.57,2.69,2.35,4a1.53,1.53,0,0,0,1.17.73,3.46,3.46,0,0,1,1.49.62c.91.72,1.73,1.55,2.6,2.33a3.37,3.37,0,0,0,.62.51c.13.07.44.08.47,0,.34-.62.91-.4,1.34-.3a8.09,8.09,0,0,1,1.82.71c.68.33,1.3.76,2,1.1a6.63,6.63,0,0,0,1.2.31c-.1-.44-.15-.73-.22-1-.2-.84-.48-1.68-.61-2.54s.17-1,.9-1.11a17,17,0,0,1,2,.06,5.43,5.43,0,0,0,.8,0c.35,0,.61-.23.46-.61-.22-.56.08-.78.53-.88q1.92-.39,3.84-.75c.7-.13,1.41-.23,2.11-.32.52-.07.56-.52.67-.86a.74.74,0,0,0-.17-.64,16,16,0,0,1-3.59-4.71,3.15,3.15,0,0,1-.32-2.08,1.26,1.26,0,0,1,.41-.72,7.44,7.44,0,0,1,1.28-1,3.28,3.28,0,0,0,1.59-2.71,1.46,1.46,0,0,1,.76-1.2c.54-.32,1.08-.63,1.6-1a.51.51,0,0,0,.18-.84,3.34,3.34,0,0,1-.32-1.07c-.16-.73-.06-.74.56-1.14a3.22,3.22,0,0,0,.92-1.14c.73-1.37,1.36-2.8,2.13-4.14.65-1.15,1.43-2.22,2.16-3.32.17-.27.37-.53.55-.79Z"/><path class="cls-2" d="M168.53,790.63c-1.63.13-3.25.26-4.87.36a9,9,0,0,1-3.88-.62,1.44,1.44,0,0,1-1-1c-.11-.51-.44-.6-.88-.43-.76.28-1.49.6-2.26.83a15.07,15.07,0,0,1-2.29.49c-.61.08-1-.29-.8-.88a12.82,12.82,0,0,1,.83-2.24c.32-.7.76-1.34,1.09-2a4,4,0,0,0,.22-1c-.47.07-.82.09-1.15.17a1.36,1.36,0,0,1-1.66-1.84c.34-.94.79-1.84,1.16-2.76.27-.69.07-1-.68-.9-.36,0-.71.11-1.06.11a1,1,0,0,1-1.09-.91,4.73,4.73,0,0,1,.26-2.78c.14-.39.29-.77.42-1.15s0-.61-.43-.64c-1-.07-1.09-.06-1.25-1.1-.25-1.64-.37-3.3-.62-4.94-.31-2,.17-3.87.31-5.79,0-.34,0-.68,0-1.14a3.1,3.1,0,0,0-.52.35,24,24,0,0,1-5.41,4.54c-1.06.69-2,1.6-3,2.38s-1.85,1.36-2.79,2a4.89,4.89,0,0,1-1.08.58,1.32,1.32,0,0,1-1.58-.43c-.18-.23-.39-.42-.66-.71-.19.37-.37.67-.51,1a18,18,0,0,1-1,2.08,3.49,3.49,0,0,1-1.18,1.11c-.71.43-1.08.3-1.58-.38a8.48,8.48,0,0,1-.52-.88l-.48-.82c-.32.81-.62,1.5-.85,2.2a14.56,14.56,0,0,1-2,4.28c-.88,1.17-1.46,1.29-2.53.26s-2.35-2.46-3.52-3.69c-.15-.15-.29-.31-.42-.46l-.08,0c-.89.85-1,.88-2.13.36a5.85,5.85,0,0,1-.86-.53c-.84-.61-1.68-1.22-2.51-1.85s-1.61-1.29-2.43-1.95c-.45.59-.92,1.23-1.39,1.87a.6.6,0,0,0,0,.31c.07,1.25.15,2.49.2,3.74.06,1.59.09,3.18.12,4.78,0,.49-.09.93-.77.91-.09,0-.29.34-.26.49.14.66.39,1.3.52,2a9,9,0,0,1,.19,1.79.89.89,0,0,1-1,1c-.66,0-1.31-.07-2-.11a4.1,4.1,0,0,0,.23.67c.47.86,1,1.69,1.43,2.57a5.84,5.84,0,0,1,.55,1.87,1,1,0,0,1-.89,1.11c-2.07.43-4.16.82-6.24,1.21-.54.1-1.1.13-1.64.24a.64.64,0,0,0-.42.38.66.66,0,0,0,.26.51c.59.4,1.21.76,1.81,1.15a26.4,26.4,0,0,1,4.33,3.85c.63.64.54,1-.26,1.5l-.42.27a10.22,10.22,0,0,0,1.26.74c.55.24,1.15.37,1.72.59a3.44,3.44,0,0,1,.84.46c.55.41.5.77-.12,1.07l-.71.32a3.61,3.61,0,0,0,.65.65,5.07,5.07,0,0,0,2.94.64,3.43,3.43,0,0,1,1.29.24,17.51,17.51,0,0,0,5,1.24c.85,0,1.7-.11,2.56-.14.58,0,1.17,0,1.76,0s1.36,0,2,0c1.1,0,2.15.1,2.79,1.22a1.12,1.12,0,0,1,.08,1.24c-.2.34-.36.7-.58,1a24.2,24.2,0,0,0-3.1,6.68,2.56,2.56,0,0,1-1.16,1.66c-.19.11-.23.6-.18.9s.34.32.55.41.28-.15.33-.27a10.67,10.67,0,0,0,.85-2.12,15,15,0,0,1,1.66-4.39c.62-1.1,1.28-2.19,2-3.26.53-.83,1-.91,1.91-.63,2.57.78,4.09,2.72,5.41,4.87.81,1.32,1.57,2.68,2.34,4a1.57,1.57,0,0,0,1.17.73,3.57,3.57,0,0,1,1.49.61c.91.73,1.74,1.56,2.6,2.34a3.67,3.67,0,0,0,.62.5c.13.08.44.09.48,0,.33-.62.9-.4,1.33-.31a8.89,8.89,0,0,1,1.83.71c.67.33,1.29.77,2,1.11a6.72,6.72,0,0,0,1.2.3c-.1-.44-.15-.72-.22-1-.2-.85-.47-1.68-.6-2.54s.16-1.05.89-1.11a17,17,0,0,1,2,.06,7.32,7.32,0,0,0,.81,0c.34,0,.6-.23.45-.61-.22-.56.08-.78.54-.88,1.27-.26,2.55-.52,3.83-.75.7-.13,1.41-.23,2.12-.32.51-.07.56-.52.67-.86a.78.78,0,0,0-.18-.64,16.11,16.11,0,0,1-3.59-4.72,3.2,3.2,0,0,1-.32-2.08,1.32,1.32,0,0,1,.41-.71,7.44,7.44,0,0,1,1.28-1,3.28,3.28,0,0,0,1.59-2.71,1.44,1.44,0,0,1,.76-1.2c.54-.32,1.08-.63,1.6-1a.52.52,0,0,0,.19-.84,3.18,3.18,0,0,1-.33-1.07c-.15-.73-.06-.75.56-1.15a3.05,3.05,0,0,0,.92-1.14c.73-1.36,1.37-2.79,2.13-4.14.65-1.14,1.43-2.21,2.16-3.32.17-.26.37-.52.56-.78Z"/><path class="cls-2" d="M335.45,790.63c-1.62.13-3.24.26-4.87.36a9,9,0,0,1-3.88-.62,1.46,1.46,0,0,1-1-1c-.11-.51-.44-.6-.88-.43-.75.28-1.49.6-2.26.83a15.07,15.07,0,0,1-2.29.49c-.61.08-.95-.29-.8-.88a12.82,12.82,0,0,1,.83-2.24c.32-.7.76-1.34,1.1-2a4.53,4.53,0,0,0,.21-1c-.47.07-.82.09-1.15.17a1.36,1.36,0,0,1-1.66-1.84c.34-.94.79-1.84,1.16-2.76.27-.69.07-1-.68-.9-.35,0-.71.11-1.06.11a1,1,0,0,1-1.09-.91,4.65,4.65,0,0,1,.27-2.78c.13-.39.28-.77.42-1.15s0-.61-.44-.64c-1-.07-1.09-.06-1.25-1.1-.25-1.64-.36-3.3-.62-4.94-.31-2,.17-3.87.31-5.79,0-.34,0-.68,0-1.14a3.1,3.1,0,0,0-.52.35,24,24,0,0,1-5.41,4.54c-1.06.69-2,1.6-3,2.38s-1.85,1.36-2.79,2a4.89,4.89,0,0,1-1.08.58,1.32,1.32,0,0,1-1.58-.43,9.6,9.6,0,0,0-.66-.71c-.19.37-.36.67-.51,1a18,18,0,0,1-1,2.08,3.49,3.49,0,0,1-1.18,1.11c-.7.43-1.08.3-1.58-.38a8.48,8.48,0,0,1-.52-.88l-.48-.82c-.31.81-.62,1.5-.85,2.2a14.54,14.54,0,0,1-2,4.28c-.89,1.17-1.47,1.29-2.54.26s-2.35-2.46-3.52-3.69c-.15-.15-.29-.31-.42-.46l-.08,0c-.89.85-1,.88-2.12.36a5.46,5.46,0,0,1-.87-.53c-.84-.61-1.68-1.22-2.5-1.85s-1.62-1.29-2.44-1.95c-.45.59-.92,1.23-1.39,1.87a.6.6,0,0,0,0,.31c.07,1.25.15,2.49.2,3.74.06,1.59.09,3.18.12,4.78,0,.49-.09.93-.77.91-.09,0-.29.34-.26.49.14.66.39,1.3.52,2a9,9,0,0,1,.19,1.79.89.89,0,0,1-1,1c-.65,0-1.31-.07-2-.11a4.1,4.1,0,0,0,.23.67c.47.86,1,1.69,1.43,2.57a5.84,5.84,0,0,1,.55,1.87,1,1,0,0,1-.88,1.11c-2.08.43-4.17.82-6.25,1.21-.54.1-1.1.13-1.64.24a.64.64,0,0,0-.42.38.66.66,0,0,0,.26.51c.59.4,1.21.76,1.81,1.15a26.4,26.4,0,0,1,4.33,3.85c.63.64.54,1-.26,1.5l-.42.27a10.22,10.22,0,0,0,1.26.74c.56.24,1.15.37,1.72.59a3.44,3.44,0,0,1,.84.46c.55.41.51.77-.12,1.07l-.71.32a3.61,3.61,0,0,0,.65.65,5.07,5.07,0,0,0,2.94.64,3.43,3.43,0,0,1,1.29.24,17.6,17.6,0,0,0,5,1.24c.85,0,1.71-.11,2.56-.14.59,0,1.17,0,1.76,0l2,0c1.09,0,2.14.1,2.78,1.22a1.11,1.11,0,0,1,.08,1.24c-.2.34-.36.7-.58,1a24.49,24.49,0,0,0-3.1,6.68,2.56,2.56,0,0,1-1.16,1.66c-.18.11-.23.6-.18.9s.34.32.56.41c.06,0,.27-.15.32-.27a10.1,10.1,0,0,0,.85-2.12,15.24,15.24,0,0,1,1.66-4.39c.62-1.1,1.28-2.19,2-3.26.53-.83,1-.91,1.91-.63,2.57.78,4.09,2.72,5.41,4.87.81,1.32,1.57,2.68,2.35,4a1.54,1.54,0,0,0,1.16.73,3.57,3.57,0,0,1,1.49.61c.91.73,1.74,1.56,2.6,2.34a3.67,3.67,0,0,0,.62.5c.13.08.44.09.48,0,.33-.62.9-.4,1.33-.31a8.89,8.89,0,0,1,1.83.71c.67.33,1.29.77,2,1.11a7,7,0,0,0,1.2.3c-.09-.44-.15-.72-.22-1-.2-.85-.47-1.68-.6-2.54s.16-1.05.89-1.11a17,17,0,0,1,2,.06,7.32,7.32,0,0,0,.81,0c.34,0,.6-.23.45-.61-.21-.56.08-.78.54-.88,1.27-.26,2.55-.52,3.83-.75.7-.13,1.41-.23,2.12-.32.51-.07.56-.52.67-.86a.78.78,0,0,0-.18-.64,15.9,15.9,0,0,1-3.58-4.72,3.14,3.14,0,0,1-.33-2.08A1.32,1.32,0,0,1,324,809a7.44,7.44,0,0,1,1.28-1,3.28,3.28,0,0,0,1.59-2.71,1.46,1.46,0,0,1,.76-1.2c.54-.32,1.08-.63,1.61-1a.52.52,0,0,0,.18-.84,3.18,3.18,0,0,1-.33-1.07c-.15-.73-.06-.75.56-1.15a3.05,3.05,0,0,0,.92-1.14c.73-1.36,1.37-2.79,2.13-4.14.65-1.14,1.43-2.21,2.16-3.32l.56-.78Z"/><path class="cls-2" d="M495.45,790.63c-1.62.13-3.24.26-4.86.36a9,9,0,0,1-3.88-.62,1.43,1.43,0,0,1-1-1c-.12-.51-.44-.6-.89-.43-.75.28-1.49.6-2.26.83a14.69,14.69,0,0,1-2.28.49c-.61.08-1-.29-.81-.88a12.86,12.86,0,0,1,.84-2.24c.32-.7.75-1.34,1.09-2a5.09,5.09,0,0,0,.22-1c-.47.07-.82.09-1.16.17a1.35,1.35,0,0,1-1.65-1.84c.34-.94.78-1.84,1.15-2.76.28-.69.07-1-.67-.9-.36,0-.71.11-1.06.11a1,1,0,0,1-1.1-.91,4.81,4.81,0,0,1,.27-2.78l.42-1.15c.15-.41,0-.61-.44-.64-1-.07-1.09-.06-1.25-1.1-.24-1.64-.36-3.3-.62-4.94-.3-2,.17-3.87.31-5.79,0-.34,0-.68,0-1.14a2.44,2.44,0,0,0-.52.35,24.27,24.27,0,0,1-5.41,4.54c-1.06.69-2,1.6-3,2.38s-1.84,1.36-2.78,2a5.12,5.12,0,0,1-1.08.58,1.33,1.33,0,0,1-1.59-.43,9.23,9.23,0,0,0-.65-.71c-.2.37-.37.67-.52,1a18,18,0,0,1-1,2.08,3.58,3.58,0,0,1-1.18,1.11c-.71.43-1.08.3-1.58-.38a8.48,8.48,0,0,1-.52-.88c-.14-.22-.27-.45-.48-.82-.32.81-.62,1.5-.85,2.2a14.82,14.82,0,0,1-2.05,4.28c-.88,1.17-1.47,1.29-2.53.26-1.23-1.18-2.36-2.46-3.53-3.69l-.42-.46-.08,0c-.88.85-1,.88-2.12.36a6.52,6.52,0,0,1-.87-.53c-.84-.61-1.68-1.22-2.5-1.85s-1.61-1.29-2.44-1.95c-.44.59-.92,1.23-1.38,1.87a.45.45,0,0,0,0,.31c.06,1.25.15,2.49.19,3.74.06,1.59.1,3.18.12,4.78,0,.49-.09.93-.76.91-.09,0-.3.34-.26.49.14.66.38,1.3.52,2a9.8,9.8,0,0,1,.19,1.79.9.9,0,0,1-1,1c-.66,0-1.32-.07-2.05-.11a3.33,3.33,0,0,0,.23.67c.47.86,1,1.69,1.43,2.57a6.1,6.1,0,0,1,.55,1.87,1,1,0,0,1-.89,1.11c-2.08.43-4.16.82-6.24,1.21-.55.1-1.11.13-1.65.24a.47.47,0,0,0-.15.89c.58.4,1.2.76,1.81,1.15a26.33,26.33,0,0,1,4.32,3.85c.64.64.54,1-.25,1.5l-.43.27a12,12,0,0,0,1.26.74c.56.24,1.16.37,1.73.59a3.63,3.63,0,0,1,.84.46c.55.41.5.77-.12,1.07l-.71.32a3.31,3.31,0,0,0,.65.65,5.06,5.06,0,0,0,2.93.64,3.44,3.44,0,0,1,1.3.24,17.51,17.51,0,0,0,5,1.24c.84,0,1.7-.11,2.55-.14.59,0,1.18,0,1.77,0l2,0c1.09,0,2.15.1,2.78,1.22a1.13,1.13,0,0,1,.09,1.24c-.2.34-.37.7-.58,1a24.22,24.22,0,0,0-3.11,6.68,2.52,2.52,0,0,1-1.16,1.66c-.18.11-.22.6-.18.9s.35.32.56.41.28-.15.33-.27a10.67,10.67,0,0,0,.85-2.12,14.94,14.94,0,0,1,1.65-4.39c.62-1.1,1.28-2.19,2-3.26.53-.83,1-.91,1.92-.63,2.57.78,4.08,2.72,5.4,4.87.81,1.32,1.57,2.68,2.35,4a1.54,1.54,0,0,0,1.17.73,3.57,3.57,0,0,1,1.49.61c.91.73,1.73,1.56,2.59,2.34a3.67,3.67,0,0,0,.62.5c.13.08.45.09.48,0,.34-.62.9-.4,1.33-.31a8.47,8.47,0,0,1,1.83.71c.67.33,1.29.77,2,1.11a7,7,0,0,0,1.2.3c-.09-.44-.14-.72-.21-1-.21-.85-.48-1.68-.61-2.54s.17-1.05.89-1.11a17.27,17.27,0,0,1,2,.06,7.26,7.26,0,0,0,.8,0c.35,0,.61-.23.46-.61-.22-.56.08-.78.53-.88,1.28-.26,2.55-.52,3.83-.75.71-.13,1.41-.23,2.12-.32.52-.07.56-.52.67-.86a.72.72,0,0,0-.18-.64,15.9,15.9,0,0,1-3.58-4.72,3.14,3.14,0,0,1-.33-2.08A1.34,1.34,0,0,1,484,809a7.07,7.07,0,0,1,1.28-1,3.25,3.25,0,0,0,1.58-2.71,1.45,1.45,0,0,1,.77-1.2c.54-.32,1.08-.63,1.6-1a.52.52,0,0,0,.18-.84,3.41,3.41,0,0,1-.32-1.07c-.16-.73-.06-.75.56-1.15a2.94,2.94,0,0,0,.91-1.14c.74-1.36,1.37-2.79,2.14-4.14.65-1.14,1.43-2.21,2.15-3.32l.56-.78Z"/><path class="cls-2" d="M89.67,157.07l-4.86.36a9,9,0,0,1-3.88-.63,1.4,1.4,0,0,1-1-1c-.12-.51-.44-.6-.89-.44-.75.28-1.49.61-2.25.83a14,14,0,0,1-2.29.49c-.61.08-1-.29-.8-.88a13.13,13.13,0,0,1,.83-2.24c.32-.69.76-1.33,1.09-2a4,4,0,0,0,.22-1c-.47.07-.82.1-1.15.18A1.36,1.36,0,0,1,73,148.82c.34-.94.78-1.84,1.15-2.77.28-.69.08-1-.67-.9-.36,0-.71.11-1.06.11a1,1,0,0,1-1.09-.9,4.76,4.76,0,0,1,.26-2.79c.14-.38.29-.76.42-1.15s0-.61-.43-.64c-1-.06-1.1-.06-1.25-1.1-.25-1.64-.37-3.3-.62-4.94-.31-2,.17-3.86.3-5.79,0-.34,0-.68,0-1.14a2.59,2.59,0,0,0-.52.36,24.31,24.31,0,0,1-5.41,4.54c-1.06.69-2,1.6-3,2.37s-1.84,1.36-2.78,2a5.12,5.12,0,0,1-1.08.58,1.29,1.29,0,0,1-1.58-.43c-.18-.22-.39-.42-.66-.71-.19.37-.37.67-.51,1a21.94,21.94,0,0,1-1,2.08,3.69,3.69,0,0,1-1.18,1.11c-.71.43-1.08.3-1.58-.39a9.52,9.52,0,0,1-.52-.87l-.48-.83c-.32.82-.62,1.5-.85,2.2a14.7,14.7,0,0,1-2.05,4.28c-.88,1.18-1.47,1.29-2.53.26-1.22-1.18-2.36-2.45-3.53-3.68l-.41-.46-.08,0c-.89.86-1,.89-2.13.36a5.1,5.1,0,0,1-.86-.53c-.85-.6-1.69-1.21-2.51-1.85s-1.61-1.29-2.43-1.95c-.45.6-.93,1.23-1.39,1.87a.63.63,0,0,0,0,.31c.07,1.25.15,2.5.2,3.75q.07,2.38.12,4.77c0,.5-.09.94-.77.91-.09,0-.29.35-.26.5.14.66.38,1.3.52,2a9.09,9.09,0,0,1,.19,1.8.89.89,0,0,1-1,1c-.66,0-1.31-.07-2.05-.12a3.8,3.8,0,0,0,.23.67c.47.86,1,1.69,1.43,2.58a6.13,6.13,0,0,1,.55,1.86,1,1,0,0,1-.89,1.12c-2.07.42-4.16.81-6.24,1.2-.54.1-1.1.13-1.64.25a.6.6,0,0,0-.42.38.61.61,0,0,0,.26.5c.59.41,1.21.77,1.81,1.15a26.87,26.87,0,0,1,4.33,3.85c.63.64.54,1-.26,1.51l-.43.26a11.27,11.27,0,0,0,1.27.75c.55.23,1.15.37,1.72.58a3.47,3.47,0,0,1,.84.47c.55.4.5.76-.12,1.06l-.71.33a4.41,4.41,0,0,0,.65.65,5.15,5.15,0,0,0,2.94.64,3.08,3.08,0,0,1,1.29.24,17.84,17.84,0,0,0,5,1.23c.85,0,1.7-.11,2.56-.14.58,0,1.17,0,1.76,0l2,0c1.1,0,2.15.11,2.79,1.22a1.14,1.14,0,0,1,.08,1.25c-.2.34-.36.7-.58,1a24.65,24.65,0,0,0-3.11,6.68A2.53,2.53,0,0,1,43.91,186c-.18.1-.22.6-.17.89s.34.32.55.42.28-.15.33-.28a10.59,10.59,0,0,0,.85-2.11,14.85,14.85,0,0,1,1.66-4.39c.61-1.11,1.27-2.19,2-3.26.53-.84,1-.92,1.91-.64,2.57.78,4.09,2.72,5.41,4.87.81,1.33,1.56,2.69,2.34,4a1.53,1.53,0,0,0,1.17.73,3.72,3.72,0,0,1,1.49.62c.91.72,1.73,1.55,2.6,2.33a3.37,3.37,0,0,0,.62.51c.13.07.44.09.47,0,.34-.62.91-.4,1.34-.3a8.35,8.35,0,0,1,1.83.71c.67.33,1.29.77,2,1.1a5.89,5.89,0,0,0,1.2.31c-.1-.44-.15-.73-.22-1-.2-.84-.48-1.68-.61-2.53s.17-1.06.9-1.11a19.46,19.46,0,0,1,2,.05,5.43,5.43,0,0,0,.8,0c.35,0,.61-.23.46-.61-.22-.56.08-.78.53-.87,1.28-.27,2.56-.52,3.84-.76.7-.13,1.41-.22,2.11-.32.52-.06.56-.51.67-.86a.74.74,0,0,0-.17-.64,16,16,0,0,1-3.59-4.71,3.15,3.15,0,0,1-.32-2.08,1.26,1.26,0,0,1,.41-.72,8,8,0,0,1,1.28-1,3.25,3.25,0,0,0,1.59-2.7,1.44,1.44,0,0,1,.76-1.2c.54-.32,1.08-.64,1.6-1a.51.51,0,0,0,.18-.84,3.34,3.34,0,0,1-.32-1.07c-.16-.73-.06-.74.56-1.14a3.05,3.05,0,0,0,.92-1.14c.73-1.37,1.37-2.79,2.13-4.14.65-1.15,1.43-2.22,2.16-3.32.17-.27.37-.52.55-.78Z"/><path class="cls-2" d="M89.67,327.13c-1.62.12-3.24.26-4.86.36a9,9,0,0,1-3.88-.63,1.4,1.4,0,0,1-1-1c-.12-.51-.44-.6-.89-.43-.75.28-1.49.6-2.25.83a15.07,15.07,0,0,1-2.29.49c-.61.07-1-.29-.8-.89a13,13,0,0,1,.83-2.23c.32-.7.76-1.34,1.09-2a4,4,0,0,0,.22-1c-.47.07-.82.09-1.15.17A1.36,1.36,0,0,1,73,318.88c.34-.94.78-1.84,1.15-2.76.28-.69.08-.95-.67-.91a9.77,9.77,0,0,1-1.06.11,1,1,0,0,1-1.09-.9,4.72,4.72,0,0,1,.26-2.78c.14-.39.29-.77.42-1.16s0-.6-.43-.63c-1-.07-1.1-.07-1.25-1.1-.25-1.64-.37-3.3-.62-4.94-.31-2,.17-3.87.3-5.8,0-.33,0-.67,0-1.14a3.08,3.08,0,0,0-.52.36,24,24,0,0,1-5.41,4.54c-1.06.69-2,1.6-3,2.38s-1.84,1.35-2.78,2a4.66,4.66,0,0,1-1.08.57,1.29,1.29,0,0,1-1.58-.43c-.18-.22-.39-.41-.66-.71-.19.38-.37.68-.51,1a19.84,19.84,0,0,1-1,2.08,3.49,3.49,0,0,1-1.18,1.11c-.71.43-1.08.3-1.58-.38a9.68,9.68,0,0,1-.52-.88c-.13-.22-.27-.45-.48-.82-.32.81-.62,1.49-.85,2.2a14.82,14.82,0,0,1-2.05,4.28c-.88,1.17-1.47,1.29-2.53.26-1.22-1.18-2.36-2.46-3.53-3.69l-.41-.46-.08,0c-.89.86-1,.89-2.13.37a6.84,6.84,0,0,1-.86-.53c-.85-.61-1.69-1.22-2.51-1.85s-1.61-1.29-2.43-2c-.45.59-.93,1.22-1.39,1.87a.6.6,0,0,0,0,.31c.07,1.25.15,2.49.2,3.74q.07,2.39.12,4.77c0,.5-.09.94-.77.91-.09,0-.29.35-.26.5.14.66.38,1.3.52,2A8.92,8.92,0,0,1,31,322.2a.89.89,0,0,1-1,1c-.66,0-1.31-.07-2.05-.11a4.45,4.45,0,0,0,.23.67c.47.86,1,1.69,1.43,2.57a6.1,6.1,0,0,1,.55,1.87,1,1,0,0,1-.89,1.11c-2.07.42-4.16.82-6.24,1.21-.54.1-1.1.12-1.64.24a.6.6,0,0,0-.42.38.61.61,0,0,0,.26.5c.59.41,1.21.77,1.81,1.16a26.81,26.81,0,0,1,4.33,3.84c.63.65.54,1.05-.26,1.51l-.43.27a11.09,11.09,0,0,0,1.27.74c.55.24,1.15.37,1.72.58a3.85,3.85,0,0,1,.84.47c.55.41.5.77-.12,1.07l-.71.32a3.61,3.61,0,0,0,.65.65,5.07,5.07,0,0,0,2.94.64,3.43,3.43,0,0,1,1.29.24,17.51,17.51,0,0,0,5,1.24c.85,0,1.7-.12,2.56-.15.58,0,1.17,0,1.76,0l2,0c1.1,0,2.15.11,2.79,1.23a1.12,1.12,0,0,1,.08,1.24c-.2.34-.36.7-.58,1a24.52,24.52,0,0,0-3.11,6.68,2.54,2.54,0,0,1-1.16,1.66c-.18.11-.22.6-.17.89s.34.33.55.42.28-.15.33-.27a10.67,10.67,0,0,0,.85-2.12,15,15,0,0,1,1.66-4.39c.61-1.1,1.27-2.19,2-3.26.53-.83,1-.91,1.91-.63,2.57.78,4.09,2.72,5.41,4.87.81,1.32,1.56,2.68,2.34,4a1.56,1.56,0,0,0,1.17.73,3.57,3.57,0,0,1,1.49.61c.91.72,1.73,1.55,2.6,2.34a3.31,3.31,0,0,0,.62.5c.13.08.44.09.47,0,.34-.62.91-.41,1.34-.31a8.89,8.89,0,0,1,1.83.71c.67.33,1.29.77,2,1.1a5.89,5.89,0,0,0,1.2.31c-.1-.44-.15-.72-.22-1-.2-.85-.48-1.68-.61-2.54s.17-1.05.9-1.11a17,17,0,0,1,2,.06,7.26,7.26,0,0,0,.8,0c.35,0,.61-.23.46-.61-.22-.56.08-.78.53-.88q1.92-.41,3.84-.75c.7-.13,1.41-.23,2.11-.32.52-.07.56-.52.67-.86a.72.72,0,0,0-.17-.64,16.07,16.07,0,0,1-3.59-4.72,3.13,3.13,0,0,1-.32-2.08,1.26,1.26,0,0,1,.41-.71,7.44,7.44,0,0,1,1.28-1,3.28,3.28,0,0,0,1.59-2.71,1.44,1.44,0,0,1,.76-1.2c.54-.32,1.08-.64,1.6-1a.52.52,0,0,0,.18-.85,3.35,3.35,0,0,1-.32-1.06c-.16-.74-.06-.75.56-1.15a3.05,3.05,0,0,0,.92-1.14c.73-1.36,1.37-2.79,2.13-4.14.65-1.14,1.43-2.22,2.16-3.32.17-.26.37-.52.55-.78Z"/><path class="cls-2" d="M89.67,497.2l-4.86.36a9,9,0,0,1-3.88-.63,1.43,1.43,0,0,1-1-1c-.12-.51-.44-.6-.89-.43-.75.28-1.49.61-2.25.83a14,14,0,0,1-2.29.49c-.61.08-1-.29-.8-.88a12.82,12.82,0,0,1,.83-2.24c.32-.69.76-1.33,1.09-2a4.09,4.09,0,0,0,.22-1,10.83,10.83,0,0,0-1.15.18A1.36,1.36,0,0,1,73,488.94c.34-.93.78-1.83,1.15-2.76.28-.69.08-.95-.67-.9-.36,0-.71.11-1.06.11a1,1,0,0,1-1.09-.9,4.76,4.76,0,0,1,.26-2.79c.14-.38.29-.77.42-1.15s0-.61-.43-.64c-1-.07-1.1-.06-1.25-1.1-.25-1.64-.37-3.3-.62-4.94-.31-2,.17-3.86.3-5.79,0-.34,0-.68,0-1.14a2.59,2.59,0,0,0-.52.36,24.31,24.31,0,0,1-5.41,4.54c-1.06.68-2,1.6-3,2.37s-1.84,1.36-2.78,2a5.12,5.12,0,0,1-1.08.58,1.29,1.29,0,0,1-1.58-.43c-.18-.22-.39-.42-.66-.71-.19.37-.37.67-.51,1a19.84,19.84,0,0,1-1,2.08,3.49,3.49,0,0,1-1.18,1.11c-.71.43-1.08.31-1.58-.38a9.52,9.52,0,0,1-.52-.87l-.48-.83c-.32.82-.62,1.5-.85,2.2a14.82,14.82,0,0,1-2.05,4.28c-.88,1.18-1.47,1.29-2.53.26-1.22-1.18-2.36-2.45-3.53-3.69l-.41-.46-.08,0c-.89.86-1,.88-2.13.36a5.1,5.1,0,0,1-.86-.53c-.85-.61-1.69-1.22-2.51-1.85s-1.61-1.29-2.43-2c-.45.6-.93,1.23-1.39,1.87a.63.63,0,0,0,0,.31c.07,1.25.15,2.5.2,3.75q.07,2.39.12,4.77c0,.5-.09.93-.77.91-.09,0-.29.35-.26.5.14.66.38,1.3.52,2a9.09,9.09,0,0,1,.19,1.8.88.88,0,0,1-1,1c-.66,0-1.31-.07-2.05-.11a4.1,4.1,0,0,0,.23.67c.47.86,1,1.69,1.43,2.57a6.19,6.19,0,0,1,.55,1.87,1,1,0,0,1-.89,1.12c-2.07.42-4.16.81-6.24,1.2-.54.1-1.1.13-1.64.24a.47.47,0,0,0-.16.89c.59.41,1.21.76,1.81,1.15a26.4,26.4,0,0,1,4.33,3.85c.63.64.54,1-.26,1.51l-.43.26a11.27,11.27,0,0,0,1.27.75c.55.23,1.15.36,1.72.58a3.44,3.44,0,0,1,.84.46c.55.41.5.77-.12,1.07l-.71.33a3.87,3.87,0,0,0,.65.64,5,5,0,0,0,2.94.64,3.26,3.26,0,0,1,1.29.25,17.84,17.84,0,0,0,5,1.23c.85,0,1.7-.11,2.56-.14.58,0,1.17,0,1.76,0s1.36,0,2,0c1.1,0,2.15.1,2.79,1.22a1.14,1.14,0,0,1,.08,1.25c-.2.33-.36.69-.58,1a24.65,24.65,0,0,0-3.11,6.68,2.53,2.53,0,0,1-1.16,1.67c-.18.1-.22.6-.17.89s.34.32.55.41.28-.14.33-.27a10.59,10.59,0,0,0,.85-2.11,14.75,14.75,0,0,1,1.66-4.39c.61-1.11,1.27-2.2,2-3.27.53-.83,1-.91,1.91-.63,2.57.78,4.09,2.72,5.41,4.87.81,1.33,1.56,2.69,2.34,4a1.53,1.53,0,0,0,1.17.73,3.46,3.46,0,0,1,1.49.62c.91.72,1.73,1.55,2.6,2.33a3.37,3.37,0,0,0,.62.51c.13.07.44.09.47,0,.34-.62.91-.4,1.34-.3a8.35,8.35,0,0,1,1.83.71c.67.33,1.29.76,2,1.1a6.63,6.63,0,0,0,1.2.31c-.1-.44-.15-.73-.22-1-.2-.84-.48-1.68-.61-2.54s.17-1,.9-1.11a17,17,0,0,1,2,.06,5.43,5.43,0,0,0,.8,0c.35,0,.61-.23.46-.61-.22-.56.08-.78.53-.88l3.84-.75c.7-.13,1.41-.23,2.11-.32.52-.07.56-.52.67-.86a.74.74,0,0,0-.17-.64,16,16,0,0,1-3.59-4.71,3.15,3.15,0,0,1-.32-2.08,1.26,1.26,0,0,1,.41-.72,7.44,7.44,0,0,1,1.28-1,3.28,3.28,0,0,0,1.59-2.71,1.46,1.46,0,0,1,.76-1.2c.54-.32,1.08-.63,1.6-1a.51.51,0,0,0,.18-.84,3.34,3.34,0,0,1-.32-1.07c-.16-.73-.06-.74.56-1.14a3.22,3.22,0,0,0,.92-1.14c.73-1.37,1.37-2.79,2.13-4.14.65-1.15,1.43-2.22,2.16-3.32.17-.27.37-.53.55-.79Z"/><path class="cls-2" d="M89.67,651.71l-4.86.36a9,9,0,0,1-3.88-.63,1.43,1.43,0,0,1-1-1c-.12-.51-.44-.6-.89-.43-.75.28-1.49.61-2.25.83a14,14,0,0,1-2.29.49c-.61.08-1-.29-.8-.88a12.82,12.82,0,0,1,.83-2.24c.32-.69.76-1.33,1.09-2a4.09,4.09,0,0,0,.22-1,10.83,10.83,0,0,0-1.15.18A1.36,1.36,0,0,1,73,643.45c.34-.93.78-1.83,1.15-2.76.28-.69.08-1-.67-.9-.36,0-.71.11-1.06.11a1,1,0,0,1-1.09-.9,4.76,4.76,0,0,1,.26-2.79c.14-.38.29-.77.42-1.15s0-.61-.43-.64c-1-.07-1.1-.06-1.25-1.1-.25-1.64-.37-3.3-.62-4.94-.31-2,.17-3.86.3-5.79,0-.34,0-.68,0-1.14a2.59,2.59,0,0,0-.52.36,24.31,24.31,0,0,1-5.41,4.54c-1.06.68-2,1.6-3,2.37s-1.84,1.36-2.78,2a5.12,5.12,0,0,1-1.08.58,1.29,1.29,0,0,1-1.58-.43c-.18-.22-.39-.42-.66-.71-.19.37-.37.67-.51,1a21,21,0,0,1-1,2.09,3.56,3.56,0,0,1-1.18,1.1c-.71.43-1.08.31-1.58-.38a9.52,9.52,0,0,1-.52-.87l-.48-.83c-.32.82-.62,1.5-.85,2.2a14.82,14.82,0,0,1-2.05,4.28c-.88,1.18-1.47,1.29-2.53.26-1.22-1.18-2.36-2.45-3.53-3.69l-.41-.46-.08,0c-.89.86-1,.88-2.13.36a5.1,5.1,0,0,1-.86-.53c-.85-.61-1.69-1.22-2.51-1.85s-1.61-1.29-2.43-2c-.45.6-.93,1.23-1.39,1.87a.63.63,0,0,0,0,.31c.07,1.25.15,2.5.2,3.75q.07,2.38.12,4.77c0,.5-.09.93-.77.91-.09,0-.29.35-.26.5.14.66.38,1.3.52,2a9.09,9.09,0,0,1,.19,1.8.88.88,0,0,1-1,1c-.66,0-1.31-.07-2.05-.11a4.1,4.1,0,0,0,.23.67c.47.86,1,1.69,1.43,2.57a6.19,6.19,0,0,1,.55,1.87,1,1,0,0,1-.89,1.12c-2.07.42-4.16.81-6.24,1.2-.54.1-1.1.13-1.64.24a.47.47,0,0,0-.16.89c.59.41,1.21.76,1.81,1.15a26.4,26.4,0,0,1,4.33,3.85c.63.64.54,1-.26,1.51l-.43.26a11.27,11.27,0,0,0,1.27.75c.55.23,1.15.36,1.72.58a3.44,3.44,0,0,1,.84.46c.55.41.5.77-.12,1.07l-.71.33a3.87,3.87,0,0,0,.65.64,5,5,0,0,0,2.94.64,3.26,3.26,0,0,1,1.29.25,17.84,17.84,0,0,0,5,1.23c.85,0,1.7-.11,2.56-.14.58,0,1.17,0,1.76,0s1.36,0,2,0c1.1,0,2.15.1,2.79,1.22a1.14,1.14,0,0,1,.08,1.25c-.2.33-.36.69-.58,1A24.65,24.65,0,0,0,45.07,679a2.53,2.53,0,0,1-1.16,1.67c-.18.1-.22.6-.17.89s.34.32.55.41.28-.14.33-.27a10.59,10.59,0,0,0,.85-2.11,14.75,14.75,0,0,1,1.66-4.39c.61-1.11,1.27-2.2,2-3.27.53-.83,1-.91,1.91-.63,2.57.78,4.09,2.72,5.41,4.87.81,1.33,1.56,2.69,2.34,4a1.53,1.53,0,0,0,1.17.73,3.46,3.46,0,0,1,1.49.62c.91.72,1.73,1.55,2.6,2.33a3.37,3.37,0,0,0,.62.51c.13.07.44.09.47,0,.34-.62.91-.4,1.34-.3a8.35,8.35,0,0,1,1.83.71c.67.33,1.29.76,2,1.1a6.63,6.63,0,0,0,1.2.31c-.1-.44-.15-.73-.22-1-.2-.84-.48-1.68-.61-2.54s.17-1,.9-1.11a17,17,0,0,1,2,.06,5.43,5.43,0,0,0,.8,0c.35,0,.61-.23.46-.61-.22-.56.08-.78.53-.88l3.84-.75c.7-.13,1.41-.23,2.11-.32.52-.07.56-.52.67-.86a.74.74,0,0,0-.17-.64,16,16,0,0,1-3.59-4.71,3.15,3.15,0,0,1-.32-2.08,1.26,1.26,0,0,1,.41-.72,8,8,0,0,1,1.28-1,3.28,3.28,0,0,0,1.59-2.71,1.46,1.46,0,0,1,.76-1.2c.54-.32,1.08-.63,1.6-1a.51.51,0,0,0,.18-.84,3.34,3.34,0,0,1-.32-1.07c-.16-.73-.06-.74.56-1.14a3.22,3.22,0,0,0,.92-1.14c.73-1.37,1.37-2.79,2.13-4.14.65-1.15,1.43-2.22,2.16-3.32.17-.27.37-.53.55-.79Z"/><path class="cls-2" d="M564.15,154.79l-4.86.36a9,9,0,0,1-3.88-.63,1.4,1.4,0,0,1-1-1c-.12-.52-.44-.6-.89-.44-.75.28-1.49.61-2.25.83a14,14,0,0,1-2.29.49c-.61.08-1-.29-.8-.88a12.82,12.82,0,0,1,.83-2.24c.32-.69.76-1.33,1.09-2a4.58,4.58,0,0,0,.22-1c-.47.07-.82.1-1.15.18a1.36,1.36,0,0,1-1.66-1.84c.34-.94.78-1.84,1.15-2.77.28-.69.08-1-.67-.9-.36,0-.71.11-1.06.11a1,1,0,0,1-1.09-.9,4.76,4.76,0,0,1,.26-2.79c.14-.38.29-.77.42-1.15s0-.61-.43-.64c-1-.06-1.1-.06-1.25-1.1-.25-1.64-.37-3.3-.62-4.94-.31-2,.16-3.86.3-5.79,0-.34,0-.68,0-1.14a2.59,2.59,0,0,0-.52.36,24.31,24.31,0,0,1-5.41,4.54c-1.06.68-2,1.6-3,2.37s-1.84,1.36-2.78,2a5.12,5.12,0,0,1-1.08.58,1.29,1.29,0,0,1-1.58-.43c-.18-.22-.39-.42-.66-.71-.19.37-.37.67-.51,1a21.94,21.94,0,0,1-1,2.08,3.69,3.69,0,0,1-1.18,1.11c-.71.42-1.08.3-1.58-.39a9.52,9.52,0,0,1-.52-.87l-.48-.83c-.32.82-.62,1.5-.85,2.2a14.7,14.7,0,0,1-2,4.28c-.88,1.18-1.47,1.29-2.53.26-1.22-1.18-2.36-2.45-3.53-3.69l-.41-.46-.08,0c-.89.86-1,.89-2.13.36a5.62,5.62,0,0,1-.87-.53c-.84-.61-1.68-1.21-2.5-1.85s-1.61-1.29-2.43-1.95c-.45.6-.93,1.23-1.39,1.87a.63.63,0,0,0,0,.31c.06,1.25.15,2.5.2,3.75q.07,2.39.12,4.77c0,.5-.09.94-.77.91-.09,0-.29.35-.26.5.14.66.38,1.3.52,2a9.09,9.09,0,0,1,.19,1.8.89.89,0,0,1-1,1c-.66,0-1.31-.07-2.05-.12a3.33,3.33,0,0,0,.23.67c.47.86,1,1.69,1.43,2.58a6,6,0,0,1,.55,1.86,1,1,0,0,1-.89,1.12c-2.07.42-4.16.81-6.24,1.2-.55.1-1.1.13-1.64.24a.47.47,0,0,0-.16.89c.59.41,1.21.77,1.81,1.15a26.4,26.4,0,0,1,4.33,3.85c.63.64.54,1-.26,1.51l-.43.26a11.27,11.27,0,0,0,1.27.75c.55.23,1.15.36,1.72.58a4,4,0,0,1,.84.46c.55.41.5.77-.12,1.07l-.71.33a4.41,4.41,0,0,0,.65.65,5.07,5.07,0,0,0,2.94.63,3.26,3.26,0,0,1,1.29.25,17.84,17.84,0,0,0,5,1.23c.85,0,1.7-.11,2.56-.14.58,0,1.17,0,1.76,0l2,0c1.1,0,2.15.11,2.79,1.22a1.14,1.14,0,0,1,.08,1.25c-.2.34-.36.7-.58,1a24.36,24.36,0,0,0-3.11,6.68,2.53,2.53,0,0,1-1.16,1.67c-.18.1-.22.6-.17.89s.34.32.55.42.28-.15.33-.28a10.59,10.59,0,0,0,.85-2.11,14.75,14.75,0,0,1,1.66-4.39c.61-1.11,1.27-2.19,2-3.26.53-.84,1-.92,1.91-.64,2.57.78,4.09,2.72,5.4,4.87.82,1.33,1.57,2.69,2.35,4a1.53,1.53,0,0,0,1.17.73,3.58,3.58,0,0,1,1.49.62c.91.72,1.73,1.55,2.6,2.33a3.37,3.37,0,0,0,.62.51c.13.07.44.09.47,0,.34-.62.91-.4,1.34-.3a8.09,8.09,0,0,1,1.82.71c.68.33,1.3.77,2,1.1a5.89,5.89,0,0,0,1.2.31c-.1-.44-.15-.73-.22-1-.2-.84-.48-1.68-.61-2.53s.17-1.06.9-1.11a17,17,0,0,1,2,.05,5.43,5.43,0,0,0,.8,0c.35,0,.61-.23.46-.61-.22-.56.08-.78.53-.87,1.28-.27,2.56-.52,3.84-.76.7-.13,1.41-.22,2.11-.32.52-.06.56-.51.67-.86a.74.74,0,0,0-.17-.64,16,16,0,0,1-3.59-4.71,3.15,3.15,0,0,1-.32-2.08,1.26,1.26,0,0,1,.41-.72,8,8,0,0,1,1.28-1,3.28,3.28,0,0,0,1.59-2.71,1.47,1.47,0,0,1,.76-1.2c.54-.31,1.08-.63,1.6-1a.51.51,0,0,0,.18-.84,3.34,3.34,0,0,1-.32-1.07c-.16-.73-.06-.74.56-1.14a3.14,3.14,0,0,0,.92-1.14c.73-1.37,1.36-2.79,2.13-4.14.65-1.15,1.43-2.22,2.16-3.32.17-.27.37-.52.55-.78Z"/><path class="cls-2" d="M564.15,324.85c-1.62.12-3.24.26-4.86.36a9,9,0,0,1-3.88-.63,1.4,1.4,0,0,1-1-1c-.12-.51-.44-.6-.89-.43-.75.28-1.49.6-2.25.83a15.07,15.07,0,0,1-2.29.49c-.61.07-1-.29-.8-.89a13,13,0,0,1,.83-2.23c.32-.7.76-1.34,1.09-2a4.48,4.48,0,0,0,.22-1c-.47.07-.82.09-1.15.17a1.36,1.36,0,0,1-1.66-1.84c.34-.94.78-1.84,1.15-2.76.28-.69.08-.95-.67-.91-.36,0-.71.11-1.06.11a1,1,0,0,1-1.09-.9,4.72,4.72,0,0,1,.26-2.78c.14-.39.29-.77.42-1.16s0-.61-.43-.63c-1-.07-1.1-.07-1.25-1.1-.25-1.64-.37-3.3-.62-4.94-.31-2,.16-3.87.3-5.8,0-.33,0-.67,0-1.14a3.08,3.08,0,0,0-.52.36,24,24,0,0,1-5.41,4.54c-1.06.69-2,1.6-3,2.38s-1.84,1.35-2.78,2a4.66,4.66,0,0,1-1.08.57,1.29,1.29,0,0,1-1.58-.43c-.18-.22-.39-.41-.66-.71-.19.37-.37.68-.51,1a20.84,20.84,0,0,1-1,2.08,3.69,3.69,0,0,1-1.18,1.11c-.71.43-1.08.3-1.58-.38a9.68,9.68,0,0,1-.52-.88l-.48-.82c-.32.81-.62,1.49-.85,2.2a14.82,14.82,0,0,1-2,4.28c-.88,1.17-1.47,1.28-2.53.26-1.22-1.18-2.36-2.46-3.53-3.69l-.41-.46-.08,0c-.89.86-1,.89-2.13.36a6.45,6.45,0,0,1-.87-.52c-.84-.61-1.68-1.22-2.5-1.85s-1.61-1.29-2.43-1.95c-.45.59-.93,1.22-1.39,1.87a.6.6,0,0,0,0,.31c.06,1.24.15,2.49.2,3.74q.07,2.38.12,4.77c0,.5-.09.94-.77.91-.09,0-.29.35-.26.5.14.66.38,1.3.52,2a9.09,9.09,0,0,1,.19,1.8.89.89,0,0,1-1,1c-.66,0-1.31-.07-2.05-.12a3.13,3.13,0,0,0,.23.67c.47.87,1,1.69,1.43,2.58a6.1,6.1,0,0,1,.55,1.87,1,1,0,0,1-.89,1.11c-2.07.42-4.16.82-6.24,1.21-.55.1-1.1.12-1.64.24a.6.6,0,0,0-.42.38.61.61,0,0,0,.26.5c.59.41,1.21.77,1.81,1.16a26.34,26.34,0,0,1,4.33,3.84c.63.64.54,1.05-.26,1.51l-.43.27a12.79,12.79,0,0,0,1.27.74c.55.24,1.15.37,1.72.58a4.09,4.09,0,0,1,.84.47c.55.4.5.77-.12,1.07l-.71.32a3.61,3.61,0,0,0,.65.65,5.07,5.07,0,0,0,2.94.64,3.43,3.43,0,0,1,1.29.24,17.86,17.86,0,0,0,5,1.24c.85,0,1.7-.12,2.56-.15.58,0,1.17,0,1.76,0l2,0c1.1,0,2.15.11,2.79,1.22a1.14,1.14,0,0,1,.08,1.25c-.2.34-.36.7-.58,1a24.3,24.3,0,0,0-3.11,6.67,2.53,2.53,0,0,1-1.16,1.67c-.18.1-.22.6-.17.89s.34.32.55.42.28-.15.33-.27a10.92,10.92,0,0,0,.85-2.12,15,15,0,0,1,1.66-4.39c.61-1.1,1.27-2.19,2-3.26.53-.84,1-.92,1.91-.63,2.57.78,4.09,2.72,5.4,4.87.82,1.32,1.57,2.68,2.35,4a1.56,1.56,0,0,0,1.17.73,3.57,3.57,0,0,1,1.49.61c.91.72,1.73,1.55,2.6,2.33a3.37,3.37,0,0,0,.62.51c.13.08.44.09.47,0,.34-.61.91-.4,1.34-.3a8.09,8.09,0,0,1,1.82.71c.68.33,1.3.77,2,1.1a5.89,5.89,0,0,0,1.2.31c-.1-.44-.15-.72-.22-1-.2-.85-.48-1.68-.61-2.54s.17-1.06.9-1.11a17,17,0,0,1,2,.06,5.4,5.4,0,0,0,.8,0c.35,0,.61-.22.46-.61-.22-.56.08-.78.53-.87q1.92-.4,3.84-.75c.7-.13,1.41-.23,2.11-.32.52-.07.56-.52.67-.87a.71.71,0,0,0-.17-.63,16.2,16.2,0,0,1-3.59-4.72,3.13,3.13,0,0,1-.32-2.08,1.26,1.26,0,0,1,.41-.71,7.44,7.44,0,0,1,1.28-1,3.28,3.28,0,0,0,1.59-2.71,1.44,1.44,0,0,1,.76-1.2c.54-.32,1.08-.64,1.6-1a.51.51,0,0,0,.18-.84,3.35,3.35,0,0,1-.32-1.06c-.16-.74-.06-.75.56-1.15a3.05,3.05,0,0,0,.92-1.14c.73-1.37,1.36-2.79,2.13-4.14.65-1.14,1.43-2.22,2.16-3.32.17-.27.37-.52.55-.78Z"/><path class="cls-2" d="M564.15,494.92c-1.62.12-3.24.25-4.86.36a9.19,9.19,0,0,1-3.88-.63,1.43,1.43,0,0,1-1-1c-.12-.51-.44-.6-.89-.43-.75.28-1.49.6-2.25.83a15.07,15.07,0,0,1-2.29.49c-.61.08-1-.29-.8-.88a12.82,12.82,0,0,1,.83-2.24c.32-.7.76-1.34,1.09-2a4.58,4.58,0,0,0,.22-1,10.83,10.83,0,0,0-1.15.18,1.36,1.36,0,0,1-1.66-1.85c.34-.93.78-1.83,1.15-2.76.28-.69.08-.95-.67-.9-.36,0-.71.11-1.06.11a1,1,0,0,1-1.09-.9,4.76,4.76,0,0,1,.26-2.79c.14-.38.29-.77.42-1.15s0-.61-.43-.64c-1-.07-1.1-.06-1.25-1.1-.25-1.64-.37-3.3-.62-4.94-.31-2,.16-3.86.3-5.79,0-.34,0-.68,0-1.14a2.59,2.59,0,0,0-.52.36,24.31,24.31,0,0,1-5.41,4.54c-1.06.68-2,1.6-3,2.37s-1.84,1.36-2.78,2a5.12,5.12,0,0,1-1.08.58,1.29,1.29,0,0,1-1.58-.43c-.18-.23-.39-.42-.66-.71-.19.37-.37.67-.51,1a19.84,19.84,0,0,1-1,2.08,3.49,3.49,0,0,1-1.18,1.11c-.71.43-1.08.3-1.58-.38a9.52,9.52,0,0,1-.52-.87l-.48-.83c-.32.82-.62,1.5-.85,2.2a14.82,14.82,0,0,1-2,4.28c-.88,1.18-1.47,1.29-2.53.26-1.22-1.18-2.36-2.45-3.53-3.69l-.41-.46-.08,0c-.89.86-1,.88-2.13.36a5.62,5.62,0,0,1-.87-.53c-.84-.61-1.68-1.22-2.5-1.85s-1.61-1.29-2.43-1.95c-.45.6-.93,1.23-1.39,1.87a.62.62,0,0,0,0,.31c.06,1.25.15,2.5.2,3.75q.07,2.38.12,4.77c0,.5-.09.93-.77.91-.09,0-.29.35-.26.49.14.67.38,1.31.52,2a9.07,9.07,0,0,1,.19,1.79.89.89,0,0,1-1,1c-.66,0-1.31-.07-2.05-.11a3.33,3.33,0,0,0,.23.67c.47.86,1,1.69,1.43,2.57a6.1,6.1,0,0,1,.55,1.87,1,1,0,0,1-.89,1.12c-2.07.42-4.16.81-6.24,1.2-.55.1-1.1.13-1.64.24a.47.47,0,0,0-.16.89c.59.4,1.21.76,1.81,1.15a26.4,26.4,0,0,1,4.33,3.85c.63.64.54,1-.26,1.5l-.43.27a9.78,9.78,0,0,0,1.27.74c.55.24,1.15.37,1.72.59a3.63,3.63,0,0,1,.84.46c.55.41.5.77-.12,1.07l-.71.32a3.61,3.61,0,0,0,.65.65,5,5,0,0,0,2.94.64,3.26,3.26,0,0,1,1.29.25,17.84,17.84,0,0,0,5,1.23c.85,0,1.7-.11,2.56-.14.58,0,1.17,0,1.76,0s1.36,0,2,0c1.1,0,2.15.1,2.79,1.22a1.12,1.12,0,0,1,.08,1.24c-.2.34-.36.7-.58,1a24.22,24.22,0,0,0-3.11,6.68,2.49,2.49,0,0,1-1.16,1.66c-.18.11-.22.6-.17.9s.34.32.55.41.28-.15.33-.27a10.67,10.67,0,0,0,.85-2.12,14.79,14.79,0,0,1,1.66-4.38c.61-1.11,1.27-2.2,2-3.27.53-.83,1-.91,1.91-.63,2.57.78,4.09,2.72,5.4,4.87.82,1.33,1.57,2.68,2.35,4a1.56,1.56,0,0,0,1.17.73,3.46,3.46,0,0,1,1.49.62c.91.72,1.73,1.55,2.6,2.33a3.37,3.37,0,0,0,.62.51c.13.07.44.08.47,0,.34-.62.91-.4,1.34-.3a8.05,8.05,0,0,1,1.82.7c.68.34,1.3.77,2,1.11a6,6,0,0,0,1.2.3c-.1-.43-.15-.72-.22-1-.2-.85-.48-1.68-.61-2.54s.17-1,.9-1.11a17,17,0,0,1,2,.06,5.43,5.43,0,0,0,.8,0c.35,0,.61-.23.46-.61-.22-.56.08-.78.53-.88l3.84-.75c.7-.13,1.41-.23,2.11-.32.52-.07.56-.52.67-.86a.74.74,0,0,0-.17-.64,15.94,15.94,0,0,1-3.59-4.72,3.12,3.12,0,0,1-.32-2.07,1.26,1.26,0,0,1,.41-.72,7.44,7.44,0,0,1,1.28-1,3.28,3.28,0,0,0,1.59-2.71,1.46,1.46,0,0,1,.76-1.2c.54-.32,1.08-.63,1.6-1a.51.51,0,0,0,.18-.84,3.41,3.41,0,0,1-.32-1.07c-.16-.73-.06-.75.56-1.15a3.1,3.1,0,0,0,.92-1.13c.73-1.37,1.36-2.8,2.13-4.15.65-1.14,1.43-2.21,2.16-3.32.17-.26.37-.52.55-.78Z"/><path class="cls-2" d="M564.15,649.43l-4.86.36a9.19,9.19,0,0,1-3.88-.63,1.43,1.43,0,0,1-1-1c-.12-.51-.44-.6-.89-.43-.75.28-1.49.6-2.25.83A15.07,15.07,0,0,1,549,649c-.61.08-1-.29-.8-.88a12.82,12.82,0,0,1,.83-2.24c.32-.7.76-1.34,1.09-2a4.58,4.58,0,0,0,.22-1,10.83,10.83,0,0,0-1.15.18,1.36,1.36,0,0,1-1.66-1.85c.34-.93.78-1.83,1.15-2.76.28-.69.08-.95-.67-.9-.36,0-.71.11-1.06.11a1,1,0,0,1-1.09-.9,4.76,4.76,0,0,1,.26-2.79c.14-.38.29-.77.42-1.15s0-.61-.43-.64c-1-.07-1.1-.06-1.25-1.1-.25-1.64-.37-3.3-.62-4.94-.31-2,.16-3.86.3-5.79,0-.34,0-.68,0-1.14a2.59,2.59,0,0,0-.52.36,24.31,24.31,0,0,1-5.41,4.54c-1.06.68-2,1.6-3,2.37s-1.84,1.36-2.78,2a5.12,5.12,0,0,1-1.08.58,1.29,1.29,0,0,1-1.58-.43c-.18-.23-.39-.42-.66-.71-.19.37-.37.67-.51,1a19.84,19.84,0,0,1-1,2.08,3.49,3.49,0,0,1-1.18,1.11c-.71.43-1.08.31-1.58-.38a9.52,9.52,0,0,1-.52-.87l-.48-.83c-.32.82-.62,1.5-.85,2.2a14.82,14.82,0,0,1-2,4.28c-.88,1.18-1.47,1.29-2.53.26-1.22-1.18-2.36-2.45-3.53-3.69l-.41-.46-.08,0c-.89.86-1,.88-2.13.36a5.62,5.62,0,0,1-.87-.53c-.84-.61-1.68-1.22-2.5-1.85s-1.61-1.29-2.43-2c-.45.6-.93,1.23-1.39,1.87a.62.62,0,0,0,0,.31c.06,1.25.15,2.5.2,3.75q.07,2.38.12,4.77c0,.5-.09.93-.77.91-.09,0-.29.35-.26.49.14.67.38,1.31.52,2a9.07,9.07,0,0,1,.19,1.79.89.89,0,0,1-1,1c-.66,0-1.31-.07-2.05-.11a3.33,3.33,0,0,0,.23.67c.47.86,1,1.69,1.43,2.57a6.1,6.1,0,0,1,.55,1.87,1,1,0,0,1-.89,1.12c-2.07.42-4.16.81-6.24,1.2-.55.1-1.1.13-1.64.24a.47.47,0,0,0-.16.89c.59.4,1.21.76,1.81,1.15a26.4,26.4,0,0,1,4.33,3.85c.63.64.54,1-.26,1.5l-.43.27a9.78,9.78,0,0,0,1.27.74c.55.24,1.15.37,1.72.59a3.63,3.63,0,0,1,.84.46c.55.41.5.77-.12,1.07l-.71.32a3.61,3.61,0,0,0,.65.65,5,5,0,0,0,2.94.64,3.26,3.26,0,0,1,1.29.25,17.84,17.84,0,0,0,5,1.23c.85,0,1.7-.11,2.56-.14.58,0,1.17,0,1.76,0s1.36,0,2,0c1.1,0,2.15.1,2.79,1.22a1.12,1.12,0,0,1,.08,1.24c-.2.34-.36.7-.58,1a24.36,24.36,0,0,0-3.11,6.68,2.49,2.49,0,0,1-1.16,1.66c-.18.11-.22.6-.17.9s.34.32.55.41.28-.15.33-.27a10.67,10.67,0,0,0,.85-2.12,14.79,14.79,0,0,1,1.66-4.38c.61-1.11,1.27-2.2,2-3.27.53-.83,1-.91,1.91-.63,2.57.78,4.09,2.72,5.4,4.87.82,1.33,1.57,2.68,2.35,4a1.56,1.56,0,0,0,1.17.73,3.46,3.46,0,0,1,1.49.62c.91.72,1.73,1.55,2.6,2.33a3.37,3.37,0,0,0,.62.51c.13.07.44.08.47,0,.34-.62.91-.4,1.34-.3a8.05,8.05,0,0,1,1.82.7c.68.34,1.3.77,2,1.11a6.63,6.63,0,0,0,1.2.31c-.1-.44-.15-.73-.22-1-.2-.85-.48-1.68-.61-2.54s.17-1,.9-1.11a17,17,0,0,1,2,.06,5.43,5.43,0,0,0,.8,0c.35,0,.61-.23.46-.61-.22-.56.08-.78.53-.88l3.84-.75c.7-.13,1.41-.23,2.11-.32.52-.07.56-.52.67-.86a.74.74,0,0,0-.17-.64,15.94,15.94,0,0,1-3.59-4.72,3.12,3.12,0,0,1-.32-2.07,1.26,1.26,0,0,1,.41-.72,7.44,7.44,0,0,1,1.28-1,3.28,3.28,0,0,0,1.59-2.71,1.46,1.46,0,0,1,.76-1.2c.54-.32,1.08-.63,1.6-1a.51.51,0,0,0,.18-.84,3.41,3.41,0,0,1-.32-1.07c-.16-.73-.06-.75.56-1.15a3.1,3.1,0,0,0,.92-1.13c.73-1.37,1.36-2.8,2.13-4.15.65-1.14,1.43-2.21,2.16-3.32.17-.26.37-.52.55-.78Z"/></g></svg>