<svg xmlns="http://www.w3.org/2000/svg" viewBox="0 0 107.08 88"><defs><style>.cls-1{fill:#f8981d;stroke:#231f20;stroke-miterlimit:10;stroke-width:0.9px;}</style></defs><g id="Layer_12" data-name="Layer 12"><path class="cls-1" d="M87.89,41.48,83,41.84a9.1,9.1,0,0,1-3.89-.63,1.4,1.4,0,0,1-1-1c-.12-.51-.44-.6-.89-.44-.75.28-1.49.61-2.26.83a13.54,13.54,0,0,1-2.29.5c-.6.07-1-.3-.8-.89a13.17,13.17,0,0,1,.84-2.24c.31-.69.75-1.33,1.09-2a5.05,5.05,0,0,0,.22-1c-.47.07-.82.1-1.16.18a1.35,1.35,0,0,1-1.65-1.84c.34-.94.78-1.84,1.15-2.77.28-.69.07-.94-.68-.9-.35,0-.7.11-1.06.11a1,1,0,0,1-1.09-.9A4.8,4.8,0,0,1,69.85,26l.42-1.16c.15-.41,0-.61-.44-.64-1-.06-1.09-.06-1.25-1.09-.25-1.65-.36-3.31-.62-5-.3-2,.17-3.86.31-5.79,0-.34,0-.68,0-1.14a2.59,2.59,0,0,0-.52.36,24.26,24.26,0,0,1-5.4,4.54c-1.06.69-2,1.6-3,2.37s-1.84,1.36-2.79,2a4.44,4.44,0,0,1-1.07.58,1.3,1.3,0,0,1-1.59-.43c-.17-.22-.38-.42-.65-.71-.2.37-.37.67-.52,1a19.65,19.65,0,0,1-1,2.08,3.8,3.8,0,0,1-1.18,1.11c-.71.43-1.09.3-1.58-.39a9.52,9.52,0,0,1-.52-.87c-.14-.23-.27-.46-.48-.83-.32.82-.62,1.5-.86,2.2a14.59,14.59,0,0,1-2,4.29c-.88,1.17-1.47,1.28-2.53.25-1.23-1.18-2.36-2.45-3.53-3.68-.15-.16-.28-.32-.42-.46l-.08,0c-.88.86-1,.89-2.12.36a5.19,5.19,0,0,1-.87-.53c-.84-.6-1.68-1.21-2.5-1.84s-1.62-1.3-2.44-2c-.44.6-.92,1.23-1.38,1.87a.47.47,0,0,0,0,.31c.06,1.25.15,2.5.19,3.75q.09,2.38.12,4.77c0,.5-.09.94-.77.91-.08,0-.29.35-.26.5.15.66.39,1.3.52,2a8.4,8.4,0,0,1,.19,1.8.89.89,0,0,1-1,1c-.65,0-1.31-.07-2-.12a4.84,4.84,0,0,0,.23.67c.48.86,1,1.69,1.44,2.58a6.42,6.42,0,0,1,.55,1.86,1,1,0,0,1-.89,1.12c-2.08.42-4.16.81-6.25,1.2-.54.11-1.1.13-1.64.25a.46.46,0,0,0-.15.88c.58.41,1.2.77,1.8,1.15A26.45,26.45,0,0,1,25.59,51c.64.64.54,1-.25,1.51l-.43.26a12.17,12.17,0,0,0,1.26.75c.56.23,1.16.37,1.72.58a3.54,3.54,0,0,1,.85.47c.55.4.5.76-.12,1.06l-.71.33a4,4,0,0,0,.65.65,5.12,5.12,0,0,0,2.93.64,3.26,3.26,0,0,1,1.3.24,17.84,17.84,0,0,0,5,1.23c.84,0,1.7-.11,2.55-.14.59,0,1.18,0,1.77,0l2,0c1.09,0,2.14.11,2.78,1.22A1.14,1.14,0,0,1,47,61.07c-.2.34-.37.7-.58,1a24.36,24.36,0,0,0-3.11,6.68,2.57,2.57,0,0,1-1.16,1.67c-.18.1-.22.6-.18.89s.34.32.56.42c.06,0,.27-.15.33-.27a11.59,11.59,0,0,0,.85-2.12A14.83,14.83,0,0,1,45.34,65c.62-1.11,1.28-2.19,2-3.26.53-.84,1-.92,1.91-.63,2.58.77,4.09,2.71,5.41,4.87.81,1.32,1.57,2.68,2.35,4a1.51,1.51,0,0,0,1.17.73,3.72,3.72,0,0,1,1.49.62c.91.72,1.73,1.55,2.59,2.33a3.74,3.74,0,0,0,.62.51c.13.07.45.09.48,0,.34-.62.9-.4,1.33-.3a8.16,8.16,0,0,1,1.83.71c.67.33,1.29.77,2,1.1a6.07,6.07,0,0,0,1.2.31c-.09-.44-.14-.73-.21-1-.21-.84-.48-1.68-.61-2.53s.17-1.06.89-1.11a19.72,19.72,0,0,1,2,.05,5.43,5.43,0,0,0,.8,0c.34,0,.61-.23.46-.61-.22-.56.08-.78.53-.87,1.27-.27,2.55-.52,3.83-.76.7-.13,1.41-.22,2.12-.32.52-.06.56-.51.67-.86a.72.72,0,0,0-.18-.64,16,16,0,0,1-3.58-4.71,3.16,3.16,0,0,1-.33-2.08,1.33,1.33,0,0,1,.42-.72,8.13,8.13,0,0,1,1.28-1,3.22,3.22,0,0,0,1.58-2.7,1.45,1.45,0,0,1,.77-1.2c.53-.32,1.07-.64,1.6-1a.52.52,0,0,0,.18-.84,3.34,3.34,0,0,1-.32-1.07c-.16-.73-.06-.74.56-1.14A3,3,0,0,0,83,49.83c.74-1.37,1.37-2.79,2.14-4.14.65-1.15,1.43-2.22,2.15-3.32.18-.27.37-.52.56-.78Z"/></g></svg>