<svg xmlns="http://www.w3.org/2000/svg" viewBox="0 0 595.28 841.89"><defs><style>.cls-1{fill:none;stroke:#231f20;stroke-miterlimit:10;stroke-width:10px;}.cls-2{fill:#0c090e;}.cls-3{fill:#271c32;}.cls-4{fill:#00a651;}.cls-5{fill:#006838;}.cls-6{fill:#f9f9f9;}.cls-7{fill:#271d33;}.cls-8{fill:#afafb0;}.cls-9{fill:#fbfbfb;}.cls-10{fill:#f2f1f1;}.cls-11{fill:#352744;}.cls-12{fill:#7c5c9c;}.cls-13{fill:#8362a8;}.cls-14{fill:#5c4578;}.cls-15{fill:#c7c7c7;}.cls-16{fill:#76579a;}.cls-17{fill:#06030a;}</style></defs><g id="Layer_20" data-name="Layer 20"><rect class="cls-1" x="60.29" y="48.92" width="483.26" height="743.72"/><path class="cls-2" d="M559.76,740c-.7,2.14-1,4.39-1.8,6.5a35.73,35.73,0,0,1-7.38,11.5c-6,6.35-12.52,12-20.48,15.83a45.24,45.24,0,0,1-17,4.38,1.54,1.54,0,0,0-1.39.73,40.6,40.6,0,0,1-3.86,5.19,1.7,1.7,0,0,0-.26,2,36.81,36.81,0,0,1,1.94,16.76c-.58,5.75-4.57,9.63-10.64,11a30,30,0,0,1-6.39.89c-.26,0-.58-.12-.72.25H480.5c-1.68-.55-3.47-.46-5.19-.83-3.92-.85-7.83-2-9.86-5.73-1.26-2.27-2.68-2.7-4.93-2.56a2.94,2.94,0,0,0-2.68,1.43c-2.12,3.21-5.44,4.66-9,5.4-6.46,1.31-13,1.16-19.53.64a24.8,24.8,0,0,1-7.89-1.78,11.83,11.83,0,0,1-7.68-10.5,39,39,0,0,1,1.77-15.69,1.57,1.57,0,0,0-.44-1.72,58.65,58.65,0,0,1-10.66-19.85,59.83,59.83,0,0,1-2.3-24.77c.49-4.29,1.75-8.39,2.7-12.57,1.13-5,1.17-10-3.07-14a54.7,54.7,0,0,1-5.47-5.91c-3.15-4-3.34-8.14-1-12.56a46.72,46.72,0,0,1,5.1-7.55c3.39-4.22,4-8.87,2.84-14a45,45,0,0,1-1.34-8.74c-.21-6.15,3.13-8.79,7.3-10.37a37.38,37.38,0,0,1,7.14-1.94,18.66,18.66,0,0,0,13-8.72,29.87,29.87,0,0,1,4.18-5c3.92-3.81,8.35-5,13.47-2.65,2.67,1.21,5.35,2.42,8,3.67a14.83,14.83,0,0,0,13,0c3.1-1.4,6.1-3,9.3-4.2,4.31-1.6,8-.52,11.33,2.28a30.59,30.59,0,0,1,5.72,6.42,18,18,0,0,0,12,7.84,41.23,41.23,0,0,1,8.59,2.45c4.77,2.08,6.78,5.56,6.33,10.7-.29,3.38-1.08,6.66-1.67,10A13.63,13.63,0,0,0,521.52,685c1.87,2.7,3.93,5.27,5.52,8.14,1.83,3.3,2.93,6.69,1.32,10.43a14.53,14.53,0,0,1-2.48,3.9c-1.76,2-3.63,3.82-5.46,5.72a1.56,1.56,0,0,1,.58-1.35c1.67-1.83,3.35-3.66,5-5.54,2.18-2.55,3.24-5.38,1.68-8.65-.61-1.29-1.35-2.51-2-3.77-.23.35.08.88-.38,1.15-1.8-3.09-4-5.91-6-8.87A15.71,15.71,0,0,1,516.87,674c.52-2.92,1.3-5.78,1.53-8.74.29-2.31.46-4.59-1.07-6.6-1-1.7-2.72-2.39-4.43-3a60.74,60.74,0,0,0-8.29-2.24,18.72,18.72,0,0,1-11.41-7.22,39.87,39.87,0,0,0-6.38-7.35c-2.75-2.29-5.72-3-9.17-1.66-2.62,1.06-5.16,2.28-7.68,3.54a18.19,18.19,0,0,1-17.07.06,81.6,81.6,0,0,0-8.08-3.67,8.07,8.07,0,0,0-8.1,1.25,26.15,26.15,0,0,0-5.6,6.14c-3.19,4.63-7.2,8-12.88,9.14a47,47,0,0,0-9.21,2.58,7,7,0,0,0-4.68,7.14c.13,4.25,1.36,8.34,1.93,12.52v3.76l-.39,1.63c-.77,3-2.64,5.48-4.42,8a41.4,41.4,0,0,0-4.45,7,7.77,7.77,0,0,0,.82,8.25,36.64,36.64,0,0,0,4.71,5.24c3.08,2.92,5.24,6.26,5.33,10.66l-.05,3.48,0,1.16v4.78l0,.59,0,.8c-.12.8-.47-1-.59.06a6.92,6.92,0,0,0,4.52,6.61,12,12,0,0,0,4.46.43,37.18,37.18,0,0,1,9.83,0,15.27,15.27,0,0,1,7.25,3.15c6.34,5,13,9.29,20.75,11.64a20.43,20.43,0,0,0,11.23.44,52,52,0,0,0,19.33-9.85,15.84,15.84,0,0,1,7-3.42,8.16,8.16,0,0,0,2.44-.6c3.55-1.93,7.31-1.29,11-1.08.39,0,.62.18.66.58-2.15.08-4.3.14-6.45.25a9.86,9.86,0,0,0-4.55,1.22c-1.39.17-2.78.36-4.18.5a2.13,2.13,0,0,0-1.22.64,67.27,67.27,0,0,1-17.1,10.88c-7.64,3.4-15.2,3.78-22.9.17A68,68,0,0,1,432.83,742c-.41-.37-.73-.82-1.39-.89-1.11-.1-2.22-.31-3.34-.48a10,10,0,0,0-4.5-1.15l-3.55-.11c-1.88-.07-3.76-.1-5.63-.23-4.21-.3-7.6-1.79-8.86-6.27a1.48,1.48,0,0,0-.23-.38,61.87,61.87,0,0,0-1.51,17.39,1,1,0,0,0,.14.87l0,.57c-.78-.14-.42-1.07-1-1.41a13.11,13.11,0,0,0,.2,3.32,51.21,51.21,0,0,0,2.71,11.88,59.68,59.68,0,0,0,9.37,17.24c.78,1,1.09.92,1.54-.1a15.4,15.4,0,0,1,2.61-3.65,14.92,14.92,0,0,1,8.8-4.26l4.07,0a1.43,1.43,0,0,0,.38.17,41.64,41.64,0,0,1,14.77,4.84c5.55,3,10,7.08,12,13.3.49,1.53.59,3.12.93,4.68l0,2.62a.63.63,0,0,0,0,.83.18.18,0,0,0,0,.09,1.09,1.09,0,0,0,0,.17l-.6,2.11c-.32.54-.35,1.53-.07,1.57a13.84,13.84,0,0,0,3.58,0c.45,0,.13-.61,0-.94a4.28,4.28,0,0,0-.28-1.84l0-4.06a1.56,1.56,0,0,0,.15-.39,20,20,0,0,1,7.87-13.69A39.92,39.92,0,0,1,488.69,776c4.63-.91,9.19-.68,13.26,2.19a20.51,20.51,0,0,1,4.3,4.62c.19.65.32,1.29,1.08.33a62.78,62.78,0,0,0,8.89-15,58.8,58.8,0,0,0,4.4-22.5,46.17,46.17,0,0,0-1.11-11,38.48,38.48,0,0,0-1.9-6.89,16,16,0,0,1-.26,3.56,7.63,7.63,0,0,1-1.65,4.48c-.73-.67.1-1.2.22-1.75a60.9,60.9,0,0,0,1.13-11.74,9.68,9.68,0,0,1,.6-4c-.88,4.31.87,8.18,2,12.16a59.69,59.69,0,0,1,1.71,21.5,67.64,67.64,0,0,1-1.37,8.32,49.42,49.42,0,0,0,8.36-3.5,31.53,31.53,0,0,0,14.09-13.51c2.91-5.59,2.4-11.28-.07-16.9A92.43,92.43,0,0,0,536,715.26a12.49,12.49,0,0,1-2.09-4.4c-.28-1.74.46-2.74,2.18-3.16a8,8,0,0,1,6.1.89,36.77,36.77,0,0,1,14.67,16.09,25.45,25.45,0,0,1,2.62,9.08c0,.1.16.19.25.28Zm-92.87,53.49h0a1,1,0,0,0-.31.86l0,0a15,15,0,0,0-.8,8,9.42,9.42,0,0,0,2.19,5.46c.34-3.67,1.91-6,4.73-7.13a7.52,7.52,0,0,1,8.25,1.58,1,1,0,0,0,1.44.09,6.94,6.94,0,0,1,7.26-.34c1.5.86,2.25.84,3.59-.39,2.74-2.52,5.86-2.38,9.88-.06a9.59,9.59,0,0,1,2.57,4.89,9.21,9.21,0,0,0,1.35-4.4v-4.77A28.94,28.94,0,0,0,505,786.46c-1-2.41-2.24-4.68-4.63-6a9.44,9.44,0,0,0-6.52-2.19c-7.22,0-13.69,2.51-19.65,6.42a17.93,17.93,0,0,0-7.25,8.57A.4.4,0,0,0,466.89,793.48ZM434.66,811a20,20,0,0,0,3.94,0c2.29-.25,2.87-.84,2.76-2.82l0-.51-.15-.33a4.89,4.89,0,0,0-4.46-3.65,5.09,5.09,0,0,0-5.07,3.08c-.43,1.13-.82,2.33.19,3.41A3.45,3.45,0,0,0,434.66,811Zm59.64-1c2.22.69,4.23-.22,6.23-.9,2.85-1,3.24-2.37,1.5-4.84a7.38,7.38,0,0,0-.85-.91,5,5,0,0,0-5.91-.18c-1.65,1.06-1.9,1.71-1.26,4.36C494.21,808.34,493.63,809.23,494.3,810Zm-50.57-3.48a7.73,7.73,0,0,1,.23,2.66c-.12.88.35,1.07,1.06,1.06a14.92,14.92,0,0,0,6.89-1.8,1.88,1.88,0,0,0,.95-2.38,4.86,4.86,0,0,0-6.08-3.52,3.85,3.85,0,0,0-2.32,1.2C443.69,804.47,442.87,805.29,443.73,806.5ZM558.9,739.7a29.65,29.65,0,0,0-1.69,3.08c-.43.68-.42,1.68-1.36,2a23.6,23.6,0,0,0,.94-12.1c-1.56-8-6-14.24-12.12-19.35-2.11-1.74-4.3-3.42-7.27-3.36a.76.76,0,0,0-1-.71c-.42.1-.42.56-.43,1a4.69,4.69,0,0,0,.48,2.45c1.83,3.59,4.36,6.76,6.06,10.45,1.45,3.13,2.75,6.22,2.83,9.75.09,3.8-1.07,7.29-2.28,10.8-.54,1.57-1.6,2.94-1.92,4.7l1.17-.16a31.54,31.54,0,0,1-5.25,5.7c-4.85,4.37-10.7,6.88-16.77,9-.52.17-1.11.18-1.31.88a72.62,72.62,0,0,1-5.06,11.88c-.07,1.09.82.58,1.14.53,2.41-.34,4.83-.64,7.2-1.21,10.25-2.45,18.26-8.59,25.54-15.86,1.63-1.62,3-3.46,4.62-5.13,3.82-4,5.59-8.94,6.49-14.27l.2-.31-.1-.08Zm-110.69,60c3.9.33,6.35,2.45,7.41,6.29a7.25,7.25,0,0,0,1.65-3.58c1.4-7.55-1.1-13.62-7.12-18.27a11.86,11.86,0,0,0-4.2-2.49,7.07,7.07,0,0,0-1-.72c-4.54-2.14-9.23-3.83-14.29-4s-9,1.82-11.43,6.35a27.15,27.15,0,0,0-2.91,11.09c-.18,2.74-.51,5.49.28,8.19a6.56,6.56,0,0,0,1.55,3.37,7.89,7.89,0,0,1,2.73-4.29,7.72,7.72,0,0,1,10,.44c.38.32.61.77,1.29.35a7.49,7.49,0,0,1,8.95.34c.47.33.65.22,1-.17A7.9,7.9,0,0,1,448.21,799.68Zm38.2,11.48a21,21,0,0,0,3.33-.32,2.18,2.18,0,0,0,1.77-2.6,5.1,5.1,0,0,0-4.91-4.55,5.19,5.19,0,0,0-5.21,4.06c-.37,1.94.45,3.07,2.45,3.28C484.68,811.12,485.53,811.12,486.41,811.16ZM429,810.45a6.61,6.61,0,0,1,.48-5,.9.9,0,0,0-.11-1.22,5.15,5.15,0,0,0-8.49,1.56c-.56,1.52-.27,2.47,1.17,3.15A14.15,14.15,0,0,0,429,810.45Zm50.08,0a6.72,6.72,0,0,1,.44-5c.26-.55.35-.92-.14-1.34a5.16,5.16,0,0,0-4.9-1.4,4.79,4.79,0,0,0-3.72,3.76,1.71,1.71,0,0,0,.8,2.06A13.74,13.74,0,0,0,479.07,810.48Z"/><path class="cls-3" d="M525.22,695c.46-.27.15-.8.38-1.15.69,1.26,1.43,2.48,2,3.77,1.56,3.27.5,6.1-1.68,8.65-1.61,1.88-3.29,3.71-5,5.54a1.56,1.56,0,0,0-.58,1.35l-1.11,1.37c-.72.09-.82.62-.83,1.2l0,0c-.32.1-.35.34-.29.62l0,0c-.49.14-.36.53-.35.87l0,0c-.55.28-.3.76-.3,1.19h0a9.68,9.68,0,0,0-.6,4,60.9,60.9,0,0,1-1.13,11.74c-.12.55-.95,1.08-.22,1.75-2,2.65-4.94,3.22-8,3.31a.68.68,0,0,0-1.11,0l-.85,0c0-.4-.27-.56-.66-.58-3.73-.21-7.49-.85-11,1.08a8.16,8.16,0,0,1-2.44.6,15.84,15.84,0,0,0-7,3.42,52,52,0,0,1-19.33,9.85,20.43,20.43,0,0,1-11.23-.44c-7.79-2.35-14.41-6.65-20.75-11.64A15.27,15.27,0,0,0,426,738.3a37.18,37.18,0,0,0-9.83,0,12,12,0,0,1-4.46-.43,6.92,6.92,0,0,1-4.52-6.61c.12-1.08.47.74.59-.06.35.27.1.83.53,1.05a3.91,3.91,0,0,0,2.73,3.53,11.12,11.12,0,0,0,5.23.81l6.68.09c2.79.18,5.34,1.49,8.1,1.76a6.42,6.42,0,0,1,3.79,1.86,60.64,60.64,0,0,0,15.8,10.29,22.93,22.93,0,0,0,18.35.56,62.07,62.07,0,0,0,18.72-11.4,3,3,0,0,1,1.93-1.06c3.53,0,6.72-1.78,10.2-2l6.69-.09c6.13.28,8.47-1.93,8.52-8.06,0-.8,0-1.6,0-2.4,0-2.21-.06-4.42,0-6.63a11,11,0,0,1,2.49-6.76c1.85-2.33,4.12-4.26,6-6.52a12.87,12.87,0,0,0,2.79-4.69C527,699.14,526.09,697.07,525.22,695Z"/><path class="cls-2" d="M518.48,715.71c0-.58.11-1.11.83-1.2Z"/><path class="cls-2" d="M517.64,718.27c0-.43-.25-.91.3-1.19C517.8,717.46,518,717.94,517.64,718.27Z"/><path class="cls-2" d="M517.91,717.12c0-.34-.14-.73.35-.87C518.12,716.53,518.23,716.91,517.91,717.12Z"/><path class="cls-2" d="M518.22,716.29c-.06-.28,0-.52.29-.62C518.44,715.89,518.48,716.16,518.22,716.29Z"/><path class="cls-4" d="M499.84,736.65c-3.48.23-6.67,2-10.2,2a3,3,0,0,0-1.93,1.06A62.07,62.07,0,0,1,469,751.12a22.93,22.93,0,0,1-18.35-.56,60.64,60.64,0,0,1-15.8-10.29,6.42,6.42,0,0,0-3.79-1.86c-2.76-.27-5.31-1.58-8.1-1.76.14-.07.38-.28.33-.28-2.34.06-4.69-.35-7,.19a11.12,11.12,0,0,1-5.23-.81,3.91,3.91,0,0,1-2.73-3.53c-.17-.61.48-1.44-.49-1.85l0-.59a9.79,9.79,0,0,0,0-4.78l0-1.16a3,3,0,0,0,.05-3.48c-.09-4.4-2.25-7.74-5.33-10.66a36.64,36.64,0,0,1-4.71-5.24,7.77,7.77,0,0,1-.82-8.25,41.4,41.4,0,0,1,4.45-7c1.78-2.48,3.65-4.92,4.42-8l.39-1.63s.07.07.11.08a.16.16,0,0,0,.12,0,20.42,20.42,0,0,0,.05-4.21,1.42,1.42,0,0,0-.28.37c-.57-4.18-1.8-8.27-1.93-12.52a7,7,0,0,1,4.68-7.14,47,47,0,0,1,9.21-2.58c5.68-1.17,9.69-4.51,12.88-9.14a26.15,26.15,0,0,1,5.6-6.14,8.07,8.07,0,0,1,8.1-1.25,81.6,81.6,0,0,1,8.08,3.67,18.19,18.19,0,0,0,17.07-.06c2.52-1.26,5.06-2.48,7.68-3.54,3.45-1.38,6.42-.63,9.17,1.66a39.87,39.87,0,0,1,6.38,7.35,18.72,18.72,0,0,0,11.41,7.22,60.74,60.74,0,0,1,8.29,2.24c1.71.65,3.42,1.34,4.43,3a14.31,14.31,0,0,1,.83,6c0,.2.16.41.24.62-.23,3-1,5.82-1.53,8.74a15.71,15.71,0,0,0,2.34,12.12c2,3,4.21,5.78,6,8.87.87,2.09,1.8,4.16,1.13,6.52a12.87,12.87,0,0,1-2.79,4.69c-1.92,2.26-4.19,4.19-6,6.52a11,11,0,0,0-2.49,6.76c0,2.21,0,4.42,0,6.63,0,.8,0,1.6,0,2.4,0,6.13-2.39,8.34-8.52,8.06-2.43-.56-4.87-.09-7.32,0Zm-49.93-29.83c.08.09.19.22.26,0a.42.42,0,0,0-.2-.54v-.58c.5-.07.58-.44.51-.82-.17-1,.43-2.11-.33-3a2.78,2.78,0,0,1-.2-.52,13.36,13.36,0,0,0-16.1-10.86A13.47,13.47,0,1,0,442,716C446.17,714.32,448.58,711,449.91,706.82Zm50.16-3.17a13.46,13.46,0,1,0-13.42,13.46A13.39,13.39,0,0,0,500.07,703.65ZM451.4,675.91a11.61,11.61,0,0,0-.26-1.67,38.49,38.49,0,0,0-13.46-19.39c-3.05-2.45-5.15-1.55-6.11,2.3a45.89,45.89,0,0,0-.72,15.59,26.55,26.55,0,0,0,1.74,7.38,8.16,8.16,0,0,0,7.71,5A10.82,10.82,0,0,0,450.52,679,6.14,6.14,0,0,0,451.4,675.91Zm41.32-8.29a36.74,36.74,0,0,0-1.09-10.82c-1.06-3.53-2.81-4.14-5.86-2.11a5.52,5.52,0,0,0-.47.32,44.15,44.15,0,0,0-12.68,17.38c-3,7.32,5,13.32,10.78,12.58,4.41-.56,7.15-2.9,8.18-7.32A44,44,0,0,0,492.72,667.62ZM468.1,728.83a21.83,21.83,0,0,0-1.5-7.21,15.53,15.53,0,0,0-3.14-5.92c-1.27-1.32-2.38-1.28-3.61.08a8.38,8.38,0,0,0-1,1.37,29.86,29.86,0,0,0-3.49,9.9c-.31,1.8-.54,3.66.46,5.36a6.92,6.92,0,0,0,7.63,2.93C466.72,734.44,468.19,732.45,468.1,728.83Zm-4,12.32a2.76,2.76,0,0,0,1.41,2.76,3,3,0,0,0,3.18-.33,5.68,5.68,0,0,0,2.49-5.59,2.61,2.61,0,0,0-3.38-2.07A5.53,5.53,0,0,0,464.07,741.15Zm-4.8-.09a5.64,5.64,0,0,0-3.47-5,2.57,2.57,0,0,0-3.6,1.84,5.56,5.56,0,0,0,2.56,5.79,2.92,2.92,0,0,0,3.07.26A3,3,0,0,0,459.27,741.06Z"/><path class="cls-4" d="M505.7,739.16l.85,0,1.11,0c3.1-.09,6-.66,8-3.31a7.63,7.63,0,0,0,1.65-4.48c.41-.12.45.13.52.44a61.43,61.43,0,0,1,1.5,18.63,57.34,57.34,0,0,1-13.12,32.44,20.51,20.51,0,0,0-4.3-4.62c-4.07-2.87-8.63-3.1-13.26-2.19a39.92,39.92,0,0,0-17.64,7.74,20,20,0,0,0-7.87,13.69,1.56,1.56,0,0,1-.15.39.87.87,0,0,0-.11-.09h-.12a22.82,22.82,0,0,0-.07,4.45c0,.1.2-.17.27-.3a4.28,4.28,0,0,1,.28,1.84h-2.67c-.45,0-.87,0-.87-.64l.6-2.11c.73-1.42.17-2.89.16-4.35l-.16.64c-.34-1.56-.44-3.15-.93-4.68-2-6.22-6.4-10.3-12-13.3a41.64,41.64,0,0,0-14.77-4.84,1.43,1.43,0,0,1-.38-.17s.06-.07.07-.11a.14.14,0,0,0,0-.12,15.69,15.69,0,0,0-4.22,0l.09.24a14.92,14.92,0,0,0-8.8,4.26,15.4,15.4,0,0,0-2.61,3.65c-.62-.14-.85-.71-1.18-1.14A57.44,57.44,0,0,1,404,751.3l0-.57a1.07,1.07,0,0,0-.14-.87,61.87,61.87,0,0,1,1.51-17.39,1.48,1.48,0,0,1,.23.38c1.26,4.48,4.65,6,8.86,6.27,1.87.13,3.75.16,5.63.23h-4.34v.36c1.25,0,2.49,0,3.73,0s2.8.3,4.16-.23a10,10,0,0,1,4.5,1.15,20.43,20.43,0,0,0,3.88,5,57.56,57.56,0,0,0,18.3,13.22c3.7,1.68,7.51,3.09,11.66,3a29.6,29.6,0,0,0,11.33-3.17,57.45,57.45,0,0,0,19-14.43c.94-1.06,2.09-2,2.46-3.53a9.86,9.86,0,0,1,4.55-1.22C501.4,739.3,503.55,739.24,505.7,739.16Z"/><path class="cls-4" d="M537.4,710c3-.06,5.16,1.62,7.27,3.36,6.16,5.11,10.56,11.35,12.12,19.35a23.6,23.6,0,0,1-.94,12.1,38.9,38.9,0,0,1-2.32,5,48.18,48.18,0,0,1-8.68,10.36c-8.71,8.37-18.57,14.42-30.92,15.51A72.62,72.62,0,0,0,519,763.77c.2-.7.79-.71,1.31-.88,6.07-2.1,11.92-4.61,16.77-9a31.54,31.54,0,0,0,5.25-5.7,21,21,0,0,0,4.5-15,28.82,28.82,0,0,0-4-11.64c-1.92-3.35-3.94-6.63-5.91-9.95C536.45,710.89,536.24,710.22,537.4,710Z"/><path class="cls-4" d="M503.15,801.47c-4-2.32-7.14-2.46-9.88.06-1.34,1.23-2.09,1.25-3.59.39a6.94,6.94,0,0,0-7.26.34,1,1,0,0,1-1.44-.09,7.52,7.52,0,0,0-8.25-1.58c-2.82,1.11-4.39,3.46-4.73,7.13a9.42,9.42,0,0,1-2.19-5.46c.27-2.65.53-5.3.8-8l0,0c.4-.18.31-.54.31-.86h0s.12,0,.12-.05a1.66,1.66,0,0,0-.06-.21,17.93,17.93,0,0,1,7.25-8.57c6-3.91,12.43-6.41,19.65-6.42a9.44,9.44,0,0,1,6.52,2.19c.09,1.07.79,1.89,1.12,2.86A40.23,40.23,0,0,1,503.15,801.47Z"/><path class="cls-4" d="M416.29,794.35a27.15,27.15,0,0,1,2.91-11.09c2.46-4.53,6.42-6.52,11.43-6.35s9.75,1.86,14.29,4a7.07,7.07,0,0,1,1,.72c.57,1.58,1.21,3.13,1.7,4.73a26.84,26.84,0,0,1,.56,13.32,7.9,7.9,0,0,0-6.17,2.9c-.32.39-.5.5-1,.17a7.49,7.49,0,0,0-8.95-.34c-.68.42-.91,0-1.29-.35a7.72,7.72,0,0,0-10-.44,7.89,7.89,0,0,0-2.73,4.29,6.56,6.56,0,0,1-1.55-3.37c0-1.86,0-3.74-.05-5.6C416.49,796.08,416.79,795.17,416.29,794.35Z"/><path class="cls-5" d="M494.7,740.63c-.37,1.49-1.52,2.47-2.46,3.53a57.45,57.45,0,0,1-19,14.43,29.6,29.6,0,0,1-11.33,3.17c-4.15.14-8-1.27-11.66-3A57.56,57.56,0,0,1,432,745.59a20.43,20.43,0,0,1-3.88-5c1.12.17,2.23.38,3.34.48.66.07,1,.52,1.39.89a68,68,0,0,0,16.47,10.84c7.7,3.61,15.26,3.23,22.9-.17a67.27,67.27,0,0,0,17.1-10.88,2.13,2.13,0,0,1,1.22-.64C491.92,741,493.31,740.8,494.7,740.63Z"/><path class="cls-5" d="M448.21,799.68a26.84,26.84,0,0,0-.56-13.32c-.49-1.6-1.13-3.15-1.7-4.73a11.86,11.86,0,0,1,4.2,2.49c6,4.65,8.52,10.72,7.12,18.27a7.25,7.25,0,0,1-1.65,3.58C454.56,802.13,452.11,800,448.21,799.68Z"/><path class="cls-5" d="M513.93,775.65c12.35-1.09,22.21-7.14,30.92-15.51a48.18,48.18,0,0,0,8.68-10.36,38.9,38.9,0,0,0,2.32-5c.94-.33.93-1.33,1.36-2a29.65,29.65,0,0,1,1.69-3.08h0C558,745,556.25,750,552.43,754c-1.58,1.67-3,3.51-4.62,5.13-7.28,7.27-15.29,13.41-25.54,15.86-2.37.57-4.79.87-7.2,1.21C514.75,776.23,513.86,776.74,513.93,775.65Z"/><path class="cls-5" d="M503.15,801.47a40.23,40.23,0,0,0-1.66-18.19c-.33-1-1-1.79-1.12-2.86,2.39,1.36,3.65,3.63,4.63,6a28.94,28.94,0,0,1,2.08,10.73,9.4,9.4,0,0,0,0,4.77,9.21,9.21,0,0,1-1.35,4.4A9.59,9.59,0,0,0,503.15,801.47Z"/><path class="cls-6" d="M486.41,811.16c-.88,0-1.73,0-2.57-.13-2-.21-2.82-1.34-2.45-3.28a5.19,5.19,0,0,1,5.21-4.06,5.1,5.1,0,0,1,4.91,4.55,2.18,2.18,0,0,1-1.77,2.6A21,21,0,0,1,486.41,811.16Z"/><path class="cls-7" d="M506.25,782.83a57.34,57.34,0,0,0,13.12-32.44,61.43,61.43,0,0,0-1.5-18.63c-.07-.31-.11-.56-.52-.44a16,16,0,0,0,.26-3.56,38.48,38.48,0,0,1,1.9,6.89,46.17,46.17,0,0,1,1.11,11,58.8,58.8,0,0,1-4.4,22.5,62.78,62.78,0,0,1-8.89,15C506.57,784.12,506.44,783.48,506.25,782.83Z"/><path class="cls-7" d="M537.4,710c-1.16.24-.95.91-.51,1.63,2,3.32,4,6.6,5.91,9.95a28.82,28.82,0,0,1,4,11.64,21,21,0,0,1-4.5,15l-1.17.16c.32-1.76,1.38-3.13,1.92-4.7,1.21-3.51,2.37-7,2.28-10.8-.08-3.53-1.38-6.62-2.83-9.75-1.7-3.69-4.23-6.86-6.06-10.45a4.69,4.69,0,0,1-.48-2.45c0-.39,0-.85.43-1A.76.76,0,0,1,537.4,710Z"/><path class="cls-6" d="M429,810.45a14.15,14.15,0,0,1-6.95-1.54c-1.44-.68-1.73-1.63-1.17-3.15a5.15,5.15,0,0,1,8.49-1.56.9.9,0,0,1,.11,1.22A6.61,6.61,0,0,0,429,810.45Z"/><path class="cls-6" d="M479.07,810.48a13.74,13.74,0,0,1-7.52-1.92,1.71,1.71,0,0,1-.8-2.06,4.79,4.79,0,0,1,3.72-3.76,5.16,5.16,0,0,1,4.9,1.4c.49.42.4.79.14,1.34A6.72,6.72,0,0,0,479.07,810.48Z"/><path class="cls-8" d="M446.78,802.52a4.86,4.86,0,0,1,6.08,3.52,1.88,1.88,0,0,1-.95,2.38,14.92,14.92,0,0,1-6.89,1.8c-.71,0-1.18-.18-1.06-1.06a7.73,7.73,0,0,0-.23-2.66A5.85,5.85,0,0,0,446.78,802.52Z"/><path class="cls-9" d="M441.33,807.67l0,.51a33.07,33.07,0,0,1-9.52,2c-1-1.08-.62-2.28-.19-3.41a5.09,5.09,0,0,1,5.07-3.08,4.89,4.89,0,0,1,4.46,3.65A.23.23,0,0,0,441.33,807.67Z"/><path class="cls-6" d="M494.3,810c-.67-.75-.09-1.64-.29-2.47-.64-2.65-.39-3.3,1.26-4.36a5,5,0,0,1,5.91.18,7.38,7.38,0,0,1,.85.91C500.32,807.32,497.49,808.9,494.3,810Z"/><path class="cls-7" d="M404,751.3a57.44,57.44,0,0,0,11.65,29.79c.33.43.56,1,1.18,1.14-.45,1-.76,1.11-1.54.1a59.68,59.68,0,0,1-9.37-17.24,51.21,51.21,0,0,1-2.71-11.88,13.11,13.11,0,0,1-.2-3.32C403.58,750.23,403.22,751.16,404,751.3Z"/><path class="cls-8" d="M494.3,810c3.19-1.08,6-2.66,7.73-5.74,1.74,2.47,1.35,3.87-1.5,4.84C498.53,809.76,496.52,810.67,494.3,810Z"/><path class="cls-8" d="M431.84,810.18a33.07,33.07,0,0,0,9.52-2c.11,2-.47,2.57-2.76,2.82a6.78,6.78,0,0,0-3.94,0A3.45,3.45,0,0,1,431.84,810.18Z"/><path class="cls-10" d="M446.78,802.52a5.85,5.85,0,0,1-3,4c-.86-1.21,0-2,.73-2.78A3.85,3.85,0,0,1,446.78,802.52Z"/><path class="cls-11" d="M459.74,803.11c0,.61.42.64.87.64h2.67c.1.33.42.89,0,.94a13.84,13.84,0,0,1-3.58,0C459.39,804.64,459.42,803.65,459.74,803.11Zm2.86,1.08,0-.13h-2.5v.13Z"/><path class="cls-12" d="M416.29,794.35c.5.82.2,1.73.23,2.59.06,1.86,0,3.74.05,5.6C415.78,799.84,416.11,797.09,416.29,794.35Z"/><path class="cls-12" d="M466.61,794.31c-.27,2.65-.53,5.3-.8,8A15,15,0,0,1,466.61,794.31Z"/><path class="cls-12" d="M518.4,665.25c-.08-.21-.25-.42-.24-.62a14.31,14.31,0,0,0-.83-6C518.86,660.66,518.69,662.94,518.4,665.25Z"/><path class="cls-13" d="M423.6,739.46c-1.36.53-2.77.16-4.16.23s-2.48,0-3.73,0v-.36h4.34Z"/><path class="cls-13" d="M407.88,720.36a3,3,0,0,1-.05,3.48Z"/><path class="cls-13" d="M463,801.9c-.07.13-.27.4-.27.3a22.82,22.82,0,0,1,.07-4.45h.12a.87.87,0,0,1,.11.09Z"/><path class="cls-13" d="M428.24,774.32l-.09-.24a15.69,15.69,0,0,1,4.22,0,.14.14,0,0,1,0,.12s-.05.07-.07.11Z"/><path class="cls-14" d="M507.07,802a9.4,9.4,0,0,1,0-4.77C507.08,798.78,507.07,800.37,507.07,802Z"/><path class="cls-13" d="M406.28,675.84a1.42,1.42,0,0,1,.28-.37,20.42,20.42,0,0,1-.05,4.21.16.16,0,0,1-.12,0s-.07,0-.11-.08Z"/><path class="cls-13" d="M407.81,725a9.79,9.79,0,0,1,0,4.78Z"/><path class="cls-13" d="M460.34,797.29l.16-.64c0,1.46.57,2.93-.16,4.35a1.09,1.09,0,0,1,0-.17.18.18,0,0,1,0-.09c0-.28,0-.55,0-.83Z"/><path class="cls-15" d="M434.66,811a6.78,6.78,0,0,1,3.94,0A20,20,0,0,1,434.66,811Z"/><path class="cls-13" d="M407.82,730.37c1,.41.32,1.24.49,1.85-.43-.22-.18-.78-.53-1.05C407.8,730.91,407.81,730.64,407.82,730.37Z"/><path class="cls-12" d="M466.9,793.47c0,.32.09.68-.31.86A1,1,0,0,1,466.9,793.47Z"/><path class="cls-7" d="M403.82,749.86a1.07,1.07,0,0,1,.14.87A1,1,0,0,1,403.82,749.86Z"/><path class="cls-3" d="M558.9,739.7l.12-.38.1.08-.2.31Z"/><path class="cls-16" d="M460.37,799.91c0,.28,0,.55,0,.83A.63.63,0,0,1,460.37,799.91Z"/><path class="cls-12" d="M467,793.22a1.66,1.66,0,0,1,.06.21s-.08,0-.12.05A.4.4,0,0,1,467,793.22Z"/><path class="cls-8" d="M441.33,807.67a.23.23,0,0,1-.15-.33Z"/><path class="cls-13" d="M499.84,736.65l-.63-.14c2.45,0,4.89-.51,7.32,0Z"/><path class="cls-13" d="M416.27,736.56c2.32-.54,4.67-.13,7-.19.05,0-.19.21-.33.28Z"/><path class="cls-2" d="M507.66,739.11l-1.11,0A.68.68,0,0,1,507.66,739.11Z"/><path class="cls-2" d="M450,705.73v.58l-.06.51c-1.33,4.19-3.74,7.5-7.9,9.2a13.47,13.47,0,1,1-8.15-25.54A13.36,13.36,0,0,1,450,701.34a2.78,2.78,0,0,0,.2.52A12.58,12.58,0,0,1,450,705.73Zm-13.27,8.79a10.91,10.91,0,0,0,10.94-10.89,11,11,0,0,0-11-10.92,10.86,10.86,0,0,0-10.87,10.94A10.74,10.74,0,0,0,436.71,714.52Z"/><path class="cls-2" d="M500.07,703.65a13.46,13.46,0,1,1-13.41-13.48A13.35,13.35,0,0,1,500.07,703.65Zm-13.56,10.88a10.91,10.91,0,0,0,.21-21.82,11,11,0,0,0-11,10.83A10.86,10.86,0,0,0,486.51,714.53Z"/><path class="cls-2" d="M451.4,675.91a6.14,6.14,0,0,1-.88,3.09,10.82,10.82,0,0,1-10.22,6.12,8.16,8.16,0,0,1-7.71-5,26.55,26.55,0,0,1-1.74-7.38,45.89,45.89,0,0,1,.72-15.59c1-3.85,3.06-4.75,6.11-2.3a38.49,38.49,0,0,1,13.46,19.39A11.61,11.61,0,0,1,451.4,675.91Zm-17-19.11a6.31,6.31,0,0,0-.35.91,42.81,42.81,0,0,0,.26,19.53c.9,3.51,2.4,4.73,5.94,5.13,2.2.26,5.88-1.13,6.57-2.92a4.31,4.31,0,0,0,.56-.39c1.69-1.83,1.58-3.9.73-6A41.09,41.09,0,0,0,441,661.57a23.53,23.53,0,0,0-5.35-5C435.26,656.3,434.68,655.79,434.44,656.8Z"/><path class="cls-2" d="M492.72,667.62a44,44,0,0,1-1.14,10c-1,4.42-3.77,6.76-8.18,7.32-5.75.74-13.78-5.26-10.78-12.58A44.15,44.15,0,0,1,485.3,655a5.52,5.52,0,0,1,.47-.32c3.05-2,4.8-1.42,5.86,2.11A36.74,36.74,0,0,1,492.72,667.62Zm-2.59-.84a32.61,32.61,0,0,0-.87-9c-.45-1.88-.74-2-2.35-.8l-.22.17a41.57,41.57,0,0,0-11.57,15.89c-1.18,2.81-.39,5.08,1.73,7.08,4.4,4.14,10.68,2.45,12.25-3.34A34.5,34.5,0,0,0,490.13,666.78Z"/><path class="cls-2" d="M468.1,728.83c.09,3.62-1.38,5.61-4.64,6.51a6.92,6.92,0,0,1-7.63-2.93c-1-1.7-.77-3.56-.46-5.36a29.86,29.86,0,0,1,3.49-9.9,8.38,8.38,0,0,1,1-1.37c1.23-1.36,2.34-1.4,3.61-.08a15.53,15.53,0,0,1,3.14,5.92A21.83,21.83,0,0,1,468.1,728.83Zm-6.38-11.25c-2.18,2.86-4.18,9.16-3.93,12.32.14,1.9,1.68,3.08,4,3s3.64-1.32,3.72-3.17a15.07,15.07,0,0,0-.6-4.73A23,23,0,0,0,461.72,717.58Z"/><path class="cls-17" d="M464.07,741.15a5.53,5.53,0,0,1,3.7-5.23,2.61,2.61,0,0,1,3.38,2.07,5.68,5.68,0,0,1-2.49,5.59,3,3,0,0,1-3.18.33A2.76,2.76,0,0,1,464.07,741.15Z"/><path class="cls-17" d="M459.27,741.06a3,3,0,0,1-1.44,2.85,2.92,2.92,0,0,1-3.07-.26,5.56,5.56,0,0,1-2.56-5.79,2.57,2.57,0,0,1,3.6-1.84A5.64,5.64,0,0,1,459.27,741.06Z"/><path class="cls-13" d="M450,705.73a12.58,12.58,0,0,0,.18-3.87c.76.94.16,2,.33,3C450.56,705.29,450.48,705.66,450,705.73Z"/><path class="cls-13" d="M449.91,706.82l.06-.51a.42.42,0,0,1,.2.54C450.1,707,450,706.91,449.91,706.82Z"/><path class="cls-2" d="M462.6,804.19h-2.48v-.13h2.5Z"/><path class="cls-9" d="M436.71,714.52a10.74,10.74,0,0,1-10.89-10.87,10.86,10.86,0,0,1,10.87-10.94,11,11,0,0,1,11,10.92A10.91,10.91,0,0,1,436.71,714.52Zm-1-8.67a4,4,0,1,0,8,0,4,4,0,1,0-8,0Z"/><path class="cls-9" d="M486.51,714.53a10.86,10.86,0,0,1-10.82-11,10.9,10.9,0,1,1,21.8.36A10.77,10.77,0,0,1,486.51,714.53Zm-2.61-12.76a4,4,0,0,0-4,4,4,4,0,1,0,8,0A3.94,3.94,0,0,0,483.9,701.77Z"/><path class="cls-9" d="M446.86,679.45c-.69,1.79-4.37,3.18-6.57,2.92-3.54-.4-5-1.62-5.94-5.13a42.81,42.81,0,0,1-.26-19.53,6.31,6.31,0,0,1,.35-.91,10.69,10.69,0,0,1,2.08,1.66,40.27,40.27,0,0,1,7.4,10.57C445.57,672.3,447.17,675.61,446.86,679.45Z"/><path class="cls-8" d="M446.86,679.45c.31-3.84-1.29-7.15-2.94-10.42a40.27,40.27,0,0,0-7.4-10.57,10.69,10.69,0,0,0-2.08-1.66c.24-1,.82-.5,1.25-.23a23.53,23.53,0,0,1,5.35,5A41.09,41.09,0,0,1,448.15,673c.85,2.15,1,4.22-.73,6A4.31,4.31,0,0,1,446.86,679.45Z"/><path class="cls-9" d="M490.13,666.78a34.5,34.5,0,0,1-1,10c-1.57,5.79-7.85,7.48-12.25,3.34-2.12-2-2.91-4.27-1.73-7.08a41.57,41.57,0,0,1,11.57-15.89l.22-.17c1.61-1.16,1.9-1.08,2.35.8A32.61,32.61,0,0,1,490.13,666.78Z"/><path class="cls-10" d="M461.72,717.58a23,23,0,0,1,3.16,7.46,15.07,15.07,0,0,1,.6,4.73c-.08,1.85-1.58,3.14-3.72,3.17s-3.83-1.14-4-3C457.54,726.74,459.54,720.44,461.72,717.58Z"/><path class="cls-2" d="M435.72,705.85a4,4,0,1,1,8,0,4,4,0,1,1-8,0Z"/><path class="cls-2" d="M483.9,701.77a3.94,3.94,0,0,1,4,4,4,4,0,1,1-8,0A4,4,0,0,1,483.9,701.77Z"/></g></svg>