<svg xmlns="http://www.w3.org/2000/svg" viewBox="0 0 207.31 225.17"><defs><style>.cls-1{fill:#0c090e;}.cls-2{fill:#271c32;}.cls-3{fill:#00a651;}.cls-4{fill:#006838;}.cls-5{fill:#f9f9f9;}.cls-6{fill:#271d33;}.cls-7{fill:#afafb0;}.cls-8{fill:#fbfbfb;}.cls-9{fill:#f2f1f1;}.cls-10{fill:#352744;}.cls-11{fill:#7c5c9c;}.cls-12{fill:#8362a8;}.cls-13{fill:#5c4578;}.cls-14{fill:#c7c7c7;}.cls-15{fill:#76579a;}.cls-16{fill:#06030a;}</style></defs><g id="Layer_22" data-name="Layer 22"><path class="cls-1" d="M198.64,128.14c-.69,2.14-1,4.39-1.79,6.5a35.9,35.9,0,0,1-7.38,11.5c-6,6.35-12.52,12-20.48,15.83a45.24,45.24,0,0,1-17,4.38,1.53,1.53,0,0,0-1.39.73,40.6,40.6,0,0,1-3.86,5.19,1.7,1.7,0,0,0-.26,2A37.08,37.08,0,0,1,148.47,191c-.59,5.75-4.58,9.63-10.64,11a30,30,0,0,1-6.4.89c-.25,0-.58-.12-.72.25H119.39c-1.68-.55-3.47-.45-5.19-.83-3.93-.85-7.83-2-9.87-5.73-1.25-2.27-2.68-2.7-4.92-2.56a2.93,2.93,0,0,0-2.68,1.43c-2.12,3.21-5.44,4.66-9,5.4-6.46,1.31-13,1.16-19.53.64a24.86,24.86,0,0,1-7.9-1.78,11.84,11.84,0,0,1-7.67-10.5,39,39,0,0,1,1.77-15.69,1.59,1.59,0,0,0-.45-1.72A58.63,58.63,0,0,1,43.25,152a60,60,0,0,1-2.31-24.77c.49-4.29,1.76-8.39,2.71-12.57,1.13-5,1.17-10-3.08-14a53.62,53.62,0,0,1-5.46-5.91c-3.16-4-3.34-8.14-1-12.56a46.72,46.72,0,0,1,5.1-7.55c3.39-4.22,4-8.87,2.84-14a45,45,0,0,1-1.34-8.74c-.22-6.15,3.13-8.79,7.3-10.37a37.18,37.18,0,0,1,7.14-1.94,18.68,18.68,0,0,0,13-8.72,30.3,30.3,0,0,1,4.17-4.95c3.92-3.81,8.36-5,13.48-2.65,2.67,1.21,5.34,2.42,8,3.67a14.78,14.78,0,0,0,13,0c3.1-1.4,6.1-3,9.31-4.2,4.3-1.6,8-.51,11.33,2.28a30.59,30.59,0,0,1,5.72,6.42,18,18,0,0,0,12,7.84,41,41,0,0,1,8.58,2.45c4.77,2.08,6.79,5.56,6.34,10.71-.29,3.37-1.09,6.65-1.67,10a13.62,13.62,0,0,0,2.07,10.7,96.8,96.8,0,0,1,5.52,8.13c1.82,3.3,2.92,6.69,1.31,10.43a14.29,14.29,0,0,1-2.48,3.9c-1.75,2-3.63,3.82-5.45,5.72a1.54,1.54,0,0,1,.58-1.35c1.67-1.83,3.35-3.66,5-5.54,2.18-2.55,3.24-5.38,1.68-8.65-.61-1.29-1.36-2.51-2-3.77-.23.35.08.88-.38,1.15-1.81-3.09-4-5.91-6-8.87a15.74,15.74,0,0,1-2.33-12.12c.52-2.92,1.3-5.78,1.53-8.74.29-2.31.46-4.59-1.07-6.6-1-1.7-2.72-2.38-4.43-3a61.53,61.53,0,0,0-8.29-2.24,18.74,18.74,0,0,1-11.42-7.22A39.76,39.76,0,0,0,125.71,27c-2.76-2.29-5.72-3-9.17-1.66-2.62,1.06-5.16,2.28-7.68,3.54a18.19,18.19,0,0,1-17.07.06,81.77,81.77,0,0,0-8.09-3.67,8,8,0,0,0-8.09,1.25A25.73,25.73,0,0,0,70,32.61c-3.19,4.63-7.21,8-12.88,9.14a47,47,0,0,0-9.21,2.58,7,7,0,0,0-4.68,7.14c.13,4.26,1.36,8.34,1.92,12.52v3.76c-.13.54-.26,1.09-.4,1.63-.77,3-2.64,5.48-4.41,8a41.4,41.4,0,0,0-4.45,7,7.77,7.77,0,0,0,.81,8.25,37.32,37.32,0,0,0,4.72,5.24c3.08,2.92,5.24,6.26,5.33,10.66L46.71,112l0,1.16v5.37l0,.8c-.12.8-.47-1-.6.06A7,7,0,0,0,50.59,126a12,12,0,0,0,4.47.43,37.19,37.19,0,0,1,9.83,0,15.19,15.19,0,0,1,7.24,3.15c6.34,5,13,9.29,20.75,11.64a20.47,20.47,0,0,0,11.24.44,52.08,52.08,0,0,0,19.33-9.85,15.8,15.8,0,0,1,7-3.42,8.15,8.15,0,0,0,2.45-.6c3.54-1.93,7.31-1.28,11-1.08.39,0,.62.18.65.58-2.14.08-4.29.14-6.44.25a9.83,9.83,0,0,0-4.55,1.22c-1.39.17-2.79.36-4.18.5a2.13,2.13,0,0,0-1.22.64,67.45,67.45,0,0,1-17.1,10.88c-7.64,3.4-15.21,3.78-22.91.17a67.92,67.92,0,0,1-16.46-10.84c-.41-.37-.74-.82-1.39-.89-1.12-.1-2.23-.31-3.34-.48a10,10,0,0,0-4.5-1.15l-3.55-.11c-1.88-.07-3.76-.1-5.63-.23-4.21-.3-7.6-1.79-8.86-6.27a1.83,1.83,0,0,0-.23-.38A61.88,61.88,0,0,0,42.7,138a1,1,0,0,0,.15.87l0,.57c-.78-.14-.42-1.07-1-1.41a12.64,12.64,0,0,0,.2,3.32,50.71,50.71,0,0,0,2.71,11.88,59.68,59.68,0,0,0,9.37,17.24c.78,1,1.09.92,1.54-.1a15.64,15.64,0,0,1,2.6-3.65,14.92,14.92,0,0,1,8.81-4.26l4.06,0a1.49,1.49,0,0,0,.39.17,41.7,41.7,0,0,1,14.77,4.84c5.55,3,9.94,7.08,11.94,13.3a46.69,46.69,0,0,1,.94,4.68l0,2.62a.64.64,0,0,0,0,.83s0,.06,0,.09a1.09,1.09,0,0,0,0,.17l-.6,2.11c-.33.54-.35,1.53-.07,1.57a13.76,13.76,0,0,0,3.57,0c.46-.05.13-.61,0-.94a4.13,4.13,0,0,0-.27-1.84l0-4.06a1.56,1.56,0,0,0,.15-.39,19.91,19.91,0,0,1,7.86-13.69,40,40,0,0,1,17.65-7.74c4.62-.91,9.18-.68,13.26,2.19a20.25,20.25,0,0,1,4.29,4.62c.2.65.32,1.29,1.09.34a63,63,0,0,0,8.89-15,58.8,58.8,0,0,0,4.4-22.5,46.17,46.17,0,0,0-1.11-11,38.48,38.48,0,0,0-1.9-6.89,16,16,0,0,1-.26,3.56,7.63,7.63,0,0,1-1.65,4.48c-.74-.67.1-1.2.22-1.75a60.89,60.89,0,0,0,1.12-11.74,9.85,9.85,0,0,1,.61-4c-.88,4.31.86,8.18,2,12.16a59.7,59.7,0,0,1,1.72,21.5,69.6,69.6,0,0,1-1.37,8.32,49.77,49.77,0,0,0,8.36-3.5,31.58,31.58,0,0,0,14.09-13.51c2.91-5.59,2.4-11.28-.08-16.9a92.36,92.36,0,0,0-6.31-11.07,12.16,12.16,0,0,1-2.09-4.4c-.28-1.74.45-2.74,2.18-3.16a8,8,0,0,1,6.1.89,36.83,36.83,0,0,1,14.67,16.09,25.66,25.66,0,0,1,2.62,9.08c0,.1.16.19.24.28Zm-92.86,53.49h0a1.06,1.06,0,0,0-.32.86l0,0a15.08,15.08,0,0,0-.79,7.95,9.41,9.41,0,0,0,2.18,5.46c.35-3.67,1.92-6,4.74-7.13a7.52,7.52,0,0,1,8.25,1.58,1,1,0,0,0,1.43.1,6.94,6.94,0,0,1,7.26-.35c1.5.86,2.26.84,3.59-.39,2.74-2.52,5.87-2.38,9.89-.06a9.75,9.75,0,0,1,2.57,4.89,9.19,9.19,0,0,0,1.34-4.4l0-4.77a28.75,28.75,0,0,0-2.09-10.73c-1-2.41-2.23-4.68-4.63-6a9.42,9.42,0,0,0-6.52-2.19c-7.22,0-13.69,2.51-19.64,6.42a17.88,17.88,0,0,0-7.25,8.57A.4.4,0,0,0,105.78,181.63ZM73.55,199.17a19.85,19.85,0,0,0,3.93,0c2.29-.25,2.87-.84,2.76-2.82l0-.51-.16-.33a4.89,4.89,0,0,0-4.46-3.65,5.08,5.08,0,0,0-5.06,3.08c-.43,1.13-.82,2.33.18,3.41A3.48,3.48,0,0,0,73.55,199.17Zm59.63-1c2.22.69,4.23-.22,6.24-.9,2.85-1,3.24-2.37,1.49-4.84a7.31,7.31,0,0,0-.84-.91,5,5,0,0,0-5.91-.18c-1.65,1.06-1.9,1.71-1.26,4.36C133.1,196.5,132.52,197.38,133.18,198.13Zm-50.56-3.48a7.73,7.73,0,0,1,.23,2.66c-.13.88.35,1.07,1.06,1.06a14.88,14.88,0,0,0,6.88-1.8,1.87,1.87,0,0,0,1-2.38,4.86,4.86,0,0,0-6.08-3.52,3.82,3.82,0,0,0-2.32,1.2C82.57,192.62,81.76,193.44,82.62,194.65Zm115.17-66.8a27.89,27.89,0,0,0-1.69,3.08c-.44.68-.42,1.68-1.37,2a23.6,23.6,0,0,0,1-12.1c-1.57-8-6-14.24-12.13-19.35-2.1-1.74-4.3-3.42-7.27-3.36a.75.75,0,0,0-1-.71c-.42.1-.41.56-.43,1a4.89,4.89,0,0,0,.48,2.45c1.84,3.59,4.36,6.76,6.07,10.45,1.44,3.13,2.74,6.22,2.82,9.75.09,3.8-1.06,7.29-2.27,10.8-.54,1.57-1.61,2.94-1.93,4.7l1.18-.16a31.91,31.91,0,0,1-5.25,5.7c-4.86,4.37-10.7,6.88-16.78,9-.51.17-1.1.18-1.31.88a71.76,71.76,0,0,1-5.06,11.88c-.06,1.09.83.58,1.15.53,2.4-.34,4.83-.64,7.19-1.21,10.26-2.45,18.27-8.59,25.55-15.86,1.62-1.62,3-3.46,4.62-5.13,3.81-4,5.59-8.94,6.48-14.27l.21-.31-.11-.08Zm-110.7,60c3.91.33,6.36,2.45,7.42,6.29a7.25,7.25,0,0,0,1.65-3.58c1.4-7.55-1.1-13.62-7.13-18.27a11.69,11.69,0,0,0-4.2-2.49,7,7,0,0,0-1-.72c-4.54-2.14-9.24-3.83-14.3-4s-9,1.82-11.43,6.35a27,27,0,0,0-2.9,11.09c-.18,2.74-.51,5.49.27,8.19A6.66,6.66,0,0,0,57,194.06a7.83,7.83,0,0,1,2.73-4.29,7.73,7.73,0,0,1,10,.44c.38.32.61.77,1.28.35a7.51,7.51,0,0,1,9,.34c.47.33.65.22,1-.17A7.92,7.92,0,0,1,87.09,187.83Zm38.2,11.48a21.2,21.2,0,0,0,3.34-.32,2.18,2.18,0,0,0,1.77-2.6,5.11,5.11,0,0,0-4.91-4.55,5.17,5.17,0,0,0-5.21,4.06c-.38,1.94.45,3.07,2.45,3.28C123.57,199.27,124.42,199.27,125.29,199.31Zm-57.41-.71a6.61,6.61,0,0,1,.48-5,.91.91,0,0,0-.11-1.22,5.15,5.15,0,0,0-8.49,1.56c-.56,1.52-.27,2.47,1.16,3.15A14.19,14.19,0,0,0,67.88,198.6Zm50.08,0a6.72,6.72,0,0,1,.44-5c.26-.55.34-.92-.14-1.34a5.17,5.17,0,0,0-4.9-1.4,4.79,4.79,0,0,0-3.72,3.76,1.71,1.71,0,0,0,.8,2.06A13.74,13.74,0,0,0,118,198.63Z"/><path class="cls-2" d="M164.11,83.13c.46-.27.15-.8.38-1.15.68,1.26,1.43,2.48,2,3.77,1.56,3.27.5,6.1-1.68,8.65-1.61,1.88-3.29,3.71-5,5.54a1.54,1.54,0,0,0-.58,1.35l-1.12,1.37c-.72.09-.81.62-.83,1.2l0,0c-.33.1-.35.34-.29.62l0,0c-.48.14-.35.53-.34.87l0,0c-.55.28-.3.77-.31,1.19h0a9.85,9.85,0,0,0-.61,4,60.89,60.89,0,0,1-1.12,11.74c-.12.55-1,1.08-.22,1.75-2,2.65-4.94,3.22-8,3.31a.69.69,0,0,0-1.12,0l-.85,0c0-.4-.26-.56-.65-.58-3.73-.2-7.5-.85-11,1.08a8.15,8.15,0,0,1-2.45.6,15.8,15.8,0,0,0-7,3.42,52.08,52.08,0,0,1-19.33,9.85,20.47,20.47,0,0,1-11.24-.44c-7.78-2.35-14.41-6.65-20.75-11.64a15.19,15.19,0,0,0-7.24-3.15,37.19,37.19,0,0,0-9.83,0,12,12,0,0,1-4.47-.43,7,7,0,0,1-4.52-6.61c.13-1.08.48.74.6-.06.35.27.1.83.52,1.05a3.94,3.94,0,0,0,2.74,3.53,11.1,11.1,0,0,0,5.22.81l6.69.09c2.79.18,5.34,1.49,8.09,1.76a6.41,6.41,0,0,1,3.8,1.86,60.75,60.75,0,0,0,15.79,10.29,23,23,0,0,0,18.36.56,61.9,61.9,0,0,0,18.71-11.4,3.09,3.09,0,0,1,1.94-1.06c3.53,0,6.71-1.78,10.2-2l6.68-.09c6.14.28,8.48-1.93,8.53-8.06,0-.8,0-1.6,0-2.4,0-2.21,0-4.42,0-6.63a11,11,0,0,1,2.49-6.76c1.85-2.33,4.12-4.26,6-6.52a12.71,12.71,0,0,0,2.78-4.69C165.91,87.29,165,85.22,164.11,83.13Z"/><path class="cls-1" d="M157.36,103.86c0-.58.11-1.11.83-1.2Z"/><path class="cls-1" d="M156.52,106.42c0-.42-.24-.91.31-1.19C156.68,105.61,156.89,106.09,156.52,106.42Z"/><path class="cls-1" d="M156.8,105.27c0-.34-.14-.73.34-.87C157,104.68,157.12,105.07,156.8,105.27Z"/><path class="cls-1" d="M157.11,104.44c-.06-.28,0-.52.29-.62C157.32,104,157.37,104.31,157.11,104.44Z"/><path class="cls-3" d="M138.73,124.8c-3.49.23-6.67,2-10.2,2a3.09,3.09,0,0,0-1.94,1.06,61.9,61.9,0,0,1-18.71,11.4,23,23,0,0,1-18.36-.56,60.75,60.75,0,0,1-15.79-10.29,6.41,6.41,0,0,0-3.8-1.86c-2.75-.27-5.3-1.58-8.09-1.76.14-.07.37-.28.33-.28-2.34.06-4.69-.35-7,.19a11.1,11.1,0,0,1-5.22-.81,3.94,3.94,0,0,1-2.74-3.53c-.16-.61.48-1.44-.49-1.85v-.59a9.67,9.67,0,0,0,0-4.78l0-1.16a3,3,0,0,0,.06-3.48c-.09-4.4-2.25-7.74-5.33-10.66a37.32,37.32,0,0,1-4.72-5.24,7.77,7.77,0,0,1-.81-8.25,41.4,41.4,0,0,1,4.45-7c1.77-2.48,3.64-4.92,4.41-8,.14-.54.27-1.09.4-1.63a.28.28,0,0,0,.11.08.16.16,0,0,0,.12,0,20.42,20.42,0,0,0,0-4.21,1.7,1.7,0,0,0-.28.37c-.56-4.18-1.79-8.26-1.92-12.52a7,7,0,0,1,4.68-7.14,47,47,0,0,1,9.21-2.58c5.67-1.17,9.69-4.51,12.88-9.14a25.73,25.73,0,0,1,5.6-6.14,8,8,0,0,1,8.09-1.25,81.77,81.77,0,0,1,8.09,3.67,18.19,18.19,0,0,0,17.07-.06c2.52-1.26,5.06-2.48,7.68-3.54,3.45-1.38,6.41-.63,9.17,1.66a39.76,39.76,0,0,1,6.37,7.35,18.74,18.74,0,0,0,11.42,7.22,61.53,61.53,0,0,1,8.29,2.24c1.71.66,3.42,1.34,4.43,3a14.48,14.48,0,0,1,.83,6,1.66,1.66,0,0,0,.24.62c-.23,3-1,5.82-1.53,8.74a15.74,15.74,0,0,0,2.33,12.12c2,3,4.21,5.78,6,8.87.87,2.09,1.8,4.16,1.12,6.52a12.71,12.71,0,0,1-2.78,4.69c-1.92,2.26-4.19,4.19-6,6.52a11,11,0,0,0-2.49,6.76c0,2.21,0,4.42,0,6.63,0,.8,0,1.6,0,2.4-.05,6.13-2.39,8.34-8.53,8.06-2.42-.56-4.86-.09-7.31,0ZM88.79,95c.09.09.2.22.27,0a.43.43,0,0,0-.2-.54v-.58c.51-.07.58-.44.52-.82-.18-1,.43-2.11-.34-3a5.55,5.55,0,0,1-.2-.52A13.35,13.35,0,0,0,72.75,78.63a13.47,13.47,0,0,0-5.65,23.61,12.86,12.86,0,0,0,13.8,1.93C85.06,102.47,87.47,99.16,88.79,95ZM139,91.8a13.47,13.47,0,1,0-13.43,13.46A13.4,13.4,0,0,0,139,91.8ZM90.29,64.06A13.19,13.19,0,0,0,90,62.39,38.49,38.49,0,0,0,76.57,43c-3.06-2.45-5.16-1.55-6.11,2.3a45.39,45.39,0,0,0-.72,15.59,26.2,26.2,0,0,0,1.74,7.38,8.16,8.16,0,0,0,7.71,5,10.82,10.82,0,0,0,10.22-6.12A6.14,6.14,0,0,0,90.29,64.06Zm41.32-8.29A37.07,37.07,0,0,0,130.52,45c-1.06-3.53-2.81-4.14-5.87-2.11-.15.11-.32.2-.46.32a44.05,44.05,0,0,0-12.68,17.38c-3,7.32,5,13.32,10.77,12.58,4.41-.56,7.15-2.9,8.19-7.32A44,44,0,0,0,131.61,55.77ZM107,117a21.83,21.83,0,0,0-1.5-7.21,15.53,15.53,0,0,0-3.14-5.92c-1.27-1.32-2.38-1.28-3.61.08a7.83,7.83,0,0,0-1,1.37,29.88,29.88,0,0,0-3.5,9.9c-.3,1.8-.53,3.66.46,5.36a6.93,6.93,0,0,0,7.64,2.93C105.6,122.59,107.07,120.6,107,117Zm-4,12.32a2.75,2.75,0,0,0,1.4,2.76,3,3,0,0,0,3.19-.33,5.68,5.68,0,0,0,2.49-5.59,2.61,2.61,0,0,0-3.38-2.07A5.51,5.51,0,0,0,103,129.3Zm-4.8-.09a5.66,5.66,0,0,0-3.47-5,2.57,2.57,0,0,0-3.6,1.84,5.56,5.56,0,0,0,2.56,5.79,2.88,2.88,0,0,0,3.06.26A2.94,2.94,0,0,0,98.16,129.21Z"/><path class="cls-3" d="M144.58,127.31l.85,0,1.12,0c3.1-.09,6-.66,8-3.31a7.63,7.63,0,0,0,1.65-4.48c.4-.12.45.13.52.44a61.15,61.15,0,0,1,1.49,18.64A57.27,57.27,0,0,1,145.13,171a20.25,20.25,0,0,0-4.29-4.62c-4.08-2.87-8.64-3.1-13.26-2.19a40,40,0,0,0-17.65,7.74,19.91,19.91,0,0,0-7.86,13.69,1.56,1.56,0,0,1-.15.39.87.87,0,0,0-.11-.09.27.27,0,0,0-.13,0,22.82,22.82,0,0,0-.07,4.45c0,.1.21-.17.28-.3a4.13,4.13,0,0,1,.27,1.84H99.49c-.44,0-.87,0-.86-.64l.6-2.11c.73-1.42.16-2.89.15-4.35l-.15.64a46.69,46.69,0,0,0-.94-4.68c-2-6.22-6.39-10.3-11.94-13.3a41.7,41.7,0,0,0-14.77-4.84,1.49,1.49,0,0,1-.39-.17s.07-.07.08-.11a.2.2,0,0,0,0-.12,15.77,15.77,0,0,0-4.23,0l.1.24a14.92,14.92,0,0,0-8.81,4.26,15.64,15.64,0,0,0-2.6,3.65c-.62-.14-.86-.71-1.18-1.14a57.35,57.35,0,0,1-11.65-29.79l0-.57a1,1,0,0,0-.15-.87,61.88,61.88,0,0,1,1.52-17.39,1.83,1.83,0,0,1,.23.38c1.26,4.48,4.65,6,8.86,6.27,1.87.13,3.75.16,5.63.23H54.6v.36c1.24,0,2.49,0,3.73,0s2.8.3,4.16-.23a10,10,0,0,1,4.5,1.15,20.63,20.63,0,0,0,3.87,5A57.6,57.6,0,0,0,89.17,147c3.69,1.68,7.51,3.09,11.66,2.95a29.6,29.6,0,0,0,11.33-3.17,57.66,57.66,0,0,0,19-14.43c.94-1.06,2.09-2,2.46-3.53a9.83,9.83,0,0,1,4.55-1.22C140.29,127.45,142.44,127.39,144.58,127.31Z"/><path class="cls-3" d="M176.28,98.13c3-.06,5.17,1.62,7.27,3.36,6.17,5.11,10.56,11.35,12.13,19.35a23.6,23.6,0,0,1-1,12.1,38.84,38.84,0,0,1-2.31,5,47.94,47.94,0,0,1-8.69,10.36c-8.7,8.37-18.57,14.42-30.92,15.51a71.76,71.76,0,0,0,5.06-11.88c.21-.7.8-.71,1.31-.88,6.08-2.1,11.92-4.61,16.78-9a31.91,31.91,0,0,0,5.25-5.7,21,21,0,0,0,4.49-15,29,29,0,0,0-4-11.64c-1.92-3.35-3.94-6.63-5.92-9.94C175.34,99,175.12,98.37,176.28,98.13Z"/><path class="cls-3" d="M142,189.62c-4-2.32-7.15-2.46-9.89.06-1.33,1.23-2.09,1.25-3.59.39a6.94,6.94,0,0,0-7.26.35,1,1,0,0,1-1.43-.1,7.52,7.52,0,0,0-8.25-1.58c-2.82,1.11-4.39,3.46-4.74,7.13a9.41,9.41,0,0,1-2.18-5.46c.26-2.65.53-5.3.79-7.95l0,0c.41-.18.31-.54.32-.86h0l.12,0a1.66,1.66,0,0,0-.06-.21,17.88,17.88,0,0,1,7.25-8.57c6-3.91,12.42-6.41,19.64-6.42a9.42,9.42,0,0,1,6.52,2.19c.09,1.07.79,1.89,1.13,2.86A40.37,40.37,0,0,1,142,189.62Z"/><path class="cls-3" d="M55.18,182.5a27,27,0,0,1,2.9-11.09c2.47-4.53,6.42-6.52,11.43-6.35s9.76,1.86,14.3,4a7,7,0,0,1,1,.72c.57,1.58,1.22,3.13,1.7,4.73a26.61,26.61,0,0,1,.56,13.32,7.92,7.92,0,0,0-6.17,2.9c-.31.39-.49.5-1,.17a7.51,7.51,0,0,0-9-.34c-.67.42-.9,0-1.28-.35a7.73,7.73,0,0,0-10-.44A7.83,7.83,0,0,0,57,194.06a6.66,6.66,0,0,1-1.56-3.37c0-1.86,0-3.74,0-5.6C55.38,184.23,55.68,183.32,55.18,182.5Z"/><path class="cls-4" d="M133.59,128.78c-.37,1.49-1.52,2.47-2.46,3.53a57.66,57.66,0,0,1-19,14.43,29.6,29.6,0,0,1-11.33,3.17c-4.15.14-8-1.27-11.66-2.95a57.6,57.6,0,0,1-18.31-13.22,20.63,20.63,0,0,1-3.87-5c1.11.17,2.22.38,3.34.48.65.07,1,.52,1.39.89A67.92,67.92,0,0,0,88.18,141c7.7,3.61,15.27,3.23,22.91-.17a67.45,67.45,0,0,0,17.1-10.88,2.13,2.13,0,0,1,1.22-.64C130.8,129.14,132.2,129,133.59,128.78Z"/><path class="cls-4" d="M87.09,187.83a26.61,26.61,0,0,0-.56-13.32c-.48-1.6-1.13-3.15-1.7-4.73a11.69,11.69,0,0,1,4.2,2.49c6,4.65,8.53,10.72,7.13,18.27a7.25,7.25,0,0,1-1.65,3.58C93.45,190.28,91,188.16,87.09,187.83Z"/><path class="cls-4" d="M152.81,163.8c12.35-1.09,22.22-7.14,30.92-15.51a47.94,47.94,0,0,0,8.69-10.36,38.84,38.84,0,0,0,2.31-5c1-.33.93-1.33,1.37-2a27.89,27.89,0,0,1,1.69-3.08h0c-.89,5.33-2.67,10.26-6.48,14.27-1.58,1.67-3,3.51-4.62,5.13-7.28,7.27-15.29,13.41-25.55,15.86-2.36.57-4.79.87-7.19,1.21C153.64,164.38,152.75,164.89,152.81,163.8Z"/><path class="cls-4" d="M142,189.62a40.37,40.37,0,0,0-1.66-18.19c-.34-1-1-1.79-1.13-2.86,2.4,1.36,3.65,3.63,4.63,6A28.75,28.75,0,0,1,146,185.34a9.52,9.52,0,0,0,0,4.77,9.19,9.19,0,0,1-1.34,4.4A9.75,9.75,0,0,0,142,189.62Z"/><path class="cls-5" d="M125.29,199.31c-.87,0-1.72,0-2.56-.13-2-.21-2.83-1.34-2.45-3.28a5.17,5.17,0,0,1,5.21-4.06,5.11,5.11,0,0,1,4.91,4.55,2.18,2.18,0,0,1-1.77,2.6A21.2,21.2,0,0,1,125.29,199.31Z"/><path class="cls-6" d="M145.13,171a57.27,57.27,0,0,0,13.12-32.43,61.15,61.15,0,0,0-1.49-18.64c-.07-.31-.12-.56-.52-.44a16,16,0,0,0,.26-3.56,38.48,38.48,0,0,1,1.9,6.89,46.17,46.17,0,0,1,1.11,11,58.8,58.8,0,0,1-4.4,22.5,63,63,0,0,1-8.89,15C145.45,172.27,145.33,171.63,145.13,171Z"/><path class="cls-6" d="M176.28,98.13c-1.16.24-.94.91-.51,1.64,2,3.31,4,6.59,5.92,9.94a29,29,0,0,1,4,11.64,21,21,0,0,1-4.49,15l-1.18.16c.32-1.76,1.39-3.13,1.93-4.7,1.21-3.51,2.36-7,2.27-10.8-.08-3.53-1.38-6.62-2.82-9.75-1.71-3.69-4.23-6.86-6.07-10.45a4.89,4.89,0,0,1-.48-2.45c0-.39,0-.85.43-1A.75.75,0,0,1,176.28,98.13Z"/><path class="cls-5" d="M67.88,198.6a14.19,14.19,0,0,1-7-1.54c-1.43-.68-1.72-1.63-1.16-3.15a5.15,5.15,0,0,1,8.49-1.56.91.91,0,0,1,.11,1.22A6.61,6.61,0,0,0,67.88,198.6Z"/><path class="cls-5" d="M118,198.63a13.74,13.74,0,0,1-7.52-1.92,1.71,1.71,0,0,1-.8-2.06,4.79,4.79,0,0,1,3.72-3.76,5.17,5.17,0,0,1,4.9,1.4c.48.42.4.79.14,1.34A6.72,6.72,0,0,0,118,198.63Z"/><path class="cls-7" d="M85.67,190.67a4.86,4.86,0,0,1,6.08,3.52,1.87,1.87,0,0,1-1,2.38,14.88,14.88,0,0,1-6.88,1.8c-.71,0-1.19-.18-1.06-1.06a7.73,7.73,0,0,0-.23-2.66A5.88,5.88,0,0,0,85.67,190.67Z"/><path class="cls-8" d="M80.22,195.82l0,.51a32.93,32.93,0,0,1-9.52,2c-1-1.08-.61-2.28-.18-3.41a5.08,5.08,0,0,1,5.06-3.08,4.89,4.89,0,0,1,4.46,3.65A.23.23,0,0,0,80.22,195.82Z"/><path class="cls-5" d="M133.18,198.13c-.66-.75-.08-1.63-.28-2.47-.64-2.65-.39-3.3,1.26-4.36a5,5,0,0,1,5.91.18,7.31,7.31,0,0,1,.84.91C139.2,195.47,136.38,197.05,133.18,198.13Z"/><path class="cls-6" d="M42.89,139.45a57.35,57.35,0,0,0,11.65,29.79c.32.43.56,1,1.18,1.14-.45,1-.76,1.11-1.54.1a59.68,59.68,0,0,1-9.37-17.24,50.71,50.71,0,0,1-2.71-11.88,12.64,12.64,0,0,1-.2-3.32C42.47,138.38,42.11,139.31,42.89,139.45Z"/><path class="cls-7" d="M133.18,198.13c3.2-1.08,6-2.66,7.73-5.74,1.75,2.47,1.36,3.87-1.49,4.84C137.41,197.91,135.4,198.82,133.18,198.13Z"/><path class="cls-7" d="M70.72,198.33a32.93,32.93,0,0,0,9.52-2c.11,2-.47,2.57-2.76,2.82a6.75,6.75,0,0,0-3.93,0A3.48,3.48,0,0,1,70.72,198.33Z"/><path class="cls-9" d="M85.67,190.67a5.88,5.88,0,0,1-3,4c-.86-1.21-.05-2,.73-2.78A3.82,3.82,0,0,1,85.67,190.67Z"/><path class="cls-10" d="M98.63,191.26c0,.61.42.64.86.64h2.67c.1.33.43.89,0,.94a13.76,13.76,0,0,1-3.57,0C98.28,192.79,98.3,191.8,98.63,191.26Zm2.86,1.08,0-.13H99v.13Z"/><path class="cls-11" d="M55.18,182.5c.5.82.2,1.73.23,2.59.06,1.86,0,3.74,0,5.6C54.67,188,55,185.24,55.18,182.5Z"/><path class="cls-11" d="M105.49,182.46c-.26,2.65-.53,5.3-.79,7.95A15.08,15.08,0,0,1,105.49,182.46Z"/><path class="cls-11" d="M157.29,53.4a1.66,1.66,0,0,1-.24-.62,14.48,14.48,0,0,0-.83-6C157.75,48.81,157.58,51.09,157.29,53.4Z"/><path class="cls-12" d="M62.49,127.61c-1.36.53-2.78.16-4.16.23s-2.49,0-3.73,0v-.36h4.34Z"/><path class="cls-12" d="M46.77,108.51a3,3,0,0,1-.06,3.48Z"/><path class="cls-12" d="M101.89,190.05c-.07.13-.27.4-.28.3a22.82,22.82,0,0,1,.07-4.45.27.27,0,0,1,.13,0,.87.87,0,0,1,.11.09Z"/><path class="cls-12" d="M67.13,162.47l-.1-.24a15.77,15.77,0,0,1,4.23,0,.2.2,0,0,1,0,.12s0,.07-.08.11Z"/><path class="cls-13" d="M146,190.11a9.52,9.52,0,0,1,0-4.77C146,186.93,146,188.52,146,190.11Z"/><path class="cls-12" d="M45.16,64a1.7,1.7,0,0,1,.28-.37,20.42,20.42,0,0,1,0,4.21.16.16,0,0,1-.12,0,.28.28,0,0,1-.11-.08C45.17,66.5,45.17,65.24,45.16,64Z"/><path class="cls-12" d="M46.69,113.15a9.67,9.67,0,0,1,0,4.78Z"/><path class="cls-12" d="M99.23,185.44l.15-.64c0,1.46.58,2.93-.15,4.35a1.09,1.09,0,0,1,0-.17s0-.06,0-.09c0-.28,0-.55,0-.83Z"/><path class="cls-14" d="M73.55,199.17a6.75,6.75,0,0,1,3.93,0A19.85,19.85,0,0,1,73.55,199.17Z"/><path class="cls-12" d="M46.7,118.52c1,.41.33,1.24.49,1.85-.42-.22-.17-.78-.52-1.05Z"/><path class="cls-11" d="M105.79,181.62c0,.32.09.68-.32.86A1.06,1.06,0,0,1,105.79,181.62Z"/><path class="cls-6" d="M42.7,138a1,1,0,0,1,.15.87A1,1,0,0,1,42.7,138Z"/><path class="cls-2" d="M197.79,127.85l.11-.38.11.08-.21.31Z"/><path class="cls-15" d="M99.25,188.06c0,.28,0,.55,0,.83A.64.64,0,0,1,99.25,188.06Z"/><path class="cls-11" d="M105.84,181.37a1.66,1.66,0,0,1,.06.21l-.12,0A.4.4,0,0,1,105.84,181.37Z"/><path class="cls-7" d="M80.22,195.82a.23.23,0,0,1-.16-.33Z"/><path class="cls-12" d="M138.73,124.8l-.63-.14c2.45,0,4.89-.51,7.31,0Z"/><path class="cls-12" d="M55.15,124.71c2.33-.54,4.68-.13,7-.19,0,0-.19.21-.33.28Z"/><path class="cls-1" d="M146.55,127.26l-1.12,0A.69.69,0,0,1,146.55,127.26Z"/><path class="cls-1" d="M88.86,93.88v.58l-.07.51c-1.32,4.19-3.73,7.5-7.89,9.2A13.47,13.47,0,0,1,62.55,88.45a12.74,12.74,0,0,1,10.2-9.82A13.35,13.35,0,0,1,88.84,89.49,5.55,5.55,0,0,0,89,90,12.28,12.28,0,0,1,88.86,93.88Zm-13.27,8.79A10.89,10.89,0,0,0,86.53,91.78a11,11,0,0,0-11-10.92A10.87,10.87,0,0,0,64.7,91.8,10.75,10.75,0,0,0,75.59,102.67Z"/><path class="cls-1" d="M139,91.8a13.47,13.47,0,1,1-13.42-13.48A13.36,13.36,0,0,1,139,91.8ZM125.4,102.68a10.91,10.91,0,0,0,.21-21.82,10.91,10.91,0,1,0-.21,21.82Z"/><path class="cls-1" d="M90.29,64.06a6.14,6.14,0,0,1-.88,3.09,10.82,10.82,0,0,1-10.22,6.12,8.16,8.16,0,0,1-7.71-5,26.2,26.2,0,0,1-1.74-7.38,45.39,45.39,0,0,1,.72-15.59c1-3.85,3.05-4.75,6.11-2.3A38.49,38.49,0,0,1,90,62.39,13.19,13.19,0,0,1,90.29,64.06ZM73.32,45a7.69,7.69,0,0,0-.34.91,42.81,42.81,0,0,0,.26,19.53c.89,3.51,2.4,4.73,5.94,5.14,2.2.25,5.88-1.14,6.56-2.93a2.8,2.8,0,0,0,.56-.39c1.7-1.83,1.58-3.9.74-6a40.89,40.89,0,0,0-7.12-11.44,23.53,23.53,0,0,0-5.35-5C74.14,44.45,73.57,43.94,73.32,45Z"/><path class="cls-1" d="M131.61,55.77a44,44,0,0,1-1.14,10c-1,4.42-3.78,6.76-8.19,7.32-5.74.74-13.77-5.26-10.77-12.58a44.05,44.05,0,0,1,12.68-17.38c.14-.12.31-.21.46-.32,3.06-2,4.81-1.42,5.87,2.11A37.07,37.07,0,0,1,131.61,55.77ZM129,54.93a33.4,33.4,0,0,0-.87-9c-.46-1.88-.74-2-2.35-.8l-.23.17A41.78,41.78,0,0,0,114,61.23c-1.17,2.81-.38,5.08,1.74,7.08,4.39,4.14,10.68,2.45,12.25-3.34A34.85,34.85,0,0,0,129,54.93Z"/><path class="cls-1" d="M107,117c.08,3.62-1.39,5.61-4.64,6.51a6.93,6.93,0,0,1-7.64-2.93c-1-1.7-.76-3.56-.46-5.36a29.88,29.88,0,0,1,3.5-9.9,7.83,7.83,0,0,1,1-1.37c1.23-1.36,2.34-1.4,3.61-.08a15.53,15.53,0,0,1,3.14,5.92A21.83,21.83,0,0,1,107,117Zm-6.38-11.25c-2.18,2.86-4.18,9.16-3.94,12.32.15,1.9,1.69,3.08,4,3,2.14,0,3.63-1.32,3.72-3.17a15.07,15.07,0,0,0-.61-4.73A22.79,22.79,0,0,0,100.61,105.73Z"/><path class="cls-16" d="M103,129.3a5.51,5.51,0,0,1,3.7-5.23,2.61,2.61,0,0,1,3.38,2.07,5.68,5.68,0,0,1-2.49,5.59,3,3,0,0,1-3.19.33A2.75,2.75,0,0,1,103,129.3Z"/><path class="cls-16" d="M98.16,129.21a2.94,2.94,0,0,1-1.45,2.85,2.88,2.88,0,0,1-3.06-.26A5.56,5.56,0,0,1,91.09,126a2.57,2.57,0,0,1,3.6-1.84A5.66,5.66,0,0,1,98.16,129.21Z"/><path class="cls-12" d="M88.86,93.88A12.28,12.28,0,0,0,89,90c.77.94.16,2,.34,3C89.44,93.44,89.37,93.81,88.86,93.88Z"/><path class="cls-12" d="M88.79,95l.07-.51a.43.43,0,0,1,.2.54C89,95.19,88.88,95.06,88.79,95Z"/><path class="cls-1" d="M101.49,192.34H99v-.13h2.5Z"/><path class="cls-8" d="M75.59,102.67A10.75,10.75,0,0,1,64.7,91.8,10.87,10.87,0,0,1,75.58,80.86a11,11,0,0,1,11,10.92A10.89,10.89,0,0,1,75.59,102.67Zm-1-8.67a4,4,0,1,0,8,0,4,4,0,1,0-8,0Z"/><path class="cls-8" d="M125.4,102.68a10.91,10.91,0,1,1,11-10.63A10.86,10.86,0,0,1,125.4,102.68Zm-2.61-12.76a4,4,0,0,0-4,4,4,4,0,1,0,8,0A3.94,3.94,0,0,0,122.79,89.92Z"/><path class="cls-8" d="M85.74,67.6c-.68,1.79-4.36,3.18-6.56,2.93-3.54-.41-5.05-1.63-5.94-5.14A42.81,42.81,0,0,1,73,45.86a7.69,7.69,0,0,1,.34-.91,10.75,10.75,0,0,1,2.09,1.66A40,40,0,0,1,82.8,57.18C84.46,60.45,86.05,63.76,85.74,67.6Z"/><path class="cls-7" d="M85.74,67.6c.31-3.84-1.28-7.15-2.94-10.42a40,40,0,0,0-7.39-10.57A10.75,10.75,0,0,0,73.32,45c.25-1,.82-.5,1.25-.23a23.53,23.53,0,0,1,5.35,5A40.89,40.89,0,0,1,87,61.16c.84,2.15,1,4.22-.74,6A2.8,2.8,0,0,1,85.74,67.6Z"/><path class="cls-8" d="M129,54.93a34.85,34.85,0,0,1-1,10c-1.57,5.79-7.86,7.48-12.25,3.34-2.12-2-2.91-4.27-1.74-7.08a41.78,41.78,0,0,1,11.57-15.89l.23-.17c1.61-1.16,1.89-1.08,2.35.8A33.4,33.4,0,0,1,129,54.93Z"/><path class="cls-9" d="M100.61,105.73a22.79,22.79,0,0,1,3.15,7.46,15.07,15.07,0,0,1,.61,4.73c-.09,1.85-1.58,3.14-3.72,3.17-2.29,0-3.83-1.14-4-3C96.43,114.89,98.43,108.59,100.61,105.73Z"/><path class="cls-1" d="M74.61,94a4,4,0,1,1,8,0,4,4,0,1,1-8,0Z"/><path class="cls-1" d="M122.79,89.92a3.94,3.94,0,0,1,4,4,4,4,0,1,1-8,0A4,4,0,0,1,122.79,89.92Z"/></g></svg>