<svg xmlns="http://www.w3.org/2000/svg" viewBox="0 0 503 160"><defs><style>.cls-1{fill:#aad6a2;}.cls-2{fill:#0c090e;}.cls-3{fill:#271c32;}.cls-4{fill:#00a651;}.cls-5{fill:#006838;}.cls-6{fill:#271d33;}.cls-7{fill:#7c5c9c;}.cls-8{fill:#8362a8;}.cls-9{fill:#06030a;}.cls-10{fill:#fbfbfb;}.cls-11{fill:#afafb0;}.cls-12{fill:#f2f1f1;}</style></defs><g id="Layer_4" data-name="Layer 4"><rect class="cls-1" width="503" height="159.12"/></g><g id="Layer_5" data-name="Layer 5"><path class="cls-2" d="M489.94,108.45c-.69,2.14-1,4.4-1.79,6.51a36.12,36.12,0,0,1-7.38,11.5c-6,6.34-12.52,12-20.48,15.83a45.43,45.43,0,0,1-17,4.38,1.51,1.51,0,0,0-1.39.72,39.91,39.91,0,0,1-3.86,5.19,1.71,1.71,0,0,0-.26,2,37.08,37.08,0,0,1,1.94,16.76c-.59,5.74-4.58,9.63-10.64,11a29.38,29.38,0,0,1-6.4.89c-.25,0-.58-.11-.72.25H410.69c-1.68-.55-3.47-.45-5.19-.83-3.93-.85-7.83-2-9.87-5.72-1.25-2.28-2.68-2.71-4.92-2.56a2.91,2.91,0,0,0-2.68,1.43c-2.12,3.2-5.44,4.66-9,5.39-6.46,1.32-13,1.16-19.53.64a25.12,25.12,0,0,1-7.9-1.77,11.86,11.86,0,0,1-7.67-10.51,38.91,38.91,0,0,1,1.77-15.68,1.57,1.57,0,0,0-.45-1.72,58.67,58.67,0,0,1-10.65-19.86,59.83,59.83,0,0,1-2.3-24.77c.48-4.29,1.75-8.39,2.7-12.57,1.13-5,1.17-10-3.08-14a54.54,54.54,0,0,1-5.46-5.91c-3.16-4-3.34-8.15-1-12.57a47.16,47.16,0,0,1,5.1-7.55c3.39-4.22,4-8.87,2.84-14A45.05,45.05,0,0,1,332,32.21c-.22-6.15,3.13-8.8,7.3-10.38a37.92,37.92,0,0,1,7.14-1.94,18.66,18.66,0,0,0,13-8.71,30,30,0,0,1,4.17-5c3.93-3.81,8.36-5,13.48-2.65,2.67,1.22,5.34,2.43,8,3.67a14.8,14.8,0,0,0,13,0c3.09-1.4,6.1-3,9.3-4.19,4.3-1.61,8-.52,11.33,2.28a30.1,30.1,0,0,1,5.72,6.42,18,18,0,0,0,12,7.83A41.58,41.58,0,0,1,445,22.05c4.77,2.08,6.79,5.56,6.34,10.71-.29,3.37-1.09,6.65-1.67,10a13.59,13.59,0,0,0,2.07,10.69,95.35,95.35,0,0,1,5.52,8.14c1.82,3.29,2.92,6.69,1.31,10.43a14.39,14.39,0,0,1-2.48,3.89c-1.75,2-3.63,3.82-5.45,5.72a1.56,1.56,0,0,1,.58-1.35c1.67-1.83,3.35-3.65,5-5.53,2.18-2.56,3.24-5.38,1.68-8.66-.61-1.29-1.35-2.51-2-3.77-.23.35.08.88-.38,1.15-1.81-3.09-4-5.91-6-8.87a15.74,15.74,0,0,1-2.33-12.12c.52-2.91,1.3-5.78,1.53-8.74.29-2.31.46-4.59-1.07-6.6-1-1.7-2.72-2.38-4.43-3a61.09,61.09,0,0,0-8.29-2.23,18.81,18.81,0,0,1-11.42-7.22A39.5,39.5,0,0,0,417,7.26c-2.75-2.29-5.72-3-9.17-1.65-2.62,1-5.16,2.28-7.68,3.53a18.17,18.17,0,0,1-17.07.06A81.53,81.53,0,0,0,375,5.54a8,8,0,0,0-8.1,1.25,25.89,25.89,0,0,0-5.6,6.13c-3.19,4.64-7.21,8-12.88,9.14a47.75,47.75,0,0,0-9.21,2.58,7,7,0,0,0-4.68,7.15c.13,4.25,1.36,8.33,1.93,12.51v3.77c-.13.54-.26,1.08-.4,1.62-.77,3-2.63,5.48-4.41,8a41.32,41.32,0,0,0-4.45,7,7.77,7.77,0,0,0,.81,8.25,38,38,0,0,0,4.72,5.25c3.08,2.91,5.24,6.26,5.33,10.65L338,92.3l0,1.16v5.38l0,.8c-.12.79-.47-1-.6.06a6.93,6.93,0,0,0,4.52,6.6,11.66,11.66,0,0,0,4.47.43,37.61,37.61,0,0,1,9.83,0,15.3,15.3,0,0,1,7.24,3.16c6.34,5,13,9.28,20.76,11.64a20.43,20.43,0,0,0,11.23.43,51.94,51.94,0,0,0,19.33-9.85,15.79,15.79,0,0,1,7-3.41,8.47,8.47,0,0,0,2.45-.61c3.55-1.93,7.31-1.28,11-1.08.39,0,.62.18.66.58-2.15.08-4.3.14-6.45.25a9.83,9.83,0,0,0-4.55,1.22c-1.39.17-2.79.37-4.18.5a2.19,2.19,0,0,0-1.22.64,67.59,67.59,0,0,1-17.1,10.89c-7.64,3.39-15.21,3.78-22.91.16A67.34,67.34,0,0,1,363,110.44c-.41-.37-.74-.82-1.39-.88-1.12-.11-2.23-.32-3.34-.49a10,10,0,0,0-4.5-1.15l-3.55-.11c-1.88-.07-3.76-.1-5.63-.23-4.21-.29-7.6-1.79-8.86-6.27a1.44,1.44,0,0,0-.23-.37A61.81,61.81,0,0,0,334,118.33a1,1,0,0,0,.15.87l0,.56c-.78-.13-.42-1.07-1-1.41a12.74,12.74,0,0,0,.2,3.33,50.82,50.82,0,0,0,2.71,11.88,59.76,59.76,0,0,0,9.37,17.23c.78,1,1.09.93,1.54-.1a15.14,15.14,0,0,1,2.61-3.64,14.81,14.81,0,0,1,8.8-4.26l4.06,0a1.88,1.88,0,0,0,.39.16,41.72,41.72,0,0,1,14.77,4.85c5.55,3,9.94,7.07,11.94,13.29a47.26,47.26,0,0,1,.94,4.68l0,2.62a.65.65,0,0,0,0,.84s0,.06,0,.08a1.09,1.09,0,0,0,0,.17l-.6,2.12c-.33.53-.35,1.52-.07,1.57a13.76,13.76,0,0,0,3.57,0c.46-.06.13-.62,0-1a4.13,4.13,0,0,0-.27-1.84l0-4.06a1.43,1.43,0,0,0,.15-.39,19.93,19.93,0,0,1,7.86-13.68,39.85,39.85,0,0,1,17.65-7.74c4.62-.92,9.18-.68,13.26,2.18a20.5,20.5,0,0,1,4.29,4.63c.2.64.32,1.29,1.09.33a63,63,0,0,0,8.89-15,58.85,58.85,0,0,0,4.4-22.51,46.08,46.08,0,0,0-1.11-11,38,38,0,0,0-1.9-6.89,15.82,15.82,0,0,1-.26,3.55,7.6,7.6,0,0,1-1.65,4.48c-.73-.67.1-1.2.22-1.75a60.89,60.89,0,0,0,1.12-11.74,9.8,9.8,0,0,1,.61-4c-.88,4.3.86,8.17,2,12.15a59.71,59.71,0,0,1,1.72,21.5,69.27,69.27,0,0,1-1.37,8.32,48.17,48.17,0,0,0,8.36-3.5,31.53,31.53,0,0,0,14.09-13.51c2.91-5.58,2.4-11.28-.08-16.9a93.14,93.14,0,0,0-6.31-11.07,12.16,12.16,0,0,1-2.09-4.4c-.28-1.73.45-2.73,2.18-3.16a8,8,0,0,1,6.1.9,36.75,36.75,0,0,1,14.67,16.08,25.71,25.71,0,0,1,2.62,9.09c0,.1.16.18.24.28ZM397.08,162v0a1.07,1.07,0,0,0-.32.86l0,0a15.1,15.1,0,0,0-.79,8,9.38,9.38,0,0,0,2.18,5.45c.35-3.66,1.92-6,4.74-7.12a7.51,7.51,0,0,1,8.25,1.57,1,1,0,0,0,1.44.1,6.92,6.92,0,0,1,7.26-.34c1.49.85,2.25.84,3.58-.39,2.74-2.53,5.87-2.38,9.89-.07a9.67,9.67,0,0,1,2.57,4.89,9.32,9.32,0,0,0,1.35-4.4v-4.76a29,29,0,0,0-2.08-10.74c-1-2.41-2.24-4.68-4.64-6a9.39,9.39,0,0,0-6.52-2.2c-7.22,0-13.69,2.52-19.64,6.42a17.88,17.88,0,0,0-7.25,8.57A.42.42,0,0,0,397.08,162Zm-32.23,17.53a19.85,19.85,0,0,0,3.93,0c2.3-.25,2.87-.83,2.76-2.82l0-.5-.16-.33a4.88,4.88,0,0,0-4.45-3.66,5.1,5.1,0,0,0-5.07,3.08c-.43,1.13-.82,2.33.19,3.42A3.41,3.41,0,0,0,364.85,179.48Zm59.63-1c2.22.68,4.23-.22,6.24-.91,2.85-1,3.24-2.37,1.49-4.84a7.31,7.31,0,0,0-.84-.91,5,5,0,0,0-5.91-.17c-1.65,1-1.9,1.7-1.26,4.36C424.4,176.81,423.82,177.7,424.48,178.45ZM373.92,175a7.65,7.65,0,0,1,.23,2.65c-.13.89.35,1.07,1.06,1.06a14.75,14.75,0,0,0,6.88-1.79,1.88,1.88,0,0,0,1-2.39A4.85,4.85,0,0,0,377,171a3.75,3.75,0,0,0-2.32,1.2C373.87,172.94,373.06,173.75,373.92,175Zm115.17-66.81a27.89,27.89,0,0,0-1.69,3.08c-.43.68-.42,1.68-1.37,2a23.53,23.53,0,0,0,1-12.11c-1.57-8-6-14.24-12.12-19.34-2.11-1.75-4.31-3.43-7.28-3.36a.76.76,0,0,0-1-.72c-.42.1-.41.57-.43,1a4.87,4.87,0,0,0,.48,2.45c1.84,3.59,4.36,6.77,6.07,10.45,1.45,3.13,2.74,6.23,2.82,9.76.09,3.79-1.06,7.28-2.27,10.79-.54,1.58-1.61,2.94-1.93,4.7l1.18-.15a32.19,32.19,0,0,1-5.25,5.69c-4.86,4.37-10.7,6.89-16.78,9-.51.18-1.1.18-1.31.88a71,71,0,0,1-5.06,11.88c-.06,1.09.83.58,1.15.53a72.38,72.38,0,0,0,7.19-1.21c10.26-2.45,18.27-8.59,25.55-15.85,1.62-1.63,3-3.46,4.62-5.13,3.81-4,5.59-8.94,6.48-14.28l.21-.31-.11-.07Zm-110.7,60c3.91.33,6.36,2.45,7.42,6.29a7.25,7.25,0,0,0,1.65-3.58c1.4-7.55-1.1-13.62-7.13-18.26a11.54,11.54,0,0,0-4.2-2.49,6.37,6.37,0,0,0-1-.73c-4.54-2.14-9.24-3.83-14.3-4s-9,1.82-11.43,6.35a27,27,0,0,0-2.9,11.1c-.18,2.74-.51,5.48.27,8.19a6.67,6.67,0,0,0,1.56,3.36,7.81,7.81,0,0,1,2.73-4.28,7.71,7.71,0,0,1,10,.43c.38.32.61.77,1.28.35a7.52,7.52,0,0,1,9,.34c.47.34.65.23,1-.16A8,8,0,0,1,378.39,168.14Zm38.2,11.48a22.43,22.43,0,0,0,3.34-.31,2.18,2.18,0,0,0,1.77-2.6,5.11,5.11,0,0,0-4.91-4.56,5.19,5.19,0,0,0-5.21,4.07c-.38,1.93.45,3.06,2.45,3.27C414.87,179.58,415.72,179.58,416.59,179.62Zm-57.41-.71a6.58,6.58,0,0,1,.48-5,.92.92,0,0,0-.11-1.23,5.16,5.16,0,0,0-8.49,1.56c-.56,1.53-.27,2.47,1.16,3.16A14.19,14.19,0,0,0,359.18,178.91Zm50.08,0a6.74,6.74,0,0,1,.44-5c.26-.55.34-.92-.14-1.34a5.17,5.17,0,0,0-4.9-1.4,4.81,4.81,0,0,0-3.72,3.77,1.72,1.72,0,0,0,.8,2.06A13.91,13.91,0,0,0,409.26,179Z"/><path class="cls-3" d="M455.41,63.44c.46-.27.15-.8.38-1.15.69,1.26,1.43,2.48,2,3.77,1.56,3.28.5,6.1-1.68,8.66-1.61,1.88-3.29,3.7-5,5.53a1.56,1.56,0,0,0-.58,1.35L449.49,83c-.72.09-.81.61-.83,1.19l0,0c-.33.1-.35.35-.29.63l0,0c-.49.14-.36.53-.35.87l0,0c-.55.28-.3.77-.3,1.19h0a9.8,9.8,0,0,0-.61,4,60.89,60.89,0,0,1-1.12,11.74c-.12.55-.95,1.08-.22,1.75-2,2.66-4.94,3.23-8,3.32a.69.69,0,0,0-1.12,0l-.84,0c0-.4-.27-.56-.66-.58-3.73-.2-7.49-.85-11,1.08a8.47,8.47,0,0,1-2.45.61,15.79,15.79,0,0,0-7,3.41A51.94,51.94,0,0,1,395.42,122a20.43,20.43,0,0,1-11.23-.43c-7.79-2.36-14.42-6.66-20.76-11.64a15.3,15.3,0,0,0-7.24-3.16,37.61,37.61,0,0,0-9.83,0,11.66,11.66,0,0,1-4.47-.43,6.93,6.93,0,0,1-4.52-6.6c.13-1.09.48.73.6-.06.35.26.1.82.53,1a3.93,3.93,0,0,0,2.73,3.53,11.12,11.12,0,0,0,5.23.8l6.68.1c2.79.18,5.34,1.48,8.09,1.76a6.36,6.36,0,0,1,3.8,1.86A60.72,60.72,0,0,0,380.82,119a22.91,22.91,0,0,0,18.36.56,61.71,61.71,0,0,0,18.71-11.4,3.14,3.14,0,0,1,1.94-1.06c3.53,0,6.71-1.78,10.2-2l6.68-.09c6.14.29,8.48-1.93,8.53-8,0-.8,0-1.6,0-2.41,0-2.21-.05-4.42,0-6.63a11,11,0,0,1,2.49-6.76c1.85-2.33,4.12-4.26,6-6.52A12.71,12.71,0,0,0,456.53,70C457.21,67.6,456.28,65.53,455.41,63.44Z"/><path class="cls-2" d="M448.66,84.17c0-.58.11-1.1.83-1.19Z"/><path class="cls-2" d="M447.83,86.73c0-.42-.25-.91.3-1.19C448,85.92,448.19,86.4,447.83,86.73Z"/><path class="cls-2" d="M448.1,85.59c0-.34-.14-.73.35-.87C448.3,85,448.42,85.38,448.1,85.59Z"/><path class="cls-2" d="M448.41,84.76c-.06-.28,0-.53.29-.63C448.62,84.35,448.67,84.63,448.41,84.76Z"/><path class="cls-4" d="M430,105.11c-3.49.23-6.67,2-10.2,2a3.14,3.14,0,0,0-1.94,1.06,61.71,61.71,0,0,1-18.71,11.4,22.91,22.91,0,0,1-18.36-.56A60.72,60.72,0,0,1,365,108.74a6.36,6.36,0,0,0-3.8-1.86c-2.75-.28-5.3-1.58-8.09-1.77.14-.07.37-.28.33-.28-2.34.06-4.69-.35-7,.19a11.12,11.12,0,0,1-5.23-.8,3.93,3.93,0,0,1-2.73-3.53c-.17-.62.47-1.45-.5-1.85v-.59a9.71,9.71,0,0,0,0-4.79l0-1.16a3,3,0,0,0,.06-3.48c-.09-4.39-2.25-7.74-5.33-10.65A38,38,0,0,1,328,72.92a7.77,7.77,0,0,1-.81-8.25,41.32,41.32,0,0,1,4.45-7c1.78-2.49,3.64-4.93,4.41-8,.14-.54.27-1.08.4-1.62l.11.08a.2.2,0,0,0,.12,0,19.65,19.65,0,0,0,0-4.2,1.35,1.35,0,0,0-.27.36c-.57-4.18-1.8-8.26-1.93-12.51a7,7,0,0,1,4.68-7.15,47.75,47.75,0,0,1,9.21-2.58c5.67-1.16,9.69-4.5,12.88-9.14a25.89,25.89,0,0,1,5.6-6.13A8,8,0,0,1,375,5.54a81.53,81.53,0,0,1,8.08,3.66,18.17,18.17,0,0,0,17.07-.06c2.52-1.25,5.06-2.48,7.68-3.53,3.45-1.39,6.42-.64,9.17,1.65a39.5,39.5,0,0,1,6.37,7.36,18.81,18.81,0,0,0,11.42,7.22,61.09,61.09,0,0,1,8.29,2.23c1.71.66,3.42,1.34,4.43,3a14.48,14.48,0,0,1,.83,6c0,.2.16.41.24.62-.23,3-1,5.83-1.53,8.74a15.74,15.74,0,0,0,2.33,12.12c2,3,4.21,5.78,6,8.87.87,2.09,1.8,4.16,1.12,6.52a12.71,12.71,0,0,1-2.78,4.69c-1.92,2.26-4.19,4.19-6,6.52a11,11,0,0,0-2.49,6.76c-.05,2.21,0,4.42,0,6.63,0,.81,0,1.61,0,2.41-.05,6.12-2.39,8.34-8.53,8-2.42-.55-4.86-.09-7.31,0ZM380.09,75.29c.09.09.2.21.27,0a.41.41,0,0,0-.2-.53v-.59c.51-.06.58-.43.52-.82-.17-1,.43-2.11-.34-3.05a4.65,4.65,0,0,1-.2-.52,13.35,13.35,0,0,0-16.09-10.86,12.74,12.74,0,0,0-10.2,9.83,12.75,12.75,0,0,0,4.55,13.79,12.88,12.88,0,0,0,13.8,1.93C376.36,82.79,378.77,79.48,380.09,75.29Zm50.17-3.18a13.47,13.47,0,1,0-13.43,13.46A13.4,13.4,0,0,0,430.26,72.11ZM381.59,44.37a11.26,11.26,0,0,0-.26-1.66,38.56,38.56,0,0,0-13.46-19.4c-3.06-2.45-5.16-1.55-6.11,2.31A45.32,45.32,0,0,0,361,41.2a26.55,26.55,0,0,0,1.74,7.38,8.14,8.14,0,0,0,7.71,5,10.8,10.8,0,0,0,10.22-6.11A6.15,6.15,0,0,0,381.59,44.37Zm41.32-8.29a36.63,36.63,0,0,0-1.09-10.81c-1.06-3.54-2.81-4.14-5.87-2.11a4.63,4.63,0,0,0-.46.31,44.08,44.08,0,0,0-12.68,17.39c-3,7.31,5,13.31,10.77,12.58,4.42-.57,7.15-2.9,8.19-7.33A43.89,43.89,0,0,0,422.91,36.08ZM398.29,97.29a21.72,21.72,0,0,0-1.5-7.2,15.57,15.57,0,0,0-3.14-5.93c-1.27-1.31-2.38-1.28-3.61.09a7.75,7.75,0,0,0-1,1.36,29.72,29.72,0,0,0-3.49,9.9c-.31,1.8-.54,3.66.45,5.37a6.93,6.93,0,0,0,7.64,2.92C396.9,102.9,398.37,100.91,398.29,97.29Zm-4,12.32a2.77,2.77,0,0,0,1.4,2.77,3,3,0,0,0,3.19-.33,5.7,5.7,0,0,0,2.49-5.6,2.6,2.6,0,0,0-3.38-2.06A5.5,5.5,0,0,0,394.26,109.61Zm-4.8-.09a5.67,5.67,0,0,0-3.47-5,2.58,2.58,0,0,0-3.6,1.84,5.56,5.56,0,0,0,2.56,5.79,2.88,2.88,0,0,0,3.06.27A3,3,0,0,0,389.46,109.52Z"/><path class="cls-4" d="M435.89,107.62l.84,0,1.12,0c3.1-.09,6-.66,8-3.32a7.6,7.6,0,0,0,1.65-4.48c.4-.12.45.14.52.45a61.08,61.08,0,0,1,1.49,18.63,57.3,57.3,0,0,1-13.12,32.44,20.5,20.5,0,0,0-4.29-4.63c-4.08-2.86-8.64-3.1-13.26-2.18a39.85,39.85,0,0,0-17.65,7.74,19.93,19.93,0,0,0-7.86,13.68,1.43,1.43,0,0,1-.15.39s-.07-.07-.11-.08a.32.32,0,0,0-.13,0,23.73,23.73,0,0,0-.07,4.46c0,.09.21-.17.28-.31a4.13,4.13,0,0,1,.27,1.84h-2.67c-.44,0-.87,0-.86-.63l.6-2.12c.73-1.41.16-2.89.15-4.35l-.15.64a47.26,47.26,0,0,0-.94-4.68c-2-6.22-6.39-10.3-11.94-13.29a41.72,41.72,0,0,0-14.77-4.85,1.88,1.88,0,0,1-.39-.16.42.42,0,0,0,.08-.12.2.2,0,0,0,0-.12,15.69,15.69,0,0,0-4.22,0l.09.24a14.81,14.81,0,0,0-8.8,4.26,15.14,15.14,0,0,0-2.61,3.64c-.62-.14-.86-.71-1.18-1.14a57.44,57.44,0,0,1-11.65-29.79l0-.56a1,1,0,0,0-.15-.87,61.81,61.81,0,0,1,1.52-17.39,1.44,1.44,0,0,1,.23.37c1.26,4.48,4.65,6,8.86,6.27,1.87.13,3.75.16,5.63.23H345.9v.36c1.24,0,2.49,0,3.73,0s2.8.3,4.16-.23a10,10,0,0,1,4.5,1.15,20.25,20.25,0,0,0,3.87,5,57.74,57.74,0,0,0,18.31,13.23c3.69,1.67,7.51,3.08,11.66,2.94a29.6,29.6,0,0,0,11.33-3.17,57.53,57.53,0,0,0,19-14.42c.94-1.06,2.09-2,2.46-3.54a9.83,9.83,0,0,1,4.55-1.22C431.59,107.76,433.74,107.7,435.89,107.62Z"/><path class="cls-4" d="M467.58,78.45c3-.07,5.17,1.61,7.28,3.36,6.16,5.1,10.55,11.34,12.12,19.34a23.53,23.53,0,0,1-1,12.11,38.1,38.1,0,0,1-2.31,5A47.7,47.7,0,0,1,475,128.6c-8.7,8.37-18.56,14.42-30.92,15.51a71,71,0,0,0,5.06-11.88c.21-.7.8-.7,1.31-.88,6.08-2.09,11.92-4.61,16.78-9a32.19,32.19,0,0,0,5.25-5.69,21,21,0,0,0,4.49-15A28.81,28.81,0,0,0,473,90c-1.92-3.34-3.94-6.63-5.92-9.94C466.64,79.35,466.42,78.68,467.58,78.45Z"/><path class="cls-4" d="M433.34,169.93c-4-2.31-7.15-2.46-9.89.07-1.33,1.23-2.09,1.24-3.58.39a6.92,6.92,0,0,0-7.26.34,1,1,0,0,1-1.44-.1,7.51,7.51,0,0,0-8.25-1.57c-2.82,1.1-4.39,3.46-4.74,7.12a9.38,9.38,0,0,1-2.18-5.45c.26-2.66.53-5.31.79-8l0,0c.41-.18.31-.53.32-.86v0a.64.64,0,0,0,.12-.06,1.66,1.66,0,0,0-.06-.21,17.88,17.88,0,0,1,7.25-8.57c5.95-3.9,12.42-6.4,19.64-6.42a9.39,9.39,0,0,1,6.52,2.2c.09,1.06.79,1.88,1.13,2.85A40.37,40.37,0,0,1,433.34,169.93Z"/><path class="cls-4" d="M346.48,162.82a27,27,0,0,1,2.9-11.1c2.47-4.53,6.42-6.51,11.43-6.35s9.76,1.86,14.3,4a6.37,6.37,0,0,1,1,.73c.58,1.57,1.22,3.12,1.7,4.73a26.57,26.57,0,0,1,.56,13.31,8,8,0,0,0-6.17,2.91c-.31.39-.49.5-1,.16a7.52,7.52,0,0,0-9-.34c-.67.42-.9,0-1.28-.35a7.71,7.71,0,0,0-10-.43,7.81,7.81,0,0,0-2.73,4.28,6.67,6.67,0,0,1-1.56-3.36c0-1.87,0-3.74,0-5.61C346.68,164.54,347,163.64,346.48,162.82Z"/><path class="cls-5" d="M424.89,109.09c-.37,1.49-1.52,2.48-2.46,3.54a57.53,57.53,0,0,1-19,14.42,29.6,29.6,0,0,1-11.33,3.17c-4.15.14-8-1.27-11.66-2.94a57.74,57.74,0,0,1-18.31-13.23,20.25,20.25,0,0,1-3.87-5c1.11.17,2.22.38,3.34.49.65.06,1,.51,1.39.88a67.34,67.34,0,0,0,16.46,10.84c7.7,3.62,15.27,3.23,22.91-.16a67.59,67.59,0,0,0,17.1-10.89,2.19,2.19,0,0,1,1.22-.64C422.1,109.46,423.5,109.26,424.89,109.09Z"/><path class="cls-5" d="M378.39,168.14a26.57,26.57,0,0,0-.56-13.31c-.48-1.61-1.12-3.16-1.7-4.73a11.54,11.54,0,0,1,4.2,2.49c6,4.64,8.53,10.71,7.13,18.26a7.25,7.25,0,0,1-1.65,3.58C384.75,170.59,382.3,168.47,378.39,168.14Z"/><path class="cls-5" d="M444.11,144.11C456.47,143,466.33,137,475,128.6a47.7,47.7,0,0,0,8.69-10.36,38.1,38.1,0,0,0,2.31-5c1-.34.94-1.34,1.37-2a27.89,27.89,0,0,1,1.69-3.08v0c-.89,5.33-2.67,10.25-6.48,14.27-1.58,1.67-3,3.5-4.62,5.13-7.28,7.26-15.29,13.4-25.55,15.85a72.38,72.38,0,0,1-7.19,1.21C444.94,144.69,444.05,145.2,444.11,144.11Z"/><path class="cls-5" d="M433.34,169.93a40.37,40.37,0,0,0-1.66-18.19c-.34-1-1-1.79-1.13-2.85,2.4,1.35,3.65,3.62,4.64,6a29,29,0,0,1,2.08,10.74,9.36,9.36,0,0,0,0,4.76,9.32,9.32,0,0,1-1.35,4.4A9.67,9.67,0,0,0,433.34,169.93Z"/><path class="cls-6" d="M436.43,151.3a57.3,57.3,0,0,0,13.12-32.44,61.08,61.08,0,0,0-1.49-18.63c-.07-.31-.12-.57-.52-.45a15.82,15.82,0,0,0,.26-3.55,38,38,0,0,1,1.9,6.89,46.08,46.08,0,0,1,1.11,11,58.85,58.85,0,0,1-4.4,22.51,63,63,0,0,1-8.89,15C436.75,152.59,436.63,151.94,436.43,151.3Z"/><path class="cls-6" d="M467.58,78.45c-1.16.23-.94.9-.51,1.63,2,3.31,4,6.6,5.92,9.94a28.81,28.81,0,0,1,4,11.64,21,21,0,0,1-4.49,15l-1.18.15c.32-1.76,1.39-3.12,1.93-4.7,1.21-3.51,2.36-7,2.27-10.79-.08-3.53-1.37-6.63-2.82-9.76-1.71-3.68-4.23-6.86-6.07-10.45a4.87,4.87,0,0,1-.48-2.45c0-.38,0-.85.43-1A.76.76,0,0,1,467.58,78.45Z"/><path class="cls-6" d="M334.19,119.76a57.44,57.44,0,0,0,11.65,29.79c.32.43.56,1,1.18,1.14-.45,1-.76,1.11-1.54.1a59.76,59.76,0,0,1-9.37-17.23,50.82,50.82,0,0,1-2.71-11.88,12.74,12.74,0,0,1-.2-3.33C333.77,118.69,333.41,119.63,334.19,119.76Z"/><path class="cls-7" d="M448.59,33.71c-.08-.21-.25-.42-.24-.62a14.48,14.48,0,0,0-.83-6C449.05,29.12,448.88,31.4,448.59,33.71Z"/><path class="cls-8" d="M353.79,107.92c-1.36.53-2.78.16-4.16.23s-2.49,0-3.73,0v-.36h4.34Z"/><path class="cls-8" d="M338.07,88.82A3,3,0,0,1,338,92.3Z"/><path class="cls-8" d="M358.43,142.79l-.09-.24a15.69,15.69,0,0,1,4.22,0,.2.2,0,0,1,0,.12.42.42,0,0,1-.08.12Z"/><path class="cls-8" d="M336.47,44.3a1.35,1.35,0,0,1,.27-.36,19.65,19.65,0,0,1,0,4.2.2.2,0,0,1-.12,0l-.11-.08Z"/><path class="cls-8" d="M338,93.46a9.71,9.71,0,0,1,0,4.79Z"/><path class="cls-8" d="M338,98.84c1,.4.33,1.23.5,1.85-.43-.23-.18-.79-.53-1Z"/><path class="cls-6" d="M334,118.33a1,1,0,0,1,.15.87A1,1,0,0,1,334,118.33Z"/><path class="cls-3" d="M489.09,108.16l.11-.37.11.07-.21.31Z"/><path class="cls-8" d="M430,105.11l-.63-.14c2.45,0,4.89-.5,7.31,0Z"/><path class="cls-8" d="M346.46,105c2.32-.54,4.67-.13,7-.19,0,0-.19.21-.33.28Z"/><path class="cls-2" d="M437.85,107.58l-1.12,0A.69.69,0,0,1,437.85,107.58Z"/><path class="cls-2" d="M380.16,74.19v.59l-.07.51c-1.32,4.19-3.73,7.5-7.89,9.2a12.88,12.88,0,0,1-13.8-1.93,12.75,12.75,0,0,1-4.55-13.79,12.74,12.74,0,0,1,10.2-9.83A13.35,13.35,0,0,1,380.14,69.8a4.65,4.65,0,0,0,.2.52A12,12,0,0,1,380.16,74.19ZM366.89,83A10.9,10.9,0,0,0,377.83,72.1a11,11,0,0,0-10.95-10.92,10.91,10.91,0,0,0,0,21.81Z"/><path class="cls-2" d="M430.26,72.11a13.47,13.47,0,1,1-13.42-13.48A13.35,13.35,0,0,1,430.26,72.11ZM416.7,83a10.91,10.91,0,0,0,.21-21.81A10.91,10.91,0,1,0,416.7,83Z"/><path class="cls-2" d="M381.59,44.37a6.15,6.15,0,0,1-.88,3.1,10.8,10.8,0,0,1-10.22,6.11,8.14,8.14,0,0,1-7.71-5A26.55,26.55,0,0,1,361,41.2a45.32,45.32,0,0,1,.72-15.58c.95-3.86,3.05-4.76,6.11-2.31a38.56,38.56,0,0,1,13.46,19.4A11.26,11.26,0,0,1,381.59,44.37Zm-17-19.11a7.83,7.83,0,0,0-.34.92,42.76,42.76,0,0,0,.26,19.52c.89,3.51,2.4,4.73,5.94,5.14,2.2.25,5.88-1.14,6.56-2.93a2.76,2.76,0,0,0,.56-.38c1.7-1.84,1.58-3.9.74-6.05A41,41,0,0,0,371.23,30a24,24,0,0,0-5.36-5C365.44,24.76,364.87,24.25,364.62,25.26Z"/><path class="cls-2" d="M422.91,36.08a43.89,43.89,0,0,1-1.14,10c-1,4.43-3.77,6.76-8.19,7.33-5.74.73-13.77-5.27-10.77-12.58a44.08,44.08,0,0,1,12.68-17.39,4.63,4.63,0,0,1,.46-.31c3.06-2,4.81-1.43,5.87,2.11A36.63,36.63,0,0,1,422.91,36.08Zm-2.59-.84a33,33,0,0,0-.87-9c-.46-1.88-.74-2-2.35-.8a2,2,0,0,0-.23.18A41.83,41.83,0,0,0,405.3,41.54c-1.17,2.82-.38,5.08,1.74,7.08,4.39,4.14,10.68,2.46,12.25-3.33A35,35,0,0,0,420.32,35.24Z"/><path class="cls-2" d="M398.29,97.29c.08,3.62-1.39,5.61-4.64,6.51a6.93,6.93,0,0,1-7.64-2.92c-1-1.71-.76-3.57-.45-5.37a29.72,29.72,0,0,1,3.49-9.9,7.75,7.75,0,0,1,1-1.36c1.23-1.37,2.34-1.4,3.61-.09a15.57,15.57,0,0,1,3.14,5.93A21.72,21.72,0,0,1,398.29,97.29ZM391.91,86c-2.18,2.86-4.18,9.16-3.94,12.32.15,1.91,1.69,3.08,4,3s3.64-1.33,3.72-3.18a14.82,14.82,0,0,0-.61-4.73A22.79,22.79,0,0,0,391.91,86Z"/><path class="cls-9" d="M394.26,109.61a5.5,5.5,0,0,1,3.7-5.22,2.6,2.6,0,0,1,3.38,2.06,5.7,5.7,0,0,1-2.49,5.6,3,3,0,0,1-3.19.33A2.77,2.77,0,0,1,394.26,109.61Z"/><path class="cls-9" d="M389.46,109.52a3,3,0,0,1-1.45,2.86,2.88,2.88,0,0,1-3.06-.27,5.56,5.56,0,0,1-2.56-5.79,2.58,2.58,0,0,1,3.6-1.84A5.67,5.67,0,0,1,389.46,109.52Z"/><path class="cls-8" d="M380.16,74.19a12,12,0,0,0,.18-3.87c.77.94.17,2,.34,3.05C380.74,73.76,380.67,74.13,380.16,74.19Z"/><path class="cls-8" d="M380.09,75.29l.07-.51a.41.41,0,0,1,.2.53C380.29,75.5,380.18,75.38,380.09,75.29Z"/><path class="cls-10" d="M366.89,83a10.91,10.91,0,0,1,0-21.81A11,11,0,0,1,377.83,72.1,10.9,10.9,0,0,1,366.89,83Zm-1-8.67a4,4,0,1,0,8,0,4,4,0,1,0-8,0Z"/><path class="cls-10" d="M416.7,83a10.91,10.91,0,1,1,11-10.63A10.85,10.85,0,0,1,416.7,83Zm-2.61-12.76a4,4,0,0,0-4,4,4,4,0,1,0,8,0A4,4,0,0,0,414.09,70.23Z"/><path class="cls-10" d="M377,47.91c-.68,1.79-4.36,3.18-6.56,2.93-3.54-.41-5.05-1.63-5.94-5.14a42.76,42.76,0,0,1-.26-19.52,7.83,7.83,0,0,1,.34-.92,11.14,11.14,0,0,1,2.09,1.66,40,40,0,0,1,7.39,10.57C375.76,40.77,377.36,44.08,377,47.91Z"/><path class="cls-11" d="M377,47.91c.32-3.83-1.28-7.14-2.94-10.42a40,40,0,0,0-7.39-10.57,11.14,11.14,0,0,0-2.09-1.66c.25-1,.82-.5,1.25-.23a24,24,0,0,1,5.36,5,41,41,0,0,1,7.11,11.45c.84,2.15,1,4.21-.74,6.05A2.76,2.76,0,0,1,377,47.91Z"/><path class="cls-10" d="M420.32,35.24a35,35,0,0,1-1,10c-1.57,5.79-7.86,7.47-12.25,3.33-2.12-2-2.91-4.26-1.74-7.08a41.83,41.83,0,0,1,11.57-15.88,2,2,0,0,1,.23-.18c1.61-1.16,1.89-1.08,2.35.8A33,33,0,0,1,420.32,35.24Z"/><path class="cls-12" d="M391.91,86a22.79,22.79,0,0,1,3.15,7.46,14.82,14.82,0,0,1,.61,4.73c-.08,1.85-1.58,3.14-3.72,3.18s-3.83-1.14-4-3C387.73,95.2,389.73,88.9,391.91,86Z"/><path class="cls-2" d="M365.91,74.32a4,4,0,1,1,8,0,4,4,0,1,1-8,0Z"/><path class="cls-2" d="M414.09,70.23a4,4,0,0,1,4,4,4,4,0,1,1-8,0A4,4,0,0,1,414.09,70.23Z"/></g></svg>