<svg xmlns="http://www.w3.org/2000/svg" viewBox="0 0 750.28 841.89"><defs><style>.cls-1{fill:none;stroke:#231f20;stroke-miterlimit:10;stroke-width:11.46px;}.cls-2{fill:#0c090e;}.cls-3{fill:#271c32;}.cls-4{fill:#00a651;}.cls-5{fill:#006838;}.cls-6{fill:#f9f9f9;}.cls-7{fill:#271d33;}.cls-8{fill:#afafb0;}.cls-9{fill:#fbfbfb;}.cls-10{fill:#f2f1f1;}.cls-11{fill:#352744;}.cls-12{fill:#7c5c9c;}.cls-13{fill:#8362a8;}.cls-14{fill:#5c4578;}.cls-15{fill:#c7c7c7;}.cls-16{fill:#76579a;}.cls-17{fill:#06030a;}</style></defs><g id="Layer_20" data-name="Layer 20"><rect class="cls-1" x="62.63" y="48.92" width="634.7" height="743.72"/><path class="cls-2" d="M745.65,753.91c-.69,2.14-1,4.39-1.79,6.5a35.87,35.87,0,0,1-7.39,11.5c-6,6.35-12.51,12-20.48,15.83a45.14,45.14,0,0,1-16.94,4.38,1.53,1.53,0,0,0-1.4.73A42.24,42.24,0,0,1,693.8,798a1.7,1.7,0,0,0-.26,2,37.08,37.08,0,0,1,1.94,16.76c-.59,5.75-4.58,9.63-10.65,11a29.91,29.91,0,0,1-6.39.89c-.25,0-.58-.12-.72.25H666.4c-1.69-.56-3.47-.46-5.19-.83-3.93-.86-7.84-2-9.87-5.73-1.26-2.28-2.68-2.7-4.93-2.56a2.91,2.91,0,0,0-2.67,1.43c-2.13,3.2-5.44,4.66-9,5.39-6.47,1.32-13,1.17-19.53.65a25.42,25.42,0,0,1-7.9-1.78A11.84,11.84,0,0,1,599.59,815a38.94,38.94,0,0,1,1.76-15.68,1.57,1.57,0,0,0-.44-1.72,58.67,58.67,0,0,1-10.65-19.86A59.81,59.81,0,0,1,588,753c.49-4.29,1.76-8.38,2.71-12.57,1.12-5,1.17-10-3.08-14a53.62,53.62,0,0,1-5.46-5.91c-3.16-4-3.34-8.15-1-12.56a47.44,47.44,0,0,1,5.11-7.55c3.38-4.22,4-8.88,2.83-14a44.93,44.93,0,0,1-1.34-8.73c-.21-6.15,3.14-8.8,7.3-10.37a37.38,37.38,0,0,1,7.14-1.94,18.7,18.7,0,0,0,13-8.72,29.88,29.88,0,0,1,4.17-5c3.92-3.81,8.35-5,13.47-2.65,2.68,1.22,5.35,2.43,8,3.68a14.81,14.81,0,0,0,13,0c3.1-1.4,6.1-3,9.3-4.2,4.31-1.6,8-.52,11.34,2.28a30.62,30.62,0,0,1,5.72,6.42,17.93,17.93,0,0,0,12,7.84,41.55,41.55,0,0,1,8.58,2.44c4.77,2.09,6.79,5.57,6.34,10.71-.29,3.38-1.09,6.65-1.67,10a13.58,13.58,0,0,0,2.06,10.69,97.85,97.85,0,0,1,5.53,8.14c1.82,3.29,2.92,6.69,1.31,10.43a14.32,14.32,0,0,1-2.48,3.89c-1.76,2-3.63,3.83-5.46,5.73a1.58,1.58,0,0,1,.59-1.36c1.67-1.83,3.35-3.65,5-5.53,2.18-2.55,3.24-5.38,1.69-8.66-.62-1.28-1.36-2.5-2-3.76-.24.35.07.88-.38,1.15-1.81-3.1-4-5.92-6-8.87a15.76,15.76,0,0,1-2.33-12.13c.52-2.91,1.29-5.78,1.53-8.74.29-2.3.46-4.59-1.08-6.6-1-1.69-2.72-2.38-4.43-3a62.18,62.18,0,0,0-8.29-2.23,18.74,18.74,0,0,1-11.41-7.22,40.19,40.19,0,0,0-6.37-7.35c-2.76-2.29-5.72-3-9.17-1.66-2.63,1.05-5.17,2.28-7.68,3.54a18.22,18.22,0,0,1-17.07.06,82.83,82.83,0,0,0-8.09-3.67,8,8,0,0,0-8.09,1.25,25.54,25.54,0,0,0-5.6,6.14c-3.2,4.63-7.21,8-12.88,9.14a47.73,47.73,0,0,0-9.21,2.57,7,7,0,0,0-4.68,7.15c.13,4.25,1.35,8.33,1.92,12.52v3.76c-.13.54-.25,1.08-.39,1.63-.77,3-2.64,5.48-4.41,8a41.69,41.69,0,0,0-4.46,7,7.75,7.75,0,0,0,.82,8.24,36.25,36.25,0,0,0,4.72,5.25c3.08,2.92,5.23,6.26,5.33,10.66l-.06,3.48,0,1.16v4.78l0,.59,0,.8c-.12.8-.47-1-.6.06a6.93,6.93,0,0,0,4.52,6.61,11.8,11.8,0,0,0,4.46.42,38.13,38.13,0,0,1,9.84,0,15.3,15.3,0,0,1,7.24,3.16c6.34,5,13,9.29,20.75,11.64a20.44,20.44,0,0,0,11.23.44,52.05,52.05,0,0,0,19.34-9.85,15.8,15.8,0,0,1,7-3.42,8.23,8.23,0,0,0,2.45-.6c3.54-1.94,7.3-1.29,11-1.08.38,0,.62.17.65.57-2.15.09-4.3.15-6.44.26a9.68,9.68,0,0,0-4.55,1.22c-1.4.17-2.79.36-4.19.5a2.05,2.05,0,0,0-1.21.64,68.18,68.18,0,0,1-17.1,10.88c-7.65,3.39-15.21,3.78-22.91.17a67.92,67.92,0,0,1-16.46-10.84c-.41-.37-.74-.83-1.39-.89-1.12-.1-2.23-.32-3.34-.48a9.84,9.84,0,0,0-4.51-1.15l-3.55-.11c-1.87-.08-3.75-.1-5.63-.23-4.2-.3-7.59-1.79-8.85-6.27a2,2,0,0,0-.23-.38,61.84,61.84,0,0,0-1.52,17.39,1,1,0,0,0,.15.87l0,.56c-.78-.13-.42-1.06-1-1.41a13.18,13.18,0,0,0,.2,3.33A50.73,50.73,0,0,0,591.82,779a59.57,59.57,0,0,0,9.37,17.24c.78,1,1.08.92,1.54-.1a15.36,15.36,0,0,1,2.6-3.65,14.92,14.92,0,0,1,8.81-4.26l4.06,0a1.24,1.24,0,0,0,.38.16,41.79,41.79,0,0,1,14.77,4.85c5.55,3,9.95,7.08,11.95,13.3.49,1.53.59,3.12.93,4.68l0,2.62a.64.64,0,0,0,0,.83s0,.06,0,.09a.49.49,0,0,0,0,.16l-.6,2.12c-.33.53-.35,1.53-.08,1.57a13.84,13.84,0,0,0,3.58,0c.46-.05.13-.61,0-.94a4.27,4.27,0,0,0-.27-1.84l0-4.06a1.61,1.61,0,0,0,.16-.39,19.89,19.89,0,0,1,7.86-13.69,40,40,0,0,1,17.65-7.74c4.62-.91,9.18-.68,13.26,2.19a20.47,20.47,0,0,1,4.29,4.62c.2.65.32,1.29,1.08.33a62.82,62.82,0,0,0,8.9-15,58.79,58.79,0,0,0,4.39-22.5,45.6,45.6,0,0,0-1.1-11,37.74,37.74,0,0,0-1.91-6.89,16,16,0,0,1-.25,3.56,7.57,7.57,0,0,1-1.66,4.48c-.73-.67.11-1.2.23-1.76a61.58,61.58,0,0,0,1.12-11.73,9.68,9.68,0,0,1,.61-4.05c-.88,4.3.86,8.18,2,12.16a59.66,59.66,0,0,1,1.72,21.49,67.41,67.41,0,0,1-1.38,8.32,49,49,0,0,0,8.37-3.49,31.51,31.51,0,0,0,14.08-13.51c2.91-5.59,2.4-11.29-.07-16.9a92.36,92.36,0,0,0-6.31-11.07,12.23,12.23,0,0,1-2.09-4.4c-.28-1.74.45-2.74,2.18-3.16a8,8,0,0,1,6.1.89,36.75,36.75,0,0,1,14.66,16.09,25.45,25.45,0,0,1,2.62,9.08c0,.1.16.19.25.28ZM652.78,807.4h0a1.09,1.09,0,0,0-.31.86l0,0a15.11,15.11,0,0,0-.79,8,9.34,9.34,0,0,0,2.18,5.46c.34-3.67,1.92-6,4.73-7.13a7.51,7.51,0,0,1,8.25,1.57,1,1,0,0,0,1.44.1,6.92,6.92,0,0,1,7.26-.34c1.5.85,2.25.84,3.59-.39,2.74-2.52,5.86-2.38,9.88-.07a9.72,9.72,0,0,1,2.58,4.89,9.12,9.12,0,0,0,1.34-4.39v-4.77a28.51,28.51,0,0,0-2.08-10.73c-1-2.41-2.23-4.68-4.63-6a9.43,9.43,0,0,0-6.52-2.2c-7.22,0-13.69,2.52-19.64,6.42a18,18,0,0,0-7.26,8.57A.43.43,0,0,0,652.78,807.4Zm-32.23,17.54a20,20,0,0,0,3.94,0c2.29-.25,2.87-.84,2.76-2.82l0-.51-.15-.33a4.89,4.89,0,0,0-4.46-3.65,5.07,5.07,0,0,0-5.06,3.08c-.43,1.13-.82,2.33.18,3.41A3.47,3.47,0,0,0,620.55,824.94Zm59.64-1c2.22.69,4.23-.22,6.24-.9,2.85-1,3.24-2.38,1.49-4.85a7.24,7.24,0,0,0-.85-.9,5,5,0,0,0-5.9-.18c-1.66,1-1.9,1.7-1.26,4.36C680.11,822.26,679.53,823.15,680.19,823.9Zm-50.57-3.48a7.71,7.71,0,0,1,.24,2.66c-.13.88.35,1.06,1,1.06a14.92,14.92,0,0,0,6.89-1.8,1.88,1.88,0,0,0,1-2.39,4.86,4.86,0,0,0-6.08-3.51,3.75,3.75,0,0,0-2.32,1.2C629.58,818.39,628.77,819.21,629.62,820.42Zm115.17-66.81a31.76,31.76,0,0,0-1.68,3.08c-.44.69-.43,1.68-1.37,2a23.74,23.74,0,0,0,1-12.11c-1.57-8-6-14.23-12.13-19.34-2.1-1.74-4.3-3.42-7.27-3.36a.76.76,0,0,0-1-.72c-.42.11-.41.57-.43,1a4.73,4.73,0,0,0,.48,2.44c1.84,3.59,4.36,6.77,6.06,10.45,1.45,3.14,2.75,6.23,2.83,9.76.09,3.8-1.07,7.29-2.27,10.79-.54,1.58-1.61,2.95-1.93,4.71l1.18-.16a31.57,31.57,0,0,1-5.26,5.69c-4.85,4.38-10.7,6.89-16.77,9-.51.18-1.11.18-1.31.88a71.51,71.51,0,0,1-5.06,11.89c-.06,1.08.83.57,1.14.53,2.41-.34,4.84-.65,7.2-1.21,10.26-2.45,18.27-8.59,25.55-15.86,1.62-1.62,3-3.46,4.62-5.13,3.81-4,5.59-8.94,6.48-14.27a3.45,3.45,0,0,0,.2-.32l-.1-.07Zm-110.69,60c3.91.34,6.35,2.45,7.41,6.3a7.31,7.31,0,0,0,1.66-3.58c1.4-7.55-1.1-13.62-7.13-18.27a11.77,11.77,0,0,0-4.2-2.49,6.64,6.64,0,0,0-1-.73c-4.54-2.13-9.23-3.82-14.29-4s-9,1.82-11.43,6.35a27.15,27.15,0,0,0-2.91,11.09c-.17,2.74-.5,5.48.28,8.19a6.74,6.74,0,0,0,1.56,3.37A7.66,7.66,0,0,1,616.73,816c.38.32.61.76,1.28.35a7.51,7.51,0,0,1,9,.33c.48.34.65.23,1-.16A8,8,0,0,1,634.1,813.59Zm38.2,11.49a21,21,0,0,0,3.33-.32,2.19,2.19,0,0,0,1.78-2.6,5.12,5.12,0,0,0-4.91-4.56,5.19,5.19,0,0,0-5.21,4.07c-.38,1.94.45,3.07,2.45,3.28C670.58,825,671.43,825,672.3,825.08Zm-57.42-.72a6.63,6.63,0,0,1,.49-5,.91.91,0,0,0-.11-1.22,5.16,5.16,0,0,0-8.5,1.56c-.55,1.52-.26,2.46,1.17,3.15A14.06,14.06,0,0,0,614.88,824.36Zm50.09,0a6.74,6.74,0,0,1,.43-5c.26-.54.35-.92-.13-1.33a5.15,5.15,0,0,0-4.9-1.4,4.79,4.79,0,0,0-3.72,3.76,1.72,1.72,0,0,0,.79,2.06A13.88,13.88,0,0,0,665,824.4Z"/><path class="cls-3" d="M711.12,708.9c.45-.27.14-.8.38-1.15.68,1.26,1.42,2.48,2,3.76,1.55,3.28.49,6.11-1.69,8.66-1.6,1.88-3.28,3.7-5,5.53a1.58,1.58,0,0,0-.59,1.36l-1.11,1.37c-.72.09-.82.61-.83,1.19l0,0c-.33.1-.35.34-.3.62l0,0c-.49.14-.36.53-.35.87l0,0c-.54.29-.29.77-.3,1.19h0a9.68,9.68,0,0,0-.61,4.05A61.58,61.58,0,0,1,701.82,748c-.12.56-1,1.09-.23,1.76-2,2.65-4.94,3.22-8,3.31a.69.69,0,0,0-1.12,0l-.85,0c0-.4-.27-.55-.65-.57-3.74-.21-7.5-.86-11,1.08a8.23,8.23,0,0,1-2.45.6,15.8,15.8,0,0,0-7,3.42,52.05,52.05,0,0,1-19.34,9.85,20.44,20.44,0,0,1-11.23-.44c-7.78-2.35-14.41-6.65-20.75-11.64a15.3,15.3,0,0,0-7.24-3.16,38.13,38.13,0,0,0-9.84,0,11.8,11.8,0,0,1-4.46-.42,6.93,6.93,0,0,1-4.52-6.61c.13-1.08.48.74.6-.06.35.26.1.83.52,1a3.94,3.94,0,0,0,2.74,3.53,11.08,11.08,0,0,0,5.22.81l6.68.09c2.79.18,5.35,1.49,8.1,1.76a6.36,6.36,0,0,1,3.79,1.86,61,61,0,0,0,15.8,10.29,23,23,0,0,0,18.36.55,62.12,62.12,0,0,0,18.71-11.39,3.09,3.09,0,0,1,1.94-1.06c3.52,0,6.71-1.79,10.2-2l6.68-.09c6.13.28,8.48-1.93,8.53-8.06,0-.8,0-1.6,0-2.4,0-2.21-.06-4.43,0-6.64a11.07,11.07,0,0,1,2.48-6.75c1.85-2.33,4.12-4.27,6-6.53a12.65,12.65,0,0,0,2.79-4.69C712.91,713.06,712,711,711.12,708.9Z"/><path class="cls-2" d="M704.37,729.62c0-.58.11-1.1.83-1.19Z"/><path class="cls-2" d="M703.53,732.18c0-.42-.24-.9.3-1.19C703.69,731.38,703.9,731.85,703.53,732.18Z"/><path class="cls-2" d="M703.8,731c0-.34-.14-.73.35-.87C704,730.45,704.13,730.83,703.8,731Z"/><path class="cls-2" d="M704.11,730.21c-.05-.28,0-.52.3-.62C704.33,729.8,704.38,730.08,704.11,730.21Z"/><path class="cls-4" d="M685.74,750.57c-3.49.22-6.68,2-10.2,2a3.09,3.09,0,0,0-1.94,1.06A62.12,62.12,0,0,1,654.89,765a23,23,0,0,1-18.36-.55,61,61,0,0,1-15.8-10.29,6.36,6.36,0,0,0-3.79-1.86c-2.75-.27-5.31-1.58-8.1-1.76.15-.07.38-.29.34-.28-2.34.05-4.69-.35-7,.19a11.08,11.08,0,0,1-5.22-.81,3.94,3.94,0,0,1-2.74-3.53c-.17-.62.48-1.45-.49-1.85l0-.59a9.67,9.67,0,0,0,0-4.78l0-1.16a3,3,0,0,0,.06-3.48c-.1-4.4-2.25-7.74-5.33-10.66a36.25,36.25,0,0,1-4.72-5.25,7.75,7.75,0,0,1-.82-8.24,41.69,41.69,0,0,1,4.46-7c1.77-2.48,3.64-4.92,4.41-8,.14-.55.26-1.09.39-1.63,0,0,.07.07.12.08h.11a19.75,19.75,0,0,0,.05-4.21,1.42,1.42,0,0,0-.28.37c-.57-4.19-1.79-8.27-1.92-12.52a7,7,0,0,1,4.68-7.15,47.73,47.73,0,0,1,9.21-2.57c5.67-1.17,9.68-4.51,12.88-9.14a25.54,25.54,0,0,1,5.6-6.14,8,8,0,0,1,8.09-1.25,82.83,82.83,0,0,1,8.09,3.67,18.22,18.22,0,0,0,17.07-.06c2.51-1.26,5-2.49,7.68-3.54,3.45-1.38,6.41-.63,9.17,1.66a40.19,40.19,0,0,1,6.37,7.35,18.74,18.74,0,0,0,11.41,7.22,62.18,62.18,0,0,1,8.29,2.23c1.71.66,3.43,1.35,4.43,3a14.48,14.48,0,0,1,.84,6c0,.21.15.42.24.62-.24,3-1,5.83-1.53,8.74A15.76,15.76,0,0,0,705.1,700c2,3,4.21,5.77,6,8.87.86,2.08,1.79,4.16,1.12,6.51a12.65,12.65,0,0,1-2.79,4.69c-1.92,2.26-4.19,4.2-6,6.53a11.07,11.07,0,0,0-2.48,6.75c-.06,2.21,0,4.43,0,6.64,0,.8,0,1.6,0,2.4-.05,6.13-2.4,8.34-8.53,8.06-2.42-.56-4.86-.09-7.32-.06ZM635.8,720.74c.08.09.19.22.27,0a.43.43,0,0,0-.2-.54v-.58c.5-.07.58-.44.51-.82-.17-1,.44-2.11-.33-3.06a2.45,2.45,0,0,1-.2-.51,13.35,13.35,0,0,0-16.09-10.86A13.47,13.47,0,0,0,614.11,728c4.13,3.39,8.86,4,13.8,1.93C632.06,728.24,634.48,724.93,635.8,720.74ZM686,717.57A13.46,13.46,0,1,0,672.54,731,13.39,13.39,0,0,0,686,717.57ZM637.3,689.82a15.1,15.1,0,0,0-.26-1.66,38.68,38.68,0,0,0-13.46-19.4c-3.06-2.44-5.16-1.55-6.11,2.31a45.39,45.39,0,0,0-.72,15.59,26.27,26.27,0,0,0,1.73,7.38,8.18,8.18,0,0,0,7.72,5,10.83,10.83,0,0,0,10.22-6.12A6.25,6.25,0,0,0,637.3,689.82Zm41.32-8.29c0-4-.1-7.48-1.1-10.81-1-3.53-2.81-4.14-5.86-2.11-.16.11-.32.2-.47.32a44,44,0,0,0-12.67,17.38c-3,7.31,5,13.32,10.77,12.58,4.41-.56,7.15-2.9,8.19-7.33A43.83,43.83,0,0,0,678.62,681.53ZM654,742.75a22.29,22.29,0,0,0-1.5-7.21,15.53,15.53,0,0,0-3.15-5.93c-1.27-1.31-2.38-1.27-3.6.09a7.34,7.34,0,0,0-1,1.37,29.88,29.88,0,0,0-3.5,9.9c-.31,1.8-.54,3.66.46,5.36a6.9,6.9,0,0,0,7.63,2.92C652.61,748.36,654.08,746.36,654,742.75Zm-4,12.32a2.74,2.74,0,0,0,1.4,2.76,3,3,0,0,0,3.19-.33,5.67,5.67,0,0,0,2.48-5.6,2.6,2.6,0,0,0-3.37-2.06A5.48,5.48,0,0,0,650,755.07Zm-4.81-.1a5.66,5.66,0,0,0-3.46-5,2.59,2.59,0,0,0-3.61,1.84,5.59,5.59,0,0,0,2.57,5.8,2.9,2.9,0,0,0,3.06.26A2.93,2.93,0,0,0,645.16,755Z"/><path class="cls-4" d="M691.59,753.07l.85,0,1.12,0c3.09-.09,6-.66,8-3.31a7.57,7.57,0,0,0,1.66-4.48c.4-.12.45.13.52.44a61.4,61.4,0,0,1,1.49,18.63,57.3,57.3,0,0,1-13.12,32.44,20.47,20.47,0,0,0-4.29-4.62c-4.08-2.87-8.64-3.1-13.26-2.19a40,40,0,0,0-17.65,7.74,19.89,19.89,0,0,0-7.86,13.69,1.61,1.61,0,0,1-.16.39.48.48,0,0,0-.11-.09h-.12a22.82,22.82,0,0,0-.07,4.45c0,.09.2-.17.28-.3a4.27,4.27,0,0,1,.27,1.84H646.5c-.44,0-.87,0-.86-.63l.6-2.12c.72-1.41.16-2.88.15-4.34l-.16.64c-.34-1.56-.44-3.15-.93-4.68-2-6.22-6.4-10.3-11.95-13.3a41.79,41.79,0,0,0-14.77-4.85,1.24,1.24,0,0,1-.38-.16.5.5,0,0,0,.08-.12.23.23,0,0,0,0-.12,16.19,16.19,0,0,0-4.23,0l.1.24a14.92,14.92,0,0,0-8.81,4.26,15.36,15.36,0,0,0-2.6,3.65c-.62-.15-.86-.71-1.18-1.14a57.3,57.3,0,0,1-11.65-29.8l0-.56a1.07,1.07,0,0,0-.15-.87,61.84,61.84,0,0,1,1.52-17.39,2,2,0,0,1,.23.38c1.26,4.48,4.65,6,8.85,6.27,1.88.13,3.76.15,5.63.23h-4.33v.35c1.24,0,2.48.06,3.72,0s2.8.3,4.16-.23a9.84,9.84,0,0,1,4.51,1.15,20.63,20.63,0,0,0,3.87,5,57.64,57.64,0,0,0,18.31,13.22c3.69,1.68,7.51,3.08,11.65,2.94a29.33,29.33,0,0,0,11.33-3.17,57.29,57.29,0,0,0,19-14.42c1-1.06,2.09-2.05,2.47-3.53a9.68,9.68,0,0,1,4.55-1.22C687.29,753.22,689.44,753.16,691.59,753.07Z"/><path class="cls-4" d="M723.29,723.9c3-.06,5.17,1.62,7.27,3.36,6.16,5.11,10.56,11.34,12.13,19.34a23.74,23.74,0,0,1-1,12.11,38.84,38.84,0,0,1-2.31,5,48.47,48.47,0,0,1-8.69,10.36c-8.7,8.37-18.57,14.41-30.92,15.51a71.51,71.51,0,0,0,5.06-11.89c.2-.7.8-.7,1.31-.88,6.07-2.09,11.92-4.6,16.77-9a31.57,31.57,0,0,0,5.26-5.69,21,21,0,0,0,4.49-15,29,29,0,0,0-4-11.64c-1.92-3.34-4-6.62-5.92-9.94C722.35,724.81,722.13,724.13,723.29,723.9Z"/><path class="cls-4" d="M689,815.38c-4-2.31-7.14-2.45-9.88.07-1.34,1.23-2.09,1.24-3.59.39a6.92,6.92,0,0,0-7.26.34,1,1,0,0,1-1.44-.1,7.51,7.51,0,0,0-8.25-1.57c-2.81,1.1-4.39,3.46-4.73,7.13a9.34,9.34,0,0,1-2.18-5.46c.26-2.65.53-5.3.79-8l0,0c.4-.18.31-.54.31-.86h0c.05,0,.13,0,.12,0a.79.79,0,0,0-.06-.22,18,18,0,0,1,7.26-8.57c5.95-3.9,12.42-6.4,19.64-6.42a9.43,9.43,0,0,1,6.52,2.2,11.92,11.92,0,0,0,1.13,2.86A40.19,40.19,0,0,1,689,815.38Z"/><path class="cls-4" d="M602.18,808.27a27.15,27.15,0,0,1,2.91-11.09c2.46-4.53,6.42-6.52,11.43-6.35s9.75,1.86,14.29,4a6.64,6.64,0,0,1,1,.73c.57,1.57,1.21,3.13,1.7,4.73a26.8,26.8,0,0,1,.56,13.31,8,8,0,0,0-6.17,2.91c-.32.39-.49.5-1,.16a7.51,7.51,0,0,0-9-.33c-.67.41-.9,0-1.28-.35A7.66,7.66,0,0,0,604,819.83a6.74,6.74,0,0,1-1.56-3.37c0-1.87,0-3.74,0-5.61C602.39,810,602.69,809.09,602.18,808.27Z"/><path class="cls-5" d="M680.6,754.55c-.38,1.48-1.52,2.47-2.47,3.53a57.29,57.29,0,0,1-19,14.42,29.33,29.33,0,0,1-11.33,3.17c-4.14.14-8-1.26-11.65-2.94a57.64,57.64,0,0,1-18.31-13.22,20.63,20.63,0,0,1-3.87-5c1.11.16,2.22.38,3.34.48.65.06,1,.52,1.39.89a67.92,67.92,0,0,0,16.46,10.84c7.7,3.61,15.26,3.22,22.91-.17a68.18,68.18,0,0,0,17.1-10.88,2.05,2.05,0,0,1,1.21-.64C677.81,754.91,679.2,754.72,680.6,754.55Z"/><path class="cls-5" d="M634.1,813.59a26.8,26.8,0,0,0-.56-13.31c-.49-1.6-1.13-3.16-1.7-4.73A11.77,11.77,0,0,1,636,798c6,4.65,8.53,10.72,7.13,18.27a7.31,7.31,0,0,1-1.66,3.58C640.45,816,638,813.93,634.1,813.59Z"/><path class="cls-5" d="M699.82,789.57c12.35-1.1,22.22-7.14,30.92-15.51a48.47,48.47,0,0,0,8.69-10.36,38.84,38.84,0,0,0,2.31-5c.94-.34.93-1.33,1.37-2a31.76,31.76,0,0,1,1.68-3.08l0,0c-.89,5.33-2.67,10.25-6.48,14.27-1.59,1.67-3,3.51-4.62,5.13-7.28,7.27-15.29,13.41-25.55,15.86-2.36.56-4.79.87-7.2,1.21C700.65,790.14,699.76,790.65,699.82,789.57Z"/><path class="cls-5" d="M689,815.38a40.19,40.19,0,0,0-1.65-18.18,11.92,11.92,0,0,1-1.13-2.86c2.4,1.36,3.65,3.63,4.63,6A28.51,28.51,0,0,1,693,811.11a9.52,9.52,0,0,0,0,4.77,9.12,9.12,0,0,1-1.34,4.39A9.72,9.72,0,0,0,689,815.38Z"/><path class="cls-6" d="M672.3,825.08c-.87,0-1.72-.05-2.56-.13-2-.21-2.83-1.34-2.45-3.28a5.19,5.19,0,0,1,5.21-4.07,5.12,5.12,0,0,1,4.91,4.56,2.19,2.19,0,0,1-1.78,2.6A21,21,0,0,1,672.3,825.08Z"/><path class="cls-7" d="M692.14,796.75a57.3,57.3,0,0,0,13.12-32.44,61.4,61.4,0,0,0-1.49-18.63c-.07-.31-.12-.56-.52-.44a16,16,0,0,0,.25-3.56,37.74,37.74,0,0,1,1.91,6.89,45.6,45.6,0,0,1,1.1,11,58.79,58.79,0,0,1-4.39,22.5,62.82,62.82,0,0,1-8.9,15C692.46,798,692.34,797.4,692.14,796.75Z"/><path class="cls-7" d="M723.29,723.9c-1.16.23-.94.91-.51,1.63,2,3.32,4,6.6,5.92,9.94a29,29,0,0,1,4,11.64,21,21,0,0,1-4.49,15l-1.18.16c.32-1.76,1.39-3.13,1.93-4.71,1.2-3.5,2.36-7,2.27-10.79-.08-3.53-1.38-6.62-2.83-9.76-1.7-3.68-4.22-6.86-6.06-10.45a4.73,4.73,0,0,1-.48-2.44c0-.39,0-.85.43-1A.76.76,0,0,1,723.29,723.9Z"/><path class="cls-6" d="M614.88,824.36a14.06,14.06,0,0,1-7-1.53c-1.43-.69-1.72-1.63-1.17-3.15a5.16,5.16,0,0,1,8.5-1.56.91.91,0,0,1,.11,1.22A6.63,6.63,0,0,0,614.88,824.36Z"/><path class="cls-6" d="M665,824.4a13.88,13.88,0,0,1-7.53-1.92,1.72,1.72,0,0,1-.79-2.06,4.79,4.79,0,0,1,3.72-3.76,5.15,5.15,0,0,1,4.9,1.4c.48.41.39.79.13,1.33A6.74,6.74,0,0,0,665,824.4Z"/><path class="cls-8" d="M632.68,816.44a4.86,4.86,0,0,1,6.08,3.51,1.88,1.88,0,0,1-1,2.39,14.92,14.92,0,0,1-6.89,1.8c-.7,0-1.18-.18-1-1.06a7.71,7.71,0,0,0-.24-2.66A5.87,5.87,0,0,0,632.68,816.44Z"/><path class="cls-9" d="M627.22,821.59l0,.51a33.41,33.41,0,0,1-9.52,2c-1-1.08-.61-2.28-.18-3.41a5.07,5.07,0,0,1,5.06-3.08,4.89,4.89,0,0,1,4.46,3.65A.23.23,0,0,0,627.22,821.59Z"/><path class="cls-6" d="M680.19,823.9c-.66-.75-.08-1.64-.28-2.47-.64-2.66-.4-3.31,1.26-4.36a5,5,0,0,1,5.9.18,7.24,7.24,0,0,1,.85.9C686.21,821.24,683.39,822.82,680.19,823.9Z"/><path class="cls-7" d="M589.9,765.21A57.3,57.3,0,0,0,601.55,795c.32.43.56,1,1.18,1.14-.46,1-.76,1.11-1.54.1A59.57,59.57,0,0,1,591.82,779a50.73,50.73,0,0,1-2.72-11.88,13.18,13.18,0,0,1-.2-3.33C589.48,764.15,589.12,765.08,589.9,765.21Z"/><path class="cls-8" d="M680.19,823.9c3.2-1.08,6-2.66,7.73-5.75,1.75,2.47,1.36,3.88-1.49,4.85C684.42,823.68,682.41,824.59,680.19,823.9Z"/><path class="cls-8" d="M617.73,824.1a33.41,33.41,0,0,0,9.52-2c.11,2-.47,2.57-2.76,2.82a6.7,6.7,0,0,0-3.94,0A3.47,3.47,0,0,1,617.73,824.1Z"/><path class="cls-10" d="M632.68,816.44a5.87,5.87,0,0,1-3.06,4c-.85-1.21,0-2,.74-2.78A3.75,3.75,0,0,1,632.68,816.44Z"/><path class="cls-11" d="M645.64,817c0,.61.42.63.86.63h2.67c.1.33.43.89,0,.94a13.84,13.84,0,0,1-3.58,0C645.29,818.56,645.31,817.56,645.64,817Zm2.86,1.08V818H646v.13Z"/><path class="cls-12" d="M602.18,808.27c.51.82.21,1.72.24,2.58.05,1.87,0,3.74,0,5.61C601.68,813.75,602,811,602.18,808.27Z"/><path class="cls-12" d="M652.5,808.22c-.26,2.66-.53,5.31-.79,8A15.11,15.11,0,0,1,652.5,808.22Z"/><path class="cls-12" d="M704.3,679.16c-.09-.2-.26-.41-.24-.62a14.48,14.48,0,0,0-.84-6C704.76,674.57,704.59,676.86,704.3,679.16Z"/><path class="cls-13" d="M609.49,753.38c-1.36.53-2.77.15-4.16.23s-2.48,0-3.72,0v-.35h4.33Z"/><path class="cls-13" d="M593.78,734.28a3,3,0,0,1-.06,3.48Z"/><path class="cls-13" d="M648.9,815.82c-.08.13-.28.39-.28.3a22.82,22.82,0,0,1,.07-4.45h.12a.48.48,0,0,1,.11.09C648.92,813.11,648.91,814.46,648.9,815.82Z"/><path class="cls-13" d="M614.14,788.24,614,788a16.19,16.19,0,0,1,4.23,0,.23.23,0,0,1,0,.12.5.5,0,0,1-.08.12Z"/><path class="cls-14" d="M693,815.88a9.52,9.52,0,0,1,0-4.77C693,812.7,693,814.29,693,815.88Z"/><path class="cls-13" d="M592.17,689.76a1.42,1.42,0,0,1,.28-.37,19.75,19.75,0,0,1-.05,4.21h-.11s-.08-.05-.12-.08Z"/><path class="cls-13" d="M593.7,738.92a9.67,9.67,0,0,1,0,4.78Z"/><path class="cls-13" d="M646.23,811.21l.16-.64c0,1.46.57,2.93-.15,4.34a.49.49,0,0,1,0-.16s0-.06,0-.09c0-.28,0-.56,0-.83Z"/><path class="cls-15" d="M620.55,824.94a6.7,6.7,0,0,1,3.94,0A20,20,0,0,1,620.55,824.94Z"/><path class="cls-13" d="M593.71,744.29c1,.4.32,1.23.49,1.85-.42-.22-.17-.79-.52-1Z"/><path class="cls-12" d="M652.79,807.39c0,.32.09.68-.31.86A1.09,1.09,0,0,1,652.79,807.39Z"/><path class="cls-7" d="M589.71,763.78a1.07,1.07,0,0,1,.15.87A1,1,0,0,1,589.71,763.78Z"/><path class="cls-3" d="M744.79,753.61l.12-.37.1.07a3.45,3.45,0,0,1-.2.32Z"/><path class="cls-16" d="M646.26,813.83c0,.27,0,.55,0,.83A.64.64,0,0,1,646.26,813.83Z"/><path class="cls-12" d="M652.84,807.13a.79.79,0,0,1,.06.22s-.07,0-.12,0A.43.43,0,0,1,652.84,807.13Z"/><path class="cls-8" d="M627.22,821.59a.23.23,0,0,1-.15-.33Z"/><path class="cls-13" d="M685.74,750.57l-.64-.15c2.46,0,4.9-.5,7.32.06Z"/><path class="cls-13" d="M602.16,750.48c2.33-.54,4.68-.14,7-.19,0,0-.19.21-.34.28Z"/><path class="cls-2" d="M693.56,753l-1.12,0A.69.69,0,0,1,693.56,753Z"/><path class="cls-2" d="M635.87,719.65v.58l-.07.51c-1.32,4.19-3.74,7.5-7.89,9.2-4.94,2-9.67,1.46-13.8-1.93a13.47,13.47,0,0,1,5.65-23.61,13.35,13.35,0,0,1,16.09,10.86,2.45,2.45,0,0,0,.2.51A12.33,12.33,0,0,1,635.87,719.65Zm-13.27,8.79a10.9,10.9,0,0,0,10.94-10.89,11,11,0,0,0-11-10.92,10.87,10.87,0,0,0-10.87,10.93A10.74,10.74,0,0,0,622.6,728.44Z"/><path class="cls-2" d="M686,717.57a13.46,13.46,0,1,1-13.41-13.49A13.34,13.34,0,0,1,686,717.57ZM672.4,728.45a10.91,10.91,0,0,0,.21-21.82,10.91,10.91,0,1,0-.21,21.82Z"/><path class="cls-2" d="M637.3,689.82a6.25,6.25,0,0,1-.88,3.1A10.83,10.83,0,0,1,626.2,699a8.18,8.18,0,0,1-7.72-5,26.27,26.27,0,0,1-1.73-7.38,45.39,45.39,0,0,1,.72-15.59c.95-3.86,3-4.75,6.11-2.31A38.68,38.68,0,0,1,637,688.16,15.1,15.1,0,0,1,637.3,689.82Zm-17-19.1a5.28,5.28,0,0,0-.34.91,42.94,42.94,0,0,0,.25,19.53c.9,3.51,2.41,4.73,6,5.13,2.19.25,5.87-1.13,6.56-2.92a3.28,3.28,0,0,0,.56-.39c1.7-1.84,1.58-3.9.74-6.05a41.41,41.41,0,0,0-7.12-11.45,23.49,23.49,0,0,0-5.35-5C621.15,670.22,620.57,669.7,620.33,670.72Z"/><path class="cls-2" d="M678.62,681.53a43.83,43.83,0,0,1-1.14,10c-1,4.43-3.78,6.77-8.19,7.33-5.75.74-13.77-5.27-10.77-12.58a44,44,0,0,1,12.67-17.38c.15-.12.31-.21.47-.32,3.05-2,4.81-1.42,5.86,2.11C678.52,674.05,678.63,677.48,678.62,681.53Zm-2.59-.84a33.37,33.37,0,0,0-.87-9c-.46-1.89-.75-2-2.36-.8l-.22.17A41.68,41.68,0,0,0,661,687c-1.18,2.81-.39,5.08,1.73,7.08,4.4,4.14,10.69,2.45,12.26-3.34A34.91,34.91,0,0,0,676,680.69Z"/><path class="cls-2" d="M654,742.75c.08,3.61-1.39,5.61-4.65,6.5a6.9,6.9,0,0,1-7.63-2.92c-1-1.7-.77-3.56-.46-5.36a29.88,29.88,0,0,1,3.5-9.9,7.34,7.34,0,0,1,1-1.37c1.22-1.36,2.33-1.4,3.6-.09a15.53,15.53,0,0,1,3.15,5.93A22.29,22.29,0,0,1,654,742.75Zm-6.38-11.25c-2.19,2.85-4.18,9.16-3.94,12.32.15,1.9,1.69,3.08,4,3,2.13,0,3.63-1.33,3.72-3.17a15.37,15.37,0,0,0-.61-4.73A22.92,22.92,0,0,0,647.62,731.5Z"/><path class="cls-17" d="M650,755.07a5.48,5.48,0,0,1,3.7-5.23A2.6,2.6,0,0,1,657,751.9a5.67,5.67,0,0,1-2.48,5.6,3,3,0,0,1-3.19.33A2.74,2.74,0,0,1,650,755.07Z"/><path class="cls-17" d="M645.16,755a2.93,2.93,0,0,1-1.44,2.86,2.9,2.9,0,0,1-3.06-.26,5.59,5.59,0,0,1-2.57-5.8,2.59,2.59,0,0,1,3.61-1.84A5.66,5.66,0,0,1,645.16,755Z"/><path class="cls-13" d="M635.87,719.65a12.33,12.33,0,0,0,.18-3.88c.77,1,.16,2.05.33,3.06C636.45,719.21,636.37,719.58,635.87,719.65Z"/><path class="cls-13" d="M635.8,720.74l.07-.51a.43.43,0,0,1,.2.54C636,721,635.88,720.83,635.8,720.74Z"/><path class="cls-2" d="M648.5,818.11H646V818h2.49Z"/><path class="cls-9" d="M622.6,728.44a10.74,10.74,0,0,1-10.89-10.88,10.87,10.87,0,0,1,10.87-10.93,11,11,0,0,1,11,10.92A10.9,10.9,0,0,1,622.6,728.44Zm-1-8.67a4,4,0,1,0,8,0,4,4,0,1,0-8,0Z"/><path class="cls-9" d="M672.4,728.45a10.91,10.91,0,1,1,11-10.64A10.86,10.86,0,0,1,672.4,728.45Zm-2.61-12.77a4,4,0,0,0-4,4,4,4,0,1,0,8,0A4,4,0,0,0,669.79,715.68Z"/><path class="cls-9" d="M632.75,693.37c-.69,1.79-4.37,3.17-6.56,2.92-3.54-.4-5.05-1.62-6-5.13a42.94,42.94,0,0,1-.25-19.53,5.28,5.28,0,0,1,.34-.91,11.09,11.09,0,0,1,2.09,1.65A40.05,40.05,0,0,1,629.81,683C631.46,686.22,633.06,689.53,632.75,693.37Z"/><path class="cls-8" d="M632.75,693.37c.31-3.84-1.29-7.15-2.94-10.42a40.05,40.05,0,0,0-7.39-10.58,11.09,11.09,0,0,0-2.09-1.65c.24-1,.82-.5,1.25-.23a23.49,23.49,0,0,1,5.35,5,41.41,41.41,0,0,1,7.12,11.45c.84,2.15,1,4.21-.74,6.05A3.28,3.28,0,0,1,632.75,693.37Z"/><path class="cls-9" d="M676,680.69a34.91,34.91,0,0,1-1,10c-1.57,5.79-7.86,7.48-12.26,3.34-2.12-2-2.91-4.27-1.73-7.08a41.68,41.68,0,0,1,11.57-15.89l.22-.17c1.61-1.17,1.9-1.09,2.36.8A33.37,33.37,0,0,1,676,680.69Z"/><path class="cls-10" d="M647.62,731.5a22.92,22.92,0,0,1,3.15,7.46,15.37,15.37,0,0,1,.61,4.73c-.09,1.84-1.59,3.14-3.72,3.17-2.29,0-3.83-1.14-4-3C643.44,740.66,645.43,734.35,647.62,731.5Z"/><path class="cls-2" d="M621.61,719.77a4,4,0,1,1,8,0,4,4,0,1,1-8,0Z"/><path class="cls-2" d="M669.79,715.68a4,4,0,0,1,4,4,4,4,0,1,1-8,0A4,4,0,0,1,669.79,715.68Z"/></g></svg>