<svg width="75" height="52" viewBox="0 0 75 52" fill="none" xmlns="http://www.w3.org/2000/svg">
<path d="M62.296 0.664835C61.5551 0.913748 60.2187 1.68928 59.3027 2.50305C58.3391 3.27102 56.7316 4.47303 55.7195 5.14843C52.729 7.12692 44.5572 15.7124 42.2961 19.1729C41.3021 20.7367 37.6277 23.4775 35.4523 24.27L33.5091 25.0111L33.4693 23.0473C33.4798 21.2696 33.5255 21.2219 34.1475 22.0045C34.5298 22.4645 34.916 23.1115 35.0139 23.3434C35.1128 23.6221 35.5332 23.6603 35.9964 23.5106C36.7821 23.1672 36.7812 23.1204 36.0098 21.8731C34.7116 19.9349 32.8094 18.1024 32.3491 18.3924C32.1655 18.5365 32.0132 20.2235 32.0521 22.1405C32.0929 24.1511 31.9359 25.6043 31.6562 25.61C31.4232 25.6147 31.1826 25.2454 31.1731 24.7778C31.1513 23.7024 29.0132 21.7344 28.3692 22.1685C28.0924 22.3144 27.5493 23.1206 27.146 23.924L26.4287 25.3418L25.3359 24.3349C24.0063 23.1457 24.0985 23.0971 20.3936 26.6337C19.2046 27.7804 17.871 28.6962 17.405 28.7057C16.938 28.6684 15.8004 27.7559 14.8921 26.6517C13.9829 25.5008 12.9852 24.5855 12.659 24.5921C11.82 24.6091 10.7052 27.1109 10.7403 28.8409C10.7744 30.5241 10.6812 30.526 8.51074 29.2603C6.71693 28.1741 3.34609 27.4941 2.98557 28.1095C2.58034 28.8193 3.94875 34.2176 4.60598 34.4381C5.12245 34.6148 4.99022 34.9917 4.17217 36.0373C2.67115 37.8921 1.54476 42.1247 1.48842 46.2422C1.4322 48.0676 1.28182 49.8481 1.14675 50.0848C0.606441 51.0312 1.50145 51.4808 4.0182 51.4298C6.2087 51.3853 6.76418 51.187 8.18147 49.8017C9.78234 48.2724 10.5757 46.011 10.5654 43.2047C10.5483 42.3631 11.0401 41.324 11.9533 40.37C13.0491 39.2251 13.3259 39.0792 13.1537 39.7843C13.0243 40.3015 12.6066 42.6955 12.1899 45.1363C11.6123 48.8434 11.6275 49.5915 12.1468 49.9084C13.2796 50.587 14.4866 50.3287 15.999 49.035C18.2429 47.0249 19.0048 45.5126 18.9546 43.0345L18.91 40.8369L26.6466 40.68C30.8878 40.5939 35.7862 40.7284 37.563 40.973L40.7436 41.4698L40.5846 45.1216C40.3494 49.6168 40.726 49.7963 43.6434 46.5096C45.4678 44.508 45.6514 44.3639 45.58 45.4412C45.5467 46.0968 45.5162 46.8926 45.5694 47.2189C45.6322 48.0128 48.4617 49.5926 49.7667 49.5661C51.3979 49.533 50.8549 48.0472 49.0278 47.6165C47.154 47.1868 46.4788 46.0778 46.5189 43.4576C46.5685 41.3049 45.6327 38.8447 44.6473 38.5373C44.225 38.4055 44.0528 39.1107 44.0888 40.8874C44.1287 42.8512 43.868 43.792 43.0071 45.0256L41.8286 46.6867L42.0856 43.2669C42.3026 40.1752 42.2503 39.8956 41.4571 39.865C40.991 39.8744 40.1492 39.7512 39.6337 39.6213C39.1182 39.4914 33.9401 39.3626 28.1124 39.3873L17.4814 39.3691L17.5327 41.8939C17.5867 44.5591 16.8276 46.2116 14.8101 47.8897C13.3424 49.0889 12.9639 48.8159 13.5309 46.8866C13.7469 46.0403 13.998 44.6319 14.0732 43.7416C14.1484 42.8513 14.3064 41.4449 14.431 40.6939C14.8858 37.8313 12.9179 37.3567 10.4496 39.7924C9.48885 40.7006 9.18062 41.5956 8.99407 43.8914C8.76376 46.3285 8.4527 47.0832 7.17428 48.4189C6.26112 49.3729 5.2015 50.0025 4.4558 50.0176C2.73136 50.0526 2.35769 47.7214 3.37854 42.8827C4.43746 37.6223 6.06691 35.2037 9.8954 33.1614C14.0473 30.9723 15.9943 30.4182 16.525 31.2962C17.1061 32.3603 18.4073 32.1468 18.1058 31.077C17.9033 30.286 18.2723 30.0914 21.1991 29.5642C25.4726 28.7759 31.4098 27.2522 35.5788 25.9046C39.1922 24.7555 39.6954 24.2775 49.2693 13.5587C51.6845 10.7966 54.7939 7.78667 56.1275 6.87087C57.4145 5.95601 59.0676 4.7063 59.7078 4.08522C62.1333 1.83754 69.15 0.666111 71.4651 2.16275C72.4086 2.70492 72.6026 3.0752 72.2392 3.55033C71.6932 4.21627 67.1971 5.52366 62.8769 6.31295C56.3729 7.47398 54.4524 9.33721 54.0526 14.9117C53.9793 15.8955 52.3499 18.3141 49.5723 21.598C46.1109 25.6442 45.2024 26.832 45.2148 27.4398C45.2205 27.7204 46.5929 28.7216 48.2431 29.6237C51.4503 31.4296 51.6434 31.7531 52.3394 36.1827C52.7102 38.3737 52.6036 40.013 51.9281 43.4882C51.1279 47.7142 51.2267 50.2849 52.138 49.2374C52.3662 48.9988 52.9723 46.6945 53.4318 44.0657C54.2339 39.9332 54.3052 38.8559 53.8184 35.5447C53.1681 31.0673 52.5404 30.0042 49.6661 28.5189C48.4886 27.9347 47.5432 27.2991 47.5394 27.112C47.528 26.5509 50.5681 22.4198 51.7153 21.5077C53.5948 19.926 55.5715 16.2374 55.8465 13.7059C55.9607 12.4406 56.307 11.1238 56.6257 10.7432C57.5351 9.6021 59.7066 8.62252 63.1412 7.8512C71.404 6.0464 72.4693 5.69736 73.2873 4.65169C74.4687 3.13089 74.2595 2.01251 72.6997 0.968304C71.565 0.196131 70.6757 0.0270692 67.4142 0.140014C65.3169 0.182564 62.9904 0.416868 62.296 0.664835ZM29.7825 25.1802C30.0726 25.6889 30.1277 26.1088 29.9413 26.1125C29.7549 26.1163 29.1052 26.2698 28.5022 26.4224C27.5291 26.7228 27.4816 26.677 27.9705 25.4977C28.6402 24.034 29.1044 23.9311 29.7825 25.1802ZM25.098 26.3979C25.7191 27.1337 25.4423 27.2797 22.3776 27.9032L20.7521 28.2168L22.1256 26.9728C23.6827 25.5847 24.3333 25.4779 25.098 26.3979ZM14.5724 29.2777C14.3898 29.4685 13.6954 29.7165 13.0467 29.9167L11.7941 30.2228L12.2678 28.2954L12.695 26.3689L13.7945 27.7031C14.368 28.3931 14.7094 29.1346 14.5724 29.2777ZM7.32458 30.5474C9.44464 31.627 9.49219 31.6728 8.38218 32.1163C7.73443 32.3633 6.86029 32.9424 6.44937 33.3717C6.0394 33.8478 5.62563 34.1368 5.53052 34.0452C5.24424 33.7236 4.6443 29.4323 4.87733 29.4276C5.01715 29.4248 6.09954 29.9173 7.32458 30.5474Z" fill="black"/>
<path d="M68.8171 2.63744C68.5935 3.10973 68.8313 3.33879 69.4838 3.32555C70.0431 3.3142 70.3646 3.0738 70.2647 2.74839C69.968 1.91245 69.0806 1.8369 68.8171 2.63744Z" fill="black"/>
</svg>
