<svg xmlns="http://www.w3.org/2000/svg" viewBox="0 0 503 160"><defs><style>.cls-1{fill:#fecf94;}.cls-2{fill:#0c090e;}.cls-3{fill:#271c32;}.cls-4{fill:#f47c20;}.cls-5{fill:#926126;}.cls-6{fill:#271d33;}.cls-7{fill:#7c5c9c;}.cls-8{fill:#8362a8;}.cls-9{fill:#06030a;}.cls-10{fill:#fbfbfb;}.cls-11{fill:#afafb0;}.cls-12{fill:#f2f1f1;}</style></defs><g id="Layer_7" data-name="Layer 7"><rect class="cls-1" width="503" height="159.12"/><path class="cls-2" d="M488.56,121.2c-.69,2.15-1,4.4-1.79,6.51a36.12,36.12,0,0,1-7.38,11.5c-6,6.34-12.52,12-20.48,15.83a45.24,45.24,0,0,1-17,4.38,1.5,1.5,0,0,0-1.39.72,39.91,39.91,0,0,1-3.86,5.19,1.71,1.71,0,0,0-.26,2,37.08,37.08,0,0,1,1.94,16.76c-.59,5.74-4.58,9.63-10.64,11a29.38,29.38,0,0,1-6.4.89c-.25,0-.58-.11-.72.25H409.31c-1.68-.55-3.47-.45-5.19-.82-3.93-.86-7.83-2.05-9.87-5.73-1.25-2.28-2.68-2.71-4.92-2.56a2.91,2.91,0,0,0-2.68,1.43c-2.12,3.2-5.44,4.66-9,5.39-6.46,1.32-13,1.16-19.53.65a25.42,25.42,0,0,1-7.9-1.78,11.85,11.85,0,0,1-7.67-10.51,38.93,38.93,0,0,1,1.77-15.68,1.59,1.59,0,0,0-.45-1.72A58.67,58.67,0,0,1,333.17,145a59.82,59.82,0,0,1-2.3-24.77c.48-4.29,1.75-8.39,2.7-12.57,1.13-5,1.17-10-3.08-14A53.62,53.62,0,0,1,325,87.82c-3.16-4-3.34-8.15-1-12.56a47.25,47.25,0,0,1,5.1-7.56c3.39-4.22,4-8.87,2.84-14A44.93,44.93,0,0,1,330.61,45c-.22-6.15,3.13-8.8,7.3-10.38a37.89,37.89,0,0,1,7.14-1.93,18.68,18.68,0,0,0,13-8.72,30.37,30.37,0,0,1,4.17-5c3.93-3.81,8.36-5,13.48-2.65,2.67,1.22,5.34,2.43,8,3.68a14.83,14.83,0,0,0,13,0c3.09-1.39,6.1-3,9.3-4.19,4.3-1.61,8-.52,11.33,2.28A30.1,30.1,0,0,1,423,24.52a17.93,17.93,0,0,0,12,7.83,41.58,41.58,0,0,1,8.58,2.45c4.77,2.08,6.79,5.56,6.34,10.71-.29,3.37-1.09,6.65-1.67,10a13.59,13.59,0,0,0,2.07,10.69,95.35,95.35,0,0,1,5.52,8.14c1.82,3.29,2.92,6.69,1.31,10.43a14.09,14.09,0,0,1-2.48,3.89c-1.75,2-3.63,3.82-5.45,5.72a1.56,1.56,0,0,1,.58-1.35c1.67-1.83,3.35-3.65,5-5.53,2.18-2.55,3.24-5.38,1.68-8.66-.61-1.28-1.36-2.51-2-3.76-.23.35.08.87-.38,1.14-1.81-3.09-4-5.91-6-8.87a15.73,15.73,0,0,1-2.33-12.12c.52-2.91,1.3-5.78,1.53-8.74.29-2.3.46-4.59-1.07-6.6-1-1.7-2.72-2.38-4.43-3a62.59,62.59,0,0,0-8.29-2.23A18.77,18.77,0,0,1,422,27.37,39.44,39.44,0,0,0,415.63,20c-2.76-2.3-5.72-3.05-9.17-1.66-2.62,1.05-5.16,2.28-7.68,3.53a18.19,18.19,0,0,1-17.07.07,80.37,80.37,0,0,0-8.08-3.67,8,8,0,0,0-8.1,1.25,25.89,25.89,0,0,0-5.6,6.13c-3.19,4.64-7.21,8-12.88,9.14a47.75,47.75,0,0,0-9.21,2.58,7,7,0,0,0-4.68,7.15c.13,4.25,1.36,8.33,1.93,12.51v3.77c-.13.54-.26,1.08-.4,1.62-.77,3-2.63,5.48-4.41,8a41.32,41.32,0,0,0-4.45,7,7.77,7.77,0,0,0,.81,8.25,38,38,0,0,0,4.72,5.25c3.08,2.91,5.24,6.26,5.33,10.65l-.06,3.49,0,1.16v5.37l0,.8c-.12.8-.47-1-.6.06a6.93,6.93,0,0,0,4.52,6.6,11.66,11.66,0,0,0,4.47.43,38.05,38.05,0,0,1,9.83,0,15.3,15.3,0,0,1,7.24,3.16c6.34,5,13,9.28,20.76,11.64a20.34,20.34,0,0,0,11.23.43,51.94,51.94,0,0,0,19.33-9.85,15.89,15.89,0,0,1,7-3.41,8.47,8.47,0,0,0,2.45-.61c3.54-1.93,7.31-1.28,11-1.08.39,0,.62.18.66.58-2.15.08-4.3.15-6.45.25a9.83,9.83,0,0,0-4.55,1.22c-1.39.17-2.79.37-4.18.51a2.12,2.12,0,0,0-1.22.63A67.59,67.59,0,0,1,401,133.87c-7.64,3.39-15.21,3.78-22.91.17a67.67,67.67,0,0,1-16.46-10.85c-.41-.36-.74-.82-1.39-.88-1.12-.11-2.23-.32-3.34-.49a10,10,0,0,0-4.5-1.15l-3.55-.1c-1.88-.08-3.76-.11-5.63-.24-4.21-.29-7.6-1.79-8.86-6.27a1.79,1.79,0,0,0-.23-.37,61.81,61.81,0,0,0-1.52,17.39,1,1,0,0,0,.15.87l0,.56c-.78-.13-.42-1.07-1-1.41a12.74,12.74,0,0,0,.2,3.33,50.82,50.82,0,0,0,2.71,11.88,59.94,59.94,0,0,0,9.37,17.24c.78,1,1.09.92,1.54-.11a15.59,15.59,0,0,1,2.6-3.64,14.86,14.86,0,0,1,8.81-4.26l4.06,0a1.46,1.46,0,0,0,.39.16,41.72,41.72,0,0,1,14.77,4.85c5.55,3,9.94,7.07,11.94,13.3a46.5,46.5,0,0,1,.94,4.67l0,2.62a.65.65,0,0,0,0,.84s0,.06,0,.08a.84.84,0,0,0,0,.17l-.6,2.12c-.33.53-.35,1.53-.07,1.57a13.76,13.76,0,0,0,3.57,0c.46-.05.13-.61,0-1a4.07,4.07,0,0,0-.27-1.83l0-4.07a1.43,1.43,0,0,0,.15-.39A19.89,19.89,0,0,1,399.85,165a40,40,0,0,1,17.65-7.74c4.62-.91,9.18-.68,13.26,2.19a20.25,20.25,0,0,1,4.29,4.62c.2.64.32,1.29,1.09.33a62.78,62.78,0,0,0,8.89-15,58.83,58.83,0,0,0,4.4-22.5,46.12,46.12,0,0,0-1.11-11,38,38,0,0,0-1.9-6.89,15.82,15.82,0,0,1-.26,3.55,7.6,7.6,0,0,1-1.65,4.48c-.74-.67.1-1.2.22-1.75a60.81,60.81,0,0,0,1.12-11.74,9.83,9.83,0,0,1,.61-4c-.88,4.3.86,8.17,2,12.16a59.66,59.66,0,0,1,1.72,21.49,69.27,69.27,0,0,1-1.37,8.32,48.93,48.93,0,0,0,8.36-3.49,31.6,31.6,0,0,0,14.09-13.52c2.91-5.58,2.4-11.28-.08-16.9a92.23,92.23,0,0,0-6.31-11.06,12.31,12.31,0,0,1-2.09-4.4c-.28-1.74.45-2.74,2.18-3.16a7.93,7.93,0,0,1,6.1.89A36.72,36.72,0,0,1,485.7,105.9a25.6,25.6,0,0,1,2.62,9.08c0,.1.16.19.24.28ZM395.7,174.7v0a1.09,1.09,0,0,0-.32.87l0,0a15.11,15.11,0,0,0-.79,8,9.41,9.41,0,0,0,2.18,5.46c.35-3.67,1.92-6,4.74-7.13a7.51,7.51,0,0,1,8.25,1.57,1,1,0,0,0,1.43.1,6.94,6.94,0,0,1,7.27-.34c1.49.85,2.25.84,3.58-.39,2.74-2.53,5.87-2.38,9.89-.07a9.75,9.75,0,0,1,2.57,4.89,9.15,9.15,0,0,0,1.34-4.39l0-4.77a29,29,0,0,0-2.08-10.74c-1-2.4-2.24-4.68-4.64-6a9.43,9.43,0,0,0-6.52-2.2c-7.22,0-13.69,2.52-19.64,6.42a17.88,17.88,0,0,0-7.25,8.57A.42.42,0,0,0,395.7,174.7Zm-32.23,17.53a19.12,19.12,0,0,0,3.93,0c2.3-.24,2.87-.83,2.76-2.82l0-.5-.16-.33a4.91,4.91,0,0,0-4.46-3.66,5.1,5.1,0,0,0-5.06,3.08c-.43,1.13-.82,2.33.18,3.42A3.44,3.44,0,0,0,363.47,192.23Zm59.63-1c2.22.69,4.23-.22,6.24-.9,2.85-1,3.24-2.38,1.49-4.85a8.09,8.09,0,0,0-.84-.91,5,5,0,0,0-5.91-.17c-1.65,1-1.9,1.7-1.26,4.36C423,189.56,422.44,190.45,423.1,191.2Zm-50.56-3.48a7.67,7.67,0,0,1,.23,2.65c-.13.89.35,1.07,1.06,1.07a14.88,14.88,0,0,0,6.88-1.8,1.88,1.88,0,0,0,1-2.39,4.85,4.85,0,0,0-6.08-3.51,3.77,3.77,0,0,0-2.32,1.2C372.49,185.69,371.68,186.51,372.54,187.72Zm115.17-66.81A28.83,28.83,0,0,0,486,124c-.44.69-.42,1.68-1.37,2a23.52,23.52,0,0,0,1-12.11c-1.57-8-6-14.24-12.13-19.34-2.1-1.75-4.3-3.43-7.27-3.36a.76.76,0,0,0-1-.72c-.42.1-.41.57-.43,1a4.87,4.87,0,0,0,.48,2.45c1.84,3.59,4.36,6.77,6.07,10.45,1.44,3.13,2.74,6.23,2.82,9.76.09,3.8-1.06,7.28-2.27,10.79-.54,1.58-1.61,2.94-1.93,4.71l1.18-.16a31.85,31.85,0,0,1-5.25,5.69c-4.86,4.38-10.7,6.89-16.78,9-.51.18-1.1.18-1.31.88a71,71,0,0,1-5.06,11.88c-.06,1.09.83.58,1.15.54,2.4-.34,4.83-.65,7.19-1.21,10.26-2.46,18.27-8.6,25.55-15.86,1.62-1.63,3-3.46,4.62-5.13,3.81-4,5.59-8.94,6.48-14.27l.21-.32-.11-.07Zm-110.7,60c3.91.33,6.36,2.45,7.42,6.3a7.28,7.28,0,0,0,1.65-3.59c1.4-7.55-1.1-13.62-7.13-18.26a11.54,11.54,0,0,0-4.2-2.49,7.06,7.06,0,0,0-1-.73c-4.54-2.13-9.24-3.83-14.3-4s-9,1.81-11.43,6.35a26.9,26.9,0,0,0-2.9,11.09c-.18,2.74-.51,5.48.27,8.19a6.67,6.67,0,0,0,1.56,3.36,7.81,7.81,0,0,1,2.73-4.28,7.71,7.71,0,0,1,10,.43c.38.33.61.77,1.28.35a7.52,7.52,0,0,1,9,.34c.47.34.65.23,1-.16A8,8,0,0,1,377,180.89Zm38.2,11.48a21.18,21.18,0,0,0,3.34-.31,2.18,2.18,0,0,0,1.77-2.6,5.12,5.12,0,0,0-4.91-4.56A5.19,5.19,0,0,0,410.2,189c-.38,1.94.45,3.06,2.45,3.27C413.49,192.33,414.34,192.33,415.21,192.37Zm-57.41-.71a6.58,6.58,0,0,1,.48-5,.91.91,0,0,0-.11-1.22,5.15,5.15,0,0,0-8.49,1.55c-.56,1.53-.27,2.47,1.16,3.16A14.08,14.08,0,0,0,357.8,191.66Zm50.08,0a6.74,6.74,0,0,1,.44-5c.26-.55.34-.92-.14-1.34a5.14,5.14,0,0,0-4.9-1.39,4.79,4.79,0,0,0-3.72,3.76,1.72,1.72,0,0,0,.8,2.06A13.91,13.91,0,0,0,407.88,191.7Z"/><path class="cls-3" d="M454,76.19c.46-.27.15-.79.38-1.14.68,1.25,1.43,2.48,2,3.76,1.56,3.28.5,6.11-1.68,8.66-1.61,1.88-3.29,3.7-5,5.53a1.56,1.56,0,0,0-.58,1.35l-1.12,1.38c-.72.09-.81.61-.83,1.19l0,0c-.33.11-.35.35-.29.63l0,0c-.48.14-.35.53-.34.87l0,0c-.55.28-.3.77-.31,1.19h0a9.83,9.83,0,0,0-.61,4,60.81,60.81,0,0,1-1.12,11.74c-.12.55-1,1.08-.22,1.75-2,2.66-4.94,3.23-8,3.32a.69.69,0,0,0-1.12,0l-.84,0c0-.4-.27-.55-.66-.58-3.73-.2-7.5-.85-11,1.08a8.47,8.47,0,0,1-2.45.61,15.89,15.89,0,0,0-7,3.41A51.94,51.94,0,0,1,394,134.74a20.34,20.34,0,0,1-11.23-.43c-7.79-2.36-14.42-6.65-20.76-11.64a15.3,15.3,0,0,0-7.24-3.16,38.05,38.05,0,0,0-9.83,0,11.66,11.66,0,0,1-4.47-.43,6.93,6.93,0,0,1-4.52-6.6c.13-1.09.48.74.6-.06.35.26.1.82.52,1a4,4,0,0,0,2.74,3.53,11.12,11.12,0,0,0,5.23.8l6.68.1c2.79.18,5.34,1.48,8.09,1.76a6.41,6.41,0,0,1,3.8,1.86,60.72,60.72,0,0,0,15.79,10.28,22.91,22.91,0,0,0,18.36.56,61.71,61.71,0,0,0,18.71-11.4,3.14,3.14,0,0,1,1.94-1.06c3.53,0,6.71-1.78,10.2-2l6.68-.09c6.14.29,8.48-1.92,8.53-8,0-.8,0-1.6,0-2.4,0-2.22,0-4.43,0-6.64a11,11,0,0,1,2.49-6.75c1.85-2.33,4.12-4.27,6-6.53a12.71,12.71,0,0,0,2.78-4.69C455.83,80.35,454.9,78.28,454,76.19Z"/><path class="cls-2" d="M447.28,96.92c0-.58.11-1.1.83-1.19Z"/><path class="cls-2" d="M446.44,99.48c0-.42-.24-.91.31-1.19C446.6,98.68,446.81,99.15,446.44,99.48Z"/><path class="cls-2" d="M446.72,98.34c0-.34-.14-.73.34-.87C446.92,97.75,447,98.13,446.72,98.34Z"/><path class="cls-2" d="M447,97.51c-.06-.28,0-.52.29-.63C447.24,97.1,447.29,97.38,447,97.51Z"/><path class="cls-4" d="M428.65,117.86c-3.49.23-6.67,2-10.2,2a3.14,3.14,0,0,0-1.94,1.06,61.71,61.71,0,0,1-18.71,11.4,22.91,22.91,0,0,1-18.36-.56,60.72,60.72,0,0,1-15.79-10.28,6.41,6.41,0,0,0-3.8-1.86c-2.75-.28-5.3-1.58-8.09-1.76.14-.08.37-.29.33-.29-2.34.06-4.69-.35-7,.19a11.12,11.12,0,0,1-5.23-.8,4,4,0,0,1-2.74-3.53c-.16-.62.48-1.45-.49-1.85V111a9.67,9.67,0,0,0,0-4.78l0-1.16a3,3,0,0,0,.06-3.49c-.09-4.39-2.25-7.74-5.33-10.65a38,38,0,0,1-4.72-5.25,7.77,7.77,0,0,1-.81-8.25,41.32,41.32,0,0,1,4.45-7c1.78-2.49,3.64-4.92,4.41-8,.14-.54.27-1.08.4-1.62l.11.08h.12a19.75,19.75,0,0,0,0-4.21,1.35,1.35,0,0,0-.27.36c-.57-4.18-1.8-8.26-1.93-12.51a7,7,0,0,1,4.68-7.15,47.75,47.75,0,0,1,9.21-2.58c5.67-1.16,9.69-4.5,12.88-9.14a25.89,25.89,0,0,1,5.6-6.13,8,8,0,0,1,8.1-1.25A80.37,80.37,0,0,1,381.71,22a18.19,18.19,0,0,0,17.07-.07c2.52-1.25,5.06-2.48,7.68-3.53,3.45-1.39,6.41-.64,9.17,1.66A39.44,39.44,0,0,1,422,27.37a18.77,18.77,0,0,0,11.42,7.22,62.59,62.59,0,0,1,8.29,2.23c1.71.66,3.42,1.34,4.43,3a14.48,14.48,0,0,1,.83,6,1.66,1.66,0,0,0,.24.62c-.23,3-1,5.83-1.53,8.74A15.73,15.73,0,0,0,448,67.32c2,3,4.21,5.78,6,8.87.87,2.09,1.8,4.16,1.12,6.52a12.71,12.71,0,0,1-2.78,4.69c-1.92,2.26-4.19,4.2-6,6.53a11,11,0,0,0-2.49,6.75c0,2.21,0,4.42,0,6.64,0,.8,0,1.6,0,2.4-.05,6.13-2.39,8.34-8.53,8-2.42-.55-4.86-.09-7.31,0ZM378.71,88c.09.09.2.21.27,0a.43.43,0,0,0-.2-.54v-.59c.51-.06.58-.43.52-.81-.18-1,.43-2.11-.34-3.06a5.38,5.38,0,0,1-.2-.51,13.35,13.35,0,0,0-16.09-10.87,12.74,12.74,0,0,0-10.2,9.83,13.47,13.47,0,0,0,18.35,15.72C375,95.54,377.39,92.23,378.71,88Zm50.17-3.18a13.47,13.47,0,1,0-13.43,13.47A13.4,13.4,0,0,0,428.88,84.86ZM380.21,57.12a13,13,0,0,0-.26-1.66,38.56,38.56,0,0,0-13.46-19.4c-3.06-2.45-5.16-1.55-6.11,2.31A45.34,45.34,0,0,0,359.66,54a26.35,26.35,0,0,0,1.74,7.39,8.15,8.15,0,0,0,7.71,5,10.8,10.8,0,0,0,10.22-6.11A6.15,6.15,0,0,0,380.21,57.12Zm41.32-8.29A37,37,0,0,0,420.44,38c-1.06-3.53-2.81-4.14-5.87-2.11a4.73,4.73,0,0,0-.46.32,44,44,0,0,0-12.68,17.38c-3,7.31,5,13.31,10.77,12.58,4.42-.57,7.15-2.9,8.19-7.33A43.89,43.89,0,0,0,421.53,48.83Zm-24.62,61.22a21.72,21.72,0,0,0-1.5-7.21,15.57,15.57,0,0,0-3.14-5.93c-1.27-1.31-2.38-1.28-3.61.09a7.75,7.75,0,0,0-1,1.36,30,30,0,0,0-3.5,9.91c-.3,1.8-.53,3.65.46,5.36a6.91,6.91,0,0,0,7.64,2.92C395.52,115.65,397,113.66,396.91,110.05Zm-4,12.32a2.77,2.77,0,0,0,1.4,2.76,3,3,0,0,0,3.19-.33,5.7,5.7,0,0,0,2.49-5.6,2.61,2.61,0,0,0-3.38-2.06A5.51,5.51,0,0,0,392.88,122.37Zm-4.8-.1a5.68,5.68,0,0,0-3.47-5,2.58,2.58,0,0,0-3.6,1.84,5.58,5.58,0,0,0,2.56,5.8,2.9,2.9,0,0,0,3.06.26A3,3,0,0,0,388.08,122.27Z"/><path class="cls-4" d="M434.51,120.37l.84,0,1.12,0c3.1-.09,6-.66,8-3.32a7.6,7.6,0,0,0,1.65-4.48c.4-.11.45.14.52.45a61.08,61.08,0,0,1,1.49,18.63,57.3,57.3,0,0,1-13.12,32.44,20.25,20.25,0,0,0-4.29-4.62c-4.08-2.87-8.64-3.1-13.26-2.19A40,40,0,0,0,399.85,165,19.89,19.89,0,0,0,392,178.66a1.43,1.43,0,0,1-.15.39l-.11-.08a.32.32,0,0,0-.13,0,23.73,23.73,0,0,0-.07,4.46c0,.09.21-.17.28-.3a4.07,4.07,0,0,1,.27,1.83h-2.67c-.44,0-.87,0-.86-.63l.6-2.12c.73-1.41.16-2.89.15-4.34l-.15.63a46.5,46.5,0,0,0-.94-4.67c-2-6.23-6.39-10.31-11.94-13.3a41.72,41.72,0,0,0-14.77-4.85,1.46,1.46,0,0,1-.39-.16.42.42,0,0,0,.08-.12.21.21,0,0,0,0-.12,16.19,16.19,0,0,0-4.23,0l.1.24a14.86,14.86,0,0,0-8.81,4.26,15.59,15.59,0,0,0-2.6,3.64c-.62-.14-.86-.71-1.18-1.13a57.39,57.39,0,0,1-11.65-29.8l0-.56a1,1,0,0,0-.15-.87,61.81,61.81,0,0,1,1.52-17.39,1.79,1.79,0,0,1,.23.37c1.26,4.48,4.65,6,8.86,6.27,1.87.13,3.75.16,5.63.24h-4.34v.35c1.24,0,2.49,0,3.73,0s2.8.29,4.16-.24a10,10,0,0,1,4.5,1.15,20.49,20.49,0,0,0,3.87,5A57.75,57.75,0,0,0,379.09,140c3.69,1.67,7.51,3.08,11.66,2.94a29.43,29.43,0,0,0,11.33-3.17,57.53,57.53,0,0,0,19-14.42c.94-1.06,2.09-2,2.46-3.54a9.83,9.83,0,0,1,4.55-1.22C430.21,120.52,432.36,120.45,434.51,120.37Z"/><path class="cls-4" d="M466.2,91.2c3-.07,5.17,1.61,7.27,3.36,6.17,5.1,10.56,11.34,12.13,19.34a23.52,23.52,0,0,1-1,12.11,38.1,38.1,0,0,1-2.31,5,47.7,47.7,0,0,1-8.69,10.36c-8.7,8.37-18.57,14.42-30.92,15.51A71,71,0,0,0,447.79,145c.21-.7.8-.7,1.31-.88,6.08-2.09,11.92-4.6,16.78-9a31.85,31.85,0,0,0,5.25-5.69,21,21,0,0,0,4.49-15,28.86,28.86,0,0,0-4-11.64c-1.92-3.34-3.94-6.63-5.92-9.94C465.26,92.1,465,91.43,466.2,91.2Z"/><path class="cls-4" d="M432,182.68c-4-2.31-7.15-2.46-9.89.07-1.33,1.23-2.09,1.24-3.58.39a6.94,6.94,0,0,0-7.27.34,1,1,0,0,1-1.43-.1,7.51,7.51,0,0,0-8.25-1.57c-2.82,1.1-4.39,3.46-4.74,7.13a9.41,9.41,0,0,1-2.18-5.46c.26-2.65.53-5.31.79-8l0,0c.41-.18.31-.54.32-.87v0s.12,0,.12-.06a1.66,1.66,0,0,0-.06-.21,17.88,17.88,0,0,1,7.25-8.57c5.95-3.9,12.42-6.4,19.64-6.42a9.43,9.43,0,0,1,6.52,2.2c.09,1.06.79,1.88,1.13,2.85A40.37,40.37,0,0,1,432,182.68Z"/><path class="cls-4" d="M345.1,175.57a26.9,26.9,0,0,1,2.9-11.09c2.47-4.54,6.42-6.52,11.43-6.35s9.76,1.86,14.3,4a7.06,7.06,0,0,1,1,.73c.58,1.57,1.22,3.13,1.7,4.73a26.57,26.57,0,0,1,.56,13.31,8,8,0,0,0-6.17,2.91c-.31.39-.49.5-1,.16a7.52,7.52,0,0,0-9-.34c-.67.42-.9,0-1.28-.35a7.71,7.71,0,0,0-10-.43,7.81,7.81,0,0,0-2.73,4.28,6.67,6.67,0,0,1-1.56-3.36c0-1.87,0-3.74,0-5.61C345.3,177.29,345.6,176.39,345.1,175.57Z"/><path class="cls-5" d="M423.51,121.84c-.37,1.49-1.52,2.48-2.46,3.54a57.53,57.53,0,0,1-19,14.42A29.43,29.43,0,0,1,390.75,143c-4.15.14-8-1.27-11.66-2.94a57.75,57.75,0,0,1-18.31-13.22,20.49,20.49,0,0,1-3.87-5c1.11.17,2.22.38,3.34.49.65.06,1,.52,1.39.88A67.67,67.67,0,0,0,378.1,134c7.7,3.61,15.27,3.22,22.91-.17A67.59,67.59,0,0,0,418.11,123a2.12,2.12,0,0,1,1.22-.63C420.72,122.21,422.12,122,423.51,121.84Z"/><path class="cls-5" d="M442.73,156.86c12.35-1.09,22.22-7.14,30.92-15.51A47.7,47.7,0,0,0,482.34,131a38.1,38.1,0,0,0,2.31-5c1-.34.93-1.33,1.37-2a28.83,28.83,0,0,1,1.69-3.08v0c-.89,5.33-2.67,10.25-6.48,14.27-1.58,1.67-3,3.5-4.62,5.13-7.28,7.26-15.29,13.4-25.55,15.86-2.36.56-4.79.87-7.19,1.21C443.56,157.44,442.67,158,442.73,156.86Z"/><path class="cls-6" d="M435.05,164.05a57.3,57.3,0,0,0,13.12-32.44A61.08,61.08,0,0,0,446.68,113c-.07-.31-.12-.56-.52-.45a15.82,15.82,0,0,0,.26-3.55,38,38,0,0,1,1.9,6.89,46.12,46.12,0,0,1,1.11,11,58.83,58.83,0,0,1-4.4,22.5,62.78,62.78,0,0,1-8.89,15C435.37,165.34,435.25,164.69,435.05,164.05Z"/><path class="cls-6" d="M466.2,91.2c-1.16.23-.94.9-.51,1.63,2,3.31,4,6.6,5.92,9.94a28.86,28.86,0,0,1,4,11.64,21,21,0,0,1-4.49,15l-1.18.16c.32-1.77,1.39-3.13,1.93-4.71,1.21-3.51,2.36-7,2.27-10.79-.08-3.53-1.38-6.63-2.82-9.76-1.71-3.68-4.23-6.86-6.07-10.45a4.87,4.87,0,0,1-.48-2.45c0-.38,0-.85.43-1A.76.76,0,0,1,466.2,91.2Z"/><path class="cls-6" d="M332.81,132.51a57.39,57.39,0,0,0,11.65,29.8c.32.42.56,1,1.18,1.13-.45,1-.76,1.12-1.54.11a59.94,59.94,0,0,1-9.37-17.24A50.82,50.82,0,0,1,332,134.43a12.74,12.74,0,0,1-.2-3.33C332.39,131.44,332,132.38,332.81,132.51Z"/><path class="cls-7" d="M447.21,46.46a1.66,1.66,0,0,1-.24-.62,14.48,14.48,0,0,0-.83-6C447.67,41.87,447.5,44.16,447.21,46.46Z"/><path class="cls-8" d="M352.41,120.67c-1.36.53-2.78.16-4.16.24s-2.49,0-3.73,0v-.35h4.34Z"/><path class="cls-8" d="M336.69,101.57a3,3,0,0,1-.06,3.49Z"/><path class="cls-8" d="M357.05,155.54l-.1-.24a16.19,16.19,0,0,1,4.23,0,.21.21,0,0,1,0,.12.42.42,0,0,1-.08.12Z"/><path class="cls-8" d="M335.09,57.05a1.35,1.35,0,0,1,.27-.36,19.75,19.75,0,0,1,0,4.21h-.12l-.11-.08Z"/><path class="cls-8" d="M336.61,106.22a9.67,9.67,0,0,1,0,4.78Z"/><path class="cls-8" d="M336.62,111.59c1,.4.33,1.23.49,1.85-.42-.23-.17-.79-.52-1Z"/><path class="cls-6" d="M332.62,131.08a1,1,0,0,1,.15.87A1,1,0,0,1,332.62,131.08Z"/><path class="cls-3" d="M487.71,120.91l.11-.37.11.07-.21.32Z"/><path class="cls-8" d="M428.65,117.86l-.63-.14c2.45,0,4.89-.5,7.31,0Z"/><path class="cls-8" d="M345.08,117.77c2.32-.54,4.67-.13,7-.19,0,0-.19.21-.33.29Z"/><path class="cls-2" d="M436.47,120.33l-1.12,0A.69.69,0,0,1,436.47,120.33Z"/><path class="cls-2" d="M378.78,86.94v.59l-.07.51c-1.32,4.19-3.73,7.5-7.89,9.2a13.47,13.47,0,0,1-18.35-15.72,12.74,12.74,0,0,1,10.2-9.83,13.35,13.35,0,0,1,16.09,10.87,5.38,5.38,0,0,0,.2.51A12.25,12.25,0,0,1,378.78,86.94Zm-13.27,8.8a10.9,10.9,0,0,0,10.94-10.89A11,11,0,0,0,365.5,73.93a10.86,10.86,0,0,0-10.88,10.93A10.76,10.76,0,0,0,365.51,95.74Z"/><path class="cls-2" d="M428.88,84.86a13.47,13.47,0,1,1-13.42-13.48A13.36,13.36,0,0,1,428.88,84.86ZM415.32,95.74a10.91,10.91,0,0,0,.21-21.81,10.91,10.91,0,1,0-.21,21.81Z"/><path class="cls-2" d="M380.21,57.12a6.15,6.15,0,0,1-.88,3.1,10.8,10.8,0,0,1-10.22,6.11,8.15,8.15,0,0,1-7.71-5A26.35,26.35,0,0,1,359.66,54a45.34,45.34,0,0,1,.72-15.58c.95-3.86,3.05-4.76,6.11-2.31A38.56,38.56,0,0,1,380,55.46,13,13,0,0,1,380.21,57.12ZM363.24,38a7.83,7.83,0,0,0-.34.92,42.76,42.76,0,0,0,.26,19.52c.89,3.51,2.4,4.74,5.94,5.14,2.2.25,5.88-1.13,6.56-2.92a3.28,3.28,0,0,0,.56-.39c1.7-1.84,1.58-3.9.74-6.05a40.8,40.8,0,0,0-7.12-11.45,23.49,23.49,0,0,0-5.35-5C364.06,37.51,363.49,37,363.24,38Z"/><path class="cls-2" d="M421.53,48.83a43.89,43.89,0,0,1-1.14,10c-1,4.43-3.77,6.76-8.19,7.33-5.74.73-13.77-5.27-10.77-12.58a44,44,0,0,1,12.68-17.38,4.73,4.73,0,0,1,.46-.32c3.06-2,4.81-1.42,5.87,2.11A37,37,0,0,1,421.53,48.83ZM418.94,48a33.08,33.08,0,0,0-.87-9c-.46-1.88-.74-2-2.35-.79l-.23.17A41.78,41.78,0,0,0,403.92,54.3c-1.17,2.81-.38,5.07,1.74,7.07,4.39,4.15,10.68,2.46,12.25-3.33A34.91,34.91,0,0,0,418.94,48Z"/><path class="cls-2" d="M396.91,110.05c.08,3.61-1.39,5.6-4.64,6.5a6.91,6.91,0,0,1-7.64-2.92c-1-1.71-.76-3.56-.46-5.36a30,30,0,0,1,3.5-9.91,7.75,7.75,0,0,1,1-1.36c1.23-1.37,2.34-1.4,3.61-.09a15.57,15.57,0,0,1,3.14,5.93A21.72,21.72,0,0,1,396.91,110.05ZM390.53,98.8c-2.18,2.85-4.18,9.15-3.94,12.31.15,1.91,1.69,3.09,4,3,2.14,0,3.63-1.33,3.72-3.18a15.11,15.11,0,0,0-.61-4.73A22.74,22.74,0,0,0,390.53,98.8Z"/><path class="cls-9" d="M392.88,122.37a5.51,5.51,0,0,1,3.7-5.23A2.61,2.61,0,0,1,400,119.2a5.7,5.7,0,0,1-2.49,5.6,3,3,0,0,1-3.19.33A2.77,2.77,0,0,1,392.88,122.37Z"/><path class="cls-9" d="M388.08,122.27a3,3,0,0,1-1.45,2.86,2.9,2.9,0,0,1-3.06-.26,5.58,5.58,0,0,1-2.56-5.8,2.58,2.58,0,0,1,3.6-1.84A5.68,5.68,0,0,1,388.08,122.27Z"/><path class="cls-8" d="M378.78,86.94a12.25,12.25,0,0,0,.18-3.87c.77,1,.16,2,.34,3.06C379.36,86.51,379.29,86.88,378.78,86.94Z"/><path class="cls-8" d="M378.71,88l.07-.51a.43.43,0,0,1,.2.54C378.91,88.25,378.8,88.13,378.71,88Z"/><path class="cls-10" d="M365.51,95.74a10.76,10.76,0,0,1-10.89-10.88A10.86,10.86,0,0,1,365.5,73.93a11,11,0,0,1,10.95,10.92A10.9,10.9,0,0,1,365.51,95.74Zm-1-8.67a4,4,0,1,0,8,0,4,4,0,1,0-8,0Z"/><path class="cls-10" d="M415.32,95.74a10.91,10.91,0,1,1,11-10.63A10.85,10.85,0,0,1,415.32,95.74ZM412.71,83a4,4,0,0,0-4,4,4,4,0,1,0,8,0A4,4,0,0,0,412.71,83Z"/><path class="cls-10" d="M375.66,60.67c-.68,1.79-4.36,3.17-6.56,2.92-3.54-.4-5.05-1.63-5.94-5.14a42.76,42.76,0,0,1-.26-19.52,7.83,7.83,0,0,1,.34-.92,11.14,11.14,0,0,1,2.09,1.66,40,40,0,0,1,7.39,10.57C374.38,53.52,376,56.83,375.66,60.67Z"/><path class="cls-11" d="M375.66,60.67c.32-3.84-1.28-7.15-2.94-10.43a40,40,0,0,0-7.39-10.57A11.14,11.14,0,0,0,363.24,38c.25-1,.82-.5,1.25-.22a23.49,23.49,0,0,1,5.35,5A40.8,40.8,0,0,1,377,54.23c.84,2.15,1,4.21-.74,6.05A3.28,3.28,0,0,1,375.66,60.67Z"/><path class="cls-10" d="M418.94,48a34.91,34.91,0,0,1-1,10c-1.57,5.79-7.86,7.48-12.25,3.33-2.12-2-2.91-4.26-1.74-7.07a41.78,41.78,0,0,1,11.57-15.89l.23-.17c1.61-1.17,1.89-1.09,2.35.79A33.08,33.08,0,0,1,418.94,48Z"/><path class="cls-12" d="M390.53,98.8a22.74,22.74,0,0,1,3.15,7.45,15.11,15.11,0,0,1,.61,4.73c-.09,1.85-1.58,3.15-3.72,3.18-2.29,0-3.83-1.14-4-3C386.35,108,388.35,101.65,390.53,98.8Z"/><path class="cls-2" d="M364.53,87.07a4,4,0,1,1,8,0,4,4,0,1,1-8,0Z"/><path class="cls-2" d="M412.71,83a4,4,0,0,1,4,4,4,4,0,1,1-8,0A4,4,0,0,1,412.71,83Z"/></g></svg>