<svg xmlns="http://www.w3.org/2000/svg" viewBox="0 0 197.86 241.46"><defs><style>.cls-1{fill:#0c090e;}.cls-2{fill:#271c32;}.cls-3{fill:#f47c20;}.cls-4{fill:#926126;}.cls-5{fill:#fff;}.cls-6{fill:#271d33;}.cls-7{fill:#f9f9f9;}.cls-8{fill:#afafb0;}.cls-9{fill:#fbfbfb;}.cls-10{fill:#f2f1f1;}.cls-11{fill:#352744;}.cls-12{fill:#7c5c9c;}.cls-13{fill:#8362a8;}.cls-14{fill:#5c4578;}.cls-15{fill:#c7c7c7;}.cls-16{fill:#76579a;}.cls-17{fill:#06030a;}</style></defs><g id="Layer_23" data-name="Layer 23"><path class="cls-1" d="M192.22,138.19c-.69,2.14-1,4.39-1.79,6.5a36,36,0,0,1-7.39,11.5c-6,6.35-12.51,12-20.48,15.83a45.14,45.14,0,0,1-16.94,4.38,1.51,1.51,0,0,0-1.39.73,42.32,42.32,0,0,1-3.86,5.19,1.7,1.7,0,0,0-.26,2,37.08,37.08,0,0,1,1.94,16.76c-.59,5.75-4.58,9.63-10.65,11A29.91,29.91,0,0,1,125,213c-.25,0-.58-.12-.72.25H113c-1.69-.56-3.47-.46-5.19-.83-3.93-.86-7.84-2-9.87-5.73-1.25-2.28-2.68-2.7-4.93-2.56a2.91,2.91,0,0,0-2.67,1.43c-2.12,3.2-5.44,4.66-9,5.39-6.47,1.32-13,1.17-19.53.65a25.42,25.42,0,0,1-7.9-1.78,11.85,11.85,0,0,1-7.67-10.51,38.94,38.94,0,0,1,1.76-15.68,1.57,1.57,0,0,0-.44-1.72A58.67,58.67,0,0,1,36.83,162a59.82,59.82,0,0,1-2.31-24.77c.49-4.29,1.76-8.39,2.71-12.57,1.12-5,1.17-10-3.08-14a53.62,53.62,0,0,1-5.46-5.91c-3.16-4-3.34-8.15-1-12.56a46.72,46.72,0,0,1,5.1-7.55c3.39-4.22,4-8.88,2.83-14a46.51,46.51,0,0,1-1.34-8.73c-.21-6.15,3.14-8.8,7.31-10.38a37.69,37.69,0,0,1,7.14-1.93,18.68,18.68,0,0,0,13-8.72,29.88,29.88,0,0,1,4.17-5c3.92-3.81,8.35-5,13.47-2.65,2.68,1.22,5.35,2.43,8,3.68a14.81,14.81,0,0,0,13,0c3.1-1.4,6.1-3,9.3-4.2,4.31-1.6,8-.52,11.34,2.28a30.62,30.62,0,0,1,5.72,6.42,17.93,17.93,0,0,0,12,7.84,41.55,41.55,0,0,1,8.58,2.44c4.77,2.09,6.79,5.57,6.34,10.71-.29,3.37-1.09,6.65-1.67,10A13.58,13.58,0,0,0,154,83.15a97.85,97.85,0,0,1,5.53,8.14c1.82,3.29,2.92,6.69,1.31,10.43a14.09,14.09,0,0,1-2.48,3.89c-1.76,2-3.63,3.82-5.45,5.73a1.54,1.54,0,0,1,.58-1.36c1.67-1.83,3.35-3.65,4.95-5.53,2.19-2.55,3.24-5.38,1.69-8.66-.61-1.28-1.36-2.5-2-3.76-.23.35.08.88-.38,1.15-1.81-3.1-4-5.92-6-8.87a15.76,15.76,0,0,1-2.33-12.13c.52-2.91,1.3-5.78,1.53-8.74.29-2.3.46-4.59-1.07-6.6-1-1.7-2.72-2.38-4.43-3a63,63,0,0,0-8.29-2.23,18.74,18.74,0,0,1-11.42-7.22A40.19,40.19,0,0,0,119.29,37c-2.76-2.3-5.72-3-9.17-1.66-2.63,1-5.16,2.28-7.68,3.54a18.22,18.22,0,0,1-17.07.06,81.77,81.77,0,0,0-8.09-3.67,8,8,0,0,0-8.09,1.25,25.68,25.68,0,0,0-5.6,6.13c-3.2,4.64-7.21,8-12.88,9.15a47.73,47.73,0,0,0-9.21,2.57,7,7,0,0,0-4.68,7.15C37,65.77,38.18,69.85,38.74,74V77.8c-.14.54-.26,1.08-.4,1.63-.77,3-2.64,5.48-4.41,8a42,42,0,0,0-4.46,7,7.77,7.77,0,0,0,.82,8.25A38,38,0,0,0,35,107.9c3.08,2.92,5.24,6.26,5.33,10.65L40.29,122l0,1.16V128l0,.59,0,.8c-.12.8-.47-1-.6.06a6.91,6.91,0,0,0,4.52,6.6,11.61,11.61,0,0,0,4.46.43,38.13,38.13,0,0,1,9.84,0,15.3,15.3,0,0,1,7.24,3.16c6.34,5,13,9.29,20.75,11.64a20.47,20.47,0,0,0,11.24.44A52.08,52.08,0,0,0,117,141.88a15.8,15.8,0,0,1,7-3.42,8.23,8.23,0,0,0,2.45-.6c3.54-1.94,7.3-1.29,11-1.08.38,0,.62.17.65.57-2.15.09-4.29.15-6.44.26a9.56,9.56,0,0,0-4.55,1.22c-1.39.17-2.79.36-4.18.5a2.08,2.08,0,0,0-1.22.64,68.18,68.18,0,0,1-17.1,10.88c-7.65,3.39-15.21,3.78-22.91.17A67.67,67.67,0,0,1,65.3,140.17c-.41-.36-.74-.82-1.39-.88-1.12-.11-2.23-.32-3.34-.48a9.71,9.71,0,0,0-4.5-1.15l-3.56-.11c-1.87-.08-3.75-.1-5.63-.24-4.2-.29-7.59-1.78-8.85-6.27a2.36,2.36,0,0,0-.23-.37,61.84,61.84,0,0,0-1.52,17.39,1,1,0,0,0,.15.87l0,.56c-.78-.13-.42-1.07-1-1.41a13.18,13.18,0,0,0,.2,3.33,50.73,50.73,0,0,0,2.72,11.88,59.57,59.57,0,0,0,9.37,17.24c.78,1,1.08.92,1.54-.1a15.16,15.16,0,0,1,2.6-3.65,14.86,14.86,0,0,1,8.81-4.26l4.06,0a1.24,1.24,0,0,0,.38.16,41.59,41.59,0,0,1,14.77,4.85c5.56,3,10,7.08,12,13.3.49,1.53.59,3.12.93,4.67l0,2.63a.64.64,0,0,0,0,.83s0,.06,0,.09a.49.49,0,0,0,0,.16l-.6,2.12c-.33.53-.35,1.53-.08,1.57a13.84,13.84,0,0,0,3.58,0c.46,0,.13-.61,0-.95a4.25,4.25,0,0,0-.27-1.83l0-4.06a2.08,2.08,0,0,0,.15-.39A19.89,19.89,0,0,1,103.51,182a40,40,0,0,1,17.65-7.74c4.62-.91,9.18-.68,13.26,2.19a20.47,20.47,0,0,1,4.29,4.62c.2.65.32,1.29,1.08.33a62.82,62.82,0,0,0,8.9-15,59,59,0,0,0,4.4-22.5,46.12,46.12,0,0,0-1.11-11,37.3,37.3,0,0,0-1.91-6.89,16,16,0,0,1-.25,3.56,7.52,7.52,0,0,1-1.66,4.47c-.73-.67.11-1.19.23-1.75a61.58,61.58,0,0,0,1.12-11.73,9.68,9.68,0,0,1,.61-4.05c-.88,4.3.86,8.18,2,12.16a59.66,59.66,0,0,1,1.72,21.49,69.27,69.27,0,0,1-1.37,8.32,49.27,49.27,0,0,0,8.36-3.49,31.55,31.55,0,0,0,14.09-13.52c2.9-5.58,2.4-11.28-.08-16.89a91.59,91.59,0,0,0-6.31-11.07,12.23,12.23,0,0,1-2.09-4.4c-.28-1.74.45-2.74,2.18-3.16a8,8,0,0,1,6.1.89,36.69,36.69,0,0,1,14.66,16.09A25.19,25.19,0,0,1,192,132c0,.1.17.19.25.28ZM99.35,191.68l0,0a1.09,1.09,0,0,0-.32.87l0,0a15.11,15.11,0,0,0-.79,8,9.41,9.41,0,0,0,2.18,5.46c.34-3.67,1.92-6,4.73-7.13a7.53,7.53,0,0,1,8.26,1.57,1,1,0,0,0,1.43.1,6.92,6.92,0,0,1,7.26-.34c1.5.85,2.26.84,3.59-.39,2.74-2.53,5.86-2.38,9.88-.07a9.72,9.72,0,0,1,2.58,4.89,9.12,9.12,0,0,0,1.34-4.39l0-4.77a28.71,28.71,0,0,0-2.09-10.73c-1-2.41-2.23-4.68-4.63-6a9.43,9.43,0,0,0-6.52-2.2c-7.22,0-13.69,2.52-19.64,6.42a17.93,17.93,0,0,0-7.25,8.57A.37.37,0,0,0,99.35,191.68ZM67.12,209.21a19.21,19.21,0,0,0,3.94,0c2.29-.25,2.87-.84,2.76-2.82l0-.51-.16-.33a4.89,4.89,0,0,0-4.46-3.65A5.07,5.07,0,0,0,64.12,205c-.43,1.13-.82,2.33.18,3.41A3.43,3.43,0,0,0,67.12,209.21Zm59.64-1c2.22.69,4.23-.22,6.24-.9,2.85-1,3.24-2.38,1.49-4.85a8.11,8.11,0,0,0-.85-.91,5,5,0,0,0-5.9-.17c-1.66,1.05-1.9,1.7-1.26,4.36C126.68,206.54,126.1,207.43,126.76,208.18ZM76.19,204.7a7.48,7.48,0,0,1,.24,2.66c-.13.88.35,1.06,1.06,1.06a14.88,14.88,0,0,0,6.88-1.8,1.88,1.88,0,0,0,1-2.39,4.86,4.86,0,0,0-6.08-3.51,3.77,3.77,0,0,0-2.32,1.2C76.15,202.67,75.34,203.49,76.19,204.7Zm115.17-66.81a31.76,31.76,0,0,0-1.68,3.08c-.44.69-.42,1.68-1.37,2a23.74,23.74,0,0,0,.95-12.11c-1.57-8-6-14.24-12.13-19.34-2.1-1.74-4.3-3.42-7.27-3.36a.76.76,0,0,0-1-.72c-.42.11-.41.57-.43,1a4.75,4.75,0,0,0,.48,2.45c1.84,3.59,4.36,6.77,6.07,10.45,1.44,3.13,2.74,6.23,2.82,9.76.09,3.8-1.06,7.29-2.27,10.79-.54,1.58-1.61,2.95-1.93,4.71l1.18-.16a31.85,31.85,0,0,1-5.25,5.69c-4.86,4.38-10.71,6.89-16.78,9-.51.18-1.11.18-1.31.88a71.51,71.51,0,0,1-5.06,11.89c-.06,1.08.83.57,1.14.53,2.41-.34,4.84-.65,7.2-1.21,10.26-2.45,18.27-8.59,25.55-15.86,1.62-1.62,3-3.46,4.62-5.13,3.81-4,5.59-8.94,6.48-14.27.07-.11.14-.21.2-.32l-.1-.07Zm-110.69,60c3.91.34,6.36,2.45,7.41,6.3a7.22,7.22,0,0,0,1.66-3.58c1.4-7.55-1.1-13.62-7.13-18.27a11.77,11.77,0,0,0-4.2-2.49,6.64,6.64,0,0,0-1-.73c-4.53-2.13-9.23-3.82-14.29-4s-9,1.82-11.43,6.35a26.94,26.94,0,0,0-2.9,11.09c-.18,2.74-.51,5.48.27,8.19a6.74,6.74,0,0,0,1.56,3.37,7.8,7.8,0,0,1,2.73-4.29,7.71,7.71,0,0,1,10,.44c.38.32.61.76,1.28.35a7.51,7.51,0,0,1,9,.33c.48.34.66.23,1-.16A8,8,0,0,1,80.67,197.87Zm38.2,11.49a21.2,21.2,0,0,0,3.34-.32,2.18,2.18,0,0,0,1.77-2.6,5.12,5.12,0,0,0-4.91-4.56,5.19,5.19,0,0,0-5.21,4.07c-.38,1.94.45,3.06,2.45,3.28C117.15,209.31,118,209.31,118.87,209.36Zm-57.42-.72a6.63,6.63,0,0,1,.49-5,.91.91,0,0,0-.11-1.22A5.15,5.15,0,0,0,53.34,204c-.56,1.52-.27,2.46,1.16,3.15A14.06,14.06,0,0,0,61.45,208.64Zm50.09,0a6.74,6.74,0,0,1,.43-5c.26-.54.35-.92-.13-1.33a5.12,5.12,0,0,0-4.9-1.4,4.79,4.79,0,0,0-3.72,3.76,1.71,1.71,0,0,0,.8,2.06A13.91,13.91,0,0,0,111.54,208.68Z"/><path class="cls-2" d="M157.69,93.18c.46-.27.15-.8.38-1.15.68,1.26,1.43,2.48,2,3.76,1.55,3.28.5,6.11-1.69,8.66-1.6,1.88-3.28,3.7-4.95,5.53a1.54,1.54,0,0,0-.58,1.36l-1.12,1.37c-.72.09-.81.61-.83,1.19l0,0c-.33.1-.35.34-.29.62l0,0c-.49.14-.36.53-.35.87l0,0c-.55.29-.3.77-.31,1.19h0a9.68,9.68,0,0,0-.61,4.05,61.58,61.58,0,0,1-1.12,11.73c-.12.56-1,1.08-.23,1.75-2,2.66-4.93,3.23-8,3.32a.69.69,0,0,0-1.12,0l-.85,0c0-.4-.27-.55-.65-.57-3.74-.21-7.5-.86-11,1.08a8.23,8.23,0,0,1-2.45.6,15.8,15.8,0,0,0-7,3.42,52.08,52.08,0,0,1-19.33,9.85,20.47,20.47,0,0,1-11.24-.44c-7.78-2.35-14.41-6.65-20.75-11.64a15.3,15.3,0,0,0-7.24-3.16,38.13,38.13,0,0,0-9.84,0,11.61,11.61,0,0,1-4.46-.43,6.91,6.91,0,0,1-4.52-6.6c.13-1.08.48.74.6-.06.35.26.1.83.52,1A4,4,0,0,0,43.51,134a11,11,0,0,0,5.22.8l6.68.1c2.8.18,5.35,1.49,8.1,1.76a6.36,6.36,0,0,1,3.79,1.86,61,61,0,0,0,15.8,10.29,23,23,0,0,0,18.36.55,62.12,62.12,0,0,0,18.71-11.39,3.09,3.09,0,0,1,1.94-1.06c3.52,0,6.71-1.79,10.2-2l6.68-.08c6.13.28,8.48-1.93,8.53-8.06,0-.8,0-1.6,0-2.4,0-2.21-.05-4.43,0-6.64a11,11,0,0,1,2.49-6.75c1.84-2.33,4.11-4.27,6-6.53a12.52,12.52,0,0,0,2.79-4.69C159.48,97.34,158.55,95.26,157.69,93.18Z"/><path class="cls-1" d="M150.94,113.9c0-.58.11-1.1.83-1.19Z"/><path class="cls-1" d="M150.1,116.46c0-.42-.24-.9.31-1.19C150.26,115.66,150.47,116.13,150.1,116.46Z"/><path class="cls-1" d="M150.37,115.32c0-.34-.14-.73.35-.87C150.58,114.73,150.7,115.11,150.37,115.32Z"/><path class="cls-1" d="M150.69,114.49c-.06-.28,0-.52.29-.62C150.9,114.08,151,114.36,150.69,114.49Z"/><path class="cls-3" d="M132.31,134.84c-3.49.23-6.68,2-10.2,2a3.09,3.09,0,0,0-1.94,1.06,62.12,62.12,0,0,1-18.71,11.39,23,23,0,0,1-18.36-.55,61,61,0,0,1-15.8-10.29,6.36,6.36,0,0,0-3.79-1.86c-2.75-.27-5.3-1.58-8.09-1.76.14-.08.37-.29.33-.29-2.34.06-4.69-.34-7,.19a11,11,0,0,1-5.22-.8,4,4,0,0,1-2.74-3.53c-.17-.62.48-1.45-.49-1.85l0-.59a9.67,9.67,0,0,0,0-4.78l0-1.16a3,3,0,0,0,.06-3.49c-.09-4.39-2.25-7.73-5.33-10.65a38,38,0,0,1-4.72-5.25,7.77,7.77,0,0,1-.82-8.25,42,42,0,0,1,4.46-7c1.77-2.48,3.64-4.92,4.41-8,.14-.55.26-1.09.4-1.63l.11.08s.11,0,.11,0A19.75,19.75,0,0,0,39,73.67a1.42,1.42,0,0,0-.28.37c-.56-4.19-1.79-8.27-1.92-12.52a7,7,0,0,1,4.68-7.15,47.73,47.73,0,0,1,9.21-2.57c5.67-1.17,9.68-4.51,12.88-9.15a25.68,25.68,0,0,1,5.6-6.13,8,8,0,0,1,8.09-1.25,81.77,81.77,0,0,1,8.09,3.67,18.22,18.22,0,0,0,17.07-.06c2.52-1.26,5-2.49,7.68-3.54,3.45-1.38,6.41-.64,9.17,1.66a40.19,40.19,0,0,1,6.37,7.35,18.74,18.74,0,0,0,11.42,7.22,63,63,0,0,1,8.29,2.23c1.71.66,3.42,1.34,4.43,3a14.65,14.65,0,0,1,.83,6,1.54,1.54,0,0,0,.24.62c-.23,3-1,5.83-1.53,8.74a15.76,15.76,0,0,0,2.33,12.13c2,3,4.21,5.77,6,8.87.86,2.08,1.79,4.16,1.12,6.51a12.52,12.52,0,0,1-2.79,4.69c-1.92,2.26-4.19,4.2-6,6.53a11,11,0,0,0-2.49,6.75c-.05,2.21,0,4.43,0,6.64,0,.8,0,1.6,0,2.4-.05,6.13-2.4,8.34-8.53,8.06-2.42-.56-4.86-.1-7.31-.06ZM82.37,105c.09.09.19.22.27,0a.43.43,0,0,0-.2-.54v-.58c.5-.07.58-.44.52-.82-.18-1,.43-2.11-.34-3.06a2.45,2.45,0,0,1-.2-.51A13.35,13.35,0,0,0,66.33,88.67a13.47,13.47,0,0,0-5.65,23.62,12.86,12.86,0,0,0,13.8,1.93C78.63,112.52,81.05,109.21,82.37,105Zm50.17-3.17a13.47,13.47,0,1,0-13.43,13.46A13.41,13.41,0,0,0,132.54,101.85ZM83.87,74.1a15.1,15.1,0,0,0-.26-1.66A38.62,38.62,0,0,0,70.15,53C67.09,50.6,65,51.49,64,55.35a45.34,45.34,0,0,0-.72,15.58,26.25,26.25,0,0,0,1.73,7.39,8.18,8.18,0,0,0,7.72,5A10.83,10.83,0,0,0,83,77.2,6.25,6.25,0,0,0,83.87,74.1Zm41.32-8.29c0-4.05-.1-7.48-1.1-10.81-1-3.53-2.8-4.14-5.86-2.11-.15.11-.32.2-.46.32a44,44,0,0,0-12.68,17.38c-3,7.31,5,13.32,10.77,12.58,4.41-.56,7.15-2.9,8.19-7.33A43.83,43.83,0,0,0,125.19,65.81ZM100.57,127a21.78,21.78,0,0,0-1.5-7.21,15.64,15.64,0,0,0-3.14-5.93c-1.27-1.31-2.39-1.28-3.61.09a7.47,7.47,0,0,0-1,1.37,29.88,29.88,0,0,0-3.5,9.9c-.3,1.8-.54,3.65.46,5.36a6.9,6.9,0,0,0,7.63,2.92C99.18,132.63,100.65,130.64,100.57,127Zm-4,12.32a2.74,2.74,0,0,0,1.4,2.76,3,3,0,0,0,3.19-.33,5.67,5.67,0,0,0,2.48-5.6,2.59,2.59,0,0,0-3.37-2.06A5.48,5.48,0,0,0,96.54,139.35Zm-4.81-.1a5.66,5.66,0,0,0-3.46-5,2.58,2.58,0,0,0-3.6,1.84,5.57,5.57,0,0,0,2.56,5.8,2.9,2.9,0,0,0,3.06.26A2.93,2.93,0,0,0,91.73,139.25Z"/><path class="cls-3" d="M138.16,137.35l.85,0,1.12,0c3.1-.09,6-.66,8-3.32a7.52,7.52,0,0,0,1.66-4.47c.4-.12.45.13.52.44a61.4,61.4,0,0,1,1.49,18.63A57.3,57.3,0,0,1,138.71,181a20.47,20.47,0,0,0-4.29-4.62c-4.08-2.87-8.64-3.1-13.26-2.19A40,40,0,0,0,103.51,182a19.89,19.89,0,0,0-7.86,13.69,2.08,2.08,0,0,1-.15.39.54.54,0,0,0-.12-.09h-.12a22.82,22.82,0,0,0-.07,4.45c0,.09.2-.17.28-.3a4.25,4.25,0,0,1,.27,1.83H93.07c-.44,0-.87,0-.86-.63l.6-2.12c.72-1.41.16-2.88.15-4.34l-.16.63c-.34-1.55-.44-3.14-.93-4.67-2-6.22-6.39-10.3-12-13.3a41.59,41.59,0,0,0-14.77-4.85,1.24,1.24,0,0,1-.38-.16s.07-.07.08-.12a.23.23,0,0,0,0-.12,16.19,16.19,0,0,0-4.23,0l.1.24a14.86,14.86,0,0,0-8.81,4.26,15.16,15.16,0,0,0-2.6,3.65c-.62-.15-.86-.71-1.18-1.14a57.39,57.39,0,0,1-11.65-29.8l0-.56a1,1,0,0,0-.15-.87,61.84,61.84,0,0,1,1.52-17.39A2.36,2.36,0,0,1,38,131c1.26,4.49,4.65,6,8.85,6.27,1.88.14,3.76.16,5.63.24H48.18v.35c1.24,0,2.49,0,3.72,0,1.39-.08,2.8.29,4.17-.23a9.71,9.71,0,0,1,4.5,1.15,20.63,20.63,0,0,0,3.87,5A57.64,57.64,0,0,0,82.75,157c3.69,1.68,7.51,3.08,11.65,2.94a29.33,29.33,0,0,0,11.33-3.17,57.43,57.43,0,0,0,19-14.42c.94-1.06,2.09-2.05,2.46-3.53a9.56,9.56,0,0,1,4.55-1.22C133.87,137.5,136,137.44,138.16,137.35Z"/><path class="cls-3" d="M169.86,108.18c3-.06,5.17,1.62,7.27,3.36,6.16,5.1,10.56,11.34,12.13,19.34a23.74,23.74,0,0,1-.95,12.11,38.84,38.84,0,0,1-2.31,5,48.47,48.47,0,0,1-8.69,10.36c-8.7,8.37-18.57,14.41-30.92,15.51A71.51,71.51,0,0,0,151.45,162c.2-.7.8-.7,1.31-.88,6.07-2.09,11.92-4.6,16.78-9a31.85,31.85,0,0,0,5.25-5.69,21,21,0,0,0,4.49-15,29,29,0,0,0-4-11.64c-1.92-3.34-3.94-6.63-5.92-9.94C168.92,109.09,168.7,108.41,169.86,108.18Z"/><path class="cls-3" d="M135.61,199.66c-4-2.31-7.14-2.46-9.88.07-1.33,1.23-2.09,1.24-3.59.39a6.92,6.92,0,0,0-7.26.34,1,1,0,0,1-1.43-.1,7.53,7.53,0,0,0-8.26-1.57c-2.81,1.1-4.39,3.46-4.73,7.13a9.41,9.41,0,0,1-2.18-5.46c.26-2.65.53-5.3.79-8l0,0c.41-.18.31-.54.32-.87l0,0c.05,0,.13,0,.12-.05a.79.79,0,0,0,0-.22,17.93,17.93,0,0,1,7.25-8.57c6-3.9,12.42-6.4,19.64-6.42a9.43,9.43,0,0,1,6.52,2.2c.09,1.06.79,1.88,1.13,2.86A40.18,40.18,0,0,1,135.61,199.66Z"/><path class="cls-3" d="M48.76,192.55a26.94,26.94,0,0,1,2.9-11.09c2.47-4.53,6.42-6.52,11.43-6.35s9.76,1.86,14.29,4a6.64,6.64,0,0,1,1,.73c.57,1.57,1.22,3.13,1.7,4.73a26.69,26.69,0,0,1,.56,13.31,8,8,0,0,0-6.17,2.91c-.31.39-.49.5-1,.16a7.51,7.51,0,0,0-9-.33c-.67.41-.9,0-1.28-.35a7.71,7.71,0,0,0-10-.44,7.8,7.8,0,0,0-2.73,4.29A6.74,6.74,0,0,1,49,200.74c0-1.87,0-3.74,0-5.61C49,194.27,49.26,193.37,48.76,192.55Z"/><path class="cls-4" d="M127.17,138.83c-.37,1.48-1.52,2.47-2.46,3.53a57.43,57.43,0,0,1-19,14.42A29.33,29.33,0,0,1,94.4,160c-4.14.14-8-1.26-11.65-2.94a57.64,57.64,0,0,1-18.31-13.22,20.63,20.63,0,0,1-3.87-5c1.11.16,2.22.37,3.34.48.65.06,1,.52,1.39.88A67.67,67.67,0,0,0,81.76,151c7.7,3.61,15.26,3.22,22.91-.17A68.18,68.18,0,0,0,121.77,140a2.08,2.08,0,0,1,1.22-.64C124.38,139.19,125.78,139,127.17,138.83Z"/><path class="cls-4" d="M80.67,197.87a26.69,26.69,0,0,0-.56-13.31c-.48-1.6-1.13-3.16-1.7-4.73a11.77,11.77,0,0,1,4.2,2.49c6,4.65,8.53,10.72,7.13,18.27a7.22,7.22,0,0,1-1.66,3.58C87,200.32,84.58,198.21,80.67,197.87Z"/><path class="cls-4" d="M146.39,173.85c12.35-1.1,22.22-7.14,30.92-15.51A48.47,48.47,0,0,0,186,148a38.84,38.84,0,0,0,2.31-5c.95-.34.93-1.33,1.37-2a31.76,31.76,0,0,1,1.68-3.08l0,0c-.89,5.33-2.67,10.25-6.48,14.27-1.58,1.67-3,3.51-4.62,5.13-7.28,7.27-15.29,13.41-25.55,15.86-2.36.56-4.79.87-7.2,1.21C147.22,174.42,146.33,174.93,146.39,173.85Z"/><path class="cls-4" d="M135.61,199.66A40.18,40.18,0,0,0,134,181.48c-.34-1-1-1.8-1.13-2.86,2.4,1.36,3.65,3.63,4.63,6a28.71,28.71,0,0,1,2.09,10.73,9.4,9.4,0,0,0,0,4.77,9.12,9.12,0,0,1-1.34,4.39A9.72,9.72,0,0,0,135.61,199.66Z"/><path class="cls-5" d="M118.87,209.36c-.87-.05-1.72-.05-2.56-.13-2-.22-2.83-1.34-2.45-3.28a5.19,5.19,0,0,1,5.21-4.07,5.12,5.12,0,0,1,4.91,4.56,2.18,2.18,0,0,1-1.77,2.6A21.2,21.2,0,0,1,118.87,209.36Z"/><path class="cls-6" d="M138.71,181a57.3,57.3,0,0,0,13.12-32.44A61.4,61.4,0,0,0,150.34,130c-.07-.31-.12-.56-.52-.44a16,16,0,0,0,.25-3.56,37.3,37.3,0,0,1,1.91,6.89,46.12,46.12,0,0,1,1.11,11,59,59,0,0,1-4.4,22.5,62.82,62.82,0,0,1-8.9,15C139,182.32,138.91,181.68,138.71,181Z"/><path class="cls-6" d="M169.86,108.18c-1.16.23-.94.91-.51,1.63,2,3.31,4,6.6,5.92,9.94a29,29,0,0,1,4,11.64,21,21,0,0,1-4.49,15l-1.18.16c.32-1.76,1.39-3.13,1.93-4.71,1.21-3.5,2.36-7,2.27-10.79-.08-3.53-1.38-6.63-2.82-9.76-1.71-3.68-4.23-6.86-6.07-10.45a4.75,4.75,0,0,1-.48-2.45c0-.38,0-.84.43-1A.76.76,0,0,1,169.86,108.18Z"/><path class="cls-7" d="M61.45,208.64a14.06,14.06,0,0,1-7-1.53c-1.43-.69-1.72-1.63-1.16-3.15a5.15,5.15,0,0,1,8.49-1.56.91.91,0,0,1,.11,1.22A6.63,6.63,0,0,0,61.45,208.64Z"/><path class="cls-7" d="M111.54,208.68a13.91,13.91,0,0,1-7.52-1.92,1.71,1.71,0,0,1-.8-2.06,4.79,4.79,0,0,1,3.72-3.76,5.12,5.12,0,0,1,4.9,1.4c.48.41.39.79.13,1.33A6.74,6.74,0,0,0,111.54,208.68Z"/><path class="cls-8" d="M79.25,200.72a4.86,4.86,0,0,1,6.08,3.51,1.88,1.88,0,0,1-1,2.39,14.88,14.88,0,0,1-6.88,1.8c-.71,0-1.19-.18-1.06-1.06a7.48,7.48,0,0,0-.24-2.66A5.89,5.89,0,0,0,79.25,200.72Z"/><path class="cls-9" d="M73.8,205.87l0,.51a33.34,33.34,0,0,1-9.52,2c-1-1.08-.61-2.28-.18-3.41a5.07,5.07,0,0,1,5.06-3.08,4.89,4.89,0,0,1,4.46,3.65A.23.23,0,0,0,73.8,205.87Z"/><path class="cls-7" d="M126.76,208.18c-.66-.75-.08-1.64-.28-2.47-.64-2.66-.4-3.31,1.26-4.36a5,5,0,0,1,5.9.17,8.11,8.11,0,0,1,.85.91C132.78,205.52,130,207.1,126.76,208.18Z"/><path class="cls-6" d="M36.47,149.49a57.39,57.39,0,0,0,11.65,29.8c.32.43.56,1,1.18,1.14-.46,1-.76,1.11-1.54.1a59.57,59.57,0,0,1-9.37-17.24,50.73,50.73,0,0,1-2.72-11.88,13.18,13.18,0,0,1-.2-3.33C36.05,148.42,35.69,149.36,36.47,149.49Z"/><path class="cls-8" d="M126.76,208.18c3.2-1.08,6-2.66,7.73-5.75,1.75,2.47,1.36,3.88-1.49,4.85C131,208,129,208.87,126.76,208.18Z"/><path class="cls-8" d="M64.3,208.38a33.34,33.34,0,0,0,9.52-2c.11,2-.47,2.57-2.76,2.82a6.78,6.78,0,0,0-3.94,0A3.43,3.43,0,0,1,64.3,208.38Z"/><path class="cls-10" d="M79.25,200.72a5.89,5.89,0,0,1-3.06,4c-.85-1.21,0-2,.74-2.78A3.77,3.77,0,0,1,79.25,200.72Z"/><path class="cls-11" d="M92.21,201.31c0,.61.42.63.86.63h2.67c.1.34.43.9,0,.95a13.84,13.84,0,0,1-3.58,0C91.86,202.84,91.88,201.84,92.21,201.31Zm2.86,1.08v-.13H92.59v.13Z"/><path class="cls-12" d="M48.76,192.55c.5.82.2,1.72.23,2.58,0,1.87,0,3.74,0,5.61C48.25,198,48.58,195.29,48.76,192.55Z"/><path class="cls-12" d="M99.07,192.5c-.26,2.66-.53,5.31-.79,8A15.11,15.11,0,0,1,99.07,192.5Z"/><path class="cls-12" d="M150.87,63.44a1.54,1.54,0,0,1-.24-.62,14.65,14.65,0,0,0-.83-6C151.33,58.85,151.16,61.14,150.87,63.44Z"/><path class="cls-13" d="M56.07,137.66c-1.37.52-2.78.15-4.17.23-1.23.06-2.48,0-3.72,0v-.35h4.33Z"/><path class="cls-13" d="M40.35,118.55a3,3,0,0,1-.06,3.49Z"/><path class="cls-13" d="M95.47,200.1c-.08.13-.28.39-.28.3a22.82,22.82,0,0,1,.07-4.45h.12a.54.54,0,0,1,.12.09Z"/><path class="cls-13" d="M60.71,172.52l-.1-.24a16.19,16.19,0,0,1,4.23,0,.23.23,0,0,1,0,.12c0,.05,0,.08-.08.12Z"/><path class="cls-14" d="M139.53,200.16a9.4,9.4,0,0,1,0-4.77C139.54,197,139.54,198.57,139.53,200.16Z"/><path class="cls-13" d="M38.74,74a1.42,1.42,0,0,1,.28-.37A19.75,19.75,0,0,1,39,77.88s-.08,0-.11,0l-.11-.08C38.74,76.54,38.74,75.29,38.74,74Z"/><path class="cls-13" d="M40.27,123.2a9.67,9.67,0,0,1,0,4.78Z"/><path class="cls-13" d="M92.8,195.48l.16-.63c0,1.46.57,2.93-.15,4.34a.49.49,0,0,1,0-.16s0-.06,0-.09c0-.28,0-.56,0-.83Z"/><path class="cls-15" d="M67.12,209.21a6.78,6.78,0,0,1,3.94,0A19.21,19.21,0,0,1,67.12,209.21Z"/><path class="cls-13" d="M40.28,128.57c1,.4.32,1.23.49,1.85-.42-.22-.17-.79-.52-1Z"/><path class="cls-12" d="M99.37,191.66c0,.33.09.69-.32.87A1.09,1.09,0,0,1,99.37,191.66Z"/><path class="cls-6" d="M36.28,148.06a1,1,0,0,1,.15.87A1,1,0,0,1,36.28,148.06Z"/><path class="cls-2" d="M191.36,137.89l.12-.37.1.07c-.06.11-.13.21-.2.32Z"/><path class="cls-16" d="M92.83,198.11c0,.27,0,.55,0,.83A.64.64,0,0,1,92.83,198.11Z"/><path class="cls-12" d="M99.42,191.41a.79.79,0,0,1,0,.22s-.07,0-.12.05A.37.37,0,0,1,99.42,191.41Z"/><path class="cls-8" d="M73.8,205.87a.23.23,0,0,1-.16-.33Z"/><path class="cls-13" d="M132.31,134.84l-.63-.14c2.45,0,4.89-.5,7.31.06Z"/><path class="cls-13" d="M48.73,134.75c2.33-.53,4.68-.13,7-.19,0,0-.19.21-.33.29Z"/><path class="cls-1" d="M140.13,137.31l-1.12,0A.69.69,0,0,1,140.13,137.31Z"/><path class="cls-1" d="M82.44,103.93v.58l-.07.51c-1.32,4.19-3.74,7.5-7.89,9.2a12.86,12.86,0,0,1-13.8-1.93,13.47,13.47,0,0,1,5.65-23.62A13.35,13.35,0,0,1,82.42,99.54a2.45,2.45,0,0,0,.2.51A12.33,12.33,0,0,1,82.44,103.93Zm-13.27,8.79a10.89,10.89,0,0,0,10.94-10.89,11,11,0,0,0-11-10.92,10.87,10.87,0,0,0-10.87,10.93A10.75,10.75,0,0,0,69.17,112.72Z"/><path class="cls-1" d="M132.54,101.85a13.47,13.47,0,1,1-13.42-13.49A13.36,13.36,0,0,1,132.54,101.85ZM119,112.73a10.91,10.91,0,0,0,.21-21.82,10.91,10.91,0,1,0-.21,21.82Z"/><path class="cls-1" d="M83.87,74.1A6.25,6.25,0,0,1,83,77.2a10.83,10.83,0,0,1-10.22,6.12,8.18,8.18,0,0,1-7.72-5,26.25,26.25,0,0,1-1.73-7.39A45.34,45.34,0,0,1,64,55.35c.95-3.86,3-4.75,6.11-2.31a38.62,38.62,0,0,1,13.46,19.4A15.1,15.1,0,0,1,83.87,74.1ZM66.9,55a5.38,5.38,0,0,0-.34.92,42.94,42.94,0,0,0,.25,19.53c.9,3.5,2.41,4.73,6,5.13,2.19.25,5.88-1.13,6.56-2.92a3.28,3.28,0,0,0,.56-.39c1.7-1.84,1.58-3.9.74-6.05A41.41,41.41,0,0,0,73.5,59.76a23.49,23.49,0,0,0-5.35-5C67.72,54.49,67.14,54,66.9,55Z"/><path class="cls-1" d="M125.19,65.81a43.83,43.83,0,0,1-1.14,10c-1,4.43-3.78,6.77-8.19,7.33-5.75.74-13.77-5.27-10.77-12.58a44,44,0,0,1,12.68-17.38c.14-.12.31-.21.46-.32,3.06-2,4.81-1.42,5.86,2.11C125.09,58.33,125.2,61.76,125.19,65.81ZM122.6,65a33.37,33.37,0,0,0-.87-8.95c-.46-1.89-.74-2-2.35-.8l-.23.17a41.68,41.68,0,0,0-11.57,15.89c-1.17,2.81-.39,5.08,1.73,7.08,4.4,4.14,10.69,2.45,12.26-3.34A34.91,34.91,0,0,0,122.6,65Z"/><path class="cls-1" d="M100.57,127c.08,3.61-1.39,5.6-4.65,6.5a6.9,6.9,0,0,1-7.63-2.92c-1-1.71-.76-3.56-.46-5.36a29.88,29.88,0,0,1,3.5-9.9,7.47,7.47,0,0,1,1-1.37c1.22-1.37,2.34-1.4,3.61-.09a15.64,15.64,0,0,1,3.14,5.93A21.78,21.78,0,0,1,100.57,127Zm-6.38-11.25c-2.18,2.85-4.18,9.16-3.94,12.31.15,1.91,1.69,3.09,4,3,2.14,0,3.63-1.33,3.72-3.17a15.37,15.37,0,0,0-.61-4.73A22.7,22.7,0,0,0,94.19,115.78Z"/><path class="cls-17" d="M96.54,139.35a5.48,5.48,0,0,1,3.7-5.23,2.59,2.59,0,0,1,3.37,2.06,5.67,5.67,0,0,1-2.48,5.6,3,3,0,0,1-3.19.33A2.74,2.74,0,0,1,96.54,139.35Z"/><path class="cls-17" d="M91.73,139.25a2.93,2.93,0,0,1-1.44,2.86,2.9,2.9,0,0,1-3.06-.26,5.57,5.57,0,0,1-2.56-5.8,2.58,2.58,0,0,1,3.6-1.84A5.66,5.66,0,0,1,91.73,139.25Z"/><path class="cls-13" d="M82.44,103.93a12.33,12.33,0,0,0,.18-3.88c.77,1,.16,2,.34,3.06C83,103.49,82.94,103.86,82.44,103.93Z"/><path class="cls-13" d="M82.37,105l.07-.51a.43.43,0,0,1,.2.54C82.56,105.24,82.46,105.11,82.37,105Z"/><path class="cls-1" d="M95.07,202.39H92.59v-.13h2.49Z"/><path class="cls-9" d="M69.17,112.72a10.75,10.75,0,0,1-10.89-10.88A10.87,10.87,0,0,1,69.15,90.91a11,11,0,0,1,11,10.92A10.89,10.89,0,0,1,69.17,112.72Zm-1-8.67a4,4,0,1,0,8,0,4,4,0,1,0-8,0Z"/><path class="cls-9" d="M119,112.73a10.91,10.91,0,1,1,11-10.64A10.87,10.87,0,0,1,119,112.73ZM116.36,100a4,4,0,0,0-4,4,4,4,0,1,0,8,0A4,4,0,0,0,116.36,100Z"/><path class="cls-9" d="M79.32,77.65c-.68,1.79-4.37,3.17-6.56,2.92-3.54-.4-5.05-1.63-6-5.13a42.94,42.94,0,0,1-.25-19.53A5.38,5.38,0,0,1,66.9,55,11.56,11.56,0,0,1,69,56.65a39.89,39.89,0,0,1,7.39,10.58C78,70.5,79.63,73.81,79.32,77.65Z"/><path class="cls-8" d="M79.32,77.65c.31-3.84-1.28-7.15-2.94-10.42A39.89,39.89,0,0,0,69,56.65,11.56,11.56,0,0,0,66.9,55c.24-1,.82-.5,1.25-.22a23.49,23.49,0,0,1,5.35,5,41.41,41.41,0,0,1,7.12,11.45c.84,2.15,1,4.21-.74,6.05A3.28,3.28,0,0,1,79.32,77.65Z"/><path class="cls-9" d="M122.6,65a34.91,34.91,0,0,1-1,10c-1.57,5.79-7.86,7.48-12.26,3.34-2.12-2-2.9-4.27-1.73-7.08a41.68,41.68,0,0,1,11.57-15.89l.23-.17c1.61-1.17,1.89-1.09,2.35.8A33.37,33.37,0,0,1,122.6,65Z"/><path class="cls-10" d="M94.19,115.78a22.7,22.7,0,0,1,3.15,7.46A15.37,15.37,0,0,1,98,128c-.09,1.84-1.58,3.14-3.72,3.17-2.29,0-3.83-1.14-4-3C90,124.94,92,118.63,94.19,115.78Z"/><path class="cls-1" d="M68.19,104.05a4,4,0,1,1,8,0,4,4,0,1,1-8,0Z"/><path class="cls-1" d="M116.36,100a4,4,0,0,1,4,4,4,4,0,1,1-8,0A4,4,0,0,1,116.36,100Z"/></g></svg>