<svg xmlns="http://www.w3.org/2000/svg" viewBox="0 0 595.28 841.89"><defs><style>.cls-1{fill:none;stroke:#231f20;stroke-miterlimit:10;stroke-width:10px;}.cls-2{fill:#0c090e;}.cls-3{fill:#271c32;}.cls-4{fill:#f47c20;}.cls-5{fill:#926126;}.cls-6{fill:#fff;}.cls-7{fill:#271d33;}.cls-8{fill:#f9f9f9;}.cls-9{fill:#afafb0;}.cls-10{fill:#fbfbfb;}.cls-11{fill:#f2f1f1;}.cls-12{fill:#352744;}.cls-13{fill:#7c5c9c;}.cls-14{fill:#8362a8;}.cls-15{fill:#5c4578;}.cls-16{fill:#c7c7c7;}.cls-17{fill:#76579a;}.cls-18{fill:#06030a;}</style></defs><g id="Layer_14" data-name="Layer 14"><rect class="cls-1" x="55.32" y="48.92" width="483.26" height="743.72"/><path class="cls-2" d="M561.28,746.39c-.69,2.14-1,4.39-1.79,6.5a35.73,35.73,0,0,1-7.38,11.5c-6,6.35-12.52,12-20.48,15.83a45.24,45.24,0,0,1-17,4.38,1.54,1.54,0,0,0-1.39.73,40.6,40.6,0,0,1-3.86,5.19,1.7,1.7,0,0,0-.26,2,37.08,37.08,0,0,1,1.94,16.76c-.59,5.75-4.57,9.63-10.64,11a30,30,0,0,1-6.4.89c-.25,0-.58-.12-.72.25H482c-1.68-.55-3.47-.46-5.19-.83-3.93-.85-7.83-2-9.87-5.73-1.25-2.27-2.67-2.7-4.92-2.56a2.94,2.94,0,0,0-2.68,1.43c-2.12,3.2-5.44,4.66-9.05,5.4-6.46,1.31-13,1.16-19.53.64a24.92,24.92,0,0,1-7.9-1.78,11.84,11.84,0,0,1-7.67-10.51A39,39,0,0,1,417,791.79a1.59,1.59,0,0,0-.44-1.72,58.65,58.65,0,0,1-10.66-19.85,59.83,59.83,0,0,1-2.3-24.77c.48-4.29,1.75-8.39,2.7-12.57,1.13-5,1.17-10-3.08-14a55.64,55.64,0,0,1-5.46-5.91c-3.16-4-3.34-8.14-1-12.56a46.72,46.72,0,0,1,5.1-7.55c3.39-4.22,4-8.87,2.84-14a45,45,0,0,1-1.34-8.74c-.21-6.15,3.13-8.79,7.3-10.37a37.38,37.38,0,0,1,7.14-1.94,18.68,18.68,0,0,0,13-8.72,29.87,29.87,0,0,1,4.18-5c3.92-3.82,8.35-5,13.47-2.65,2.67,1.21,5.35,2.42,8,3.67a14.83,14.83,0,0,0,13,0c3.1-1.4,6.1-3,9.3-4.2,4.3-1.6,8-.52,11.33,2.28a30.59,30.59,0,0,1,5.72,6.42,18,18,0,0,0,12,7.84,41.23,41.23,0,0,1,8.59,2.45c4.77,2.08,6.78,5.56,6.33,10.7-.29,3.38-1.08,6.66-1.67,10a13.59,13.59,0,0,0,2.07,10.69c1.87,2.7,3.93,5.27,5.52,8.14,1.83,3.3,2.92,6.69,1.31,10.43a14.06,14.06,0,0,1-2.48,3.9c-1.75,2-3.63,3.82-5.45,5.72a1.54,1.54,0,0,1,.58-1.35c1.67-1.83,3.35-3.66,5-5.54,2.18-2.55,3.24-5.38,1.68-8.65-.61-1.29-1.35-2.51-2-3.77-.23.35.08.88-.38,1.15-1.8-3.09-4-5.91-6-8.87a15.71,15.71,0,0,1-2.34-12.12c.52-2.92,1.3-5.78,1.53-8.74.29-2.31.46-4.59-1.07-6.6-1-1.7-2.72-2.39-4.43-3a61.13,61.13,0,0,0-8.29-2.24,18.77,18.77,0,0,1-11.42-7.22,39.44,39.44,0,0,0-6.37-7.35c-2.75-2.29-5.72-3-9.17-1.66-2.62,1.06-5.16,2.28-7.68,3.54a18.19,18.19,0,0,1-17.07.06,81.6,81.6,0,0,0-8.08-3.67,8.06,8.06,0,0,0-8.1,1.25,26.15,26.15,0,0,0-5.6,6.14c-3.19,4.63-7.21,8-12.88,9.14a47,47,0,0,0-9.21,2.58,7,7,0,0,0-4.68,7.14c.13,4.25,1.36,8.34,1.93,12.52V686c-.13.54-.26,1.09-.4,1.63-.77,3-2.63,5.48-4.41,8a41.4,41.4,0,0,0-4.45,7,7.79,7.79,0,0,0,.81,8.25,37.32,37.32,0,0,0,4.72,5.24c3.08,2.92,5.24,6.26,5.33,10.66l-.05,3.48,0,1.16v4.78l0,.59,0,.8c-.12.8-.47-1-.59.06a6.92,6.92,0,0,0,4.51,6.61,11.85,11.85,0,0,0,4.47.42,37.61,37.61,0,0,1,9.83,0,15.27,15.27,0,0,1,7.25,3.15c6.33,5,13,9.29,20.75,11.64a20.43,20.43,0,0,0,11.23.44,52.08,52.08,0,0,0,19.33-9.85,15.79,15.79,0,0,1,7-3.42,8.16,8.16,0,0,0,2.44-.6c3.55-1.93,7.31-1.29,11-1.08.39,0,.62.18.66.58-2.15.08-4.3.14-6.45.25a9.83,9.83,0,0,0-4.55,1.22c-1.39.17-2.78.36-4.18.5a2.13,2.13,0,0,0-1.22.64,67.27,67.27,0,0,1-17.1,10.88c-7.64,3.4-15.2,3.78-22.9.17a68,68,0,0,1-16.47-10.84c-.41-.37-.73-.82-1.39-.89-1.12-.1-2.22-.31-3.34-.48a10,10,0,0,0-4.5-1.15l-3.55-.11c-1.88-.07-3.76-.1-5.63-.23-4.21-.3-7.6-1.79-8.86-6.27a1.48,1.48,0,0,0-.23-.38,61.5,61.5,0,0,0-1.51,17.39.93.93,0,0,0,.14.87l0,.57c-.78-.14-.42-1.07-1-1.42a13.16,13.16,0,0,0,.2,3.33,50.71,50.71,0,0,0,2.71,11.88,59.68,59.68,0,0,0,9.37,17.24c.78,1,1.09.92,1.54-.1A15.4,15.4,0,0,1,421,785a14.89,14.89,0,0,1,8.8-4.26l4.06,0a1.49,1.49,0,0,0,.39.17A41.64,41.64,0,0,1,449,785.71c5.55,3,9.95,7.08,11.95,13.3.49,1.53.59,3.12.93,4.68l0,2.62a.64.64,0,0,0,0,.83.32.32,0,0,0,0,.09,1.09,1.09,0,0,0,.05.17l-.6,2.11c-.33.54-.35,1.53-.07,1.57a13.76,13.76,0,0,0,3.57,0c.46-.05.14-.61,0-.94a4.13,4.13,0,0,0-.27-1.84l0-4.06a1.56,1.56,0,0,0,.15-.39,19.92,19.92,0,0,1,7.87-13.69,39.92,39.92,0,0,1,17.64-7.74c4.63-.91,9.19-.68,13.26,2.19a20.51,20.51,0,0,1,4.3,4.62c.19.65.32,1.29,1.08.33a62.78,62.78,0,0,0,8.89-15,58.8,58.8,0,0,0,4.4-22.5,46.17,46.17,0,0,0-1.11-11,38.48,38.48,0,0,0-1.9-6.89,16,16,0,0,1-.26,3.56,7.63,7.63,0,0,1-1.65,4.48c-.73-.67.1-1.2.22-1.75a61.78,61.78,0,0,0,1.13-11.74,9.68,9.68,0,0,1,.6-4.05c-.88,4.3.87,8.18,2,12.16a59.92,59.92,0,0,1,1.71,21.5,67.64,67.64,0,0,1-1.37,8.32,49.42,49.42,0,0,0,8.36-3.5A31.58,31.58,0,0,0,544,749.63c2.91-5.59,2.4-11.28-.07-16.9a93.81,93.81,0,0,0-6.32-11.07,12.32,12.32,0,0,1-2.09-4.4c-.28-1.74.45-2.74,2.18-3.16a8,8,0,0,1,6.1.89,36.83,36.83,0,0,1,14.67,16.09,25.66,25.66,0,0,1,2.62,9.08c0,.1.16.19.24.28Zm-92.86,53.49h0a1,1,0,0,0-.31.86l0,0a15,15,0,0,0-.8,7.95,9.36,9.36,0,0,0,2.19,5.46c.34-3.67,1.91-6,4.73-7.13a7.52,7.52,0,0,1,8.25,1.58,1,1,0,0,0,1.44.09,6.94,6.94,0,0,1,7.26-.34c1.5.86,2.25.84,3.59-.39,2.73-2.52,5.86-2.38,9.88-.06a9.59,9.59,0,0,1,2.57,4.89,9.32,9.32,0,0,0,1.35-4.4v-4.77a28.94,28.94,0,0,0-2.08-10.73c-1-2.41-2.24-4.68-4.64-6a9.42,9.42,0,0,0-6.52-2.19c-7.22,0-13.68,2.51-19.64,6.42a17.93,17.93,0,0,0-7.25,8.57A.4.4,0,0,0,468.42,799.88Zm-32.23,17.54a19.85,19.85,0,0,0,3.93,0c2.3-.25,2.87-.84,2.76-2.82l0-.51-.15-.33a4.89,4.89,0,0,0-4.46-3.65,5.09,5.09,0,0,0-5.07,3.08c-.43,1.13-.82,2.33.19,3.41A3.45,3.45,0,0,0,436.19,817.42Zm59.63-1c2.22.69,4.24-.22,6.24-.9,2.85-1,3.24-2.37,1.5-4.84a7.38,7.38,0,0,0-.85-.91,5,5,0,0,0-5.91-.18c-1.65,1.06-1.9,1.71-1.26,4.36C495.74,814.74,495.16,815.63,495.82,816.38Zm-50.56-3.48a7.73,7.73,0,0,1,.23,2.66c-.12.88.35,1.07,1.06,1.06a14.92,14.92,0,0,0,6.89-1.8,1.88,1.88,0,0,0,.95-2.38,4.86,4.86,0,0,0-6.08-3.52,3.85,3.85,0,0,0-2.32,1.2C445.21,810.87,444.4,811.69,445.26,812.9Zm115.17-66.8a27.89,27.89,0,0,0-1.69,3.08c-.43.68-.42,1.68-1.37,2a23.5,23.5,0,0,0,1-12.1c-1.57-8-6-14.24-12.12-19.35-2.11-1.74-4.31-3.42-7.27-3.36a.76.76,0,0,0-1-.71c-.41.1-.41.56-.42,1a4.72,4.72,0,0,0,.47,2.44c1.84,3.59,4.37,6.77,6.07,10.46,1.45,3.13,2.75,6.22,2.83,9.75.08,3.8-1.07,7.29-2.28,10.8-.54,1.57-1.61,2.94-1.93,4.7l1.18-.16a31.91,31.91,0,0,1-5.25,5.7c-4.85,4.37-10.7,6.88-16.78,9-.51.17-1.1.18-1.31.88a72.58,72.58,0,0,1-5,11.88c-.07,1.09.82.58,1.14.53,2.41-.34,4.83-.64,7.19-1.21,10.26-2.45,18.27-8.59,25.55-15.86,1.63-1.62,3-3.46,4.62-5.13,3.82-4,5.59-8.94,6.48-14.27l.21-.31-.11-.08Zm-110.7,60c3.91.33,6.36,2.45,7.42,6.29a7.25,7.25,0,0,0,1.65-3.58c1.4-7.55-1.1-13.62-7.13-18.27a11.73,11.73,0,0,0-4.19-2.49,8.79,8.79,0,0,0-1-.73c-4.54-2.13-9.23-3.82-14.3-4s-9,1.82-11.42,6.35a27.15,27.15,0,0,0-2.91,11.09c-.18,2.74-.51,5.49.27,8.19a6.66,6.66,0,0,0,1.56,3.37,7.89,7.89,0,0,1,2.73-4.29,7.72,7.72,0,0,1,10,.44c.38.32.61.77,1.28.35a7.51,7.51,0,0,1,9,.34c.47.33.65.22,1-.17A7.9,7.9,0,0,1,449.73,806.08Zm38.21,11.48a21.19,21.19,0,0,0,3.33-.32,2.18,2.18,0,0,0,1.77-2.6,5.1,5.1,0,0,0-4.91-4.55,5.18,5.18,0,0,0-5.21,4.06c-.38,1.94.45,3.07,2.45,3.28C486.21,817.52,487.06,817.52,487.94,817.56Zm-57.42-.71a6.61,6.61,0,0,1,.48-5,.91.91,0,0,0-.11-1.22,5.15,5.15,0,0,0-8.49,1.56c-.56,1.52-.27,2.47,1.16,3.15A14.19,14.19,0,0,0,430.52,816.85Zm50.08,0a6.72,6.72,0,0,1,.44-5c.26-.55.35-.92-.14-1.34a5.16,5.16,0,0,0-4.9-1.4,4.79,4.79,0,0,0-3.72,3.76,1.71,1.71,0,0,0,.8,2.06A13.74,13.74,0,0,0,480.6,816.88Z"/><path class="cls-3" d="M526.75,701.38c.46-.27.15-.8.38-1.15.69,1.26,1.43,2.48,2,3.77,1.56,3.27.5,6.1-1.68,8.65-1.61,1.88-3.29,3.71-5,5.54a1.54,1.54,0,0,0-.58,1.35l-1.11,1.37c-.73.09-.82.62-.84,1.2l0,0c-.33.1-.35.34-.29.62l0,0c-.49.14-.36.53-.35.87l0,0c-.55.28-.3.76-.3,1.19h0a9.68,9.68,0,0,0-.6,4.05,61.78,61.78,0,0,1-1.13,11.74c-.12.55-1,1.08-.22,1.75-2,2.65-4.94,3.22-8,3.31a.68.68,0,0,0-1.11,0l-.85,0c0-.4-.27-.56-.66-.58-3.73-.21-7.49-.85-11,1.08a8.16,8.16,0,0,1-2.44.6,15.79,15.79,0,0,0-7,3.42,52.08,52.08,0,0,1-19.33,9.85,20.43,20.43,0,0,1-11.23-.44c-7.79-2.35-14.42-6.65-20.75-11.64a15.27,15.27,0,0,0-7.25-3.15,37.61,37.61,0,0,0-9.83,0,11.85,11.85,0,0,1-4.47-.42,6.92,6.92,0,0,1-4.51-6.61c.12-1.08.47.74.59-.06.35.27.1.83.53,1a3.91,3.91,0,0,0,2.73,3.53,11.12,11.12,0,0,0,5.23.81l6.68.09c2.79.18,5.34,1.49,8.09,1.76a6.41,6.41,0,0,1,3.8,1.86A60.75,60.75,0,0,0,452.16,757a23,23,0,0,0,18.36.56,62.1,62.1,0,0,0,18.71-11.4,3.09,3.09,0,0,1,1.94-1.06c3.53,0,6.72-1.79,10.2-2l6.68-.09c6.14.28,8.48-1.93,8.53-8.06,0-.8,0-1.6,0-2.4,0-2.21,0-4.42,0-6.63a11,11,0,0,1,2.49-6.76c1.85-2.33,4.12-4.26,6-6.53a12.75,12.75,0,0,0,2.79-4.68C528.55,705.54,527.62,703.47,526.75,701.38Z"/><path class="cls-2" d="M520,722.11c0-.58.11-1.11.84-1.2Z"/><path class="cls-2" d="M519.17,724.67c0-.43-.25-.91.3-1.19C519.32,723.86,519.53,724.34,519.17,724.67Z"/><path class="cls-2" d="M519.44,723.52c0-.34-.14-.73.35-.87C519.64,722.93,519.76,723.31,519.44,723.52Z"/><path class="cls-2" d="M519.75,722.69c-.06-.28,0-.52.29-.62C520,722.29,520,722.56,519.75,722.69Z"/><path class="cls-4" d="M501.37,743.05c-3.48.22-6.67,2-10.2,2a3.09,3.09,0,0,0-1.94,1.06,62.1,62.1,0,0,1-18.71,11.4,23,23,0,0,1-18.36-.56,60.75,60.75,0,0,1-15.79-10.29,6.41,6.41,0,0,0-3.8-1.86c-2.75-.27-5.3-1.58-8.09-1.76.14-.07.37-.28.33-.28-2.34.05-4.69-.35-7,.19a11.12,11.12,0,0,1-5.23-.81,3.91,3.91,0,0,1-2.73-3.53c-.17-.61.48-1.45-.49-1.85l0-.59a9.67,9.67,0,0,0,0-4.78l0-1.16a3,3,0,0,0,.05-3.48c-.09-4.4-2.25-7.74-5.33-10.66a37.32,37.32,0,0,1-4.72-5.24,7.79,7.79,0,0,1-.81-8.25,41.4,41.4,0,0,1,4.45-7c1.78-2.48,3.64-4.92,4.41-8,.14-.54.27-1.09.4-1.63,0,0,.07.07.11.08a.16.16,0,0,0,.12,0,20.42,20.42,0,0,0,0-4.21,1.22,1.22,0,0,0-.28.37c-.57-4.18-1.8-8.27-1.93-12.52a7,7,0,0,1,4.68-7.14,47,47,0,0,1,9.21-2.58c5.67-1.17,9.69-4.51,12.88-9.14a26.15,26.15,0,0,1,5.6-6.14,8.06,8.06,0,0,1,8.1-1.25,81.6,81.6,0,0,1,8.08,3.67,18.19,18.19,0,0,0,17.07-.06c2.52-1.26,5.06-2.48,7.68-3.54,3.45-1.38,6.42-.63,9.17,1.66a39.44,39.44,0,0,1,6.37,7.35,18.77,18.77,0,0,0,11.42,7.22,61.13,61.13,0,0,1,8.29,2.24c1.71.65,3.42,1.34,4.43,3a14.48,14.48,0,0,1,.83,6c0,.2.16.41.24.62-.23,3-1,5.82-1.53,8.74a15.71,15.71,0,0,0,2.34,12.12c2,3,4.21,5.78,6,8.87.87,2.09,1.8,4.16,1.13,6.52a12.75,12.75,0,0,1-2.79,4.68c-1.92,2.27-4.19,4.2-6,6.53a11,11,0,0,0-2.49,6.76c0,2.21,0,4.42,0,6.63,0,.8,0,1.6,0,2.4-.05,6.13-2.39,8.34-8.53,8.06-2.42-.56-4.86-.09-7.31-.05Zm-49.93-29.83c.08.09.19.22.26,0a.42.42,0,0,0-.2-.54v-.58c.5-.07.57-.44.51-.82-.17-1,.43-2.11-.33-3a2.78,2.78,0,0,1-.2-.52,13.36,13.36,0,0,0-16.1-10.86,13.47,13.47,0,1,0,8.15,25.54C447.7,720.72,450.11,717.41,451.44,713.22Zm50.16-3.17a13.46,13.46,0,1,0-13.43,13.46A13.4,13.4,0,0,0,501.6,710.05Zm-48.67-27.74a11.61,11.61,0,0,0-.26-1.67,38.56,38.56,0,0,0-13.46-19.4c-3-2.44-5.16-1.54-6.11,2.31a45.64,45.64,0,0,0-.72,15.59,26.55,26.55,0,0,0,1.74,7.38,8.16,8.16,0,0,0,7.71,5,10.82,10.82,0,0,0,10.22-6.12A6.14,6.14,0,0,0,452.93,682.31ZM494.25,674a36.74,36.74,0,0,0-1.09-10.82c-1.06-3.53-2.81-4.14-5.86-2.11a5.52,5.52,0,0,0-.47.32,44.05,44.05,0,0,0-12.68,17.38c-3,7.32,5,13.32,10.78,12.58,4.41-.56,7.15-2.9,8.18-7.32A44,44,0,0,0,494.25,674Zm-24.62,61.21a21.83,21.83,0,0,0-1.5-7.21A15.53,15.53,0,0,0,465,722.1c-1.27-1.32-2.38-1.28-3.61.08a8.38,8.38,0,0,0-1,1.37,29.64,29.64,0,0,0-3.49,9.9c-.31,1.8-.54,3.66.46,5.36a6.92,6.92,0,0,0,7.63,2.93C468.24,740.84,469.71,738.85,469.63,735.23Zm-4,12.32a2.74,2.74,0,0,0,1.41,2.76,3,3,0,0,0,3.18-.33,5.68,5.68,0,0,0,2.49-5.59,2.61,2.61,0,0,0-3.38-2.07A5.53,5.53,0,0,0,465.6,747.55Zm-4.8-.09a5.66,5.66,0,0,0-3.47-5,2.57,2.57,0,0,0-3.6,1.84,5.56,5.56,0,0,0,2.56,5.79,2.92,2.92,0,0,0,3.07.26A3,3,0,0,0,460.8,747.46Z"/><path class="cls-4" d="M507.23,745.56l.85,0,1.11,0c3.1-.09,6-.66,8-3.31a7.63,7.63,0,0,0,1.65-4.48c.4-.12.45.13.52.44a61.43,61.43,0,0,1,1.5,18.63,57.34,57.34,0,0,1-13.12,32.44,20.51,20.51,0,0,0-4.3-4.62c-4.07-2.87-8.63-3.1-13.26-2.19a39.92,39.92,0,0,0-17.64,7.74,19.92,19.92,0,0,0-7.87,13.69,1.56,1.56,0,0,1-.15.39.87.87,0,0,0-.11-.09h-.13a23.63,23.63,0,0,0-.06,4.45c0,.1.2-.17.27-.3a4.13,4.13,0,0,1,.27,1.84h-2.67c-.44,0-.87,0-.86-.64l.6-2.11c.73-1.42.17-2.89.15-4.35l-.15.64c-.34-1.56-.44-3.15-.93-4.68-2-6.22-6.4-10.3-11.95-13.3a41.64,41.64,0,0,0-14.77-4.84,1.49,1.49,0,0,1-.39-.17s.07-.07.08-.11a.2.2,0,0,0,0-.12,15.69,15.69,0,0,0-4.22,0l.09.24A14.89,14.89,0,0,0,421,785a15.4,15.4,0,0,0-2.61,3.65c-.62-.14-.85-.71-1.18-1.14a57.44,57.44,0,0,1-11.65-29.79l0-.57a1.07,1.07,0,0,0-.14-.87,61.5,61.5,0,0,1,1.51-17.39,1.48,1.48,0,0,1,.23.38c1.26,4.48,4.65,6,8.86,6.27,1.87.13,3.75.16,5.63.23h-4.34v.35c1.24,0,2.49.06,3.73,0s2.8.3,4.16-.23a10,10,0,0,1,4.5,1.15,20.43,20.43,0,0,0,3.88,5,57.71,57.71,0,0,0,18.3,13.22c3.69,1.68,7.51,3.08,11.66,2.95A29.6,29.6,0,0,0,474.8,765a57.56,57.56,0,0,0,19-14.43c.94-1.06,2.09-2,2.46-3.53a9.83,9.83,0,0,1,4.55-1.22C502.93,745.7,505.08,745.64,507.23,745.56Z"/><path class="cls-4" d="M538.93,716.38c3-.06,5.16,1.62,7.27,3.36,6.16,5.11,10.55,11.34,12.12,19.35a23.5,23.5,0,0,1-1,12.1,37.53,37.53,0,0,1-2.31,5,47.94,47.94,0,0,1-8.69,10.36c-8.7,8.37-18.56,14.42-30.91,15.51a72.58,72.58,0,0,0,5-11.88c.21-.7.8-.71,1.31-.88,6.08-2.1,11.93-4.61,16.78-9a31.91,31.91,0,0,0,5.25-5.7,20.94,20.94,0,0,0,4.49-15,28.66,28.66,0,0,0-4-11.64c-1.92-3.35-3.94-6.63-5.91-10C538,717.29,537.76,716.62,538.93,716.38Z"/><path class="cls-4" d="M504.68,807.87c-4-2.32-7.15-2.46-9.88.06-1.34,1.23-2.09,1.25-3.59.39a6.94,6.94,0,0,0-7.26.34,1,1,0,0,1-1.44-.09,7.52,7.52,0,0,0-8.25-1.58c-2.82,1.11-4.39,3.46-4.73,7.13a9.36,9.36,0,0,1-2.19-5.46c.27-2.65.53-5.3.8-7.95l0,0c.4-.18.31-.54.31-.86h0l.12,0a1.66,1.66,0,0,0-.06-.21,17.93,17.93,0,0,1,7.25-8.57c6-3.91,12.42-6.41,19.64-6.42a9.42,9.42,0,0,1,6.52,2.19c.09,1.07.79,1.89,1.13,2.86A40.23,40.23,0,0,1,504.68,807.87Z"/><path class="cls-4" d="M417.82,800.75a27.15,27.15,0,0,1,2.91-11.09c2.46-4.53,6.42-6.52,11.42-6.35s9.76,1.86,14.3,4a8.79,8.79,0,0,1,1,.73c.57,1.58,1.21,3.13,1.7,4.73a26.72,26.72,0,0,1,.55,13.32,7.9,7.9,0,0,0-6.16,2.9c-.32.39-.5.5-1,.17a7.51,7.51,0,0,0-9-.34c-.67.42-.9,0-1.28-.35a7.72,7.72,0,0,0-10-.44,7.89,7.89,0,0,0-2.73,4.29,6.66,6.66,0,0,1-1.56-3.37c0-1.87,0-3.74,0-5.6C418,802.48,418.32,801.57,417.82,800.75Z"/><path class="cls-5" d="M496.23,747c-.37,1.49-1.52,2.47-2.46,3.53a57.56,57.56,0,0,1-19,14.43,29.6,29.6,0,0,1-11.33,3.17c-4.15.13-8-1.27-11.66-2.95A57.71,57.71,0,0,1,433.51,752a20.43,20.43,0,0,1-3.88-5c1.12.17,2.22.38,3.34.48.66.07,1,.52,1.39.89a68,68,0,0,0,16.47,10.84c7.7,3.61,15.26,3.23,22.9-.17a67.27,67.27,0,0,0,17.1-10.88,2.13,2.13,0,0,1,1.22-.64C493.45,747.39,494.84,747.2,496.23,747Z"/><path class="cls-5" d="M449.73,806.08a26.72,26.72,0,0,0-.55-13.32c-.49-1.6-1.13-3.15-1.7-4.73a11.73,11.73,0,0,1,4.19,2.49c6,4.65,8.53,10.72,7.13,18.27a7.25,7.25,0,0,1-1.65,3.58C456.09,808.53,453.64,806.41,449.73,806.08Z"/><path class="cls-5" d="M515.46,782.05c12.35-1.09,22.21-7.14,30.91-15.51a47.94,47.94,0,0,0,8.69-10.36,37.53,37.53,0,0,0,2.31-5c1-.33.94-1.33,1.37-2a27.89,27.89,0,0,1,1.69-3.08h0c-.89,5.33-2.66,10.26-6.48,14.27-1.58,1.67-3,3.51-4.62,5.13-7.28,7.27-15.29,13.41-25.55,15.86-2.36.57-4.78.87-7.19,1.21C516.28,782.63,515.39,783.14,515.46,782.05Z"/><path class="cls-5" d="M504.68,807.87A40.23,40.23,0,0,0,503,789.68c-.34-1-1-1.79-1.13-2.86,2.4,1.36,3.66,3.63,4.64,6a28.94,28.94,0,0,1,2.08,10.73,9.4,9.4,0,0,0,0,4.77,9.32,9.32,0,0,1-1.35,4.4A9.59,9.59,0,0,0,504.68,807.87Z"/><path class="cls-6" d="M487.94,817.56c-.88,0-1.73,0-2.57-.13-2-.21-2.83-1.34-2.45-3.28a5.18,5.18,0,0,1,5.21-4.06,5.1,5.1,0,0,1,4.91,4.55,2.18,2.18,0,0,1-1.77,2.6A21.19,21.19,0,0,1,487.94,817.56Z"/><path class="cls-7" d="M507.78,789.23a57.34,57.34,0,0,0,13.12-32.44,61.43,61.43,0,0,0-1.5-18.63c-.07-.31-.12-.56-.52-.44a16,16,0,0,0,.26-3.56,38.48,38.48,0,0,1,1.9,6.89,46.17,46.17,0,0,1,1.11,11,58.8,58.8,0,0,1-4.4,22.5,62.78,62.78,0,0,1-8.89,15C508.1,790.52,508,789.88,507.78,789.23Z"/><path class="cls-7" d="M538.93,716.38c-1.17.24-.95.91-.51,1.63,2,3.32,4,6.6,5.91,10a28.66,28.66,0,0,1,4,11.64,20.94,20.94,0,0,1-4.49,15l-1.18.16c.32-1.76,1.39-3.13,1.93-4.7,1.21-3.51,2.36-7,2.28-10.8-.08-3.53-1.38-6.62-2.83-9.75-1.7-3.69-4.23-6.87-6.07-10.46a4.72,4.72,0,0,1-.47-2.44c0-.39,0-.85.42-1A.76.76,0,0,1,538.93,716.38Z"/><path class="cls-8" d="M430.52,816.85a14.19,14.19,0,0,1-7-1.54c-1.43-.68-1.72-1.63-1.16-3.15a5.15,5.15,0,0,1,8.49-1.56.91.91,0,0,1,.11,1.22A6.61,6.61,0,0,0,430.52,816.85Z"/><path class="cls-8" d="M480.6,816.88a13.74,13.74,0,0,1-7.52-1.92,1.71,1.71,0,0,1-.8-2.06,4.79,4.79,0,0,1,3.72-3.76,5.16,5.16,0,0,1,4.9,1.4c.49.42.4.79.14,1.34A6.72,6.72,0,0,0,480.6,816.88Z"/><path class="cls-9" d="M448.31,808.92a4.86,4.86,0,0,1,6.08,3.52,1.88,1.88,0,0,1-.95,2.38,14.92,14.92,0,0,1-6.89,1.8c-.71,0-1.18-.18-1.06-1.06a7.73,7.73,0,0,0-.23-2.66A5.85,5.85,0,0,0,448.31,808.92Z"/><path class="cls-10" d="M442.86,814.07l0,.51a33.27,33.27,0,0,1-9.51,2c-1-1.08-.62-2.28-.19-3.41a5.09,5.09,0,0,1,5.07-3.08,4.89,4.89,0,0,1,4.46,3.65A.23.23,0,0,0,442.86,814.07Z"/><path class="cls-8" d="M495.82,816.38c-.66-.75-.08-1.64-.28-2.47-.64-2.65-.39-3.3,1.26-4.36a5,5,0,0,1,5.91.18,7.38,7.38,0,0,1,.85.91C501.85,813.72,499,815.3,495.82,816.38Z"/><path class="cls-7" d="M405.53,757.7a57.44,57.44,0,0,0,11.65,29.79c.33.43.56,1,1.18,1.14-.45,1-.76,1.11-1.54.1a59.68,59.68,0,0,1-9.37-17.24,50.71,50.71,0,0,1-2.71-11.88,13.16,13.16,0,0,1-.2-3.33C405.11,756.63,404.75,757.56,405.53,757.7Z"/><path class="cls-9" d="M495.82,816.38c3.2-1.08,6-2.66,7.74-5.74,1.74,2.47,1.35,3.87-1.5,4.84C500.06,816.16,498,817.07,495.82,816.38Z"/><path class="cls-9" d="M433.37,816.58a33.27,33.27,0,0,0,9.51-2c.11,2-.46,2.57-2.76,2.82a6.75,6.75,0,0,0-3.93,0A3.45,3.45,0,0,1,433.37,816.58Z"/><path class="cls-11" d="M448.31,808.92a5.85,5.85,0,0,1-3.05,4c-.86-1.21-.05-2,.73-2.78A3.85,3.85,0,0,1,448.31,808.92Z"/><path class="cls-12" d="M461.27,809.51c0,.61.42.64.86.64h2.67c.11.33.43.89,0,.94a13.76,13.76,0,0,1-3.57,0C460.92,811,460.94,810.05,461.27,809.51Zm2.86,1.08,0-.13h-2.5v.13Z"/><path class="cls-13" d="M417.82,800.75c.5.82.2,1.73.23,2.59.06,1.86,0,3.73,0,5.6C417.31,806.24,417.64,803.49,417.82,800.75Z"/><path class="cls-13" d="M468.14,800.71c-.27,2.65-.53,5.3-.8,7.95A15,15,0,0,1,468.14,800.71Z"/><path class="cls-13" d="M519.93,671.65c-.08-.21-.25-.42-.24-.62a14.48,14.48,0,0,0-.83-6C520.39,667.06,520.22,669.34,519.93,671.65Z"/><path class="cls-14" d="M425.13,745.86c-1.36.53-2.78.16-4.16.23s-2.49,0-3.73,0v-.35h4.34Z"/><path class="cls-14" d="M409.41,726.76a3,3,0,0,1-.05,3.48Z"/><path class="cls-14" d="M464.53,808.3c-.07.13-.27.4-.27.3a23.63,23.63,0,0,1,.06-4.45h.13a.87.87,0,0,1,.11.09Z"/><path class="cls-14" d="M429.77,780.72l-.09-.24a15.69,15.69,0,0,1,4.22,0,.2.2,0,0,1,0,.12s-.05.07-.08.11Z"/><path class="cls-15" d="M508.6,808.36a9.4,9.4,0,0,1,0-4.77C508.61,805.18,508.6,806.77,508.6,808.36Z"/><path class="cls-14" d="M407.81,682.24a1.22,1.22,0,0,1,.28-.37,20.42,20.42,0,0,1,0,4.21.16.16,0,0,1-.12,0s-.07-.05-.11-.08Z"/><path class="cls-14" d="M409.33,731.4a9.67,9.67,0,0,1,0,4.78Z"/><path class="cls-14" d="M461.87,803.69l.15-.64c0,1.46.58,2.93-.15,4.35a1.09,1.09,0,0,1-.05-.17.32.32,0,0,1,0-.09c0-.28,0-.55,0-.83Z"/><path class="cls-16" d="M436.19,817.42a6.75,6.75,0,0,1,3.93,0A19.85,19.85,0,0,1,436.19,817.42Z"/><path class="cls-14" d="M409.35,736.77c1,.4.32,1.24.49,1.85-.43-.22-.18-.78-.53-1C409.32,737.31,409.33,737,409.35,736.77Z"/><path class="cls-13" d="M468.43,799.87c0,.32.09.68-.31.86A1,1,0,0,1,468.43,799.87Z"/><path class="cls-7" d="M405.35,756.26a1.07,1.07,0,0,1,.14.87A.93.93,0,0,1,405.35,756.26Z"/><path class="cls-3" d="M560.43,746.1l.11-.38.11.08-.21.31Z"/><path class="cls-17" d="M461.9,806.31c0,.28,0,.55,0,.83A.64.64,0,0,1,461.9,806.31Z"/><path class="cls-13" d="M468.48,799.62a1.66,1.66,0,0,1,.06.21l-.12,0A.4.4,0,0,1,468.48,799.62Z"/><path class="cls-9" d="M442.86,814.07a.23.23,0,0,1-.15-.33Z"/><path class="cls-14" d="M501.37,743.05l-.63-.14c2.45,0,4.89-.51,7.31.05Z"/><path class="cls-14" d="M417.8,743c2.32-.54,4.67-.14,7-.19,0,0-.19.21-.33.28Z"/><path class="cls-2" d="M509.19,745.51l-1.11,0A.68.68,0,0,1,509.19,745.51Z"/><path class="cls-2" d="M451.51,712.13v.58l-.06.51c-1.33,4.19-3.74,7.5-7.9,9.2a13.47,13.47,0,1,1-8.15-25.54,13.36,13.36,0,0,1,16.1,10.86,2.78,2.78,0,0,0,.2.52A12.58,12.58,0,0,1,451.51,712.13Zm-13.28,8.79A10.91,10.91,0,0,0,449.18,710a11,11,0,0,0-11-10.92,10.88,10.88,0,0,0-10.88,10.94A10.75,10.75,0,0,0,438.23,720.92Z"/><path class="cls-2" d="M501.6,710.05a13.46,13.46,0,1,1-13.42-13.48A13.35,13.35,0,0,1,501.6,710.05ZM488,720.93a10.91,10.91,0,0,0,.21-21.82,11,11,0,0,0-11,10.83A10.86,10.86,0,0,0,488,720.93Z"/><path class="cls-2" d="M452.93,682.31a6.14,6.14,0,0,1-.88,3.09,10.82,10.82,0,0,1-10.22,6.12,8.16,8.16,0,0,1-7.71-5,26.55,26.55,0,0,1-1.74-7.38,45.64,45.64,0,0,1,.72-15.59c.95-3.85,3.06-4.75,6.11-2.31a38.56,38.56,0,0,1,13.46,19.4A11.61,11.61,0,0,1,452.93,682.31ZM436,663.2a7.69,7.69,0,0,0-.34.91,42.81,42.81,0,0,0,.26,19.53c.89,3.51,2.4,4.73,5.94,5.13,2.2.26,5.88-1.13,6.56-2.92a3.28,3.28,0,0,0,.56-.39c1.7-1.83,1.58-3.9.74-6.05A41.09,41.09,0,0,0,442.57,668a23.74,23.74,0,0,0-5.35-5C436.78,662.7,436.21,662.19,436,663.2Z"/><path class="cls-2" d="M494.25,674a44,44,0,0,1-1.14,10c-1,4.42-3.77,6.76-8.18,7.32-5.75.74-13.78-5.26-10.78-12.58a44.05,44.05,0,0,1,12.68-17.38,5.52,5.52,0,0,1,.47-.32c3.05-2,4.8-1.42,5.86,2.11A36.74,36.74,0,0,1,494.25,674Zm-2.59-.84a33,33,0,0,0-.87-9c-.45-1.88-.74-2-2.35-.8l-.23.17a41.78,41.78,0,0,0-11.57,15.89c-1.17,2.81-.38,5.08,1.74,7.08,4.39,4.14,10.68,2.45,12.25-3.34A34.5,34.5,0,0,0,491.66,673.18Z"/><path class="cls-2" d="M469.63,735.23c.08,3.62-1.39,5.61-4.64,6.51a6.92,6.92,0,0,1-7.63-2.93c-1-1.7-.77-3.56-.46-5.36a29.64,29.64,0,0,1,3.49-9.9,8.38,8.38,0,0,1,1-1.37c1.23-1.36,2.34-1.4,3.61-.08a15.53,15.53,0,0,1,3.14,5.92A21.83,21.83,0,0,1,469.63,735.23ZM463.25,724c-2.18,2.86-4.18,9.16-3.93,12.32.14,1.9,1.68,3.08,4,3,2.14,0,3.64-1.32,3.72-3.17a14.79,14.79,0,0,0-.61-4.73A22.79,22.79,0,0,0,463.25,724Z"/><path class="cls-18" d="M465.6,747.55a5.53,5.53,0,0,1,3.7-5.23,2.61,2.61,0,0,1,3.38,2.07,5.68,5.68,0,0,1-2.49,5.59,3,3,0,0,1-3.18.33A2.74,2.74,0,0,1,465.6,747.55Z"/><path class="cls-18" d="M460.8,747.46a3,3,0,0,1-1.44,2.85,2.92,2.92,0,0,1-3.07-.26,5.56,5.56,0,0,1-2.56-5.79,2.57,2.57,0,0,1,3.6-1.84A5.66,5.66,0,0,1,460.8,747.46Z"/><path class="cls-14" d="M451.51,712.13a12.58,12.58,0,0,0,.18-3.87c.76.94.16,2,.33,3C452.08,711.69,452,712.06,451.51,712.13Z"/><path class="cls-14" d="M451.44,713.22l.06-.51a.42.42,0,0,1,.2.54C451.63,713.44,451.52,713.31,451.44,713.22Z"/><path class="cls-2" d="M464.13,810.59h-2.48v-.13h2.5Z"/><path class="cls-10" d="M438.23,720.92a10.75,10.75,0,0,1-10.89-10.87,10.88,10.88,0,0,1,10.88-10.94,11,11,0,0,1,11,10.92A10.91,10.91,0,0,1,438.23,720.92Zm-1-8.67a4,4,0,1,0,8,0,4,4,0,1,0-8,0Z"/><path class="cls-10" d="M488,720.93a10.86,10.86,0,0,1-10.82-11,10.9,10.9,0,1,1,21.8.36A10.78,10.78,0,0,1,488,720.93Zm-2.61-12.76a4,4,0,0,0-4,4,4,4,0,1,0,8,0A3.94,3.94,0,0,0,485.43,708.17Z"/><path class="cls-10" d="M448.38,685.85c-.68,1.79-4.36,3.18-6.56,2.92-3.54-.4-5.05-1.62-5.94-5.13a42.81,42.81,0,0,1-.26-19.53,7.69,7.69,0,0,1,.34-.91,10.75,10.75,0,0,1,2.09,1.66,40.27,40.27,0,0,1,7.4,10.57C447.1,678.7,448.7,682,448.38,685.85Z"/><path class="cls-9" d="M448.38,685.85c.32-3.84-1.28-7.15-2.93-10.42a40.27,40.27,0,0,0-7.4-10.57A10.75,10.75,0,0,0,436,663.2c.25-1,.82-.5,1.26-.23a23.74,23.74,0,0,1,5.35,5,41.09,41.09,0,0,1,7.11,11.44c.84,2.15,1,4.22-.74,6.05A3.28,3.28,0,0,1,448.38,685.85Z"/><path class="cls-10" d="M491.66,673.18a34.5,34.5,0,0,1-1,10c-1.57,5.79-7.86,7.48-12.25,3.34-2.12-2-2.91-4.27-1.74-7.08a41.78,41.78,0,0,1,11.57-15.89l.23-.17c1.61-1.16,1.9-1.08,2.35.8A33,33,0,0,1,491.66,673.18Z"/><path class="cls-11" d="M463.25,724a22.79,22.79,0,0,1,3.15,7.46,14.79,14.79,0,0,1,.61,4.73c-.08,1.85-1.58,3.14-3.72,3.17-2.29,0-3.83-1.14-4-3C459.07,733.14,461.07,726.84,463.25,724Z"/><path class="cls-2" d="M437.25,712.25a4,4,0,1,1,8,0,4,4,0,1,1-8,0Z"/><path class="cls-2" d="M485.43,708.17a3.94,3.94,0,0,1,4,4,4,4,0,1,1-8,0A4,4,0,0,1,485.43,708.17Z"/></g></svg>