<svg xmlns="http://www.w3.org/2000/svg" viewBox="0 0 595.28 841.89"><defs><style>.cls-1,.cls-3{fill:none;}.cls-1,.cls-2,.cls-3{stroke:#231f20;stroke-miterlimit:10;}.cls-1{stroke-width:10px;}.cls-2{fill:#39b54a;stroke-width:5px;}.cls-3{stroke-width:3px;}</style></defs><g id="Layer_2" data-name="Layer 2"><rect class="cls-1" x="55.32" y="48.92" width="483.26" height="743.72"/><path class="cls-2" d="M35.87,29.94c9.35-.5,22.13.92,30.73,11.82C77.81,56,61.77,71.63,48,59.63,42.4,54.75,35.79,37.36,35.87,29.94Z"/><path class="cls-3" d="M50.9,43.21S73.89,60.77,74.78,73"/><path class="cls-2" d="M125.7,67.75c-.5-9.34.92-22.13,11.82-30.72,14.21-11.21,29.87,4.83,17.87,18.6C150.51,61.23,133.12,67.83,125.7,67.75Z"/><path class="cls-3" d="M139,52.72s17.56-23,29.81-23.87"/><path class="cls-2" d="M321.33,67.74c-.51-9.34.91-22.13,11.81-30.72C347.35,25.81,363,41.85,351,55.62,346.13,61.22,328.74,67.82,321.33,67.74Z"/><path class="cls-3" d="M334.59,52.71s17.56-23,29.81-23.87"/><path class="cls-2" d="M227.86,33.27c-.51,9.35.91,22.13,11.81,30.73,14.21,11.21,29.87-4.84,17.87-18.6C252.66,39.8,235.27,33.19,227.86,33.27Z"/><path class="cls-3" d="M241.12,48.3s17.56,23,29.81,23.87"/><path class="cls-2" d="M467.62,29.47c.5,9.34-.91,22.13-11.81,30.72-14.21,11.21-29.88-4.83-17.88-18.6C442.81,36,460.2,29.39,467.62,29.47Z"/><path class="cls-3" d="M454.36,44.5s-17.56,23-29.82,23.87"/><path class="cls-2" d="M514.19,31.23c9.34-.51,22.13.91,30.72,11.81,11.21,14.21-4.83,29.87-18.6,17.87C520.71,56,514.11,38.64,514.19,31.23Z"/><path class="cls-3" d="M529.22,44.49s23,17.56,23.87,29.81"/><path class="cls-2" d="M39,771c9.34-.51,22.13.91,30.72,11.81C81,797,64.92,812.69,51.15,800.69,45.55,795.81,39,778.42,39,771Z"/><path class="cls-3" d="M54.06,784.27s23,17.56,23.87,29.81"/><path class="cls-2" d="M128.86,808.82c-.5-9.35.91-22.13,11.81-30.73,14.21-11.21,29.88,4.83,17.88,18.6C153.67,802.29,136.28,808.89,128.86,808.82Z"/><path class="cls-3" d="M142.12,793.79s17.56-23,29.82-23.88"/><path class="cls-2" d="M324.49,808.81c-.51-9.35.91-22.13,11.81-30.73,14.21-11.21,29.87,4.83,17.87,18.6C349.29,802.28,331.9,808.89,324.49,808.81Z"/><path class="cls-3" d="M337.75,793.78s17.56-23,29.81-23.88"/><path class="cls-2" d="M231,774.33c-.5,9.35.92,22.13,11.81,30.73,14.21,11.21,29.88-4.83,17.88-18.6C255.82,780.86,238.43,774.26,231,774.33Z"/><path class="cls-3" d="M244.28,789.37s17.55,23,29.81,23.87"/><path class="cls-2" d="M470.78,770.53c.5,9.35-.92,22.13-11.82,30.73-14.21,11.21-29.87-4.84-17.87-18.6C446,777.06,463.36,770.45,470.78,770.53Z"/><path class="cls-3" d="M457.51,785.56s-17.56,23-29.81,23.88"/><path class="cls-2" d="M517.34,772.29c9.35-.5,22.13.91,30.73,11.81,11.21,14.21-4.83,29.88-18.6,17.88C523.87,797.1,517.27,779.71,517.34,772.29Z"/><path class="cls-3" d="M532.37,785.56s23,17.55,23.88,29.81"/><path class="cls-2" d="M38.08,705.71c-.51-9.35.91-22.13,11.81-30.73,14.21-11.21,29.87,4.83,17.87,18.6C62.88,699.18,45.49,705.78,38.08,705.71Z"/><path class="cls-3" d="M51.34,690.68s17.56-23,29.81-23.88"/><path class="cls-2" d="M74.46,601.5c-9.35.5-22.13-.91-30.73-11.81-11.21-14.21,4.84-29.87,18.6-17.87C67.93,576.69,74.54,594.09,74.46,601.5Z"/><path class="cls-3" d="M59.43,588.24s-23-17.56-23.87-29.81"/><path class="cls-2" d="M73.51,366c-9.35.51-22.13-.91-30.73-11.81C31.57,340,47.62,324.3,61.39,336.3,67,341.18,73.59,358.57,73.51,366Z"/><path class="cls-3" d="M58.48,352.72s-23-17.56-23.87-29.81"/><path class="cls-2" d="M37.76,479.29c9.35.5,22.13-.91,30.73-11.81,11.21-14.21-4.84-29.88-18.6-17.88C44.29,454.48,37.68,471.88,37.76,479.29Z"/><path class="cls-3" d="M52.79,466s23-17.56,23.88-29.81"/><path class="cls-2" d="M37.76,230.31c9.35-.51,22.13.91,30.73,11.81C79.7,256.33,63.65,272,49.89,260,44.29,255.11,37.68,237.72,37.76,230.31Z"/><path class="cls-3" d="M52.79,243.57s23,17.56,23.88,29.81"/><path class="cls-2" d="M37,153.39c-.51-9.34.91-22.13,11.81-30.72,14.21-11.21,29.87,4.83,17.87,18.6C61.79,146.87,44.4,153.47,37,153.39Z"/><path class="cls-3" d="M50.25,138.36s17.56-23,29.81-23.87"/><path class="cls-2" d="M558.38,712.79c.51-9.35-.91-22.13-11.81-30.73-14.21-11.21-29.87,4.84-17.87,18.6C533.58,706.26,551,712.87,558.38,712.79Z"/><path class="cls-3" d="M545.12,697.76s-17.56-23-29.81-23.87"/><path class="cls-2" d="M522,608.58c9.35.51,22.13-.91,30.73-11.81,11.21-14.21-4.84-29.87-18.6-17.87C528.53,583.78,521.92,601.17,522,608.58Z"/><path class="cls-3" d="M537,595.32s23-17.56,23.87-29.81"/><path class="cls-2" d="M523,373.07c9.35.5,22.13-.91,30.73-11.81,11.21-14.21-4.84-29.88-18.6-17.88C529.48,348.26,522.87,365.65,523,373.07Z"/><path class="cls-3" d="M538,359.8s23-17.55,23.87-29.81"/><path class="cls-2" d="M558.7,486.37c-9.35.51-22.13-.91-30.73-11.81-11.21-14.21,4.84-29.87,18.6-17.87C552.17,461.57,558.78,479,558.7,486.37Z"/><path class="cls-3" d="M543.67,473.11s-23-17.56-23.87-29.81"/><path class="cls-2" d="M558.7,237.39c-9.35-.5-22.13.92-30.73,11.81-11.21,14.21,4.84,29.88,18.6,17.88C552.17,262.2,558.78,244.81,558.7,237.39Z"/><path class="cls-3" d="M543.67,250.66s-23,17.55-23.87,29.81"/><path class="cls-2" d="M559.47,160.48c.51-9.35-.91-22.13-11.81-30.73-14.21-11.21-29.87,4.83-17.87,18.6C534.67,154,552.06,160.56,559.47,160.48Z"/><path class="cls-3" d="M546.21,145.45s-17.56-23-29.81-23.88"/></g></svg>