<svg xmlns="http://www.w3.org/2000/svg" viewBox="0 0 750.28 841.89"><defs><style>.cls-1,.cls-3{fill:none;}.cls-1,.cls-2,.cls-3{stroke:#231f20;stroke-miterlimit:10;}.cls-1{stroke-width:11.47px;}.cls-2{fill:#39b54a;stroke-width:5.7px;}.cls-3{stroke-width:3.42px;}</style></defs><g id="Layer_2" data-name="Layer 2"><rect class="cls-1" x="50.07" y="48.92" width="636.07" height="743.72"/><path class="cls-2" d="M27.36,29.94c12.17-.5,28.81.92,40,11.82C82,56,61.07,71.63,43.15,59.63,35.86,54.75,27.26,37.36,27.36,29.94Z"/><path class="cls-3" d="M46.93,43.21S76.86,60.77,78,73"/><path class="cls-2" d="M144.31,67.75c-.66-9.34,1.19-22.13,15.38-30.72,18.5-11.21,38.89,4.83,23.27,18.6C176.6,61.23,154,67.83,144.31,67.75Z"/><path class="cls-3" d="M161.58,52.72s22.86-23,38.81-23.87"/><path class="cls-2" d="M399,67.74c-.66-9.34,1.19-22.13,15.38-30.72,18.5-11.21,38.89,4.83,23.27,18.6C431.28,61.22,408.64,67.82,399,67.74Z"/><path class="cls-3" d="M416.26,52.71s22.86-23,38.81-23.87"/><path class="cls-2" d="M277.3,33.27c-.66,9.35,1.19,22.13,15.38,30.73,18.5,11.21,38.89-4.84,23.27-18.6C309.59,39.8,287,33.19,277.3,33.27Z"/><path class="cls-3" d="M294.57,48.3s22.86,23,38.81,23.87"/><path class="cls-2" d="M589.44,29.47c.66,9.34-1.19,22.13-15.38,30.72-18.5,11.21-38.89-4.83-23.27-18.6C557.15,36,579.79,29.39,589.44,29.47Z"/><path class="cls-3" d="M572.17,44.5s-22.86,23-38.81,23.87"/><path class="cls-2" d="M650.07,31.23c12.16-.51,28.81.91,40,11.81,14.59,14.21-6.29,29.87-24.22,17.87C658.56,56,650,38.64,650.07,31.23Z"/><path class="cls-3" d="M669.64,44.49s29.92,17.56,31.08,29.81"/><path class="cls-2" d="M31.47,771c12.17-.51,28.81.91,40,11.81,14.6,14.21-6.29,29.87-24.21,17.87C40,795.81,31.37,778.42,31.47,771Z"/><path class="cls-3" d="M51,784.27S81,801.83,82.12,814.08"/><path class="cls-2" d="M148.42,808.82c-.66-9.35,1.19-22.13,15.38-30.73,18.5-11.21,38.89,4.83,23.27,18.6C180.71,802.29,158.07,808.89,148.42,808.82Z"/><path class="cls-3" d="M165.69,793.79s22.86-23,38.81-23.88"/><path class="cls-2" d="M403.1,808.81c-.66-9.35,1.19-22.13,15.38-30.73,18.5-11.21,38.89,4.83,23.26,18.6C435.39,802.28,412.75,808.89,403.1,808.81Z"/><path class="cls-3" d="M420.37,793.78s22.85-23,38.81-23.88"/><path class="cls-2" d="M281.41,774.33c-.66,9.35,1.19,22.13,15.38,30.73,18.5,11.21,38.89-4.83,23.27-18.6C313.7,780.86,291.06,774.26,281.41,774.33Z"/><path class="cls-3" d="M298.68,789.37s22.86,23,38.81,23.87"/><path class="cls-2" d="M593.55,770.53c.66,9.35-1.19,22.13-15.38,30.73-18.5,11.21-38.89-4.84-23.27-18.6C561.26,777.06,583.9,770.45,593.55,770.53Z"/><path class="cls-3" d="M576.28,785.56s-22.86,23-38.81,23.88"/><path class="cls-2" d="M654.18,772.29c12.16-.5,28.81.91,40,11.81C708.77,798.31,687.89,814,670,802,662.67,797.1,654.08,779.71,654.18,772.29Z"/><path class="cls-3" d="M673.74,785.56s29.93,17.55,31.09,29.81"/><path class="cls-2" d="M30.23,705.71c-.66-9.35,1.19-22.13,15.38-30.73,18.5-11.21,38.89,4.83,23.27,18.6C62.52,699.18,39.88,705.78,30.23,705.71Z"/><path class="cls-3" d="M47.5,690.68s22.86-23,38.81-23.88"/><path class="cls-2" d="M77.6,601.5c-12.17.5-28.81-.91-40-11.81-14.6-14.21,6.29-29.87,24.21-17.87C69.1,576.69,77.7,594.09,77.6,601.5Z"/><path class="cls-3" d="M58,588.24S28.1,570.68,27,558.43"/><path class="cls-2" d="M76.36,366c-12.17.51-28.81-.91-40-11.81C21.77,340,42.65,324.3,60.58,336.3,67.86,341.18,76.46,358.57,76.36,366Z"/><path class="cls-3" d="M56.79,352.72s-29.93-17.56-31.08-29.81"/><path class="cls-2" d="M29.82,479.29c12.17.5,28.81-.91,40-11.81,14.6-14.21-6.29-29.88-24.21-17.88C38.32,454.48,29.72,471.88,29.82,479.29Z"/><path class="cls-3" d="M49.39,466s29.93-17.56,31.08-29.81"/><path class="cls-2" d="M29.82,230.31c12.17-.51,28.81.91,40,11.81C84.42,256.33,63.53,272,45.61,260,38.32,255.11,29.72,237.72,29.82,230.31Z"/><path class="cls-3" d="M49.39,243.57s29.93,17.56,31.08,29.81"/><path class="cls-2" d="M28.81,153.39c-.66-9.34,1.19-22.13,15.38-30.72,18.5-11.21,38.89,4.83,23.27,18.6C61.1,146.87,38.46,153.47,28.81,153.39Z"/><path class="cls-3" d="M46.08,138.36s22.86-23,38.81-23.87"/><path class="cls-2" d="M707.61,712.79c.65-9.35-1.19-22.13-15.38-30.73-18.5-11.21-38.89,4.84-23.27,18.6C675.31,706.26,698,712.87,707.61,712.79Z"/><path class="cls-3" d="M690.34,697.76s-22.86-23-38.81-23.87"/><path class="cls-2" d="M660.24,608.58c12.17.51,28.81-.91,40-11.81C714.83,582.56,694,566.9,676,578.9,668.73,583.78,660.14,601.17,660.24,608.58Z"/><path class="cls-3" d="M679.81,595.32s29.93-17.56,31.08-29.81"/><path class="cls-2" d="M661.47,373.07c12.17.5,28.81-.91,40-11.81,14.59-14.21-6.29-29.88-24.22-17.88C670,348.26,661.37,365.65,661.47,373.07Z"/><path class="cls-3" d="M681,359.8S711,342.25,712.12,330"/><path class="cls-2" d="M708,486.37c-12.17.51-28.81-.91-40-11.81-14.59-14.21,6.3-29.87,24.22-17.87C699.52,461.57,708.12,479,708,486.37Z"/><path class="cls-3" d="M688.45,473.11s-29.93-17.56-31.08-29.81"/><path class="cls-2" d="M708,237.39c-12.17-.5-28.81.92-40,11.81-14.59,14.21,6.3,29.88,24.22,17.88C699.52,262.2,708.12,244.81,708,237.39Z"/><path class="cls-3" d="M688.45,250.66s-29.93,17.55-31.08,29.81"/><path class="cls-2" d="M709,160.48c.66-9.35-1.18-22.13-15.37-30.73-18.5-11.21-38.89,4.83-23.27,18.6C676.73,154,699.37,160.56,709,160.48Z"/><path class="cls-3" d="M691.76,145.45s-22.86-23-38.81-23.88"/></g></svg>