<svg xmlns="http://www.w3.org/2000/svg" viewBox="0 0 503 160"><defs><style>.cls-1{fill:#aad6a2;}.cls-2,.cls-4{fill:#39b54a;}.cls-2,.cls-3,.cls-4,.cls-5{stroke:#231f20;stroke-miterlimit:10;}.cls-2{stroke-width:3.14px;}.cls-3,.cls-5{fill:none;}.cls-3{stroke-width:1.88px;}.cls-4{stroke-width:1.72px;}.cls-5{stroke-width:1.03px;}</style></defs><g id="Layer_11" data-name="Layer 11"><rect class="cls-1" width="503" height="159.12"/><path class="cls-2" d="M-18.15,52.94c-.9,16.7,1.63,39.54,21.1,54.9,25.39,20,53.37-8.64,31.94-33.23C26.17,64.6-4.9,52.81-18.15,52.94Z"/><path class="cls-3" d="M5.55,79.8s31.37,41.07,53.26,42.65"/><path class="cls-2" d="M116.7,109.38c.48-8.85-.86-21-11.18-29.1-13.46-10.62-28.3,4.57-16.93,17.61C93.21,103.2,109.68,109.45,116.7,109.38Z"/><path class="cls-3" d="M104.14,95.14S87.51,73.37,75.91,72.53"/><path class="cls-2" d="M447.39-16.56c.91,16.7-1.63,39.53-21.1,54.89-25.38,20-53.37-8.63-31.93-33.23C403.08-4.9,434.15-16.7,447.39-16.56Z"/><path class="cls-3" d="M423.7,10.29s-31.37,41.07-53.26,42.65"/><path class="cls-2" d="M397.23,74.88c-.91,16.7,1.62,39.53,21.09,54.89,25.39,20,53.37-8.63,31.94-33.23C441.54,86.54,410.47,74.74,397.23,74.88Z"/><path class="cls-3" d="M420.92,101.73s31.37,41.07,53.26,42.65"/><path class="cls-2" d="M447.61,36.6c-.38,7,.69,16.69,8.91,23.17,10.72,8.46,22.53-3.64,13.48-14C466.32,41.52,453.21,36.54,447.61,36.6Z"/><path class="cls-3" d="M457.62,47.94s13.24,17.33,22.48,18"/><path class="cls-2" d="M215.87,56.2c.9,16.7-1.63,39.54-21.1,54.9-25.39,20-53.37-8.64-31.93-33.23C171.56,67.86,202.62,56.07,215.87,56.2Z"/><path class="cls-3" d="M192.17,83.06s-31.36,41.07-53.25,42.65"/><path class="cls-2" d="M336.07,168.36c-.48-8.85.87-21,11.19-29.1,13.46-10.62,28.29,4.58,16.93,17.62C359.56,162.18,343.09,168.43,336.07,168.36Z"/><path class="cls-3" d="M348.63,154.12s16.63-21.77,28.24-22.61"/><path class="cls-2" d="M64.19,139.68c-.48,8.86.86,21,11.19,29.11,13.46,10.61,28.29-4.58,16.92-17.62C87.68,145.87,71.21,139.61,64.19,139.68Z"/><path class="cls-3" d="M76.75,153.92S93.38,175.69,105,176.53"/><path class="cls-2" d="M259.57,149.94c.48-8.86-.86-21-11.18-29.11-13.46-10.61-28.3,4.58-16.93,17.62C236.08,143.75,252.55,150,259.57,149.94Z"/><path class="cls-3" d="M247,135.7s-16.63-21.77-28.23-22.61"/><path class="cls-4" d="M502.86,125.33c.5,9.16-.89,21.67-11.56,30.09-13.92,11-29.26-4.73-17.51-18.21C478.57,131.73,495.6,125.26,502.86,125.33Z"/><path class="cls-5" d="M489.88,140.05s-17.2,22.52-29.2,23.38"/></g></svg>