<svg xmlns="http://www.w3.org/2000/svg" viewBox="0 0 751.02 841.89"><defs><style>.cls-1,.cls-3{fill:none;}.cls-1{stroke:#231f20;stroke-width:11.52px;}.cls-1,.cls-3,.cls-4{stroke-miterlimit:10;}.cls-2{fill:#fcf05d;}.cls-3,.cls-4{stroke:#f7941d;}.cls-3{stroke-width:1.43px;}.cls-4{fill:#fed623;stroke-width:0.94px;}</style></defs><g id="Layer_15" data-name="Layer 15"><rect class="cls-1" x="53.46" y="48.92" width="640.86" height="743.72"/><path class="cls-2" d="M206.81,48.92c0,3.39-10.32,4.44-11.78,7.44s4.46,11.46,1.92,13.8C194.6,72.33,186.2,66,183.1,67.58,180.21,69,180.35,79.5,177,80.24c-3.15.7-7.55-8.84-11-8.84s-7.85,9.54-11,8.84c-3.37-.74-3.24-11.24-6.12-12.66-3.11-1.54-11.5,4.75-13.85,2.58-2.54-2.34,3.33-10.89,1.92-13.8s-11.79-4-11.79-7.44,10.32-4.45,11.79-7.45S132.49,30,135,27.67c2.35-2.17,10.75,4.12,13.85,2.59,2.88-1.42,2.75-11.93,6.11-12.67,3.15-.69,7.56,8.84,11,8.84s7.84-9.53,11-8.84c3.37.74,3.23,11.25,6.12,12.67,3.1,1.53,11.5-4.76,13.85-2.59,2.54,2.35-3.34,10.9-1.92,13.8S206.81,45.53,206.81,48.92Z"/><path class="cls-3" d="M206.81,48.92c0,3.39-10.32,4.44-11.78,7.44s4.46,11.46,1.92,13.8C194.6,72.33,186.2,66,183.1,67.58,180.21,69,180.35,79.5,177,80.24c-3.15.7-7.55-8.84-11-8.84s-7.85,9.54-11,8.84c-3.37-.74-3.24-11.24-6.12-12.66-3.11-1.54-11.5,4.75-13.85,2.58-2.54-2.34,3.33-10.89,1.92-13.8s-11.79-4-11.79-7.44,10.32-4.45,11.79-7.45S132.49,30,135,27.67c2.35-2.17,10.75,4.12,13.85,2.59,2.88-1.42,2.75-11.93,6.11-12.67,3.15-.69,7.56,8.84,11,8.84s7.84-9.53,11-8.84c3.37.74,3.23,11.25,6.12,12.67,3.1,1.53,11.5-4.76,13.85-2.59,2.54,2.35-3.34,10.9-1.92,13.8S206.81,45.53,206.81,48.92Z"/><ellipse class="cls-4" cx="165.99" cy="48.92" rx="24.36" ry="18.7"/><path class="cls-2" d="M350.18,48.92c0,3.39-10.32,4.44-11.79,7.44s4.46,11.46,1.92,13.8C338,72.33,329.56,66,326.46,67.58c-2.88,1.42-2.75,11.92-6.11,12.66-3.15.7-7.56-8.84-11-8.84s-7.84,9.54-11,8.84C295,79.5,295.13,69,292.24,67.58c-3.1-1.54-11.5,4.75-13.85,2.58-2.54-2.34,3.34-10.89,1.92-13.8s-11.78-4-11.78-7.44,10.32-4.45,11.78-7.45-4.46-11.45-1.92-13.8c2.35-2.17,10.75,4.12,13.85,2.59,2.89-1.42,2.75-11.93,6.12-12.67,3.15-.69,7.55,8.84,11,8.84s7.85-9.53,11-8.84c3.37.74,3.24,11.25,6.12,12.67,3.11,1.53,11.5-4.76,13.85-2.59,2.54,2.35-3.33,10.9-1.92,13.8S350.18,45.53,350.18,48.92Z"/><path class="cls-3" d="M350.18,48.92c0,3.39-10.32,4.44-11.79,7.44s4.46,11.46,1.92,13.8C338,72.33,329.56,66,326.46,67.58c-2.88,1.42-2.75,11.92-6.11,12.66-3.15.7-7.56-8.84-11-8.84s-7.84,9.54-11,8.84C295,79.5,295.13,69,292.24,67.58c-3.1-1.54-11.5,4.75-13.85,2.58-2.54-2.34,3.34-10.89,1.92-13.8s-11.78-4-11.78-7.44,10.32-4.45,11.78-7.45-4.46-11.45-1.92-13.8c2.35-2.17,10.75,4.12,13.85,2.59,2.89-1.42,2.75-11.93,6.12-12.67,3.15-.69,7.55,8.84,11,8.84s7.85-9.53,11-8.84c3.37.74,3.24,11.25,6.12,12.67,3.11,1.53,11.5-4.76,13.85-2.59,2.54,2.35-3.33,10.9-1.92,13.8S350.18,45.53,350.18,48.92Z"/><ellipse class="cls-4" cx="309.35" cy="48.92" rx="24.36" ry="18.7"/><path class="cls-2" d="M493.77,48.92c0,3.39-10.32,4.44-11.79,7.44s4.46,11.46,1.92,13.8c-2.35,2.17-10.75-4.12-13.85-2.58-2.88,1.42-2.75,11.92-6.11,12.66-3.15.7-7.56-8.84-11-8.84s-7.84,9.54-11,8.84c-3.37-.74-3.23-11.24-6.12-12.66-3.1-1.54-11.5,4.75-13.85,2.58-2.54-2.34,3.34-10.89,1.92-13.8s-11.78-4-11.78-7.44,10.32-4.45,11.78-7.45S419.44,30,422,27.67c2.35-2.17,10.75,4.12,13.85,2.59,2.89-1.42,2.75-11.93,6.12-12.67,3.15-.69,7.55,8.84,11,8.84s7.85-9.53,11-8.84c3.37.74,3.24,11.25,6.12,12.67,3.11,1.53,11.5-4.76,13.85-2.59,2.54,2.35-3.33,10.9-1.92,13.8S493.77,45.53,493.77,48.92Z"/><path class="cls-3" d="M493.77,48.92c0,3.39-10.32,4.44-11.79,7.44s4.46,11.46,1.92,13.8c-2.35,2.17-10.75-4.12-13.85-2.58-2.88,1.42-2.75,11.92-6.11,12.66-3.15.7-7.56-8.84-11-8.84s-7.84,9.54-11,8.84c-3.37-.74-3.23-11.24-6.12-12.66-3.1-1.54-11.5,4.75-13.85,2.58-2.54-2.34,3.34-10.89,1.92-13.8s-11.78-4-11.78-7.44,10.32-4.45,11.78-7.45S419.44,30,422,27.67c2.35-2.17,10.75,4.12,13.85,2.59,2.89-1.42,2.75-11.93,6.12-12.67,3.15-.69,7.55,8.84,11,8.84s7.85-9.53,11-8.84c3.37.74,3.24,11.25,6.12,12.67,3.11,1.53,11.5-4.76,13.85-2.59,2.54,2.35-3.33,10.9-1.92,13.8S493.77,45.53,493.77,48.92Z"/><ellipse class="cls-4" cx="452.94" cy="48.92" rx="24.36" ry="18.7"/><path class="cls-2" d="M631.72,48.92c0,3.39-10.32,4.44-11.78,7.44s4.45,11.46,1.92,13.8C619.5,72.33,611.11,66,608,67.58c-2.88,1.42-2.75,11.92-6.11,12.66-3.15.7-7.56-8.84-11-8.84s-7.84,9.54-11,8.84c-3.37-.74-3.23-11.24-6.11-12.66-3.11-1.54-11.51,4.75-13.86,2.58-2.53-2.34,3.34-10.89,1.92-13.8s-11.78-4-11.78-7.44,10.32-4.45,11.78-7.45S557.4,30,559.93,27.67c2.35-2.17,10.75,4.12,13.86,2.59,2.88-1.42,2.74-11.93,6.11-12.67,3.15-.69,7.55,8.84,11,8.84s7.85-9.53,11-8.84c3.36.74,3.23,11.25,6.11,12.67,3.11,1.53,11.5-4.76,13.86-2.59,2.53,2.35-3.34,10.9-1.92,13.8S631.72,45.53,631.72,48.92Z"/><path class="cls-3" d="M631.72,48.92c0,3.39-10.32,4.44-11.78,7.44s4.45,11.46,1.92,13.8C619.5,72.33,611.11,66,608,67.58c-2.88,1.42-2.75,11.92-6.11,12.66-3.15.7-7.56-8.84-11-8.84s-7.84,9.54-11,8.84c-3.37-.74-3.23-11.24-6.11-12.66-3.11-1.54-11.51,4.75-13.86,2.58-2.53-2.34,3.34-10.89,1.92-13.8s-11.78-4-11.78-7.44,10.32-4.45,11.78-7.45S557.4,30,559.93,27.67c2.35-2.17,10.75,4.12,13.86,2.59,2.88-1.42,2.74-11.93,6.11-12.67,3.15-.69,7.55,8.84,11,8.84s7.85-9.53,11-8.84c3.36.74,3.23,11.25,6.11,12.67,3.11,1.53,11.5-4.76,13.86-2.59,2.53,2.35-3.34,10.9-1.92,13.8S631.72,45.53,631.72,48.92Z"/><ellipse class="cls-4" cx="590.89" cy="48.92" rx="24.36" ry="18.7"/><path class="cls-2" d="M209.88,792.64c0,3.39-10.32,4.44-11.78,7.44s4.45,11.46,1.91,13.8c-2.35,2.17-10.74-4.12-13.85-2.59-2.88,1.42-2.75,11.93-6.11,12.67-3.15.7-7.56-8.84-11-8.84s-7.84,9.54-11,8.84c-3.37-.74-3.23-11.25-6.11-12.67-3.11-1.53-11.51,4.76-13.86,2.59-2.53-2.34,3.34-10.9,1.92-13.8s-11.78-4.05-11.78-7.44,10.32-4.45,11.78-7.45-4.45-11.45-1.92-13.8c2.35-2.17,10.75,4.12,13.86,2.59,2.88-1.42,2.74-11.93,6.11-12.67,3.15-.7,7.55,8.84,11,8.84s7.85-9.54,11-8.84c3.36.74,3.23,11.25,6.11,12.67,3.11,1.53,11.5-4.76,13.85-2.59,2.54,2.35-3.33,10.9-1.91,13.8S209.88,789.24,209.88,792.64Z"/><path class="cls-3" d="M209.88,792.64c0,3.39-10.32,4.44-11.78,7.44s4.45,11.46,1.91,13.8c-2.35,2.17-10.74-4.12-13.85-2.59-2.88,1.42-2.75,11.93-6.11,12.67-3.15.7-7.56-8.84-11-8.84s-7.84,9.54-11,8.84c-3.37-.74-3.23-11.25-6.11-12.67-3.11-1.53-11.51,4.76-13.86,2.59-2.53-2.34,3.34-10.9,1.92-13.8s-11.78-4.05-11.78-7.44,10.32-4.45,11.78-7.45-4.45-11.45-1.92-13.8c2.35-2.17,10.75,4.12,13.86,2.59,2.88-1.42,2.74-11.93,6.11-12.67,3.15-.7,7.55,8.84,11,8.84s7.85-9.54,11-8.84c3.36.74,3.23,11.25,6.11,12.67,3.11,1.53,11.5-4.76,13.85-2.59,2.54,2.35-3.33,10.9-1.91,13.8S209.88,789.24,209.88,792.64Z"/><ellipse class="cls-4" cx="169.05" cy="792.64" rx="24.36" ry="18.7"/><path class="cls-2" d="M353.24,792.64c0,3.39-10.32,4.44-11.78,7.44s4.45,11.46,1.92,13.8c-2.35,2.17-10.75-4.12-13.86-2.59-2.88,1.42-2.74,11.93-6.11,12.67-3.15.7-7.55-8.84-11-8.84s-7.85,9.54-11,8.84c-3.36-.74-3.23-11.25-6.11-12.67-3.11-1.53-11.5,4.76-13.86,2.59-2.53-2.34,3.34-10.9,1.92-13.8s-11.78-4.05-11.78-7.44,10.32-4.45,11.78-7.45-4.45-11.45-1.91-13.8c2.35-2.17,10.74,4.12,13.85,2.59,2.88-1.42,2.75-11.93,6.11-12.67,3.15-.7,7.56,8.84,11,8.84s7.84-9.54,11-8.84c3.37.74,3.23,11.25,6.11,12.67,3.11,1.53,11.51-4.76,13.86-2.59,2.53,2.35-3.34,10.9-1.92,13.8S353.24,789.24,353.24,792.64Z"/><path class="cls-3" d="M353.24,792.64c0,3.39-10.32,4.44-11.78,7.44s4.45,11.46,1.92,13.8c-2.35,2.17-10.75-4.12-13.86-2.59-2.88,1.42-2.74,11.93-6.11,12.67-3.15.7-7.55-8.84-11-8.84s-7.85,9.54-11,8.84c-3.36-.74-3.23-11.25-6.11-12.67-3.11-1.53-11.5,4.76-13.86,2.59-2.53-2.34,3.34-10.9,1.92-13.8s-11.78-4.05-11.78-7.44,10.32-4.45,11.78-7.45-4.45-11.45-1.91-13.8c2.35-2.17,10.74,4.12,13.85,2.59,2.88-1.42,2.75-11.93,6.11-12.67,3.15-.7,7.56,8.84,11,8.84s7.84-9.54,11-8.84c3.37.74,3.23,11.25,6.11,12.67,3.11,1.53,11.51-4.76,13.86-2.59,2.53,2.35-3.34,10.9-1.92,13.8S353.24,789.24,353.24,792.64Z"/><ellipse class="cls-4" cx="312.42" cy="792.64" rx="24.36" ry="18.7"/><path class="cls-2" d="M496.83,792.64c0,3.39-10.32,4.44-11.78,7.44s4.45,11.46,1.92,13.8c-2.35,2.17-10.75-4.12-13.86-2.59-2.88,1.42-2.74,11.93-6.11,12.67-3.15.7-7.55-8.84-11-8.84s-7.85,9.54-11,8.84c-3.36-.74-3.23-11.25-6.11-12.67-3.11-1.53-11.5,4.76-13.86,2.59-2.53-2.34,3.34-10.9,1.92-13.8s-11.78-4.05-11.78-7.44,10.32-4.45,11.78-7.45-4.45-11.45-1.91-13.8c2.35-2.17,10.74,4.12,13.85,2.59,2.88-1.42,2.75-11.93,6.11-12.67,3.15-.7,7.56,8.84,11,8.84s7.84-9.54,11-8.84c3.37.74,3.23,11.25,6.11,12.67,3.11,1.53,11.51-4.76,13.86-2.59,2.53,2.35-3.34,10.9-1.92,13.8S496.83,789.24,496.83,792.64Z"/><path class="cls-3" d="M496.83,792.64c0,3.39-10.32,4.44-11.78,7.44s4.45,11.46,1.92,13.8c-2.35,2.17-10.75-4.12-13.86-2.59-2.88,1.42-2.74,11.93-6.11,12.67-3.15.7-7.55-8.84-11-8.84s-7.85,9.54-11,8.84c-3.36-.74-3.23-11.25-6.11-12.67-3.11-1.53-11.5,4.76-13.86,2.59-2.53-2.34,3.34-10.9,1.92-13.8s-11.78-4.05-11.78-7.44,10.32-4.45,11.78-7.45-4.45-11.45-1.91-13.8c2.35-2.17,10.74,4.12,13.85,2.59,2.88-1.42,2.75-11.93,6.11-12.67,3.15-.7,7.56,8.84,11,8.84s7.84-9.54,11-8.84c3.37.74,3.23,11.25,6.11,12.67,3.11,1.53,11.51-4.76,13.86-2.59,2.53,2.35-3.34,10.9-1.92,13.8S496.83,789.24,496.83,792.64Z"/><ellipse class="cls-4" cx="456.01" cy="792.64" rx="24.36" ry="18.7"/><path class="cls-2" d="M634.78,792.64c0,3.39-10.32,4.44-11.78,7.44s4.46,11.46,1.92,13.8c-2.35,2.17-10.75-4.12-13.85-2.59-2.89,1.42-2.75,11.93-6.12,12.67-3.15.7-7.55-8.84-11-8.84s-7.85,9.54-11,8.84c-3.37-.74-3.24-11.25-6.12-12.67-3.1-1.53-11.5,4.76-13.85,2.59-2.54-2.34,3.33-10.9,1.92-13.8s-11.79-4.05-11.79-7.44,10.32-4.45,11.79-7.45-4.46-11.45-1.92-13.8c2.35-2.17,10.75,4.12,13.85,2.59,2.88-1.42,2.75-11.93,6.11-12.67,3.15-.7,7.56,8.84,11,8.84s7.84-9.54,11-8.84c3.37.74,3.23,11.25,6.12,12.67,3.1,1.53,11.5-4.76,13.85-2.59,2.54,2.35-3.34,10.9-1.92,13.8S634.78,789.24,634.78,792.64Z"/><path class="cls-3" d="M634.78,792.64c0,3.39-10.32,4.44-11.78,7.44s4.46,11.46,1.92,13.8c-2.35,2.17-10.75-4.12-13.85-2.59-2.89,1.42-2.75,11.93-6.12,12.67-3.15.7-7.55-8.84-11-8.84s-7.85,9.54-11,8.84c-3.37-.74-3.24-11.25-6.12-12.67-3.1-1.53-11.5,4.76-13.85,2.59-2.54-2.34,3.33-10.9,1.92-13.8s-11.79-4.05-11.79-7.44,10.32-4.45,11.79-7.45-4.46-11.45-1.92-13.8c2.35-2.17,10.75,4.12,13.85,2.59,2.88-1.42,2.75-11.93,6.11-12.67,3.15-.7,7.56,8.84,11,8.84s7.84-9.54,11-8.84c3.37.74,3.23,11.25,6.12,12.67,3.1,1.53,11.5-4.76,13.85-2.59,2.54,2.35-3.34,10.9-1.92,13.8S634.78,789.24,634.78,792.64Z"/><ellipse class="cls-4" cx="593.96" cy="792.64" rx="24.36" ry="18.7"/><path class="cls-2" d="M56.56,440.71c3.44,0,5.69,10.28,8.83,11,3.37.74,9.83-7.54,12.71-6.12,3.11,1.53.27,11.6,2.62,13.78,2.53,2.34,12.48-.87,13.9,2s-7.26,8.44-7.26,11.83,8.72,8.84,7.26,11.84-11.37-.3-13.9,2c-2.35,2.18.49,12.25-2.62,13.78-2.88,1.42-9.34-6.86-12.71-6.12-3.14.69-5.39,11-8.83,11s-5.68-10.29-8.83-11C44.36,494,37.9,502.3,35,500.88c-3.11-1.54-.26-11.6-2.61-13.78-2.54-2.34-12.49.87-13.9-2s7.25-8.44,7.25-11.84-8.72-8.83-7.25-11.83,11.36.3,13.9-2c2.35-2.18-.5-12.25,2.61-13.78,2.88-1.42,9.34,6.86,12.71,6.12C50.88,451,53.12,440.71,56.56,440.71Z"/><path class="cls-3" d="M56.56,440.71c3.44,0,5.69,10.28,8.83,11,3.37.74,9.83-7.54,12.71-6.12,3.11,1.53.27,11.6,2.62,13.78,2.53,2.34,12.48-.87,13.9,2s-7.26,8.44-7.26,11.83,8.72,8.84,7.26,11.84-11.37-.3-13.9,2c-2.35,2.18.49,12.25-2.62,13.78-2.88,1.42-9.34-6.86-12.71-6.12-3.14.69-5.39,11-8.83,11s-5.68-10.29-8.83-11C44.36,494,37.9,502.3,35,500.88c-3.11-1.54-.26-11.6-2.61-13.78-2.54-2.34-12.49.87-13.9-2s7.25-8.44,7.25-11.84-8.72-8.83-7.25-11.83,11.36.3,13.9-2c2.35-2.18-.5-12.25,2.61-13.78,2.88-1.42,9.34,6.86,12.71,6.12C50.88,451,53.12,440.71,56.56,440.71Z"/><ellipse class="cls-4" cx="56.56" cy="473.22" rx="24.36" ry="18.7"/><path class="cls-2" d="M56.56,330.63c3.44,0,5.69,10.28,8.83,11,3.37.74,9.83-7.54,12.71-6.12,3.11,1.53.27,11.6,2.62,13.77,2.53,2.35,12.48-.86,13.9,2.05s-7.26,8.44-7.26,11.83S96.08,372,94.62,375s-11.37-.3-13.9,2c-2.35,2.18.49,12.24-2.62,13.78-2.88,1.42-9.34-6.86-12.71-6.12-3.14.69-5.39,11-8.83,11s-5.68-10.29-8.83-11c-3.37-.74-9.83,7.54-12.71,6.12-3.11-1.54-.26-11.6-2.61-13.78-2.54-2.34-12.49.87-13.9-2s7.25-8.44,7.25-11.84-8.72-8.83-7.25-11.83,11.36.3,13.9-2.05c2.35-2.17-.5-12.24,2.61-13.77,2.88-1.42,9.34,6.86,12.71,6.12C50.88,340.91,53.12,330.63,56.56,330.63Z"/><path class="cls-3" d="M56.56,330.63c3.44,0,5.69,10.28,8.83,11,3.37.74,9.83-7.54,12.71-6.12,3.11,1.53.27,11.6,2.62,13.77,2.53,2.35,12.48-.86,13.9,2.05s-7.26,8.44-7.26,11.83S96.08,372,94.62,375s-11.37-.3-13.9,2c-2.35,2.18.49,12.24-2.62,13.78-2.88,1.42-9.34-6.86-12.71-6.12-3.14.69-5.39,11-8.83,11s-5.68-10.29-8.83-11c-3.37-.74-9.83,7.54-12.71,6.12-3.11-1.54-.26-11.6-2.61-13.78-2.54-2.34-12.49.87-13.9-2s7.25-8.44,7.25-11.84-8.72-8.83-7.25-11.83,11.36.3,13.9-2.05c2.35-2.17-.5-12.24,2.61-13.77,2.88-1.42,9.34,6.86,12.71,6.12C50.88,340.91,53.12,330.63,56.56,330.63Z"/><ellipse class="cls-4" cx="56.56" cy="363.14" rx="24.36" ry="18.7"/><path class="cls-2" d="M56.56,220.38c3.44,0,5.69,10.28,8.83,11,3.37.75,9.83-7.53,12.71-6.11,3.11,1.53.27,11.6,2.62,13.77,2.53,2.34,12.48-.86,13.9,2s-7.26,8.45-7.26,11.84,8.72,8.84,7.26,11.84-11.37-.3-13.9,2c-2.35,2.17.49,12.24-2.62,13.77-2.88,1.42-9.34-6.86-12.71-6.12-3.14.7-5.39,11-8.83,11s-5.68-10.28-8.83-11c-3.37-.74-9.83,7.54-12.71,6.12-3.11-1.53-.26-11.6-2.61-13.77-2.54-2.35-12.49.86-13.9-2s7.25-8.45,7.25-11.84-8.72-8.84-7.25-11.84,11.36.3,13.9-2c2.35-2.17-.5-12.24,2.61-13.77,2.88-1.42,9.34,6.86,12.71,6.11C50.88,230.66,53.12,220.38,56.56,220.38Z"/><path class="cls-3" d="M56.56,220.38c3.44,0,5.69,10.28,8.83,11,3.37.75,9.83-7.53,12.71-6.11,3.11,1.53.27,11.6,2.62,13.77,2.53,2.34,12.48-.86,13.9,2s-7.26,8.45-7.26,11.84,8.72,8.84,7.26,11.84-11.37-.3-13.9,2c-2.35,2.17.49,12.24-2.62,13.77-2.88,1.42-9.34-6.86-12.71-6.12-3.14.7-5.39,11-8.83,11s-5.68-10.28-8.83-11c-3.37-.74-9.83,7.54-12.71,6.12-3.11-1.53-.26-11.6-2.61-13.77-2.54-2.35-12.49.86-13.9-2s7.25-8.45,7.25-11.84-8.72-8.84-7.25-11.84,11.36.3,13.9-2c2.35-2.17-.5-12.24,2.61-13.77,2.88-1.42,9.34,6.86,12.71,6.11C50.88,230.66,53.12,220.38,56.56,220.38Z"/><ellipse class="cls-4" cx="56.56" cy="252.89" rx="24.36" ry="18.7"/><path class="cls-2" d="M56.56,114.45c3.44,0,5.69,10.28,8.83,11,3.37.74,9.83-7.54,12.71-6.12,3.11,1.53.27,11.6,2.62,13.77,2.53,2.35,12.48-.86,13.9,2s-7.26,8.44-7.26,11.83,8.72,8.84,7.26,11.84-11.37-.3-13.9,2c-2.35,2.18.49,12.24-2.62,13.78-2.88,1.42-9.34-6.86-12.71-6.12-3.14.69-5.39,11-8.83,11s-5.68-10.29-8.83-11c-3.37-.74-9.83,7.54-12.71,6.12-3.11-1.54-.26-11.6-2.61-13.78-2.54-2.34-12.49.87-13.9-2s7.25-8.44,7.25-11.84-8.72-8.83-7.25-11.83,11.36.3,13.9-2c2.35-2.17-.5-12.24,2.61-13.77,2.88-1.42,9.34,6.86,12.71,6.12C50.88,124.73,53.12,114.45,56.56,114.45Z"/><path class="cls-3" d="M56.56,114.45c3.44,0,5.69,10.28,8.83,11,3.37.74,9.83-7.54,12.71-6.12,3.11,1.53.27,11.6,2.62,13.77,2.53,2.35,12.48-.86,13.9,2s-7.26,8.44-7.26,11.83,8.72,8.84,7.26,11.84-11.37-.3-13.9,2c-2.35,2.18.49,12.24-2.62,13.78-2.88,1.42-9.34-6.86-12.71-6.12-3.14.69-5.39,11-8.83,11s-5.68-10.29-8.83-11c-3.37-.74-9.83,7.54-12.71,6.12-3.11-1.54-.26-11.6-2.61-13.78-2.54-2.34-12.49.87-13.9-2s7.25-8.44,7.25-11.84-8.72-8.83-7.25-11.83,11.36.3,13.9-2c2.35-2.17-.5-12.24,2.61-13.77,2.88-1.42,9.34,6.86,12.71,6.12C50.88,124.73,53.12,114.45,56.56,114.45Z"/><ellipse class="cls-4" cx="56.56" cy="146.96" rx="24.36" ry="18.7"/><path class="cls-2" d="M56.56,666.08c3.44,0,5.69,10.28,8.83,11,3.37.74,9.83-7.54,12.71-6.12,3.11,1.53.27,11.6,2.62,13.77,2.53,2.35,12.48-.86,13.9,2s-7.26,8.44-7.26,11.83,8.72,8.84,7.26,11.84-11.37-.3-13.9,2c-2.35,2.18.49,12.24-2.62,13.78-2.88,1.42-9.34-6.86-12.71-6.12-3.14.69-5.39,11-8.83,11s-5.68-10.29-8.83-11c-3.37-.74-9.83,7.54-12.71,6.12-3.11-1.54-.26-11.61-2.61-13.78-2.54-2.34-12.49.87-13.9-2s7.25-8.44,7.25-11.84-8.72-8.83-7.25-11.83,11.36.3,13.9-2c2.35-2.17-.5-12.24,2.61-13.77,2.88-1.42,9.34,6.86,12.71,6.12C50.88,676.36,53.12,666.08,56.56,666.08Z"/><path class="cls-3" d="M56.56,666.08c3.44,0,5.69,10.28,8.83,11,3.37.74,9.83-7.54,12.71-6.12,3.11,1.53.27,11.6,2.62,13.77,2.53,2.35,12.48-.86,13.9,2s-7.26,8.44-7.26,11.83,8.72,8.84,7.26,11.84-11.37-.3-13.9,2c-2.35,2.18.49,12.24-2.62,13.78-2.88,1.42-9.34-6.86-12.71-6.12-3.14.69-5.39,11-8.83,11s-5.68-10.29-8.83-11c-3.37-.74-9.83,7.54-12.71,6.12-3.11-1.54-.26-11.61-2.61-13.78-2.54-2.34-12.49.87-13.9-2s7.25-8.44,7.25-11.84-8.72-8.83-7.25-11.83,11.36.3,13.9-2c2.35-2.17-.5-12.24,2.61-13.77,2.88-1.42,9.34,6.86,12.71,6.12C50.88,676.36,53.12,666.08,56.56,666.08Z"/><ellipse class="cls-4" cx="56.56" cy="698.59" rx="24.36" ry="18.7"/><path class="cls-2" d="M56.56,556c3.44,0,5.69,10.28,8.83,11,3.37.74,9.83-7.54,12.71-6.12,3.11,1.53.27,11.6,2.62,13.77,2.53,2.35,12.48-.86,13.9,2s-7.26,8.44-7.26,11.83,8.72,8.84,7.26,11.84-11.37-.3-13.9,2c-2.35,2.17.49,12.24-2.62,13.77-2.88,1.42-9.34-6.86-12.71-6.11-3.14.69-5.39,11-8.83,11s-5.68-10.28-8.83-11c-3.37-.75-9.83,7.54-12.71,6.11-3.11-1.53-.26-11.6-2.61-13.77-2.54-2.34-12.49.87-13.9-2s7.25-8.45,7.25-11.84-8.72-8.84-7.25-11.84,11.36.31,13.9-2c2.35-2.17-.5-12.24,2.61-13.77,2.88-1.42,9.34,6.86,12.71,6.12C50.88,566.28,53.12,556,56.56,556Z"/><path class="cls-3" d="M56.56,556c3.44,0,5.69,10.28,8.83,11,3.37.74,9.83-7.54,12.71-6.12,3.11,1.53.27,11.6,2.62,13.77,2.53,2.35,12.48-.86,13.9,2s-7.26,8.44-7.26,11.83,8.72,8.84,7.26,11.84-11.37-.3-13.9,2c-2.35,2.17.49,12.24-2.62,13.77-2.88,1.42-9.34-6.86-12.71-6.11-3.14.69-5.39,11-8.83,11s-5.68-10.28-8.83-11c-3.37-.75-9.83,7.54-12.71,6.11-3.11-1.53-.26-11.6-2.61-13.77-2.54-2.34-12.49.87-13.9-2s7.25-8.45,7.25-11.84-8.72-8.84-7.25-11.84,11.36.31,13.9-2c2.35-2.17-.5-12.24,2.61-13.77,2.88-1.42,9.34,6.86,12.71,6.12C50.88,566.28,53.12,556,56.56,556Z"/><ellipse class="cls-4" cx="56.56" cy="588.51" rx="24.36" ry="18.7"/><path class="cls-2" d="M686.26,440.91c3.44,0,5.69,10.28,8.83,11,3.37.75,9.83-7.53,12.71-6.11,3.11,1.53.27,11.6,2.62,13.77,2.53,2.34,12.48-.86,13.9,2s-7.26,8.45-7.26,11.84,8.72,8.84,7.26,11.84-11.37-.31-13.9,2c-2.35,2.17.49,12.24-2.62,13.77-2.88,1.42-9.34-6.86-12.7-6.12-3.15.7-5.4,11-8.84,11s-5.68-10.28-8.83-11c-3.37-.74-9.83,7.54-12.71,6.12-3.11-1.53-.26-11.6-2.61-13.77-2.54-2.35-12.49.86-13.9-2s7.25-8.45,7.25-11.84-8.72-8.84-7.25-11.84,11.36.3,13.9-2c2.35-2.17-.5-12.24,2.61-13.77,2.88-1.42,9.34,6.86,12.71,6.11C680.58,451.19,682.82,440.91,686.26,440.91Z"/><path class="cls-3" d="M686.26,440.91c3.44,0,5.69,10.28,8.83,11,3.37.75,9.83-7.53,12.71-6.11,3.11,1.53.27,11.6,2.62,13.77,2.53,2.34,12.48-.86,13.9,2s-7.26,8.45-7.26,11.84,8.72,8.84,7.26,11.84-11.37-.31-13.9,2c-2.35,2.17.49,12.24-2.62,13.77-2.88,1.42-9.34-6.86-12.7-6.12-3.15.7-5.4,11-8.84,11s-5.68-10.28-8.83-11c-3.37-.74-9.83,7.54-12.71,6.12-3.11-1.53-.26-11.6-2.61-13.77-2.54-2.35-12.49.86-13.9-2s7.25-8.45,7.25-11.84-8.72-8.84-7.25-11.84,11.36.3,13.9-2c2.35-2.17-.5-12.24,2.61-13.77,2.88-1.42,9.34,6.86,12.71,6.11C680.58,451.19,682.82,440.91,686.26,440.91Z"/><ellipse class="cls-4" cx="686.26" cy="473.42" rx="24.36" ry="18.7"/><path class="cls-2" d="M686.26,330.83c3.44,0,5.69,10.28,8.83,11,3.37.75,9.83-7.53,12.71-6.11,3.11,1.53.27,11.6,2.62,13.77,2.53,2.34,12.48-.86,13.9,2s-7.26,8.45-7.26,11.84,8.72,8.84,7.26,11.84-11.37-.31-13.9,2c-2.35,2.17.49,12.24-2.62,13.77-2.88,1.42-9.34-6.86-12.7-6.12-3.15.7-5.4,11-8.84,11s-5.68-10.28-8.83-11c-3.37-.74-9.83,7.54-12.71,6.12-3.11-1.53-.26-11.6-2.61-13.77-2.54-2.35-12.49.86-13.9-2s7.25-8.45,7.25-11.84-8.72-8.84-7.25-11.84,11.36.3,13.9-2c2.35-2.17-.5-12.24,2.61-13.77,2.88-1.42,9.34,6.86,12.71,6.11C680.58,341.11,682.82,330.83,686.26,330.83Z"/><path class="cls-3" d="M686.26,330.83c3.44,0,5.69,10.28,8.83,11,3.37.75,9.83-7.53,12.71-6.11,3.11,1.53.27,11.6,2.62,13.77,2.53,2.34,12.48-.86,13.9,2s-7.26,8.45-7.26,11.84,8.72,8.84,7.26,11.84-11.37-.31-13.9,2c-2.35,2.17.49,12.24-2.62,13.77-2.88,1.42-9.34-6.86-12.7-6.12-3.15.7-5.4,11-8.84,11s-5.68-10.28-8.83-11c-3.37-.74-9.83,7.54-12.71,6.12-3.11-1.53-.26-11.6-2.61-13.77-2.54-2.35-12.49.86-13.9-2s7.25-8.45,7.25-11.84-8.72-8.84-7.25-11.84,11.36.3,13.9-2c2.35-2.17-.5-12.24,2.61-13.77,2.88-1.42,9.34,6.86,12.71,6.11C680.58,341.11,682.82,330.83,686.26,330.83Z"/><ellipse class="cls-4" cx="686.26" cy="363.34" rx="24.36" ry="18.7"/><path class="cls-2" d="M686.26,220.57c3.44,0,5.69,10.28,8.83,11,3.37.74,9.83-7.54,12.71-6.12,3.11,1.53.27,11.6,2.62,13.77,2.53,2.35,12.48-.86,13.9,2.05s-7.26,8.44-7.26,11.83,8.72,8.84,7.26,11.84-11.37-.3-13.9,2c-2.35,2.18.49,12.24-2.62,13.78-2.88,1.42-9.34-6.86-12.7-6.12-3.15.69-5.4,11-8.84,11s-5.68-10.29-8.83-11c-3.37-.74-9.83,7.54-12.71,6.12-3.11-1.54-.26-11.61-2.61-13.78-2.54-2.34-12.49.87-13.9-2s7.25-8.44,7.25-11.84-8.72-8.83-7.25-11.83,11.36.3,13.9-2.05c2.35-2.17-.5-12.24,2.61-13.77,2.88-1.42,9.34,6.86,12.71,6.12C680.58,230.85,682.82,220.57,686.26,220.57Z"/><path class="cls-3" d="M686.26,220.57c3.44,0,5.69,10.28,8.83,11,3.37.74,9.83-7.54,12.71-6.12,3.11,1.53.27,11.6,2.62,13.77,2.53,2.35,12.48-.86,13.9,2.05s-7.26,8.44-7.26,11.83,8.72,8.84,7.26,11.84-11.37-.3-13.9,2c-2.35,2.18.49,12.24-2.62,13.78-2.88,1.42-9.34-6.86-12.7-6.12-3.15.69-5.4,11-8.84,11s-5.68-10.29-8.83-11c-3.37-.74-9.83,7.54-12.71,6.12-3.11-1.54-.26-11.61-2.61-13.78-2.54-2.34-12.49.87-13.9-2s7.25-8.44,7.25-11.84-8.72-8.83-7.25-11.83,11.36.3,13.9-2.05c2.35-2.17-.5-12.24,2.61-13.77,2.88-1.42,9.34,6.86,12.71,6.12C680.58,230.85,682.82,220.57,686.26,220.57Z"/><ellipse class="cls-4" cx="686.26" cy="253.08" rx="24.36" ry="18.7"/><path class="cls-2" d="M686.26,114.65c3.44,0,5.69,10.28,8.83,11,3.37.75,9.83-7.53,12.71-6.11,3.11,1.53.27,11.6,2.62,13.77,2.53,2.34,12.48-.86,13.9,2s-7.26,8.45-7.26,11.84,8.72,8.84,7.26,11.84-11.37-.31-13.9,2c-2.35,2.17.49,12.24-2.62,13.77-2.88,1.42-9.34-6.86-12.7-6.12-3.15.7-5.4,11-8.84,11s-5.68-10.28-8.83-11c-3.37-.74-9.83,7.54-12.71,6.12-3.11-1.53-.26-11.6-2.61-13.77-2.54-2.35-12.49.86-13.9-2s7.25-8.45,7.25-11.84-8.72-8.84-7.25-11.84,11.36.3,13.9-2c2.35-2.17-.5-12.24,2.61-13.77,2.88-1.42,9.34,6.86,12.71,6.11C680.58,124.93,682.82,114.65,686.26,114.65Z"/><path class="cls-3" d="M686.26,114.65c3.44,0,5.69,10.28,8.83,11,3.37.75,9.83-7.53,12.71-6.11,3.11,1.53.27,11.6,2.62,13.77,2.53,2.34,12.48-.86,13.9,2s-7.26,8.45-7.26,11.84,8.72,8.84,7.26,11.84-11.37-.31-13.9,2c-2.35,2.17.49,12.24-2.62,13.77-2.88,1.42-9.34-6.86-12.7-6.12-3.15.7-5.4,11-8.84,11s-5.68-10.28-8.83-11c-3.37-.74-9.83,7.54-12.71,6.12-3.11-1.53-.26-11.6-2.61-13.77-2.54-2.35-12.49.86-13.9-2s7.25-8.45,7.25-11.84-8.72-8.84-7.25-11.84,11.36.3,13.9-2c2.35-2.17-.5-12.24,2.61-13.77,2.88-1.42,9.34,6.86,12.71,6.11C680.58,124.93,682.82,114.65,686.26,114.65Z"/><ellipse class="cls-4" cx="686.26" cy="147.16" rx="24.36" ry="18.7"/><path class="cls-2" d="M686.26,666.28c3.44,0,5.69,10.28,8.83,11,3.37.75,9.83-7.53,12.71-6.11,3.11,1.53.27,11.6,2.62,13.77,2.53,2.34,12.48-.87,13.9,2s-7.26,8.45-7.26,11.84,8.72,8.84,7.26,11.84-11.37-.31-13.9,2c-2.35,2.17.49,12.24-2.62,13.77-2.88,1.42-9.34-6.86-12.7-6.12-3.15.7-5.4,11-8.84,11s-5.68-10.28-8.83-11c-3.37-.74-9.83,7.54-12.71,6.12-3.11-1.53-.26-11.6-2.61-13.77-2.54-2.35-12.49.86-13.9-2s7.25-8.44,7.25-11.83S646.74,690,648.21,687s11.36.3,13.9-2c2.35-2.17-.5-12.24,2.61-13.77,2.88-1.42,9.34,6.86,12.71,6.11C680.58,676.56,682.82,666.28,686.26,666.28Z"/><path class="cls-3" d="M686.26,666.28c3.44,0,5.69,10.28,8.83,11,3.37.75,9.83-7.53,12.71-6.11,3.11,1.53.27,11.6,2.62,13.77,2.53,2.34,12.48-.87,13.9,2s-7.26,8.45-7.26,11.84,8.72,8.84,7.26,11.84-11.37-.31-13.9,2c-2.35,2.17.49,12.24-2.62,13.77-2.88,1.42-9.34-6.86-12.7-6.12-3.15.7-5.4,11-8.84,11s-5.68-10.28-8.83-11c-3.37-.74-9.83,7.54-12.71,6.12-3.11-1.53-.26-11.6-2.61-13.77-2.54-2.35-12.49.86-13.9-2s7.25-8.44,7.25-11.83S646.74,690,648.21,687s11.36.3,13.9-2c2.35-2.17-.5-12.24,2.61-13.77,2.88-1.42,9.34,6.86,12.71,6.11C680.58,676.56,682.82,666.28,686.26,666.28Z"/><ellipse class="cls-4" cx="686.26" cy="698.79" rx="24.36" ry="18.7"/><path class="cls-2" d="M686.26,556.2c3.44,0,5.69,10.28,8.83,11,3.37.74,9.83-7.54,12.71-6.11,3.11,1.53.27,11.6,2.62,13.77,2.53,2.34,12.48-.87,13.9,2s-7.26,8.45-7.26,11.84,8.72,8.83,7.26,11.83-11.37-.3-13.9,2.05c-2.35,2.17.49,12.24-2.62,13.77-2.88,1.42-9.34-6.86-12.7-6.12-3.15.7-5.4,11-8.84,11s-5.68-10.28-8.83-11c-3.37-.74-9.83,7.54-12.71,6.12-3.11-1.53-.26-11.6-2.61-13.77-2.54-2.35-12.49.86-13.9-2.05s7.25-8.44,7.25-11.83-8.72-8.84-7.25-11.84,11.36.3,13.9-2c2.35-2.17-.5-12.24,2.61-13.78,2.88-1.42,9.34,6.87,12.71,6.12C680.58,566.48,682.82,556.2,686.26,556.2Z"/><path class="cls-3" d="M686.26,556.2c3.44,0,5.69,10.28,8.83,11,3.37.74,9.83-7.54,12.71-6.11,3.11,1.53.27,11.6,2.62,13.77,2.53,2.34,12.48-.87,13.9,2s-7.26,8.45-7.26,11.84,8.72,8.83,7.26,11.83-11.37-.3-13.9,2.05c-2.35,2.17.49,12.24-2.62,13.77-2.88,1.42-9.34-6.86-12.7-6.12-3.15.7-5.4,11-8.84,11s-5.68-10.28-8.83-11c-3.37-.74-9.83,7.54-12.71,6.12-3.11-1.53-.26-11.6-2.61-13.77-2.54-2.35-12.49.86-13.9-2.05s7.25-8.44,7.25-11.83-8.72-8.84-7.25-11.84,11.36.3,13.9-2c2.35-2.17-.5-12.24,2.61-13.78,2.88-1.42,9.34,6.87,12.71,6.12C680.58,566.48,682.82,556.2,686.26,556.2Z"/><ellipse class="cls-4" cx="686.26" cy="588.71" rx="24.36" ry="18.7"/></g></svg>