<svg xmlns="http://www.w3.org/2000/svg" viewBox="0 0 595.28 841.89"><defs><style>.cls-1,.cls-3{fill:none;}.cls-1{stroke:#231f20;stroke-width:10px;}.cls-1,.cls-3,.cls-4{stroke-miterlimit:10;}.cls-2{fill:#fcf05d;}.cls-3,.cls-4{stroke:#f7941d;}.cls-3{stroke-width:1.26px;}.cls-4{fill:#fed623;stroke-width:0.82px;}</style></defs><g id="Layer_15" data-name="Layer 15"><rect class="cls-1" x="55.32" y="48.92" width="483.26" height="743.72"/><path class="cls-2" d="M170.69,48.92c0,3-8,4.63-8.85,7.31s4.55,8.81,2.87,11.12-9.13-1-11.47.7-1.43,9.79-4.2,10.69-6.73-6.17-9.69-6.17-7,7-9.69,6.17-1.9-9-4.21-10.69-9.77,1.63-11.46-.7,3.76-8.35,2.86-11.12S108,51.88,108,48.92s8-4.64,8.85-7.31S112.3,32.8,114,30.49s9.13,1,11.46-.71,1.43-9.78,4.21-10.68,6.72,6.17,9.69,6.17,7-7,9.69-6.17,1.9,9,4.2,10.68,9.77-1.62,11.47.71-3.77,8.34-2.87,11.12S170.69,46,170.69,48.92Z"/><path class="cls-3" d="M170.69,48.92c0,3-8,4.63-8.85,7.31s4.55,8.81,2.87,11.12-9.13-1-11.47.7-1.43,9.79-4.2,10.69-6.73-6.17-9.69-6.17-7,7-9.69,6.17-1.9-9-4.21-10.69-9.77,1.63-11.46-.7,3.76-8.35,2.86-11.12S108,51.88,108,48.92s8-4.64,8.85-7.31S112.3,32.8,114,30.49s9.13,1,11.46-.71,1.43-9.78,4.21-10.68,6.72,6.17,9.69,6.17,7-7,9.69-6.17,1.9,9,4.2,10.68,9.77-1.62,11.47.71-3.77,8.34-2.87,11.12S170.69,46,170.69,48.92Z"/><circle class="cls-4" cx="139.35" cy="48.92" r="18.7"/><path class="cls-2" d="M280.77,48.92c0,3-8,4.63-8.85,7.31s4.55,8.81,2.87,11.12-9.13-1-11.46.7-1.44,9.79-4.21,10.69-6.73-6.17-9.69-6.17-7,7-9.69,6.17-1.9-9-4.21-10.69-9.77,1.63-11.46-.7,3.76-8.35,2.86-11.12-8.85-4.35-8.85-7.31,8-4.64,8.85-7.31-4.54-8.81-2.86-11.12,9.13,1,11.46-.71S237,20,239.74,19.1s6.72,6.17,9.69,6.17,7-7,9.69-6.17,1.9,9,4.21,10.68,9.76-1.62,11.46.71-3.77,8.34-2.87,11.12S280.77,46,280.77,48.92Z"/><path class="cls-3" d="M280.77,48.92c0,3-8,4.63-8.85,7.31s4.55,8.81,2.87,11.12-9.13-1-11.46.7-1.44,9.79-4.21,10.69-6.73-6.17-9.69-6.17-7,7-9.69,6.17-1.9-9-4.21-10.69-9.77,1.63-11.46-.7,3.76-8.35,2.86-11.12-8.85-4.35-8.85-7.31,8-4.64,8.85-7.31-4.54-8.81-2.86-11.12,9.13,1,11.46-.71S237,20,239.74,19.1s6.72,6.17,9.69,6.17,7-7,9.69-6.17,1.9,9,4.21,10.68,9.76-1.62,11.46.71-3.77,8.34-2.87,11.12S280.77,46,280.77,48.92Z"/><circle class="cls-4" cx="249.43" cy="48.92" r="18.7"/><path class="cls-2" d="M391,48.92c0,3-8,4.63-8.85,7.31S386.72,65,385,67.35s-9.13-1-11.46.7-1.44,9.79-4.21,10.69-6.72-6.17-9.69-6.17-7,7-9.69,6.17-1.9-9-4.21-10.69-9.76,1.63-11.46-.7,3.76-8.35,2.86-11.12-8.85-4.35-8.85-7.31,8-4.64,8.85-7.31-4.54-8.81-2.86-11.12,9.13,1,11.46-.71S347.22,20,350,19.1s6.73,6.17,9.69,6.17,7-7,9.69-6.17,1.9,9,4.21,10.68,9.77-1.62,11.46.71-3.76,8.34-2.86,11.12S391,46,391,48.92Z"/><path class="cls-3" d="M391,48.92c0,3-8,4.63-8.85,7.31S386.72,65,385,67.35s-9.13-1-11.46.7-1.44,9.79-4.21,10.69-6.72-6.17-9.69-6.17-7,7-9.69,6.17-1.9-9-4.21-10.69-9.76,1.63-11.46-.7,3.76-8.35,2.86-11.12-8.85-4.35-8.85-7.31,8-4.64,8.85-7.31-4.54-8.81-2.86-11.12,9.13,1,11.46-.71S347.22,20,350,19.1s6.73,6.17,9.69,6.17,7-7,9.69-6.17,1.9,9,4.21,10.68,9.77-1.62,11.46.71-3.76,8.34-2.86,11.12S391,46,391,48.92Z"/><circle class="cls-4" cx="359.68" cy="48.92" r="18.7"/><path class="cls-2" d="M497,48.92c0,3-8,4.63-8.85,7.31S492.65,65,491,67.35s-9.13-1-11.46.7-1.44,9.79-4.21,10.69-6.73-6.17-9.69-6.17-7,7-9.69,6.17-1.9-9-4.21-10.69-9.77,1.63-11.46-.7S444,59,443.11,56.23s-8.85-4.35-8.85-7.31,8-4.64,8.85-7.31-4.54-8.81-2.86-11.12,9.13,1,11.46-.71,1.43-9.78,4.21-10.68,6.72,6.17,9.69,6.17,7-7,9.69-6.17,1.9,9,4.21,10.68,9.76-1.62,11.46.71-3.77,8.34-2.86,11.12S497,46,497,48.92Z"/><path class="cls-3" d="M497,48.92c0,3-8,4.63-8.85,7.31S492.65,65,491,67.35s-9.13-1-11.46.7-1.44,9.79-4.21,10.69-6.73-6.17-9.69-6.17-7,7-9.69,6.17-1.9-9-4.21-10.69-9.77,1.63-11.46-.7S444,59,443.11,56.23s-8.85-4.35-8.85-7.31,8-4.64,8.85-7.31-4.54-8.81-2.86-11.12,9.13,1,11.46-.71,1.43-9.78,4.21-10.68,6.72,6.17,9.69,6.17,7-7,9.69-6.17,1.9,9,4.21,10.68,9.76-1.62,11.46.71-3.77,8.34-2.86,11.12S497,46,497,48.92Z"/><circle class="cls-4" cx="465.61" cy="48.92" r="18.7"/><path class="cls-2" d="M173.05,792.64c0,3-8,4.63-8.85,7.31s4.54,8.81,2.86,11.11-9.13-1-11.46.71-1.44,9.79-4.21,10.69-6.72-6.18-9.69-6.18-7,7.05-9.69,6.18-1.9-9-4.21-10.69-9.76,1.63-11.46-.71,3.76-8.34,2.86-11.11-8.85-4.35-8.85-7.31,8-4.64,8.85-7.32-4.54-8.8-2.86-11.11,9.13,1,11.46-.71,1.44-9.78,4.21-10.69,6.72,6.18,9.69,6.18,7-7,9.69-6.18,1.9,9,4.21,10.69,9.76-1.63,11.46.71-3.76,8.34-2.86,11.11S173.05,789.67,173.05,792.64Z"/><path class="cls-3" d="M173.05,792.64c0,3-8,4.63-8.85,7.31s4.54,8.81,2.86,11.11-9.13-1-11.46.71-1.44,9.79-4.21,10.69-6.72-6.18-9.69-6.18-7,7.05-9.69,6.18-1.9-9-4.21-10.69-9.76,1.63-11.46-.71,3.76-8.34,2.86-11.11-8.85-4.35-8.85-7.31,8-4.64,8.85-7.32-4.54-8.8-2.86-11.11,9.13,1,11.46-.71,1.44-9.78,4.21-10.69,6.72,6.18,9.69,6.18,7-7,9.69-6.18,1.9,9,4.21,10.69,9.76-1.63,11.46.71-3.76,8.34-2.86,11.11S173.05,789.67,173.05,792.64Z"/><circle class="cls-4" cx="141.7" cy="792.64" r="18.7"/><path class="cls-2" d="M283.13,792.64c0,3-8,4.63-8.85,7.31s4.54,8.81,2.86,11.11-9.13-1-11.46.71-1.44,9.79-4.21,10.69-6.72-6.18-9.69-6.18-7,7.05-9.69,6.18-1.9-9-4.21-10.69-9.76,1.63-11.46-.71,3.76-8.34,2.86-11.11-8.85-4.35-8.85-7.31,8-4.64,8.85-7.32-4.54-8.8-2.86-11.11,9.13,1,11.46-.71,1.44-9.78,4.21-10.69,6.72,6.18,9.69,6.18,7-7,9.69-6.18,1.9,9,4.21,10.69,9.76-1.63,11.46.71-3.76,8.34-2.86,11.11S283.13,789.67,283.13,792.64Z"/><path class="cls-3" d="M283.13,792.64c0,3-8,4.63-8.85,7.31s4.54,8.81,2.86,11.11-9.13-1-11.46.71-1.44,9.79-4.21,10.69-6.72-6.18-9.69-6.18-7,7.05-9.69,6.18-1.9-9-4.21-10.69-9.76,1.63-11.46-.71,3.76-8.34,2.86-11.11-8.85-4.35-8.85-7.31,8-4.64,8.85-7.32-4.54-8.8-2.86-11.11,9.13,1,11.46-.71,1.44-9.78,4.21-10.69,6.72,6.18,9.69,6.18,7-7,9.69-6.18,1.9,9,4.21,10.69,9.76-1.63,11.46.71-3.76,8.34-2.86,11.11S283.13,789.67,283.13,792.64Z"/><circle class="cls-4" cx="251.78" cy="792.64" r="18.7"/><path class="cls-2" d="M393.38,792.64c0,3-8,4.63-8.85,7.31s4.55,8.81,2.87,11.11-9.13-1-11.47.71-1.43,9.79-4.21,10.69-6.72-6.18-9.68-6.18-7,7.05-9.69,6.18-1.9-9-4.21-10.69-9.77,1.63-11.47-.71,3.77-8.34,2.87-11.11-8.85-4.35-8.85-7.31,8-4.64,8.85-7.32-4.55-8.8-2.87-11.11,9.13,1,11.47-.71,1.43-9.78,4.21-10.69S359.07,769,362,769s7-7,9.68-6.18,1.9,9,4.21,10.69,9.77-1.63,11.47.71-3.77,8.34-2.87,11.11S393.38,789.67,393.38,792.64Z"/><path class="cls-3" d="M393.38,792.64c0,3-8,4.63-8.85,7.31s4.55,8.81,2.87,11.11-9.13-1-11.47.71-1.43,9.79-4.21,10.69-6.72-6.18-9.68-6.18-7,7.05-9.69,6.18-1.9-9-4.21-10.69-9.77,1.63-11.47-.71,3.77-8.34,2.87-11.11-8.85-4.35-8.85-7.31,8-4.64,8.85-7.32-4.55-8.8-2.87-11.11,9.13,1,11.47-.71,1.43-9.78,4.21-10.69S359.07,769,362,769s7-7,9.68-6.18,1.9,9,4.21,10.69,9.77-1.63,11.47.71-3.77,8.34-2.87,11.11S393.38,789.67,393.38,792.64Z"/><circle class="cls-4" cx="362.04" cy="792.64" r="18.7"/><path class="cls-2" d="M499.31,792.64c0,3-8,4.63-8.85,7.31s4.54,8.81,2.86,11.11-9.13-1-11.46.71-1.44,9.79-4.21,10.69-6.72-6.18-9.69-6.18-7,7.05-9.69,6.18-1.9-9-4.21-10.69-9.76,1.63-11.46-.71,3.76-8.34,2.86-11.11-8.85-4.35-8.85-7.31,8-4.64,8.85-7.32-4.54-8.8-2.86-11.11,9.13,1,11.46-.71,1.44-9.78,4.21-10.69S465,769,468,769s7-7,9.69-6.18,1.9,9,4.21,10.69,9.76-1.63,11.46.71-3.76,8.34-2.86,11.11S499.31,789.67,499.31,792.64Z"/><path class="cls-3" d="M499.31,792.64c0,3-8,4.63-8.85,7.31s4.54,8.81,2.86,11.11-9.13-1-11.46.71-1.44,9.79-4.21,10.69-6.72-6.18-9.69-6.18-7,7.05-9.69,6.18-1.9-9-4.21-10.69-9.76,1.63-11.46-.71,3.76-8.34,2.86-11.11-8.85-4.35-8.85-7.31,8-4.64,8.85-7.32-4.54-8.8-2.86-11.11,9.13,1,11.46-.71,1.44-9.78,4.21-10.69S465,769,468,769s7-7,9.69-6.18,1.9,9,4.21,10.69,9.76-1.63,11.46.71-3.76,8.34-2.86,11.11S499.31,789.67,499.31,792.64Z"/><circle class="cls-4" cx="467.96" cy="792.64" r="18.7"/><path class="cls-2" d="M55.32,441.88c3,0,4.64,8,7.31,8.85s8.81-4.55,11.12-2.87-1,9.13.71,11.47,9.78,1.43,10.68,4.21S79,470.26,79,473.22s7,7,6.17,9.69-9,1.9-10.68,4.21,1.62,9.77-.71,11.47-8.34-3.77-11.12-2.87-4.34,8.85-7.31,8.85-4.63-8-7.31-8.85-8.81,4.55-11.12,2.87,1-9.13-.7-11.47-9.79-1.43-10.69-4.21,6.18-6.72,6.18-9.69-7-7-6.18-9.68,9-1.9,10.69-4.21-1.63-9.77.7-11.47,8.35,3.77,11.12,2.87S52.36,441.88,55.32,441.88Z"/><path class="cls-3" d="M55.32,441.88c3,0,4.64,8,7.31,8.85s8.81-4.55,11.12-2.87-1,9.13.71,11.47,9.78,1.43,10.68,4.21S79,470.26,79,473.22s7,7,6.17,9.69-9,1.9-10.68,4.21,1.62,9.77-.71,11.47-8.34-3.77-11.12-2.87-4.34,8.85-7.31,8.85-4.63-8-7.31-8.85-8.81,4.55-11.12,2.87,1-9.13-.7-11.47-9.79-1.43-10.69-4.21,6.18-6.72,6.18-9.69-7-7-6.18-9.68,9-1.9,10.69-4.21-1.63-9.77.7-11.47,8.35,3.77,11.12,2.87S52.36,441.88,55.32,441.88Z"/><circle class="cls-4" cx="55.32" cy="473.22" r="18.7"/><path class="cls-2" d="M55.32,331.8c3,0,4.64,8,7.31,8.85s8.81-4.55,11.12-2.87-1,9.13.71,11.47,9.78,1.43,10.68,4.21S79,360.18,79,363.14s7,7,6.17,9.69-9,1.9-10.68,4.21,1.62,9.77-.71,11.47-8.34-3.77-11.12-2.87-4.34,8.85-7.31,8.85-4.63-8-7.31-8.85-8.81,4.55-11.12,2.86,1-9.13-.7-11.46-9.79-1.43-10.69-4.21,6.18-6.72,6.18-9.69-7-7-6.18-9.68,9-1.91,10.69-4.21-1.63-9.77.7-11.47,8.35,3.77,11.12,2.87S52.36,331.8,55.32,331.8Z"/><path class="cls-3" d="M55.32,331.8c3,0,4.64,8,7.31,8.85s8.81-4.55,11.12-2.87-1,9.13.71,11.47,9.78,1.43,10.68,4.21S79,360.18,79,363.14s7,7,6.17,9.69-9,1.9-10.68,4.21,1.62,9.77-.71,11.47-8.34-3.77-11.12-2.87-4.34,8.85-7.31,8.85-4.63-8-7.31-8.85-8.81,4.55-11.12,2.86,1-9.13-.7-11.46-9.79-1.43-10.69-4.21,6.18-6.72,6.18-9.69-7-7-6.18-9.68,9-1.91,10.69-4.21-1.63-9.77.7-11.47,8.35,3.77,11.12,2.87S52.36,331.8,55.32,331.8Z"/><circle class="cls-4" cx="55.32" cy="363.14" r="18.7"/><path class="cls-2" d="M55.32,221.54c3,0,4.64,8,7.31,8.85s8.81-4.54,11.12-2.86-1,9.13.71,11.46,9.78,1.44,10.68,4.21S79,249.92,79,252.89s7,7,6.17,9.69-9,1.9-10.68,4.21,1.62,9.76-.71,11.46-8.34-3.76-11.12-2.86-4.34,8.85-7.31,8.85-4.63-8-7.31-8.85-8.81,4.54-11.12,2.86,1-9.13-.7-11.46-9.79-1.44-10.69-4.21,6.18-6.72,6.18-9.69-7-7-6.18-9.69,9-1.9,10.69-4.21-1.63-9.76.7-11.46,8.35,3.76,11.12,2.86S52.36,221.54,55.32,221.54Z"/><path class="cls-3" d="M55.32,221.54c3,0,4.64,8,7.31,8.85s8.81-4.54,11.12-2.86-1,9.13.71,11.46,9.78,1.44,10.68,4.21S79,249.92,79,252.89s7,7,6.17,9.69-9,1.9-10.68,4.21,1.62,9.76-.71,11.46-8.34-3.76-11.12-2.86-4.34,8.85-7.31,8.85-4.63-8-7.31-8.85-8.81,4.54-11.12,2.86,1-9.13-.7-11.46-9.79-1.44-10.69-4.21,6.18-6.72,6.18-9.69-7-7-6.18-9.69,9-1.9,10.69-4.21-1.63-9.76.7-11.46,8.35,3.76,11.12,2.86S52.36,221.54,55.32,221.54Z"/><circle class="cls-4" cx="55.32" cy="252.89" r="18.7"/><path class="cls-2" d="M55.32,115.62c3,0,4.64,8,7.31,8.85s8.81-4.55,11.12-2.87-1,9.13.71,11.47,9.78,1.43,10.68,4.2S79,144,79,147s7,7,6.17,9.69-9,1.9-10.68,4.21,1.62,9.77-.71,11.46-8.34-3.76-11.12-2.86-4.34,8.85-7.31,8.85-4.63-8-7.31-8.85S39.2,174,36.89,172.32s1-9.13-.7-11.46-9.79-1.43-10.69-4.21,6.18-6.72,6.18-9.69-7-7-6.18-9.69,9-1.9,10.69-4.2-1.63-9.77.7-11.47,8.35,3.77,11.12,2.87S52.36,115.62,55.32,115.62Z"/><path class="cls-3" d="M55.32,115.62c3,0,4.64,8,7.31,8.85s8.81-4.55,11.12-2.87-1,9.13.71,11.47,9.78,1.43,10.68,4.2S79,144,79,147s7,7,6.17,9.69-9,1.9-10.68,4.21,1.62,9.77-.71,11.46-8.34-3.76-11.12-2.86-4.34,8.85-7.31,8.85-4.63-8-7.31-8.85S39.2,174,36.89,172.32s1-9.13-.7-11.46-9.79-1.43-10.69-4.21,6.18-6.72,6.18-9.69-7-7-6.18-9.69,9-1.9,10.69-4.2-1.63-9.77.7-11.47,8.35,3.77,11.12,2.87S52.36,115.62,55.32,115.62Z"/><circle class="cls-4" cx="55.32" cy="146.96" r="18.7"/><path class="cls-2" d="M55.32,667.25c3,0,4.64,8,7.31,8.85s8.81-4.55,11.12-2.87-1,9.13.71,11.46,9.78,1.44,10.68,4.21S79,695.63,79,698.59s7,7,6.17,9.69-9,1.9-10.68,4.21,1.62,9.77-.71,11.46-8.34-3.76-11.12-2.86-4.34,8.85-7.31,8.85-4.63-8-7.31-8.85S39.2,725.63,36.89,724s1-9.13-.7-11.46-9.79-1.43-10.69-4.21,6.18-6.72,6.18-9.69-7-7-6.18-9.69,9-1.9,10.69-4.21-1.63-9.76.7-11.46S45.24,677,48,676.1,52.36,667.25,55.32,667.25Z"/><path class="cls-3" d="M55.32,667.25c3,0,4.64,8,7.31,8.85s8.81-4.55,11.12-2.87-1,9.13.71,11.46,9.78,1.44,10.68,4.21S79,695.63,79,698.59s7,7,6.17,9.69-9,1.9-10.68,4.21,1.62,9.77-.71,11.46-8.34-3.76-11.12-2.86-4.34,8.85-7.31,8.85-4.63-8-7.31-8.85S39.2,725.63,36.89,724s1-9.13-.7-11.46-9.79-1.43-10.69-4.21,6.18-6.72,6.18-9.69-7-7-6.18-9.69,9-1.9,10.69-4.21-1.63-9.76.7-11.46S45.24,677,48,676.1,52.36,667.25,55.32,667.25Z"/><circle class="cls-4" cx="55.32" cy="698.59" r="18.7"/><path class="cls-2" d="M55.32,557.16c3,0,4.64,8,7.31,8.85s8.81-4.54,11.12-2.86-1,9.13.71,11.46,9.78,1.44,10.68,4.21S79,585.55,79,588.51s7,7,6.17,9.69-9,1.9-10.68,4.21,1.62,9.77-.71,11.46-8.34-3.76-11.12-2.86-4.34,8.85-7.31,8.85-4.63-8-7.31-8.85-8.81,4.54-11.12,2.86,1-9.13-.7-11.46S26.4,601,25.5,598.2s6.18-6.72,6.18-9.69-7-7-6.18-9.69,9-1.9,10.69-4.21-1.63-9.76.7-11.46S45.24,566.92,48,566,52.36,557.16,55.32,557.16Z"/><path class="cls-3" d="M55.32,557.16c3,0,4.64,8,7.31,8.85s8.81-4.54,11.12-2.86-1,9.13.71,11.46,9.78,1.44,10.68,4.21S79,585.55,79,588.51s7,7,6.17,9.69-9,1.9-10.68,4.21,1.62,9.77-.71,11.46-8.34-3.76-11.12-2.86-4.34,8.85-7.31,8.85-4.63-8-7.31-8.85-8.81,4.54-11.12,2.86,1-9.13-.7-11.46S26.4,601,25.5,598.2s6.18-6.72,6.18-9.69-7-7-6.18-9.69,9-1.9,10.69-4.21-1.63-9.76.7-11.46S45.24,566.92,48,566,52.36,557.16,55.32,557.16Z"/><circle class="cls-4" cx="55.32" cy="588.51" r="18.7"/><path class="cls-2" d="M538.84,442.07c3,0,4.63,8,7.31,8.85s8.81-4.54,11.12-2.86-1,9.13.7,11.46,9.79,1.44,10.69,4.21-6.18,6.72-6.18,9.69,7,7,6.18,9.69-9,1.9-10.69,4.21,1.63,9.76-.71,11.46-8.34-3.76-11.11-2.86-4.35,8.85-7.31,8.85-4.64-8-7.32-8.85-8.8,4.54-11.11,2.86,1-9.13-.71-11.46-9.78-1.44-10.68-4.21,6.17-6.72,6.17-9.69-7-7-6.17-9.69,9-1.9,10.68-4.21-1.63-9.76.71-11.46,8.34,3.76,11.11,2.86S535.87,442.07,538.84,442.07Z"/><path class="cls-3" d="M538.84,442.07c3,0,4.63,8,7.31,8.85s8.81-4.54,11.12-2.86-1,9.13.7,11.46,9.79,1.44,10.69,4.21-6.18,6.72-6.18,9.69,7,7,6.18,9.69-9,1.9-10.69,4.21,1.63,9.76-.71,11.46-8.34-3.76-11.11-2.86-4.35,8.85-7.31,8.85-4.64-8-7.32-8.85-8.8,4.54-11.11,2.86,1-9.13-.71-11.46-9.78-1.44-10.68-4.21,6.17-6.72,6.17-9.69-7-7-6.17-9.69,9-1.9,10.68-4.21-1.63-9.76.71-11.46,8.34,3.76,11.11,2.86S535.87,442.07,538.84,442.07Z"/><circle class="cls-4" cx="538.84" cy="473.42" r="18.7"/><path class="cls-2" d="M538.84,332c3,0,4.63,8,7.31,8.85S555,336.3,557.27,338s-1,9.13.7,11.46,9.79,1.44,10.69,4.21-6.18,6.72-6.18,9.69,7,7,6.18,9.69-9,1.9-10.69,4.21,1.63,9.76-.71,11.46-8.34-3.76-11.11-2.86-4.35,8.85-7.31,8.85-4.64-8-7.32-8.85-8.8,4.54-11.11,2.86,1-9.13-.71-11.46S509.92,375.8,509,373s6.17-6.73,6.17-9.69-7-7-6.17-9.69,9-1.9,10.68-4.21-1.63-9.77.71-11.46,8.34,3.76,11.11,2.86S535.87,332,538.84,332Z"/><path class="cls-3" d="M538.84,332c3,0,4.63,8,7.31,8.85S555,336.3,557.27,338s-1,9.13.7,11.46,9.79,1.44,10.69,4.21-6.18,6.72-6.18,9.69,7,7,6.18,9.69-9,1.9-10.69,4.21,1.63,9.76-.71,11.46-8.34-3.76-11.11-2.86-4.35,8.85-7.31,8.85-4.64-8-7.32-8.85-8.8,4.54-11.11,2.86,1-9.13-.71-11.46S509.92,375.8,509,373s6.17-6.73,6.17-9.69-7-7-6.17-9.69,9-1.9,10.68-4.21-1.63-9.77.71-11.46,8.34,3.76,11.11,2.86S535.87,332,538.84,332Z"/><circle class="cls-4" cx="538.84" cy="363.34" r="18.7"/><path class="cls-2" d="M538.84,221.74c3,0,4.63,8,7.31,8.85s8.81-4.55,11.12-2.87-1,9.13.7,11.47,9.79,1.43,10.69,4.2-6.18,6.73-6.18,9.69,7,7,6.18,9.69-9,1.9-10.69,4.21,1.63,9.77-.71,11.46-8.34-3.76-11.11-2.86-4.35,8.85-7.31,8.85-4.64-8-7.32-8.85-8.8,4.54-11.11,2.86,1-9.13-.71-11.46-9.78-1.43-10.68-4.21,6.17-6.72,6.17-9.69-7-7-6.17-9.69,9-1.9,10.68-4.21-1.63-9.76.71-11.46,8.34,3.77,11.11,2.87S535.87,221.74,538.84,221.74Z"/><path class="cls-3" d="M538.84,221.74c3,0,4.63,8,7.31,8.85s8.81-4.55,11.12-2.87-1,9.13.7,11.47,9.79,1.43,10.69,4.2-6.18,6.73-6.18,9.69,7,7,6.18,9.69-9,1.9-10.69,4.21,1.63,9.77-.71,11.46-8.34-3.76-11.11-2.86-4.35,8.85-7.31,8.85-4.64-8-7.32-8.85-8.8,4.54-11.11,2.86,1-9.13-.71-11.46-9.78-1.43-10.68-4.21,6.17-6.72,6.17-9.69-7-7-6.17-9.69,9-1.9,10.68-4.21-1.63-9.76.71-11.46,8.34,3.77,11.11,2.87S535.87,221.74,538.84,221.74Z"/><circle class="cls-4" cx="538.84" cy="253.08" r="18.7"/><path class="cls-2" d="M538.84,115.81c3,0,4.63,8,7.31,8.85s8.81-4.54,11.12-2.86-1,9.13.7,11.46,9.79,1.43,10.69,4.21-6.18,6.72-6.18,9.69,7,7,6.18,9.69-9,1.9-10.69,4.21,1.63,9.76-.71,11.46-8.34-3.77-11.11-2.86-4.35,8.85-7.31,8.85-4.64-8-7.32-8.85-8.8,4.54-11.11,2.86,1-9.13-.71-11.46-9.78-1.44-10.68-4.21,6.17-6.73,6.17-9.69-7-7-6.17-9.69,9-1.9,10.68-4.21-1.63-9.77.71-11.46,8.34,3.76,11.11,2.86S535.87,115.81,538.84,115.81Z"/><path class="cls-3" d="M538.84,115.81c3,0,4.63,8,7.31,8.85s8.81-4.54,11.12-2.86-1,9.13.7,11.46,9.79,1.43,10.69,4.21-6.18,6.72-6.18,9.69,7,7,6.18,9.69-9,1.9-10.69,4.21,1.63,9.76-.71,11.46-8.34-3.77-11.11-2.86-4.35,8.85-7.31,8.85-4.64-8-7.32-8.85-8.8,4.54-11.11,2.86,1-9.13-.71-11.46-9.78-1.44-10.68-4.21,6.17-6.73,6.17-9.69-7-7-6.17-9.69,9-1.9,10.68-4.21-1.63-9.77.71-11.46,8.34,3.76,11.11,2.86S535.87,115.81,538.84,115.81Z"/><circle class="cls-4" cx="538.84" cy="147.16" r="18.7"/><path class="cls-2" d="M538.84,667.44c3,0,4.63,8,7.31,8.85s8.81-4.54,11.12-2.86-1,9.13.7,11.46,9.79,1.43,10.69,4.21-6.18,6.72-6.18,9.69,7,7,6.18,9.69-9,1.9-10.69,4.21,1.63,9.76-.71,11.46-8.34-3.77-11.11-2.86-4.35,8.85-7.31,8.85-4.64-8-7.32-8.85-8.8,4.54-11.11,2.86,1-9.13-.71-11.46-9.78-1.44-10.68-4.21,6.17-6.73,6.17-9.69-7-7-6.17-9.69,9-1.9,10.68-4.21-1.63-9.77.71-11.46,8.34,3.76,11.11,2.86S535.87,667.44,538.84,667.44Z"/><path class="cls-3" d="M538.84,667.44c3,0,4.63,8,7.31,8.85s8.81-4.54,11.12-2.86-1,9.13.7,11.46,9.79,1.43,10.69,4.21-6.18,6.72-6.18,9.69,7,7,6.18,9.69-9,1.9-10.69,4.21,1.63,9.76-.71,11.46-8.34-3.77-11.11-2.86-4.35,8.85-7.31,8.85-4.64-8-7.32-8.85-8.8,4.54-11.11,2.86,1-9.13-.71-11.46-9.78-1.44-10.68-4.21,6.17-6.73,6.17-9.69-7-7-6.17-9.69,9-1.9,10.68-4.21-1.63-9.77.71-11.46,8.34,3.76,11.11,2.86S535.87,667.44,538.84,667.44Z"/><circle class="cls-4" cx="538.84" cy="698.79" r="18.7"/><path class="cls-2" d="M538.84,557.36c3,0,4.63,8,7.31,8.85s8.81-4.54,11.12-2.86-1,9.13.7,11.46,9.79,1.43,10.69,4.21-6.18,6.72-6.18,9.69,7,7,6.18,9.69-9,1.9-10.69,4.21,1.63,9.76-.71,11.46-8.34-3.77-11.11-2.87-4.35,8.85-7.31,8.85-4.64-8-7.32-8.85-8.8,4.55-11.11,2.87,1-9.13-.71-11.46-9.78-1.44-10.68-4.21,6.17-6.73,6.17-9.69-7-7-6.17-9.69,9-1.9,10.68-4.21-1.63-9.77.71-11.46,8.34,3.76,11.11,2.86S535.87,557.36,538.84,557.36Z"/><path class="cls-3" d="M538.84,557.36c3,0,4.63,8,7.31,8.85s8.81-4.54,11.12-2.86-1,9.13.7,11.46,9.79,1.43,10.69,4.21-6.18,6.72-6.18,9.69,7,7,6.18,9.69-9,1.9-10.69,4.21,1.63,9.76-.71,11.46-8.34-3.77-11.11-2.87-4.35,8.85-7.31,8.85-4.64-8-7.32-8.85-8.8,4.55-11.11,2.87,1-9.13-.71-11.46-9.78-1.44-10.68-4.21,6.17-6.73,6.17-9.69-7-7-6.17-9.69,9-1.9,10.68-4.21-1.63-9.77.71-11.46,8.34,3.76,11.11,2.86S535.87,557.36,538.84,557.36Z"/><circle class="cls-4" cx="538.84" cy="588.71" r="18.7"/></g></svg>