<svg id="svg" version="1.1" xmlns="http://www.w3.org/2000/svg" xmlns:xlink="http://www.w3.org/1999/xlink" width="400" height="406.14923134608176" viewBox="0, 0, 400,406.14923134608176"><g id="svgg"><path id="path0" d="M199.853 0.256 C 199.799 0.397,199.667 1.177,199.560 1.991 C 199.453 2.805,199.141 4.689,198.867 6.179 C 198.593 7.668,198.296 9.382,198.207 9.987 C 197.950 11.722,196.947 17.691,196.258 21.583 C 195.912 23.538,195.600 25.404,195.566 25.730 C 195.496 26.395,194.501 32.283,193.550 37.664 C 193.205 39.619,192.864 41.714,192.793 42.319 C 192.721 42.924,192.390 44.855,192.057 46.609 C 191.724 48.364,191.452 49.996,191.452 50.236 C 191.452 50.476,191.193 52.126,190.877 53.902 C 190.561 55.678,189.988 58.997,189.605 61.278 C 189.221 63.559,188.599 67.253,188.222 69.488 C 187.845 71.722,187.241 75.303,186.880 77.444 C 186.519 79.585,185.946 83.013,185.606 85.061 C 185.267 87.110,184.835 89.684,184.646 90.783 C 184.457 91.882,184.331 92.804,184.365 92.833 C 184.399 92.862,185.781 92.711,187.436 92.498 C 195.701 91.433,205.517 91.495,213.965 92.666 C 214.850 92.789,215.590 92.876,215.610 92.860 C 215.661 92.820,215.235 90.134,214.467 85.654 C 213.840 82.000,213.089 77.539,211.844 70.080 C 211.526 68.172,210.962 64.820,210.592 62.632 C 210.221 60.444,209.798 57.893,209.652 56.961 C 209.505 56.030,209.202 54.240,208.978 52.983 C 208.620 50.977,208.126 48.054,206.847 40.372 C 206.660 39.255,206.362 37.503,206.184 36.479 C 206.005 35.455,205.584 32.941,205.247 30.893 C 204.911 28.845,204.340 25.417,203.979 23.275 C 203.618 21.134,203.008 17.516,202.623 15.235 C 202.239 12.954,201.622 9.298,201.251 7.110 C 200.881 4.922,200.459 2.427,200.314 1.566 C 200.035 -0.083,200.010 -0.153,199.853 0.256 M130.566 12.671 C 130.625 12.966,130.756 13.721,130.856 14.348 C 130.956 14.975,131.333 17.050,131.692 18.959 C 132.052 20.868,132.626 23.953,132.968 25.815 C 133.591 29.213,134.385 33.492,135.589 39.949 C 135.945 41.858,136.554 45.133,136.943 47.228 C 137.331 49.323,137.941 52.598,138.297 54.507 C 138.654 56.416,139.224 59.501,139.564 61.363 C 139.904 63.225,140.482 66.272,140.849 68.134 C 141.216 69.996,141.516 71.701,141.515 71.924 C 141.515 72.147,141.813 73.823,142.178 75.648 C 142.542 77.474,143.156 80.681,143.542 82.776 C 143.928 84.871,144.436 87.575,144.671 88.785 C 144.905 89.996,145.176 91.519,145.272 92.171 C 145.369 92.823,145.743 94.798,146.105 96.560 C 146.467 98.323,146.763 99.946,146.763 100.168 C 146.763 100.561,147.564 104.624,147.661 104.721 C 147.687 104.748,148.894 104.182,150.342 103.464 C 154.360 101.472,156.383 100.582,160.559 98.970 C 162.766 98.118,165.981 96.995,166.213 96.995 C 166.322 96.995,167.190 96.736,168.141 96.420 C 169.091 96.103,171.354 95.482,173.170 95.040 C 174.985 94.597,176.568 94.210,176.687 94.180 C 176.924 94.119,176.834 93.937,175.037 90.817 C 174.715 90.258,174.349 89.611,174.223 89.378 C 173.410 87.877,171.386 84.314,171.146 83.961 C 170.988 83.728,170.610 83.043,170.305 82.438 C 170.001 81.832,169.657 81.223,169.540 81.083 C 169.424 80.944,168.894 80.030,168.363 79.052 C 167.833 78.074,167.025 76.627,166.569 75.836 C 166.113 75.044,165.427 73.826,165.045 73.127 C 164.662 72.429,164.064 71.363,163.714 70.758 C 162.849 69.257,160.727 65.516,159.923 64.071 C 159.560 63.419,158.869 62.195,158.387 61.350 C 157.906 60.505,157.141 59.134,156.688 58.303 C 156.235 57.472,155.722 56.588,155.548 56.337 C 155.374 56.087,154.989 55.402,154.692 54.814 C 154.395 54.226,154.022 53.555,153.864 53.322 C 153.415 52.660,150.656 47.714,150.656 47.571 C 150.656 47.501,150.514 47.261,150.340 47.039 C 150.166 46.817,149.811 46.217,149.550 45.705 C 149.289 45.193,148.983 44.659,148.869 44.520 C 148.755 44.380,148.449 43.847,148.188 43.335 C 147.927 42.823,147.524 42.099,147.293 41.727 C 147.062 41.354,146.620 40.573,146.310 39.990 C 145.539 38.537,145.354 38.212,145.132 37.918 C 145.027 37.778,144.686 37.169,144.374 36.564 C 144.063 35.959,143.559 35.084,143.254 34.621 C 142.949 34.157,142.700 33.699,142.700 33.601 C 142.700 33.504,142.433 33.020,142.107 32.525 C 141.782 32.030,141.515 31.587,141.515 31.541 C 141.515 31.494,140.906 30.398,140.161 29.105 C 139.416 27.812,138.807 26.687,138.807 26.604 C 138.807 26.521,138.663 26.270,138.488 26.047 C 138.312 25.824,137.883 25.109,137.534 24.459 C 137.184 23.808,136.757 23.073,136.583 22.826 C 136.409 22.579,136.267 22.328,136.267 22.269 C 136.267 22.210,135.658 21.101,134.913 19.805 C 134.168 18.509,133.559 17.409,133.559 17.361 C 133.559 17.312,133.291 16.854,132.964 16.342 C 132.637 15.831,132.300 15.239,132.215 15.027 C 132.130 14.816,131.789 14.226,131.456 13.717 C 131.123 13.208,130.851 12.698,130.851 12.584 C 130.851 12.470,130.763 12.323,130.655 12.256 C 130.515 12.170,130.490 12.288,130.566 12.671 M269.171 12.545 C 269.085 12.768,268.813 13.243,268.567 13.601 C 268.322 13.960,267.855 14.760,267.531 15.379 C 267.207 15.998,266.781 16.771,266.585 17.097 C 266.389 17.423,265.924 18.261,265.552 18.959 C 265.181 19.657,264.743 20.419,264.580 20.652 C 264.417 20.884,264.040 21.532,263.743 22.091 C 263.446 22.649,262.877 23.678,262.479 24.376 C 262.080 25.074,261.196 26.636,260.514 27.846 C 259.832 29.056,258.987 30.542,258.635 31.147 C 258.283 31.752,257.683 32.818,257.302 33.517 C 256.921 34.215,256.043 35.777,255.352 36.987 C 254.661 38.197,253.820 39.683,253.485 40.288 C 253.149 40.893,252.518 42.015,252.082 42.781 C 251.647 43.548,250.891 44.881,250.403 45.744 C 249.915 46.607,249.062 48.113,248.508 49.090 C 247.954 50.068,247.258 51.325,246.961 51.883 C 246.664 52.442,246.203 53.217,245.936 53.606 C 245.669 53.996,245.451 54.369,245.451 54.437 C 245.451 54.505,245.003 55.329,244.456 56.269 C 243.909 57.208,243.251 58.396,242.995 58.908 C 242.738 59.420,242.471 59.877,242.400 59.924 C 242.329 59.970,242.022 60.504,241.719 61.109 C 241.415 61.714,241.035 62.399,240.874 62.632 C 240.713 62.865,240.296 63.589,239.947 64.240 C 239.599 64.892,239.247 65.509,239.166 65.612 C 239.015 65.803,238.407 66.911,237.784 68.134 C 237.594 68.506,237.346 68.925,237.232 69.065 C 237.118 69.204,236.812 69.738,236.553 70.250 C 236.293 70.762,235.952 71.371,235.795 71.604 C 235.638 71.837,235.224 72.559,234.874 73.210 C 234.525 73.861,234.096 74.576,233.920 74.799 C 233.745 75.022,233.601 75.273,233.601 75.356 C 233.601 75.440,233.030 76.498,232.332 77.709 C 231.634 78.919,231.062 79.964,231.062 80.031 C 231.061 80.098,230.757 80.609,230.385 81.168 C 230.013 81.727,229.709 82.261,229.709 82.357 C 229.708 82.452,229.405 82.985,229.036 83.542 C 228.666 84.098,228.361 84.604,228.359 84.665 C 228.356 84.726,227.782 85.771,227.084 86.986 C 226.386 88.201,225.815 89.244,225.815 89.303 C 225.815 89.362,225.671 89.612,225.495 89.860 C 225.319 90.107,224.850 90.918,224.453 91.663 C 224.056 92.408,223.678 93.055,223.613 93.102 C 223.035 93.518,223.070 94.287,223.666 94.287 C 223.870 94.288,225.066 94.564,226.322 94.901 C 227.579 95.238,228.923 95.576,229.309 95.653 C 229.694 95.730,230.809 96.064,231.787 96.394 C 232.765 96.725,233.671 96.995,233.801 96.995 C 233.931 96.995,234.834 97.299,235.808 97.670 C 236.782 98.041,237.679 98.346,237.800 98.347 C 237.922 98.348,238.341 98.488,238.731 98.658 C 239.557 99.017,240.393 99.351,241.811 99.889 C 242.370 100.100,242.979 100.366,243.165 100.479 C 243.352 100.592,243.694 100.738,243.927 100.804 C 244.479 100.960,246.612 101.965,249.740 103.541 C 251.122 104.238,252.277 104.783,252.306 104.752 C 252.335 104.722,252.560 103.631,252.806 102.328 C 253.052 101.024,253.528 98.548,253.865 96.826 C 254.202 95.104,254.539 93.211,254.615 92.620 C 254.690 92.030,254.981 90.468,255.262 89.150 C 255.543 87.832,255.819 86.373,255.876 85.908 C 255.933 85.442,256.267 83.614,256.619 81.845 C 256.971 80.076,257.338 78.096,257.435 77.444 C 257.532 76.792,257.805 75.269,258.042 74.058 C 258.279 72.848,258.782 70.182,259.160 68.134 C 259.538 66.085,260.146 62.810,260.510 60.855 C 261.579 55.129,262.514 50.088,263.163 46.551 C 263.496 44.736,264.061 41.689,264.418 39.780 C 264.774 37.871,265.377 34.634,265.757 32.586 C 266.137 30.537,266.746 27.262,267.110 25.307 C 269.559 12.173,269.529 12.342,269.418 12.231 C 269.369 12.182,269.257 12.323,269.171 12.545 M69.403 47.658 C 69.403 47.708,69.546 47.956,69.721 48.208 C 69.896 48.461,70.320 49.162,70.662 49.767 C 71.005 50.372,71.556 51.325,71.888 51.883 C 72.220 52.442,72.659 53.204,72.863 53.576 C 73.068 53.948,73.516 54.687,73.858 55.218 C 74.201 55.749,74.482 56.239,74.482 56.307 C 74.482 56.376,74.754 56.855,75.087 57.374 C 75.419 57.892,76.287 59.344,77.015 60.601 C 77.742 61.858,78.600 63.305,78.921 63.817 C 79.242 64.329,79.803 65.271,80.167 65.909 C 80.531 66.548,80.907 67.195,81.001 67.348 C 81.095 67.501,81.469 68.159,81.832 68.811 C 82.195 69.463,82.765 70.425,83.099 70.950 C 83.434 71.474,83.936 72.305,84.215 72.796 C 84.494 73.287,84.799 73.810,84.893 73.958 C 84.986 74.106,85.400 74.837,85.812 75.582 C 86.224 76.327,86.614 76.974,86.680 77.021 C 86.746 77.067,87.087 77.639,87.437 78.290 C 87.788 78.942,88.253 79.711,88.472 79.999 C 88.691 80.287,88.870 80.570,88.870 80.629 C 88.870 80.742,90.083 82.847,91.424 85.061 C 91.875 85.806,92.410 86.720,92.613 87.093 C 92.816 87.465,93.543 88.705,94.227 89.848 C 94.912 90.991,95.472 91.963,95.472 92.008 C 95.472 92.053,95.777 92.537,96.149 93.082 C 96.521 93.628,96.826 94.143,96.826 94.227 C 96.826 94.311,97.075 94.758,97.380 95.222 C 97.684 95.685,98.191 96.521,98.506 97.080 C 99.476 98.800,100.085 99.837,101.342 101.904 C 101.597 102.323,102.169 103.314,102.614 104.105 C 103.059 104.896,103.500 105.658,103.595 105.798 C 103.690 105.937,103.977 106.422,104.233 106.875 C 104.488 107.328,104.971 108.128,105.305 108.652 C 105.640 109.177,106.210 110.140,106.573 110.791 C 106.935 111.443,107.309 112.102,107.404 112.256 C 107.498 112.410,107.925 113.133,108.352 113.864 C 108.780 114.595,109.362 115.573,109.645 116.039 C 109.929 116.504,110.736 117.876,111.439 119.086 C 112.142 120.296,112.997 121.744,113.339 122.302 C 113.681 122.861,114.200 123.728,114.492 124.230 C 114.784 124.731,115.100 125.264,115.195 125.415 C 115.289 125.565,115.733 126.354,116.182 127.169 C 116.630 127.983,117.020 128.650,117.048 128.650 C 117.076 128.650,119.032 126.725,121.394 124.373 C 125.398 120.384,127.355 118.628,131.070 115.692 C 133.191 114.016,134.311 113.178,135.752 112.193 C 136.445 111.718,137.334 111.094,137.726 110.806 C 138.118 110.519,139.058 109.909,139.815 109.450 C 140.898 108.794,141.144 108.575,140.972 108.421 C 140.852 108.313,140.035 107.622,139.157 106.884 C 137.325 105.345,136.887 104.964,136.183 104.296 C 135.904 104.031,134.494 102.838,133.051 101.644 C 130.461 99.501,129.553 98.725,128.227 97.521 C 127.854 97.183,126.140 95.732,124.418 94.297 C 121.041 91.483,120.136 90.708,119.086 89.726 C 118.713 89.378,117.228 88.114,115.785 86.916 C 114.342 85.719,112.095 83.810,110.791 82.674 C 108.531 80.705,106.446 78.932,98.434 72.167 C 96.479 70.516,94.003 68.395,92.933 67.453 C 91.862 66.511,89.805 64.761,88.362 63.565 C 86.919 62.368,85.091 60.808,84.300 60.098 C 83.508 59.388,81.261 57.457,79.306 55.808 C 77.351 54.159,74.380 51.633,72.704 50.194 C 69.894 47.783,69.403 47.406,69.403 47.658 M328.377 49.228 C 327.296 50.133,325.811 51.413,325.076 52.071 C 324.342 52.730,322.294 54.471,320.525 55.940 C 318.756 57.410,316.928 58.974,316.462 59.416 C 315.997 59.858,314.168 61.422,312.399 62.890 C 310.631 64.359,308.574 66.107,307.829 66.774 C 307.084 67.441,305.028 69.196,303.259 70.673 C 301.490 72.150,299.395 73.939,298.603 74.648 C 297.812 75.357,295.984 76.918,294.541 78.117 C 293.098 79.316,291.041 81.068,289.970 82.010 C 288.900 82.951,286.667 84.853,285.010 86.235 C 283.352 87.617,281.524 89.176,280.947 89.699 C 280.370 90.222,278.489 91.827,276.766 93.265 C 275.044 94.703,272.988 96.456,272.196 97.160 C 271.405 97.864,269.348 99.612,267.626 101.044 C 265.904 102.476,264.228 103.897,263.902 104.203 C 263.010 105.040,261.597 106.265,260.129 107.476 L 258.812 108.561 261.315 110.217 C 264.034 112.017,266.560 113.844,268.899 115.700 C 273.853 119.634,276.239 121.817,281.266 127.018 C 282.154 127.936,282.906 128.660,282.937 128.626 C 282.996 128.564,284.020 126.802,285.481 124.249 C 285.934 123.457,286.558 122.428,286.868 121.962 C 287.178 121.496,287.431 121.054,287.431 120.981 C 287.431 120.907,287.714 120.413,288.059 119.882 C 288.404 119.351,288.854 118.612,289.058 118.240 C 289.263 117.867,289.685 117.131,289.997 116.603 C 291.322 114.358,292.189 112.881,293.212 111.130 C 293.810 110.106,294.509 108.940,294.766 108.540 C 295.022 108.140,295.297 107.645,295.376 107.440 C 295.455 107.235,295.795 106.669,296.131 106.183 C 296.467 105.696,296.741 105.252,296.741 105.196 C 296.741 105.141,297.313 104.147,298.011 102.988 C 298.709 101.830,299.281 100.839,299.281 100.787 C 299.281 100.735,299.534 100.298,299.844 99.817 C 300.765 98.387,303.343 93.995,303.343 93.856 C 303.343 93.785,303.519 93.491,303.734 93.203 C 303.950 92.915,304.415 92.146,304.769 91.494 C 305.123 90.842,305.465 90.271,305.530 90.224 C 305.595 90.178,305.918 89.645,306.249 89.039 C 307.258 87.194,308.118 85.730,309.182 84.046 C 309.476 83.580,310.079 82.552,310.522 81.760 C 311.416 80.162,312.310 78.636,313.249 77.105 C 313.592 76.547,314.467 75.061,315.194 73.804 C 315.921 72.548,316.705 71.215,316.937 70.842 C 317.169 70.470,317.550 69.822,317.785 69.403 C 318.412 68.284,320.345 65.010,320.784 64.325 C 320.992 63.999,321.429 63.237,321.753 62.632 C 322.078 62.027,322.434 61.418,322.545 61.278 C 322.656 61.138,323.154 60.300,323.651 59.416 C 324.148 58.532,324.647 57.694,324.759 57.554 C 324.871 57.414,325.210 56.843,325.511 56.284 C 325.812 55.726,326.248 54.964,326.481 54.592 C 327.468 53.010,329.581 49.379,329.581 49.265 C 329.581 49.197,329.810 48.825,330.089 48.440 C 331.063 47.096,330.752 47.239,328.377 49.228 M192.890 99.378 C 192.052 99.452,190.339 99.591,189.082 99.687 C 187.825 99.784,185.654 100.059,184.257 100.299 C 182.861 100.539,181.071 100.840,180.279 100.967 C 177.718 101.380,173.999 102.310,168.853 103.824 C 163.829 105.303,157.499 107.969,150.741 111.453 C 150.182 111.741,149.403 112.186,149.009 112.442 C 148.615 112.698,148.232 112.907,148.159 112.907 C 148.085 112.907,147.645 113.156,147.182 113.460 C 146.719 113.764,145.597 114.455,144.689 114.996 C 143.781 115.536,142.943 116.071,142.827 116.183 C 142.711 116.296,141.739 116.974,140.669 117.691 C 137.400 119.879,133.678 122.804,130.851 125.406 C 123.835 131.863,118.977 137.342,114.638 143.691 C 113.961 144.682,113.286 145.636,113.139 145.812 C 112.992 145.987,112.462 146.825,111.960 147.674 C 111.459 148.523,110.813 149.598,110.524 150.063 C 109.339 151.973,108.728 153.100,107.124 156.327 C 106.199 158.189,105.256 160.066,105.027 160.499 C 104.799 160.932,104.613 161.373,104.613 161.480 C 104.613 161.587,104.346 162.244,104.020 162.940 C 103.694 163.636,103.428 164.284,103.428 164.380 C 103.428 164.476,103.287 164.875,103.114 165.265 C 102.491 166.675,100.956 171.031,100.597 172.408 C 100.500 172.780,100.194 173.847,99.916 174.778 C 94.775 192.012,94.775 214.251,99.916 231.485 C 100.194 232.416,100.500 233.483,100.597 233.855 C 100.866 234.886,102.021 238.222,102.766 240.118 C 103.132 241.050,103.431 241.863,103.430 241.926 C 103.429 241.989,103.694 242.618,104.020 243.323 C 104.346 244.029,104.613 244.655,104.613 244.714 C 104.613 245.032,108.773 253.387,109.362 254.253 C 109.521 254.486,109.928 255.171,110.267 255.777 C 110.606 256.382,111.196 257.372,111.578 257.977 C 111.960 258.582,112.423 259.344,112.606 259.670 C 112.790 259.996,113.072 260.415,113.234 260.601 C 113.395 260.787,114.009 261.658,114.597 262.535 C 115.185 263.413,115.941 264.486,116.276 264.920 C 116.611 265.354,117.113 266.007,117.391 266.371 C 120.581 270.547,125.166 275.594,128.833 278.967 C 129.896 279.945,130.791 280.801,130.822 280.869 C 130.907 281.060,134.476 284.011,136.098 285.232 C 136.890 285.828,137.613 286.408,137.706 286.520 C 137.930 286.790,141.939 289.516,145.154 291.584 C 146.194 292.253,149.447 294.114,151.418 295.167 C 153.317 296.182,156.563 297.714,160.135 299.282 C 164.995 301.414,176.511 304.836,180.627 305.372 C 181.227 305.450,182.823 305.706,184.173 305.942 C 193.111 307.499,207.578 307.463,216.335 305.861 C 217.313 305.682,218.646 305.460,219.298 305.367 C 222.922 304.851,231.595 302.457,235.890 300.787 C 236.823 300.424,237.646 300.127,237.719 300.127 C 237.792 300.127,238.198 299.969,238.620 299.777 C 239.043 299.584,239.972 299.196,240.685 298.915 C 242.311 298.273,249.905 294.533,250.756 293.955 C 251.105 293.719,251.431 293.525,251.480 293.525 C 251.609 293.525,253.782 292.248,255.269 291.299 C 257.589 289.816,262.369 286.516,262.541 286.277 C 262.591 286.208,263.280 285.663,264.071 285.067 C 269.501 280.975,276.908 273.670,281.069 268.303 C 281.899 267.232,282.766 266.151,282.996 265.900 C 283.942 264.868,288.703 257.611,290.526 254.422 C 291.416 252.867,293.320 249.143,294.508 246.634 C 295.526 244.484,297.647 239.259,298.011 238.003 C 298.133 237.584,298.459 236.593,298.736 235.802 C 299.806 232.744,301.971 224.625,301.987 223.614 C 301.990 223.381,302.173 222.277,302.394 221.160 C 303.195 217.098,303.532 213.909,303.883 207.067 C 304.228 200.356,303.613 191.286,302.394 185.104 C 302.173 183.986,301.992 182.902,301.991 182.693 C 301.986 181.729,299.786 173.463,298.736 170.461 C 298.459 169.670,298.133 168.680,298.011 168.261 C 297.792 167.505,296.593 164.437,295.565 161.999 C 293.498 157.100,288.892 148.586,286.801 145.798 C 286.605 145.537,285.958 144.600,285.362 143.716 C 283.738 141.305,283.361 140.769,283.222 140.672 C 283.152 140.624,282.608 139.937,282.013 139.145 C 277.670 133.368,269.674 125.371,264.071 121.200 C 263.280 120.611,262.556 120.047,262.463 119.946 C 262.201 119.663,261.220 118.951,259.464 117.768 C 258.582 117.174,257.601 116.493,257.284 116.254 C 256.967 116.014,256.403 115.651,256.030 115.446 C 255.658 115.242,255.111 114.891,254.815 114.668 C 254.518 114.444,254.225 114.262,254.164 114.262 C 254.102 114.262,253.849 114.121,253.602 113.949 C 253.355 113.777,252.734 113.407,252.222 113.127 C 251.710 112.846,250.988 112.435,250.619 112.212 C 247.836 110.533,241.152 107.440,236.479 105.666 C 223.396 100.702,206.148 98.214,192.890 99.378 M24.884 102.254 C 25.303 102.626,27.017 104.047,28.692 105.411 C 33.045 108.952,33.376 109.227,33.762 109.630 C 33.953 109.828,35.442 111.068,37.072 112.384 C 38.701 113.700,41.824 116.260,44.012 118.073 C 46.200 119.885,49.742 122.796,51.883 124.541 C 54.024 126.286,55.929 127.877,56.115 128.076 C 56.301 128.276,57.634 129.378,59.077 130.525 C 60.521 131.672,62.015 132.881,62.398 133.212 C 62.782 133.542,63.467 134.132,63.922 134.521 C 64.856 135.321,68.855 138.610,73.381 142.301 C 76.604 144.928,77.469 145.652,78.290 146.409 C 78.570 146.666,79.979 147.818,81.422 148.969 C 83.799 150.864,85.125 151.964,86.077 152.828 C 86.263 152.997,87.804 154.272,89.502 155.662 C 91.199 157.052,93.484 158.927,94.580 159.830 C 95.676 160.732,96.618 161.418,96.673 161.353 C 96.729 161.288,97.140 160.398,97.588 159.374 C 99.299 155.458,102.755 148.597,103.770 147.101 C 103.928 146.868,104.308 146.221,104.615 145.662 C 104.921 145.104,105.318 144.456,105.497 144.223 C 105.676 143.991,106.247 143.115,106.767 142.277 C 107.286 141.439,107.871 140.551,108.066 140.304 C 108.262 140.057,108.764 139.343,109.183 138.718 C 109.602 138.093,110.460 136.928,111.090 136.129 C 112.392 134.477,112.398 134.436,111.374 134.095 C 110.960 133.957,110.394 133.753,110.114 133.642 C 109.835 133.531,109.187 133.284,108.675 133.095 C 108.163 132.905,106.934 132.437,105.944 132.054 C 104.953 131.672,104.097 131.358,104.041 131.358 C 103.985 131.358,103.119 131.046,102.117 130.663 C 101.116 130.281,99.534 129.678,98.603 129.324 C 97.672 128.969,96.263 128.432,95.472 128.131 C 94.680 127.829,93.462 127.377,92.763 127.125 C 92.065 126.874,91.113 126.531,90.647 126.363 C 90.182 126.196,89.077 125.765,88.193 125.407 C 87.309 125.049,86.498 124.756,86.391 124.756 C 86.284 124.757,85.675 124.537,85.037 124.269 C 84.399 124.001,83.267 123.571,82.522 123.313 C 81.777 123.056,81.092 122.791,80.999 122.725 C 80.906 122.659,80.220 122.394,79.475 122.137 C 78.730 121.879,77.664 121.476,77.105 121.242 C 76.547 121.007,75.861 120.755,75.582 120.681 C 75.109 120.555,74.510 120.335,70.250 118.720 C 69.365 118.385,67.880 117.822,66.949 117.470 C 66.018 117.118,64.609 116.583,63.817 116.281 C 62.514 115.785,61.529 115.424,58.993 114.515 C 58.029 114.170,57.931 114.131,56.203 113.425 C 55.506 113.140,54.848 112.907,54.740 112.907 C 54.631 112.907,53.982 112.675,53.297 112.391 C 51.430 111.616,51.444 111.622,50.444 111.297 C 49.932 111.131,49.437 110.941,49.344 110.876 C 49.251 110.810,48.565 110.545,47.821 110.288 C 47.076 110.031,45.944 109.601,45.306 109.332 C 44.668 109.064,44.056 108.845,43.947 108.845 C 43.837 108.845,43.115 108.578,42.343 108.252 C 41.570 107.926,40.865 107.660,40.776 107.660 C 40.687 107.660,39.722 107.315,38.631 106.894 C 37.541 106.472,35.925 105.856,35.040 105.523 C 34.156 105.191,32.670 104.629,31.739 104.274 C 30.808 103.919,29.742 103.536,29.369 103.422 C 28.997 103.308,28.616 103.159,28.523 103.092 C 28.308 102.936,24.475 101.564,24.272 101.571 C 24.190 101.574,24.465 101.881,24.884 102.254 M374.270 102.003 C 373.665 102.230,372.446 102.692,371.562 103.029 C 370.677 103.366,369.192 103.928,368.261 104.279 C 367.330 104.630,365.763 105.230,364.780 105.611 C 363.797 105.993,362.932 106.306,362.857 106.306 C 362.783 106.306,362.064 106.568,361.259 106.888 C 360.455 107.209,358.921 107.785,357.850 108.169 C 355.917 108.862,354.180 109.516,350.710 110.855 C 349.716 111.239,348.830 111.553,348.743 111.553 C 348.598 111.553,347.812 111.868,346.424 112.483 C 346.145 112.606,345.573 112.798,345.154 112.909 C 344.736 113.019,344.317 113.164,344.223 113.231 C 344.130 113.297,343.483 113.564,342.785 113.824 C 342.086 114.084,340.791 114.565,339.907 114.893 C 337.818 115.669,335.355 116.598,333.136 117.446 C 332.158 117.820,331.168 118.179,330.935 118.244 C 330.702 118.309,330.284 118.467,330.004 118.595 C 329.542 118.806,326.288 120.029,324.841 120.534 C 324.259 120.737,322.539 121.394,321.540 121.793 C 321.261 121.905,320.614 122.134,320.102 122.302 C 319.590 122.469,319.094 122.658,319.001 122.722 C 318.908 122.785,317.994 123.127,316.970 123.480 C 315.946 123.833,315.032 124.179,314.939 124.248 C 314.846 124.317,314.465 124.467,314.092 124.581 C 313.720 124.695,312.653 125.080,311.722 125.435 C 310.791 125.791,309.192 126.396,308.168 126.779 C 304.154 128.281,303.213 128.632,301.989 129.088 C 301.291 129.348,300.643 129.615,300.550 129.681 C 300.457 129.747,300.038 129.892,299.619 130.003 C 299.200 130.113,298.629 130.310,298.350 130.441 C 298.070 130.571,297.004 130.989,295.980 131.369 C 293.006 132.474,290.941 133.235,290.394 133.427 C 290.114 133.525,289.813 133.671,289.725 133.751 C 289.636 133.832,289.408 133.903,289.217 133.910 C 289.026 133.917,288.570 134.055,288.203 134.217 L 287.536 134.512 288.218 135.263 C 288.593 135.676,289.477 136.851,290.183 137.876 C 290.888 138.900,291.652 139.966,291.880 140.245 C 292.109 140.525,292.621 141.287,293.018 141.938 C 293.415 142.590,294.149 143.744,294.649 144.503 C 295.148 145.263,295.556 145.935,295.556 145.998 C 295.556 146.061,295.812 146.507,296.124 146.988 C 297.411 148.975,300.916 155.812,301.809 158.078 C 302.006 158.576,302.432 159.551,302.757 160.245 L 303.348 161.508 304.150 160.867 C 305.779 159.564,306.827 158.700,307.321 158.251 C 308.133 157.515,308.991 156.800,312.230 154.162 C 313.906 152.797,315.703 151.316,316.224 150.872 C 316.745 150.427,318.074 149.340,319.177 148.455 C 320.280 147.571,321.416 146.640,321.700 146.387 C 322.881 145.336,323.879 144.507,326.449 142.441 C 327.939 141.244,329.653 139.829,330.258 139.297 C 330.863 138.765,332.660 137.275,334.251 135.986 C 335.842 134.698,337.676 133.187,338.326 132.628 C 338.976 132.069,340.413 130.889,341.518 130.004 C 342.624 129.120,344.142 127.862,344.892 127.209 C 345.642 126.555,347.435 125.079,348.879 123.929 C 350.322 122.778,351.701 121.636,351.944 121.392 C 352.187 121.148,353.282 120.224,354.379 119.340 C 355.475 118.455,357.219 117.030,358.254 116.172 C 359.289 115.315,361.427 113.563,363.005 112.279 C 364.584 110.995,366.488 109.411,367.237 108.757 C 367.986 108.104,369.780 106.625,371.223 105.470 C 372.666 104.315,374.113 103.119,374.439 102.813 C 374.765 102.506,375.222 102.103,375.455 101.916 C 376.025 101.459,375.642 101.487,374.270 102.003 M-0.000 167.966 C -0.000 168.021,0.362 168.179,0.804 168.318 C 1.246 168.456,2.598 168.922,3.809 169.353 C 5.019 169.784,6.847 170.433,7.871 170.795 C 8.895 171.158,10.724 171.806,11.934 172.236 C 13.144 172.666,14.934 173.290,15.912 173.622 C 16.890 173.955,17.769 174.290,17.866 174.367 C 17.962 174.444,18.410 174.589,18.860 174.690 C 19.310 174.791,19.993 175.015,20.377 175.188 C 20.761 175.360,21.760 175.730,22.598 176.009 C 23.436 176.289,24.541 176.686,25.053 176.892 C 25.565 177.099,26.327 177.366,26.746 177.488 C 27.165 177.609,28.688 178.139,30.131 178.666 C 31.574 179.193,33.288 179.805,33.940 180.026 C 34.592 180.247,36.191 180.808,37.495 181.273 C 38.798 181.738,40.245 182.249,40.711 182.409 C 41.176 182.569,42.339 182.993,43.294 183.352 C 44.249 183.710,45.112 184.003,45.211 184.003 C 45.310 184.003,46.167 184.295,47.114 184.652 C 49.164 185.425,49.907 185.690,52.476 186.565 C 53.546 186.929,54.654 187.336,54.937 187.469 C 55.221 187.601,55.754 187.785,56.122 187.876 C 56.782 188.039,58.649 188.703,61.758 189.880 C 62.626 190.209,63.579 190.538,63.873 190.613 C 64.168 190.687,65.019 190.986,65.764 191.278 C 66.509 191.571,67.522 191.920,68.015 192.054 C 68.509 192.188,69.118 192.403,69.370 192.532 C 69.621 192.660,70.512 192.998,71.350 193.283 C 73.092 193.874,75.817 194.827,78.883 195.915 C 80.047 196.328,81.380 196.799,81.845 196.962 C 82.311 197.125,83.263 197.472,83.961 197.734 C 86.229 198.585,88.682 199.370,88.777 199.275 C 88.828 199.224,88.870 198.212,88.870 197.027 C 88.870 194.631,89.056 192.489,89.559 189.082 C 89.744 187.825,89.973 186.149,90.066 185.358 C 90.427 182.291,92.473 173.601,93.673 170.038 C 93.892 169.386,94.045 168.805,94.013 168.747 C 93.891 168.527,84.095 168.409,52.983 168.255 C 35.341 168.168,16.202 168.045,10.453 167.982 C 4.704 167.918,-0.000 167.911,-0.000 167.966 M385.932 167.996 C 385.892 168.037,369.483 168.150,349.468 168.248 C 329.453 168.346,311.496 168.477,309.564 168.538 C 305.464 168.669,305.742 168.453,306.563 170.868 C 306.845 171.696,307.180 172.838,307.308 173.406 C 307.437 173.974,307.773 175.315,308.055 176.386 C 308.611 178.497,309.491 182.580,309.769 184.342 C 310.537 189.204,311.297 196.169,311.299 198.349 L 311.299 199.406 312.188 199.054 C 312.677 198.860,313.378 198.628,313.747 198.538 C 314.115 198.448,314.648 198.266,314.932 198.133 C 315.418 197.904,318.942 196.642,321.540 195.765 C 322.192 195.545,323.792 194.974,325.095 194.496 C 326.399 194.018,327.833 193.521,328.284 193.391 C 328.734 193.262,329.572 192.968,330.146 192.739 C 330.720 192.510,332.008 192.046,333.010 191.707 C 334.011 191.369,335.039 190.983,335.295 190.850 C 335.550 190.716,335.895 190.607,336.061 190.606 C 336.227 190.606,336.646 190.482,336.992 190.332 C 337.338 190.182,338.460 189.766,339.484 189.408 C 340.508 189.050,342.222 188.446,343.292 188.064 C 344.363 187.683,346.153 187.062,347.270 186.683 C 348.388 186.304,349.382 185.930,349.481 185.851 C 349.579 185.773,350.074 185.595,350.581 185.457 C 351.454 185.218,353.201 184.602,356.242 183.460 C 356.987 183.180,357.977 182.846,358.443 182.718 C 358.908 182.589,359.441 182.411,359.628 182.321 C 360.076 182.106,361.954 181.415,363.013 181.076 C 363.828 180.814,365.050 180.383,369.784 178.685 C 370.994 178.251,372.366 177.774,372.831 177.627 C 373.297 177.479,373.830 177.295,374.016 177.218 C 375.172 176.741,377.094 176.049,377.266 176.048 C 377.378 176.048,378.254 175.752,379.213 175.391 C 380.172 175.030,381.223 174.644,381.549 174.532 C 381.875 174.420,383.094 173.989,384.257 173.574 C 385.421 173.159,387.230 172.517,388.278 172.148 C 389.325 171.779,391.039 171.175,392.086 170.806 C 393.134 170.436,394.943 169.795,396.107 169.380 C 397.270 168.965,398.489 168.533,398.815 168.419 C 399.141 168.306,399.560 168.153,399.746 168.079 C 399.932 168.005,396.917 167.940,393.046 167.934 C 389.174 167.927,385.973 167.955,385.932 167.996 M86.331 207.716 C 83.693 208.653,82.226 209.171,81.507 209.419 C 80.250 209.852,77.086 210.969,75.074 211.689 C 73.864 212.123,72.112 212.736,71.181 213.053 C 70.250 213.369,69.336 213.704,69.149 213.796 C 68.963 213.888,67.935 214.260,66.864 214.623 C 64.184 215.532,63.452 215.792,61.742 216.446 C 60.927 216.757,60.161 217.012,60.040 217.012 C 59.918 217.012,59.062 217.305,58.136 217.663 C 57.211 218.021,56.073 218.437,55.607 218.587 C 55.142 218.737,53.885 219.174,52.814 219.559 C 48.500 221.110,46.595 221.783,45.789 222.042 C 45.324 222.191,44.181 222.593,43.250 222.936 C 42.319 223.278,41.176 223.690,40.711 223.851 C 37.829 224.848,34.680 225.978,34.536 226.067 C 34.443 226.124,33.933 226.284,33.401 226.422 C 32.870 226.561,32.355 226.738,32.257 226.816 C 32.158 226.894,31.278 227.229,30.300 227.561 C 29.323 227.893,27.533 228.515,26.322 228.944 C 22.320 230.362,20.408 231.036,19.551 231.330 C 19.086 231.490,17.924 231.914,16.968 232.272 C 16.013 232.631,15.156 232.924,15.063 232.924 C 14.970 232.924,14.209 233.195,13.371 233.526 C 12.534 233.858,11.487 234.233,11.045 234.360 C 10.603 234.488,9.175 234.983,7.871 235.461 C 6.568 235.939,4.968 236.510,4.317 236.730 C 3.665 236.950,2.408 237.405,1.523 237.742 L -0.085 238.354 9.903 238.259 C 15.396 238.207,34.173 238.093,51.629 238.006 C 86.339 237.833,94.177 237.726,94.065 237.429 C 92.944 234.441,90.412 224.018,90.056 220.926 C 89.975 220.217,89.754 218.570,89.565 217.266 C 89.050 213.714,88.870 211.625,88.870 209.218 C 88.870 208.023,88.813 207.013,88.743 206.975 C 88.673 206.936,87.588 207.270,86.331 207.716 M311.299 207.914 C 311.297 210.094,310.537 217.059,309.769 221.921 C 309.491 223.684,308.611 227.767,308.055 229.877 C 307.773 230.948,307.437 232.281,307.310 232.840 C 307.183 233.398,306.847 234.536,306.565 235.368 C 305.718 237.863,305.185 237.599,311.342 237.733 C 314.251 237.796,330.914 237.919,348.371 238.006 C 365.827 238.093,384.604 238.208,390.097 238.261 L 400.085 238.359 399.154 237.996 C 398.642 237.796,397.385 237.338,396.361 236.977 C 395.336 236.616,393.318 235.894,391.875 235.373 C 390.432 234.851,389.022 234.364,388.743 234.290 C 388.464 234.216,387.591 233.905,386.804 233.599 C 386.017 233.293,385.141 232.984,384.858 232.912 C 384.574 232.841,383.733 232.543,382.988 232.251 C 382.243 231.959,381.219 231.607,380.712 231.469 C 380.205 231.331,379.710 231.155,379.612 231.077 C 379.513 230.999,378.633 230.669,377.656 230.344 C 376.678 230.019,375.383 229.564,374.778 229.333 C 374.173 229.103,373.297 228.792,372.831 228.642 C 372.366 228.493,371.033 228.029,369.869 227.610 C 368.705 227.192,367.372 226.718,366.906 226.558 C 366.441 226.398,365.565 226.081,364.960 225.853 C 364.355 225.626,362.970 225.142,361.882 224.777 C 360.795 224.412,359.690 224.002,359.428 223.865 C 359.165 223.728,358.815 223.616,358.649 223.615 C 358.483 223.615,357.891 223.422,357.333 223.187 C 356.775 222.952,355.654 222.538,354.842 222.266 C 354.029 221.995,352.488 221.460,351.418 221.078 C 350.347 220.697,348.595 220.082,347.524 219.712 C 346.454 219.343,345.346 218.931,345.063 218.797 C 344.779 218.663,344.246 218.479,343.878 218.387 C 343.265 218.235,342.414 217.935,338.468 216.477 C 337.723 216.202,336.699 215.864,336.193 215.726 C 335.686 215.589,335.191 215.412,335.092 215.334 C 334.994 215.256,334.113 214.920,333.136 214.587 C 332.158 214.254,330.368 213.630,329.158 213.200 C 327.948 212.770,326.119 212.122,325.095 211.760 C 324.071 211.398,322.357 210.790,321.287 210.408 C 320.216 210.027,318.798 209.535,318.135 209.315 C 317.473 209.096,316.432 208.716,315.822 208.472 C 315.213 208.229,314.345 207.926,313.895 207.799 C 313.445 207.673,312.677 207.409,312.188 207.213 L 311.299 206.857 311.299 207.914 M95.385 245.747 C 94.732 246.282,94.046 246.857,93.861 247.024 C 93.254 247.573,90.829 249.569,88.783 251.206 C 87.677 252.091,86.605 252.988,86.400 253.200 C 86.196 253.412,85.756 253.793,85.423 254.046 C 84.103 255.049,78.782 259.394,78.534 259.672 C 78.388 259.834,77.855 260.303,77.349 260.713 C 76.843 261.122,75.400 262.289,74.143 263.305 C 72.886 264.321,71.688 265.309,71.481 265.500 C 70.896 266.041,67.808 268.573,65.002 270.813 C 64.490 271.222,63.957 271.690,63.817 271.853 C 63.678 272.017,61.964 273.427,60.008 274.989 C 58.053 276.550,56.335 277.960,56.189 278.123 C 56.044 278.285,55.511 278.754,55.004 279.164 C 54.498 279.574,53.055 280.740,51.799 281.755 C 50.542 282.771,49.361 283.743,49.175 283.915 C 48.529 284.513,47.806 285.110,44.947 287.407 C 43.367 288.677,41.843 289.940,41.561 290.213 C 41.280 290.486,39.488 291.962,37.579 293.494 C 35.671 295.025,33.982 296.422,33.826 296.597 C 33.671 296.772,32.071 298.101,30.272 299.551 C 28.472 301.000,26.513 302.618,25.918 303.146 C 25.323 303.673,24.694 304.204,24.521 304.326 C 24.097 304.624,24.105 304.933,24.531 304.705 C 24.710 304.609,25.643 304.254,26.605 303.915 C 27.567 303.576,28.430 303.239,28.523 303.167 C 28.616 303.095,29.148 302.905,29.706 302.743 C 30.263 302.582,30.835 302.387,30.976 302.312 C 31.449 302.057,32.881 301.481,33.042 301.481 C 33.130 301.481,34.015 301.167,35.010 300.783 C 36.004 300.399,37.579 299.797,38.510 299.444 C 39.441 299.091,40.851 298.555,41.642 298.254 C 42.433 297.952,43.652 297.500,44.350 297.248 C 47.374 296.160,49.039 295.536,49.513 295.313 C 49.793 295.182,50.250 295.021,50.529 294.954 C 50.808 294.888,51.494 294.643,52.052 294.410 C 52.611 294.177,53.639 293.777,54.338 293.522 C 57.639 292.315,59.884 291.469,60.347 291.256 C 60.626 291.128,61.045 290.970,61.278 290.905 C 61.511 290.840,62.463 290.496,63.394 290.139 C 64.325 289.783,65.925 289.178,66.949 288.794 C 67.973 288.411,69.534 287.827,70.419 287.495 C 71.303 287.164,72.446 286.737,72.958 286.547 C 73.470 286.356,74.118 286.101,74.397 285.979 C 74.676 285.858,75.438 285.575,76.090 285.352 C 77.896 284.731,80.600 283.730,81.168 283.470 C 81.447 283.343,81.981 283.142,82.353 283.024 C 82.725 282.905,83.259 282.717,83.538 282.604 C 83.817 282.491,84.465 282.243,84.977 282.053 C 87.421 281.143,89.292 280.435,91.107 279.734 C 92.198 279.312,93.145 278.967,93.213 278.967 C 93.280 278.967,94.140 278.655,95.123 278.273 C 96.106 277.891,97.672 277.292,98.603 276.941 C 101.378 275.895,103.623 275.055,104.613 274.690 C 105.125 274.502,105.772 274.249,106.052 274.128 C 106.331 274.008,107.093 273.726,107.744 273.502 C 112.458 271.881,112.512 271.847,111.723 270.988 C 111.091 270.300,108.314 266.368,106.861 264.103 C 106.282 263.201,105.540 262.070,105.211 261.589 C 104.882 261.108,104.613 260.668,104.613 260.611 C 104.613 260.554,104.318 260.034,103.957 259.454 C 102.445 257.026,99.110 250.499,97.926 247.651 C 97.444 246.492,96.653 244.773,96.602 244.774 C 96.586 244.774,96.038 245.212,95.385 245.747 M302.674 246.196 C 302.297 247.000,301.989 247.703,301.989 247.758 C 301.989 248.208,296.591 258.899,296.231 259.162 C 296.167 259.209,295.870 259.690,295.570 260.233 C 295.270 260.775,294.587 261.879,294.053 262.687 C 293.518 263.495,292.933 264.401,292.753 264.700 C 292.074 265.826,288.551 270.728,288.059 271.231 L 287.546 271.756 288.208 272.048 C 288.572 272.209,289.029 272.346,289.223 272.353 C 289.417 272.360,289.622 272.413,289.680 272.470 C 289.830 272.620,292.556 273.714,292.788 273.717 C 292.895 273.719,293.542 273.952,294.227 274.236 C 296.095 275.011,296.080 275.005,297.080 275.330 C 297.592 275.496,298.087 275.687,298.180 275.754 C 298.273 275.821,298.654 275.970,299.027 276.084 C 299.399 276.198,300.504 276.596,301.481 276.969 C 302.459 277.342,304.020 277.934,304.951 278.284 C 305.882 278.634,307.253 279.156,307.998 279.444 C 308.743 279.731,309.924 280.169,310.622 280.417 C 311.320 280.665,312.196 281.004,312.569 281.171 C 312.941 281.337,313.580 281.563,313.988 281.672 C 314.396 281.781,314.853 281.943,315.003 282.032 C 315.263 282.185,316.765 282.751,320.779 284.210 C 321.756 284.566,322.924 285.017,323.374 285.213 C 323.824 285.409,324.281 285.570,324.390 285.572 C 324.624 285.575,327.351 286.668,327.502 286.819 C 327.559 286.876,327.725 286.923,327.871 286.923 C 328.017 286.923,328.899 287.221,329.832 287.586 C 330.765 287.950,332.289 288.528,333.220 288.870 C 335.186 289.592,337.725 290.549,339.653 291.293 C 340.398 291.581,341.579 292.019,342.277 292.267 C 342.975 292.514,343.851 292.853,344.223 293.020 C 344.596 293.187,345.243 293.414,345.662 293.525 C 346.081 293.636,346.500 293.782,346.593 293.848 C 346.755 293.964,347.453 294.232,350.825 295.476 C 351.663 295.785,353.150 296.348,354.129 296.728 C 355.109 297.108,355.990 297.419,356.088 297.419 C 356.186 297.419,356.979 297.723,357.850 298.096 C 358.722 298.468,359.515 298.773,359.612 298.773 C 359.710 298.773,360.592 299.085,361.571 299.467 C 362.550 299.849,364.115 300.458,365.048 300.821 C 365.980 301.184,366.828 301.481,366.930 301.481 C 367.033 301.481,367.489 301.646,367.943 301.846 C 368.397 302.047,369.340 302.419,370.038 302.673 C 370.736 302.926,372.257 303.486,373.418 303.917 C 375.824 304.810,376.190 304.834,375.062 304.024 C 374.626 303.711,374.270 303.405,374.270 303.343 C 374.270 303.282,373.416 302.552,372.371 301.721 C 369.829 299.700,367.191 297.525,366.568 296.937 C 366.289 296.673,364.661 295.332,362.951 293.956 C 361.241 292.580,359.717 291.330,359.565 291.178 C 359.413 291.026,357.651 289.571,355.650 287.945 C 353.648 286.319,351.896 284.863,351.756 284.709 C 351.617 284.555,350.284 283.452,348.794 282.258 C 345.148 279.336,344.470 278.776,344.063 278.354 C 343.696 277.974,337.886 273.225,336.998 272.579 C 336.711 272.371,336.392 272.093,336.287 271.962 C 336.183 271.830,335.679 271.389,335.167 270.981 C 332.607 268.941,329.638 266.503,329.412 266.256 C 329.272 266.103,327.939 265.002,326.449 263.810 C 323.460 261.417,322.635 260.735,321.879 260.033 C 321.600 259.774,320.152 258.584,318.663 257.389 C 317.173 256.194,315.647 254.924,315.271 254.566 C 314.895 254.208,314.517 253.915,314.431 253.915 C 314.345 253.915,314.119 253.734,313.929 253.514 C 313.740 253.293,312.175 251.983,310.453 250.602 C 308.730 249.222,307.245 248.000,307.152 247.887 C 307.059 247.774,306.297 247.130,305.459 246.457 C 304.621 245.784,303.806 245.121,303.647 244.984 C 303.382 244.755,303.302 244.856,302.674 246.196 M117.036 277.756 C 116.859 277.881,115.277 280.589,115.277 280.767 C 115.277 280.830,115.098 281.118,114.879 281.406 C 114.661 281.694,114.202 282.449,113.860 283.083 C 113.518 283.718,113.161 284.327,113.065 284.438 C 112.970 284.548,112.567 285.209,112.169 285.908 C 111.101 287.785,109.209 290.999,108.302 292.479 C 107.864 293.194,107.450 293.893,107.382 294.033 C 107.314 294.173,106.968 294.764,106.613 295.348 C 106.258 295.931,105.967 296.455,105.967 296.511 C 105.967 296.568,105.681 297.053,105.332 297.589 C 104.983 298.126,104.488 298.935,104.233 299.388 C 103.977 299.841,103.690 300.326,103.595 300.466 C 103.500 300.605,103.059 301.367,102.614 302.158 C 102.169 302.950,101.597 303.940,101.342 304.359 C 100.539 305.681,99.677 307.128,99.276 307.829 C 99.063 308.201,98.620 308.963,98.291 309.522 C 97.961 310.080,97.411 311.033,97.069 311.638 C 96.726 312.243,96.226 313.055,95.958 313.443 C 95.691 313.830,95.472 314.191,95.472 314.244 C 95.472 314.323,93.945 316.955,92.269 319.763 C 92.074 320.089,91.200 321.574,90.325 323.064 C 89.451 324.554,88.544 326.077,88.311 326.449 C 88.077 326.822,87.640 327.584,87.339 328.142 C 87.038 328.701,86.700 329.272,86.589 329.412 C 86.333 329.732,84.977 332.117,84.977 332.246 C 84.977 332.299,84.801 332.578,84.585 332.866 C 84.370 333.154,83.905 333.923,83.551 334.575 C 83.197 335.226,82.855 335.798,82.790 335.844 C 82.725 335.891,82.402 336.424,82.071 337.029 C 81.223 338.581,80.676 339.517,78.961 342.361 C 78.624 342.920,77.750 344.405,77.020 345.662 C 76.290 346.919,75.479 348.290,75.219 348.709 C 74.959 349.128,74.566 349.814,74.346 350.233 C 74.126 350.652,73.761 351.237,73.536 351.533 C 73.311 351.830,73.127 352.103,73.127 352.141 C 73.127 352.221,71.718 354.706,71.042 355.819 C 69.843 357.790,69.403 358.584,69.471 358.652 C 69.549 358.729,73.972 355.070,75.784 353.431 C 76.361 352.908,78.189 351.349,79.847 349.965 C 81.505 348.581,83.737 346.680,84.807 345.740 C 85.878 344.801,87.973 343.015,89.463 341.772 C 90.952 340.528,92.780 338.967,93.525 338.303 C 94.270 337.638,96.327 335.885,98.096 334.407 C 99.865 332.930,101.735 331.335,102.251 330.862 C 102.768 330.390,104.558 328.865,106.229 327.472 C 107.901 326.080,110.144 324.170,111.215 323.228 C 112.285 322.287,114.342 320.535,115.785 319.336 C 117.228 318.136,119.056 316.576,119.848 315.868 C 120.639 315.161,122.467 313.599,123.910 312.397 C 125.353 311.195,127.372 309.476,128.396 308.576 C 129.420 307.676,131.828 305.617,133.747 303.999 C 135.665 302.382,138.115 300.300,139.190 299.373 L 141.145 297.688 138.664 296.040 C 135.525 293.955,132.306 291.674,132.236 291.485 C 132.206 291.405,131.825 291.083,131.389 290.769 C 128.045 288.360,123.417 284.153,118.817 279.342 C 117.924 278.409,117.122 277.695,117.036 277.756 M278.798 281.686 C 275.289 285.213,272.695 287.552,269.423 290.140 C 268.893 290.559,268.258 291.075,268.012 291.288 C 267.766 291.500,266.998 292.071,266.306 292.557 C 265.614 293.043,264.657 293.747,264.179 294.123 C 263.701 294.498,262.510 295.317,261.532 295.942 C 260.554 296.568,259.564 297.232,259.331 297.418 L 258.908 297.756 259.668 298.391 C 261.008 299.512,263.463 301.642,263.986 302.139 C 264.266 302.404,265.942 303.825,267.711 305.296 C 269.479 306.767,271.536 308.516,272.281 309.182 C 273.026 309.848,274.816 311.375,276.259 312.575 C 277.702 313.776,279.759 315.528,280.829 316.468 C 281.900 317.409,283.957 319.159,285.400 320.357 C 286.843 321.555,288.671 323.115,289.463 323.823 C 290.254 324.532,292.349 326.322,294.118 327.801 C 295.887 329.281,297.905 331.004,298.603 331.630 C 299.302 332.256,301.485 334.127,303.455 335.787 C 311.110 342.239,314.301 344.952,315.776 346.261 C 316.619 347.010,318.756 348.832,320.525 350.311 C 322.294 351.789,324.350 353.542,325.095 354.205 C 325.840 354.868,327.211 356.048,328.142 356.827 C 329.073 357.607,329.969 358.358,330.132 358.497 C 330.655 358.943,330.638 358.582,330.101 357.841 C 329.815 357.446,329.581 357.054,329.581 356.970 C 329.581 356.887,329.300 356.384,328.956 355.853 C 328.612 355.322,328.208 354.659,328.057 354.380 C 327.361 353.084,326.628 351.818,326.441 351.587 C 326.329 351.447,325.948 350.800,325.595 350.148 C 325.243 349.496,324.907 348.925,324.848 348.879 C 324.790 348.832,324.294 347.994,323.747 347.017 C 323.199 346.039,322.659 345.125,322.547 344.985 C 322.435 344.846,322.059 344.198,321.711 343.546 C 321.363 342.895,321.021 342.323,320.951 342.277 C 320.881 342.230,320.660 341.869,320.460 341.474 C 320.260 341.079,319.650 340.013,319.104 339.104 C 318.558 338.196,317.961 337.186,317.776 336.860 C 317.591 336.534,317.209 335.887,316.929 335.421 C 316.206 334.223,314.008 330.502,313.685 329.929 C 312.862 328.467,312.345 327.594,311.882 326.883 C 311.597 326.446,311.035 325.484,310.632 324.745 C 310.229 324.007,309.639 322.983,309.321 322.471 C 308.673 321.430,307.733 319.855,307.148 318.832 C 306.935 318.460,306.491 317.698,306.162 317.139 C 305.833 316.581,305.283 315.628,304.940 315.023 C 304.597 314.418,304.097 313.606,303.830 313.218 C 303.562 312.831,303.343 312.470,303.343 312.417 C 303.343 312.337,302.327 310.589,300.216 307.037 C 300.032 306.728,299.663 306.094,299.395 305.628 C 299.128 305.163,298.421 303.971,297.825 302.980 C 297.229 301.989,296.741 301.131,296.741 301.074 C 296.741 301.017,296.437 300.523,296.064 299.978 C 295.692 299.432,295.387 298.917,295.387 298.833 C 295.387 298.749,295.124 298.281,294.803 297.794 C 294.240 296.938,293.057 294.928,291.516 292.207 C 291.110 291.489,290.725 290.863,290.660 290.817 C 290.560 290.744,289.951 289.686,288.957 287.854 C 288.806 287.575,288.400 286.912,288.057 286.381 C 287.713 285.851,287.431 285.356,287.431 285.283 C 287.431 285.209,287.177 284.767,286.867 284.301 C 286.326 283.488,285.807 282.607,284.030 279.491 C 283.584 278.708,283.119 277.982,282.997 277.878 C 282.824 277.729,281.911 278.557,278.798 281.686 M147.462 302.297 C 147.276 303.164,146.879 305.359,146.630 306.898 C 146.488 307.772,146.226 309.143,144.881 316.039 C 144.581 317.575,144.281 319.289,144.214 319.848 C 144.147 320.406,143.888 321.815,143.638 322.979 C 143.389 324.143,143.109 325.590,143.017 326.196 C 142.834 327.396,141.858 332.613,140.990 337.029 C 140.689 338.565,140.371 340.317,140.286 340.923 C 140.200 341.528,139.942 342.937,139.712 344.054 C 139.482 345.171,139.219 346.581,139.127 347.186 C 139.034 347.791,138.663 349.848,138.302 351.756 C 137.940 353.665,137.328 356.940,136.941 359.035 C 136.553 361.130,135.944 364.405,135.587 366.314 C 134.322 373.076,133.574 377.104,132.963 380.449 C 132.623 382.311,132.052 385.396,131.693 387.304 C 130.427 394.053,130.369 394.457,130.793 393.652 C 130.940 393.373,131.318 392.751,131.632 392.269 C 131.947 391.788,132.205 391.324,132.205 391.238 C 132.205 391.151,132.510 390.609,132.882 390.033 C 133.254 389.457,133.559 388.947,133.559 388.900 C 133.559 388.853,134.168 387.754,134.913 386.458 C 135.658 385.162,136.267 384.028,136.267 383.938 C 136.267 383.847,136.374 383.667,136.505 383.536 C 136.635 383.406,136.955 382.886,137.214 382.382 C 137.474 381.877,137.864 381.178,138.081 380.828 C 138.297 380.477,138.749 379.678,139.085 379.050 C 139.421 378.423,139.762 377.825,139.844 377.722 C 139.926 377.620,140.193 377.162,140.438 376.707 C 140.683 376.251,141.063 375.543,141.283 375.134 C 141.503 374.725,141.751 374.306,141.833 374.203 C 141.916 374.100,142.196 373.597,142.456 373.085 C 142.717 372.573,143.073 371.945,143.250 371.688 C 143.426 371.432,143.877 370.633,144.253 369.911 C 144.628 369.190,145.042 368.479,145.172 368.332 C 145.302 368.185,145.408 368.016,145.408 367.956 C 145.408 367.896,145.980 366.852,146.678 365.637 C 147.376 364.422,147.948 363.371,147.948 363.303 C 147.948 363.234,148.200 362.798,148.508 362.334 C 148.816 361.869,149.283 361.071,149.546 360.559 C 149.809 360.047,150.166 359.446,150.340 359.224 C 150.514 359.002,150.656 358.758,150.656 358.683 C 150.656 358.607,150.914 358.103,151.230 357.563 C 152.072 356.122,154.005 352.685,154.685 351.418 C 155.010 350.813,155.417 350.136,155.590 349.914 C 155.762 349.692,155.904 349.453,155.904 349.383 C 155.904 349.260,157.876 345.741,159.032 343.800 C 159.338 343.288,159.797 342.450,160.053 341.938 C 160.309 341.426,160.571 340.969,160.636 340.923 C 160.701 340.876,161.022 340.343,161.350 339.738 C 161.678 339.132,162.503 337.647,163.184 336.437 C 163.864 335.226,164.720 333.703,165.086 333.051 C 165.451 332.399,166.075 331.295,166.472 330.597 C 169.650 325.004,170.978 322.641,171.652 321.383 C 171.948 320.830,172.362 320.107,172.573 319.775 C 172.784 319.442,173.556 318.104,174.289 316.801 C 175.022 315.497,175.737 314.228,175.877 313.980 C 176.845 312.268,176.900 312.138,176.687 312.081 C 176.568 312.049,175.138 311.702,173.508 311.310 C 171.879 310.918,169.708 310.344,168.684 310.034 C 167.660 309.724,166.555 309.394,166.229 309.299 C 165.385 309.055,161.639 307.765,161.236 307.579 C 161.050 307.494,160.516 307.276,160.051 307.095 C 159.585 306.914,158.785 306.595,158.273 306.387 C 157.761 306.178,156.885 305.822,156.327 305.597 C 155.768 305.371,154.930 305.009,154.465 304.793 C 151.583 303.452,150.202 302.794,149.979 302.656 C 149.556 302.395,147.793 301.481,147.712 301.481 C 147.671 301.481,147.558 301.848,147.462 302.297 M249.410 302.889 C 247.910 303.651,246.348 304.420,245.940 304.598 C 242.323 306.174,238.596 307.677,237.495 308.004 C 237.076 308.128,236.162 308.453,235.463 308.727 C 234.765 309.001,233.927 309.280,233.601 309.347 C 233.275 309.414,232.323 309.696,231.485 309.974 C 230.647 310.252,229.353 310.618,228.608 310.786 C 227.863 310.955,226.530 311.290,225.645 311.531 C 224.761 311.773,223.870 311.971,223.666 311.973 C 223.034 311.979,223.056 312.284,223.771 313.415 C 224.150 314.016,224.460 314.568,224.460 314.642 C 224.460 314.716,224.732 315.189,225.064 315.693 C 225.395 316.197,225.773 316.842,225.904 317.128 C 226.216 317.813,227.072 319.356,227.292 319.630 C 227.387 319.750,227.721 320.343,228.033 320.948 C 228.345 321.553,228.849 322.427,229.154 322.891 C 229.459 323.354,229.708 323.813,229.708 323.910 C 229.708 324.007,230.011 324.542,230.380 325.099 C 230.750 325.655,231.055 326.165,231.057 326.232 C 231.060 326.299,231.634 327.344,232.332 328.554 C 233.030 329.765,233.601 330.824,233.601 330.907 C 233.601 330.991,233.745 331.241,233.920 331.464 C 234.096 331.687,234.525 332.402,234.874 333.053 C 235.224 333.704,235.638 334.427,235.795 334.659 C 235.952 334.892,236.293 335.501,236.553 336.014 C 236.812 336.526,237.118 337.059,237.232 337.198 C 237.346 337.338,237.593 337.757,237.782 338.129 C 238.412 339.370,239.134 340.660,239.671 341.506 C 239.964 341.966,240.203 342.412,240.203 342.497 C 240.203 342.582,240.435 342.994,240.718 343.414 C 241.002 343.834,241.467 344.645,241.753 345.216 C 242.039 345.787,242.369 346.369,242.486 346.509 C 242.603 346.648,243.038 347.410,243.453 348.201 C 243.867 348.993,244.399 349.946,244.636 350.320 C 244.872 350.693,245.269 351.379,245.517 351.843 C 245.766 352.307,246.340 353.335,246.795 354.126 C 247.249 354.917,248.085 356.403,248.652 357.427 C 249.220 358.451,250.061 359.937,250.522 360.728 C 250.982 361.519,251.672 362.738,252.053 363.436 C 252.435 364.135,253.143 365.397,253.627 366.242 C 254.111 367.087,254.879 368.458,255.334 369.289 C 255.788 370.120,256.331 371.066,256.539 371.392 C 256.747 371.718,257.145 372.404,257.423 372.916 C 257.700 373.428,258.253 374.418,258.650 375.116 C 259.047 375.815,259.874 377.300,260.488 378.417 C 261.102 379.534,261.655 380.487,261.716 380.533 C 261.777 380.580,262.074 381.113,262.376 381.718 C 262.677 382.323,263.024 382.933,263.146 383.072 C 263.268 383.212,263.576 383.745,263.831 384.257 C 264.087 384.769,264.488 385.493,264.724 385.865 C 264.959 386.238,265.335 386.885,265.558 387.304 C 265.781 387.723,266.126 388.371,266.324 388.743 C 266.522 389.116,266.775 389.534,266.885 389.674 C 266.995 389.814,267.334 390.419,267.638 391.020 C 267.941 391.620,268.375 392.382,268.602 392.713 C 268.829 393.043,269.085 393.496,269.171 393.718 C 269.257 393.940,269.362 394.088,269.404 394.047 C 269.522 393.929,269.295 392.633,267.121 381.041 C 266.763 379.132,266.155 375.857,265.768 373.762 C 265.382 371.667,264.773 368.392,264.414 366.483 C 264.056 364.575,263.491 361.528,263.159 359.712 C 262.569 356.483,261.841 352.555,260.508 345.408 C 259.540 340.215,258.579 335.028,257.888 331.274 C 257.554 329.458,256.982 326.373,256.617 324.418 C 256.252 322.463,255.643 319.187,255.264 317.139 C 254.568 313.390,253.672 308.594,252.803 303.978 C 252.544 302.605,252.289 301.486,252.235 301.493 C 252.181 301.499,250.910 302.127,249.410 302.889 M184.342 313.508 C 184.342 313.626,184.487 314.567,184.665 315.600 C 184.843 316.633,185.266 319.154,185.605 321.202 C 185.944 323.250,186.517 326.678,186.879 328.819 C 189.250 342.852,190.181 348.378,190.856 352.433 C 192.321 361.232,192.870 364.462,193.491 367.930 C 193.859 369.982,194.160 371.849,194.161 372.077 C 194.161 372.306,194.433 373.940,194.765 375.709 C 195.098 377.478,195.429 379.420,195.500 380.025 C 195.572 380.631,195.914 382.725,196.259 384.680 C 196.952 388.599,197.953 394.561,198.207 396.276 C 198.296 396.881,198.593 398.595,198.867 400.085 C 199.141 401.574,199.455 403.474,199.565 404.306 C 199.675 405.138,199.827 405.930,199.902 406.065 C 200.047 406.322,200.060 406.255,201.253 399.154 C 201.621 396.966,202.237 393.309,202.622 391.028 C 204.396 380.518,204.674 378.865,205.247 375.370 C 205.583 373.322,206.159 369.970,206.528 367.922 C 206.896 365.874,207.195 364.046,207.192 363.860 C 207.187 363.526,208.015 358.648,209.147 352.349 C 209.465 350.580,209.768 348.790,209.819 348.371 C 209.871 347.952,210.222 345.781,210.600 343.546 C 210.977 341.312,211.542 337.960,211.854 336.098 C 212.167 334.236,212.663 331.342,212.957 329.666 C 213.250 327.990,213.564 326.085,213.655 325.434 C 213.746 324.782,214.113 322.573,214.471 320.525 C 214.830 318.477,215.211 316.191,215.319 315.446 C 215.426 314.702,215.558 313.910,215.611 313.687 C 215.696 313.328,215.661 313.293,215.302 313.382 C 214.621 313.550,209.278 314.158,206.864 314.342 C 203.911 314.567,196.048 314.565,193.136 314.338 C 190.682 314.147,185.345 313.545,184.723 313.389 C 184.478 313.328,184.342 313.370,184.342 313.508 " stroke="none" fill="#fcdc14" fill-rule="evenodd"></path><path id="path1" d="" stroke="none" fill="#100dc14" fill-rule="evenodd"></path><path id="path2" d="" stroke="none" fill="#100dc14" fill-rule="evenodd"></path><path id="path3" d="" stroke="none" fill="#100dc14" fill-rule="evenodd"></path><path id="path4" d="" stroke="none" fill="#100dc14" fill-rule="evenodd"></path></g></svg>