<svg xmlns="http://www.w3.org/2000/svg" viewBox="0 0 503 160"><defs><style>.cls-1{fill:#ffdea2;}.cls-2{fill:#fcf05d;}.cls-11,.cls-3,.cls-5,.cls-7,.cls-9{fill:none;}.cls-10,.cls-11,.cls-12,.cls-3,.cls-4,.cls-5,.cls-6,.cls-7,.cls-8,.cls-9{stroke:#f7941d;stroke-miterlimit:10;}.cls-3{stroke-width:1.34px;}.cls-10,.cls-12,.cls-4,.cls-6,.cls-8{fill:#fed623;}.cls-4{stroke-width:0.88px;}.cls-5{stroke-width:0.79px;}.cls-6{stroke-width:0.52px;}.cls-7{stroke-width:1.74px;}.cls-8{stroke-width:1.14px;}.cls-9{stroke-width:0.94px;}.cls-10{stroke-width:0.61px;}.cls-11{stroke-width:1.49px;}.cls-12{stroke-width:0.97px;}</style></defs><g id="Layer_9" data-name="Layer 9"><rect class="cls-1" width="503" height="159.12"/><path class="cls-2" d="M214.81,97.38c0,3.17-8.54,5-9.47,7.82s4.86,9.42,3.06,11.89-9.76-1.06-12.26.75-1.53,10.47-4.5,11.43-7.19-6.6-10.36-6.6-7.5,7.53-10.36,6.6-2-9.63-4.5-11.43-10.45,1.74-12.26-.75,4-8.92,3.06-11.89-9.46-4.65-9.46-7.82,8.53-5,9.46-7.82-4.86-9.42-3.06-11.89,9.76,1.06,12.26-.75,1.53-10.47,4.5-11.43,7.19,6.6,10.36,6.6,7.5-7.53,10.36-6.6,2,9.63,4.5,11.43,10.45-1.74,12.26.75-4,8.93-3.06,11.89S214.81,94.21,214.81,97.38Z"/><path class="cls-3" d="M214.81,97.38c0,3.17-8.54,5-9.47,7.82s4.86,9.42,3.06,11.89-9.76-1.06-12.26.75-1.53,10.47-4.5,11.43-7.19-6.6-10.36-6.6-7.5,7.53-10.36,6.6-2-9.63-4.5-11.43-10.45,1.74-12.26-.75,4-8.92,3.06-11.89-9.46-4.65-9.46-7.82,8.53-5,9.46-7.82-4.86-9.42-3.06-11.89,9.76,1.06,12.26-.75,1.53-10.47,4.5-11.43,7.19,6.6,10.36,6.6,7.5-7.53,10.36-6.6,2,9.63,4.5,11.43,10.45-1.74,12.26.75-4,8.93-3.06,11.89S214.81,94.21,214.81,97.38Z"/><circle class="cls-4" cx="181.28" cy="97.38" r="20"/><path class="cls-2" d="M120.45,93.14c0,1.87-5,2.92-5.59,4.61s2.87,5.56,1.81,7-5.76-.63-7.23.44-.91,6.18-2.66,6.75-4.24-3.9-6.11-3.9-4.43,4.44-6.12,3.9-1.2-5.69-2.65-6.75-6.17,1-7.24-.44,2.38-5.27,1.81-7S80.89,95,80.89,93.14s5-2.93,5.58-4.62-2.87-5.55-1.81-7,5.76.62,7.24-.45.9-6.17,2.65-6.74,4.24,3.9,6.12,3.9,4.42-4.45,6.11-3.9,1.2,5.68,2.66,6.74,6.16-1,7.23.45-2.38,5.26-1.81,7S120.45,91.27,120.45,93.14Z"/><path class="cls-5" d="M120.45,93.14c0,1.87-5,2.92-5.59,4.61s2.87,5.56,1.81,7-5.76-.63-7.23.44-.91,6.18-2.66,6.75-4.24-3.9-6.11-3.9-4.43,4.44-6.12,3.9-1.2-5.69-2.65-6.75-6.17,1-7.24-.44,2.38-5.27,1.81-7S80.89,95,80.89,93.14s5-2.93,5.58-4.62-2.87-5.55-1.81-7,5.76.62,7.24-.45.9-6.17,2.65-6.74,4.24,3.9,6.12,3.9,4.42-4.45,6.11-3.9,1.2,5.68,2.66,6.74,6.16-1,7.23.45-2.38,5.26-1.81,7S120.45,91.27,120.45,93.14Z"/><circle class="cls-6" cx="100.67" cy="93.14" r="11.8"/><path class="cls-2" d="M115.66,155.07c0,3.17-8.54,5-9.47,7.82s4.86,9.42,3.06,11.89-9.76-1.06-12.25.76S95.46,186,92.49,187s-7.18-6.6-10.36-6.6-7.5,7.53-10.36,6.6-2-9.63-4.5-11.42-10.44,1.73-12.26-.76,4-8.92,3.06-11.89-9.46-4.65-9.46-7.82,8.53-4.95,9.46-7.82-4.86-9.42-3.06-11.89,9.77,1.06,12.26-.75,1.53-10.47,4.5-11.43,7.19,6.6,10.36,6.6,7.5-7.53,10.36-6.6,2,9.63,4.51,11.43,10.44-1.74,12.25.75-4,8.93-3.06,11.89S115.66,151.9,115.66,155.07Z"/><path class="cls-3" d="M115.66,155.07c0,3.17-8.54,5-9.47,7.82s4.86,9.42,3.06,11.89-9.76-1.06-12.25.76S95.46,186,92.49,187s-7.18-6.6-10.36-6.6-7.5,7.53-10.36,6.6-2-9.63-4.5-11.42-10.44,1.73-12.26-.76,4-8.92,3.06-11.89-9.46-4.65-9.46-7.82,8.53-4.95,9.46-7.82-4.86-9.42-3.06-11.89,9.77,1.06,12.26-.75,1.53-10.47,4.5-11.43,7.19,6.6,10.36,6.6,7.5-7.53,10.36-6.6,2,9.63,4.51,11.43,10.44-1.74,12.25.75-4,8.93-3.06,11.89S115.66,151.9,115.66,155.07Z"/><circle class="cls-4" cx="82.13" cy="155.07" r="20"/><path class="cls-2" d="M63.12,87c0,4.1-11,6.41-12.24,10.11s6.28,12.19,4,15.39-12.63-1.37-15.86,1S37,127,33.15,128.28s-9.3-8.54-13.4-8.54S10,129.48,6.34,128.28,3.71,115.82.52,113.5s-13.52,2.25-15.86-1,5.2-11.55,4-15.39-12.25-6-12.25-10.11,11-6.41,12.25-10.12-6.29-12.19-4-15.38,12.63,1.37,15.86-1S2.5,47,6.34,45.76s9.3,8.54,13.41,8.54,9.7-9.75,13.4-8.54S35.78,58.22,39,60.54s13.51-2.25,15.86,1-5.21,11.54-4,15.38S63.12,82.91,63.12,87Z"/><path class="cls-7" d="M63.12,87c0,4.1-11,6.41-12.24,10.11s6.28,12.19,4,15.39-12.63-1.37-15.86,1S37,127,33.15,128.28s-9.3-8.54-13.4-8.54S10,129.48,6.34,128.28,3.71,115.82.52,113.5s-13.52,2.25-15.86-1,5.2-11.55,4-15.39-12.25-6-12.25-10.11,11-6.41,12.25-10.12-6.29-12.19-4-15.38,12.63,1.37,15.86-1S2.5,47,6.34,45.76s9.3,8.54,13.41,8.54,9.7-9.75,13.4-8.54S35.78,58.22,39,60.54s13.51-2.25,15.86,1-5.21,11.54-4,15.38S63.12,82.91,63.12,87Z"/><circle class="cls-8" cx="19.75" cy="87.02" r="25.88"/><path class="cls-2" d="M266,135.07c0,2.22-6,3.46-6.62,5.47s3.4,6.58,2.14,8.31-6.83-.74-8.57.53-1.08,7.31-3.15,8-5-4.62-7.25-4.62-5.24,5.27-7.24,4.62-1.42-6.74-3.15-8-7.3,1.21-8.57-.53,2.82-6.24,2.14-8.31-6.62-3.25-6.62-5.47,6-3.47,6.62-5.47-3.4-6.59-2.14-8.31,6.83.74,8.57-.53,1.08-7.32,3.15-8,5,4.62,7.24,4.62,5.25-5.27,7.25-4.62,1.42,6.73,3.15,8,7.3-1.22,8.57.53-2.82,6.24-2.14,8.31S266,132.85,266,135.07Z"/><path class="cls-9" d="M266,135.07c0,2.22-6,3.46-6.62,5.47s3.4,6.58,2.14,8.31-6.83-.74-8.57.53-1.08,7.31-3.15,8-5-4.62-7.25-4.62-5.24,5.27-7.24,4.62-1.42-6.74-3.15-8-7.3,1.21-8.57-.53,2.82-6.24,2.14-8.31-6.62-3.25-6.62-5.47,6-3.47,6.62-5.47-3.4-6.59-2.14-8.31,6.83.74,8.57-.53,1.08-7.32,3.15-8,5,4.62,7.24,4.62,5.25-5.27,7.25-4.62,1.42,6.73,3.15,8,7.3-1.22,8.57.53-2.82,6.24-2.14,8.31S266,132.85,266,135.07Z"/><circle class="cls-10" cx="242.54" cy="135.07" r="13.99"/><path class="cls-2" d="M375.55,149.05c0,2.22-6,3.47-6.62,5.47s3.4,6.59,2.14,8.32-6.82-.75-8.57.52-1.07,7.32-3.15,8-5-4.61-7.24-4.61-5.24,5.26-7.25,4.61-1.42-6.73-3.14-8-7.31,1.22-8.57-.52,2.81-6.24,2.14-8.32-6.62-3.25-6.62-5.47,6-3.46,6.62-5.46-3.4-6.59-2.14-8.32,6.82.75,8.57-.52,1.07-7.32,3.14-8,5,4.61,7.25,4.61,5.24-5.26,7.24-4.61,1.43,6.73,3.15,8,7.3-1.22,8.57.52-2.81,6.24-2.14,8.32S375.55,146.84,375.55,149.05Z"/><path class="cls-9" d="M375.55,149.05c0,2.22-6,3.47-6.62,5.47s3.4,6.59,2.14,8.32-6.82-.75-8.57.52-1.07,7.32-3.15,8-5-4.61-7.24-4.61-5.24,5.26-7.25,4.61-1.42-6.73-3.14-8-7.31,1.22-8.57-.52,2.81-6.24,2.14-8.32-6.62-3.25-6.62-5.47,6-3.46,6.62-5.46-3.4-6.59-2.14-8.32,6.82.75,8.57-.52,1.07-7.32,3.14-8,5,4.61,7.25,4.61,5.24-5.26,7.24-4.61,1.43,6.73,3.15,8,7.3-1.22,8.57.52-2.81,6.24-2.14,8.32S375.55,146.84,375.55,149.05Z"/><circle class="cls-10" cx="352.11" cy="149.05" r="13.99"/><path class="cls-2" d="M446.6,20.35c0,3.52-9.45,5.5-10.48,8.67s5.38,10.44,3.39,13.17S428.69,41,425.93,43s-1.71,11.6-5,12.66-8-7.31-11.49-7.31-8.31,8.34-11.48,7.31S395.72,45,393,43,381.41,45,379.4,42.19s4.46-9.88,3.39-13.17-10.49-5.15-10.49-8.67,9.46-5.49,10.49-8.66S377.41,1.25,379.4-1.49,390.22-.31,393-2.32s1.71-11.6,5-12.67,8,7.32,11.48,7.32S417.76-16,420.94-15s2.25,10.68,5,12.67,11.57-1.93,13.58.83-4.46,9.89-3.39,13.18S446.6,16.84,446.6,20.35Z"/><path class="cls-11" d="M446.6,20.35c0,3.52-9.45,5.5-10.48,8.67s5.38,10.44,3.39,13.17S428.69,41,425.93,43s-1.71,11.6-5,12.66-8-7.31-11.49-7.31-8.31,8.34-11.48,7.31S395.72,45,393,43,381.41,45,379.4,42.19s4.46-9.88,3.39-13.17-10.49-5.15-10.49-8.67,9.46-5.49,10.49-8.66S377.41,1.25,379.4-1.49,390.22-.31,393-2.32s1.71-11.6,5-12.67,8,7.32,11.48,7.32S417.76-16,420.94-15s2.25,10.68,5,12.67,11.57-1.93,13.58.83-4.46,9.89-3.39,13.18S446.6,16.84,446.6,20.35Z"/><circle class="cls-12" cx="409.45" cy="20.35" r="22.17"/><path class="cls-2" d="M468.77,108.14c0,3.52-9.46,5.49-10.49,8.67s5.39,10.44,3.4,13.17-10.82-1.17-13.59.84-1.7,11.6-5,12.66-8-7.31-11.48-7.31-8.31,8.34-11.48,7.31-2.25-10.67-5-12.66-11.57,1.93-13.58-.84,4.46-9.89,3.39-13.17-10.49-5.15-10.49-8.67,9.46-5.49,10.49-8.66S399.57,89,401.57,86.3s10.82,1.18,13.58-.83,1.7-11.6,5-12.67,8,7.32,11.48,7.32,8.31-8.35,11.48-7.32,2.25,10.67,5,12.67,11.57-1.93,13.59.83-4.47,9.89-3.4,13.18S468.77,104.63,468.77,108.14Z"/><path class="cls-11" d="M468.77,108.14c0,3.52-9.46,5.49-10.49,8.67s5.39,10.44,3.4,13.17-10.82-1.17-13.59.84-1.7,11.6-5,12.66-8-7.31-11.48-7.31-8.31,8.34-11.48,7.31-2.25-10.67-5-12.66-11.57,1.93-13.58-.84,4.46-9.89,3.39-13.17-10.49-5.15-10.49-8.67,9.46-5.49,10.49-8.66S399.57,89,401.57,86.3s10.82,1.18,13.58-.83,1.7-11.6,5-12.67,8,7.32,11.48,7.32,8.31-8.35,11.48-7.32,2.25,10.67,5,12.67,11.57-1.93,13.59.83-4.47,9.89-3.4,13.18S468.77,104.63,468.77,108.14Z"/><circle class="cls-12" cx="431.62" cy="108.14" r="22.17"/><path class="cls-2" d="M487.65,54.43c0,2.21-6,3.46-6.62,5.46s3.4,6.59,2.14,8.32-6.83-.74-8.57.53-1.07,7.31-3.15,8-5-4.62-7.24-4.62S459,77.38,457,76.73s-1.42-6.74-3.14-8-7.31,1.21-8.58-.53,2.82-6.24,2.15-8.32-6.62-3.25-6.62-5.46,6-3.47,6.62-5.47-3.4-6.59-2.15-8.31,6.83.74,8.58-.53,1.07-7.32,3.14-8,5,4.61,7.25,4.61,5.24-5.26,7.24-4.61,1.42,6.73,3.15,8,7.3-1.22,8.57.53S480.36,46.89,481,49,487.65,52.21,487.65,54.43Z"/><path class="cls-9" d="M487.65,54.43c0,2.21-6,3.46-6.62,5.46s3.4,6.59,2.14,8.32-6.83-.74-8.57.53-1.07,7.31-3.15,8-5-4.62-7.24-4.62S459,77.38,457,76.73s-1.42-6.74-3.14-8-7.31,1.21-8.58-.53,2.82-6.24,2.15-8.32-6.62-3.25-6.62-5.46,6-3.47,6.62-5.47-3.4-6.59-2.15-8.31,6.83.74,8.58-.53,1.07-7.32,3.14-8,5,4.61,7.25,4.61,5.24-5.26,7.24-4.61,1.42,6.73,3.15,8,7.3-1.22,8.57.53S480.36,46.89,481,49,487.65,52.21,487.65,54.43Z"/><circle class="cls-10" cx="464.21" cy="54.43" r="13.99"/><path class="cls-2" d="M513.32,143.31c0,2.22-6,3.47-6.62,5.47s3.4,6.58,2.14,8.31-6.83-.74-8.57.53-1.08,7.31-3.15,8-5-4.62-7.24-4.62-5.25,5.27-7.25,4.62-1.42-6.74-3.15-8-7.3,1.21-8.57-.53,2.82-6.24,2.14-8.31-6.62-3.25-6.62-5.47,6-3.47,6.62-5.47-3.4-6.58-2.14-8.31,6.83.74,8.57-.53,1.08-7.32,3.15-8,5,4.62,7.25,4.62,5.24-5.27,7.24-4.62,1.42,6.73,3.15,8,7.3-1.21,8.57.53-2.82,6.24-2.14,8.31S513.32,141.09,513.32,143.31Z"/><path class="cls-9" d="M513.32,143.31c0,2.22-6,3.47-6.62,5.47s3.4,6.58,2.14,8.31-6.83-.74-8.57.53-1.08,7.31-3.15,8-5-4.62-7.24-4.62-5.25,5.27-7.25,4.62-1.42-6.74-3.15-8-7.3,1.21-8.57-.53,2.82-6.24,2.14-8.31-6.62-3.25-6.62-5.47,6-3.47,6.62-5.47-3.4-6.58-2.14-8.31,6.83.74,8.57-.53,1.08-7.32,3.15-8,5,4.62,7.25,4.62,5.24-5.27,7.24-4.62,1.42,6.73,3.15,8,7.3-1.21,8.57.53-2.82,6.24-2.14,8.31S513.32,141.09,513.32,143.31Z"/><circle class="cls-10" cx="489.88" cy="143.31" r="13.99"/></g></svg>