<svg xmlns="http://www.w3.org/2000/svg" viewBox="0 0 107.08 88"><defs><style>.cls-1{fill:#fcf05d;}.cls-2{fill:none;stroke-width:1.74px;}.cls-2,.cls-3{stroke:#f7941d;stroke-miterlimit:10;}.cls-3{fill:#fed623;stroke-width:1.14px;}</style></defs><g id="Layer_12" data-name="Layer 12"><path class="cls-1" d="M96.92,44c0,4.11-11,6.41-12.25,10.12s6.29,12.19,4,15.38-12.63-1.37-15.86,1S70.78,84,67,85.26s-9.31-8.54-13.41-8.54-9.7,9.75-13.41,8.54S37.5,72.81,34.31,70.48s-13.51,2.25-15.86-1,5.21-11.54,4-15.38S10.16,48.11,10.16,44s11.05-6.41,12.25-10.11-6.29-12.19-4-15.39,12.63,1.37,15.86-1S36.29,4,40.13,2.74s9.3,8.54,13.41,8.54S63.24,1.54,67,2.74s2.63,12.46,5.82,14.78,13.51-2.24,15.86,1-5.21,11.55-4,15.39S96.92,39.9,96.92,44Z"/><path class="cls-2" d="M96.92,44c0,4.11-11,6.41-12.25,10.12s6.29,12.19,4,15.38-12.63-1.37-15.86,1S70.78,84,67,85.26s-9.31-8.54-13.41-8.54-9.7,9.75-13.41,8.54S37.5,72.81,34.31,70.48s-13.51,2.25-15.86-1,5.21-11.54,4-15.38S10.16,48.11,10.16,44s11.05-6.41,12.25-10.11-6.29-12.19-4-15.39,12.63,1.37,15.86-1S36.29,4,40.13,2.74s9.3,8.54,13.41,8.54S63.24,1.54,67,2.74s2.63,12.46,5.82,14.78,13.51-2.24,15.86,1-5.21,11.55-4,15.39S96.92,39.9,96.92,44Z"/><circle class="cls-3" cx="53.54" cy="44" r="25.88"/></g></svg>