<svg xmlns="http://www.w3.org/2000/svg" viewBox="0 0 750.28 841.89"><defs><style>.cls-1{fill:none;stroke:#231f20;stroke-miterlimit:10;stroke-width:11.62px;}.cls-2{fill:#0c090e;}.cls-3{fill:#271c32;}.cls-4{fill:#febb20;}.cls-5{fill:#b59530;}.cls-6{fill:#f9f9f9;}.cls-7{fill:#271d33;}.cls-8{fill:#afafb0;}.cls-9{fill:#fbfbfb;}.cls-10{fill:#f2f1f1;}.cls-11{fill:#352744;}.cls-12{fill:#7c5c9c;}.cls-13{fill:#8362a8;}.cls-14{fill:#5c4578;}.cls-15{fill:#c7c7c7;}.cls-16{fill:#76579a;}.cls-17{fill:#06030a;}</style></defs><g id="Layer_19" data-name="Layer 19"><rect class="cls-1" x="49.16" y="50.87" width="652.24" height="743.72"/><path class="cls-2" d="M744.76,753.34c-.69,2.14-1,4.39-1.79,6.5a35.9,35.9,0,0,1-7.38,11.5c-6,6.35-12.52,12-20.48,15.83a45.24,45.24,0,0,1-17,4.38,1.54,1.54,0,0,0-1.39.73,40.6,40.6,0,0,1-3.86,5.19,1.71,1.71,0,0,0-.26,2,37,37,0,0,1,1.94,16.75c-.59,5.75-4.58,9.64-10.64,11a29.38,29.38,0,0,1-6.4.89c-.25,0-.58-.12-.72.25H665.51c-1.68-.55-3.47-.45-5.19-.83-3.93-.85-7.83-2-9.87-5.73-1.25-2.27-2.67-2.7-4.92-2.56a2.94,2.94,0,0,0-2.68,1.43c-2.12,3.21-5.44,4.66-9.05,5.4-6.46,1.31-13,1.16-19.53.64a24.92,24.92,0,0,1-7.9-1.78,11.84,11.84,0,0,1-7.67-10.5,38.91,38.91,0,0,1,1.77-15.68A1.6,1.6,0,0,0,600,797a58.38,58.38,0,0,1-10.66-19.85,59.83,59.83,0,0,1-2.3-24.77c.48-4.29,1.75-8.39,2.7-12.57,1.13-5,1.17-10-3.08-14a54.61,54.61,0,0,1-5.46-5.91c-3.16-4-3.34-8.14-1-12.56a47.16,47.16,0,0,1,5.1-7.55c3.39-4.22,4-8.87,2.84-14a45,45,0,0,1-1.34-8.74c-.21-6.15,3.13-8.79,7.3-10.37a37.18,37.18,0,0,1,7.14-1.94,18.68,18.68,0,0,0,13-8.72,29.87,29.87,0,0,1,4.18-4.95c3.92-3.81,8.35-5,13.47-2.65,2.67,1.21,5.34,2.42,8,3.67a14.8,14.8,0,0,0,13,0c3.1-1.4,6.1-3,9.3-4.2,4.3-1.6,8-.51,11.33,2.28a30.59,30.59,0,0,1,5.72,6.42,18,18,0,0,0,12,7.84,41.85,41.85,0,0,1,8.59,2.45c4.77,2.08,6.78,5.56,6.33,10.71-.29,3.37-1.09,6.65-1.67,10a13.62,13.62,0,0,0,2.07,10.7,96.8,96.8,0,0,1,5.52,8.13c1.83,3.3,2.92,6.69,1.31,10.44a14.39,14.39,0,0,1-2.48,3.89c-1.75,2-3.63,3.82-5.45,5.72a1.55,1.55,0,0,1,.58-1.35c1.67-1.83,3.35-3.65,5-5.54,2.18-2.55,3.24-5.38,1.68-8.65-.61-1.29-1.35-2.51-2-3.77-.23.35.08.88-.38,1.15-1.8-3.09-4-5.91-6-8.87a15.74,15.74,0,0,1-2.33-12.12c.52-2.91,1.3-5.78,1.53-8.74.29-2.31.46-4.59-1.07-6.6-1-1.7-2.72-2.38-4.43-3a61.13,61.13,0,0,0-8.29-2.24,18.77,18.77,0,0,1-11.42-7.22,39.76,39.76,0,0,0-6.37-7.35c-2.75-2.29-5.72-3-9.17-1.65-2.62,1-5.16,2.28-7.68,3.53a18.19,18.19,0,0,1-17.07.06,81.6,81.6,0,0,0-8.08-3.67,8.06,8.06,0,0,0-8.1,1.25,26.15,26.15,0,0,0-5.6,6.14c-3.19,4.63-7.21,8-12.88,9.14a47.75,47.75,0,0,0-9.21,2.58,7,7,0,0,0-4.68,7.14c.13,4.26,1.36,8.34,1.93,12.52V693c-.13.55-.26,1.09-.4,1.63-.77,3-2.63,5.48-4.41,8a40.93,40.93,0,0,0-4.45,7,7.79,7.79,0,0,0,.81,8.25,38,38,0,0,0,4.72,5.25c3.08,2.91,5.24,6.25,5.33,10.65l0,3.48,0,1.16v4.78l0,.59,0,.8c-.12.8-.47-1-.6.06a6.94,6.94,0,0,0,4.52,6.61,12.06,12.06,0,0,0,4.47.43,37.61,37.61,0,0,1,9.83,0,15.27,15.27,0,0,1,7.25,3.15c6.33,5,13,9.29,20.75,11.65a20.52,20.52,0,0,0,11.23.43A52.08,52.08,0,0,0,669.57,757a15.8,15.8,0,0,1,7-3.42A8.15,8.15,0,0,0,679,753c3.55-1.93,7.31-1.28,11-1.08.39,0,.62.18.66.58-2.15.08-4.3.14-6.45.25a9.83,9.83,0,0,0-4.55,1.22c-1.39.17-2.78.36-4.18.5a2.13,2.13,0,0,0-1.22.64A67.27,67.27,0,0,1,657.21,766c-7.64,3.4-15.2,3.79-22.9.17a68,68,0,0,1-16.47-10.84c-.41-.37-.73-.82-1.39-.89-1.12-.1-2.23-.31-3.34-.48a10,10,0,0,0-4.5-1.15l-3.55-.11c-1.88-.07-3.76-.1-5.63-.23-4.21-.3-7.6-1.79-8.86-6.27a1.66,1.66,0,0,0-.23-.38,61.88,61.88,0,0,0-1.52,17.39,1,1,0,0,0,.15.88l0,.56c-.78-.14-.42-1.07-1-1.41a12.64,12.64,0,0,0,.2,3.32,50.71,50.71,0,0,0,2.71,11.88,59.68,59.68,0,0,0,9.37,17.24c.78,1,1.09.92,1.54-.1a15.4,15.4,0,0,1,2.61-3.65,14.89,14.89,0,0,1,8.8-4.26l4.06,0a1.49,1.49,0,0,0,.39.17,41.52,41.52,0,0,1,14.77,4.85c5.55,3,9.94,7.07,11.95,13.29.49,1.53.59,3.13.93,4.68l0,2.62a.64.64,0,0,0,0,.83.32.32,0,0,0,0,.09,1.09,1.09,0,0,0,.05.17l-.6,2.11c-.33.54-.35,1.53-.07,1.57a13.76,13.76,0,0,0,3.57,0c.46-.06.13-.62,0-.95a4.13,4.13,0,0,0-.27-1.84l0-4.06a1.56,1.56,0,0,0,.15-.39,19.92,19.92,0,0,1,7.87-13.69,39.87,39.87,0,0,1,17.64-7.74c4.63-.91,9.19-.68,13.26,2.19a20.45,20.45,0,0,1,4.29,4.62c.2.65.32,1.29,1.09.34a62.84,62.84,0,0,0,8.89-15,58.8,58.8,0,0,0,4.4-22.5,46.22,46.22,0,0,0-1.11-11,38.48,38.48,0,0,0-1.9-6.89,16,16,0,0,1-.26,3.56,7.63,7.63,0,0,1-1.65,4.48c-.73-.67.1-1.2.22-1.75a61.7,61.7,0,0,0,1.13-11.74,9.68,9.68,0,0,1,.6-4c-.88,4.31.86,8.18,2,12.16a59.7,59.7,0,0,1,1.72,21.5,67.64,67.64,0,0,1-1.37,8.32,49.42,49.42,0,0,0,8.36-3.5,31.58,31.58,0,0,0,14.09-13.51c2.91-5.59,2.4-11.28-.08-16.9A92.36,92.36,0,0,0,721,728.61a12.16,12.16,0,0,1-2.09-4.4c-.28-1.73.45-2.73,2.18-3.16a8,8,0,0,1,6.1.9A36.75,36.75,0,0,1,741.9,738a25.66,25.66,0,0,1,2.62,9.08c0,.1.16.19.24.28ZM651.9,806.83h0a1,1,0,0,0-.31.86l0,0a15,15,0,0,0-.8,8,9.41,9.41,0,0,0,2.18,5.46c.35-3.66,1.92-6,4.74-7.13a7.52,7.52,0,0,1,8.25,1.58,1,1,0,0,0,1.44.1,6.92,6.92,0,0,1,7.26-.34c1.49.85,2.25.83,3.58-.4,2.74-2.52,5.87-2.37,9.89-.06a9.67,9.67,0,0,1,2.57,4.89,9.32,9.32,0,0,0,1.35-4.4v-4.77A29,29,0,0,0,690,799.81c-1-2.41-2.24-4.68-4.64-6a9.42,9.42,0,0,0-6.52-2.19c-7.22,0-13.69,2.51-19.64,6.42a17.88,17.88,0,0,0-7.25,8.57A.4.4,0,0,0,651.9,806.83Zm-32.23,17.54a19.85,19.85,0,0,0,3.93,0c2.3-.25,2.87-.84,2.76-2.82l0-.51-.16-.33a4.89,4.89,0,0,0-4.45-3.65,5.09,5.09,0,0,0-5.07,3.08c-.43,1.13-.82,2.33.19,3.41A3.45,3.45,0,0,0,619.67,824.37Zm59.63-1c2.22.69,4.24-.22,6.24-.9,2.85-1,3.24-2.37,1.5-4.84a8.23,8.23,0,0,0-.85-.91,5,5,0,0,0-5.91-.18c-1.65,1.06-1.9,1.71-1.26,4.36C679.22,821.7,678.64,822.58,679.3,823.33Zm-50.56-3.47a7.65,7.65,0,0,1,.23,2.65c-.12.88.35,1.07,1.06,1.06a14.73,14.73,0,0,0,6.88-1.8,1.87,1.87,0,0,0,1-2.38,4.87,4.87,0,0,0-6.08-3.52,3.85,3.85,0,0,0-2.32,1.2C628.69,817.82,627.88,818.64,628.74,819.86Zm115.17-66.81a27.89,27.89,0,0,0-1.69,3.08c-.43.68-.42,1.68-1.37,2a23.49,23.49,0,0,0,.95-12.1c-1.57-8-6-14.24-12.12-19.35-2.11-1.74-4.31-3.42-7.28-3.36a.75.75,0,0,0-1-.71c-.42.1-.41.56-.42,1a4.78,4.78,0,0,0,.47,2.45c1.84,3.59,4.37,6.76,6.07,10.45,1.45,3.13,2.74,6.22,2.83,9.75.08,3.8-1.07,7.29-2.28,10.8-.54,1.57-1.61,2.94-1.93,4.7l1.18-.15a32.19,32.19,0,0,1-5.25,5.69c-4.85,4.37-10.7,6.88-16.78,9-.51.17-1.1.18-1.31.88a71.85,71.85,0,0,1-5,11.88c-.07,1.09.82.58,1.14.53a72.38,72.38,0,0,0,7.19-1.21c10.26-2.45,18.27-8.59,25.55-15.86,1.63-1.62,3-3.46,4.62-5.13,3.82-4,5.59-8.93,6.48-14.27l.21-.31-.11-.08Zm-110.7,60c3.91.33,6.36,2.45,7.42,6.29a7.25,7.25,0,0,0,1.65-3.58c1.4-7.55-1.1-13.62-7.13-18.27A11.69,11.69,0,0,0,631,795a7,7,0,0,0-1-.72c-4.54-2.14-9.24-3.83-14.3-4s-9,1.82-11.43,6.35a27.3,27.3,0,0,0-2.9,11.09c-.18,2.74-.51,5.49.27,8.2a6.67,6.67,0,0,0,1.56,3.36,7.87,7.87,0,0,1,2.73-4.29,7.72,7.72,0,0,1,10,.44c.38.32.61.77,1.28.35a7.51,7.51,0,0,1,9,.34c.47.34.65.23,1-.17A7.93,7.93,0,0,1,633.21,813Zm38.2,11.48a21.2,21.2,0,0,0,3.34-.32,2.18,2.18,0,0,0,1.77-2.6,5.1,5.1,0,0,0-4.91-4.55,5.18,5.18,0,0,0-5.21,4.06c-.38,1.94.45,3.07,2.45,3.28C669.69,824.47,670.54,824.47,671.41,824.51ZM614,823.8a6.58,6.58,0,0,1,.48-5,.92.92,0,0,0-.11-1.23,5.15,5.15,0,0,0-8.49,1.56c-.56,1.52-.27,2.47,1.16,3.15A14.19,14.19,0,0,0,614,823.8Zm50.08,0a6.74,6.74,0,0,1,.44-5c.26-.55.35-.92-.14-1.34a5.17,5.17,0,0,0-4.9-1.4,4.79,4.79,0,0,0-3.72,3.77,1.72,1.72,0,0,0,.8,2.06A13.91,13.91,0,0,0,664.08,823.84Z"/><path class="cls-3" d="M710.23,708.33c.46-.27.15-.8.38-1.15.69,1.26,1.43,2.48,2,3.77,1.56,3.27.5,6.1-1.68,8.65-1.61,1.89-3.29,3.71-5,5.54a1.55,1.55,0,0,0-.58,1.35l-1.12,1.38c-.72.08-.81.61-.83,1.19l0,0c-.33.1-.35.34-.29.62l0,0c-.49.14-.36.53-.35.87l0,0c-.55.28-.3.77-.3,1.19h0a9.68,9.68,0,0,0-.6,4,61.7,61.7,0,0,1-1.13,11.74c-.12.55-.95,1.08-.22,1.75-2,2.65-4.94,3.22-8,3.32a.68.68,0,0,0-1.12,0l-.84,0c0-.4-.27-.56-.66-.58-3.73-.2-7.49-.85-11,1.08a8.15,8.15,0,0,1-2.45.6,15.8,15.8,0,0,0-7,3.42,52.08,52.08,0,0,1-19.33,9.85,20.52,20.52,0,0,1-11.23-.43c-7.79-2.36-14.42-6.66-20.75-11.65a15.27,15.27,0,0,0-7.25-3.15,37.61,37.61,0,0,0-9.83,0,12.06,12.06,0,0,1-4.47-.43,6.94,6.94,0,0,1-4.52-6.61c.13-1.08.48.74.6-.06.35.27.1.83.53,1.05a3.94,3.94,0,0,0,2.73,3.54,11.12,11.12,0,0,0,5.23.8L608,750c2.79.18,5.34,1.49,8.09,1.77a6.35,6.35,0,0,1,3.8,1.85,60.75,60.75,0,0,0,15.79,10.29,23,23,0,0,0,18.36.56,61.9,61.9,0,0,0,18.71-11.4,3.09,3.09,0,0,1,1.94-1.06c3.53,0,6.71-1.78,10.2-2l6.68-.09c6.14.28,8.48-1.93,8.53-8.06,0-.8,0-1.6,0-2.4,0-2.21,0-4.42,0-6.63a11,11,0,0,1,2.49-6.76c1.85-2.33,4.12-4.26,6-6.52a12.87,12.87,0,0,0,2.79-4.69C712,712.49,711.1,710.42,710.23,708.33Z"/><path class="cls-2" d="M703.48,729.06c0-.58.11-1.11.83-1.19Z"/><path class="cls-2" d="M702.65,731.62c0-.42-.25-.91.3-1.19C702.8,730.81,703,731.29,702.65,731.62Z"/><path class="cls-2" d="M702.92,730.47c0-.34-.14-.73.35-.87C703.12,729.88,703.24,730.27,702.92,730.47Z"/><path class="cls-2" d="M703.23,729.64c-.06-.28,0-.52.29-.62C703.44,729.24,703.49,729.51,703.23,729.64Z"/><path class="cls-4" d="M684.85,750c-3.49.23-6.67,2-10.2,2a3.09,3.09,0,0,0-1.94,1.06A61.9,61.9,0,0,1,654,764.47a23,23,0,0,1-18.36-.56,60.75,60.75,0,0,1-15.79-10.29,6.35,6.35,0,0,0-3.8-1.85c-2.75-.28-5.3-1.59-8.09-1.77.14-.07.37-.28.33-.28-2.34.06-4.69-.35-7,.19a11.12,11.12,0,0,1-5.23-.8,3.94,3.94,0,0,1-2.73-3.54c-.17-.61.48-1.44-.49-1.85l0-.59a9.67,9.67,0,0,0,0-4.78l0-1.16a3,3,0,0,0,0-3.48c-.09-4.4-2.25-7.74-5.33-10.65a38,38,0,0,1-4.72-5.25,7.79,7.79,0,0,1-.81-8.25,40.93,40.93,0,0,1,4.45-7c1.78-2.49,3.64-4.93,4.41-8,.14-.54.27-1.08.4-1.63,0,0,.07.07.11.08a.16.16,0,0,0,.12,0,20.33,20.33,0,0,0,.05-4.2s-.21.21-.28.36c-.57-4.18-1.8-8.26-1.93-12.52a7,7,0,0,1,4.68-7.14,47.75,47.75,0,0,1,9.21-2.58c5.67-1.17,9.69-4.51,12.88-9.14a26.15,26.15,0,0,1,5.6-6.14,8.06,8.06,0,0,1,8.1-1.25,81.6,81.6,0,0,1,8.08,3.67A18.19,18.19,0,0,0,655,654c2.52-1.25,5.06-2.48,7.68-3.53,3.45-1.39,6.42-.64,9.17,1.65a39.76,39.76,0,0,1,6.37,7.35,18.77,18.77,0,0,0,11.42,7.22,61.13,61.13,0,0,1,8.29,2.24c1.71.66,3.42,1.34,4.43,3a14.48,14.48,0,0,1,.83,6c0,.2.16.41.24.62-.23,3-1,5.83-1.53,8.74a15.74,15.74,0,0,0,2.33,12.12c2,3,4.22,5.78,6,8.87.87,2.09,1.8,4.16,1.13,6.52a12.87,12.87,0,0,1-2.79,4.69c-1.92,2.26-4.19,4.19-6,6.52a11,11,0,0,0-2.49,6.76c0,2.21,0,4.42,0,6.63,0,.8,0,1.6,0,2.4,0,6.13-2.39,8.34-8.53,8.06-2.42-.56-4.86-.09-7.31,0Zm-49.93-29.83c.08.09.19.22.26,0a.42.42,0,0,0-.2-.54v-.58c.5-.06.57-.44.51-.82-.17-1,.43-2.11-.33-3a2.54,2.54,0,0,1-.2-.52,13.36,13.36,0,0,0-16.1-10.86,13.47,13.47,0,0,0-5.65,23.61,12.89,12.89,0,0,0,13.8,1.94C631.18,727.68,633.59,724.37,634.92,720.17ZM685.08,717a13.47,13.47,0,1,0-13.43,13.46A13.4,13.4,0,0,0,685.08,717Zm-48.67-27.74a11.61,11.61,0,0,0-.26-1.67,38.49,38.49,0,0,0-13.46-19.39c-3.05-2.45-5.16-1.55-6.11,2.3a45.64,45.64,0,0,0-.72,15.59,26.55,26.55,0,0,0,1.74,7.38,8.14,8.14,0,0,0,7.71,5,10.79,10.79,0,0,0,10.22-6.12A6.14,6.14,0,0,0,636.41,689.26ZM677.73,681a36.74,36.74,0,0,0-1.09-10.82c-1.06-3.53-2.81-4.13-5.86-2.1a3.82,3.82,0,0,0-.47.31,44.12,44.12,0,0,0-12.68,17.38c-3,7.32,5,13.32,10.78,12.58,4.41-.56,7.15-2.9,8.18-7.32A44,44,0,0,0,677.73,681Zm-24.62,61.21a21.83,21.83,0,0,0-1.5-7.21,15.53,15.53,0,0,0-3.14-5.92c-1.27-1.32-2.38-1.28-3.61.08a7.83,7.83,0,0,0-1,1.37,29.72,29.72,0,0,0-3.49,9.9c-.31,1.8-.54,3.66.46,5.37a6.93,6.93,0,0,0,7.63,2.92C651.72,747.79,653.19,745.8,653.11,742.18Zm-4,12.32a2.74,2.74,0,0,0,1.41,2.76,3,3,0,0,0,3.18-.32,5.71,5.71,0,0,0,2.49-5.6,2.61,2.61,0,0,0-3.38-2.07A5.53,5.53,0,0,0,649.08,754.5Zm-4.8-.09a5.66,5.66,0,0,0-3.47-5,2.57,2.57,0,0,0-3.6,1.84,5.56,5.56,0,0,0,2.56,5.79,2.88,2.88,0,0,0,3.07.26A3,3,0,0,0,644.28,754.41Z"/><path class="cls-4" d="M690.71,752.51l.84,0,1.12,0c3.1-.1,6-.67,8-3.32a7.63,7.63,0,0,0,1.65-4.48c.4-.12.45.14.52.44a61.47,61.47,0,0,1,1.5,18.64,57.35,57.35,0,0,1-13.13,32.43,20.45,20.45,0,0,0-4.29-4.62c-4.07-2.87-8.63-3.1-13.26-2.19a39.87,39.87,0,0,0-17.64,7.74,19.92,19.92,0,0,0-7.87,13.69,1.56,1.56,0,0,1-.15.39.87.87,0,0,0-.11-.09h-.13a22.82,22.82,0,0,0-.06,4.45c0,.1.2-.17.27-.3a4.13,4.13,0,0,1,.27,1.84h-2.67c-.44,0-.87,0-.86-.64l.6-2.11c.73-1.42.17-2.89.15-4.35l-.15.64c-.34-1.55-.44-3.15-.93-4.68-2-6.22-6.4-10.3-11.95-13.29a41.52,41.52,0,0,0-14.77-4.85,1.49,1.49,0,0,1-.39-.17.28.28,0,0,0,.08-.11.2.2,0,0,0,0-.12,15.29,15.29,0,0,0-4.22,0l.09.23a14.89,14.89,0,0,0-8.8,4.26,15.4,15.4,0,0,0-2.61,3.65c-.62-.14-.85-.71-1.18-1.14A57.44,57.44,0,0,1,589,764.65l0-.56a1.05,1.05,0,0,0-.15-.88,61.88,61.88,0,0,1,1.52-17.39,1.66,1.66,0,0,1,.23.38c1.26,4.48,4.65,6,8.86,6.27,1.87.13,3.75.16,5.63.23h-4.34v.36c1.24,0,2.49.05,3.73,0s2.8.3,4.16-.23a10,10,0,0,1,4.5,1.15,20.43,20.43,0,0,0,3.88,5,57.56,57.56,0,0,0,18.3,13.22c3.69,1.68,7.51,3.09,11.66,3a29.6,29.6,0,0,0,11.33-3.17,57.66,57.66,0,0,0,19-14.42c.94-1.07,2.09-2,2.46-3.54a9.83,9.83,0,0,1,4.55-1.22C686.41,752.65,688.56,752.59,690.71,752.51Z"/><path class="cls-4" d="M722.4,723.33c3-.06,5.17,1.62,7.28,3.36C735.84,731.8,740.23,738,741.8,746a23.49,23.49,0,0,1-.95,12.1,37,37,0,0,1-2.31,5,47.94,47.94,0,0,1-8.69,10.36c-8.7,8.37-18.56,14.42-30.91,15.51a71.85,71.85,0,0,0,5-11.88c.21-.7.8-.71,1.31-.88,6.08-2.1,11.93-4.61,16.78-9a32.19,32.19,0,0,0,5.25-5.69,21,21,0,0,0,4.49-15,28.81,28.81,0,0,0-4-11.64c-1.92-3.35-3.94-6.63-5.92-9.94C721.46,724.24,721.24,723.57,722.4,723.33Z"/><path class="cls-4" d="M688.16,814.82c-4-2.31-7.15-2.46-9.89.06-1.33,1.23-2.09,1.25-3.58.4a6.92,6.92,0,0,0-7.26.34,1,1,0,0,1-1.44-.1,7.52,7.52,0,0,0-8.25-1.58c-2.82,1.11-4.39,3.47-4.74,7.13a9.41,9.41,0,0,1-2.18-5.46c.27-2.65.53-5.3.8-8l0,0c.4-.18.31-.54.31-.86h0l.12-.05a1.66,1.66,0,0,0-.06-.21,17.88,17.88,0,0,1,7.25-8.57c5.95-3.91,12.42-6.41,19.64-6.42a9.42,9.42,0,0,1,6.52,2.19c.09,1.07.79,1.89,1.13,2.86A40.23,40.23,0,0,1,688.16,814.82Z"/><path class="cls-4" d="M601.3,807.7a27.3,27.3,0,0,1,2.9-11.09c2.47-4.53,6.42-6.52,11.43-6.35s9.76,1.86,14.3,4a7,7,0,0,1,1,.72c.58,1.58,1.22,3.13,1.71,4.73a26.72,26.72,0,0,1,.55,13.32,7.93,7.93,0,0,0-6.16,2.9c-.32.4-.5.51-1,.17a7.51,7.51,0,0,0-9-.34c-.67.42-.9,0-1.28-.35a7.72,7.72,0,0,0-10-.44,7.87,7.87,0,0,0-2.73,4.29,6.67,6.67,0,0,1-1.56-3.36c0-1.87,0-3.74,0-5.61C601.5,809.43,601.8,808.52,601.3,807.7Z"/><path class="cls-5" d="M679.71,754c-.37,1.49-1.52,2.47-2.46,3.54a57.66,57.66,0,0,1-19,14.42A29.6,29.6,0,0,1,647,775.11c-4.15.14-8-1.27-11.66-3A57.56,57.56,0,0,1,617,758.94a20.43,20.43,0,0,1-3.88-5c1.11.17,2.22.38,3.34.48.66.07,1,.52,1.39.89a68,68,0,0,0,16.47,10.84c7.7,3.62,15.26,3.23,22.9-.17a67.27,67.27,0,0,0,17.1-10.88,2.13,2.13,0,0,1,1.22-.64C676.93,754.34,678.32,754.15,679.71,754Z"/><path class="cls-5" d="M633.21,813a26.72,26.72,0,0,0-.55-13.32c-.49-1.6-1.13-3.15-1.71-4.73a11.69,11.69,0,0,1,4.2,2.49c6,4.65,8.53,10.72,7.13,18.27a7.25,7.25,0,0,1-1.65,3.58C639.57,815.48,637.12,813.36,633.21,813Z"/><path class="cls-5" d="M698.94,789c12.35-1.09,22.21-7.14,30.91-15.51a47.94,47.94,0,0,0,8.69-10.36,37,37,0,0,0,2.31-5c.95-.33.94-1.33,1.37-2a27.89,27.89,0,0,1,1.69-3.08h0c-.89,5.34-2.66,10.26-6.48,14.27-1.58,1.67-3,3.51-4.62,5.13-7.28,7.27-15.29,13.41-25.55,15.86a72.38,72.38,0,0,1-7.19,1.21C699.76,789.58,698.87,790.09,698.94,789Z"/><path class="cls-5" d="M688.16,814.82a40.23,40.23,0,0,0-1.66-18.19c-.34-1-1-1.79-1.13-2.86,2.4,1.36,3.66,3.63,4.64,6a29,29,0,0,1,2.08,10.73,9.4,9.4,0,0,0,0,4.77,9.32,9.32,0,0,1-1.35,4.4A9.67,9.67,0,0,0,688.16,814.82Z"/><path class="cls-6" d="M671.41,824.51c-.87,0-1.72,0-2.56-.13-2-.21-2.83-1.34-2.45-3.28a5.18,5.18,0,0,1,5.21-4.06,5.1,5.1,0,0,1,4.91,4.55,2.18,2.18,0,0,1-1.77,2.6A21.2,21.2,0,0,1,671.41,824.51Z"/><path class="cls-7" d="M691.25,796.18a57.35,57.35,0,0,0,13.13-32.43,61.47,61.47,0,0,0-1.5-18.64c-.07-.3-.12-.56-.52-.44a16,16,0,0,0,.26-3.56,38.48,38.48,0,0,1,1.9,6.89,46.22,46.22,0,0,1,1.11,11,58.8,58.8,0,0,1-4.4,22.5,62.84,62.84,0,0,1-8.89,15C691.57,797.47,691.45,796.83,691.25,796.18Z"/><path class="cls-7" d="M722.4,723.33c-1.16.24-.94.91-.51,1.64,2,3.31,4,6.59,5.92,9.94a28.81,28.81,0,0,1,4,11.64,21,21,0,0,1-4.49,15l-1.18.15c.32-1.76,1.39-3.13,1.93-4.7,1.21-3.51,2.36-7,2.28-10.8-.09-3.53-1.38-6.62-2.83-9.75-1.7-3.69-4.23-6.86-6.07-10.45a4.78,4.78,0,0,1-.47-2.45c0-.39,0-.85.42-1A.75.75,0,0,1,722.4,723.33Z"/><path class="cls-6" d="M614,823.8a14.19,14.19,0,0,1-7-1.54c-1.43-.68-1.72-1.63-1.16-3.15a5.15,5.15,0,0,1,8.49-1.56.92.92,0,0,1,.11,1.23A6.58,6.58,0,0,0,614,823.8Z"/><path class="cls-6" d="M664.08,823.84a13.91,13.91,0,0,1-7.52-1.92,1.72,1.72,0,0,1-.8-2.06,4.79,4.79,0,0,1,3.72-3.77,5.17,5.17,0,0,1,4.9,1.4c.49.42.4.79.14,1.34A6.74,6.74,0,0,0,664.08,823.84Z"/><path class="cls-8" d="M631.79,815.87a4.87,4.87,0,0,1,6.08,3.52,1.87,1.87,0,0,1-1,2.38,14.73,14.73,0,0,1-6.88,1.8c-.71,0-1.18-.18-1.06-1.06a7.65,7.65,0,0,0-.23-2.65A5.89,5.89,0,0,0,631.79,815.87Z"/><path class="cls-9" d="M626.34,821l0,.51a32.94,32.94,0,0,1-9.51,2c-1-1.08-.62-2.28-.19-3.41a5.09,5.09,0,0,1,5.07-3.08,4.89,4.89,0,0,1,4.45,3.65A.23.23,0,0,0,626.34,821Z"/><path class="cls-6" d="M679.3,823.33c-.66-.75-.08-1.63-.28-2.47-.64-2.65-.39-3.3,1.26-4.36a5,5,0,0,1,5.91.18,8.23,8.23,0,0,1,.85.91C685.33,820.67,682.5,822.25,679.3,823.33Z"/><path class="cls-7" d="M589,764.65a57.44,57.44,0,0,0,11.65,29.79c.33.43.56,1,1.18,1.14-.45,1-.76,1.11-1.54.1a59.68,59.68,0,0,1-9.37-17.24,50.71,50.71,0,0,1-2.71-11.88,12.64,12.64,0,0,1-.2-3.32C588.59,763.58,588.23,764.51,589,764.65Z"/><path class="cls-8" d="M679.3,823.33c3.2-1.08,6-2.66,7.74-5.74,1.74,2.47,1.35,3.87-1.5,4.84C683.54,823.11,681.52,824,679.3,823.33Z"/><path class="cls-8" d="M616.85,823.53a32.94,32.94,0,0,0,9.51-2c.11,2-.46,2.57-2.76,2.82a6.75,6.75,0,0,0-3.93,0A3.45,3.45,0,0,1,616.85,823.53Z"/><path class="cls-10" d="M631.79,815.87a5.89,5.89,0,0,1-3,4c-.86-1.22,0-2,.73-2.79A3.85,3.85,0,0,1,631.79,815.87Z"/><path class="cls-11" d="M644.75,816.46c0,.62.42.64.86.64h2.67c.1.33.43.89,0,.95a13.76,13.76,0,0,1-3.57,0C644.4,818,644.42,817,644.75,816.46Zm2.86,1.08,0-.13h-2.5v.13Z"/><path class="cls-12" d="M601.3,807.7c.5.82.2,1.73.23,2.59.06,1.87,0,3.74,0,5.61C600.79,813.19,601.12,810.44,601.3,807.7Z"/><path class="cls-12" d="M651.62,807.66c-.27,2.65-.53,5.3-.8,8A15,15,0,0,1,651.62,807.66Z"/><path class="cls-12" d="M703.41,678.6c-.08-.21-.25-.42-.24-.62a14.48,14.48,0,0,0-.83-6C703.87,674,703.7,676.29,703.41,678.6Z"/><path class="cls-13" d="M608.61,752.81c-1.36.53-2.78.16-4.16.23s-2.49,0-3.73,0v-.36h4.34Z"/><path class="cls-13" d="M592.89,733.71a3,3,0,0,1,0,3.48Z"/><path class="cls-13" d="M648,815.25c-.07.13-.27.4-.27.3a22.82,22.82,0,0,1,.06-4.45h.13a.87.87,0,0,1,.11.09Z"/><path class="cls-13" d="M613.25,787.67l-.09-.23a15.29,15.29,0,0,1,4.22,0,.2.2,0,0,1,0,.12.28.28,0,0,1-.08.11Z"/><path class="cls-14" d="M692.08,815.31a9.4,9.4,0,0,1,0-4.77C692.08,812.13,692.08,813.72,692.08,815.31Z"/><path class="cls-13" d="M591.29,689.19c.07-.15.27-.39.28-.36a20.33,20.33,0,0,1-.05,4.2.16.16,0,0,1-.12,0s-.07,0-.11-.08Z"/><path class="cls-13" d="M592.81,738.35a9.67,9.67,0,0,1,0,4.78Z"/><path class="cls-13" d="M645.35,810.64l.15-.64c0,1.46.58,2.93-.15,4.35a1.09,1.09,0,0,1-.05-.17.32.32,0,0,1,0-.09c0-.28,0-.55,0-.83Z"/><path class="cls-15" d="M619.67,824.37a6.75,6.75,0,0,1,3.93,0A19.85,19.85,0,0,1,619.67,824.37Z"/><path class="cls-13" d="M592.83,743.72c1,.41.32,1.24.49,1.85-.43-.22-.18-.78-.53-1.05C592.8,744.26,592.81,744,592.83,743.72Z"/><path class="cls-12" d="M651.91,806.82c0,.32.09.68-.31.86A1,1,0,0,1,651.91,806.82Z"/><path class="cls-7" d="M588.82,763.21a1.05,1.05,0,0,1,.15.88A1,1,0,0,1,588.82,763.21Z"/><path class="cls-3" d="M743.91,753.05l.11-.38.11.08-.21.31Z"/><path class="cls-16" d="M645.38,813.26c0,.28,0,.55,0,.83A.64.64,0,0,1,645.38,813.26Z"/><path class="cls-12" d="M652,806.57a1.66,1.66,0,0,1,.06.21l-.12.05A.4.4,0,0,1,652,806.57Z"/><path class="cls-8" d="M626.34,821a.23.23,0,0,1-.16-.33Z"/><path class="cls-13" d="M684.85,750l-.63-.14c2.45,0,4.89-.51,7.31,0Z"/><path class="cls-13" d="M601.28,749.91c2.32-.54,4.67-.13,7-.19,0,0-.19.21-.33.28Z"/><path class="cls-2" d="M692.67,752.47l-1.12,0A.68.68,0,0,1,692.67,752.47Z"/><path class="cls-2" d="M635,719.08v.58l-.06.51c-1.33,4.2-3.74,7.51-7.9,9.21a12.89,12.89,0,0,1-13.8-1.94,13.47,13.47,0,0,1,5.65-23.61A13.36,13.36,0,0,1,635,714.69a2.54,2.54,0,0,0,.2.52A12.58,12.58,0,0,1,635,719.08Zm-13.28,8.8A10.91,10.91,0,0,0,632.65,717a11,11,0,0,0-10.95-10.92A10.88,10.88,0,0,0,610.82,717,10.77,10.77,0,0,0,621.71,727.88Z"/><path class="cls-2" d="M685.08,717a13.47,13.47,0,1,1-13.42-13.48A13.35,13.35,0,0,1,685.08,717Zm-13.56,10.88a10.77,10.77,0,0,0,11-10.63,10.9,10.9,0,1,0-11,10.63Z"/><path class="cls-2" d="M636.41,689.26a6.14,6.14,0,0,1-.88,3.09,10.79,10.79,0,0,1-10.22,6.12,8.14,8.14,0,0,1-7.71-5,26.55,26.55,0,0,1-1.74-7.38,45.64,45.64,0,0,1,.72-15.59c.95-3.85,3.06-4.75,6.11-2.3a38.49,38.49,0,0,1,13.46,19.39A11.61,11.61,0,0,1,636.41,689.26Zm-17-19.11a7.69,7.69,0,0,0-.34.91,42.81,42.81,0,0,0,.26,19.53c.89,3.51,2.4,4.73,5.94,5.14,2.2.25,5.88-1.14,6.56-2.93a2.8,2.8,0,0,0,.56-.39c1.7-1.83,1.58-3.9.74-6a41.09,41.09,0,0,0-7.11-11.44,23.74,23.74,0,0,0-5.35-5C620.26,669.65,619.69,669.14,619.44,670.15Z"/><path class="cls-2" d="M677.73,681a44,44,0,0,1-1.14,10c-1,4.42-3.77,6.76-8.18,7.32-5.75.74-13.78-5.26-10.78-12.58a44.12,44.12,0,0,1,12.68-17.38,3.82,3.82,0,0,1,.47-.31c3.05-2,4.8-1.43,5.86,2.1A36.74,36.74,0,0,1,677.73,681Zm-2.59-.84a33,33,0,0,0-.87-9c-.45-1.88-.74-2-2.35-.8l-.23.17a41.78,41.78,0,0,0-11.57,15.89c-1.17,2.82-.38,5.08,1.74,7.08,4.39,4.14,10.68,2.45,12.25-3.34A34.5,34.5,0,0,0,675.14,680.13Z"/><path class="cls-2" d="M653.11,742.18c.08,3.62-1.39,5.61-4.64,6.51a6.93,6.93,0,0,1-7.63-2.92c-1-1.71-.77-3.57-.46-5.37a29.72,29.72,0,0,1,3.49-9.9,7.83,7.83,0,0,1,1-1.37c1.23-1.36,2.34-1.4,3.61-.08a15.53,15.53,0,0,1,3.14,5.92A21.83,21.83,0,0,1,653.11,742.18Zm-6.38-11.25c-2.18,2.86-4.18,9.16-3.93,12.32.14,1.9,1.68,3.08,4,3s3.64-1.33,3.72-3.18a14.79,14.79,0,0,0-.61-4.73A22.79,22.79,0,0,0,646.73,730.93Z"/><path class="cls-17" d="M649.08,754.5a5.53,5.53,0,0,1,3.7-5.23,2.61,2.61,0,0,1,3.38,2.07,5.71,5.71,0,0,1-2.49,5.6,3,3,0,0,1-3.18.32A2.74,2.74,0,0,1,649.08,754.5Z"/><path class="cls-17" d="M644.28,754.41a3,3,0,0,1-1.44,2.85,2.88,2.88,0,0,1-3.07-.26,5.56,5.56,0,0,1-2.56-5.79,2.57,2.57,0,0,1,3.6-1.84A5.66,5.66,0,0,1,644.28,754.41Z"/><path class="cls-13" d="M635,719.08a12.58,12.58,0,0,0,.18-3.87c.76.94.16,2,.33,3C635.56,718.64,635.49,719,635,719.08Z"/><path class="cls-13" d="M634.92,720.17l.06-.51a.42.42,0,0,1,.2.54C635.11,720.39,635,720.26,634.92,720.17Z"/><path class="cls-2" d="M647.61,817.54h-2.48v-.13h2.5Z"/><path class="cls-9" d="M621.71,727.88A10.77,10.77,0,0,1,610.82,717a10.88,10.88,0,0,1,10.88-10.94A11,11,0,0,1,632.65,717,10.91,10.91,0,0,1,621.71,727.88Zm-1-8.68a4,4,0,1,0,8,0,4,4,0,1,0-8,0Z"/><path class="cls-9" d="M671.52,727.88a10.91,10.91,0,1,1,11-10.63A10.86,10.86,0,0,1,671.52,727.88Zm-2.61-12.76a4,4,0,0,0-4,4,4,4,0,1,0,8,0A3.94,3.94,0,0,0,668.91,715.12Z"/><path class="cls-9" d="M631.86,692.8c-.68,1.79-4.36,3.18-6.56,2.93-3.54-.41-5-1.63-5.94-5.14a42.81,42.81,0,0,1-.26-19.53,7.69,7.69,0,0,1,.34-.91,10.75,10.75,0,0,1,2.09,1.66,40.27,40.27,0,0,1,7.4,10.57C630.58,685.65,632.18,689,631.86,692.8Z"/><path class="cls-8" d="M631.86,692.8c.32-3.84-1.28-7.15-2.93-10.42a40.27,40.27,0,0,0-7.4-10.57,10.75,10.75,0,0,0-2.09-1.66c.25-1,.82-.5,1.26-.23a23.74,23.74,0,0,1,5.35,5,41.09,41.09,0,0,1,7.11,11.44c.84,2.15,1,4.22-.74,6A2.8,2.8,0,0,1,631.86,692.8Z"/><path class="cls-9" d="M675.14,680.13a34.5,34.5,0,0,1-1,10c-1.57,5.79-7.86,7.48-12.25,3.34-2.12-2-2.91-4.26-1.74-7.08a41.78,41.78,0,0,1,11.57-15.89l.23-.17c1.61-1.16,1.9-1.08,2.35.8A33,33,0,0,1,675.14,680.13Z"/><path class="cls-10" d="M646.73,730.93a22.79,22.79,0,0,1,3.15,7.46,14.79,14.79,0,0,1,.61,4.73c-.08,1.85-1.58,3.14-3.72,3.18s-3.83-1.15-4-3C642.55,740.09,644.55,733.79,646.73,730.93Z"/><path class="cls-2" d="M620.73,719.2a4,4,0,1,1,8,0,4,4,0,1,1-8,0Z"/><path class="cls-2" d="M668.91,715.12a3.94,3.94,0,0,1,4,4,4,4,0,1,1-8,0A4,4,0,0,1,668.91,715.12Z"/></g></svg>