<svg xmlns="http://www.w3.org/2000/svg" viewBox="0 0 196.52 231.05"><defs><style>.cls-1{fill:#0c090e;}.cls-2{fill:#271c32;}.cls-3{fill:#febb20;}.cls-4{fill:#b59530;}.cls-5{fill:#f9f9f9;}.cls-6{fill:#271d33;}.cls-7{fill:#afafb0;}.cls-8{fill:#fbfbfb;}.cls-9{fill:#f2f1f1;}.cls-10{fill:#352744;}.cls-11{fill:#7c5c9c;}.cls-12{fill:#8362a8;}.cls-13{fill:#5c4578;}.cls-14{fill:#c7c7c7;}.cls-15{fill:#76579a;}.cls-16{fill:#06030a;}</style></defs><g id="Layer_25" data-name="Layer 25"><path class="cls-1" d="M192.89,134.26c-.69,2.14-1,4.39-1.79,6.5a36,36,0,0,1-7.39,11.5c-6,6.35-12.52,12-20.48,15.83a45.19,45.19,0,0,1-16.95,4.38,1.52,1.52,0,0,0-1.39.73,41.49,41.49,0,0,1-3.85,5.19,1.72,1.72,0,0,0-.27,2,37,37,0,0,1,1.95,16.76c-.59,5.75-4.58,9.63-10.65,11a29.91,29.91,0,0,1-6.39.89c-.26,0-.58-.12-.72.25H113.64c-1.69-.56-3.47-.46-5.19-.83-3.93-.86-7.84-2-9.87-5.73-1.26-2.28-2.68-2.7-4.93-2.56A2.94,2.94,0,0,0,91,201.59c-2.12,3.2-5.44,4.66-9,5.4-6.46,1.31-13,1.16-19.52.64a25.42,25.42,0,0,1-7.9-1.78,11.83,11.83,0,0,1-7.67-10.51,38.77,38.77,0,0,1,1.76-15.68,1.57,1.57,0,0,0-.44-1.72A58.67,58.67,0,0,1,37.5,158.08a59.64,59.64,0,0,1-2.31-24.77c.49-4.29,1.76-8.38,2.71-12.57,1.12-5,1.17-10-3.08-14a54.7,54.7,0,0,1-5.47-5.91c-3.15-4-3.33-8.14-1-12.56a46.72,46.72,0,0,1,5.1-7.55c3.39-4.22,4-8.88,2.84-14A45.15,45.15,0,0,1,34.93,58c-.21-6.15,3.13-8.8,7.3-10.37a37.38,37.38,0,0,1,7.14-1.94,18.66,18.66,0,0,0,13-8.72,30.35,30.35,0,0,1,4.18-5c3.92-3.81,8.35-5,13.47-2.65,2.67,1.22,5.35,2.43,8,3.68a14.81,14.81,0,0,0,13,0c3.1-1.4,6.1-3,9.3-4.2,4.31-1.6,8-.52,11.34,2.28a30.57,30.57,0,0,1,5.71,6.42,18,18,0,0,0,12,7.84,41.47,41.47,0,0,1,8.59,2.44c4.77,2.09,6.78,5.57,6.34,10.71-.3,3.38-1.09,6.65-1.68,10a13.63,13.63,0,0,0,2.07,10.69,95.35,95.35,0,0,1,5.52,8.14c1.83,3.29,2.93,6.69,1.32,10.43a14.32,14.32,0,0,1-2.48,3.89c-1.76,2-3.63,3.83-5.46,5.73a1.59,1.59,0,0,1,.58-1.36c1.67-1.83,3.35-3.65,5-5.53,2.18-2.55,3.24-5.38,1.68-8.66-.61-1.28-1.35-2.5-2-3.76-.23.35.08.88-.38,1.15-1.8-3.1-4-5.91-6-8.87A15.72,15.72,0,0,1,150,68.25a88.68,88.68,0,0,0,1.52-8.74c.29-2.3.46-4.59-1.07-6.6-1-1.69-2.72-2.38-4.43-3a62.18,62.18,0,0,0-8.29-2.23,18.74,18.74,0,0,1-11.41-7.22A39.87,39.87,0,0,0,120,33.07c-2.75-2.29-5.72-3-9.17-1.66-2.62,1.05-5.16,2.28-7.68,3.54A18.22,18.22,0,0,1,86,35,81.6,81.6,0,0,0,78,31.34a8.07,8.07,0,0,0-8.1,1.25,25.7,25.7,0,0,0-5.59,6.14c-3.2,4.63-7.21,8-12.88,9.14a48,48,0,0,0-9.22,2.57,7,7,0,0,0-4.67,7.15c.12,4.25,1.35,8.33,1.92,12.52v3.76L39,75.5c-.77,3-2.64,5.48-4.41,8a40.84,40.84,0,0,0-4.46,7A7.77,7.77,0,0,0,31,98.73,36.64,36.64,0,0,0,35.68,104c3.08,2.92,5.24,6.26,5.33,10.66l0,3.48,0,1.16v4.78l0,.59,0,.8c-.12.8-.48-1-.6.06a6.93,6.93,0,0,0,4.52,6.61,11.8,11.8,0,0,0,4.46.42,38.05,38.05,0,0,1,9.83,0,15.38,15.38,0,0,1,7.25,3.16c6.34,5,13,9.29,20.75,11.64a20.44,20.44,0,0,0,11.23.44A51.93,51.93,0,0,0,117.69,138a15.84,15.84,0,0,1,7-3.42,8.23,8.23,0,0,0,2.45-.6c3.54-1.94,7.3-1.29,11-1.08.39,0,.62.17.66.58-2.15.08-4.3.14-6.44.25a9.79,9.79,0,0,0-4.55,1.22c-1.4.17-2.79.36-4.19.5a2.11,2.11,0,0,0-1.22.64,67.83,67.83,0,0,1-17.1,10.88c-7.64,3.39-15.2,3.78-22.9.17A67.92,67.92,0,0,1,66,136.25c-.42-.37-.74-.83-1.39-.89-1.12-.1-2.23-.32-3.34-.48a9.87,9.87,0,0,0-4.51-1.15l-3.55-.11c-1.88-.08-3.76-.1-5.63-.23-4.21-.3-7.59-1.79-8.86-6.27a1.33,1.33,0,0,0-.23-.38A61.84,61.84,0,0,0,37,144.13a1,1,0,0,0,.14.87l0,.56c-.79-.13-.42-1.06-1-1.41a13.18,13.18,0,0,0,.2,3.33,51.21,51.21,0,0,0,2.71,11.88,59.84,59.84,0,0,0,9.38,17.24c.78,1,1.08.92,1.53-.1a15.4,15.4,0,0,1,2.61-3.65,14.92,14.92,0,0,1,8.81-4.26l4.06,0a1.43,1.43,0,0,0,.38.17,41.64,41.64,0,0,1,14.77,4.84c5.55,3,10,7.08,12,13.3.49,1.53.59,3.12.93,4.68l0,2.62a.64.64,0,0,0,0,.83s0,.06,0,.09,0,.11,0,.16l-.6,2.12c-.32.53-.35,1.53-.07,1.57a13.84,13.84,0,0,0,3.58,0c.45,0,.13-.61,0-.94a4.27,4.27,0,0,0-.27-1.84l0-4.06a1.61,1.61,0,0,0,.16-.39A19.89,19.89,0,0,1,104.18,178a39.92,39.92,0,0,1,17.64-7.74c4.63-.91,9.19-.68,13.27,2.19a20.47,20.47,0,0,1,4.29,4.62c.19.65.32,1.29,1.08.33a62.82,62.82,0,0,0,8.9-15,58.79,58.79,0,0,0,4.39-22.5,46.62,46.62,0,0,0-1.1-11,38.55,38.55,0,0,0-1.91-6.89,16.63,16.63,0,0,1-.25,3.56,7.71,7.71,0,0,1-1.66,4.48c-.73-.67.11-1.2.22-1.76a60.79,60.79,0,0,0,1.13-11.73,9.84,9.84,0,0,1,.6-4c-.87,4.3.87,8.18,2,12.16a59.88,59.88,0,0,1,1.72,21.49,69.83,69.83,0,0,1-1.38,8.33,49.42,49.42,0,0,0,8.36-3.5,31.53,31.53,0,0,0,14.09-13.51c2.91-5.59,2.4-11.29-.07-16.9a91.08,91.08,0,0,0-6.32-11.07,12.38,12.38,0,0,1-2.08-4.4c-.29-1.74.45-2.74,2.17-3.16a8,8,0,0,1,6.11.89A36.81,36.81,0,0,1,190,119a25.45,25.45,0,0,1,2.62,9.08c0,.1.16.19.25.28ZM100,187.75h0a1.05,1.05,0,0,0-.31.86l0,0a15,15,0,0,0-.8,8,9.42,9.42,0,0,0,2.19,5.46c.34-3.67,1.91-6,4.73-7.13a7.53,7.53,0,0,1,8.25,1.57,1,1,0,0,0,1.44.1,6.94,6.94,0,0,1,7.26-.34c1.5.85,2.25.84,3.59-.39,2.74-2.52,5.86-2.38,9.88-.07a9.77,9.77,0,0,1,2.58,4.89,9.12,9.12,0,0,0,1.34-4.39v-4.77a28.7,28.7,0,0,0-2.08-10.73c-1-2.41-2.24-4.68-4.63-6a9.43,9.43,0,0,0-6.52-2.2c-7.22,0-13.69,2.52-19.65,6.42a18,18,0,0,0-7.25,8.57A.43.43,0,0,0,100,187.75ZM67.79,205.29a20,20,0,0,0,3.94,0c2.29-.25,2.87-.84,2.76-2.82l0-.51-.15-.33A4.89,4.89,0,0,0,69.85,198,5.07,5.07,0,0,0,64.79,201c-.44,1.13-.83,2.33.18,3.41A3.46,3.46,0,0,0,67.79,205.29Zm59.64-1c2.22.69,4.23-.22,6.24-.9,2.84-1,3.24-2.37,1.49-4.85a7.24,7.24,0,0,0-.85-.9,5,5,0,0,0-5.91-.18c-1.65,1.05-1.9,1.7-1.26,4.36C127.34,202.61,126.76,203.5,127.43,204.25Zm-50.57-3.48a8,8,0,0,1,.24,2.66c-.13.88.34,1.06,1.05,1.06a14.92,14.92,0,0,0,6.89-1.8A1.87,1.87,0,0,0,86,200.3a4.85,4.85,0,0,0-6.07-3.51,3.8,3.8,0,0,0-2.33,1.2C76.82,198.74,76,199.56,76.86,200.77ZM192,134a28.61,28.61,0,0,0-1.68,3.07c-.44.69-.43,1.68-1.37,2a23.63,23.63,0,0,0,.94-12.11c-1.56-8-6-14.23-12.12-19.34-2.11-1.74-4.3-3.42-7.27-3.36a.77.77,0,0,0-1-.72c-.42.11-.41.57-.43,1a4.63,4.63,0,0,0,.48,2.44c1.84,3.59,4.36,6.77,6.06,10.45,1.45,3.14,2.75,6.23,2.83,9.76.09,3.8-1.07,7.29-2.27,10.79-.55,1.58-1.61,2.95-1.93,4.71l1.17-.16a31.15,31.15,0,0,1-5.25,5.69c-4.85,4.38-10.7,6.89-16.77,9-.52.18-1.11.19-1.31.88a71.51,71.51,0,0,1-5.06,11.89c-.06,1.08.82.57,1.14.53,2.41-.34,4.84-.65,7.2-1.21,10.26-2.45,18.26-8.59,25.54-15.86,1.63-1.62,3-3.46,4.63-5.13,3.81-4,5.59-8.94,6.48-14.27a3.45,3.45,0,0,0,.2-.32l-.1-.07Zm-110.69,60c3.9.34,6.35,2.45,7.41,6.3a7.31,7.31,0,0,0,1.66-3.58c1.39-7.55-1.11-13.62-7.13-18.27a11.86,11.86,0,0,0-4.2-2.49,6.64,6.64,0,0,0-1-.73c-4.54-2.13-9.23-3.82-14.29-4s-9,1.82-11.43,6.35a27.15,27.15,0,0,0-2.91,11.09c-.17,2.74-.5,5.49.28,8.19a6.72,6.72,0,0,0,1.55,3.37A7.81,7.81,0,0,1,54,195.89a7.7,7.7,0,0,1,10,.44c.38.32.61.76,1.29.35a7.51,7.51,0,0,1,9,.33c.48.34.65.23,1-.16A7.94,7.94,0,0,1,81.34,193.94Zm38.2,11.49a21,21,0,0,0,3.33-.32,2.19,2.19,0,0,0,1.78-2.6,5.1,5.1,0,0,0-4.91-4.55,5.17,5.17,0,0,0-5.21,4.06c-.38,1.94.44,3.07,2.44,3.28C117.81,205.38,118.67,205.39,119.54,205.43Zm-57.42-.72a6.59,6.59,0,0,1,.49-5,.92.92,0,0,0-.11-1.22A5.16,5.16,0,0,0,54,200c-.56,1.52-.27,2.46,1.17,3.15A14.06,14.06,0,0,0,62.12,204.71Zm50.09,0a6.74,6.74,0,0,1,.43-5c.26-.54.35-.91-.14-1.33a5.16,5.16,0,0,0-4.9-1.4,4.78,4.78,0,0,0-3.71,3.76,1.72,1.72,0,0,0,.79,2.06A13.84,13.84,0,0,0,112.21,204.75Z"/><path class="cls-2" d="M158.35,89.25c.46-.27.15-.8.38-1.15.69,1.26,1.43,2.48,2,3.76,1.56,3.28.5,6.11-1.68,8.66-1.61,1.88-3.29,3.7-5,5.53a1.59,1.59,0,0,0-.58,1.36l-1.11,1.37c-.72.09-.82.61-.83,1.19l0,0c-.32.1-.34.34-.29.62l0,0c-.49.14-.36.53-.35.87l0,0c-.54.29-.29.77-.3,1.19h0a9.84,9.84,0,0,0-.6,4,60.79,60.79,0,0,1-1.13,11.73c-.11.56-1,1.09-.22,1.76-2,2.65-4.94,3.22-8,3.31a.69.69,0,0,0-1.12,0l-.85,0c0-.41-.27-.56-.66-.58-3.73-.21-7.49-.86-11,1.08a8.23,8.23,0,0,1-2.45.6,15.84,15.84,0,0,0-7,3.42,51.93,51.93,0,0,1-19.33,9.85,20.44,20.44,0,0,1-11.23-.44c-7.79-2.35-14.41-6.65-20.75-11.64a15.38,15.38,0,0,0-7.25-3.16,38.05,38.05,0,0,0-9.83,0,11.8,11.8,0,0,1-4.46-.42,6.93,6.93,0,0,1-4.52-6.61c.12-1.08.48.74.6-.06.35.26.09.83.52,1A3.93,3.93,0,0,0,44.18,130a11.08,11.08,0,0,0,5.22.81l6.68.09c2.79.18,5.35,1.49,8.1,1.76A6.39,6.39,0,0,1,68,134.54a60.64,60.64,0,0,0,15.8,10.29,22.93,22.93,0,0,0,18.35.55A62,62,0,0,0,120.84,134a3,3,0,0,1,1.93-1.06c3.53,0,6.72-1.79,10.21-2l6.68-.09c6.13.28,8.47-1.93,8.52-8.06,0-.8,0-1.6,0-2.4,0-2.21-.06-4.43,0-6.64a11,11,0,0,1,2.48-6.75c1.85-2.33,4.12-4.26,6-6.53a12.65,12.65,0,0,0,2.79-4.69C160.15,93.41,159.22,91.33,158.35,89.25Z"/><path class="cls-1" d="M151.61,110c0-.58.11-1.1.83-1.19Z"/><path class="cls-1" d="M150.77,112.53c0-.42-.24-.9.3-1.19C150.93,111.73,151.13,112.2,150.77,112.53Z"/><path class="cls-1" d="M151,111.39c0-.34-.14-.73.35-.87C151.25,110.8,151.37,111.18,151,111.39Z"/><path class="cls-1" d="M151.35,110.56c0-.28,0-.52.29-.62C151.57,110.16,151.61,110.43,151.35,110.56Z"/><path class="cls-3" d="M133,130.92c-3.49.22-6.68,2-10.21,2a3,3,0,0,0-1.93,1.06,62,62,0,0,1-18.72,11.39,22.93,22.93,0,0,1-18.35-.55A60.64,60.64,0,0,1,68,134.54a6.39,6.39,0,0,0-3.79-1.86c-2.75-.27-5.31-1.58-8.1-1.76.14-.07.38-.29.33-.28-2.33.05-4.69-.35-7,.19a11.08,11.08,0,0,1-5.22-.81,3.93,3.93,0,0,1-2.74-3.53c-.17-.61.48-1.45-.49-1.85l0-.59a9.67,9.67,0,0,0,0-4.78l0-1.16a3,3,0,0,0,0-3.48c-.09-4.4-2.25-7.74-5.33-10.66A36.64,36.64,0,0,1,31,98.73a7.77,7.77,0,0,1-.82-8.25,40.84,40.84,0,0,1,4.46-7c1.77-2.48,3.64-4.92,4.41-8l.39-1.63s.07.07.11.08h.12a19.75,19.75,0,0,0,0-4.21,1.42,1.42,0,0,0-.28.37c-.57-4.19-1.8-8.27-1.92-12.52a7,7,0,0,1,4.67-7.15,48,48,0,0,1,9.22-2.57c5.67-1.17,9.68-4.51,12.88-9.14a25.7,25.7,0,0,1,5.59-6.14A8.07,8.07,0,0,1,78,31.34,81.6,81.6,0,0,1,86,35,18.22,18.22,0,0,0,103.1,35c2.52-1.26,5.06-2.49,7.68-3.54,3.45-1.38,6.42-.63,9.17,1.66a39.87,39.87,0,0,1,6.38,7.35,18.74,18.74,0,0,0,11.41,7.22A62.18,62.18,0,0,1,146,49.87c1.71.66,3.43,1.35,4.43,3a14.34,14.34,0,0,1,.83,6c0,.21.16.42.24.62A88.68,88.68,0,0,1,150,68.25a15.72,15.72,0,0,0,2.33,12.13c2,3,4.21,5.77,6,8.87.87,2.08,1.8,4.16,1.13,6.51a12.65,12.65,0,0,1-2.79,4.69c-1.92,2.27-4.19,4.2-6,6.53a11,11,0,0,0-2.48,6.75c-.06,2.21,0,4.43,0,6.64,0,.8,0,1.6,0,2.4-.05,6.13-2.39,8.34-8.52,8.06-2.42-.56-4.87-.09-7.32-.05ZM83,101.09c.08.09.19.22.27,0a.45.45,0,0,0-.2-.54V100c.5-.07.58-.44.51-.82-.17-1,.43-2.11-.33-3.06a2.45,2.45,0,0,1-.2-.51A13.35,13.35,0,0,0,67,84.75a13.46,13.46,0,0,0-5.66,23.61,12.86,12.86,0,0,0,13.8,1.93C79.3,108.59,81.72,105.28,83,101.09Zm50.16-3.17a13.46,13.46,0,1,0-13.42,13.46A13.4,13.4,0,0,0,133.2,97.92ZM84.53,70.17a11.47,11.47,0,0,0-.26-1.66,38.56,38.56,0,0,0-13.46-19.4c-3-2.44-5.15-1.55-6.1,2.31A45.39,45.39,0,0,0,64,67a26.27,26.27,0,0,0,1.73,7.38,8.17,8.17,0,0,0,7.71,5,10.84,10.84,0,0,0,10.23-6.12A6.24,6.24,0,0,0,84.53,70.17Zm41.32-8.29a36.37,36.37,0,0,0-1.09-10.81c-1.05-3.53-2.81-4.14-5.86-2.11-.16.11-.32.2-.47.32a44,44,0,0,0-12.67,17.38c-3,7.31,5,13.32,10.77,12.58,4.41-.56,7.15-2.9,8.18-7.33A42.75,42.75,0,0,0,125.85,61.88ZM101.23,123.1a21.78,21.78,0,0,0-1.5-7.21A15.64,15.64,0,0,0,96.59,110c-1.27-1.31-2.38-1.27-3.61.09a8.38,8.38,0,0,0-1,1.37,30.08,30.08,0,0,0-3.49,9.9c-.31,1.8-.54,3.66.46,5.36a6.9,6.9,0,0,0,7.63,2.92C99.85,128.71,101.32,126.71,101.23,123.1Zm-4,12.32a2.76,2.76,0,0,0,1.41,2.76,3,3,0,0,0,3.19-.33,5.69,5.69,0,0,0,2.48-5.6,2.6,2.6,0,0,0-3.37-2.06A5.5,5.5,0,0,0,97.2,135.42Zm-4.8-.1a5.64,5.64,0,0,0-3.47-5,2.57,2.57,0,0,0-3.6,1.83,5.56,5.56,0,0,0,2.57,5.8,2.9,2.9,0,0,0,3.06.26A3,3,0,0,0,92.4,135.32Z"/><path class="cls-3" d="M138.83,133.43l.85,0,1.12,0c3.09-.09,6-.66,8-3.31a7.71,7.71,0,0,0,1.66-4.48c.4-.12.44.13.51.44a61.4,61.4,0,0,1,1.5,18.63,57.3,57.3,0,0,1-13.12,32.44,20.47,20.47,0,0,0-4.29-4.62c-4.08-2.87-8.64-3.1-13.27-2.19A39.92,39.92,0,0,0,104.18,178a19.89,19.89,0,0,0-7.86,13.69,1.61,1.61,0,0,1-.16.39.48.48,0,0,0-.11-.09s-.12,0-.12,0a22.82,22.82,0,0,0-.07,4.45c0,.09.2-.17.27-.3a4.14,4.14,0,0,1,.28,1.84H93.74c-.45,0-.87,0-.87-.63l.6-2.12c.73-1.41.17-2.88.16-4.34l-.16.64c-.34-1.56-.44-3.15-.93-4.68-2-6.22-6.4-10.3-12-13.3a41.64,41.64,0,0,0-14.77-4.84,1.43,1.43,0,0,1-.38-.17s.06-.07.08-.11a.2.2,0,0,0,0-.12,15.77,15.77,0,0,0-4.23,0l.1.24a14.92,14.92,0,0,0-8.81,4.26A15.4,15.4,0,0,0,50,176.5c-.62-.15-.85-.71-1.18-1.14a57.34,57.34,0,0,1-11.64-29.8l0-.56a1.07,1.07,0,0,0-.14-.87,61.84,61.84,0,0,1,1.51-17.39,1.33,1.33,0,0,1,.23.38c1.27,4.48,4.65,6,8.86,6.27,1.87.13,3.75.15,5.63.23H48.85V134c1.24,0,2.48.06,3.72,0s2.8.3,4.16-.23a9.87,9.87,0,0,1,4.51,1.15,20.39,20.39,0,0,0,3.87,5,57.64,57.64,0,0,0,18.31,13.22c3.69,1.68,7.51,3.08,11.65,2.94a29.38,29.38,0,0,0,11.33-3.17,57.29,57.29,0,0,0,19-14.42c.94-1.06,2.09-2.05,2.47-3.53a9.79,9.79,0,0,1,4.55-1.22C134.53,133.57,136.68,133.51,138.83,133.43Z"/><path class="cls-3" d="M170.53,104.25c3-.06,5.16,1.62,7.27,3.36C184,112.72,188.36,119,189.92,127a23.63,23.63,0,0,1-.94,12.11,40.24,40.24,0,0,1-2.31,5A48.51,48.51,0,0,1,178,154.41c-8.7,8.37-18.57,14.42-30.92,15.51A71.51,71.51,0,0,0,152.12,158c.2-.69.79-.7,1.31-.88,6.07-2.09,11.92-4.6,16.77-9a31.15,31.15,0,0,0,5.25-5.69,21,21,0,0,0,4.5-15,29,29,0,0,0-4-11.65c-1.92-3.34-3.95-6.62-5.92-9.94C169.59,105.16,169.37,104.48,170.53,104.25Z"/><path class="cls-3" d="M136.28,195.73c-4-2.31-7.14-2.45-9.88.07-1.34,1.23-2.09,1.24-3.59.39a6.94,6.94,0,0,0-7.26.34,1,1,0,0,1-1.44-.1,7.53,7.53,0,0,0-8.25-1.57c-2.82,1.1-4.39,3.46-4.73,7.13a9.42,9.42,0,0,1-2.19-5.46c.27-2.65.53-5.3.8-8l0,0c.4-.18.31-.54.31-.86h0s.12,0,.12-.05a1.41,1.41,0,0,0-.06-.22,18,18,0,0,1,7.25-8.57c6-3.9,12.43-6.4,19.65-6.42a9.43,9.43,0,0,1,6.52,2.2,11.92,11.92,0,0,0,1.13,2.86A40.19,40.19,0,0,1,136.28,195.73Z"/><path class="cls-3" d="M49.42,188.62a27.15,27.15,0,0,1,2.91-11.09c2.46-4.53,6.42-6.52,11.43-6.35s9.75,1.86,14.29,4a6.64,6.64,0,0,1,1,.73c.57,1.58,1.21,3.13,1.7,4.73a26.8,26.8,0,0,1,.56,13.31,7.94,7.94,0,0,0-6.17,2.91c-.32.39-.49.5-1,.16a7.51,7.51,0,0,0-9-.33c-.68.41-.91,0-1.29-.35a7.7,7.7,0,0,0-10-.44,7.81,7.81,0,0,0-2.74,4.29,6.72,6.72,0,0,1-1.55-3.37c0-1.87,0-3.74-.05-5.61C49.63,190.34,49.93,189.44,49.42,188.62Z"/><path class="cls-4" d="M127.84,134.9c-.38,1.48-1.53,2.47-2.47,3.53a57.29,57.29,0,0,1-19,14.42A29.38,29.38,0,0,1,95.07,156c-4.14.14-8-1.26-11.65-2.94a57.64,57.64,0,0,1-18.31-13.22,20.39,20.39,0,0,1-3.87-5c1.11.16,2.22.38,3.34.48.65.06,1,.52,1.39.89a67.92,67.92,0,0,0,16.46,10.84c7.7,3.61,15.26,3.22,22.9-.17A67.83,67.83,0,0,0,122.43,136a2.11,2.11,0,0,1,1.22-.64C125.05,135.26,126.44,135.07,127.84,134.9Z"/><path class="cls-4" d="M81.34,193.94a26.8,26.8,0,0,0-.56-13.31c-.49-1.6-1.13-3.15-1.7-4.73a11.86,11.86,0,0,1,4.2,2.49c6,4.65,8.52,10.72,7.13,18.27a7.31,7.31,0,0,1-1.66,3.58C87.69,196.39,85.24,194.28,81.34,193.94Z"/><path class="cls-4" d="M147.06,169.92c12.35-1.09,22.22-7.14,30.92-15.51a48.51,48.51,0,0,0,8.69-10.36,40.24,40.24,0,0,0,2.31-5c.94-.34.93-1.33,1.37-2A28.61,28.61,0,0,1,192,134h0c-.89,5.33-2.67,10.26-6.48,14.27-1.59,1.67-3,3.51-4.63,5.13-7.28,7.27-15.28,13.41-25.54,15.86-2.36.56-4.79.87-7.2,1.21C147.88,170.49,147,171,147.06,169.92Z"/><path class="cls-4" d="M136.28,195.73a40.19,40.19,0,0,0-1.65-18.18,11.92,11.92,0,0,1-1.13-2.86c2.39,1.36,3.65,3.63,4.63,6a28.7,28.7,0,0,1,2.08,10.73,9.52,9.52,0,0,0,0,4.77,9.12,9.12,0,0,1-1.34,4.39A9.77,9.77,0,0,0,136.28,195.73Z"/><path class="cls-5" d="M119.54,205.43c-.87,0-1.73-.05-2.57-.13-2-.21-2.82-1.34-2.44-3.28a5.17,5.17,0,0,1,5.21-4.06,5.1,5.1,0,0,1,4.91,4.55,2.19,2.19,0,0,1-1.78,2.6A21,21,0,0,1,119.54,205.43Z"/><path class="cls-6" d="M139.38,177.1a57.3,57.3,0,0,0,13.12-32.44A61.4,61.4,0,0,0,151,126c-.07-.31-.11-.56-.51-.44a16.63,16.63,0,0,0,.25-3.56,38.55,38.55,0,0,1,1.91,6.89,46.62,46.62,0,0,1,1.1,11,58.79,58.79,0,0,1-4.39,22.5,62.82,62.82,0,0,1-8.9,15C139.7,178.39,139.57,177.75,139.38,177.1Z"/><path class="cls-6" d="M170.53,104.25c-1.16.23-.94.91-.51,1.63,2,3.32,4,6.6,5.92,9.94a29,29,0,0,1,4,11.65,21,21,0,0,1-4.5,15l-1.17.16c.32-1.76,1.38-3.13,1.93-4.71,1.2-3.5,2.36-7,2.27-10.79-.08-3.53-1.38-6.62-2.83-9.76-1.7-3.68-4.22-6.86-6.06-10.45a4.63,4.63,0,0,1-.48-2.44c0-.39,0-.85.43-1A.77.77,0,0,1,170.53,104.25Z"/><path class="cls-5" d="M62.12,204.71a14.06,14.06,0,0,1-6.95-1.53c-1.44-.69-1.73-1.63-1.17-3.15a5.16,5.16,0,0,1,8.5-1.56.92.92,0,0,1,.11,1.22A6.59,6.59,0,0,0,62.12,204.71Z"/><path class="cls-5" d="M112.21,204.75a13.84,13.84,0,0,1-7.53-1.92,1.72,1.72,0,0,1-.79-2.06A4.78,4.78,0,0,1,107.6,197a5.16,5.16,0,0,1,4.9,1.4c.49.42.4.79.14,1.33A6.74,6.74,0,0,0,112.21,204.75Z"/><path class="cls-7" d="M79.92,196.79A4.85,4.85,0,0,1,86,200.3a1.87,1.87,0,0,1-.95,2.39,14.92,14.92,0,0,1-6.89,1.8c-.71,0-1.18-.18-1.05-1.06a8,8,0,0,0-.24-2.66A5.9,5.9,0,0,0,79.92,196.79Z"/><path class="cls-8" d="M74.46,201.94l0,.51a33.41,33.41,0,0,1-9.52,2c-1-1.08-.62-2.28-.18-3.41A5.07,5.07,0,0,1,69.85,198a4.89,4.89,0,0,1,4.46,3.65A.23.23,0,0,0,74.46,201.94Z"/><path class="cls-5" d="M127.43,204.25c-.67-.75-.09-1.64-.29-2.47-.64-2.66-.39-3.31,1.26-4.36a5,5,0,0,1,5.91.18,7.24,7.24,0,0,1,.85.9C133.45,201.59,130.62,203.17,127.43,204.25Z"/><path class="cls-6" d="M37.14,145.56a57.34,57.34,0,0,0,11.64,29.8c.33.43.56,1,1.18,1.14-.45,1-.75,1.11-1.53.1a59.84,59.84,0,0,1-9.38-17.24,51.21,51.21,0,0,1-2.71-11.88,13.18,13.18,0,0,1-.2-3.33C36.72,144.5,36.35,145.43,37.14,145.56Z"/><path class="cls-7" d="M127.43,204.25c3.19-1.08,6-2.66,7.73-5.75,1.75,2.48,1.35,3.88-1.49,4.85C131.66,204,129.65,204.94,127.43,204.25Z"/><path class="cls-7" d="M65,204.45a33.41,33.41,0,0,0,9.52-2c.11,2-.47,2.57-2.76,2.82a6.78,6.78,0,0,0-3.94,0A3.46,3.46,0,0,1,65,204.45Z"/><path class="cls-9" d="M79.92,196.79a5.9,5.9,0,0,1-3.06,4c-.85-1.21,0-2,.73-2.78A3.8,3.8,0,0,1,79.92,196.79Z"/><path class="cls-10" d="M92.87,197.38c0,.61.42.64.87.63h2.67c.1.33.42.89,0,.94a13.84,13.84,0,0,1-3.58,0C92.52,198.91,92.55,197.91,92.87,197.38Zm2.87,1.08v-.13H93.26v.13Z"/><path class="cls-11" d="M49.42,188.62c.51.82.21,1.72.23,2.58.06,1.87,0,3.74.05,5.61C48.92,194.11,49.25,191.36,49.42,188.62Z"/><path class="cls-11" d="M99.74,188.57c-.27,2.66-.53,5.31-.8,8A15,15,0,0,1,99.74,188.57Z"/><path class="cls-11" d="M151.53,59.51c-.08-.2-.25-.41-.24-.62a14.34,14.34,0,0,0-.83-6C152,54.92,151.82,57.21,151.53,59.51Z"/><path class="cls-12" d="M56.73,133.73c-1.36.53-2.77.15-4.16.23s-2.48,0-3.72,0v-.35h4.33Z"/><path class="cls-12" d="M41,114.63a3,3,0,0,1,0,3.48Z"/><path class="cls-12" d="M96.14,196.17c-.08.13-.28.39-.28.3a22.82,22.82,0,0,1,.07-4.45s.08,0,.12,0a.48.48,0,0,1,.11.09C96.15,193.46,96.14,194.82,96.14,196.17Z"/><path class="cls-12" d="M61.38,168.59l-.1-.24a15.77,15.77,0,0,1,4.23,0,.2.2,0,0,1,0,.12s-.06.07-.08.11Z"/><path class="cls-13" d="M140.2,196.23a9.52,9.52,0,0,1,0-4.77C140.21,193.05,140.2,194.64,140.2,196.23Z"/><path class="cls-12" d="M39.41,70.11a1.42,1.42,0,0,1,.28-.37,19.75,19.75,0,0,1,0,4.21h-.12s-.07,0-.11-.08Z"/><path class="cls-12" d="M40.94,119.27a9.67,9.67,0,0,1,0,4.78Z"/><path class="cls-12" d="M93.47,191.56l.16-.64c0,1.46.57,2.93-.16,4.34,0,0,0-.11,0-.16s0-.06,0-.09c0-.28,0-.56,0-.83Z"/><path class="cls-14" d="M67.79,205.29a6.78,6.78,0,0,1,3.94,0A20,20,0,0,1,67.79,205.29Z"/><path class="cls-12" d="M41,124.64c1,.4.32,1.24.49,1.85-.43-.22-.17-.79-.52-1Z"/><path class="cls-11" d="M100,187.74c0,.32.09.68-.31.86A1.05,1.05,0,0,1,100,187.74Z"/><path class="cls-6" d="M37,144.13a1.07,1.07,0,0,1,.14.87A1,1,0,0,1,37,144.13Z"/><path class="cls-2" d="M192,134l.12-.38.1.07a3.45,3.45,0,0,1-.2.32Z"/><path class="cls-15" d="M93.5,194.18c0,.27,0,.55,0,.83A.64.64,0,0,1,93.5,194.18Z"/><path class="cls-11" d="M100.08,187.48a1.41,1.41,0,0,1,.06.22s-.08,0-.12.05A.43.43,0,0,1,100.08,187.48Z"/><path class="cls-7" d="M74.46,201.94a.23.23,0,0,1-.15-.33Z"/><path class="cls-12" d="M133,130.92l-.64-.14c2.45,0,4.9-.51,7.32.05Z"/><path class="cls-12" d="M49.4,130.83c2.32-.54,4.68-.14,7-.19.05,0-.19.21-.33.28Z"/><path class="cls-1" d="M140.8,133.38l-1.12,0A.69.69,0,0,1,140.8,133.38Z"/><path class="cls-1" d="M83.11,100v.58l-.07.51c-1.32,4.19-3.74,7.5-7.9,9.2A13.47,13.47,0,0,1,56.79,94.57,12.74,12.74,0,0,1,67,84.75,13.35,13.35,0,0,1,83.09,95.61a2.45,2.45,0,0,0,.2.51A12.33,12.33,0,0,1,83.11,100Zm-13.27,8.79A10.9,10.9,0,0,0,80.78,97.9,11,11,0,0,0,69.82,87,10.87,10.87,0,0,0,59,97.92,10.74,10.74,0,0,0,69.84,108.79Z"/><path class="cls-1" d="M133.2,97.92a13.46,13.46,0,1,1-13.41-13.49A13.35,13.35,0,0,1,133.2,97.92ZM119.64,108.8A10.91,10.91,0,0,0,119.85,87a10.91,10.91,0,1,0-.21,21.82Z"/><path class="cls-1" d="M84.53,70.17a6.24,6.24,0,0,1-.87,3.1,10.84,10.84,0,0,1-10.23,6.12,8.17,8.17,0,0,1-7.71-5A26.27,26.27,0,0,1,64,67a45.39,45.39,0,0,1,.72-15.59c1-3.86,3.05-4.75,6.1-2.31a38.56,38.56,0,0,1,13.46,19.4A11.47,11.47,0,0,1,84.53,70.17Zm-17-19.1a5.28,5.28,0,0,0-.34.91,42.81,42.81,0,0,0,.25,19.53c.9,3.51,2.4,4.73,6,5.13,2.19.25,5.87-1.13,6.56-2.92a3.28,3.28,0,0,0,.56-.39c1.7-1.84,1.58-3.9.74-6a41.41,41.41,0,0,0-7.12-11.45,23.49,23.49,0,0,0-5.35-5C68.39,50.57,67.81,50.05,67.57,51.07Z"/><path class="cls-1" d="M125.85,61.88a42.75,42.75,0,0,1-1.14,10c-1,4.43-3.77,6.77-8.18,7.33-5.75.74-13.77-5.27-10.77-12.58a44,44,0,0,1,12.67-17.38c.15-.12.31-.21.47-.32,3-2,4.81-1.42,5.86,2.11A36.37,36.37,0,0,1,125.85,61.88ZM123.26,61a32.58,32.58,0,0,0-.87-8.95c-.45-1.88-.74-2-2.35-.8l-.22.17a41.68,41.68,0,0,0-11.57,15.89c-1.18,2.81-.39,5.08,1.73,7.08,4.4,4.14,10.68,2.45,12.25-3.34A34.57,34.57,0,0,0,123.26,61Z"/><path class="cls-1" d="M101.23,123.1c.09,3.61-1.38,5.61-4.64,6.5A6.9,6.9,0,0,1,89,126.68c-1-1.7-.77-3.56-.46-5.36a30.08,30.08,0,0,1,3.49-9.9,8.38,8.38,0,0,1,1-1.37c1.23-1.36,2.34-1.4,3.61-.09a15.64,15.64,0,0,1,3.14,5.93A21.78,21.78,0,0,1,101.23,123.1Zm-6.37-11.25c-2.19,2.85-4.18,9.16-3.94,12.32.15,1.9,1.68,3.08,4,3,2.13,0,3.63-1.33,3.72-3.17a15.37,15.37,0,0,0-.61-4.73A23.13,23.13,0,0,0,94.86,111.85Z"/><path class="cls-16" d="M97.2,135.42a5.5,5.5,0,0,1,3.71-5.23,2.6,2.6,0,0,1,3.37,2.06,5.69,5.69,0,0,1-2.48,5.6,3,3,0,0,1-3.19.33A2.76,2.76,0,0,1,97.2,135.42Z"/><path class="cls-16" d="M92.4,135.32A3,3,0,0,1,91,138.18a2.9,2.9,0,0,1-3.06-.26,5.56,5.56,0,0,1-2.57-5.8,2.57,2.57,0,0,1,3.6-1.83A5.64,5.64,0,0,1,92.4,135.32Z"/><path class="cls-12" d="M83.11,100a12.33,12.33,0,0,0,.18-3.88c.76.95.16,2,.33,3.06C83.69,99.56,83.61,99.93,83.11,100Z"/><path class="cls-12" d="M83,101.09l.07-.51a.45.45,0,0,1,.2.54C83.23,101.31,83.12,101.18,83,101.09Z"/><path class="cls-1" d="M95.74,198.46H93.26v-.13h2.49Z"/><path class="cls-8" d="M69.84,108.79A10.74,10.74,0,0,1,59,97.92,10.87,10.87,0,0,1,69.82,87a11,11,0,0,1,11,10.92A10.9,10.9,0,0,1,69.84,108.79Zm-1-8.67a4,4,0,1,0,8,0,4,4,0,1,0-8,0Z"/><path class="cls-8" d="M119.64,108.8a10.91,10.91,0,1,1,11-10.63A10.88,10.88,0,0,1,119.64,108.8ZM117,96a4,4,0,0,0-4,4,4,4,0,1,0,8,0A4,4,0,0,0,117,96Z"/><path class="cls-8" d="M80,73.72c-.69,1.79-4.37,3.17-6.56,2.92-3.55-.4-5.05-1.62-6-5.13A42.81,42.81,0,0,1,67.23,52a5.28,5.28,0,0,1,.34-.91,11.09,11.09,0,0,1,2.09,1.65A40.29,40.29,0,0,1,77.05,63.3C78.7,66.57,80.3,69.88,80,73.72Z"/><path class="cls-7" d="M80,73.72c.31-3.84-1.29-7.15-2.94-10.42a40.29,40.29,0,0,0-7.39-10.58,11.09,11.09,0,0,0-2.09-1.65c.24-1,.82-.5,1.25-.23a23.49,23.49,0,0,1,5.35,5,41.41,41.41,0,0,1,7.12,11.45c.84,2.15,1,4.21-.74,6A3.28,3.28,0,0,1,80,73.72Z"/><path class="cls-8" d="M123.26,61a34.57,34.57,0,0,1-1,10.05c-1.57,5.79-7.85,7.48-12.25,3.34-2.12-2-2.91-4.27-1.73-7.08a41.68,41.68,0,0,1,11.57-15.89l.22-.17c1.61-1.17,1.9-1.08,2.35.8A32.58,32.58,0,0,1,123.26,61Z"/><path class="cls-9" d="M94.86,111.85A23.13,23.13,0,0,1,98,119.31a15.37,15.37,0,0,1,.61,4.73c-.09,1.84-1.59,3.14-3.72,3.17-2.3,0-3.83-1.14-4-3C90.68,121,92.67,114.7,94.86,111.85Z"/><path class="cls-1" d="M68.85,100.12a4,4,0,1,1,8,0,4,4,0,1,1-8,0Z"/><path class="cls-1" d="M117,96a4,4,0,0,1,4,4,4,4,0,1,1-8,0A4,4,0,0,1,117,96Z"/></g></svg>