<svg xmlns="http://www.w3.org/2000/svg" viewBox="0 0 503 160"><defs><style>.cls-1{fill:#ffdea2;}.cls-2{fill:#0c090e;}.cls-3{fill:#271c32;}.cls-4{fill:#febb20;}.cls-5{fill:#b59530;}.cls-6{fill:#271d33;}.cls-7{fill:#7c5c9c;}.cls-8{fill:#8362a8;}.cls-9{fill:#06030a;}.cls-10{fill:#fbfbfb;}.cls-11{fill:#afafb0;}.cls-12{fill:#f2f1f1;}</style></defs><g id="Layer_5" data-name="Layer 5"><rect class="cls-1" width="503" height="159.12"/><path class="cls-2" d="M484.25,108.69c-.7,2.15-1,4.4-1.8,6.51a36,36,0,0,1-7.38,11.5c-6,6.34-12.52,12-20.48,15.83a45.24,45.24,0,0,1-16.95,4.38,1.51,1.51,0,0,0-1.39.72,39.91,39.91,0,0,1-3.86,5.19,1.71,1.71,0,0,0-.26,2,36.81,36.81,0,0,1,1.94,16.76c-.58,5.75-4.57,9.63-10.64,11a29.29,29.29,0,0,1-6.39.89c-.26,0-.58-.11-.72.25H405c-1.68-.55-3.47-.45-5.19-.82-3.92-.86-7.83-2-9.86-5.73-1.26-2.28-2.68-2.71-4.93-2.56a2.92,2.92,0,0,0-2.68,1.43c-2.12,3.2-5.44,4.66-9.05,5.39-6.46,1.32-13,1.16-19.53.65a25.35,25.35,0,0,1-7.89-1.78,11.86,11.86,0,0,1-7.68-10.51A38.93,38.93,0,0,1,340,154.1a1.57,1.57,0,0,0-.44-1.72,58.7,58.7,0,0,1-10.66-19.86,59.82,59.82,0,0,1-2.3-24.77c.49-4.29,1.75-8.39,2.7-12.57,1.13-5,1.17-10-3.07-14a54.7,54.7,0,0,1-5.47-5.91c-3.15-4-3.34-8.15-1-12.56a47.25,47.25,0,0,1,5.1-7.56c3.39-4.22,4-8.87,2.84-14a44.93,44.93,0,0,1-1.34-8.73c-.21-6.15,3.13-8.8,7.3-10.38a38.09,38.09,0,0,1,7.14-1.93,18.66,18.66,0,0,0,13-8.72,29.94,29.94,0,0,1,4.18-5c3.92-3.81,8.35-5,13.47-2.65,2.67,1.22,5.35,2.43,8,3.68a14.81,14.81,0,0,0,13,0c3.1-1.39,6.1-3,9.3-4.19,4.31-1.61,8-.52,11.33,2.28A30.1,30.1,0,0,1,418.72,12a17.93,17.93,0,0,0,12,7.83,41.67,41.67,0,0,1,8.59,2.45c4.77,2.08,6.78,5.56,6.34,10.71-.3,3.37-1.09,6.65-1.68,10A13.64,13.64,0,0,0,446,53.66a95.35,95.35,0,0,1,5.52,8.14c1.83,3.29,2.93,6.69,1.32,10.43a14.32,14.32,0,0,1-2.48,3.89c-1.76,2-3.63,3.82-5.46,5.73a1.59,1.59,0,0,1,.58-1.36c1.67-1.83,3.35-3.65,5-5.53,2.18-2.55,3.24-5.38,1.68-8.66-.61-1.28-1.35-2.51-2-3.76-.23.35.08.87-.38,1.14-1.8-3.09-4-5.91-6-8.87a15.69,15.69,0,0,1-2.34-12.12c.52-2.91,1.3-5.78,1.53-8.74.29-2.3.46-4.59-1.07-6.6-1-1.7-2.72-2.38-4.43-3a62.18,62.18,0,0,0-8.29-2.23,18.72,18.72,0,0,1-11.41-7.22,39.87,39.87,0,0,0-6.38-7.35c-2.75-2.3-5.72-3-9.17-1.66-2.62,1.05-5.16,2.28-7.68,3.53a18.19,18.19,0,0,1-17.07.07,79.36,79.36,0,0,0-8.08-3.67A8,8,0,0,0,361.21,7a26.11,26.11,0,0,0-5.6,6.13c-3.19,4.64-7.2,8-12.88,9.14a47.75,47.75,0,0,0-9.21,2.58A7,7,0,0,0,328.84,32c.13,4.25,1.36,8.33,1.93,12.51v3.77l-.39,1.62c-.77,3-2.64,5.48-4.42,8a41.32,41.32,0,0,0-4.45,7,7.77,7.77,0,0,0,.82,8.25A37.27,37.27,0,0,0,327,78.41c3.08,2.91,5.24,6.26,5.33,10.65l-.05,3.49,0,1.16v4.78l0,.59,0,.8c-.12.8-.47-1-.59.06a6.91,6.91,0,0,0,4.52,6.6,11.59,11.59,0,0,0,4.46.43,38.05,38.05,0,0,1,9.83,0,15.38,15.38,0,0,1,7.25,3.16c6.34,5,13,9.28,20.75,11.64a20.34,20.34,0,0,0,11.23.43,52,52,0,0,0,19.33-9.84,15.84,15.84,0,0,1,7-3.42,8.17,8.17,0,0,0,2.44-.61c3.55-1.93,7.31-1.28,11-1.08.39,0,.62.18.66.58-2.15.08-4.3.15-6.45.25a9.79,9.79,0,0,0-4.54,1.22c-1.4.17-2.79.37-4.19.51a2.12,2.12,0,0,0-1.22.63,67.59,67.59,0,0,1-17.1,10.89c-7.64,3.39-15.2,3.78-22.9.17a67.73,67.73,0,0,1-16.47-10.85c-.41-.36-.73-.82-1.39-.88-1.11-.11-2.22-.32-3.34-.49a10,10,0,0,0-4.5-1.15l-3.55-.1c-1.88-.08-3.76-.1-5.63-.24-4.21-.29-7.6-1.79-8.86-6.27a1.44,1.44,0,0,0-.23-.37,61.8,61.8,0,0,0-1.51,17.39,1,1,0,0,0,.14.87l0,.56c-.78-.13-.42-1.07-1-1.41a13.18,13.18,0,0,0,.2,3.33,51.33,51.33,0,0,0,2.71,11.88A59.94,59.94,0,0,0,339.78,151c.78,1,1.09.92,1.54-.11a15.34,15.34,0,0,1,2.61-3.64,14.86,14.86,0,0,1,8.8-4.26l4.07,0a1.4,1.4,0,0,0,.38.16A41.65,41.65,0,0,1,372,148c5.55,3,9.95,7.07,11.95,13.3.49,1.52.59,3.12.93,4.67l0,2.62a.64.64,0,0,0,0,.84.2.2,0,0,0,0,.08.84.84,0,0,0,.05.17l-.6,2.12c-.32.53-.35,1.53-.07,1.57a13.84,13.84,0,0,0,3.58,0c.45,0,.13-.61,0-.95a4.21,4.21,0,0,0-.28-1.83l0-4.07a1.43,1.43,0,0,0,.15-.39,19.94,19.94,0,0,1,7.87-13.68,39.92,39.92,0,0,1,17.64-7.74c4.63-.91,9.19-.68,13.26,2.19a20.29,20.29,0,0,1,4.3,4.62c.19.64.32,1.29,1.08.33a62.78,62.78,0,0,0,8.89-15,58.65,58.65,0,0,0,4.4-22.5,46.12,46.12,0,0,0-1.11-11,38,38,0,0,0-1.9-6.89,15.82,15.82,0,0,1-.26,3.55,7.6,7.6,0,0,1-1.65,4.48c-.73-.67.1-1.2.22-1.75A60.82,60.82,0,0,0,441.54,91a9.65,9.65,0,0,1,.6-4c-.88,4.3.87,8.17,2,12.16a59.65,59.65,0,0,1,1.71,21.49,67.33,67.33,0,0,1-1.37,8.32,48.6,48.6,0,0,0,8.36-3.49,31.55,31.55,0,0,0,14.09-13.52c2.91-5.58,2.4-11.28-.07-16.9A92.3,92.3,0,0,0,460.52,84a12.66,12.66,0,0,1-2.09-4.4c-.28-1.74.46-2.74,2.18-3.16a7.92,7.92,0,0,1,6.1.89,36.66,36.66,0,0,1,14.67,16.09,25.39,25.39,0,0,1,2.62,9.08c0,.1.16.19.25.28Zm-92.87,53.5v0a1.05,1.05,0,0,0-.31.87l0,0a15,15,0,0,0-.8,8,9.42,9.42,0,0,0,2.19,5.46c.34-3.67,1.91-6,4.73-7.13a7.51,7.51,0,0,1,8.25,1.57,1,1,0,0,0,1.44.1,6.92,6.92,0,0,1,7.26-.34c1.5.85,2.25.84,3.59-.39,2.74-2.53,5.86-2.38,9.88-.07a9.59,9.59,0,0,1,2.57,4.89,9.17,9.17,0,0,0,1.35-4.39V165.9a29,29,0,0,0-2.08-10.74c-1-2.4-2.24-4.68-4.63-6a9.45,9.45,0,0,0-6.52-2.2c-7.22,0-13.69,2.52-19.65,6.42a17.93,17.93,0,0,0-7.25,8.57A.42.42,0,0,0,391.38,162.19Zm-32.23,17.53a19.22,19.22,0,0,0,3.94,0c2.29-.24,2.87-.83,2.76-2.82l0-.5-.15-.33a4.92,4.92,0,0,0-4.46-3.66,5.11,5.11,0,0,0-5.07,3.08c-.43,1.13-.82,2.33.19,3.42A3.41,3.41,0,0,0,359.15,179.72Zm59.64-1c2.22.69,4.23-.22,6.23-.9,2.85-1,3.24-2.38,1.5-4.85a8.17,8.17,0,0,0-.85-.91,5,5,0,0,0-5.91-.17c-1.65,1-1.9,1.7-1.26,4.36C418.7,177.05,418.12,177.94,418.79,178.69Zm-50.57-3.48a7.67,7.67,0,0,1,.23,2.65c-.12.89.35,1.07,1.06,1.07a14.92,14.92,0,0,0,6.89-1.8,1.89,1.89,0,0,0,1-2.39,4.85,4.85,0,0,0-6.08-3.51,3.8,3.8,0,0,0-2.32,1.2C368.18,173.18,367.36,174,368.22,175.21ZM483.39,108.4a30.71,30.71,0,0,0-1.69,3.08c-.43.69-.42,1.68-1.36,2a23.63,23.63,0,0,0,.94-12.11c-1.56-8-6-14.24-12.12-19.34-2.11-1.75-4.3-3.43-7.27-3.36a.77.77,0,0,0-1-.72c-.42.1-.42.57-.43,1a4.67,4.67,0,0,0,.48,2.45c1.83,3.59,4.36,6.77,6.06,10.45,1.45,3.13,2.75,6.23,2.83,9.76.09,3.8-1.07,7.28-2.28,10.79-.54,1.58-1.6,2.94-1.92,4.71l1.17-.16a31.48,31.48,0,0,1-5.25,5.69c-4.85,4.38-10.7,6.89-16.77,9-.52.18-1.11.18-1.31.88a71.89,71.89,0,0,1-5.06,11.88c-.07,1.09.82.58,1.14.54,2.41-.34,4.83-.65,7.2-1.21,10.25-2.46,18.26-8.6,25.54-15.86,1.63-1.63,3-3.46,4.63-5.13,3.81-4,5.58-8.94,6.48-14.27.06-.11.14-.21.2-.32l-.1-.07Zm-110.69,60c3.9.33,6.35,2.45,7.41,6.3a7.3,7.3,0,0,0,1.66-3.59c1.39-7.55-1.11-13.62-7.13-18.26a11.71,11.71,0,0,0-4.2-2.49,7.15,7.15,0,0,0-1-.73c-4.54-2.13-9.23-3.82-14.29-4s-9,1.81-11.43,6.35a27.07,27.07,0,0,0-2.91,11.09c-.18,2.74-.51,5.48.28,8.19a6.57,6.57,0,0,0,1.55,3.36,7.86,7.86,0,0,1,2.73-4.28,7.71,7.71,0,0,1,10,.43c.38.33.61.77,1.29.35a7.51,7.51,0,0,1,8.95.34c.47.34.65.23,1-.16A7.94,7.94,0,0,1,372.7,168.38Zm38.2,11.48a20.94,20.94,0,0,0,3.33-.31A2.18,2.18,0,0,0,416,177a5.11,5.11,0,0,0-4.91-4.56,5.19,5.19,0,0,0-5.2,4.07c-.38,1.94.44,3.06,2.44,3.27C409.17,179.82,410,179.82,410.9,179.86Zm-57.42-.71a6.63,6.63,0,0,1,.48-5,.9.9,0,0,0-.11-1.22,5.15,5.15,0,0,0-8.49,1.55c-.56,1.53-.27,2.47,1.17,3.16A14,14,0,0,0,353.48,179.15Zm50.08,0a6.74,6.74,0,0,1,.44-5c.26-.55.35-.92-.14-1.34a5.13,5.13,0,0,0-4.9-1.39,4.79,4.79,0,0,0-3.72,3.76,1.72,1.72,0,0,0,.8,2.06A13.91,13.91,0,0,0,403.56,179.19Z"/><path class="cls-3" d="M449.71,63.68c.46-.27.15-.79.38-1.14.69,1.25,1.43,2.48,2,3.76,1.56,3.28.5,6.11-1.68,8.66-1.61,1.88-3.29,3.7-5,5.53a1.59,1.59,0,0,0-.58,1.36l-1.11,1.37c-.72.09-.82.61-.83,1.19l0,0c-.32.11-.35.35-.29.63l0,0c-.49.14-.36.53-.35.87l0,0c-.55.28-.3.77-.3,1.19h0a9.65,9.65,0,0,0-.6,4,60.82,60.82,0,0,1-1.13,11.74c-.12.55-1,1.08-.22,1.75-2,2.66-4.94,3.23-8,3.32a.68.68,0,0,0-1.11,0l-.85,0c0-.4-.27-.55-.66-.58-3.73-.2-7.49-.85-11,1.08a8.17,8.17,0,0,1-2.44.61,15.84,15.84,0,0,0-7,3.42,52,52,0,0,1-19.33,9.84,20.34,20.34,0,0,1-11.23-.43c-7.79-2.36-14.41-6.65-20.75-11.64a15.38,15.38,0,0,0-7.25-3.16,38.05,38.05,0,0,0-9.83,0,11.59,11.59,0,0,1-4.46-.43,6.91,6.91,0,0,1-4.52-6.6c.12-1.09.47.74.59-.06.35.26.1.82.53,1.05a3.93,3.93,0,0,0,2.74,3.53,11.06,11.06,0,0,0,5.22.8l6.68.1c2.79.18,5.34,1.48,8.1,1.76a6.42,6.42,0,0,1,3.79,1.86,60.61,60.61,0,0,0,15.8,10.28,22.89,22.89,0,0,0,18.35.56,61.87,61.87,0,0,0,18.72-11.4,3.09,3.09,0,0,1,1.93-1.06c3.53,0,6.72-1.78,10.2-2l6.69-.09c6.13.29,8.47-1.92,8.52-8.05,0-.8,0-1.6,0-2.4,0-2.22-.06-4.43,0-6.64A11,11,0,0,1,442,81.42c1.85-2.33,4.12-4.27,6-6.53a12.87,12.87,0,0,0,2.79-4.69C451.51,67.84,450.58,65.77,449.71,63.68Z"/><path class="cls-2" d="M443,84.41c0-.58.11-1.1.83-1.19Z"/><path class="cls-2" d="M442.13,87c0-.42-.25-.91.3-1.19C442.29,86.17,442.49,86.64,442.13,87Z"/><path class="cls-2" d="M442.4,85.83c0-.34-.14-.73.35-.87C442.61,85.24,442.72,85.62,442.4,85.83Z"/><path class="cls-2" d="M442.71,85c-.06-.28,0-.52.29-.63C442.93,84.59,443,84.87,442.71,85Z"/><path class="cls-4" d="M424.33,105.35c-3.48.23-6.67,2-10.2,2a3.09,3.09,0,0,0-1.93,1.06,61.87,61.87,0,0,1-18.72,11.4,22.89,22.89,0,0,1-18.35-.56A60.61,60.61,0,0,1,359.33,109a6.42,6.42,0,0,0-3.79-1.86c-2.76-.28-5.31-1.58-8.1-1.76.14-.08.38-.29.33-.29-2.34.06-4.69-.35-7,.19a11.06,11.06,0,0,1-5.22-.8,3.93,3.93,0,0,1-2.74-3.53c-.17-.62.48-1.45-.49-1.85l0-.59a9.79,9.79,0,0,0,0-4.78l0-1.16a3,3,0,0,0,.05-3.49c-.09-4.39-2.25-7.74-5.33-10.65a37.27,37.27,0,0,1-4.71-5.25,7.77,7.77,0,0,1-.82-8.25,41.32,41.32,0,0,1,4.45-7c1.78-2.49,3.65-4.92,4.42-8l.39-1.62.11.08H331a20.43,20.43,0,0,0,.05-4.21,1.3,1.3,0,0,0-.28.36c-.57-4.18-1.8-8.26-1.93-12.51a7,7,0,0,1,4.68-7.15,47.75,47.75,0,0,1,9.21-2.58c5.68-1.16,9.69-4.5,12.88-9.14A26.11,26.11,0,0,1,361.21,7a8,8,0,0,1,8.1-1.25,79.36,79.36,0,0,1,8.08,3.67,18.19,18.19,0,0,0,17.07-.07c2.52-1.25,5.06-2.48,7.68-3.53,3.45-1.39,6.42-.64,9.17,1.66a39.87,39.87,0,0,1,6.38,7.35,18.72,18.72,0,0,0,11.41,7.22,62.18,62.18,0,0,1,8.29,2.23c1.71.66,3.42,1.34,4.43,3a14.31,14.31,0,0,1,.83,6c0,.2.16.41.24.62-.23,3-1,5.83-1.53,8.74a15.69,15.69,0,0,0,2.34,12.12c2,3,4.21,5.78,6,8.87.87,2.09,1.8,4.16,1.13,6.52a12.87,12.87,0,0,1-2.79,4.69c-1.92,2.26-4.19,4.2-6,6.53a11,11,0,0,0-2.49,6.75c0,2.21,0,4.42,0,6.64,0,.8,0,1.6,0,2.4-.05,6.13-2.39,8.34-8.52,8.05-2.43-.55-4.87-.09-7.32-.05ZM374.4,75.53c.08.09.19.21.26,0a.42.42,0,0,0-.2-.54v-.59c.5-.06.58-.43.51-.81-.17-1,.43-2.11-.33-3.06a2.69,2.69,0,0,1-.2-.51,13.35,13.35,0,0,0-16.09-10.87A12.75,12.75,0,0,0,348.15,69,13.47,13.47,0,0,0,366.5,84.73C370.66,83,373.08,79.72,374.4,75.53Zm50.16-3.18a13.46,13.46,0,1,0-13.42,13.47A13.4,13.4,0,0,0,424.56,72.35ZM375.89,44.61a11.47,11.47,0,0,0-.26-1.66,38.56,38.56,0,0,0-13.46-19.4c-3.05-2.45-5.15-1.55-6.11,2.31a45.84,45.84,0,0,0-.72,15.58,26.7,26.7,0,0,0,1.74,7.39,8.15,8.15,0,0,0,7.71,5A10.8,10.8,0,0,0,375,47.71,6.15,6.15,0,0,0,375.89,44.61Zm41.32-8.29a36.67,36.67,0,0,0-1.09-10.81c-1.06-3.53-2.81-4.14-5.86-2.11a3.88,3.88,0,0,0-.47.32A44.08,44.08,0,0,0,397.11,41.1c-3,7.31,5,13.31,10.78,12.58,4.41-.57,7.15-2.9,8.18-7.33A43.34,43.34,0,0,0,417.21,36.32ZM392.59,97.54a21.72,21.72,0,0,0-1.5-7.21A15.57,15.57,0,0,0,388,84.4c-1.27-1.31-2.38-1.28-3.61.09a8.3,8.3,0,0,0-1,1.36,30,30,0,0,0-3.49,9.91c-.31,1.8-.54,3.65.46,5.36A6.9,6.9,0,0,0,388,104C391.21,103.14,392.68,101.15,392.59,97.54Zm-4,12.32a2.78,2.78,0,0,0,1.41,2.76,3,3,0,0,0,3.18-.33,5.7,5.7,0,0,0,2.49-5.6,2.6,2.6,0,0,0-3.38-2.06A5.51,5.51,0,0,0,388.56,109.86Zm-4.8-.1a5.67,5.67,0,0,0-3.47-5,2.58,2.58,0,0,0-3.6,1.84,5.58,5.58,0,0,0,2.56,5.8,2.92,2.92,0,0,0,3.07.26A3,3,0,0,0,383.76,109.76Z"/><path class="cls-4" d="M430.19,107.86l.85,0,1.11,0c3.1-.09,6-.66,8-3.32a7.6,7.6,0,0,0,1.65-4.48c.41-.11.45.14.52.45a61.4,61.4,0,0,1,1.5,18.63,57.37,57.37,0,0,1-13.12,32.44,20.29,20.29,0,0,0-4.3-4.62c-4.07-2.87-8.63-3.1-13.26-2.19a39.92,39.92,0,0,0-17.64,7.74,19.94,19.94,0,0,0-7.87,13.68,1.43,1.43,0,0,1-.15.39l-.11-.08a.28.28,0,0,0-.12,0,22.91,22.91,0,0,0-.07,4.46c0,.09.2-.17.27-.3a4.21,4.21,0,0,1,.28,1.83H385.1c-.45,0-.87,0-.87-.63l.6-2.12c.73-1.41.17-2.89.16-4.34l-.16.63c-.34-1.55-.44-3.15-.93-4.67-2-6.23-6.4-10.31-11.95-13.3a41.65,41.65,0,0,0-14.77-4.85,1.4,1.4,0,0,1-.38-.16.75.75,0,0,0,.07-.12.15.15,0,0,0,0-.12,16.12,16.12,0,0,0-4.22,0l.09.24a14.86,14.86,0,0,0-8.8,4.26,15.34,15.34,0,0,0-2.61,3.64c-.62-.14-.85-.71-1.18-1.13A57.47,57.47,0,0,1,328.49,120l0-.56a1.07,1.07,0,0,0-.14-.87,61.8,61.8,0,0,1,1.51-17.39,1.44,1.44,0,0,1,.23.37c1.26,4.48,4.65,6,8.86,6.27,1.87.14,3.75.16,5.63.24H340.2v.35c1.25,0,2.49,0,3.73,0s2.8.29,4.16-.24a10,10,0,0,1,4.5,1.15,20.29,20.29,0,0,0,3.88,5,57.71,57.71,0,0,0,18.3,13.22c3.7,1.67,7.51,3.08,11.66,2.94a29.43,29.43,0,0,0,11.33-3.17,57.43,57.43,0,0,0,19-14.42c.94-1.06,2.09-2.05,2.47-3.54a9.79,9.79,0,0,1,4.54-1.22C425.89,108,428,107.94,430.19,107.86Z"/><path class="cls-4" d="M461.89,78.69c3-.07,5.16,1.61,7.27,3.36,6.16,5.1,10.56,11.34,12.12,19.34a23.63,23.63,0,0,1-.94,12.11,38.16,38.16,0,0,1-2.32,5,47.94,47.94,0,0,1-8.68,10.36c-8.71,8.37-18.57,14.42-30.92,15.51a71.89,71.89,0,0,0,5.06-11.88c.2-.7.79-.7,1.31-.88,6.07-2.09,11.92-4.6,16.77-9a31.48,31.48,0,0,0,5.25-5.69,21,21,0,0,0,4.5-15,28.87,28.87,0,0,0-4-11.64c-1.92-3.34-3.94-6.63-5.91-9.94C460.94,79.59,460.73,78.92,461.89,78.69Z"/><path class="cls-4" d="M427.64,170.17c-4-2.31-7.14-2.46-9.88.07-1.34,1.23-2.09,1.24-3.59.39a6.92,6.92,0,0,0-7.26.34,1,1,0,0,1-1.44-.1,7.51,7.51,0,0,0-8.25-1.57c-2.82,1.1-4.39,3.46-4.73,7.13A9.42,9.42,0,0,1,390.3,171c.27-2.65.53-5.31.8-8l0,0c.4-.18.31-.54.31-.87v0s.12,0,.12-.06a1.66,1.66,0,0,0-.06-.21,17.93,17.93,0,0,1,7.25-8.57c6-3.9,12.43-6.4,19.65-6.42a9.45,9.45,0,0,1,6.52,2.2c.09,1.06.79,1.88,1.12,2.85A40.23,40.23,0,0,1,427.64,170.17Z"/><path class="cls-4" d="M340.78,163.06A27.07,27.07,0,0,1,343.69,152c2.46-4.54,6.42-6.52,11.43-6.35s9.75,1.86,14.29,4a7.15,7.15,0,0,1,1,.73c.57,1.57,1.21,3.13,1.7,4.73a26.8,26.8,0,0,1,.56,13.31,7.94,7.94,0,0,0-6.17,2.91c-.32.39-.5.5-1,.16a7.51,7.51,0,0,0-8.95-.34c-.68.42-.91,0-1.29-.35a7.71,7.71,0,0,0-10-.43,7.86,7.86,0,0,0-2.73,4.28,6.57,6.57,0,0,1-1.55-3.36c0-1.87,0-3.74-.05-5.61C341,164.78,341.28,163.88,340.78,163.06Z"/><path class="cls-5" d="M419.2,109.33c-.38,1.49-1.53,2.48-2.47,3.54a57.43,57.43,0,0,1-19,14.42,29.43,29.43,0,0,1-11.33,3.17c-4.15.14-8-1.27-11.66-2.94a57.71,57.71,0,0,1-18.3-13.22,20.29,20.29,0,0,1-3.88-5c1.12.17,2.23.38,3.34.49.66.06,1,.52,1.39.88a67.73,67.73,0,0,0,16.47,10.85c7.7,3.61,15.26,3.22,22.9-.17a67.59,67.59,0,0,0,17.1-10.89,2.12,2.12,0,0,1,1.22-.63C416.41,109.7,417.8,109.5,419.2,109.33Z"/><path class="cls-5" d="M372.7,168.38a26.8,26.8,0,0,0-.56-13.31c-.49-1.6-1.13-3.16-1.7-4.73a11.71,11.71,0,0,1,4.2,2.49c6,4.64,8.52,10.71,7.13,18.26a7.3,7.3,0,0,1-1.66,3.59C379.05,170.83,376.6,168.71,372.7,168.38Z"/><path class="cls-5" d="M438.42,144.35c12.35-1.09,22.21-7.14,30.92-15.51A47.94,47.94,0,0,0,478,118.48a38.16,38.16,0,0,0,2.32-5c.94-.34.93-1.33,1.36-2a30.71,30.71,0,0,1,1.69-3.08l0,0c-.9,5.33-2.67,10.25-6.48,14.27-1.59,1.67-3,3.5-4.63,5.13-7.28,7.26-15.29,13.4-25.54,15.86-2.37.56-4.79.87-7.2,1.21C439.24,144.93,438.35,145.44,438.42,144.35Z"/><path class="cls-5" d="M427.64,170.17A40.23,40.23,0,0,0,426,152c-.33-1-1-1.79-1.12-2.85,2.39,1.35,3.65,3.63,4.63,6a29,29,0,0,1,2.08,10.74,9.4,9.4,0,0,0,0,4.77,9.17,9.17,0,0,1-1.35,4.39A9.59,9.59,0,0,0,427.64,170.17Z"/><path class="cls-6" d="M430.74,151.54a57.37,57.37,0,0,0,13.12-32.44,61.4,61.4,0,0,0-1.5-18.63c-.07-.31-.11-.56-.52-.45a15.82,15.82,0,0,0,.26-3.55,38,38,0,0,1,1.9,6.89,46.12,46.12,0,0,1,1.11,11,58.65,58.65,0,0,1-4.4,22.5,62.78,62.78,0,0,1-8.89,15C431.06,152.83,430.93,152.18,430.74,151.54Z"/><path class="cls-6" d="M461.89,78.69c-1.16.23-.95.9-.51,1.63,2,3.31,4,6.6,5.91,9.94a28.87,28.87,0,0,1,4,11.64,21,21,0,0,1-4.5,15l-1.17.16c.32-1.77,1.38-3.13,1.92-4.71,1.21-3.51,2.37-7,2.28-10.79-.08-3.53-1.38-6.63-2.83-9.76-1.7-3.68-4.23-6.86-6.06-10.45a4.67,4.67,0,0,1-.48-2.45c0-.38,0-.85.43-1A.77.77,0,0,1,461.89,78.69Z"/><path class="cls-6" d="M328.49,120a57.47,57.47,0,0,0,11.65,29.8c.33.42.56,1,1.18,1.13-.45,1-.76,1.12-1.54.11a59.94,59.94,0,0,1-9.37-17.24,51.33,51.33,0,0,1-2.71-11.88,13.18,13.18,0,0,1-.2-3.33C328.07,118.93,327.71,119.87,328.49,120Z"/><path class="cls-7" d="M442.89,34c-.08-.21-.25-.42-.24-.62a14.31,14.31,0,0,0-.83-6C443.35,29.36,443.18,31.65,442.89,34Z"/><path class="cls-8" d="M348.09,108.16c-1.36.53-2.77.16-4.16.24s-2.48,0-3.73,0v-.35h4.34Z"/><path class="cls-8" d="M332.37,89.06a3,3,0,0,1-.05,3.49Z"/><path class="cls-8" d="M352.73,143l-.09-.24a16.12,16.12,0,0,1,4.22,0,.15.15,0,0,1,0,.12.75.75,0,0,1-.07.12Z"/><path class="cls-8" d="M330.77,44.54a1.3,1.3,0,0,1,.28-.36,20.43,20.43,0,0,1-.05,4.21h-.12l-.11-.08Z"/><path class="cls-8" d="M332.3,93.71a9.79,9.79,0,0,1,0,4.78Z"/><path class="cls-8" d="M332.31,99.08c1,.4.32,1.23.49,1.85-.43-.23-.18-.79-.53-1.05C332.29,99.61,332.3,99.35,332.31,99.08Z"/><path class="cls-6" d="M328.31,118.57a1.07,1.07,0,0,1,.14.87A1,1,0,0,1,328.31,118.57Z"/><path class="cls-3" d="M483.39,108.4l.12-.37.1.07c-.06.11-.14.21-.2.32Z"/><path class="cls-8" d="M424.33,105.35l-.63-.14c2.45,0,4.89-.5,7.32.05Z"/><path class="cls-8" d="M340.76,105.26c2.32-.54,4.67-.13,7-.19.05,0-.19.21-.33.29Z"/><path class="cls-2" d="M432.15,107.82l-1.11,0A.68.68,0,0,1,432.15,107.82Z"/><path class="cls-2" d="M374.47,74.43V75l-.06.51c-1.32,4.19-3.74,7.5-7.9,9.2A13.47,13.47,0,0,1,348.15,69a12.75,12.75,0,0,1,10.21-9.83,13.35,13.35,0,0,1,16.09,10.87,2.69,2.69,0,0,0,.2.51A12.55,12.55,0,0,1,374.47,74.43Zm-13.27,8.8a10.91,10.91,0,0,0,10.94-10.89,11,11,0,0,0-11-10.92,10.86,10.86,0,0,0-10.87,10.93A10.74,10.74,0,0,0,361.2,83.23Z"/><path class="cls-2" d="M424.56,72.35a13.46,13.46,0,1,1-13.41-13.48A13.35,13.35,0,0,1,424.56,72.35ZM411,83.23a10.91,10.91,0,0,0,.21-21.81,11,11,0,0,0-11,10.82A10.85,10.85,0,0,0,411,83.23Z"/><path class="cls-2" d="M375.89,44.61a6.15,6.15,0,0,1-.88,3.1,10.8,10.8,0,0,1-10.22,6.11,8.15,8.15,0,0,1-7.71-5,26.7,26.7,0,0,1-1.74-7.39,45.84,45.84,0,0,1,.72-15.58c1-3.86,3.06-4.76,6.11-2.31A38.56,38.56,0,0,1,375.63,43,11.47,11.47,0,0,1,375.89,44.61Zm-17-19.11a6.43,6.43,0,0,0-.35.92,42.76,42.76,0,0,0,.26,19.52c.9,3.51,2.4,4.74,5.94,5.14,2.2.25,5.88-1.13,6.57-2.92a4.31,4.31,0,0,0,.56-.39c1.7-1.84,1.58-3.9.73-6.05a41,41,0,0,0-7.11-11.45,23.49,23.49,0,0,0-5.35-5C359.75,25,359.17,24.49,358.93,25.5Z"/><path class="cls-2" d="M417.21,36.32a43.34,43.34,0,0,1-1.14,10c-1,4.43-3.77,6.76-8.18,7.33-5.75.73-13.78-5.27-10.78-12.58a44.08,44.08,0,0,1,12.68-17.38,3.88,3.88,0,0,1,.47-.32c3.05-2,4.8-1.42,5.86,2.11A36.67,36.67,0,0,1,417.21,36.32Zm-2.59-.84a32.69,32.69,0,0,0-.87-9c-.45-1.88-.74-2-2.35-.79a1.84,1.84,0,0,0-.22.17,41.68,41.68,0,0,0-11.57,15.89c-1.18,2.81-.39,5.07,1.73,7.07,4.4,4.15,10.68,2.46,12.25-3.33A34.57,34.57,0,0,0,414.62,35.48Z"/><path class="cls-2" d="M392.59,97.54c.09,3.61-1.38,5.6-4.64,6.5a6.9,6.9,0,0,1-7.63-2.92c-1-1.71-.77-3.56-.46-5.36a30,30,0,0,1,3.49-9.91,8.3,8.3,0,0,1,1-1.36c1.23-1.37,2.34-1.4,3.61-.09a15.57,15.57,0,0,1,3.14,5.93A21.72,21.72,0,0,1,392.59,97.54Zm-6.38-11.25C384,89.14,382,95.44,382.28,98.6c.14,1.91,1.68,3.09,4,3.05,2.14,0,3.64-1.33,3.72-3.18a15.1,15.1,0,0,0-.6-4.73A23,23,0,0,0,386.21,86.29Z"/><path class="cls-9" d="M388.56,109.86a5.51,5.51,0,0,1,3.7-5.23,2.6,2.6,0,0,1,3.38,2.06,5.7,5.7,0,0,1-2.49,5.6,3,3,0,0,1-3.18.33A2.78,2.78,0,0,1,388.56,109.86Z"/><path class="cls-9" d="M383.76,109.76a3,3,0,0,1-1.44,2.86,2.92,2.92,0,0,1-3.07-.26,5.58,5.58,0,0,1-2.56-5.8,2.58,2.58,0,0,1,3.6-1.84A5.67,5.67,0,0,1,383.76,109.76Z"/><path class="cls-8" d="M374.47,74.43a12.55,12.55,0,0,0,.18-3.87c.76,1,.16,2,.33,3.06C375.05,74,375,74.37,374.47,74.43Z"/><path class="cls-8" d="M374.4,75.53l.06-.51a.42.42,0,0,1,.2.54C374.59,75.74,374.48,75.62,374.4,75.53Z"/><path class="cls-10" d="M361.2,83.23a10.74,10.74,0,0,1-10.89-10.88,10.86,10.86,0,0,1,10.87-10.93,11,11,0,0,1,11,10.92A10.91,10.91,0,0,1,361.2,83.23Zm-1-8.67a4,4,0,1,0,8,0,4,4,0,1,0-8,0Z"/><path class="cls-10" d="M411,83.23a10.85,10.85,0,0,1-10.82-11,10.9,10.9,0,1,1,21.8.36A10.77,10.77,0,0,1,411,83.23Zm-2.61-12.76a4,4,0,0,0-4,4,4,4,0,1,0,8,0A4,4,0,0,0,408.39,70.47Z"/><path class="cls-10" d="M371.35,48.16c-.69,1.79-4.37,3.17-6.57,2.92-3.54-.4-5-1.63-5.94-5.14a42.76,42.76,0,0,1-.26-19.52,6.43,6.43,0,0,1,.35-.92A10.76,10.76,0,0,1,361,27.16a40.27,40.27,0,0,1,7.4,10.57C370.06,41,371.66,44.32,371.35,48.16Z"/><path class="cls-11" d="M371.35,48.16c.31-3.84-1.29-7.15-2.94-10.43A40.27,40.27,0,0,0,361,27.16a10.76,10.76,0,0,0-2.08-1.66c.24-1,.82-.5,1.25-.22a23.49,23.49,0,0,1,5.35,5,41,41,0,0,1,7.11,11.45c.85,2.15,1,4.21-.73,6.05A4.31,4.31,0,0,1,371.35,48.16Z"/><path class="cls-10" d="M414.62,35.48a34.57,34.57,0,0,1-1,10.05c-1.57,5.79-7.85,7.48-12.25,3.33-2.12-2-2.91-4.26-1.73-7.07A41.68,41.68,0,0,1,411.18,25.9a1.84,1.84,0,0,1,.22-.17c1.61-1.17,1.9-1.09,2.35.79A32.69,32.69,0,0,1,414.62,35.48Z"/><path class="cls-12" d="M386.21,86.29a23,23,0,0,1,3.16,7.45,15.1,15.1,0,0,1,.6,4.73c-.08,1.85-1.58,3.15-3.72,3.18-2.29,0-3.83-1.14-4-3.05C382,95.44,384,89.14,386.21,86.29Z"/><path class="cls-2" d="M360.21,74.56a4,4,0,1,1,8,0,4,4,0,1,1-8,0Z"/><path class="cls-2" d="M408.39,70.47a4,4,0,0,1,4,4,4,4,0,1,1-8,0A4,4,0,0,1,408.39,70.47Z"/></g></svg>